# vtk DataFile Version 1.0
Cube
ASCII

DATASET POLYDATA
POINTS 252 float
13.047527 13.047527 8.723062
13.059772 11.423840 7.617257
0.232925 1.368268 6.345225
0.232925 27.988268 6.345225
26.852925 1.368268 6.345225
26.852925 27.988268 6.345225
12.910700 10.148875 7.991721
12.575288 9.872027 8.836113
0.000000 3.495206 6.978450
0.000000 30.115206 6.978450
26.620000 3.495206 6.978450
26.620000 30.115206 6.978450
0.000000 9.282394 6.978450
26.620000 9.282394 6.978450
0.358039 2.652683 5.965179
0.358039 29.272683 5.965179
26.978039 2.652683 5.965179
26.978039 29.272683 5.965179
0.654852 2.934855 5.108225
0.654852 29.554855 5.108225
27.274852 2.934855 5.108225
27.274852 29.554855 5.108225
0.000000 4.976609 6.978450
26.620000 4.976609 6.978450
0.000000 7.828942 6.978450
26.620000 7.828942 6.978450
0.381997 5.702004 5.871668
27.001997 5.702004 5.871668
0.656183 5.238816 5.088686
27.276183 5.238816 5.088686
0.379335 7.094230 5.866085
26.999335 7.094230 5.866085
0.644204 7.553425 5.077520
27.264204 7.553425 5.077520
0.813241 5.091075 4.682540
27.433241 5.091075 4.682540
0.725395 7.666560 4.735576
27.345395 7.666560 4.735576
13.047527 13.047527 22.679962
13.059772 11.423840 21.574157
0.232925 1.368268 20.302125
0.232925 27.988268 20.302125
26.852925 1.368268 20.302125
26.852925 27.988268 20.302125
12.910700 10.148875 21.948621
12.575288 9.872027 22.793013
0.000000 3.495206 20.935350
0.000000 30.115206 20.935350
26.620000 3.495206 20.935350
26.620000 30.115206 20.935350
0.000000 9.282394 20.935350
26.620000 9.282394 20.935350
0.358039 2.652683 19.922079
0.358039 29.272683 19.922079
26.978039 2.652683 19.922079
26.978039 29.272683 19.922079
0.654852 2.934855 19.065125
0.654852 29.554855 19.065125
27.274852 2.934855 19.065125
27.274852 29.554855 19.065125
0.000000 4.976609 20.935350
26.620000 4.976609 20.935350
0.000000 7.828942 20.935350
26.620000 7.828942 20.935350
0.381997 5.702004 19.828568
27.001997 5.702004 19.828568
0.656183 5.238816 19.045586
27.276183 5.238816 19.045586
0.379335 7.094230 19.822985
26.999335 7.094230 19.822985
0.644204 7.553425 19.034420
27.264204 7.553425 19.034420
0.813241 5.091075 18.639440
27.433241 5.091075 18.639440
0.725395 7.666560 18.692476
27.345395 7.666560 18.692476
13.047527 -0.262473 8.723062
13.047527 26.357527 8.723062
13.059772 -1.886160 7.617257
13.059772 24.733840 7.617257
0.232925 14.678268 6.345225
26.852925 14.678268 6.345225
12.910700 -3.161125 7.991721
12.910700 23.458875 7.991721
12.575288 -3.437973 8.836113
12.575288 23.182027 8.836113
0.000000 16.805206 6.978450
26.620000 16.805206 6.978450
0.000000 22.592394 6.978450
26.620000 22.592394 6.978450
0.358039 15.962683 5.965179
26.978039 15.962683 5.965179
0.654852 16.244855 5.108225
27.274852 16.244855 5.108225
0.000000 18.286609 6.978450
26.620000 18.286609 6.978450
0.000000 21.138942 6.978450
26.620000 21.138942 6.978450
0.381997 19.012004 5.871668
27.001997 19.012004 5.871668
0.656183 18.548816 5.088686
27.276183 18.548816 5.088686
0.379335 20.404230 5.866085
26.999335 20.404230 5.866085
0.644204 20.863425 5.077520
27.264204 20.863425 5.077520
0.813241 18.401075 4.682540
27.433241 18.401075 4.682540
0.725395 20.976560 4.735576
27.345395 20.976560 4.735576
13.047527 -0.262473 22.679962
13.047527 26.357527 22.679962
13.059772 -1.886160 21.574157
13.059772 24.733840 21.574157
0.232925 14.678268 20.302125
26.852925 14.678268 20.302125
12.910700 -3.161125 21.948621
12.910700 23.458875 21.948621
12.575288 -3.437973 22.793013
12.575288 23.182027 22.793013
0.000000 16.805206 20.935350
26.620000 16.805206 20.935350
0.000000 22.592394 20.935350
26.620000 22.592394 20.935350
0.358039 15.962683 19.922079
26.978039 15.962683 19.922079
0.654852 16.244855 19.065125
27.274852 16.244855 19.065125
0.000000 18.286609 20.935350
26.620000 18.286609 20.935350
0.000000 21.138942 20.935350
26.620000 21.138942 20.935350
0.381997 19.012004 19.828568
27.001997 19.012004 19.828568
0.656183 18.548816 19.045586
27.276183 18.548816 19.045586
0.379335 20.404230 19.822985
26.999335 20.404230 19.822985
0.644204 20.863425 19.034420
27.264204 20.863425 19.034420
0.813241 18.401075 18.639440
27.433241 18.401075 18.639440
0.725395 20.976560 18.692476
27.345395 20.976560 18.692476
-0.262473 13.047527 8.723062
26.357527 13.047527 8.723062
-0.250228 11.423840 7.617257
26.369772 11.423840 7.617257
13.542925 1.368268 6.345225
13.542925 27.988268 6.345225
-0.399300 10.148875 7.991721
26.220700 10.148875 7.991721
-0.734712 9.872027 8.836113
25.885288 9.872027 8.836113
13.310000 3.495206 6.978450
13.310000 30.115206 6.978450
13.310000 9.282394 6.978450
13.668039 2.652683 5.965179
13.668039 29.272683 5.965179
13.964852 2.934855 5.108225
13.964852 29.554855 5.108225
13.310000 4.976609 6.978450
13.310000 7.828942 6.978450
13.691997 5.702004 5.871668
13.966183 5.238816 5.088686
13.689335 7.094230 5.866085
13.954204 7.553425 5.077520
14.123241 5.091075 4.682540
14.035395 7.666560 4.735576
-0.262473 13.047527 22.679962
26.357527 13.047527 22.679962
-0.250228 11.423840 21.574157
26.369772 11.423840 21.574157
13.542925 1.368268 20.302125
13.542925 27.988268 20.302125
-0.399300 10.148875 21.948621
26.220700 10.148875 21.948621
-0.734712 9.872027 22.793013
25.885288 9.872027 22.793013
13.310000 3.495206 20.935350
13.310000 30.115206 20.935350
13.310000 9.282394 20.935350
13.668039 2.652683 19.922079
13.668039 29.272683 19.922079
13.964852 2.934855 19.065125
13.964852 29.554855 19.065125
13.310000 4.976609 20.935350
13.310000 7.828942 20.935350
13.691997 5.702004 19.828568
13.966183 5.238816 19.045586
13.689335 7.094230 19.822985
13.954204 7.553425 19.034420
14.123241 5.091075 18.639440
14.035395 7.666560 18.692476
-0.262473 -0.262473 8.723062
-0.262473 26.357527 8.723062
26.357527 -0.262473 8.723062
26.357527 26.357527 8.723062
-0.250228 -1.886160 7.617257
-0.250228 24.733840 7.617257
26.369772 -1.886160 7.617257
26.369772 24.733840 7.617257
13.542925 14.678268 6.345225
-0.399300 -3.161125 7.991721
-0.399300 23.458875 7.991721
26.220700 -3.161125 7.991721
26.220700 23.458875 7.991721
-0.734712 -3.437973 8.836113
-0.734712 23.182027 8.836113
25.885288 -3.437973 8.836113
25.885288 23.182027 8.836113
13.310000 16.805206 6.978450
13.310000 22.592394 6.978450
13.668039 15.962683 5.965179
13.964852 16.244855 5.108225
13.310000 18.286609 6.978450
13.310000 21.138942 6.978450
13.691997 19.012004 5.871668
13.966183 18.548816 5.088686
13.689335 20.404230 5.866085
13.954204 20.863425 5.077520
14.123241 18.401075 4.682540
14.035395 20.976560 4.735576
-0.262473 -0.262473 22.679962
-0.262473 26.357527 22.679962
26.357527 -0.262473 22.679962
26.357527 26.357527 22.679962
-0.250228 -1.886160 21.574157
-0.250228 24.733840 21.574157
26.369772 -1.886160 21.574157
26.369772 24.733840 21.574157
13.542925 14.678268 20.302125
-0.399300 -3.161125 21.948621
-0.399300 23.458875 21.948621
26.220700 -3.161125 21.948621
26.220700 23.458875 21.948621
-0.734712 -3.437973 22.793013
-0.734712 23.182027 22.793013
25.885288 -3.437973 22.793013
25.885288 23.182027 22.793013
13.310000 16.805206 20.935350
13.310000 22.592394 20.935350
13.668039 15.962683 19.922079
13.964852 16.244855 19.065125
13.310000 18.286609 20.935350
13.310000 21.138942 20.935350
13.691997 19.012004 19.828568
13.966183 18.548816 19.045586
13.689335 20.404230 19.822985
13.954204 20.863425 19.034420
14.123241 18.401075 18.639440
14.035395 20.976560 18.692476
LINES 252 756
2 0 1
2 1 6
2 2 14
2 3 15
2 4 16
2 5 17
2 6 7
2 6 156
2 8 14
2 8 22
2 9 15
2 10 16
2 10 23
2 11 17
2 12 24
2 12 150
2 13 25
2 13 151
2 14 18
2 15 19
2 16 20
2 17 21
2 22 26
2 23 27
2 24 30
2 25 31
2 26 28
2 26 30
2 26 34
2 27 29
2 27 31
2 27 35
2 28 34
2 29 35
2 30 32
2 30 36
2 31 33
2 31 37
2 32 36
2 33 37
2 38 39
2 39 44
2 40 52
2 41 53
2 42 54
2 43 55
2 44 45
2 44 181
2 46 52
2 46 60
2 47 53
2 48 54
2 48 61
2 49 55
2 50 62
2 50 175
2 51 63
2 51 176
2 52 56
2 53 57
2 54 58
2 55 59
2 60 64
2 61 65
2 62 68
2 63 69
2 64 66
2 64 68
2 64 72
2 65 67
2 65 69
2 65 73
2 66 72
2 67 73
2 68 70
2 68 74
2 69 71
2 69 75
2 70 74
2 71 75
2 76 78
2 77 79
2 78 82
2 79 83
2 80 90
2 81 91
2 82 84
2 83 85
2 83 212
2 86 90
2 86 94
2 87 91
2 87 95
2 88 96
2 88 204
2 89 97
2 89 206
2 90 92
2 91 93
2 94 98
2 95 99
2 96 102
2 97 103
2 98 100
2 98 102
2 98 106
2 99 101
2 99 103
2 99 107
2 100 106
2 101 107
2 102 104
2 102 108
2 103 105
2 103 109
2 104 108
2 105 109
2 110 112
2 111 113
2 112 116
2 113 117
2 114 124
2 115 125
2 116 118
2 117 119
2 117 241
2 120 124
2 120 128
2 121 125
2 121 129
2 122 130
2 122 233
2 123 131
2 123 235
2 124 126
2 125 127
2 128 132
2 129 133
2 130 136
2 131 137
2 132 134
2 132 136
2 132 140
2 133 135
2 133 137
2 133 141
2 134 140
2 135 141
2 136 138
2 136 142
2 137 139
2 137 143
2 138 142
2 139 143
2 144 146
2 145 147
2 146 150
2 147 151
2 148 157
2 149 158
2 150 152
2 151 153
2 154 157
2 154 161
2 155 158
2 156 162
2 157 159
2 158 160
2 161 163
2 162 165
2 163 164
2 163 165
2 163 167
2 164 167
2 165 166
2 165 168
2 166 168
2 169 171
2 170 172
2 171 175
2 172 176
2 173 182
2 174 183
2 175 177
2 176 178
2 179 182
2 179 186
2 180 183
2 181 187
2 182 184
2 183 185
2 186 188
2 187 190
2 188 189
2 188 190
2 188 192
2 189 192
2 190 191
2 190 193
2 191 193
2 194 198
2 195 199
2 196 200
2 197 201
2 198 203
2 199 204
2 200 205
2 201 206
2 202 213
2 203 207
2 204 208
2 205 209
2 206 210
2 211 213
2 211 215
2 212 216
2 213 214
2 215 217
2 216 219
2 217 218
2 217 219
2 217 221
2 218 221
2 219 220
2 219 222
2 220 222
2 223 227
2 224 228
2 225 229
2 226 230
2 227 232
2 228 233
2 229 234
2 230 235
2 231 242
2 232 236
2 233 237
2 234 238
2 235 239
2 240 242
2 240 244
2 241 245
2 242 243
2 244 246
2 245 248
2 246 247
2 246 248
2 246 250
2 247 250
2 248 249
2 248 251
2 249 251
