# vtk DataFile Version 1.0
Cube
ASCII

DATASET POLYDATA
POINTS 152 float
13.047527 13.047527 8.723062
13.059772 11.423840 7.617257
0.232925 1.368268 6.345225
12.910700 10.148875 7.991721
12.575288 9.872027 8.836113
0.000000 3.495206 6.978450
26.620000 3.495206 6.978450
0.000000 9.282394 6.978450
26.620000 9.282394 6.978450
0.358039 2.652683 5.965179
0.654852 2.934855 5.108225
0.000000 4.976609 6.978450
26.620000 4.976609 6.978450
0.000000 7.828942 6.978450
26.620000 7.828942 6.978450
0.381997 5.702004 5.871668
0.656183 5.238816 5.088686
0.379335 7.094230 5.866085
0.644204 7.553425 5.077520
0.813241 5.091075 4.682540
0.725395 7.666560 4.735576
13.047527 13.047527 22.679962
13.059772 11.423840 21.574157
0.232925 1.368268 20.302125
12.910700 10.148875 21.948621
12.575288 9.872027 22.793013
0.000000 3.495206 20.935350
26.620000 3.495206 20.935350
0.000000 9.282394 20.935350
26.620000 9.282394 20.935350
0.358039 2.652683 19.922079
0.654852 2.934855 19.065125
0.000000 4.976609 20.935350
26.620000 4.976609 20.935350
0.000000 7.828942 20.935350
26.620000 7.828942 20.935350
0.381997 5.702004 19.828568
0.656183 5.238816 19.045586
0.379335 7.094230 19.822985
0.644204 7.553425 19.034420
0.813241 5.091075 18.639440
0.725395 7.666560 18.692476
13.047527 26.357527 8.723062
13.059772 24.733840 7.617257
0.232925 14.678268 6.345225
12.910700 23.458875 7.991721
12.575288 23.182027 8.836113
0.000000 16.805206 6.978450
26.620000 16.805206 6.978450
0.000000 22.592394 6.978450
26.620000 22.592394 6.978450
0.358039 15.962683 5.965179
0.654852 16.244855 5.108225
0.000000 18.286609 6.978450
26.620000 18.286609 6.978450
0.000000 21.138942 6.978450
26.620000 21.138942 6.978450
0.381997 19.012004 5.871668
0.656183 18.548816 5.088686
0.379335 20.404230 5.866085
0.644204 20.863425 5.077520
0.813241 18.401075 4.682540
0.725395 20.976560 4.735576
13.047527 26.357527 22.679962
13.059772 24.733840 21.574157
0.232925 14.678268 20.302125
12.910700 23.458875 21.948621
12.575288 23.182027 22.793013
0.000000 16.805206 20.935350
26.620000 16.805206 20.935350
0.000000 22.592394 20.935350
26.620000 22.592394 20.935350
0.358039 15.962683 19.922079
0.654852 16.244855 19.065125
0.000000 18.286609 20.935350
26.620000 18.286609 20.935350
0.000000 21.138942 20.935350
26.620000 21.138942 20.935350
0.381997 19.012004 19.828568
0.656183 18.548816 19.045586
0.379335 20.404230 19.822985
0.644204 20.863425 19.034420
0.813241 18.401075 18.639440
0.725395 20.976560 18.692476
26.357527 13.047527 8.723062
26.369772 11.423840 7.617257
13.542925 1.368268 6.345225
26.220700 10.148875 7.991721
25.885288 9.872027 8.836113
13.310000 3.495206 6.978450
13.310000 9.282394 6.978450
13.668039 2.652683 5.965179
13.964852 2.934855 5.108225
13.310000 4.976609 6.978450
13.310000 7.828942 6.978450
13.691997 5.702004 5.871668
13.966183 5.238816 5.088686
13.689335 7.094230 5.866085
13.954204 7.553425 5.077520
14.123241 5.091075 4.682540
14.035395 7.666560 4.735576
26.357527 13.047527 22.679962
26.369772 11.423840 21.574157
13.542925 1.368268 20.302125
26.220700 10.148875 21.948621
25.885288 9.872027 22.793013
13.310000 3.495206 20.935350
13.310000 9.282394 20.935350
13.668039 2.652683 19.922079
13.964852 2.934855 19.065125
13.310000 4.976609 20.935350
13.310000 7.828942 20.935350
13.691997 5.702004 19.828568
13.966183 5.238816 19.045586
13.689335 7.094230 19.822985
13.954204 7.553425 19.034420
14.123241 5.091075 18.639440
14.035395 7.666560 18.692476
26.357527 26.357527 8.723062
26.369772 24.733840 7.617257
13.542925 14.678268 6.345225
26.220700 23.458875 7.991721
25.885288 23.182027 8.836113
13.310000 16.805206 6.978450
13.310000 22.592394 6.978450
13.668039 15.962683 5.965179
13.964852 16.244855 5.108225
13.310000 18.286609 6.978450
13.310000 21.138942 6.978450
13.691997 19.012004 5.871668
13.966183 18.548816 5.088686
13.689335 20.404230 5.866085
13.954204 20.863425 5.077520
14.123241 18.401075 4.682540
14.035395 20.976560 4.735576
26.357527 26.357527 22.679962
26.369772 24.733840 21.574157
13.542925 14.678268 20.302125
26.220700 23.458875 21.948621
25.885288 23.182027 22.793013
13.310000 16.805206 20.935350
13.310000 22.592394 20.935350
13.668039 15.962683 19.922079
13.964852 16.244855 19.065125
13.310000 18.286609 20.935350
13.310000 21.138942 20.935350
13.691997 19.012004 19.828568
13.966183 18.548816 19.045586
13.689335 20.404230 19.822985
13.954204 20.863425 19.034420
14.123241 18.401075 18.639440
14.035395 20.976560 18.692476
POINT_DATA 152
SCALARS my_scalars float
LOOKUP_TABLE default
2
1.55
1.55
1.7
1.09
1.7
1.7
1.7
1.7
1.7
1.09
1.7
1.7
1.7
1.7
1.7
1.09
1.7
1.09
1.47
1.47
2
1.55
1.55
1.7
1.09
1.7
1.7
1.7
1.7
1.7
1.09
1.7
1.7
1.7
1.7
1.7
1.09
1.7
1.09
1.47
1.47
2
1.55
1.55
1.7
1.09
1.7
1.7
1.7
1.7
1.7
1.09
1.7
1.7
1.7
1.7
1.7
1.09
1.7
1.09
1.47
1.47
2
1.55
1.55
1.7
1.09
1.7
1.7
1.7
1.7
1.7
1.09
1.7
1.7
1.7
1.7
1.7
1.09
1.7
1.09
1.47
1.47
2
1.55
1.55
1.7
1.09
1.7
1.7
1.7
1.09
1.7
1.7
1.7
1.09
1.7
1.09
1.47
1.47
2
1.55
1.55
1.7
1.09
1.7
1.7
1.7
1.09
1.7
1.7
1.7
1.09
1.7
1.09
1.47
1.47
2
1.55
1.55
1.7
1.09
1.7
1.7
1.7
1.09
1.7
1.7
1.7
1.09
1.7
1.09
1.47
1.47
2
1.55
1.55
1.7
1.09
1.7
1.7
1.7
1.09
1.7
1.7
1.7
1.09
1.7
1.09
1.47
1.47
VECTORS vectors float
0.4375 0 0
0 0 0
0 0 0
0.3125 0 0
0.25 0 0
0.3125 0 0
0.3125 0 0
0.3125 0 0
0.3125 0 0
0.3125 0 0
0.25 0 0
0.3125 0 0
0.3125 0 0
0.3125 0 0
0.3125 0 0
0.3125 0 0
0.25 0 0
0.3125 0 0
0.25 0 0
0.4375 0 0
0.4375 0 0
0.4375 0 0
0 0 0
0 0 0
0.3125 0 0
0.25 0 0
0.3125 0 0
0.3125 0 0
0.3125 0 0
0.3125 0 0
0.3125 0 0
0.25 0 0
0.3125 0 0
0.3125 0 0
0.3125 0 0
0.3125 0 0
0.3125 0 0
0.25 0 0
0.3125 0 0
0.25 0 0
0.4375 0 0
0.4375 0 0
0.4375 0 0
0 0 0
0 0 0
0.3125 0 0
0.25 0 0
0.3125 0 0
0.3125 0 0
0.3125 0 0
0.3125 0 0
0.3125 0 0
0.25 0 0
0.3125 0 0
0.3125 0 0
0.3125 0 0
0.3125 0 0
0.3125 0 0
0.25 0 0
0.3125 0 0
0.25 0 0
0.4375 0 0
0.4375 0 0
0.4375 0 0
0 0 0
0 0 0
0.3125 0 0
0.25 0 0
0.3125 0 0
0.3125 0 0
0.3125 0 0
0.3125 0 0
0.3125 0 0
0.25 0 0
0.3125 0 0
0.3125 0 0
0.3125 0 0
0.3125 0 0
0.3125 0 0
0.25 0 0
0.3125 0 0
0.25 0 0
0.4375 0 0
0.4375 0 0
0.4375 0 0
0 0 0
0 0 0
0.3125 0 0
0.25 0 0
0.3125 0 0
0.3125 0 0
0.3125 0 0
0.25 0 0
0.3125 0 0
0.3125 0 0
0.3125 0 0
0.25 0 0
0.3125 0 0
0.25 0 0
0.4375 0 0
0.4375 0 0
0.4375 0 0
0 0 0
0 0 0
0.3125 0 0
0.25 0 0
0.3125 0 0
0.3125 0 0
0.3125 0 0
0.25 0 0
0.3125 0 0
0.3125 0 0
0.3125 0 0
0.25 0 0
0.3125 0 0
0.25 0 0
0.4375 0 0
0.4375 0 0
0.4375 0 0
0 0 0
0 0 0
0.3125 0 0
0.25 0 0
0.3125 0 0
0.3125 0 0
0.3125 0 0
0.25 0 0
0.3125 0 0
0.3125 0 0
0.3125 0 0
0.25 0 0
0.3125 0 0
0.25 0 0
0.4375 0 0
0.4375 0 0
0.4375 0 0
0 0 0
0 0 0
0.3125 0 0
0.25 0 0
0.3125 0 0
0.3125 0 0
0.3125 0 0
0.25 0 0
0.3125 0 0
0.3125 0 0
0.3125 0 0
0.25 0 0
0.3125 0 0
0.25 0 0
0.4375 0 0
0.4375 0 0
