# vtk DataFile Version 1.0
Cube
ASCII

DATASET POLYDATA
POINTS 742 float
10.356378 5.027645 5.761135
-0.452264 7.912284 2.721882
-5.879436 7.912284 35.384466
38.752936 7.912284 2.721882
33.325764 7.912284 35.384466
9.408345 3.474449 4.818820
3.981174 3.474449 37.481404
9.408345 31.078649 4.818820
3.981174 31.078649 37.481404
9.531885 2.797226 5.160688
9.531885 30.401426 5.160688
11.465447 5.810684 4.141616
6.038275 5.810684 36.804200
10.745478 4.865700 2.280937
5.318307 4.865700 34.943521
16.324151 7.105321 4.240692
10.896980 7.105321 36.903276
17.611313 6.510911 2.522640
12.184142 6.510911 35.185224
13.033898 5.179468 1.025605
7.606727 5.179468 33.688189
16.504060 6.633289 3.122543
11.076889 6.633289 35.785127
14.056565 6.090407 2.987538
8.629394 6.090407 35.650122
13.975848 6.380646 3.867119
8.548677 6.380646 36.529703
15.296632 6.088566 2.366949
9.869461 6.088566 35.029533
14.237144 5.219954 0.449655
8.809973 5.219954 33.112239
12.492250 4.941547 10.452702
12.941814 5.659781 2.299446
7.514643 5.659781 34.962030
15.389831 5.645979 1.074599
9.962660 5.645979 33.737183
16.208066 5.631993 0.630758
10.780895 5.631993 33.293342
11.620896 5.412263 2.970118
6.193725 5.412263 35.632702
8.547321 5.027645 16.648663
-2.261321 7.912284 13.609410
36.943879 7.912284 13.609410
7.599288 3.474449 15.706348
7.599288 31.078649 15.706348
7.722828 2.797226 16.048216
7.722828 30.401426 16.048216
9.656390 5.810684 15.029144
8.936421 4.865700 13.168465
14.515094 7.105321 15.128220
15.802256 6.510911 13.410168
11.224841 5.179468 11.913133
14.695003 6.633289 14.010071
12.247508 6.090407 13.875066
12.166791 6.380646 14.754647
13.487575 6.088566 13.254477
12.428087 5.219954 11.337183
10.683193 4.941547 21.340230
11.132757 5.659781 13.186974
13.580774 5.645979 11.962127
14.399009 5.631993 11.518286
9.811839 5.412263 13.857646
6.738264 5.027645 27.536192
-4.070378 7.912284 24.496938
35.134822 7.912284 24.496938
5.790231 3.474449 26.593876
5.790231 31.078649 26.593876
5.913771 2.797226 26.935744
5.913771 30.401426 26.935744
7.847333 5.810684 25.916672
7.127364 4.865700 24.055993
12.706037 7.105321 26.015748
13.993199 6.510911 24.297696
9.415784 5.179468 22.800661
12.885946 6.633289 24.897599
10.438451 6.090407 24.762594
10.357734 6.380646 25.642175
11.678518 6.088566 24.142005
10.619030 5.219954 22.224711
14.301307 4.941547 -0.434826
8.874136 4.941547 32.227758
9.323700 5.659781 24.074502
11.771717 5.645979 22.849655
12.589952 5.631993 22.405814
8.002782 5.412263 24.745174
10.356378 14.229045 5.761135
-0.452264 17.113684 2.721882
-5.879436 17.113684 35.384466
38.752936 17.113684 2.721882
33.325764 17.113684 35.384466
9.408345 12.675849 4.818820
3.981174 12.675849 37.481404
9.531885 11.998626 5.160688
11.465447 15.012084 4.141616
6.038275 15.012084 36.804200
10.745478 14.067100 2.280937
5.318307 14.067100 34.943521
16.324151 16.306721 4.240692
10.896980 16.306721 36.903276
17.611313 15.712311 2.522640
12.184142 15.712311 35.185224
13.033898 14.380868 1.025605
7.606727 14.380868 33.688189
16.504060 15.834689 3.122543
11.076889 15.834689 35.785127
14.056565 15.291807 2.987538
8.629394 15.291807 35.650122
13.975848 15.582046 3.867119
8.548677 15.582046 36.529703
15.296632 15.289966 2.366949
9.869461 15.289966 35.029533
14.237144 14.421354 0.449655
8.809973 14.421354 33.112239
12.492250 14.142947 10.452702
12.941814 14.861181 2.299446
7.514643 14.861181 34.962030
15.389831 14.847379 1.074599
9.962660 14.847379 33.737183
16.208066 14.833393 0.630758
10.780895 14.833393 33.293342
11.620896 14.613663 2.970118
6.193725 14.613663 35.632702
8.547321 14.229045 16.648663
-2.261321 17.113684 13.609410
36.943879 17.113684 13.609410
7.599288 12.675849 15.706348
7.722828 11.998626 16.048216
9.656390 15.012084 15.029144
8.936421 14.067100 13.168465
14.515094 16.306721 15.128220
15.802256 15.712311 13.410168
11.224841 14.380868 11.913133
14.695003 15.834689 14.010071
12.247508 15.291807 13.875066
12.166791 15.582046 14.754647
13.487575 15.289966 13.254477
12.428087 14.421354 11.337183
10.683193 14.142947 21.340230
11.132757 14.861181 13.186974
13.580774 14.847379 11.962127
14.399009 14.833393 11.518286
9.811839 14.613663 13.857646
6.738264 14.229045 27.536192
-4.070378 17.113684 24.496938
35.134822 17.113684 24.496938
5.790231 12.675849 26.593876
5.913771 11.998626 26.935744
7.847333 15.012084 25.916672
7.127364 14.067100 24.055993
12.706037 16.306721 26.015748
13.993199 15.712311 24.297696
9.415784 14.380868 22.800661
12.885946 15.834689 24.897599
10.438451 15.291807 24.762594
10.357734 15.582046 25.642175
11.678518 15.289966 24.142005
10.619030 14.421354 22.224711
14.301307 14.142947 -0.434826
8.874136 14.142947 32.227758
9.323700 14.861181 24.074502
11.771717 14.847379 22.849655
12.589952 14.833393 22.405814
8.002782 14.613663 24.745174
10.356378 23.430445 5.761135
-0.452264 -1.289116 2.721882
-5.879436 -1.289116 35.384466
-0.452264 26.315084 2.721882
-5.879436 26.315084 35.384466
38.752936 -1.289116 2.721882
33.325764 -1.289116 35.384466
38.752936 26.315084 2.721882
33.325764 26.315084 35.384466
9.408345 21.877249 4.818820
3.981174 21.877249 37.481404
9.531885 21.200026 5.160688
11.465447 -3.390716 4.141616
6.038275 -3.390716 36.804200
11.465447 24.213484 4.141616
6.038275 24.213484 36.804200
10.745478 23.268500 2.280937
5.318307 23.268500 34.943521
16.324151 -2.096079 4.240692
10.896980 -2.096079 36.903276
16.324151 25.508121 4.240692
10.896980 25.508121 36.903276
17.611313 -2.690489 2.522640
12.184142 -2.690489 35.185224
17.611313 24.913711 2.522640
12.184142 24.913711 35.185224
13.033898 -4.021932 1.025605
7.606727 -4.021932 33.688189
13.033898 23.582268 1.025605
7.606727 23.582268 33.688189
16.504060 -2.568111 3.122543
11.076889 -2.568111 35.785127
16.504060 25.036089 3.122543
11.076889 25.036089 35.785127
14.056565 -3.110993 2.987538
8.629394 -3.110993 35.650122
14.056565 24.493207 2.987538
8.629394 24.493207 35.650122
13.975848 -2.820754 3.867119
8.548677 -2.820754 36.529703
13.975848 24.783446 3.867119
8.548677 24.783446 36.529703
15.296632 -3.112834 2.366949
9.869461 -3.112834 35.029533
15.296632 24.491366 2.366949
9.869461 24.491366 35.029533
14.237144 -3.981446 0.449655
8.809973 -3.981446 33.112239
14.237144 23.622754 0.449655
8.809973 23.622754 33.112239
12.492250 23.344347 10.452702
12.941814 -3.541619 2.299446
7.514643 -3.541619 34.962030
12.941814 24.062581 2.299446
7.514643 24.062581 34.962030
15.389831 -3.555421 1.074599
9.962660 -3.555421 33.737183
15.389831 24.048779 1.074599
9.962660 24.048779 33.737183
16.208066 -3.569407 0.630758
10.780895 -3.569407 33.293342
16.208066 24.034793 0.630758
10.780895 24.034793 33.293342
11.620896 -3.789137 2.970118
6.193725 -3.789137 35.632702
11.620896 23.815063 2.970118
6.193725 23.815063 35.632702
8.547321 23.430445 16.648663
-2.261321 -1.289116 13.609410
-2.261321 26.315084 13.609410
36.943879 -1.289116 13.609410
36.943879 26.315084 13.609410
7.599288 21.877249 15.706348
7.722828 21.200026 16.048216
9.656390 -3.390716 15.029144
9.656390 24.213484 15.029144
8.936421 23.268500 13.168465
14.515094 -2.096079 15.128220
14.515094 25.508121 15.128220
15.802256 -2.690489 13.410168
15.802256 24.913711 13.410168
11.224841 -4.021932 11.913133
11.224841 23.582268 11.913133
14.695003 -2.568111 14.010071
14.695003 25.036089 14.010071
12.247508 -3.110993 13.875066
12.247508 24.493207 13.875066
12.166791 -2.820754 14.754647
12.166791 24.783446 14.754647
13.487575 -3.112834 13.254477
13.487575 24.491366 13.254477
12.428087 -3.981446 11.337183
12.428087 23.622754 11.337183
10.683193 23.344347 21.340230
11.132757 -3.541619 13.186974
11.132757 24.062581 13.186974
13.580774 -3.555421 11.962127
13.580774 24.048779 11.962127
14.399009 -3.569407 11.518286
14.399009 24.034793 11.518286
9.811839 -3.789137 13.857646
9.811839 23.815063 13.857646
6.738264 23.430445 27.536192
-4.070378 -1.289116 24.496938
-4.070378 26.315084 24.496938
35.134822 -1.289116 24.496938
35.134822 26.315084 24.496938
5.790231 21.877249 26.593876
5.913771 21.200026 26.935744
7.847333 -3.390716 25.916672
7.847333 24.213484 25.916672
7.127364 23.268500 24.055993
12.706037 -2.096079 26.015748
12.706037 25.508121 26.015748
13.993199 -2.690489 24.297696
13.993199 24.913711 24.297696
9.415784 -4.021932 22.800661
9.415784 23.582268 22.800661
12.885946 -2.568111 24.897599
12.885946 25.036089 24.897599
10.438451 -3.110993 24.762594
10.438451 24.493207 24.762594
10.357734 -2.820754 25.642175
10.357734 24.783446 25.642175
11.678518 -3.112834 24.142005
11.678518 24.491366 24.142005
10.619030 -3.981446 22.224711
10.619030 23.622754 22.224711
14.301307 23.344347 -0.434826
8.874136 23.344347 32.227758
9.323700 -3.541619 24.074502
9.323700 24.062581 24.074502
11.771717 -3.555421 22.849655
11.771717 24.048779 22.849655
12.589952 -3.569407 22.405814
12.589952 24.034793 22.405814
8.002782 -3.789137 24.745174
8.002782 23.815063 24.745174
29.958978 5.027645 5.761135
19.150336 7.912284 2.721882
13.723164 7.912284 35.384466
29.010945 3.474449 4.818820
23.583774 3.474449 37.481404
29.010945 31.078649 4.818820
23.583774 31.078649 37.481404
29.134485 2.797226 5.160688
29.134485 30.401426 5.160688
31.068047 5.810684 4.141616
25.640875 5.810684 36.804200
30.348078 4.865700 2.280937
24.920907 4.865700 34.943521
-3.278449 7.105321 4.240692
-8.705620 7.105321 36.903276
35.926751 7.105321 4.240692
30.499580 7.105321 36.903276
-1.991287 6.510911 2.522640
-7.418458 6.510911 35.185224
37.213913 6.510911 2.522640
31.786742 6.510911 35.185224
32.636498 5.179468 1.025605
27.209327 5.179468 33.688189
-3.098540 6.633289 3.122543
-8.525711 6.633289 35.785127
36.106660 6.633289 3.122543
30.679489 6.633289 35.785127
-5.546035 6.090407 2.987538
-10.973206 6.090407 35.650122
33.659165 6.090407 2.987538
28.231994 6.090407 35.650122
-5.626752 6.380646 3.867119
-11.053923 6.380646 36.529703
33.578448 6.380646 3.867119
28.151277 6.380646 36.529703
-4.305968 6.088566 2.366949
-9.733139 6.088566 35.029533
34.899232 6.088566 2.366949
29.472061 6.088566 35.029533
-5.365456 5.219954 0.449655
-10.792627 5.219954 33.112239
33.839744 5.219954 0.449655
28.412573 5.219954 33.112239
-7.110350 4.941547 10.452702
32.094850 4.941547 10.452702
32.544414 5.659781 2.299446
27.117243 5.659781 34.962030
-4.212769 5.645979 1.074599
-9.639940 5.645979 33.737183
34.992431 5.645979 1.074599
29.565260 5.645979 33.737183
-3.394534 5.631993 0.630758
-8.821705 5.631993 33.293342
35.810666 5.631993 0.630758
30.383495 5.631993 33.293342
31.223496 5.412263 2.970118
25.796325 5.412263 35.632702
28.149921 5.027645 16.648663
17.341279 7.912284 13.609410
27.201888 3.474449 15.706348
27.201888 31.078649 15.706348
27.325428 2.797226 16.048216
27.325428 30.401426 16.048216
29.258990 5.810684 15.029144
28.539021 4.865700 13.168465
-5.087506 7.105321 15.128220
34.117694 7.105321 15.128220
-3.800344 6.510911 13.410168
35.404856 6.510911 13.410168
30.827441 5.179468 11.913133
-4.907597 6.633289 14.010071
34.297603 6.633289 14.010071
-7.355092 6.090407 13.875066
31.850108 6.090407 13.875066
-7.435809 6.380646 14.754647
31.769391 6.380646 14.754647
-6.115025 6.088566 13.254477
33.090175 6.088566 13.254477
-7.174513 5.219954 11.337183
32.030687 5.219954 11.337183
-8.919407 4.941547 21.340230
30.285793 4.941547 21.340230
30.735357 5.659781 13.186974
-6.021826 5.645979 11.962127
33.183374 5.645979 11.962127
-5.203591 5.631993 11.518286
34.001609 5.631993 11.518286
29.414439 5.412263 13.857646
26.340864 5.027645 27.536192
15.532222 7.912284 24.496938
25.392831 3.474449 26.593876
25.392831 31.078649 26.593876
25.516371 2.797226 26.935744
25.516371 30.401426 26.935744
27.449933 5.810684 25.916672
26.729964 4.865700 24.055993
-6.896563 7.105321 26.015748
32.308637 7.105321 26.015748
-5.609401 6.510911 24.297696
33.595799 6.510911 24.297696
29.018384 5.179468 22.800661
-6.716654 6.633289 24.897599
32.488546 6.633289 24.897599
-9.164149 6.090407 24.762594
30.041051 6.090407 24.762594
-9.244866 6.380646 25.642175
29.960334 6.380646 25.642175
-7.924082 6.088566 24.142005
31.281118 6.088566 24.142005
-8.983570 5.219954 22.224711
30.221630 5.219954 22.224711
-5.301293 4.941547 -0.434826
-10.728464 4.941547 32.227758
33.903907 4.941547 -0.434826
28.476736 4.941547 32.227758
28.926300 5.659781 24.074502
-7.830883 5.645979 22.849655
31.374317 5.645979 22.849655
-7.012648 5.631993 22.405814
32.192552 5.631993 22.405814
27.605382 5.412263 24.745174
29.958978 14.229045 5.761135
19.150336 17.113684 2.721882
13.723164 17.113684 35.384466
29.010945 12.675849 4.818820
23.583774 12.675849 37.481404
29.134485 11.998626 5.160688
31.068047 15.012084 4.141616
25.640875 15.012084 36.804200
30.348078 14.067100 2.280937
24.920907 14.067100 34.943521
-3.278449 16.306721 4.240692
-8.705620 16.306721 36.903276
35.926751 16.306721 4.240692
30.499580 16.306721 36.903276
-1.991287 15.712311 2.522640
-7.418458 15.712311 35.185224
37.213913 15.712311 2.522640
31.786742 15.712311 35.185224
32.636498 14.380868 1.025605
27.209327 14.380868 33.688189
-3.098540 15.834689 3.122543
-8.525711 15.834689 35.785127
36.106660 15.834689 3.122543
30.679489 15.834689 35.785127
-5.546035 15.291807 2.987538
-10.973206 15.291807 35.650122
33.659165 15.291807 2.987538
28.231994 15.291807 35.650122
-5.626752 15.582046 3.867119
-11.053923 15.582046 36.529703
33.578448 15.582046 3.867119
28.151277 15.582046 36.529703
-4.305968 15.289966 2.366949
-9.733139 15.289966 35.029533
34.899232 15.289966 2.366949
29.472061 15.289966 35.029533
-5.365456 14.421354 0.449655
-10.792627 14.421354 33.112239
33.839744 14.421354 0.449655
28.412573 14.421354 33.112239
-7.110350 14.142947 10.452702
32.094850 14.142947 10.452702
32.544414 14.861181 2.299446
27.117243 14.861181 34.962030
-4.212769 14.847379 1.074599
-9.639940 14.847379 33.737183
34.992431 14.847379 1.074599
29.565260 14.847379 33.737183
-3.394534 14.833393 0.630758
-8.821705 14.833393 33.293342
35.810666 14.833393 0.630758
30.383495 14.833393 33.293342
31.223496 14.613663 2.970118
25.796325 14.613663 35.632702
28.149921 14.229045 16.648663
17.341279 17.113684 13.609410
27.201888 12.675849 15.706348
27.325428 11.998626 16.048216
29.258990 15.012084 15.029144
28.539021 14.067100 13.168465
-5.087506 16.306721 15.128220
34.117694 16.306721 15.128220
-3.800344 15.712311 13.410168
35.404856 15.712311 13.410168
30.827441 14.380868 11.913133
-4.907597 15.834689 14.010071
34.297603 15.834689 14.010071
-7.355092 15.291807 13.875066
31.850108 15.291807 13.875066
-7.435809 15.582046 14.754647
31.769391 15.582046 14.754647
-6.115025 15.289966 13.254477
33.090175 15.289966 13.254477
-7.174513 14.421354 11.337183
32.030687 14.421354 11.337183
-8.919407 14.142947 21.340230
30.285793 14.142947 21.340230
30.735357 14.861181 13.186974
-6.021826 14.847379 11.962127
33.183374 14.847379 11.962127
-5.203591 14.833393 11.518286
34.001609 14.833393 11.518286
29.414439 14.613663 13.857646
26.340864 14.229045 27.536192
15.532222 17.113684 24.496938
25.392831 12.675849 26.593876
25.516371 11.998626 26.935744
27.449933 15.012084 25.916672
26.729964 14.067100 24.055993
-6.896563 16.306721 26.015748
32.308637 16.306721 26.015748
-5.609401 15.712311 24.297696
33.595799 15.712311 24.297696
29.018384 14.380868 22.800661
-6.716654 15.834689 24.897599
32.488546 15.834689 24.897599
-9.164149 15.291807 24.762594
30.041051 15.291807 24.762594
-9.244866 15.582046 25.642175
29.960334 15.582046 25.642175
-7.924082 15.289966 24.142005
31.281118 15.289966 24.142005
-8.983570 14.421354 22.224711
30.221630 14.421354 22.224711
-5.301293 14.142947 -0.434826
-10.728464 14.142947 32.227758
33.903907 14.142947 -0.434826
28.476736 14.142947 32.227758
28.926300 14.861181 24.074502
-7.830883 14.847379 22.849655
31.374317 14.847379 22.849655
-7.012648 14.833393 22.405814
32.192552 14.833393 22.405814
27.605382 14.613663 24.745174
29.958978 23.430445 5.761135
19.150336 -1.289116 2.721882
13.723164 -1.289116 35.384466
19.150336 26.315084 2.721882
13.723164 26.315084 35.384466
29.010945 21.877249 4.818820
23.583774 21.877249 37.481404
29.134485 21.200026 5.160688
31.068047 -3.390716 4.141616
25.640875 -3.390716 36.804200
31.068047 24.213484 4.141616
25.640875 24.213484 36.804200
30.348078 23.268500 2.280937
24.920907 23.268500 34.943521
-3.278449 -2.096079 4.240692
-8.705620 -2.096079 36.903276
-3.278449 25.508121 4.240692
-8.705620 25.508121 36.903276
35.926751 -2.096079 4.240692
30.499580 -2.096079 36.903276
35.926751 25.508121 4.240692
30.499580 25.508121 36.903276
-1.991287 -2.690489 2.522640
-7.418458 -2.690489 35.185224
-1.991287 24.913711 2.522640
-7.418458 24.913711 35.185224
37.213913 -2.690489 2.522640
31.786742 -2.690489 35.185224
37.213913 24.913711 2.522640
31.786742 24.913711 35.185224
32.636498 -4.021932 1.025605
27.209327 -4.021932 33.688189
32.636498 23.582268 1.025605
27.209327 23.582268 33.688189
-3.098540 -2.568111 3.122543
-8.525711 -2.568111 35.785127
-3.098540 25.036089 3.122543
-8.525711 25.036089 35.785127
36.106660 -2.568111 3.122543
30.679489 -2.568111 35.785127
36.106660 25.036089 3.122543
30.679489 25.036089 35.785127
-5.546035 -3.110993 2.987538
-10.973206 -3.110993 35.650122
-5.546035 24.493207 2.987538
-10.973206 24.493207 35.650122
33.659165 -3.110993 2.987538
28.231994 -3.110993 35.650122
33.659165 24.493207 2.987538
28.231994 24.493207 35.650122
-5.626752 -2.820754 3.867119
-11.053923 -2.820754 36.529703
-5.626752 24.783446 3.867119
-11.053923 24.783446 36.529703
33.578448 -2.820754 3.867119
28.151277 -2.820754 36.529703
33.578448 24.783446 3.867119
28.151277 24.783446 36.529703
-4.305968 -3.112834 2.366949
-9.733139 -3.112834 35.029533
-4.305968 24.491366 2.366949
-9.733139 24.491366 35.029533
34.899232 -3.112834 2.366949
29.472061 -3.112834 35.029533
34.899232 24.491366 2.366949
29.472061 24.491366 35.029533
-5.365456 -3.981446 0.449655
-10.792627 -3.981446 33.112239
-5.365456 23.622754 0.449655
-10.792627 23.622754 33.112239
33.839744 -3.981446 0.449655
28.412573 -3.981446 33.112239
33.839744 23.622754 0.449655
28.412573 23.622754 33.112239
-7.110350 23.344347 10.452702
32.094850 23.344347 10.452702
32.544414 -3.541619 2.299446
27.117243 -3.541619 34.962030
32.544414 24.062581 2.299446
27.117243 24.062581 34.962030
-4.212769 -3.555421 1.074599
-9.639940 -3.555421 33.737183
-4.212769 24.048779 1.074599
-9.639940 24.048779 33.737183
34.992431 -3.555421 1.074599
29.565260 -3.555421 33.737183
34.992431 24.048779 1.074599
29.565260 24.048779 33.737183
-3.394534 -3.569407 0.630758
-8.821705 -3.569407 33.293342
-3.394534 24.034793 0.630758
-8.821705 24.034793 33.293342
35.810666 -3.569407 0.630758
30.383495 -3.569407 33.293342
35.810666 24.034793 0.630758
30.383495 24.034793 33.293342
31.223496 -3.789137 2.970118
25.796325 -3.789137 35.632702
31.223496 23.815063 2.970118
25.796325 23.815063 35.632702
28.149921 23.430445 16.648663
17.341279 -1.289116 13.609410
17.341279 26.315084 13.609410
27.201888 21.877249 15.706348
27.325428 21.200026 16.048216
29.258990 -3.390716 15.029144
29.258990 24.213484 15.029144
28.539021 23.268500 13.168465
-5.087506 -2.096079 15.128220
-5.087506 25.508121 15.128220
34.117694 -2.096079 15.128220
34.117694 25.508121 15.128220
-3.800344 -2.690489 13.410168
-3.800344 24.913711 13.410168
35.404856 -2.690489 13.410168
35.404856 24.913711 13.410168
30.827441 -4.021932 11.913133
30.827441 23.582268 11.913133
-4.907597 -2.568111 14.010071
-4.907597 25.036089 14.010071
34.297603 -2.568111 14.010071
34.297603 25.036089 14.010071
-7.355092 -3.110993 13.875066
-7.355092 24.493207 13.875066
31.850108 -3.110993 13.875066
31.850108 24.493207 13.875066
-7.435809 -2.820754 14.754647
-7.435809 24.783446 14.754647
31.769391 -2.820754 14.754647
31.769391 24.783446 14.754647
-6.115025 -3.112834 13.254477
-6.115025 24.491366 13.254477
33.090175 -3.112834 13.254477
33.090175 24.491366 13.254477
-7.174513 -3.981446 11.337183
-7.174513 23.622754 11.337183
32.030687 -3.981446 11.337183
32.030687 23.622754 11.337183
-8.919407 23.344347 21.340230
30.285793 23.344347 21.340230
30.735357 -3.541619 13.186974
30.735357 24.062581 13.186974
-6.021826 -3.555421 11.962127
-6.021826 24.048779 11.962127
33.183374 -3.555421 11.962127
33.183374 24.048779 11.962127
-5.203591 -3.569407 11.518286
-5.203591 24.034793 11.518286
34.001609 -3.569407 11.518286
34.001609 24.034793 11.518286
29.414439 -3.789137 13.857646
29.414439 23.815063 13.857646
26.340864 23.430445 27.536192
15.532222 -1.289116 24.496938
15.532222 26.315084 24.496938
25.392831 21.877249 26.593876
25.516371 21.200026 26.935744
27.449933 -3.390716 25.916672
27.449933 24.213484 25.916672
26.729964 23.268500 24.055993
-6.896563 -2.096079 26.015748
-6.896563 25.508121 26.015748
32.308637 -2.096079 26.015748
32.308637 25.508121 26.015748
-5.609401 -2.690489 24.297696
-5.609401 24.913711 24.297696
33.595799 -2.690489 24.297696
33.595799 24.913711 24.297696
29.018384 -4.021932 22.800661
29.018384 23.582268 22.800661
-6.716654 -2.568111 24.897599
-6.716654 25.036089 24.897599
32.488546 -2.568111 24.897599
32.488546 25.036089 24.897599
-9.164149 -3.110993 24.762594
-9.164149 24.493207 24.762594
30.041051 -3.110993 24.762594
30.041051 24.493207 24.762594
-9.244866 -2.820754 25.642175
-9.244866 24.783446 25.642175
29.960334 -2.820754 25.642175
29.960334 24.783446 25.642175
-7.924082 -3.112834 24.142005
-7.924082 24.491366 24.142005
31.281118 -3.112834 24.142005
31.281118 24.491366 24.142005
-8.983570 -3.981446 22.224711
-8.983570 23.622754 22.224711
30.221630 -3.981446 22.224711
30.221630 23.622754 22.224711
-5.301293 23.344347 -0.434826
-10.728464 23.344347 32.227758
33.903907 23.344347 -0.434826
28.476736 23.344347 32.227758
28.926300 -3.541619 24.074502
28.926300 24.062581 24.074502
-7.830883 -3.555421 22.849655
-7.830883 24.048779 22.849655
31.374317 -3.555421 22.849655
31.374317 24.048779 22.849655
-7.012648 -3.569407 22.405814
-7.012648 24.034793 22.405814
32.192552 -3.569407 22.405814
32.192552 24.034793 22.405814
27.605382 -3.789137 24.745174
27.605382 23.815063 24.745174
LINES 712 2136
2 0 5
2 0 11
2 1 318
2 2 319
2 3 320
2 4 321
2 5 9
2 7 10
2 11 38
2 12 39
2 13 38
2 14 39
2 15 21
2 16 22
2 17 21
2 17 302
2 18 22
2 18 303
2 19 29
2 19 32
2 20 30
2 20 33
2 21 27
2 22 28
2 23 25
2 23 27
2 23 32
2 24 26
2 24 28
2 24 33
2 27 34
2 28 35
2 29 34
2 29 79
2 30 35
2 30 80
2 31 56
2 32 38
2 33 39
2 34 36
2 35 37
2 40 43
2 40 47
2 41 368
2 42 369
2 43 45
2 44 46
2 47 61
2 48 61
2 49 52
2 50 52
2 50 359
2 51 56
2 51 58
2 52 55
2 53 54
2 53 55
2 53 58
2 55 59
2 56 59
2 57 78
2 58 61
2 59 60
2 62 65
2 62 69
2 63 399
2 64 400
2 65 67
2 66 68
2 69 84
2 70 84
2 71 74
2 72 74
2 72 390
2 73 78
2 73 81
2 74 77
2 75 76
2 75 77
2 75 81
2 77 82
2 78 82
2 81 84
2 82 83
2 85 90
2 85 93
2 86 436
2 87 437
2 88 438
2 89 439
2 90 92
2 93 120
2 94 121
2 95 120
2 96 121
2 97 103
2 98 104
2 99 103
2 99 423
2 100 104
2 100 424
2 101 111
2 101 114
2 102 112
2 102 115
2 103 109
2 104 110
2 105 107
2 105 109
2 105 114
2 106 108
2 106 110
2 106 115
2 109 116
2 110 117
2 111 116
2 111 157
2 112 117
2 112 158
2 113 136
2 114 120
2 115 121
2 116 118
2 117 119
2 122 125
2 122 127
2 123 484
2 124 485
2 125 126
2 127 141
2 128 141
2 129 132
2 130 132
2 130 477
2 131 136
2 131 138
2 132 135
2 133 134
2 133 135
2 133 138
2 135 139
2 136 139
2 137 156
2 138 141
2 139 140
2 142 145
2 142 147
2 143 513
2 144 514
2 145 146
2 147 162
2 148 162
2 149 152
2 150 152
2 150 506
2 151 156
2 151 159
2 152 155
2 153 154
2 153 155
2 153 159
2 155 160
2 156 160
2 159 162
2 160 161
2 163 172
2 163 177
2 164 558
2 165 559
2 166 560
2 167 561
2 168 562
2 169 563
2 170 564
2 171 565
2 172 174
2 175 226
2 176 227
2 177 228
2 178 229
2 179 228
2 180 229
2 181 193
2 182 194
2 183 195
2 184 196
2 185 193
2 185 537
2 186 194
2 186 538
2 187 195
2 187 539
2 188 196
2 188 540
2 189 209
2 189 214
2 190 210
2 190 215
2 191 211
2 191 216
2 192 212
2 192 217
2 193 205
2 194 206
2 195 207
2 196 208
2 197 201
2 197 205
2 197 214
2 198 202
2 198 206
2 198 215
2 199 203
2 199 207
2 199 216
2 200 204
2 200 208
2 200 217
2 205 218
2 206 219
2 207 220
2 208 221
2 209 218
2 210 219
2 211 220
2 211 291
2 212 221
2 212 292
2 213 255
2 214 226
2 215 227
2 216 228
2 217 229
2 218 222
2 219 223
2 220 224
2 221 225
2 230 235
2 230 238
2 231 648
2 232 649
2 233 650
2 234 651
2 235 236
2 237 263
2 238 264
2 239 264
2 240 246
2 241 247
2 242 246
2 242 637
2 243 247
2 243 638
2 244 254
2 244 257
2 245 255
2 245 258
2 246 252
2 247 253
2 248 250
2 248 252
2 248 257
2 249 251
2 249 253
2 249 258
2 252 259
2 253 260
2 254 259
2 255 260
2 256 290
2 257 263
2 258 264
2 259 261
2 260 262
2 265 270
2 265 273
2 266 700
2 267 701
2 268 702
2 269 703
2 270 271
2 272 299
2 273 300
2 274 300
2 275 281
2 276 282
2 277 281
2 277 689
2 278 282
2 278 690
2 279 289
2 279 293
2 280 290
2 280 294
2 281 287
2 282 288
2 283 285
2 283 287
2 283 293
2 284 286
2 284 288
2 284 294
2 287 295
2 288 296
2 289 295
2 290 296
2 293 299
2 294 300
2 295 297
2 296 298
2 301 304
2 301 310
2 304 308
2 306 309
2 310 356
2 311 357
2 312 356
2 313 357
2 314 324
2 315 325
2 316 326
2 317 327
2 318 324
2 319 325
2 320 326
2 321 327
2 322 342
2 322 346
2 323 343
2 323 347
2 324 336
2 325 337
2 326 338
2 327 339
2 328 332
2 328 336
2 329 333
2 329 337
2 330 334
2 330 338
2 330 346
2 331 335
2 331 339
2 331 347
2 336 348
2 337 349
2 338 350
2 339 351
2 340 348
2 340 412
2 341 349
2 341 413
2 342 350
2 342 414
2 343 351
2 343 415
2 344 379
2 345 380
2 346 356
2 347 357
2 348 352
2 349 353
2 350 354
2 351 355
2 358 360
2 358 364
2 360 362
2 361 363
2 364 388
2 365 388
2 366 371
2 367 372
2 368 371
2 369 372
2 370 380
2 370 383
2 371 377
2 372 378
2 373 375
2 373 377
2 374 376
2 374 378
2 374 383
2 377 384
2 378 385
2 379 384
2 380 385
2 381 410
2 382 411
2 383 388
2 384 386
2 385 387
2 389 391
2 389 395
2 391 393
2 392 394
2 395 421
2 396 421
2 397 402
2 398 403
2 399 402
2 400 403
2 401 411
2 401 416
2 402 408
2 403 409
2 404 406
2 404 408
2 405 407
2 405 409
2 405 416
2 408 417
2 409 418
2 410 417
2 411 418
2 416 421
2 417 419
2 418 420
2 422 425
2 422 428
2 425 427
2 428 474
2 429 475
2 430 474
2 431 475
2 432 442
2 433 443
2 434 444
2 435 445
2 436 442
2 437 443
2 438 444
2 439 445
2 440 460
2 440 464
2 441 461
2 441 465
2 442 454
2 443 455
2 444 456
2 445 457
2 446 450
2 446 454
2 447 451
2 447 455
2 448 452
2 448 456
2 448 464
2 449 453
2 449 457
2 449 465
2 454 466
2 455 467
2 456 468
2 457 469
2 458 466
2 458 526
2 459 467
2 459 527
2 460 468
2 460 528
2 461 469
2 461 529
2 462 495
2 463 496
2 464 474
2 465 475
2 466 470
2 467 471
2 468 472
2 469 473
2 476 478
2 476 480
2 478 479
2 480 504
2 481 504
2 482 487
2 483 488
2 484 487
2 485 488
2 486 496
2 486 499
2 487 493
2 488 494
2 489 491
2 489 493
2 490 492
2 490 494
2 490 499
2 493 500
2 494 501
2 495 500
2 496 501
2 497 524
2 498 525
2 499 504
2 500 502
2 501 503
2 505 507
2 505 509
2 507 508
2 509 535
2 510 535
2 511 516
2 512 517
2 513 516
2 514 517
2 515 525
2 515 530
2 516 522
2 517 523
2 518 520
2 518 522
2 519 521
2 519 523
2 519 530
2 522 531
2 523 532
2 524 531
2 525 532
2 530 535
2 531 533
2 532 534
2 536 541
2 536 546
2 541 543
2 544 632
2 545 633
2 546 634
2 547 635
2 548 634
2 549 635
2 550 570
2 551 571
2 552 572
2 553 573
2 554 574
2 555 575
2 556 576
2 557 577
2 558 570
2 559 571
2 560 572
2 561 573
2 562 574
2 563 575
2 564 576
2 565 577
2 566 606
2 566 612
2 567 607
2 567 613
2 568 608
2 568 614
2 569 609
2 569 615
2 570 594
2 571 595
2 572 596
2 573 597
2 574 598
2 575 599
2 576 600
2 577 601
2 578 586
2 578 594
2 579 587
2 579 595
2 580 588
2 580 596
2 581 589
2 581 597
2 582 590
2 582 598
2 582 612
2 583 591
2 583 599
2 583 613
2 584 592
2 584 600
2 584 614
2 585 593
2 585 601
2 585 615
2 594 616
2 595 617
2 596 618
2 597 619
2 598 620
2 599 621
2 600 622
2 601 623
2 602 616
2 603 617
2 604 618
2 604 726
2 605 619
2 605 727
2 606 620
2 607 621
2 608 622
2 608 728
2 609 623
2 609 729
2 610 671
2 611 673
2 612 632
2 613 633
2 614 634
2 615 635
2 616 624
2 617 625
2 618 626
2 619 627
2 620 628
2 621 629
2 622 630
2 623 631
2 636 639
2 636 642
2 639 640
2 641 686
2 642 687
2 643 687
2 644 654
2 645 655
2 646 656
2 647 657
2 648 654
2 649 655
2 650 656
2 651 657
2 652 672
2 652 676
2 653 673
2 653 677
2 654 666
2 655 667
2 656 668
2 657 669
2 658 662
2 658 666
2 659 663
2 659 667
2 660 664
2 660 668
2 660 676
2 661 665
2 661 669
2 661 677
2 666 678
2 667 679
2 668 680
2 669 681
2 670 678
2 671 679
2 672 680
2 673 681
2 674 723
2 675 725
2 676 686
2 677 687
2 678 682
2 679 683
2 680 684
2 681 685
2 688 691
2 688 694
2 691 692
2 693 740
2 694 741
2 695 741
2 696 706
2 697 707
2 698 708
2 699 709
2 700 706
2 701 707
2 702 708
2 703 709
2 704 724
2 704 730
2 705 725
2 705 731
2 706 718
2 707 719
2 708 720
2 709 721
2 710 714
2 710 718
2 711 715
2 711 719
2 712 716
2 712 720
2 712 730
2 713 717
2 713 721
2 713 731
2 718 732
2 719 733
2 720 734
2 721 735
2 722 732
2 723 733
2 724 734
2 725 735
2 730 740
2 731 741
2 732 736
2 733 737
2 734 738
2 735 739
