# vtk DataFile Version 1.0
Cube
ASCII

DATASET POLYDATA
POINTS 351 float
10.356378 5.027645 5.761135
-0.452264 7.912284 2.721882
38.752936 7.912284 2.721882
9.408345 3.474449 4.818820
9.531885 2.797226 5.160688
11.465447 5.810684 4.141616
10.745478 4.865700 2.280937
16.324151 7.105321 4.240692
17.611313 6.510911 2.522640
13.033898 5.179468 1.025605
16.504060 6.633289 3.122543
14.056565 6.090407 2.987538
13.975848 6.380646 3.867119
15.296632 6.088566 2.366949
14.237144 5.219954 0.449655
12.492250 4.941547 10.452702
12.941814 5.659781 2.299446
15.389831 5.645979 1.074599
16.208066 5.631993 0.630758
11.620896 5.412263 2.970118
8.547321 5.027645 16.648663
-2.261321 7.912284 13.609410
36.943879 7.912284 13.609410
7.599288 3.474449 15.706348
7.722828 2.797226 16.048216
9.656390 5.810684 15.029144
8.936421 4.865700 13.168465
14.515094 7.105321 15.128220
15.802256 6.510911 13.410168
11.224841 5.179468 11.913133
14.695003 6.633289 14.010071
12.247508 6.090407 13.875066
12.166791 6.380646 14.754647
13.487575 6.088566 13.254477
12.428087 5.219954 11.337183
10.683193 4.941547 21.340230
11.132757 5.659781 13.186974
13.580774 5.645979 11.962127
14.399009 5.631993 11.518286
9.811839 5.412263 13.857646
6.738264 5.027645 27.536192
-4.070378 7.912284 24.496938
35.134822 7.912284 24.496938
5.790231 3.474449 26.593876
5.913771 2.797226 26.935744
7.847333 5.810684 25.916672
7.127364 4.865700 24.055993
12.706037 7.105321 26.015748
13.993199 6.510911 24.297696
9.415784 5.179468 22.800661
12.885946 6.633289 24.897599
10.438451 6.090407 24.762594
10.357734 6.380646 25.642175
11.678518 6.088566 24.142005
10.619030 5.219954 22.224711
8.874136 4.941547 32.227758
9.323700 5.659781 24.074502
11.771717 5.645979 22.849655
12.589952 5.631993 22.405814
8.002782 5.412263 24.745174
10.356378 14.229045 5.761135
-0.452264 17.113684 2.721882
38.752936 17.113684 2.721882
9.408345 12.675849 4.818820
9.531885 11.998626 5.160688
11.465447 15.012084 4.141616
10.745478 14.067100 2.280937
16.324151 16.306721 4.240692
17.611313 15.712311 2.522640
13.033898 14.380868 1.025605
16.504060 15.834689 3.122543
14.056565 15.291807 2.987538
13.975848 15.582046 3.867119
15.296632 15.289966 2.366949
14.237144 14.421354 0.449655
12.492250 14.142947 10.452702
12.941814 14.861181 2.299446
15.389831 14.847379 1.074599
16.208066 14.833393 0.630758
11.620896 14.613663 2.970118
8.547321 14.229045 16.648663
-2.261321 17.113684 13.609410
36.943879 17.113684 13.609410
7.599288 12.675849 15.706348
7.722828 11.998626 16.048216
9.656390 15.012084 15.029144
8.936421 14.067100 13.168465
14.515094 16.306721 15.128220
15.802256 15.712311 13.410168
11.224841 14.380868 11.913133
14.695003 15.834689 14.010071
12.247508 15.291807 13.875066
12.166791 15.582046 14.754647
13.487575 15.289966 13.254477
12.428087 14.421354 11.337183
10.683193 14.142947 21.340230
11.132757 14.861181 13.186974
13.580774 14.847379 11.962127
14.399009 14.833393 11.518286
9.811839 14.613663 13.857646
6.738264 14.229045 27.536192
-4.070378 17.113684 24.496938
35.134822 17.113684 24.496938
5.790231 12.675849 26.593876
5.913771 11.998626 26.935744
7.847333 15.012084 25.916672
7.127364 14.067100 24.055993
12.706037 16.306721 26.015748
13.993199 15.712311 24.297696
9.415784 14.380868 22.800661
12.885946 15.834689 24.897599
10.438451 15.291807 24.762594
10.357734 15.582046 25.642175
11.678518 15.289966 24.142005
10.619030 14.421354 22.224711
8.874136 14.142947 32.227758
9.323700 14.861181 24.074502
11.771717 14.847379 22.849655
12.589952 14.833393 22.405814
8.002782 14.613663 24.745174
10.356378 23.430445 5.761135
-0.452264 26.315084 2.721882
38.752936 26.315084 2.721882
9.408345 21.877249 4.818820
9.531885 21.200026 5.160688
11.465447 24.213484 4.141616
10.745478 23.268500 2.280937
16.324151 25.508121 4.240692
17.611313 24.913711 2.522640
13.033898 23.582268 1.025605
16.504060 25.036089 3.122543
14.056565 24.493207 2.987538
13.975848 24.783446 3.867119
15.296632 24.491366 2.366949
14.237144 23.622754 0.449655
12.492250 23.344347 10.452702
12.941814 24.062581 2.299446
15.389831 24.048779 1.074599
16.208066 24.034793 0.630758
11.620896 23.815063 2.970118
8.547321 23.430445 16.648663
-2.261321 26.315084 13.609410
36.943879 26.315084 13.609410
7.599288 21.877249 15.706348
7.722828 21.200026 16.048216
9.656390 24.213484 15.029144
8.936421 23.268500 13.168465
14.515094 25.508121 15.128220
15.802256 24.913711 13.410168
11.224841 23.582268 11.913133
14.695003 25.036089 14.010071
12.247508 24.493207 13.875066
12.166791 24.783446 14.754647
13.487575 24.491366 13.254477
12.428087 23.622754 11.337183
10.683193 23.344347 21.340230
11.132757 24.062581 13.186974
13.580774 24.048779 11.962127
14.399009 24.034793 11.518286
9.811839 23.815063 13.857646
6.738264 23.430445 27.536192
-4.070378 26.315084 24.496938
35.134822 26.315084 24.496938
5.790231 21.877249 26.593876
5.913771 21.200026 26.935744
7.847333 24.213484 25.916672
7.127364 23.268500 24.055993
12.706037 25.508121 26.015748
13.993199 24.913711 24.297696
9.415784 23.582268 22.800661
12.885946 25.036089 24.897599
10.438451 24.493207 24.762594
10.357734 24.783446 25.642175
11.678518 24.491366 24.142005
10.619030 23.622754 22.224711
8.874136 23.344347 32.227758
9.323700 24.062581 24.074502
11.771717 24.048779 22.849655
12.589952 24.034793 22.405814
8.002782 23.815063 24.745174
29.958978 5.027645 5.761135
19.150336 7.912284 2.721882
29.010945 3.474449 4.818820
29.134485 2.797226 5.160688
31.068047 5.810684 4.141616
30.348078 4.865700 2.280937
35.926751 7.105321 4.240692
37.213913 6.510911 2.522640
32.636498 5.179468 1.025605
36.106660 6.633289 3.122543
33.659165 6.090407 2.987538
33.578448 6.380646 3.867119
34.899232 6.088566 2.366949
33.839744 5.219954 0.449655
32.094850 4.941547 10.452702
32.544414 5.659781 2.299446
34.992431 5.645979 1.074599
35.810666 5.631993 0.630758
31.223496 5.412263 2.970118
28.149921 5.027645 16.648663
17.341279 7.912284 13.609410
27.201888 3.474449 15.706348
27.325428 2.797226 16.048216
29.258990 5.810684 15.029144
28.539021 4.865700 13.168465
34.117694 7.105321 15.128220
35.404856 6.510911 13.410168
30.827441 5.179468 11.913133
34.297603 6.633289 14.010071
31.850108 6.090407 13.875066
31.769391 6.380646 14.754647
33.090175 6.088566 13.254477
32.030687 5.219954 11.337183
30.285793 4.941547 21.340230
30.735357 5.659781 13.186974
33.183374 5.645979 11.962127
34.001609 5.631993 11.518286
29.414439 5.412263 13.857646
26.340864 5.027645 27.536192
15.532222 7.912284 24.496938
25.392831 3.474449 26.593876
25.516371 2.797226 26.935744
27.449933 5.810684 25.916672
26.729964 4.865700 24.055993
32.308637 7.105321 26.015748
33.595799 6.510911 24.297696
29.018384 5.179468 22.800661
32.488546 6.633289 24.897599
30.041051 6.090407 24.762594
29.960334 6.380646 25.642175
31.281118 6.088566 24.142005
30.221630 5.219954 22.224711
28.476736 4.941547 32.227758
28.926300 5.659781 24.074502
31.374317 5.645979 22.849655
32.192552 5.631993 22.405814
27.605382 5.412263 24.745174
29.958978 14.229045 5.761135
19.150336 17.113684 2.721882
29.010945 12.675849 4.818820
29.134485 11.998626 5.160688
31.068047 15.012084 4.141616
30.348078 14.067100 2.280937
35.926751 16.306721 4.240692
37.213913 15.712311 2.522640
32.636498 14.380868 1.025605
36.106660 15.834689 3.122543
33.659165 15.291807 2.987538
33.578448 15.582046 3.867119
34.899232 15.289966 2.366949
33.839744 14.421354 0.449655
32.094850 14.142947 10.452702
32.544414 14.861181 2.299446
34.992431 14.847379 1.074599
35.810666 14.833393 0.630758
31.223496 14.613663 2.970118
28.149921 14.229045 16.648663
17.341279 17.113684 13.609410
27.201888 12.675849 15.706348
27.325428 11.998626 16.048216
29.258990 15.012084 15.029144
28.539021 14.067100 13.168465
34.117694 16.306721 15.128220
35.404856 15.712311 13.410168
30.827441 14.380868 11.913133
34.297603 15.834689 14.010071
31.850108 15.291807 13.875066
31.769391 15.582046 14.754647
33.090175 15.289966 13.254477
32.030687 14.421354 11.337183
30.285793 14.142947 21.340230
30.735357 14.861181 13.186974
33.183374 14.847379 11.962127
34.001609 14.833393 11.518286
29.414439 14.613663 13.857646
26.340864 14.229045 27.536192
15.532222 17.113684 24.496938
25.392831 12.675849 26.593876
25.516371 11.998626 26.935744
27.449933 15.012084 25.916672
26.729964 14.067100 24.055993
32.308637 16.306721 26.015748
33.595799 15.712311 24.297696
29.018384 14.380868 22.800661
32.488546 15.834689 24.897599
30.041051 15.291807 24.762594
29.960334 15.582046 25.642175
31.281118 15.289966 24.142005
30.221630 14.421354 22.224711
28.476736 14.142947 32.227758
28.926300 14.861181 24.074502
31.374317 14.847379 22.849655
32.192552 14.833393 22.405814
27.605382 14.613663 24.745174
29.958978 23.430445 5.761135
19.150336 26.315084 2.721882
29.010945 21.877249 4.818820
29.134485 21.200026 5.160688
31.068047 24.213484 4.141616
30.348078 23.268500 2.280937
35.926751 25.508121 4.240692
37.213913 24.913711 2.522640
32.636498 23.582268 1.025605
36.106660 25.036089 3.122543
33.659165 24.493207 2.987538
33.578448 24.783446 3.867119
34.899232 24.491366 2.366949
33.839744 23.622754 0.449655
32.094850 23.344347 10.452702
32.544414 24.062581 2.299446
34.992431 24.048779 1.074599
35.810666 24.034793 0.630758
31.223496 23.815063 2.970118
28.149921 23.430445 16.648663
17.341279 26.315084 13.609410
27.201888 21.877249 15.706348
27.325428 21.200026 16.048216
29.258990 24.213484 15.029144
28.539021 23.268500 13.168465
34.117694 25.508121 15.128220
35.404856 24.913711 13.410168
30.827441 23.582268 11.913133
34.297603 25.036089 14.010071
31.850108 24.493207 13.875066
31.769391 24.783446 14.754647
33.090175 24.491366 13.254477
32.030687 23.622754 11.337183
30.285793 23.344347 21.340230
30.735357 24.062581 13.186974
33.183374 24.048779 11.962127
34.001609 24.034793 11.518286
29.414439 23.815063 13.857646
26.340864 23.430445 27.536192
15.532222 26.315084 24.496938
25.392831 21.877249 26.593876
25.516371 21.200026 26.935744
27.449933 24.213484 25.916672
26.729964 23.268500 24.055993
32.308637 25.508121 26.015748
33.595799 24.913711 24.297696
29.018384 23.582268 22.800661
32.488546 25.036089 24.897599
30.041051 24.493207 24.762594
29.960334 24.783446 25.642175
31.281118 24.491366 24.142005
30.221630 23.622754 22.224711
28.476736 23.344347 32.227758
28.926300 24.062581 24.074502
31.374317 24.048779 22.849655
32.192552 24.034793 22.405814
27.605382 23.815063 24.745174
POINT_DATA 351
SCALARS my_scalars float
LOOKUP_TABLE default
2
2
2
1.52
1.09
1.52
1.52
1.52
1.52
1.55
1.7
1.7
1.09
1.7
1.7
1.09
1.7
1.7
1.09
1.7
2
2
2
1.52
1.09
1.52
1.52
1.52
1.52
1.55
1.7
1.7
1.09
1.7
1.7
1.09
1.7
1.7
1.09
1.7
2
2
2
1.52
1.09
1.52
1.52
1.52
1.52
1.55
1.7
1.7
1.09
1.7
1.7
1.09
1.7
1.7
1.09
1.7
2
2
2
1.52
1.09
1.52
1.52
1.52
1.52
1.55
1.7
1.7
1.09
1.7
1.7
1.09
1.7
1.7
1.09
1.7
2
2
2
1.52
1.09
1.52
1.52
1.52
1.52
1.55
1.7
1.7
1.09
1.7
1.7
1.09
1.7
1.7
1.09
1.7
2
2
2
1.52
1.09
1.52
1.52
1.52
1.52
1.55
1.7
1.7
1.09
1.7
1.7
1.09
1.7
1.7
1.09
1.7
2
2
2
1.52
1.09
1.52
1.52
1.52
1.52
1.55
1.7
1.7
1.09
1.7
1.7
1.09
1.7
1.7
1.09
1.7
2
2
2
1.52
1.09
1.52
1.52
1.52
1.52
1.55
1.7
1.7
1.09
1.7
1.7
1.09
1.7
1.7
1.09
1.7
2
2
2
1.52
1.09
1.52
1.52
1.52
1.52
1.55
1.7
1.7
1.09
1.7
1.7
1.09
1.7
1.7
1.09
1.7
2
2
1.52
1.09
1.52
1.52
1.52
1.52
1.55
1.7
1.7
1.09
1.7
1.7
1.09
1.7
1.7
1.09
1.7
2
2
1.52
1.09
1.52
1.52
1.52
1.52
1.55
1.7
1.7
1.09
1.7
1.7
1.09
1.7
1.7
1.09
1.7
2
2
1.52
1.09
1.52
1.52
1.52
1.52
1.55
1.7
1.7
1.09
1.7
1.7
1.09
1.7
1.7
1.09
1.7
2
2
1.52
1.09
1.52
1.52
1.52
1.52
1.55
1.7
1.7
1.09
1.7
1.7
1.09
1.7
1.7
1.09
1.7
2
2
1.52
1.09
1.52
1.52
1.52
1.52
1.55
1.7
1.7
1.09
1.7
1.7
1.09
1.7
1.7
1.09
1.7
2
2
1.52
1.09
1.52
1.52
1.52
1.52
1.55
1.7
1.7
1.09
1.7
1.7
1.09
1.7
1.7
1.09
1.7
2
2
1.52
1.09
1.52
1.52
1.52
1.52
1.55
1.7
1.7
1.09
1.7
1.7
1.09
1.7
1.7
1.09
1.7
2
2
1.52
1.09
1.52
1.52
1.52
1.52
1.55
1.7
1.7
1.09
1.7
1.7
1.09
1.7
1.7
1.09
1.7
2
2
1.52
1.09
1.52
1.52
1.52
1.52
1.55
1.7
1.7
1.09
1.7
1.7
1.09
1.7
1.7
1.09
1.7
VECTORS vectors float
0.4375 0 0
0.4375 0 0
0.4375 0 0
0.03125 0 0
0.25 0 0
0.03125 0 0
0.03125 0 0
0.03125 0 0
0.03125 0 0
0 0 0
0.3125 0 0
0.3125 0 0
0.25 0 0
0.3125 0 0
0.3125 0 0
0.25 0 0
0.3125 0 0
0.3125 0 0
0.25 0 0
0.3125 0 0
0.4375 0 0
0.4375 0 0
0.4375 0 0
0.03125 0 0
0.25 0 0
0.03125 0 0
0.03125 0 0
0.03125 0 0
0.03125 0 0
0 0 0
0.3125 0 0
0.3125 0 0
0.25 0 0
0.3125 0 0
0.3125 0 0
0.25 0 0
0.3125 0 0
0.3125 0 0
0.25 0 0
0.3125 0 0
0.4375 0 0
0.4375 0 0
0.4375 0 0
0.03125 0 0
0.25 0 0
0.03125 0 0
0.03125 0 0
0.03125 0 0
0.03125 0 0
0 0 0
0.3125 0 0
0.3125 0 0
0.25 0 0
0.3125 0 0
0.3125 0 0
0.25 0 0
0.3125 0 0
0.3125 0 0
0.25 0 0
0.3125 0 0
0.4375 0 0
0.4375 0 0
0.4375 0 0
0.03125 0 0
0.25 0 0
0.03125 0 0
0.03125 0 0
0.03125 0 0
0.03125 0 0
0 0 0
0.3125 0 0
0.3125 0 0
0.25 0 0
0.3125 0 0
0.3125 0 0
0.25 0 0
0.3125 0 0
0.3125 0 0
0.25 0 0
0.3125 0 0
0.4375 0 0
0.4375 0 0
0.4375 0 0
0.03125 0 0
0.25 0 0
0.03125 0 0
0.03125 0 0
0.03125 0 0
0.03125 0 0
0 0 0
0.3125 0 0
0.3125 0 0
0.25 0 0
0.3125 0 0
0.3125 0 0
0.25 0 0
0.3125 0 0
0.3125 0 0
0.25 0 0
0.3125 0 0
0.4375 0 0
0.4375 0 0
0.4375 0 0
0.03125 0 0
0.25 0 0
0.03125 0 0
0.03125 0 0
0.03125 0 0
0.03125 0 0
0 0 0
0.3125 0 0
0.3125 0 0
0.25 0 0
0.3125 0 0
0.3125 0 0
0.25 0 0
0.3125 0 0
0.3125 0 0
0.25 0 0
0.3125 0 0
0.4375 0 0
0.4375 0 0
0.4375 0 0
0.03125 0 0
0.25 0 0
0.03125 0 0
0.03125 0 0
0.03125 0 0
0.03125 0 0
0 0 0
0.3125 0 0
0.3125 0 0
0.25 0 0
0.3125 0 0
0.3125 0 0
0.25 0 0
0.3125 0 0
0.3125 0 0
0.25 0 0
0.3125 0 0
0.4375 0 0
0.4375 0 0
0.4375 0 0
0.03125 0 0
0.25 0 0
0.03125 0 0
0.03125 0 0
0.03125 0 0
0.03125 0 0
0 0 0
0.3125 0 0
0.3125 0 0
0.25 0 0
0.3125 0 0
0.3125 0 0
0.25 0 0
0.3125 0 0
0.3125 0 0
0.25 0 0
0.3125 0 0
0.4375 0 0
0.4375 0 0
0.4375 0 0
0.03125 0 0
0.25 0 0
0.03125 0 0
0.03125 0 0
0.03125 0 0
0.03125 0 0
0 0 0
0.3125 0 0
0.3125 0 0
0.25 0 0
0.3125 0 0
0.3125 0 0
0.25 0 0
0.3125 0 0
0.3125 0 0
0.25 0 0
0.3125 0 0
0.4375 0 0
0.4375 0 0
0.03125 0 0
0.25 0 0
0.03125 0 0
0.03125 0 0
0.03125 0 0
0.03125 0 0
0 0 0
0.3125 0 0
0.3125 0 0
0.25 0 0
0.3125 0 0
0.3125 0 0
0.25 0 0
0.3125 0 0
0.3125 0 0
0.25 0 0
0.3125 0 0
0.4375 0 0
0.4375 0 0
0.03125 0 0
0.25 0 0
0.03125 0 0
0.03125 0 0
0.03125 0 0
0.03125 0 0
0 0 0
0.3125 0 0
0.3125 0 0
0.25 0 0
0.3125 0 0
0.3125 0 0
0.25 0 0
0.3125 0 0
0.3125 0 0
0.25 0 0
0.3125 0 0
0.4375 0 0
0.4375 0 0
0.03125 0 0
0.25 0 0
0.03125 0 0
0.03125 0 0
0.03125 0 0
0.03125 0 0
0 0 0
0.3125 0 0
0.3125 0 0
0.25 0 0
0.3125 0 0
0.3125 0 0
0.25 0 0
0.3125 0 0
0.3125 0 0
0.25 0 0
0.3125 0 0
0.4375 0 0
0.4375 0 0
0.03125 0 0
0.25 0 0
0.03125 0 0
0.03125 0 0
0.03125 0 0
0.03125 0 0
0 0 0
0.3125 0 0
0.3125 0 0
0.25 0 0
0.3125 0 0
0.3125 0 0
0.25 0 0
0.3125 0 0
0.3125 0 0
0.25 0 0
0.3125 0 0
0.4375 0 0
0.4375 0 0
0.03125 0 0
0.25 0 0
0.03125 0 0
0.03125 0 0
0.03125 0 0
0.03125 0 0
0 0 0
0.3125 0 0
0.3125 0 0
0.25 0 0
0.3125 0 0
0.3125 0 0
0.25 0 0
0.3125 0 0
0.3125 0 0
0.25 0 0
0.3125 0 0
0.4375 0 0
0.4375 0 0
0.03125 0 0
0.25 0 0
0.03125 0 0
0.03125 0 0
0.03125 0 0
0.03125 0 0
0 0 0
0.3125 0 0
0.3125 0 0
0.25 0 0
0.3125 0 0
0.3125 0 0
0.25 0 0
0.3125 0 0
0.3125 0 0
0.25 0 0
0.3125 0 0
0.4375 0 0
0.4375 0 0
0.03125 0 0
0.25 0 0
0.03125 0 0
0.03125 0 0
0.03125 0 0
0.03125 0 0
0 0 0
0.3125 0 0
0.3125 0 0
0.25 0 0
0.3125 0 0
0.3125 0 0
0.25 0 0
0.3125 0 0
0.3125 0 0
0.25 0 0
0.3125 0 0
0.4375 0 0
0.4375 0 0
0.03125 0 0
0.25 0 0
0.03125 0 0
0.03125 0 0
0.03125 0 0
0.03125 0 0
0 0 0
0.3125 0 0
0.3125 0 0
0.25 0 0
0.3125 0 0
0.3125 0 0
0.25 0 0
0.3125 0 0
0.3125 0 0
0.25 0 0
0.3125 0 0
0.4375 0 0
0.4375 0 0
0.03125 0 0
0.25 0 0
0.03125 0 0
0.03125 0 0
0.03125 0 0
0.03125 0 0
0 0 0
0.3125 0 0
0.3125 0 0
0.25 0 0
0.3125 0 0
0.3125 0 0
0.25 0 0
0.3125 0 0
0.3125 0 0
0.25 0 0
0.3125 0 0
