# vtk DataFile Version 1.0
Cube
ASCII

DATASET POLYDATA
POINTS 1648 float
12.268984 6.438138 1.771258
5.291568 0.786765 2.848183
6.688684 0.806768 2.734823
7.523518 1.693545 3.429156
9.006397 1.420178 3.507091
9.767496 0.760095 2.550612
9.883918 1.920240 4.477741
11.140812 0.800100 2.826928
11.196334 1.480185 4.265190
4.606384 6.650164 2.352231
7.060318 6.584823 2.175105
9.251468 0.226695 1.672068
9.475422 2.606993 5.150819
19.246399 0.786765 0.694333
17.849283 0.806767 0.807694
17.014449 1.693545 0.113361
15.531570 1.420178 0.035425
14.770471 0.760095 0.991905
14.355983 1.920240 6.149809
13.397155 0.800100 0.715588
13.043567 1.480185 6.362360
19.931583 6.650164 1.190286
17.477649 6.584823 1.367411
15.286499 0.226695 1.870449
14.764479 2.606993 5.476731
12.119951 0.229362 5.313775
19.097366 5.880735 4.236850
17.700250 5.860732 4.350210
16.865416 4.973955 3.655877
15.382537 5.247323 3.577942
14.621438 5.907405 4.534421
14.505016 4.747260 2.607292
13.248122 5.867400 4.258105
13.192600 5.187315 2.819843
19.782550 0.017336 4.732802
19.782550 26.687336 4.732802
17.328617 0.082677 4.909928
15.137467 6.440805 5.412965
14.913512 4.060507 1.934214
5.142535 5.880735 6.390700
6.539651 5.860732 6.277339
7.374486 4.973955 6.971672
8.857364 5.247323 7.049608
9.618463 5.907405 6.093128
10.032951 4.747260 0.935224
10.991780 5.867400 6.369445
11.345367 5.187315 0.722673
4.457352 0.017336 5.894747
4.457352 26.687336 5.894747
6.911285 0.082677 5.717622
9.102435 6.440805 5.214584
9.624455 4.060507 1.608302
-0.074516 3.104388 1.771258
24.612484 3.104388 1.771258
17.635068 4.120515 2.848183
19.032184 4.140518 2.734823
19.867018 5.027295 3.429156
21.349897 4.753928 3.507091
22.110996 4.093845 2.550612
22.227418 5.253990 4.477741
23.484312 4.133850 2.826928
23.539834 4.813935 4.265190
16.949884 3.316414 2.352231
19.403818 3.251073 2.175105
21.594968 3.560445 1.672068
21.818922 5.940743 5.150819
6.902899 4.120515 0.694333
5.505783 4.140518 0.807694
4.670949 5.027295 0.113361
3.188070 4.753928 0.035425
2.426971 4.093845 0.991905
2.012483 5.253990 6.149809
1.053655 4.133850 0.715588
0.700067 4.813935 6.362360
7.588083 3.316414 1.190286
5.134149 3.251073 1.367411
2.942999 3.560445 1.870449
2.420979 5.940743 5.476731
-0.223549 3.563112 5.313775
24.463451 3.563112 5.313775
6.753866 2.546985 4.236850
5.356750 2.526983 4.350210
4.521916 1.640205 3.655877
3.039037 1.913573 3.577942
2.277938 2.573655 4.534421
2.161516 1.413510 2.607292
0.904622 2.533650 4.258105
0.849100 1.853565 2.819843
7.439050 3.351086 4.732802
4.985117 3.416427 4.909928
2.793967 3.107055 5.412965
2.570012 0.726758 1.934214
17.486035 2.546985 6.390700
18.883151 2.526983 6.277339
19.717986 1.640205 6.971672
21.200864 1.913573 7.049608
21.961963 2.573655 6.093128
22.376451 1.413510 0.935224
23.335280 2.533650 6.369445
23.688867 1.853565 0.722673
16.800852 3.351086 5.894747
19.254785 3.416427 5.717622
21.445935 3.107055 5.214584
21.967955 0.726758 1.608302
11.970918 6.438138 8.856291
4.993502 0.786765 9.933216
6.390618 0.806768 9.819856
7.225453 1.693545 10.514189
8.708331 1.420178 10.592124
9.469431 0.760095 9.635645
9.585853 1.920240 11.562774
10.842747 0.800100 9.911961
10.898268 1.480185 11.350223
4.308319 6.650165 9.437264
6.762252 6.584823 9.260138
8.953402 0.226695 8.757101
9.177357 2.606993 12.235852
18.948333 0.786765 7.779366
17.551218 0.806768 7.892727
16.716383 1.693545 7.198394
15.233504 1.420178 7.120458
14.472405 0.760095 8.076938
14.057917 1.920240 13.234842
13.099089 0.800100 7.800621
12.745502 1.480185 13.447393
19.633517 6.650165 8.275319
17.179584 6.584823 8.452444
14.988434 0.226695 8.955482
14.466413 2.606993 12.561763
11.821885 0.229362 12.398808
18.799301 5.880735 11.321883
17.402185 5.860733 11.435243
16.567350 4.973955 10.740910
15.084471 5.247323 10.662975
14.323372 5.907405 11.619454
14.206950 4.747260 9.692325
12.950056 5.867400 11.343138
12.894534 5.187315 9.904876
19.484484 0.017336 11.817835
19.484484 26.687336 11.817835
17.030551 0.082677 11.994961
14.839401 6.440805 12.497998
14.615446 4.060508 9.019247
4.844469 5.880735 13.475733
6.241585 5.860733 13.362372
7.076420 4.973955 14.056705
8.559298 5.247323 14.134641
9.320398 5.907405 13.178161
9.734886 4.747260 8.020257
10.693714 5.867400 13.454478
11.047301 5.187315 7.807706
4.159286 0.017336 12.979780
4.159286 26.687336 12.979780
6.613219 0.082677 12.802655
8.804369 6.440805 12.299617
9.326390 4.060508 8.693335
-0.372582 3.104388 8.856291
24.314418 3.104388 8.856291
17.337002 4.120515 9.933216
18.734118 4.140518 9.819856
19.568953 5.027295 10.514189
21.051831 4.753928 10.592124
21.812931 4.093845 9.635645
21.929353 5.253990 11.562774
23.186247 4.133850 9.911961
23.241768 4.813935 11.350223
16.651819 3.316414 9.437264
19.105752 3.251073 9.260138
21.296902 3.560445 8.757101
21.520857 5.940743 12.235852
6.604833 4.120515 7.779366
5.207718 4.140518 7.892727
4.372883 5.027295 7.198394
2.890004 4.753928 7.120458
2.128905 4.093845 8.076938
1.714417 5.253990 13.234842
0.755589 4.133850 7.800621
0.402002 4.813935 13.447393
7.290017 3.316414 8.275319
4.836084 3.251073 8.452444
2.644934 3.560445 8.955482
2.122913 5.940743 12.561763
-0.521615 3.563112 12.398808
24.165385 3.563112 12.398808
6.455801 2.546985 11.321883
5.058685 2.526983 11.435243
4.223850 1.640205 10.740910
2.740971 1.913573 10.662975
1.979872 2.573655 11.619454
1.863450 1.413510 9.692325
0.606556 2.533650 11.343138
0.551034 1.853565 9.904876
7.140984 3.351086 11.817835
4.687051 3.416427 11.994961
2.495901 3.107055 12.497998
2.271946 0.726758 9.019247
17.187969 2.546985 13.475733
18.585085 2.526983 13.362372
19.419920 1.640205 14.056705
20.902798 1.913573 14.134641
21.663898 2.573655 13.178161
22.078386 1.413510 8.020257
23.037214 2.533650 13.454478
23.390801 1.853565 7.807706
16.502786 3.351086 12.979780
18.956719 3.416427 12.802655
21.147869 3.107055 12.299617
21.669890 0.726758 8.693335
11.672852 6.438138 15.941324
4.695436 0.786765 17.018249
6.092552 0.806768 16.904889
6.927387 1.693545 17.599222
8.410266 1.420178 17.677157
9.171365 0.760095 16.720678
9.287787 1.920240 18.647807
10.544681 0.800100 16.996994
10.600203 1.480185 18.435256
4.010253 6.650165 16.522297
6.464186 6.584823 16.345171
8.655336 0.226695 15.842134
8.879291 2.606993 19.320885
18.650268 0.786765 14.864399
17.253152 0.806768 14.977760
16.418317 1.693545 14.283427
14.935439 1.420178 14.205491
14.174339 0.760095 15.161971
13.759851 1.920240 20.319875
12.801023 0.800100 14.885654
12.447436 1.480185 20.532426
19.335451 6.650165 15.360352
16.881518 6.584823 15.537477
14.690368 0.226695 16.040515
14.168347 2.606993 19.646796
11.523819 0.229362 19.483841
18.501235 5.880735 18.406916
17.104119 5.860733 18.520276
16.269284 4.973955 17.825943
14.786406 5.247323 17.748008
14.025306 5.907405 18.704487
13.908884 4.747260 16.777358
12.651990 5.867400 18.428171
12.596469 5.187315 16.989909
19.186418 0.017336 18.902868
19.186418 26.687336 18.902868
16.732485 0.082677 19.079994
14.541335 6.440805 19.583031
14.317380 4.060508 16.104280
4.546404 5.880735 20.560766
5.943519 5.860733 20.447405
6.778354 4.973955 21.141738
8.261233 5.247323 21.219674
9.022332 5.907405 20.263194
9.436820 4.747260 15.105290
10.395648 5.867400 20.539511
10.749235 5.187315 14.892739
3.861220 0.017336 20.064813
3.861220 26.687336 20.064813
6.315153 0.082677 19.887688
8.506303 6.440805 19.384650
9.028324 4.060508 15.778368
-0.670648 3.104388 15.941324
24.016352 3.104388 15.941324
17.038936 4.120515 17.018249
18.436052 4.140518 16.904889
19.270887 5.027295 17.599222
20.753766 4.753928 17.677157
21.514865 4.093845 16.720678
21.631287 5.253990 18.647807
22.888181 4.133850 16.996994
22.943703 4.813935 18.435256
16.353753 3.316414 16.522297
18.807686 3.251073 16.345171
20.998836 3.560445 15.842134
21.222791 5.940743 19.320885
6.306768 4.120515 14.864399
4.909652 4.140518 14.977760
4.074817 5.027295 14.283427
2.591939 4.753928 14.205491
1.830839 4.093845 15.161971
1.416351 5.253990 20.319875
0.457523 4.133850 14.885654
0.103936 4.813935 20.532426
6.991951 3.316414 15.360352
4.538018 3.251073 15.537477
2.346868 3.560445 16.040515
1.824847 5.940743 19.646796
-0.819681 3.563112 19.483841
23.867319 3.563112 19.483841
6.157735 2.546985 18.406916
4.760619 2.526983 18.520276
3.925784 1.640205 17.825943
2.442906 1.913573 17.748008
1.681806 2.573655 18.704487
1.565384 1.413510 16.777358
0.308490 2.533650 18.428171
0.252969 1.853565 16.989909
6.842918 3.351086 18.902868
4.388985 3.416427 19.079994
2.197835 3.107055 19.583031
1.973880 0.726758 16.104280
16.889904 2.546985 20.560766
18.287019 2.526983 20.447405
19.121854 1.640205 21.141738
20.604733 1.913573 21.219674
21.365832 2.573655 20.263194
21.780320 1.413510 15.105290
22.739148 2.533650 20.539511
23.092735 1.853565 14.892739
16.204720 3.351086 20.064813
18.658653 3.416427 19.887688
20.849803 3.107055 19.384650
21.371824 0.726758 15.778368
11.374786 6.438138 23.026357
4.397371 0.786765 24.103282
5.794487 0.806768 23.989922
6.629321 1.693545 24.684255
8.112200 1.420178 24.762190
8.873299 0.760095 23.805711
8.989721 1.920240 25.732840
10.246615 0.800100 24.082027
10.302137 1.480185 25.520289
3.712187 6.650165 23.607330
6.166120 6.584823 23.430204
8.357270 0.226695 22.927167
8.581225 2.606993 26.405918
18.352202 0.786765 21.949432
16.955086 0.806768 22.062793
16.120252 1.693545 21.368460
14.637373 1.420178 21.290524
13.876274 0.760095 22.247004
13.461786 1.920240 27.404908
12.502957 0.800100 21.970687
12.149370 1.480185 27.617459
19.037386 6.650165 22.445385
16.583452 6.584823 22.622510
14.392302 0.226695 23.125548
13.870282 2.606993 26.731829
11.225753 0.229362 26.568874
18.203169 5.880735 25.491949
16.806053 5.860733 25.605309
15.971219 4.973955 24.910976
14.488340 5.247323 24.833041
13.727241 5.907405 25.789520
13.610819 4.747260 23.862391
12.353925 5.867400 25.513204
12.298403 5.187315 24.074942
18.888353 0.017336 25.987901
18.888353 26.687336 25.987901
16.434419 0.082677 26.165027
14.243269 6.440805 26.668064
14.019315 4.060508 23.189313
4.248338 5.880735 27.645799
5.645454 5.860733 27.532438
6.480288 4.973955 28.226771
7.963167 5.247323 28.304707
8.724266 5.907405 27.348227
9.138754 4.747260 22.190323
10.097582 5.867400 27.624544
10.451170 5.187315 21.977772
3.563154 0.017336 27.149846
3.563154 26.687336 27.149846
6.017088 0.082677 26.972721
8.208238 6.440805 26.469683
8.730258 4.060508 22.863401
-0.968714 3.104388 23.026357
23.718286 3.104388 23.026357
16.740871 4.120515 24.103282
18.137987 4.140518 23.989922
18.972821 5.027295 24.684255
20.455700 4.753928 24.762190
21.216799 4.093845 23.805711
21.333221 5.253990 25.732840
22.590115 4.133850 24.082027
22.645637 4.813935 25.520289
16.055687 3.316415 23.607330
18.509620 3.251073 23.430204
20.700770 3.560445 22.927167
20.924725 5.940743 26.405918
6.008702 4.120515 21.949432
4.611586 4.140518 22.062793
3.776752 5.027295 21.368460
2.293873 4.753928 21.290524
1.532774 4.093845 22.247004
1.118286 5.253990 27.404908
0.159457 4.133850 21.970687
-0.194130 4.813935 27.617459
6.693886 3.316415 22.445385
4.239952 3.251073 22.622510
2.048802 3.560445 23.125548
1.526782 5.940743 26.731829
-1.117747 3.563112 26.568874
23.569253 3.563112 26.568874
5.859669 2.546985 25.491949
4.462553 2.526983 25.605309
3.627719 1.640205 24.910976
2.144840 1.913573 24.833041
1.383741 2.573655 25.789520
1.267319 1.413510 23.862391
0.010425 2.533650 25.513204
-0.045097 1.853565 24.074942
6.544853 3.351086 25.987901
4.090919 3.416427 26.165027
1.899769 3.107055 26.668064
1.675815 0.726758 23.189313
16.591838 2.546985 27.645799
17.988954 2.526983 27.532438
18.823788 1.640205 28.226771
20.306667 1.913573 28.304707
21.067766 2.573655 27.348227
21.482254 1.413510 22.190323
22.441082 2.533650 27.624544
22.794670 1.853565 21.977772
15.906654 3.351086 27.149846
18.360588 3.416427 26.972721
20.551738 3.107055 26.469683
21.073758 0.726758 22.863401
12.268984 13.105638 1.771258
5.291568 7.454265 2.848183
6.688684 7.474268 2.734823
7.523518 8.361045 3.429156
9.006397 8.087678 3.507091
9.767496 7.427595 2.550612
9.883918 8.587740 4.477741
11.140812 7.467600 2.826928
11.196334 8.147685 4.265190
4.606384 13.317664 2.352231
7.060318 13.252323 2.175105
9.251468 6.894195 1.672068
9.475422 9.274493 5.150819
19.246399 7.454265 0.694333
17.849283 7.474268 0.807694
17.014449 8.361045 0.113361
15.531570 8.087678 0.035425
14.770471 7.427595 0.991905
14.355983 8.587740 6.149809
13.397155 7.467600 0.715588
13.043567 8.147685 6.362360
19.931583 13.317664 1.190286
17.477649 13.252323 1.367411
15.286499 6.894195 1.870449
14.764479 9.274493 5.476731
12.119951 6.896862 5.313775
19.097366 12.548235 4.236850
17.700250 12.528233 4.350210
16.865416 11.641455 3.655877
15.382537 11.914822 3.577942
14.621438 12.574905 4.534421
14.505016 11.414760 2.607292
13.248122 12.534900 4.258105
13.192600 11.854815 2.819843
19.782550 6.684836 4.732802
17.328617 6.750177 4.909928
15.137467 13.108305 5.412965
14.913512 10.728007 1.934214
5.142535 12.548235 6.390700
6.539651 12.528233 6.277339
7.374486 11.641455 6.971672
8.857364 11.914822 7.049608
9.618463 12.574905 6.093128
10.032951 11.414760 0.935224
10.991780 12.534900 6.369445
11.345367 11.854815 0.722673
4.457352 6.684836 5.894747
6.911285 6.750177 5.717622
9.102435 13.108305 5.214584
9.624455 10.728007 1.608302
-0.074516 9.771888 1.771258
24.612484 9.771888 1.771258
17.635068 10.788015 2.848183
19.032184 10.808018 2.734823
19.867018 11.694795 3.429156
21.349897 11.421428 3.507091
22.110996 10.761345 2.550612
22.227418 11.921490 4.477741
23.484312 10.801350 2.826928
23.539834 11.481435 4.265190
16.949884 9.983914 2.352231
19.403818 9.918573 2.175105
21.594968 10.227945 1.672068
21.818922 12.608243 5.150819
6.902899 10.788015 0.694333
5.505783 10.808018 0.807694
4.670949 11.694795 0.113361
3.188070 11.421428 0.035425
2.426971 10.761345 0.991905
2.012483 11.921490 6.149809
1.053655 10.801350 0.715588
0.700067 11.481435 6.362360
7.588083 9.983914 1.190286
5.134149 9.918573 1.367411
2.942999 10.227945 1.870449
2.420979 12.608243 5.476731
-0.223549 10.230612 5.313775
24.463451 10.230612 5.313775
6.753866 9.214485 4.236850
5.356750 9.194483 4.350210
4.521916 8.307705 3.655877
3.039037 8.581072 3.577942
2.277938 9.241155 4.534421
2.161516 8.081010 2.607292
0.904622 9.201150 4.258105
0.849100 8.521065 2.819843
7.439050 10.018586 4.732802
4.985117 10.083927 4.909928
2.793967 9.774555 5.412965
2.570012 7.394258 1.934214
17.486035 9.214485 6.390700
18.883151 9.194483 6.277339
19.717986 8.307705 6.971672
21.200864 8.581072 7.049608
21.961963 9.241155 6.093128
22.376451 8.081010 0.935224
23.335280 9.201150 6.369445
23.688867 8.521065 0.722673
16.800852 10.018586 5.894747
19.254785 10.083927 5.717622
21.445935 9.774555 5.214584
21.967955 7.394258 1.608302
11.970918 13.105638 8.856291
4.993502 7.454265 9.933216
6.390618 7.474268 9.819856
7.225453 8.361045 10.514189
8.708331 8.087678 10.592124
9.469431 7.427595 9.635645
9.585853 8.587740 11.562774
10.842747 7.467600 9.911961
10.898268 8.147685 11.350223
4.308319 13.317664 9.437264
6.762252 13.252323 9.260138
8.953402 6.894195 8.757101
9.177357 9.274492 12.235852
18.948333 7.454265 7.779366
17.551218 7.474268 7.892727
16.716383 8.361045 7.198394
15.233504 8.087678 7.120458
14.472405 7.427595 8.076938
14.057917 8.587740 13.234842
13.099089 7.467600 7.800621
12.745502 8.147685 13.447393
19.633517 13.317664 8.275319
17.179584 13.252323 8.452444
14.988434 6.894195 8.955482
14.466413 9.274492 12.561763
11.821885 6.896862 12.398808
18.799301 12.548235 11.321883
17.402185 12.528233 11.435243
16.567350 11.641455 10.740910
15.084471 11.914822 10.662975
14.323372 12.574905 11.619454
14.206950 11.414760 9.692325
12.950056 12.534900 11.343138
12.894534 11.854815 9.904876
19.484484 6.684836 11.817835
17.030551 6.750177 11.994961
14.839401 13.108305 12.497998
14.615446 10.728007 9.019247
4.844469 12.548235 13.475733
6.241585 12.528232 13.362372
7.076420 11.641455 14.056705
8.559298 11.914822 14.134641
9.320398 12.574905 13.178161
9.734886 11.414760 8.020257
10.693714 12.534900 13.454478
11.047301 11.854815 7.807706
4.159286 6.684836 12.979780
6.613219 6.750177 12.802655
8.804369 13.108305 12.299617
9.326390 10.728007 8.693335
-0.372582 9.771888 8.856291
24.314418 9.771888 8.856291
17.337002 10.788015 9.933216
18.734118 10.808018 9.819856
19.568953 11.694795 10.514189
21.051831 11.421428 10.592124
21.812931 10.761345 9.635645
21.929353 11.921490 11.562774
23.186247 10.801350 9.911961
23.241768 11.481435 11.350223
16.651819 9.983914 9.437264
19.105752 9.918573 9.260138
21.296902 10.227945 8.757101
21.520857 12.608242 12.235852
6.604833 10.788015 7.779366
5.207718 10.808018 7.892727
4.372883 11.694795 7.198394
2.890004 11.421428 7.120458
2.128905 10.761345 8.076938
1.714417 11.921490 13.234842
0.755589 10.801350 7.800621
0.402002 11.481435 13.447393
7.290017 9.983914 8.275319
4.836084 9.918573 8.452444
2.644934 10.227945 8.955482
2.122913 12.608242 12.561763
-0.521615 10.230612 12.398808
24.165385 10.230612 12.398808
6.455801 9.214485 11.321883
5.058685 9.194483 11.435243
4.223850 8.307705 10.740910
2.740971 8.581072 10.662975
1.979872 9.241155 11.619454
1.863450 8.081010 9.692325
0.606556 9.201150 11.343138
0.551034 8.521065 9.904876
7.140984 10.018586 11.817835
4.687051 10.083927 11.994961
2.495901 9.774555 12.497998
2.271946 7.394258 9.019247
17.187969 9.214485 13.475733
18.585085 9.194482 13.362372
19.419920 8.307705 14.056705
20.902798 8.581072 14.134641
21.663898 9.241155 13.178161
22.078386 8.081010 8.020257
23.037214 9.201150 13.454478
23.390801 8.521065 7.807706
16.502786 10.018586 12.979780
18.956719 10.083927 12.802655
21.147869 9.774555 12.299617
21.669890 7.394258 8.693335
11.672852 13.105638 15.941324
4.695436 7.454265 17.018249
6.092552 7.474268 16.904889
6.927387 8.361045 17.599222
8.410266 8.087678 17.677157
9.171365 7.427595 16.720678
9.287787 8.587740 18.647807
10.544681 7.467600 16.996994
10.600203 8.147685 18.435256
4.010253 13.317664 16.522297
6.464186 13.252323 16.345171
8.655336 6.894195 15.842134
8.879291 9.274493 19.320885
18.650268 7.454265 14.864399
17.253152 7.474268 14.977760
16.418317 8.361045 14.283427
14.935439 8.087678 14.205491
14.174339 7.427595 15.161971
13.759851 8.587740 20.319875
12.801023 7.467600 14.885654
12.447436 8.147685 20.532426
19.335451 13.317664 15.360352
16.881518 13.252323 15.537477
14.690368 6.894195 16.040515
14.168347 9.274493 19.646796
11.523819 6.896862 19.483841
18.501235 12.548235 18.406916
17.104119 12.528233 18.520276
16.269284 11.641455 17.825943
14.786406 11.914822 17.748008
14.025306 12.574905 18.704487
13.908884 11.414760 16.777358
12.651990 12.534900 18.428171
12.596469 11.854815 16.989909
19.186418 6.684836 18.902868
16.732485 6.750177 19.079994
14.541335 13.108305 19.583031
14.317380 10.728008 16.104280
4.546404 12.548235 20.560766
5.943519 12.528233 20.447405
6.778354 11.641455 21.141738
8.261233 11.914822 21.219674
9.022332 12.574905 20.263194
9.436820 11.414760 15.105290
10.395648 12.534900 20.539511
10.749235 11.854815 14.892739
3.861220 6.684836 20.064813
6.315153 6.750177 19.887688
8.506303 13.108305 19.384650
9.028324 10.728008 15.778368
-0.670648 9.771888 15.941324
24.016352 9.771888 15.941324
17.038936 10.788015 17.018249
18.436052 10.808018 16.904889
19.270887 11.694795 17.599222
20.753766 11.421428 17.677157
21.514865 10.761345 16.720678
21.631287 11.921490 18.647807
22.888181 10.801350 16.996994
22.943703 11.481435 18.435256
16.353753 9.983915 16.522297
18.807686 9.918573 16.345171
20.998836 10.227945 15.842134
21.222791 12.608243 19.320885
6.306768 10.788015 14.864399
4.909652 10.808018 14.977760
4.074817 11.694795 14.283427
2.591939 11.421428 14.205491
1.830839 10.761345 15.161971
1.416351 11.921490 20.319875
0.457523 10.801350 14.885654
0.103936 11.481435 20.532426
6.991951 9.983915 15.360352
4.538018 9.918573 15.537477
2.346868 10.227945 16.040515
1.824847 12.608243 19.646796
-0.819681 10.230612 19.483841
23.867319 10.230612 19.483841
6.157735 9.214485 18.406916
4.760619 9.194483 18.520276
3.925784 8.307705 17.825943
2.442906 8.581072 17.748008
1.681806 9.241155 18.704487
1.565384 8.081010 16.777358
0.308490 9.201150 18.428171
0.252969 8.521065 16.989909
6.842918 10.018586 18.902868
4.388985 10.083927 19.079994
2.197835 9.774555 19.583031
1.973880 7.394258 16.104280
16.889904 9.214485 20.560766
18.287019 9.194483 20.447405
19.121854 8.307705 21.141738
20.604733 8.581072 21.219674
21.365832 9.241155 20.263194
21.780320 8.081010 15.105290
22.739148 9.201150 20.539511
23.092735 8.521065 14.892739
16.204720 10.018586 20.064813
18.658653 10.083927 19.887688
20.849803 9.774555 19.384650
21.371824 7.394258 15.778368
11.374786 13.105638 23.026357
4.397371 7.454265 24.103282
5.794487 7.474268 23.989922
6.629321 8.361045 24.684255
8.112200 8.087678 24.762190
8.873299 7.427595 23.805711
8.989721 8.587740 25.732840
10.246615 7.467600 24.082027
10.302137 8.147685 25.520289
3.712187 13.317664 23.607330
6.166120 13.252323 23.430204
8.357270 6.894195 22.927167
8.581225 9.274493 26.405918
18.352202 7.454265 21.949432
16.955086 7.474268 22.062793
16.120252 8.361045 21.368460
14.637373 8.087678 21.290524
13.876274 7.427595 22.247004
13.461786 8.587740 27.404908
12.502957 7.467600 21.970687
12.149370 8.147685 27.617459
19.037386 13.317664 22.445385
16.583452 13.252323 22.622510
14.392302 6.894195 23.125548
13.870282 9.274493 26.731829
11.225753 6.896862 26.568874
18.203169 12.548235 25.491949
16.806053 12.528233 25.605309
15.971219 11.641455 24.910976
14.488340 11.914822 24.833041
13.727241 12.574905 25.789520
13.610819 11.414760 23.862391
12.353925 12.534900 25.513204
12.298403 11.854815 24.074942
18.888353 6.684836 25.987901
16.434419 6.750177 26.165027
14.243269 13.108305 26.668064
14.019315 10.728008 23.189313
4.248338 12.548235 27.645799
5.645454 12.528233 27.532438
6.480288 11.641455 28.226771
7.963167 11.914822 28.304707
8.724266 12.574905 27.348227
9.138754 11.414760 22.190323
10.097582 12.534900 27.624544
10.451170 11.854815 21.977772
3.563154 6.684836 27.149846
6.017088 6.750177 26.972721
8.208238 13.108305 26.469683
8.730258 10.728008 22.863401
-0.968714 9.771888 23.026357
23.718286 9.771888 23.026357
16.740871 10.788015 24.103282
18.137987 10.808018 23.989922
18.972821 11.694795 24.684255
20.455700 11.421428 24.762190
21.216799 10.761345 23.805711
21.333221 11.921490 25.732840
22.590115 10.801350 24.082027
22.645637 11.481435 25.520289
16.055687 9.983915 23.607330
18.509620 9.918573 23.430204
20.700770 10.227945 22.927167
20.924725 12.608243 26.405918
6.008702 10.788015 21.949432
4.611586 10.808018 22.062793
3.776752 11.694795 21.368460
2.293873 11.421428 21.290524
1.532774 10.761345 22.247004
1.118286 11.921490 27.404908
0.159457 10.801350 21.970687
-0.194130 11.481435 27.617459
6.693886 9.983915 22.445385
4.239952 9.918573 22.622510
2.048802 10.227945 23.125548
1.526782 12.608243 26.731829
-1.117747 10.230612 26.568874
23.569253 10.230612 26.568874
5.859669 9.214485 25.491949
4.462553 9.194483 25.605309
3.627719 8.307705 24.910976
2.144840 8.581072 24.833041
1.383741 9.241155 25.789520
1.267319 8.081010 23.862391
0.010425 9.201150 25.513204
-0.045097 8.521065 24.074942
6.544853 10.018586 25.987901
4.090919 10.083927 26.165027
1.899769 9.774555 26.668064
1.675815 7.394258 23.189313
16.591838 9.214485 27.645799
17.988954 9.194483 27.532438
18.823788 8.307705 28.226771
20.306667 8.581072 28.304707
21.067766 9.241155 27.348227
21.482254 8.081010 22.190323
22.441082 9.201150 27.624544
22.794670 8.521065 21.977772
15.906654 10.018586 27.149846
18.360588 10.083927 26.972721
20.551738 9.774555 26.469683
21.073758 7.394258 22.863401
12.268984 19.773138 1.771258
5.291568 14.121765 2.848183
6.688684 14.141768 2.734823
7.523518 15.028545 3.429156
9.006397 14.755178 3.507091
9.767496 14.095095 2.550612
9.883918 15.255240 4.477741
11.140812 14.135100 2.826928
11.196334 14.815185 4.265190
4.606384 19.985164 2.352231
7.060318 19.919823 2.175105
9.251468 13.561695 1.672068
9.475422 15.941993 5.150819
19.246399 14.121765 0.694333
17.849283 14.141768 0.807694
17.014449 15.028545 0.113361
15.531570 14.755178 0.035425
14.770471 14.095095 0.991905
14.355983 15.255240 6.149809
13.397155 14.135100 0.715588
13.043567 14.815185 6.362360
19.931583 19.985164 1.190286
17.477649 19.919823 1.367411
15.286499 13.561695 1.870449
14.764479 15.941993 5.476731
12.119951 13.564362 5.313775
19.097366 19.215735 4.236850
17.700250 19.195733 4.350210
16.865416 18.308955 3.655877
15.382537 18.582322 3.577942
14.621438 19.242405 4.534421
14.505016 18.082260 2.607292
13.248122 19.202400 4.258105
13.192600 18.522315 2.819843
19.782550 13.352336 4.732802
17.328617 13.417677 4.909928
15.137467 19.775805 5.412965
14.913512 17.395508 1.934214
5.142535 19.215735 6.390700
6.539651 19.195733 6.277339
7.374486 18.308955 6.971672
8.857364 18.582322 7.049608
9.618463 19.242405 6.093128
10.032951 18.082260 0.935224
10.991780 19.202400 6.369445
11.345367 18.522315 0.722673
4.457352 13.352336 5.894747
6.911285 13.417677 5.717622
9.102435 19.775805 5.214584
9.624455 17.395508 1.608302
-0.074516 16.439388 1.771258
24.612484 16.439388 1.771258
17.635068 17.455515 2.848183
19.032184 17.475518 2.734823
19.867018 18.362295 3.429156
21.349897 18.088928 3.507091
22.110996 17.428845 2.550612
22.227418 18.588990 4.477741
23.484312 17.468850 2.826928
23.539834 18.148935 4.265190
16.949884 16.651415 2.352231
19.403818 16.586073 2.175105
21.594968 16.895445 1.672068
21.818922 19.275742 5.150819
6.902899 17.455515 0.694333
5.505783 17.475518 0.807694
4.670949 18.362295 0.113361
3.188070 18.088928 0.035425
2.426971 17.428845 0.991905
2.012483 18.588990 6.149809
1.053655 17.468850 0.715588
0.700067 18.148935 6.362360
7.588083 16.651415 1.190286
5.134149 16.586073 1.367411
2.942999 16.895445 1.870449
2.420979 19.275742 5.476731
-0.223549 16.898112 5.313775
24.463451 16.898112 5.313775
6.753866 15.881985 4.236850
5.356750 15.861983 4.350210
4.521916 14.975205 3.655877
3.039037 15.248572 3.577942
2.277938 15.908655 4.534421
2.161516 14.748510 2.607292
0.904622 15.868650 4.258105
0.849100 15.188565 2.819843
7.439050 16.686086 4.732802
4.985117 16.751427 4.909928
2.793967 16.442055 5.412965
2.570012 14.061758 1.934214
17.486035 15.881985 6.390700
18.883151 15.861983 6.277339
19.717986 14.975205 6.971672
21.200864 15.248572 7.049608
21.961963 15.908655 6.093128
22.376451 14.748510 0.935224
23.335280 15.868650 6.369445
23.688867 15.188565 0.722673
16.800852 16.686086 5.894747
19.254785 16.751427 5.717622
21.445935 16.442055 5.214584
21.967955 14.061758 1.608302
11.970918 19.773138 8.856291
4.993502 14.121765 9.933216
6.390618 14.141768 9.819856
7.225453 15.028545 10.514189
8.708331 14.755178 10.592124
9.469431 14.095095 9.635645
9.585853 15.255240 11.562774
10.842747 14.135100 9.911961
10.898268 14.815185 11.350223
4.308319 19.985164 9.437264
6.762252 19.919823 9.260138
8.953402 13.561695 8.757101
9.177357 15.941993 12.235852
18.948333 14.121765 7.779366
17.551218 14.141768 7.892727
16.716383 15.028545 7.198394
15.233504 14.755178 7.120458
14.472405 14.095095 8.076938
14.057917 15.255240 13.234842
13.099089 14.135100 7.800621
12.745502 14.815185 13.447393
19.633517 19.985164 8.275319
17.179584 19.919823 8.452444
14.988434 13.561695 8.955482
14.466413 15.941993 12.561763
11.821885 13.564362 12.398808
18.799301 19.215735 11.321883
17.402185 19.195733 11.435243
16.567350 18.308955 10.740910
15.084471 18.582322 10.662975
14.323372 19.242405 11.619454
14.206950 18.082260 9.692325
12.950056 19.202400 11.343138
12.894534 18.522315 9.904876
19.484484 13.352336 11.817835
17.030551 13.417677 11.994961
14.839401 19.775805 12.497998
14.615446 17.395508 9.019247
4.844469 19.215735 13.475733
6.241585 19.195733 13.362372
7.076420 18.308955 14.056705
8.559298 18.582322 14.134641
9.320398 19.242405 13.178161
9.734886 18.082260 8.020257
10.693714 19.202400 13.454478
11.047301 18.522315 7.807706
4.159286 13.352336 12.979780
6.613219 13.417677 12.802655
8.804369 19.775805 12.299617
9.326390 17.395508 8.693335
-0.372582 16.439388 8.856291
24.314418 16.439388 8.856291
17.337002 17.455515 9.933216
18.734118 17.475518 9.819856
19.568953 18.362295 10.514189
21.051831 18.088928 10.592124
21.812931 17.428845 9.635645
21.929353 18.588990 11.562774
23.186247 17.468850 9.911961
23.241768 18.148935 11.350223
16.651819 16.651415 9.437264
19.105752 16.586073 9.260138
21.296902 16.895445 8.757101
21.520857 19.275742 12.235852
6.604833 17.455515 7.779366
5.207718 17.475518 7.892727
4.372883 18.362295 7.198394
2.890004 18.088928 7.120458
2.128905 17.428845 8.076938
1.714417 18.588990 13.234842
0.755589 17.468850 7.800621
0.402002 18.148935 13.447393
7.290017 16.651415 8.275319
4.836084 16.586073 8.452444
2.644934 16.895445 8.955482
2.122913 19.275742 12.561763
-0.521615 16.898112 12.398808
24.165385 16.898112 12.398808
6.455801 15.881985 11.321883
5.058685 15.861983 11.435243
4.223850 14.975205 10.740910
2.740971 15.248572 10.662975
1.979872 15.908655 11.619454
1.863450 14.748510 9.692325
0.606556 15.868650 11.343138
0.551034 15.188565 9.904876
7.140984 16.686086 11.817835
4.687051 16.751427 11.994961
2.495901 16.442055 12.497998
2.271946 14.061758 9.019247
17.187969 15.881985 13.475733
18.585085 15.861983 13.362372
19.419920 14.975205 14.056705
20.902798 15.248573 14.134641
21.663898 15.908655 13.178161
22.078386 14.748510 8.020257
23.037214 15.868650 13.454478
23.390801 15.188565 7.807706
16.502786 16.686086 12.979780
18.956719 16.751427 12.802655
21.147869 16.442055 12.299617
21.669890 14.061758 8.693335
11.672852 19.773138 15.941324
4.695436 14.121765 17.018249
6.092552 14.141768 16.904889
6.927387 15.028545 17.599222
8.410266 14.755178 17.677157
9.171365 14.095095 16.720678
9.287787 15.255240 18.647807
10.544681 14.135100 16.996994
10.600203 14.815185 18.435256
4.010253 19.985164 16.522297
6.464186 19.919823 16.345171
8.655336 13.561695 15.842134
8.879291 15.941993 19.320885
18.650268 14.121765 14.864399
17.253152 14.141768 14.977760
16.418317 15.028545 14.283427
14.935439 14.755178 14.205491
14.174339 14.095095 15.161971
13.759851 15.255240 20.319875
12.801023 14.135100 14.885654
12.447436 14.815185 20.532426
19.335451 19.985164 15.360352
16.881518 19.919823 15.537477
14.690368 13.561695 16.040515
14.168347 15.941993 19.646796
11.523819 13.564362 19.483841
18.501235 19.215735 18.406916
17.104119 19.195733 18.520276
16.269284 18.308955 17.825943
14.786406 18.582322 17.748008
14.025306 19.242405 18.704487
13.908884 18.082260 16.777358
12.651990 19.202400 18.428171
12.596469 18.522315 16.989909
19.186418 13.352336 18.902868
16.732485 13.417677 19.079994
14.541335 19.775805 19.583031
14.317380 17.395508 16.104280
4.546404 19.215735 20.560766
5.943519 19.195733 20.447405
6.778354 18.308955 21.141738
8.261233 18.582322 21.219674
9.022332 19.242405 20.263194
9.436820 18.082260 15.105290
10.395648 19.202400 20.539511
10.749235 18.522315 14.892739
3.861220 13.352336 20.064813
6.315153 13.417677 19.887688
8.506303 19.775805 19.384650
9.028324 17.395508 15.778368
-0.670648 16.439388 15.941324
24.016352 16.439388 15.941324
17.038936 17.455515 17.018249
18.436052 17.475518 16.904889
19.270887 18.362295 17.599222
20.753766 18.088928 17.677157
21.514865 17.428845 16.720678
21.631287 18.588990 18.647807
22.888181 17.468850 16.996994
22.943703 18.148935 18.435256
16.353753 16.651415 16.522297
18.807686 16.586073 16.345171
20.998836 16.895445 15.842134
21.222791 19.275742 19.320885
6.306768 17.455515 14.864399
4.909652 17.475518 14.977760
4.074817 18.362295 14.283427
2.591939 18.088928 14.205491
1.830839 17.428845 15.161971
1.416351 18.588990 20.319875
0.457523 17.468850 14.885654
0.103936 18.148935 20.532426
6.991951 16.651415 15.360352
4.538018 16.586073 15.537477
2.346868 16.895445 16.040515
1.824847 19.275742 19.646796
-0.819681 16.898112 19.483841
23.867319 16.898112 19.483841
6.157735 15.881985 18.406916
4.760619 15.861983 18.520276
3.925784 14.975205 17.825943
2.442906 15.248573 17.748008
1.681806 15.908655 18.704487
1.565384 14.748510 16.777358
0.308490 15.868650 18.428171
0.252969 15.188565 16.989909
6.842918 16.686086 18.902868
4.388985 16.751427 19.079994
2.197835 16.442055 19.583031
1.973880 14.061758 16.104280
16.889904 15.881985 20.560766
18.287019 15.861983 20.447405
19.121854 14.975205 21.141738
20.604733 15.248573 21.219674
21.365832 15.908655 20.263194
21.780320 14.748510 15.105290
22.739148 15.868650 20.539511
23.092735 15.188565 14.892739
16.204720 16.686086 20.064813
18.658653 16.751427 19.887688
20.849803 16.442055 19.384650
21.371824 14.061758 15.778368
11.374786 19.773138 23.026357
4.397371 14.121765 24.103282
5.794487 14.141768 23.989922
6.629321 15.028545 24.684255
8.112200 14.755178 24.762190
8.873299 14.095095 23.805711
8.989721 15.255240 25.732840
10.246615 14.135100 24.082027
10.302137 14.815185 25.520289
3.712187 19.985164 23.607330
6.166120 19.919823 23.430204
8.357270 13.561695 22.927167
8.581225 15.941992 26.405918
18.352202 14.121765 21.949432
16.955086 14.141768 22.062793
16.120252 15.028545 21.368460
14.637373 14.755178 21.290524
13.876274 14.095095 22.247004
13.461786 15.255240 27.404908
12.502957 14.135100 21.970687
12.149370 14.815185 27.617459
19.037386 19.985164 22.445385
16.583452 19.919823 22.622510
14.392302 13.561695 23.125548
13.870282 15.941992 26.731829
11.225753 13.564362 26.568874
18.203169 19.215735 25.491949
16.806053 19.195732 25.605309
15.971219 18.308955 24.910976
14.488340 18.582322 24.833041
13.727241 19.242405 25.789520
13.610819 18.082260 23.862391
12.353925 19.202400 25.513204
12.298403 18.522315 24.074942
18.888353 13.352336 25.987901
16.434419 13.417677 26.165027
14.243269 19.775805 26.668064
14.019315 17.395507 23.189313
4.248338 19.215735 27.645799
5.645454 19.195732 27.532438
6.480288 18.308955 28.226771
7.963167 18.582323 28.304707
8.724266 19.242405 27.348227
9.138754 18.082260 22.190323
10.097582 19.202400 27.624544
10.451170 18.522315 21.977772
3.563154 13.352336 27.149846
6.017088 13.417677 26.972721
8.208238 19.775805 26.469683
8.730258 17.395508 22.863401
-0.968714 16.439388 23.026357
23.718286 16.439388 23.026357
16.740871 17.455515 24.103282
18.137987 17.475517 23.989922
18.972821 18.362295 24.684255
20.455700 18.088927 24.762190
21.216799 17.428845 23.805711
21.333221 18.588990 25.732840
22.590115 17.468850 24.082027
22.645637 18.148935 25.520289
16.055687 16.651414 23.607330
18.509620 16.586073 23.430204
20.700770 16.895445 22.927167
20.924725 19.275742 26.405918
6.008702 17.455515 21.949432
4.611586 17.475518 22.062793
3.776752 18.362295 21.368460
2.293873 18.088928 21.290524
1.532774 17.428845 22.247004
1.118286 18.588990 27.404908
0.159457 17.468850 21.970687
-0.194130 18.148935 27.617459
6.693886 16.651415 22.445385
4.239952 16.586073 22.622510
2.048802 16.895445 23.125548
1.526782 19.275742 26.731829
-1.117747 16.898112 26.568874
23.569253 16.898112 26.568874
5.859669 15.881985 25.491949
4.462553 15.861983 25.605309
3.627719 14.975205 24.910976
2.144840 15.248572 24.833041
1.383741 15.908655 25.789520
1.267319 14.748510 23.862391
0.010425 15.868650 25.513204
-0.045097 15.188565 24.074942
6.544853 16.686085 25.987901
4.090919 16.751427 26.165027
1.899769 16.442055 26.668064
1.675815 14.061757 23.189313
16.591838 15.881985 27.645799
17.988954 15.861983 27.532438
18.823788 14.975205 28.226771
20.306667 15.248572 28.304707
21.067766 15.908655 27.348227
21.482254 14.748510 22.190323
22.441082 15.868650 27.624544
22.794670 15.188565 21.977772
15.906654 16.686085 27.149846
18.360588 16.751427 26.972721
20.551738 16.442055 26.469683
21.073758 14.061758 22.863401
12.268984 26.440638 1.771258
5.291568 20.789265 2.848183
6.688684 20.809267 2.734823
7.523518 21.696045 3.429156
9.006397 21.422678 3.507091
9.767496 20.762595 2.550612
9.883918 21.922740 4.477741
11.140812 20.802600 2.826928
11.196334 21.482685 4.265190
4.606384 -0.017336 2.352231
4.606384 26.652664 2.352231
7.060318 26.587323 2.175105
9.251468 20.229195 1.672068
9.475422 22.609493 5.150819
19.246399 20.789265 0.694333
17.849283 20.809267 0.807694
17.014449 21.696045 0.113361
15.531570 21.422678 0.035425
14.770471 20.762595 0.991905
14.355983 21.922740 6.149809
13.397155 20.802600 0.715588
13.043567 21.482685 6.362360
19.931583 -0.017336 1.190286
19.931583 26.652664 1.190286
17.477649 26.587323 1.367411
15.286499 20.229195 1.870449
14.764479 22.609493 5.476731
12.119951 20.231862 5.313775
19.097366 25.883235 4.236850
17.700250 25.863233 4.350210
16.865416 24.976455 3.655877
15.382537 25.249822 3.577942
14.621438 25.909905 4.534421
14.505016 24.749760 2.607292
13.248122 25.869900 4.258105
13.192600 25.189815 2.819843
19.782550 20.019836 4.732802
17.328617 20.085177 4.909928
15.137467 26.443305 5.412965
14.913512 24.063007 1.934214
5.142535 25.883235 6.390700
6.539651 25.863233 6.277339
7.374486 24.976455 6.971672
8.857364 25.249822 7.049608
9.618463 25.909905 6.093128
10.032951 24.749760 0.935224
10.991780 25.869900 6.369445
11.345367 25.189815 0.722673
4.457352 20.019836 5.894747
6.911285 20.085177 5.717622
9.102435 26.443305 5.214584
9.624455 24.063007 1.608302
-0.074516 23.106888 1.771258
24.612484 23.106888 1.771258
17.635068 24.123015 2.848183
19.032184 24.143018 2.734823
19.867018 25.029795 3.429156
21.349897 24.756428 3.507091
22.110996 24.096345 2.550612
22.227418 25.256490 4.477741
23.484312 24.136350 2.826928
23.539834 24.816435 4.265190
16.949884 23.318915 2.352231
19.403818 23.253573 2.175105
21.594968 23.562945 1.672068
21.818922 25.943243 5.150819
6.902899 24.123015 0.694333
5.505783 24.143018 0.807694
4.670949 25.029795 0.113361
3.188070 24.756428 0.035425
2.426971 24.096345 0.991905
2.012483 25.256490 6.149809
1.053655 24.136350 0.715588
0.700067 24.816435 6.362360
7.588083 23.318915 1.190286
5.134149 23.253573 1.367411
2.942999 23.562945 1.870449
2.420979 25.943243 5.476731
-0.223549 23.565612 5.313775
24.463451 23.565612 5.313775
6.753866 22.549485 4.236850
5.356750 22.529482 4.350210
4.521916 21.642705 3.655877
3.039037 21.916073 3.577942
2.277938 22.576155 4.534421
2.161516 21.416010 2.607292
0.904622 22.536150 4.258105
0.849100 21.856065 2.819843
7.439050 23.353586 4.732802
4.985117 23.418927 4.909928
2.793967 23.109555 5.412965
2.570012 20.729258 1.934214
17.486035 22.549485 6.390700
18.883151 22.529482 6.277339
19.717986 21.642705 6.971672
21.200864 21.916073 7.049608
21.961963 22.576155 6.093128
22.376451 21.416010 0.935224
23.335280 22.536150 6.369445
23.688867 21.856065 0.722673
16.800852 23.353586 5.894747
19.254785 23.418927 5.717622
21.445935 23.109555 5.214584
21.967955 20.729258 1.608302
11.970918 26.440638 8.856291
4.993502 20.789265 9.933216
6.390618 20.809267 9.819856
7.225453 21.696045 10.514189
8.708331 21.422678 10.592124
9.469431 20.762595 9.635645
9.585853 21.922740 11.562774
10.842747 20.802600 9.911961
10.898268 21.482685 11.350223
4.308319 -0.017336 9.437264
4.308319 26.652664 9.437264
6.762252 26.587323 9.260138
8.953402 20.229195 8.757101
9.177357 22.609493 12.235852
18.948333 20.789265 7.779366
17.551218 20.809267 7.892727
16.716383 21.696045 7.198394
15.233504 21.422678 7.120458
14.472405 20.762595 8.076938
14.057917 21.922740 13.234842
13.099089 20.802600 7.800621
12.745502 21.482685 13.447393
19.633517 -0.017336 8.275319
19.633517 26.652664 8.275319
17.179584 26.587323 8.452444
14.988434 20.229195 8.955482
14.466413 22.609493 12.561763
11.821885 20.231862 12.398808
18.799301 25.883235 11.321883
17.402185 25.863233 11.435243
16.567350 24.976455 10.740910
15.084471 25.249822 10.662975
14.323372 25.909905 11.619454
14.206950 24.749760 9.692325
12.950056 25.869900 11.343138
12.894534 25.189815 9.904876
19.484484 20.019836 11.817835
17.030551 20.085177 11.994961
14.839401 26.443305 12.497998
14.615446 24.063007 9.019247
4.844469 25.883235 13.475733
6.241585 25.863233 13.362372
7.076420 24.976455 14.056705
8.559298 25.249822 14.134641
9.320398 25.909905 13.178161
9.734886 24.749760 8.020257
10.693714 25.869900 13.454478
11.047301 25.189815 7.807706
4.159286 20.019836 12.979780
6.613219 20.085177 12.802655
8.804369 26.443305 12.299617
9.326390 24.063007 8.693335
-0.372582 23.106888 8.856291
24.314418 23.106888 8.856291
17.337002 24.123015 9.933216
18.734118 24.143018 9.819856
19.568953 25.029795 10.514189
21.051831 24.756428 10.592124
21.812931 24.096345 9.635645
21.929353 25.256490 11.562774
23.186247 24.136350 9.911961
23.241768 24.816435 11.350223
16.651819 23.318915 9.437264
19.105752 23.253573 9.260138
21.296902 23.562945 8.757101
21.520857 25.943243 12.235852
6.604833 24.123015 7.779366
5.207718 24.143018 7.892727
4.372883 25.029795 7.198394
2.890004 24.756428 7.120458
2.128905 24.096345 8.076938
1.714417 25.256490 13.234842
0.755589 24.136350 7.800621
0.402002 24.816435 13.447393
7.290017 23.318915 8.275319
4.836084 23.253573 8.452444
2.644934 23.562945 8.955482
2.122913 25.943243 12.561763
-0.521615 23.565612 12.398808
24.165385 23.565612 12.398808
6.455801 22.549485 11.321883
5.058685 22.529482 11.435243
4.223850 21.642705 10.740910
2.740971 21.916073 10.662975
1.979872 22.576155 11.619454
1.863450 21.416010 9.692325
0.606556 22.536150 11.343138
0.551034 21.856065 9.904876
7.140984 23.353586 11.817835
4.687051 23.418927 11.994961
2.495901 23.109555 12.497998
2.271946 20.729258 9.019247
17.187969 22.549485 13.475733
18.585085 22.529482 13.362372
19.419920 21.642705 14.056705
20.902798 21.916073 14.134641
21.663898 22.576155 13.178161
22.078386 21.416010 8.020257
23.037214 22.536150 13.454478
23.390801 21.856065 7.807706
16.502786 23.353586 12.979780
18.956719 23.418927 12.802655
21.147869 23.109555 12.299617
21.669890 20.729258 8.693335
11.672852 26.440638 15.941324
4.695436 20.789265 17.018249
6.092552 20.809267 16.904889
6.927387 21.696045 17.599222
8.410266 21.422678 17.677157
9.171365 20.762595 16.720678
9.287787 21.922740 18.647807
10.544681 20.802600 16.996994
10.600203 21.482685 18.435256
4.010253 -0.017336 16.522297
4.010253 26.652664 16.522297
6.464186 26.587323 16.345171
8.655336 20.229195 15.842134
8.879291 22.609493 19.320885
18.650268 20.789265 14.864399
17.253152 20.809267 14.977760
16.418317 21.696045 14.283427
14.935439 21.422678 14.205491
14.174339 20.762595 15.161971
13.759851 21.922740 20.319875
12.801023 20.802600 14.885654
12.447436 21.482685 20.532426
19.335451 -0.017336 15.360352
19.335451 26.652664 15.360352
16.881518 26.587323 15.537477
14.690368 20.229195 16.040515
14.168347 22.609493 19.646796
11.523819 20.231862 19.483841
18.501235 25.883235 18.406916
17.104119 25.863233 18.520276
16.269284 24.976455 17.825943
14.786406 25.249822 17.748008
14.025306 25.909905 18.704487
13.908884 24.749760 16.777358
12.651990 25.869900 18.428171
12.596469 25.189815 16.989909
19.186418 20.019836 18.902868
16.732485 20.085177 19.079994
14.541335 26.443305 19.583031
14.317380 24.063007 16.104280
4.546404 25.883235 20.560766
5.943519 25.863233 20.447405
6.778354 24.976455 21.141738
8.261233 25.249822 21.219674
9.022332 25.909905 20.263194
9.436820 24.749760 15.105290
10.395648 25.869900 20.539511
10.749235 25.189815 14.892739
3.861220 20.019836 20.064813
6.315153 20.085177 19.887688
8.506303 26.443305 19.384650
9.028324 24.063007 15.778368
-0.670648 23.106888 15.941324
24.016352 23.106888 15.941324
17.038936 24.123015 17.018249
18.436052 24.143018 16.904889
19.270887 25.029795 17.599222
20.753766 24.756428 17.677157
21.514865 24.096345 16.720678
21.631287 25.256490 18.647807
22.888181 24.136350 16.996994
22.943703 24.816435 18.435256
16.353753 23.318915 16.522297
18.807686 23.253573 16.345171
20.998836 23.562945 15.842134
21.222791 25.943243 19.320885
6.306768 24.123015 14.864399
4.909652 24.143018 14.977760
4.074817 25.029795 14.283427
2.591939 24.756428 14.205491
1.830839 24.096345 15.161971
1.416351 25.256490 20.319875
0.457523 24.136350 14.885654
0.103936 24.816435 20.532426
6.991951 23.318915 15.360352
4.538018 23.253573 15.537477
2.346868 23.562945 16.040515
1.824847 25.943243 19.646796
-0.819681 23.565612 19.483841
23.867319 23.565612 19.483841
6.157735 22.549485 18.406916
4.760619 22.529482 18.520276
3.925784 21.642705 17.825943
2.442906 21.916073 17.748008
1.681806 22.576155 18.704487
1.565384 21.416010 16.777358
0.308490 22.536150 18.428171
0.252969 21.856065 16.989909
6.842918 23.353586 18.902868
4.388985 23.418927 19.079994
2.197835 23.109555 19.583031
1.973880 20.729258 16.104280
16.889904 22.549485 20.560766
18.287019 22.529482 20.447405
19.121854 21.642705 21.141738
20.604733 21.916073 21.219674
21.365832 22.576155 20.263194
21.780320 21.416010 15.105290
22.739148 22.536150 20.539511
23.092735 21.856065 14.892739
16.204720 23.353586 20.064813
18.658653 23.418927 19.887688
20.849803 23.109555 19.384650
21.371824 20.729258 15.778368
11.374786 26.440638 23.026357
4.397371 20.789265 24.103282
5.794487 20.809267 23.989922
6.629321 21.696045 24.684255
8.112200 21.422677 24.762190
8.873299 20.762595 23.805711
8.989721 21.922740 25.732840
10.246615 20.802600 24.082027
10.302137 21.482685 25.520289
3.712187 -0.017336 23.607330
3.712187 26.652664 23.607330
6.166120 26.587323 23.430204
8.357270 20.229195 22.927167
8.581225 22.609492 26.405918
18.352202 20.789265 21.949432
16.955086 20.809267 22.062793
16.120252 21.696045 21.368460
14.637373 21.422678 21.290524
13.876274 20.762595 22.247004
13.461786 21.922740 27.404908
12.502957 20.802600 21.970687
12.149370 21.482685 27.617459
19.037386 -0.017336 22.445385
19.037386 26.652664 22.445385
16.583452 26.587323 22.622510
14.392302 20.229195 23.125548
13.870282 22.609492 26.731829
11.225753 20.231862 26.568874
18.203169 25.883235 25.491949
16.806053 25.863232 25.605309
15.971219 24.976455 24.910976
14.488340 25.249822 24.833041
13.727241 25.909905 25.789520
13.610819 24.749760 23.862391
12.353925 25.869900 25.513204
12.298403 25.189815 24.074942
18.888353 20.019835 25.987901
16.434419 20.085177 26.165027
14.243269 26.443305 26.668064
14.019315 24.063007 23.189313
4.248338 25.883235 27.645799
5.645454 25.863232 27.532438
6.480288 24.976455 28.226771
7.963167 25.249823 28.304707
8.724266 25.909905 27.348227
9.138754 24.749760 22.190323
10.097582 25.869900 27.624544
10.451170 25.189815 21.977772
3.563154 20.019835 27.149846
6.017088 20.085177 26.972721
8.208238 26.443305 26.469683
8.730258 24.063007 22.863401
-0.968714 23.106888 23.026357
23.718286 23.106888 23.026357
16.740871 24.123015 24.103282
18.137987 24.143017 23.989922
18.972821 25.029795 24.684255
20.455700 24.756427 24.762190
21.216799 24.096345 23.805711
21.333221 25.256490 25.732840
22.590115 24.136350 24.082027
22.645637 24.816435 25.520289
16.055687 23.318914 23.607330
18.509620 23.253573 23.430204
20.700770 23.562945 22.927167
20.924725 25.943242 26.405918
6.008702 24.123015 21.949432
4.611586 24.143018 22.062793
3.776752 25.029795 21.368460
2.293873 24.756428 21.290524
1.532774 24.096345 22.247004
1.118286 25.256490 27.404908
0.159457 24.136350 21.970687
-0.194130 24.816435 27.617459
6.693886 23.318915 22.445385
4.239952 23.253573 22.622510
2.048802 23.562945 23.125548
1.526782 25.943242 26.731829
-1.117747 23.565612 26.568874
23.569253 23.565612 26.568874
5.859669 22.549485 25.491949
4.462553 22.529482 25.605309
3.627719 21.642705 24.910976
2.144840 21.916072 24.833041
1.383741 22.576155 25.789520
1.267319 21.416010 23.862391
0.010425 22.536150 25.513204
-0.045097 21.856065 24.074942
6.544853 23.353585 25.987901
4.090919 23.418927 26.165027
1.899769 23.109555 26.668064
1.675815 20.729257 23.189313
16.591838 22.549485 27.645799
17.988954 22.529482 27.532438
18.823788 21.642705 28.226771
20.306667 21.916073 28.304707
21.067766 22.576155 27.348227
21.482254 21.416010 22.190323
22.441082 22.536150 27.624544
22.794670 21.856065 21.977772
15.906654 23.353585 27.149846
18.360588 23.418927 26.972721
20.551738 23.109555 26.469683
21.073758 20.729258 22.863401
POINT_DATA 1648
SCALARS my_scalars float
LOOKUP_TABLE default
2
1.7
1.7
1.7
1.7
1.7
1.7
1.55
1.55
-1
-1
1.09
1.09
1.7
1.7
1.7
1.7
1.7
1.7
1.55
1.55
-1
-1
1.09
1.09
2
1.7
1.7
1.7
1.7
1.7
1.7
1.55
1.55
-1
-1
-1
1.09
1.09
1.7
1.7
1.7
1.7
1.7
1.7
1.55
1.55
-1
-1
-1
1.09
1.09
2
2
1.7
1.7
1.7
1.7
1.7
1.7
1.55
1.55
-1
-1
1.09
1.09
1.7
1.7
1.7
1.7
1.7
1.7
1.55
1.55
-1
-1
1.09
1.09
2
2
1.7
1.7
1.7
1.7
1.7
1.7
1.55
1.55
-1
-1
1.09
1.09
1.7
1.7
1.7
1.7
1.7
1.7
1.55
1.55
-1
-1
1.09
1.09
2
1.7
1.7
1.7
1.7
1.7
1.7
1.55
1.55
-1
-1
1.09
1.09
1.7
1.7
1.7
1.7
1.7
1.7
1.55
1.55
-1
-1
1.09
1.09
2
1.7
1.7
1.7
1.7
1.7
1.7
1.55
1.55
-1
-1
-1
1.09
1.09
1.7
1.7
1.7
1.7
1.7
1.7
1.55
1.55
-1
-1
-1
1.09
1.09
2
2
1.7
1.7
1.7
1.7
1.7
1.7
1.55
1.55
-1
-1
1.09
1.09
1.7
1.7
1.7
1.7
1.7
1.7
1.55
1.55
-1
-1
1.09
1.09
2
2
1.7
1.7
1.7
1.7
1.7
1.7
1.55
1.55
-1
-1
1.09
1.09
1.7
1.7
1.7
1.7
1.7
1.7
1.55
1.55
-1
-1
1.09
1.09
2
1.7
1.7
1.7
1.7
1.7
1.7
1.55
1.55
-1
-1
1.09
1.09
1.7
1.7
1.7
1.7
1.7
1.7
1.55
1.55
-1
-1
1.09
1.09
2
1.7
1.7
1.7
1.7
1.7
1.7
1.55
1.55
-1
-1
-1
1.09
1.09
1.7
1.7
1.7
1.7
1.7
1.7
1.55
1.55
-1
-1
-1
1.09
1.09
2
2
1.7
1.7
1.7
1.7
1.7
1.7
1.55
1.55
-1
-1
1.09
1.09
1.7
1.7
1.7
1.7
1.7
1.7
1.55
1.55
-1
-1
1.09
1.09
2
2
1.7
1.7
1.7
1.7
1.7
1.7
1.55
1.55
-1
-1
1.09
1.09
1.7
1.7
1.7
1.7
1.7
1.7
1.55
1.55
-1
-1
1.09
1.09
2
1.7
1.7
1.7
1.7
1.7
1.7
1.55
1.55
-1
-1
1.09
1.09
1.7
1.7
1.7
1.7
1.7
1.7
1.55
1.55
-1
-1
1.09
1.09
2
1.7
1.7
1.7
1.7
1.7
1.7
1.55
1.55
-1
-1
-1
1.09
1.09
1.7
1.7
1.7
1.7
1.7
1.7
1.55
1.55
-1
-1
-1
1.09
1.09
2
2
1.7
1.7
1.7
1.7
1.7
1.7
1.55
1.55
-1
-1
1.09
1.09
1.7
1.7
1.7
1.7
1.7
1.7
1.55
1.55
-1
-1
1.09
1.09
2
2
1.7
1.7
1.7
1.7
1.7
1.7
1.55
1.55
-1
-1
1.09
1.09
1.7
1.7
1.7
1.7
1.7
1.7
1.55
1.55
-1
-1
1.09
1.09
2
1.7
1.7
1.7
1.7
1.7
1.7
1.55
1.55
-1
-1
1.09
1.09
1.7
1.7
1.7
1.7
1.7
1.7
1.55
1.55
-1
-1
1.09
1.09
2
1.7
1.7
1.7
1.7
1.7
1.7
1.55
1.55
-1
-1
1.09
1.09
1.7
1.7
1.7
1.7
1.7
1.7
1.55
1.55
-1
-1
1.09
1.09
2
2
1.7
1.7
1.7
1.7
1.7
1.7
1.55
1.55
-1
-1
1.09
1.09
1.7
1.7
1.7
1.7
1.7
1.7
1.55
1.55
-1
-1
1.09
1.09
2
2
1.7
1.7
1.7
1.7
1.7
1.7
1.55
1.55
-1
-1
1.09
1.09
1.7
1.7
1.7
1.7
1.7
1.7
1.55
1.55
-1
-1
1.09
1.09
2
1.7
1.7
1.7
1.7
1.7
1.7
1.55
1.55
-1
-1
1.09
1.09
1.7
1.7
1.7
1.7
1.7
1.7
1.55
1.55
-1
-1
1.09
1.09
2
1.7
1.7
1.7
1.7
1.7
1.7
1.55
1.55
-1
-1
1.09
1.09
1.7
1.7
1.7
1.7
1.7
1.7
1.55
1.55
-1
-1
1.09
1.09
2
2
1.7
1.7
1.7
1.7
1.7
1.7
1.55
1.55
-1
-1
1.09
1.09
1.7
1.7
1.7
1.7
1.7
1.7
1.55
1.55
-1
-1
1.09
1.09
2
2
1.7
1.7
1.7
1.7
1.7
1.7
1.55
1.55
-1
-1
1.09
1.09
1.7
1.7
1.7
1.7
1.7
1.7
1.55
1.55
-1
-1
1.09
1.09
2
1.7
1.7
1.7
1.7
1.7
1.7
1.55
1.55
-1
-1
1.09
1.09
1.7
1.7
1.7
1.7
1.7
1.7
1.55
1.55
-1
-1
1.09
1.09
2
1.7
1.7
1.7
1.7
1.7
1.7
1.55
1.55
-1
-1
1.09
1.09
1.7
1.7
1.7
1.7
1.7
1.7
1.55
1.55
-1
-1
1.09
1.09
2
2
1.7
1.7
1.7
1.7
1.7
1.7
1.55
1.55
-1
-1
1.09
1.09
1.7
1.7
1.7
1.7
1.7
1.7
1.55
1.55
-1
-1
1.09
1.09
2
2
1.7
1.7
1.7
1.7
1.7
1.7
1.55
1.55
-1
-1
1.09
1.09
1.7
1.7
1.7
1.7
1.7
1.7
1.55
1.55
-1
-1
1.09
1.09
2
1.7
1.7
1.7
1.7
1.7
1.7
1.55
1.55
-1
-1
1.09
1.09
1.7
1.7
1.7
1.7
1.7
1.7
1.55
1.55
-1
-1
1.09
1.09
2
1.7
1.7
1.7
1.7
1.7
1.7
1.55
1.55
-1
-1
1.09
1.09
1.7
1.7
1.7
1.7
1.7
1.7
1.55
1.55
-1
-1
1.09
1.09
2
2
1.7
1.7
1.7
1.7
1.7
1.7
1.55
1.55
-1
-1
1.09
1.09
1.7
1.7
1.7
1.7
1.7
1.7
1.55
1.55
-1
-1
1.09
1.09
2
2
1.7
1.7
1.7
1.7
1.7
1.7
1.55
1.55
-1
-1
1.09
1.09
1.7
1.7
1.7
1.7
1.7
1.7
1.55
1.55
-1
-1
1.09
1.09
2
1.7
1.7
1.7
1.7
1.7
1.7
1.55
1.55
-1
-1
1.09
1.09
1.7
1.7
1.7
1.7
1.7
1.7
1.55
1.55
-1
-1
1.09
1.09
2
1.7
1.7
1.7
1.7
1.7
1.7
1.55
1.55
-1
-1
1.09
1.09
1.7
1.7
1.7
1.7
1.7
1.7
1.55
1.55
-1
-1
1.09
1.09
2
2
1.7
1.7
1.7
1.7
1.7
1.7
1.55
1.55
-1
-1
1.09
1.09
1.7
1.7
1.7
1.7
1.7
1.7
1.55
1.55
-1
-1
1.09
1.09
2
2
1.7
1.7
1.7
1.7
1.7
1.7
1.55
1.55
-1
-1
1.09
1.09
1.7
1.7
1.7
1.7
1.7
1.7
1.55
1.55
-1
-1
1.09
1.09
2
1.7
1.7
1.7
1.7
1.7
1.7
1.55
1.55
-1
-1
1.09
1.09
1.7
1.7
1.7
1.7
1.7
1.7
1.55
1.55
-1
-1
1.09
1.09
2
1.7
1.7
1.7
1.7
1.7
1.7
1.55
1.55
-1
-1
1.09
1.09
1.7
1.7
1.7
1.7
1.7
1.7
1.55
1.55
-1
-1
1.09
1.09
2
2
1.7
1.7
1.7
1.7
1.7
1.7
1.55
1.55
-1
-1
1.09
1.09
1.7
1.7
1.7
1.7
1.7
1.7
1.55
1.55
-1
-1
1.09
1.09
2
2
1.7
1.7
1.7
1.7
1.7
1.7
1.55
1.55
-1
-1
1.09
1.09
1.7
1.7
1.7
1.7
1.7
1.7
1.55
1.55
-1
-1
1.09
1.09
2
1.7
1.7
1.7
1.7
1.7
1.7
1.55
1.55
-1
-1
1.09
1.09
1.7
1.7
1.7
1.7
1.7
1.7
1.55
1.55
-1
-1
1.09
1.09
2
1.7
1.7
1.7
1.7
1.7
1.7
1.55
1.55
-1
-1
1.09
1.09
1.7
1.7
1.7
1.7
1.7
1.7
1.55
1.55
-1
-1
1.09
1.09
2
2
1.7
1.7
1.7
1.7
1.7
1.7
1.55
1.55
-1
-1
1.09
1.09
1.7
1.7
1.7
1.7
1.7
1.7
1.55
1.55
-1
-1
1.09
1.09
2
2
1.7
1.7
1.7
1.7
1.7
1.7
1.55
1.55
-1
-1
1.09
1.09
1.7
1.7
1.7
1.7
1.7
1.7
1.55
1.55
-1
-1
1.09
1.09
2
1.7
1.7
1.7
1.7
1.7
1.7
1.55
1.55
-1
-1
1.09
1.09
1.7
1.7
1.7
1.7
1.7
1.7
1.55
1.55
-1
-1
1.09
1.09
2
1.7
1.7
1.7
1.7
1.7
1.7
1.55
1.55
-1
-1
1.09
1.09
1.7
1.7
1.7
1.7
1.7
1.7
1.55
1.55
-1
-1
1.09
1.09
2
2
1.7
1.7
1.7
1.7
1.7
1.7
1.55
1.55
-1
-1
1.09
1.09
1.7
1.7
1.7
1.7
1.7
1.7
1.55
1.55
-1
-1
1.09
1.09
2
2
1.7
1.7
1.7
1.7
1.7
1.7
1.55
1.55
-1
-1
1.09
1.09
1.7
1.7
1.7
1.7
1.7
1.7
1.55
1.55
-1
-1
1.09
1.09
2
1.7
1.7
1.7
1.7
1.7
1.7
1.55
1.55
-1
-1
-1
1.09
1.09
1.7
1.7
1.7
1.7
1.7
1.7
1.55
1.55
-1
-1
-1
1.09
1.09
2
1.7
1.7
1.7
1.7
1.7
1.7
1.55
1.55
-1
-1
1.09
1.09
1.7
1.7
1.7
1.7
1.7
1.7
1.55
1.55
-1
-1
1.09
1.09
2
2
1.7
1.7
1.7
1.7
1.7
1.7
1.55
1.55
-1
-1
1.09
1.09
1.7
1.7
1.7
1.7
1.7
1.7
1.55
1.55
-1
-1
1.09
1.09
2
2
1.7
1.7
1.7
1.7
1.7
1.7
1.55
1.55
-1
-1
1.09
1.09
1.7
1.7
1.7
1.7
1.7
1.7
1.55
1.55
-1
-1
1.09
1.09
2
1.7
1.7
1.7
1.7
1.7
1.7
1.55
1.55
-1
-1
-1
1.09
1.09
1.7
1.7
1.7
1.7
1.7
1.7
1.55
1.55
-1
-1
-1
1.09
1.09
2
1.7
1.7
1.7
1.7
1.7
1.7
1.55
1.55
-1
-1
1.09
1.09
1.7
1.7
1.7
1.7
1.7
1.7
1.55
1.55
-1
-1
1.09
1.09
2
2
1.7
1.7
1.7
1.7
1.7
1.7
1.55
1.55
-1
-1
1.09
1.09
1.7
1.7
1.7
1.7
1.7
1.7
1.55
1.55
-1
-1
1.09
1.09
2
2
1.7
1.7
1.7
1.7
1.7
1.7
1.55
1.55
-1
-1
1.09
1.09
1.7
1.7
1.7
1.7
1.7
1.7
1.55
1.55
-1
-1
1.09
1.09
2
1.7
1.7
1.7
1.7
1.7
1.7
1.55
1.55
-1
-1
-1
1.09
1.09
1.7
1.7
1.7
1.7
1.7
1.7
1.55
1.55
-1
-1
-1
1.09
1.09
2
1.7
1.7
1.7
1.7
1.7
1.7
1.55
1.55
-1
-1
1.09
1.09
1.7
1.7
1.7
1.7
1.7
1.7
1.55
1.55
-1
-1
1.09
1.09
2
2
1.7
1.7
1.7
1.7
1.7
1.7
1.55
1.55
-1
-1
1.09
1.09
1.7
1.7
1.7
1.7
1.7
1.7
1.55
1.55
-1
-1
1.09
1.09
2
2
1.7
1.7
1.7
1.7
1.7
1.7
1.55
1.55
-1
-1
1.09
1.09
1.7
1.7
1.7
1.7
1.7
1.7
1.55
1.55
-1
-1
1.09
1.09
2
1.7
1.7
1.7
1.7
1.7
1.7
1.55
1.55
-1
-1
-1
1.09
1.09
1.7
1.7
1.7
1.7
1.7
1.7
1.55
1.55
-1
-1
-1
1.09
1.09
2
1.7
1.7
1.7
1.7
1.7
1.7
1.55
1.55
-1
-1
1.09
1.09
1.7
1.7
1.7
1.7
1.7
1.7
1.55
1.55
-1
-1
1.09
1.09
2
2
1.7
1.7
1.7
1.7
1.7
1.7
1.55
1.55
-1
-1
1.09
1.09
1.7
1.7
1.7
1.7
1.7
1.7
1.55
1.55
-1
-1
1.09
1.09
2
2
1.7
1.7
1.7
1.7
1.7
1.7
1.55
1.55
-1
-1
1.09
1.09
1.7
1.7
1.7
1.7
1.7
1.7
1.55
1.55
-1
-1
1.09
1.09
VECTORS vectors float
0.4375 0 0
0.3125 0 0
0.3125 0 0
0.3125 0 0
0.3125 0 0
0.3125 0 0
0.3125 0 0
0 0 0
0 0 0
-0.03125 0 0
-0.03125 0 0
0.25 0 0
0.25 0 0
0.3125 0 0
0.3125 0 0
0.3125 0 0
0.3125 0 0
0.3125 0 0
0.3125 0 0
0 0 0
0 0 0
-0.03125 0 0
-0.03125 0 0
0.25 0 0
0.25 0 0
0.4375 0 0
0.3125 0 0
0.3125 0 0
0.3125 0 0
0.3125 0 0
0.3125 0 0
0.3125 0 0
0 0 0
0 0 0
-0.03125 0 0
-0.03125 0 0
-0.03125 0 0
0.25 0 0
0.25 0 0
0.3125 0 0
0.3125 0 0
0.3125 0 0
0.3125 0 0
0.3125 0 0
0.3125 0 0
0 0 0
0 0 0
-0.03125 0 0
-0.03125 0 0
-0.03125 0 0
0.25 0 0
0.25 0 0
0.4375 0 0
0.4375 0 0
0.3125 0 0
0.3125 0 0
0.3125 0 0
0.3125 0 0
0.3125 0 0
0.3125 0 0
0 0 0
0 0 0
-0.03125 0 0
-0.03125 0 0
0.25 0 0
0.25 0 0
0.3125 0 0
0.3125 0 0
0.3125 0 0
0.3125 0 0
0.3125 0 0
0.3125 0 0
0 0 0
0 0 0
-0.03125 0 0
-0.03125 0 0
0.25 0 0
0.25 0 0
0.4375 0 0
0.4375 0 0
0.3125 0 0
0.3125 0 0
0.3125 0 0
0.3125 0 0
0.3125 0 0
0.3125 0 0
0 0 0
0 0 0
-0.03125 0 0
-0.03125 0 0
0.25 0 0
0.25 0 0
0.3125 0 0
0.3125 0 0
0.3125 0 0
0.3125 0 0
0.3125 0 0
0.3125 0 0
0 0 0
0 0 0
-0.03125 0 0
-0.03125 0 0
0.25 0 0
0.25 0 0
0.4375 0 0
0.3125 0 0
0.3125 0 0
0.3125 0 0
0.3125 0 0
0.3125 0 0
0.3125 0 0
0 0 0
0 0 0
-0.03125 0 0
-0.03125 0 0
0.25 0 0
0.25 0 0
0.3125 0 0
0.3125 0 0
0.3125 0 0
0.3125 0 0
0.3125 0 0
0.3125 0 0
0 0 0
0 0 0
-0.03125 0 0
-0.03125 0 0
0.25 0 0
0.25 0 0
0.4375 0 0
0.3125 0 0
0.3125 0 0
0.3125 0 0
0.3125 0 0
0.3125 0 0
0.3125 0 0
0 0 0
0 0 0
-0.03125 0 0
-0.03125 0 0
-0.03125 0 0
0.25 0 0
0.25 0 0
0.3125 0 0
0.3125 0 0
0.3125 0 0
0.3125 0 0
0.3125 0 0
0.3125 0 0
0 0 0
0 0 0
-0.03125 0 0
-0.03125 0 0
-0.03125 0 0
0.25 0 0
0.25 0 0
0.4375 0 0
0.4375 0 0
0.3125 0 0
0.3125 0 0
0.3125 0 0
0.3125 0 0
0.3125 0 0
0.3125 0 0
0 0 0
0 0 0
-0.03125 0 0
-0.03125 0 0
0.25 0 0
0.25 0 0
0.3125 0 0
0.3125 0 0
0.3125 0 0
0.3125 0 0
0.3125 0 0
0.3125 0 0
0 0 0
0 0 0
-0.03125 0 0
-0.03125 0 0
0.25 0 0
0.25 0 0
0.4375 0 0
0.4375 0 0
0.3125 0 0
0.3125 0 0
0.3125 0 0
0.3125 0 0
0.3125 0 0
0.3125 0 0
0 0 0
0 0 0
-0.03125 0 0
-0.03125 0 0
0.25 0 0
0.25 0 0
0.3125 0 0
0.3125 0 0
0.3125 0 0
0.3125 0 0
0.3125 0 0
0.3125 0 0
0 0 0
0 0 0
-0.03125 0 0
-0.03125 0 0
0.25 0 0
0.25 0 0
0.4375 0 0
0.3125 0 0
0.3125 0 0
0.3125 0 0
0.3125 0 0
0.3125 0 0
0.3125 0 0
0 0 0
0 0 0
-0.03125 0 0
-0.03125 0 0
0.25 0 0
0.25 0 0
0.3125 0 0
0.3125 0 0
0.3125 0 0
0.3125 0 0
0.3125 0 0
0.3125 0 0
0 0 0
0 0 0
-0.03125 0 0
-0.03125 0 0
0.25 0 0
0.25 0 0
0.4375 0 0
0.3125 0 0
0.3125 0 0
0.3125 0 0
0.3125 0 0
0.3125 0 0
0.3125 0 0
0 0 0
0 0 0
-0.03125 0 0
-0.03125 0 0
-0.03125 0 0
0.25 0 0
0.25 0 0
0.3125 0 0
0.3125 0 0
0.3125 0 0
0.3125 0 0
0.3125 0 0
0.3125 0 0
0 0 0
0 0 0
-0.03125 0 0
-0.03125 0 0
-0.03125 0 0
0.25 0 0
0.25 0 0
0.4375 0 0
0.4375 0 0
0.3125 0 0
0.3125 0 0
0.3125 0 0
0.3125 0 0
0.3125 0 0
0.3125 0 0
0 0 0
0 0 0
-0.03125 0 0
-0.03125 0 0
0.25 0 0
0.25 0 0
0.3125 0 0
0.3125 0 0
0.3125 0 0
0.3125 0 0
0.3125 0 0
0.3125 0 0
0 0 0
0 0 0
-0.03125 0 0
-0.03125 0 0
0.25 0 0
0.25 0 0
0.4375 0 0
0.4375 0 0
0.3125 0 0
0.3125 0 0
0.3125 0 0
0.3125 0 0
0.3125 0 0
0.3125 0 0
0 0 0
0 0 0
-0.03125 0 0
-0.03125 0 0
0.25 0 0
0.25 0 0
0.3125 0 0
0.3125 0 0
0.3125 0 0
0.3125 0 0
0.3125 0 0
0.3125 0 0
0 0 0
0 0 0
-0.03125 0 0
-0.03125 0 0
0.25 0 0
0.25 0 0
0.4375 0 0
0.3125 0 0
0.3125 0 0
0.3125 0 0
0.3125 0 0
0.3125 0 0
0.3125 0 0
0 0 0
0 0 0
-0.03125 0 0
-0.03125 0 0
0.25 0 0
0.25 0 0
0.3125 0 0
0.3125 0 0
0.3125 0 0
0.3125 0 0
0.3125 0 0
0.3125 0 0
0 0 0
0 0 0
-0.03125 0 0
-0.03125 0 0
0.25 0 0
0.25 0 0
0.4375 0 0
0.3125 0 0
0.3125 0 0
0.3125 0 0
0.3125 0 0
0.3125 0 0
0.3125 0 0
0 0 0
0 0 0
-0.03125 0 0
-0.03125 0 0
-0.03125 0 0
0.25 0 0
0.25 0 0
0.3125 0 0
0.3125 0 0
0.3125 0 0
0.3125 0 0
0.3125 0 0
0.3125 0 0
0 0 0
0 0 0
-0.03125 0 0
-0.03125 0 0
-0.03125 0 0
0.25 0 0
0.25 0 0
0.4375 0 0
0.4375 0 0
0.3125 0 0
0.3125 0 0
0.3125 0 0
0.3125 0 0
0.3125 0 0
0.3125 0 0
0 0 0
0 0 0
-0.03125 0 0
-0.03125 0 0
0.25 0 0
0.25 0 0
0.3125 0 0
0.3125 0 0
0.3125 0 0
0.3125 0 0
0.3125 0 0
0.3125 0 0
0 0 0
0 0 0
-0.03125 0 0
-0.03125 0 0
0.25 0 0
0.25 0 0
0.4375 0 0
0.4375 0 0
0.3125 0 0
0.3125 0 0
0.3125 0 0
0.3125 0 0
0.3125 0 0
0.3125 0 0
0 0 0
0 0 0
-0.03125 0 0
-0.03125 0 0
0.25 0 0
0.25 0 0
0.3125 0 0
0.3125 0 0
0.3125 0 0
0.3125 0 0
0.3125 0 0
0.3125 0 0
0 0 0
0 0 0
-0.03125 0 0
-0.03125 0 0
0.25 0 0
0.25 0 0
0.4375 0 0
0.3125 0 0
0.3125 0 0
0.3125 0 0
0.3125 0 0
0.3125 0 0
0.3125 0 0
0 0 0
0 0 0
-0.03125 0 0
-0.03125 0 0
0.25 0 0
0.25 0 0
0.3125 0 0
0.3125 0 0
0.3125 0 0
0.3125 0 0
0.3125 0 0
0.3125 0 0
0 0 0
0 0 0
-0.03125 0 0
-0.03125 0 0
0.25 0 0
0.25 0 0
0.4375 0 0
0.3125 0 0
0.3125 0 0
0.3125 0 0
0.3125 0 0
0.3125 0 0
0.3125 0 0
0 0 0
0 0 0
-0.03125 0 0
-0.03125 0 0
0.25 0 0
0.25 0 0
0.3125 0 0
0.3125 0 0
0.3125 0 0
0.3125 0 0
0.3125 0 0
0.3125 0 0
0 0 0
0 0 0
-0.03125 0 0
-0.03125 0 0
0.25 0 0
0.25 0 0
0.4375 0 0
0.4375 0 0
0.3125 0 0
0.3125 0 0
0.3125 0 0
0.3125 0 0
0.3125 0 0
0.3125 0 0
0 0 0
0 0 0
-0.03125 0 0
-0.03125 0 0
0.25 0 0
0.25 0 0
0.3125 0 0
0.3125 0 0
0.3125 0 0
0.3125 0 0
0.3125 0 0
0.3125 0 0
0 0 0
0 0 0
-0.03125 0 0
-0.03125 0 0
0.25 0 0
0.25 0 0
0.4375 0 0
0.4375 0 0
0.3125 0 0
0.3125 0 0
0.3125 0 0
0.3125 0 0
0.3125 0 0
0.3125 0 0
0 0 0
0 0 0
-0.03125 0 0
-0.03125 0 0
0.25 0 0
0.25 0 0
0.3125 0 0
0.3125 0 0
0.3125 0 0
0.3125 0 0
0.3125 0 0
0.3125 0 0
0 0 0
0 0 0
-0.03125 0 0
-0.03125 0 0
0.25 0 0
0.25 0 0
0.4375 0 0
0.3125 0 0
0.3125 0 0
0.3125 0 0
0.3125 0 0
0.3125 0 0
0.3125 0 0
0 0 0
0 0 0
-0.03125 0 0
-0.03125 0 0
0.25 0 0
0.25 0 0
0.3125 0 0
0.3125 0 0
0.3125 0 0
0.3125 0 0
0.3125 0 0
0.3125 0 0
0 0 0
0 0 0
-0.03125 0 0
-0.03125 0 0
0.25 0 0
0.25 0 0
0.4375 0 0
0.3125 0 0
0.3125 0 0
0.3125 0 0
0.3125 0 0
0.3125 0 0
0.3125 0 0
0 0 0
0 0 0
-0.03125 0 0
-0.03125 0 0
0.25 0 0
0.25 0 0
0.3125 0 0
0.3125 0 0
0.3125 0 0
0.3125 0 0
0.3125 0 0
0.3125 0 0
0 0 0
0 0 0
-0.03125 0 0
-0.03125 0 0
0.25 0 0
0.25 0 0
0.4375 0 0
0.4375 0 0
0.3125 0 0
0.3125 0 0
0.3125 0 0
0.3125 0 0
0.3125 0 0
0.3125 0 0
0 0 0
0 0 0
-0.03125 0 0
-0.03125 0 0
0.25 0 0
0.25 0 0
0.3125 0 0
0.3125 0 0
0.3125 0 0
0.3125 0 0
0.3125 0 0
0.3125 0 0
0 0 0
0 0 0
-0.03125 0 0
-0.03125 0 0
0.25 0 0
0.25 0 0
0.4375 0 0
0.4375 0 0
0.3125 0 0
0.3125 0 0
0.3125 0 0
0.3125 0 0
0.3125 0 0
0.3125 0 0
0 0 0
0 0 0
-0.03125 0 0
-0.03125 0 0
0.25 0 0
0.25 0 0
0.3125 0 0
0.3125 0 0
0.3125 0 0
0.3125 0 0
0.3125 0 0
0.3125 0 0
0 0 0
0 0 0
-0.03125 0 0
-0.03125 0 0
0.25 0 0
0.25 0 0
0.4375 0 0
0.3125 0 0
0.3125 0 0
0.3125 0 0
0.3125 0 0
0.3125 0 0
0.3125 0 0
0 0 0
0 0 0
-0.03125 0 0
-0.03125 0 0
0.25 0 0
0.25 0 0
0.3125 0 0
0.3125 0 0
0.3125 0 0
0.3125 0 0
0.3125 0 0
0.3125 0 0
0 0 0
0 0 0
-0.03125 0 0
-0.03125 0 0
0.25 0 0
0.25 0 0
0.4375 0 0
0.3125 0 0
0.3125 0 0
0.3125 0 0
0.3125 0 0
0.3125 0 0
0.3125 0 0
0 0 0
0 0 0
-0.03125 0 0
-0.03125 0 0
0.25 0 0
0.25 0 0
0.3125 0 0
0.3125 0 0
0.3125 0 0
0.3125 0 0
0.3125 0 0
0.3125 0 0
0 0 0
0 0 0
-0.03125 0 0
-0.03125 0 0
0.25 0 0
0.25 0 0
0.4375 0 0
0.4375 0 0
0.3125 0 0
0.3125 0 0
0.3125 0 0
0.3125 0 0
0.3125 0 0
0.3125 0 0
0 0 0
0 0 0
-0.03125 0 0
-0.03125 0 0
0.25 0 0
0.25 0 0
0.3125 0 0
0.3125 0 0
0.3125 0 0
0.3125 0 0
0.3125 0 0
0.3125 0 0
0 0 0
0 0 0
-0.03125 0 0
-0.03125 0 0
0.25 0 0
0.25 0 0
0.4375 0 0
0.4375 0 0
0.3125 0 0
0.3125 0 0
0.3125 0 0
0.3125 0 0
0.3125 0 0
0.3125 0 0
0 0 0
0 0 0
-0.03125 0 0
-0.03125 0 0
0.25 0 0
0.25 0 0
0.3125 0 0
0.3125 0 0
0.3125 0 0
0.3125 0 0
0.3125 0 0
0.3125 0 0
0 0 0
0 0 0
-0.03125 0 0
-0.03125 0 0
0.25 0 0
0.25 0 0
0.4375 0 0
0.3125 0 0
0.3125 0 0
0.3125 0 0
0.3125 0 0
0.3125 0 0
0.3125 0 0
0 0 0
0 0 0
-0.03125 0 0
-0.03125 0 0
0.25 0 0
0.25 0 0
0.3125 0 0
0.3125 0 0
0.3125 0 0
0.3125 0 0
0.3125 0 0
0.3125 0 0
0 0 0
0 0 0
-0.03125 0 0
-0.03125 0 0
0.25 0 0
0.25 0 0
0.4375 0 0
0.3125 0 0
0.3125 0 0
0.3125 0 0
0.3125 0 0
0.3125 0 0
0.3125 0 0
0 0 0
0 0 0
-0.03125 0 0
-0.03125 0 0
0.25 0 0
0.25 0 0
0.3125 0 0
0.3125 0 0
0.3125 0 0
0.3125 0 0
0.3125 0 0
0.3125 0 0
0 0 0
0 0 0
-0.03125 0 0
-0.03125 0 0
0.25 0 0
0.25 0 0
0.4375 0 0
0.4375 0 0
0.3125 0 0
0.3125 0 0
0.3125 0 0
0.3125 0 0
0.3125 0 0
0.3125 0 0
0 0 0
0 0 0
-0.03125 0 0
-0.03125 0 0
0.25 0 0
0.25 0 0
0.3125 0 0
0.3125 0 0
0.3125 0 0
0.3125 0 0
0.3125 0 0
0.3125 0 0
0 0 0
0 0 0
-0.03125 0 0
-0.03125 0 0
0.25 0 0
0.25 0 0
0.4375 0 0
0.4375 0 0
0.3125 0 0
0.3125 0 0
0.3125 0 0
0.3125 0 0
0.3125 0 0
0.3125 0 0
0 0 0
0 0 0
-0.03125 0 0
-0.03125 0 0
0.25 0 0
0.25 0 0
0.3125 0 0
0.3125 0 0
0.3125 0 0
0.3125 0 0
0.3125 0 0
0.3125 0 0
0 0 0
0 0 0
-0.03125 0 0
-0.03125 0 0
0.25 0 0
0.25 0 0
0.4375 0 0
0.3125 0 0
0.3125 0 0
0.3125 0 0
0.3125 0 0
0.3125 0 0
0.3125 0 0
0 0 0
0 0 0
-0.03125 0 0
-0.03125 0 0
0.25 0 0
0.25 0 0
0.3125 0 0
0.3125 0 0
0.3125 0 0
0.3125 0 0
0.3125 0 0
0.3125 0 0
0 0 0
0 0 0
-0.03125 0 0
-0.03125 0 0
0.25 0 0
0.25 0 0
0.4375 0 0
0.3125 0 0
0.3125 0 0
0.3125 0 0
0.3125 0 0
0.3125 0 0
0.3125 0 0
0 0 0
0 0 0
-0.03125 0 0
-0.03125 0 0
0.25 0 0
0.25 0 0
0.3125 0 0
0.3125 0 0
0.3125 0 0
0.3125 0 0
0.3125 0 0
0.3125 0 0
0 0 0
0 0 0
-0.03125 0 0
-0.03125 0 0
0.25 0 0
0.25 0 0
0.4375 0 0
0.4375 0 0
0.3125 0 0
0.3125 0 0
0.3125 0 0
0.3125 0 0
0.3125 0 0
0.3125 0 0
0 0 0
0 0 0
-0.03125 0 0
-0.03125 0 0
0.25 0 0
0.25 0 0
0.3125 0 0
0.3125 0 0
0.3125 0 0
0.3125 0 0
0.3125 0 0
0.3125 0 0
0 0 0
0 0 0
-0.03125 0 0
-0.03125 0 0
0.25 0 0
0.25 0 0
0.4375 0 0
0.4375 0 0
0.3125 0 0
0.3125 0 0
0.3125 0 0
0.3125 0 0
0.3125 0 0
0.3125 0 0
0 0 0
0 0 0
-0.03125 0 0
-0.03125 0 0
0.25 0 0
0.25 0 0
0.3125 0 0
0.3125 0 0
0.3125 0 0
0.3125 0 0
0.3125 0 0
0.3125 0 0
0 0 0
0 0 0
-0.03125 0 0
-0.03125 0 0
0.25 0 0
0.25 0 0
0.4375 0 0
0.3125 0 0
0.3125 0 0
0.3125 0 0
0.3125 0 0
0.3125 0 0
0.3125 0 0
0 0 0
0 0 0
-0.03125 0 0
-0.03125 0 0
0.25 0 0
0.25 0 0
0.3125 0 0
0.3125 0 0
0.3125 0 0
0.3125 0 0
0.3125 0 0
0.3125 0 0
0 0 0
0 0 0
-0.03125 0 0
-0.03125 0 0
0.25 0 0
0.25 0 0
0.4375 0 0
0.3125 0 0
0.3125 0 0
0.3125 0 0
0.3125 0 0
0.3125 0 0
0.3125 0 0
0 0 0
0 0 0
-0.03125 0 0
-0.03125 0 0
0.25 0 0
0.25 0 0
0.3125 0 0
0.3125 0 0
0.3125 0 0
0.3125 0 0
0.3125 0 0
0.3125 0 0
0 0 0
0 0 0
-0.03125 0 0
-0.03125 0 0
0.25 0 0
0.25 0 0
0.4375 0 0
0.4375 0 0
0.3125 0 0
0.3125 0 0
0.3125 0 0
0.3125 0 0
0.3125 0 0
0.3125 0 0
0 0 0
0 0 0
-0.03125 0 0
-0.03125 0 0
0.25 0 0
0.25 0 0
0.3125 0 0
0.3125 0 0
0.3125 0 0
0.3125 0 0
0.3125 0 0
0.3125 0 0
0 0 0
0 0 0
-0.03125 0 0
-0.03125 0 0
0.25 0 0
0.25 0 0
0.4375 0 0
0.4375 0 0
0.3125 0 0
0.3125 0 0
0.3125 0 0
0.3125 0 0
0.3125 0 0
0.3125 0 0
0 0 0
0 0 0
-0.03125 0 0
-0.03125 0 0
0.25 0 0
0.25 0 0
0.3125 0 0
0.3125 0 0
0.3125 0 0
0.3125 0 0
0.3125 0 0
0.3125 0 0
0 0 0
0 0 0
-0.03125 0 0
-0.03125 0 0
0.25 0 0
0.25 0 0
0.4375 0 0
0.3125 0 0
0.3125 0 0
0.3125 0 0
0.3125 0 0
0.3125 0 0
0.3125 0 0
0 0 0
0 0 0
-0.03125 0 0
-0.03125 0 0
0.25 0 0
0.25 0 0
0.3125 0 0
0.3125 0 0
0.3125 0 0
0.3125 0 0
0.3125 0 0
0.3125 0 0
0 0 0
0 0 0
-0.03125 0 0
-0.03125 0 0
0.25 0 0
0.25 0 0
0.4375 0 0
0.3125 0 0
0.3125 0 0
0.3125 0 0
0.3125 0 0
0.3125 0 0
0.3125 0 0
0 0 0
0 0 0
-0.03125 0 0
-0.03125 0 0
0.25 0 0
0.25 0 0
0.3125 0 0
0.3125 0 0
0.3125 0 0
0.3125 0 0
0.3125 0 0
0.3125 0 0
0 0 0
0 0 0
-0.03125 0 0
-0.03125 0 0
0.25 0 0
0.25 0 0
0.4375 0 0
0.4375 0 0
0.3125 0 0
0.3125 0 0
0.3125 0 0
0.3125 0 0
0.3125 0 0
0.3125 0 0
0 0 0
0 0 0
-0.03125 0 0
-0.03125 0 0
0.25 0 0
0.25 0 0
0.3125 0 0
0.3125 0 0
0.3125 0 0
0.3125 0 0
0.3125 0 0
0.3125 0 0
0 0 0
0 0 0
-0.03125 0 0
-0.03125 0 0
0.25 0 0
0.25 0 0
0.4375 0 0
0.4375 0 0
0.3125 0 0
0.3125 0 0
0.3125 0 0
0.3125 0 0
0.3125 0 0
0.3125 0 0
0 0 0
0 0 0
-0.03125 0 0
-0.03125 0 0
0.25 0 0
0.25 0 0
0.3125 0 0
0.3125 0 0
0.3125 0 0
0.3125 0 0
0.3125 0 0
0.3125 0 0
0 0 0
0 0 0
-0.03125 0 0
-0.03125 0 0
0.25 0 0
0.25 0 0
0.4375 0 0
0.3125 0 0
0.3125 0 0
0.3125 0 0
0.3125 0 0
0.3125 0 0
0.3125 0 0
0 0 0
0 0 0
-0.03125 0 0
-0.03125 0 0
0.25 0 0
0.25 0 0
0.3125 0 0
0.3125 0 0
0.3125 0 0
0.3125 0 0
0.3125 0 0
0.3125 0 0
0 0 0
0 0 0
-0.03125 0 0
-0.03125 0 0
0.25 0 0
0.25 0 0
0.4375 0 0
0.3125 0 0
0.3125 0 0
0.3125 0 0
0.3125 0 0
0.3125 0 0
0.3125 0 0
0 0 0
0 0 0
-0.03125 0 0
-0.03125 0 0
0.25 0 0
0.25 0 0
0.3125 0 0
0.3125 0 0
0.3125 0 0
0.3125 0 0
0.3125 0 0
0.3125 0 0
0 0 0
0 0 0
-0.03125 0 0
-0.03125 0 0
0.25 0 0
0.25 0 0
0.4375 0 0
0.4375 0 0
0.3125 0 0
0.3125 0 0
0.3125 0 0
0.3125 0 0
0.3125 0 0
0.3125 0 0
0 0 0
0 0 0
-0.03125 0 0
-0.03125 0 0
0.25 0 0
0.25 0 0
0.3125 0 0
0.3125 0 0
0.3125 0 0
0.3125 0 0
0.3125 0 0
0.3125 0 0
0 0 0
0 0 0
-0.03125 0 0
-0.03125 0 0
0.25 0 0
0.25 0 0
0.4375 0 0
0.4375 0 0
0.3125 0 0
0.3125 0 0
0.3125 0 0
0.3125 0 0
0.3125 0 0
0.3125 0 0
0 0 0
0 0 0
-0.03125 0 0
-0.03125 0 0
0.25 0 0
0.25 0 0
0.3125 0 0
0.3125 0 0
0.3125 0 0
0.3125 0 0
0.3125 0 0
0.3125 0 0
0 0 0
0 0 0
-0.03125 0 0
-0.03125 0 0
0.25 0 0
0.25 0 0
0.4375 0 0
0.3125 0 0
0.3125 0 0
0.3125 0 0
0.3125 0 0
0.3125 0 0
0.3125 0 0
0 0 0
0 0 0
-0.03125 0 0
-0.03125 0 0
-0.03125 0 0
0.25 0 0
0.25 0 0
0.3125 0 0
0.3125 0 0
0.3125 0 0
0.3125 0 0
0.3125 0 0
0.3125 0 0
0 0 0
0 0 0
-0.03125 0 0
-0.03125 0 0
-0.03125 0 0
0.25 0 0
0.25 0 0
0.4375 0 0
0.3125 0 0
0.3125 0 0
0.3125 0 0
0.3125 0 0
0.3125 0 0
0.3125 0 0
0 0 0
0 0 0
-0.03125 0 0
-0.03125 0 0
0.25 0 0
0.25 0 0
0.3125 0 0
0.3125 0 0
0.3125 0 0
0.3125 0 0
0.3125 0 0
0.3125 0 0
0 0 0
0 0 0
-0.03125 0 0
-0.03125 0 0
0.25 0 0
0.25 0 0
0.4375 0 0
0.4375 0 0
0.3125 0 0
0.3125 0 0
0.3125 0 0
0.3125 0 0
0.3125 0 0
0.3125 0 0
0 0 0
0 0 0
-0.03125 0 0
-0.03125 0 0
0.25 0 0
0.25 0 0
0.3125 0 0
0.3125 0 0
0.3125 0 0
0.3125 0 0
0.3125 0 0
0.3125 0 0
0 0 0
0 0 0
-0.03125 0 0
-0.03125 0 0
0.25 0 0
0.25 0 0
0.4375 0 0
0.4375 0 0
0.3125 0 0
0.3125 0 0
0.3125 0 0
0.3125 0 0
0.3125 0 0
0.3125 0 0
0 0 0
0 0 0
-0.03125 0 0
-0.03125 0 0
0.25 0 0
0.25 0 0
0.3125 0 0
0.3125 0 0
0.3125 0 0
0.3125 0 0
0.3125 0 0
0.3125 0 0
0 0 0
0 0 0
-0.03125 0 0
-0.03125 0 0
0.25 0 0
0.25 0 0
0.4375 0 0
0.3125 0 0
0.3125 0 0
0.3125 0 0
0.3125 0 0
0.3125 0 0
0.3125 0 0
0 0 0
0 0 0
-0.03125 0 0
-0.03125 0 0
-0.03125 0 0
0.25 0 0
0.25 0 0
0.3125 0 0
0.3125 0 0
0.3125 0 0
0.3125 0 0
0.3125 0 0
0.3125 0 0
0 0 0
0 0 0
-0.03125 0 0
-0.03125 0 0
-0.03125 0 0
0.25 0 0
0.25 0 0
0.4375 0 0
0.3125 0 0
0.3125 0 0
0.3125 0 0
0.3125 0 0
0.3125 0 0
0.3125 0 0
0 0 0
0 0 0
-0.03125 0 0
-0.03125 0 0
0.25 0 0
0.25 0 0
0.3125 0 0
0.3125 0 0
0.3125 0 0
0.3125 0 0
0.3125 0 0
0.3125 0 0
0 0 0
0 0 0
-0.03125 0 0
-0.03125 0 0
0.25 0 0
0.25 0 0
0.4375 0 0
0.4375 0 0
0.3125 0 0
0.3125 0 0
0.3125 0 0
0.3125 0 0
0.3125 0 0
0.3125 0 0
0 0 0
0 0 0
-0.03125 0 0
-0.03125 0 0
0.25 0 0
0.25 0 0
0.3125 0 0
0.3125 0 0
0.3125 0 0
0.3125 0 0
0.3125 0 0
0.3125 0 0
0 0 0
0 0 0
-0.03125 0 0
-0.03125 0 0
0.25 0 0
0.25 0 0
0.4375 0 0
0.4375 0 0
0.3125 0 0
0.3125 0 0
0.3125 0 0
0.3125 0 0
0.3125 0 0
0.3125 0 0
0 0 0
0 0 0
-0.03125 0 0
-0.03125 0 0
0.25 0 0
0.25 0 0
0.3125 0 0
0.3125 0 0
0.3125 0 0
0.3125 0 0
0.3125 0 0
0.3125 0 0
0 0 0
0 0 0
-0.03125 0 0
-0.03125 0 0
0.25 0 0
0.25 0 0
0.4375 0 0
0.3125 0 0
0.3125 0 0
0.3125 0 0
0.3125 0 0
0.3125 0 0
0.3125 0 0
0 0 0
0 0 0
-0.03125 0 0
-0.03125 0 0
-0.03125 0 0
0.25 0 0
0.25 0 0
0.3125 0 0
0.3125 0 0
0.3125 0 0
0.3125 0 0
0.3125 0 0
0.3125 0 0
0 0 0
0 0 0
-0.03125 0 0
-0.03125 0 0
-0.03125 0 0
0.25 0 0
0.25 0 0
0.4375 0 0
0.3125 0 0
0.3125 0 0
0.3125 0 0
0.3125 0 0
0.3125 0 0
0.3125 0 0
0 0 0
0 0 0
-0.03125 0 0
-0.03125 0 0
0.25 0 0
0.25 0 0
0.3125 0 0
0.3125 0 0
0.3125 0 0
0.3125 0 0
0.3125 0 0
0.3125 0 0
0 0 0
0 0 0
-0.03125 0 0
-0.03125 0 0
0.25 0 0
0.25 0 0
0.4375 0 0
0.4375 0 0
0.3125 0 0
0.3125 0 0
0.3125 0 0
0.3125 0 0
0.3125 0 0
0.3125 0 0
0 0 0
0 0 0
-0.03125 0 0
-0.03125 0 0
0.25 0 0
0.25 0 0
0.3125 0 0
0.3125 0 0
0.3125 0 0
0.3125 0 0
0.3125 0 0
0.3125 0 0
0 0 0
0 0 0
-0.03125 0 0
-0.03125 0 0
0.25 0 0
0.25 0 0
0.4375 0 0
0.4375 0 0
0.3125 0 0
0.3125 0 0
0.3125 0 0
0.3125 0 0
0.3125 0 0
0.3125 0 0
0 0 0
0 0 0
-0.03125 0 0
-0.03125 0 0
0.25 0 0
0.25 0 0
0.3125 0 0
0.3125 0 0
0.3125 0 0
0.3125 0 0
0.3125 0 0
0.3125 0 0
0 0 0
0 0 0
-0.03125 0 0
-0.03125 0 0
0.25 0 0
0.25 0 0
0.4375 0 0
0.3125 0 0
0.3125 0 0
0.3125 0 0
0.3125 0 0
0.3125 0 0
0.3125 0 0
0 0 0
0 0 0
-0.03125 0 0
-0.03125 0 0
-0.03125 0 0
0.25 0 0
0.25 0 0
0.3125 0 0
0.3125 0 0
0.3125 0 0
0.3125 0 0
0.3125 0 0
0.3125 0 0
0 0 0
0 0 0
-0.03125 0 0
-0.03125 0 0
-0.03125 0 0
0.25 0 0
0.25 0 0
0.4375 0 0
0.3125 0 0
0.3125 0 0
0.3125 0 0
0.3125 0 0
0.3125 0 0
0.3125 0 0
0 0 0
0 0 0
-0.03125 0 0
-0.03125 0 0
0.25 0 0
0.25 0 0
0.3125 0 0
0.3125 0 0
0.3125 0 0
0.3125 0 0
0.3125 0 0
0.3125 0 0
0 0 0
0 0 0
-0.03125 0 0
-0.03125 0 0
0.25 0 0
0.25 0 0
0.4375 0 0
0.4375 0 0
0.3125 0 0
0.3125 0 0
0.3125 0 0
0.3125 0 0
0.3125 0 0
0.3125 0 0
0 0 0
0 0 0
-0.03125 0 0
-0.03125 0 0
0.25 0 0
0.25 0 0
0.3125 0 0
0.3125 0 0
0.3125 0 0
0.3125 0 0
0.3125 0 0
0.3125 0 0
0 0 0
0 0 0
-0.03125 0 0
-0.03125 0 0
0.25 0 0
0.25 0 0
0.4375 0 0
0.4375 0 0
0.3125 0 0
0.3125 0 0
0.3125 0 0
0.3125 0 0
0.3125 0 0
0.3125 0 0
0 0 0
0 0 0
-0.03125 0 0
-0.03125 0 0
0.25 0 0
0.25 0 0
0.3125 0 0
0.3125 0 0
0.3125 0 0
0.3125 0 0
0.3125 0 0
0.3125 0 0
0 0 0
0 0 0
-0.03125 0 0
-0.03125 0 0
0.25 0 0
0.25 0 0
