# vtk DataFile Version 1.0
Cube
ASCII

DATASET POLYDATA
POINTS 216 float
10.209857 8.531081 1.719883
4.484943 4.033296 1.100725
5.656009 4.661432 1.100725
6.503601 4.760611 0.000000
2.566119 4.760611 27.518126
7.570108 5.702815 0.000000
3.632626 5.702816 27.518126
7.776730 6.661550 0.894339
7.644897 5.686286 6.053988
6.084043 5.355688 2.201450
8.925660 7.273156 0.756748
8.462910 6.678080 6.329169
3.945346 3.957390 2.031299
7.056178 6.917614 1.667688
7.798304 4.935217 5.310111
9.225487 8.531081 8.599414
3.500572 4.033296 7.980257
4.671638 4.661432 7.980257
5.519230 4.760611 6.879532
6.585737 5.702816 6.879532
6.792360 6.661550 7.773871
6.660527 5.686286 12.933519
5.099672 5.355688 9.080982
7.941290 7.273156 7.636280
7.478540 6.678080 13.208701
2.960975 3.957390 8.910830
6.071808 6.917614 8.547219
6.813934 4.935217 12.189643
8.241116 8.531081 15.478946
2.516202 4.033296 14.859788
3.687268 4.661432 14.859788
4.534860 4.760611 13.759063
5.601367 5.702816 13.759063
5.807989 6.661550 14.653402
5.676156 5.686286 19.813051
4.115302 5.355688 15.960513
6.956919 7.273156 14.515812
6.494169 6.678080 20.088232
1.976605 3.957390 15.790362
5.087437 6.917614 15.426751
5.829563 4.935217 19.069174
7.256746 8.531081 22.358478
1.531831 4.033296 21.739320
2.702897 4.661432 21.739320
3.550489 4.760611 20.638595
4.616996 5.702816 20.638595
4.823619 6.661550 21.532934
4.691786 5.686286 26.692583
3.130931 5.355688 22.840045
5.972549 7.273156 21.395343
5.509799 6.678080 26.967764
0.992234 3.957390 22.669893
4.103067 6.917614 22.306283
4.845193 4.935217 25.948706
10.209857 25.060981 1.719883
4.484943 20.563196 1.100725
5.656009 21.191332 1.100725
6.503601 21.290511 0.000000
2.566119 21.290511 27.518126
7.570108 22.232716 0.000000
3.632626 22.232716 27.518126
7.776730 23.191450 0.894339
7.644897 22.216186 6.053988
6.084043 21.885588 2.201450
8.925660 23.803056 0.756748
8.462910 23.207980 6.329169
3.945346 20.487290 2.031299
7.056178 23.447514 1.667688
7.798304 21.465117 5.310111
9.225487 25.060981 8.599414
3.500572 20.563196 7.980257
4.671638 21.191332 7.980257
5.519230 21.290511 6.879532
6.585737 22.232716 6.879532
6.792360 23.191450 7.773871
6.660527 22.216186 12.933519
5.099672 21.885588 9.080982
7.941290 23.803056 7.636280
7.478540 23.207980 13.208701
2.960975 20.487290 8.910830
6.071808 23.447514 8.547219
6.813934 21.465117 12.189643
8.241116 25.060981 15.478946
2.516202 20.563196 14.859788
3.687268 21.191332 14.859788
4.534860 21.290511 13.759063
5.601367 22.232716 13.759063
5.807989 23.191450 14.653402
5.676156 22.216186 19.813051
4.115302 21.885588 15.960513
6.956919 23.803056 14.515812
6.494169 23.207980 20.088232
1.976605 20.487290 15.790362
5.087437 23.447514 15.426751
5.829563 21.465117 19.069174
7.256746 25.060981 22.358478
1.531831 20.563196 21.739320
2.702897 21.191332 21.739320
3.550489 21.290511 20.638595
4.616996 22.232716 20.638595
4.823619 23.191450 21.532934
4.691786 22.216186 26.692583
3.130931 21.885588 22.840045
5.972549 23.803056 21.395343
5.509799 23.207980 26.967764
0.992234 20.487290 22.669893
4.103067 23.447514 22.306283
4.845193 21.465117 25.948706
31.121757 8.531081 1.719883
25.396843 4.033296 1.100725
26.567909 4.661432 1.100725
27.415501 4.760611 0.000000
23.478019 4.760611 27.518126
28.482008 5.702815 0.000000
24.544526 5.702816 27.518126
28.688630 6.661550 0.894339
28.556797 5.686286 6.053988
26.995943 5.355688 2.201450
29.837560 7.273156 0.756748
29.374810 6.678080 6.329169
24.857246 3.957390 2.031299
27.968078 6.917614 1.667688
28.710204 4.935217 5.310111
30.137387 8.531081 8.599414
24.412472 4.033296 7.980257
25.583538 4.661432 7.980257
26.431130 4.760611 6.879532
27.497637 5.702816 6.879532
27.704260 6.661550 7.773871
27.572427 5.686286 12.933519
26.011572 5.355688 9.080982
28.853190 7.273156 7.636280
28.390440 6.678080 13.208701
23.872875 3.957390 8.910830
26.983708 6.917614 8.547219
27.725834 4.935217 12.189643
29.153016 8.531081 15.478946
23.428102 4.033296 14.859788
24.599168 4.661432 14.859788
25.446760 4.760611 13.759063
26.513267 5.702816 13.759063
26.719889 6.661550 14.653402
26.588056 5.686286 19.813051
25.027202 5.355688 15.960513
27.868819 7.273156 14.515812
27.406069 6.678080 20.088232
22.888505 3.957390 15.790362
25.999337 6.917614 15.426751
26.741463 4.935217 19.069174
28.168646 8.531081 22.358478
22.443731 4.033296 21.739320
23.614797 4.661432 21.739320
24.462389 4.760611 20.638595
25.528896 5.702816 20.638595
25.735519 6.661550 21.532934
25.603686 5.686286 26.692583
24.042831 5.355688 22.840045
26.884449 7.273156 21.395343
26.421699 6.678080 26.967764
21.904134 3.957390 22.669893
25.014967 6.917614 22.306283
25.757093 4.935217 25.948706
31.121757 25.060981 1.719883
25.396843 20.563196 1.100725
26.567909 21.191332 1.100725
27.415501 21.290511 0.000000
23.478019 21.290511 27.518126
28.482008 22.232716 0.000000
24.544526 22.232716 27.518126
28.688630 23.191450 0.894339
28.556797 22.216186 6.053988
26.995943 21.885588 2.201450
29.837560 23.803056 0.756748
29.374810 23.207980 6.329169
24.857246 20.487290 2.031299
27.968078 23.447514 1.667688
28.710204 21.465117 5.310111
30.137387 25.060981 8.599414
24.412472 20.563196 7.980257
25.583538 21.191332 7.980257
26.431130 21.290511 6.879532
27.497637 22.232716 6.879532
27.704260 23.191450 7.773871
27.572427 22.216186 12.933519
26.011572 21.885588 9.080982
28.853190 23.803056 7.636280
28.390440 23.207980 13.208701
23.872875 20.487290 8.910830
26.983708 23.447514 8.547219
27.725834 21.465117 12.189643
29.153016 25.060981 15.478946
23.428102 20.563196 14.859788
24.599168 21.191332 14.859788
25.446760 21.290511 13.759063
26.513267 22.232716 13.759063
26.719889 23.191450 14.653402
26.588056 22.216186 19.813051
25.027202 21.885588 15.960513
27.868819 23.803056 14.515812
27.406069 23.207980 20.088232
22.888505 20.487290 15.790362
25.999337 23.447514 15.426751
26.741463 21.465117 19.069174
28.168646 25.060981 22.358478
22.443731 20.563196 21.739320
23.614797 21.191332 21.739320
24.462389 21.290511 20.638595
25.528896 22.232716 20.638595
25.735519 23.191450 21.532934
25.603686 22.216186 26.692583
24.042831 21.885588 22.840045
26.884449 23.803056 21.395343
26.421699 23.207980 26.967764
21.904134 20.487290 22.669893
25.014967 23.447514 22.306283
25.757093 21.465117 25.948706
POINT_DATA 216
SCALARS my_scalars float
LOOKUP_TABLE default
2
1.7
1.7
1.7
1.7
1.7
1.7
1.7
1.7
1.47
1.55
1.55
1.09
1.09
1.09
2
1.7
1.7
1.7
1.7
1.7
1.7
1.47
1.55
1.55
1.09
1.09
1.09
2
1.7
1.7
1.7
1.7
1.7
1.7
1.47
1.55
1.55
1.09
1.09
1.09
2
1.7
1.7
1.7
1.7
1.7
1.7
1.47
1.55
1.55
1.09
1.09
1.09
2
1.7
1.7
1.7
1.7
1.7
1.7
1.7
1.7
1.47
1.55
1.55
1.09
1.09
1.09
2
1.7
1.7
1.7
1.7
1.7
1.7
1.47
1.55
1.55
1.09
1.09
1.09
2
1.7
1.7
1.7
1.7
1.7
1.7
1.47
1.55
1.55
1.09
1.09
1.09
2
1.7
1.7
1.7
1.7
1.7
1.7
1.47
1.55
1.55
1.09
1.09
1.09
2
1.7
1.7
1.7
1.7
1.7
1.7
1.7
1.7
1.47
1.55
1.55
1.09
1.09
1.09
2
1.7
1.7
1.7
1.7
1.7
1.7
1.47
1.55
1.55
1.09
1.09
1.09
2
1.7
1.7
1.7
1.7
1.7
1.7
1.47
1.55
1.55
1.09
1.09
1.09
2
1.7
1.7
1.7
1.7
1.7
1.7
1.47
1.55
1.55
1.09
1.09
1.09
2
1.7
1.7
1.7
1.7
1.7
1.7
1.7
1.7
1.47
1.55
1.55
1.09
1.09
1.09
2
1.7
1.7
1.7
1.7
1.7
1.7
1.47
1.55
1.55
1.09
1.09
1.09
2
1.7
1.7
1.7
1.7
1.7
1.7
1.47
1.55
1.55
1.09
1.09
1.09
2
1.7
1.7
1.7
1.7
1.7
1.7
1.47
1.55
1.55
1.09
1.09
1.09
VECTORS vectors float
0.4375 0 0
0.3125 0 0
0.3125 0 0
0.3125 0 0
0.3125 0 0
0.3125 0 0
0.3125 0 0
0.3125 0 0
0.3125 0 0
0.4375 0 0
0 0 0
0 0 0
0.25 0 0
0.25 0 0
0.25 0 0
0.4375 0 0
0.3125 0 0
0.3125 0 0
0.3125 0 0
0.3125 0 0
0.3125 0 0
0.3125 0 0
0.4375 0 0
0 0 0
0 0 0
0.25 0 0
0.25 0 0
0.25 0 0
0.4375 0 0
0.3125 0 0
0.3125 0 0
0.3125 0 0
0.3125 0 0
0.3125 0 0
0.3125 0 0
0.4375 0 0
0 0 0
0 0 0
0.25 0 0
0.25 0 0
0.25 0 0
0.4375 0 0
0.3125 0 0
0.3125 0 0
0.3125 0 0
0.3125 0 0
0.3125 0 0
0.3125 0 0
0.4375 0 0
0 0 0
0 0 0
0.25 0 0
0.25 0 0
0.25 0 0
0.4375 0 0
0.3125 0 0
0.3125 0 0
0.3125 0 0
0.3125 0 0
0.3125 0 0
0.3125 0 0
0.3125 0 0
0.3125 0 0
0.4375 0 0
0 0 0
0 0 0
0.25 0 0
0.25 0 0
0.25 0 0
0.4375 0 0
0.3125 0 0
0.3125 0 0
0.3125 0 0
0.3125 0 0
0.3125 0 0
0.3125 0 0
0.4375 0 0
0 0 0
0 0 0
0.25 0 0
0.25 0 0
0.25 0 0
0.4375 0 0
0.3125 0 0
0.3125 0 0
0.3125 0 0
0.3125 0 0
0.3125 0 0
0.3125 0 0
0.4375 0 0
0 0 0
0 0 0
0.25 0 0
0.25 0 0
0.25 0 0
0.4375 0 0
0.3125 0 0
0.3125 0 0
0.3125 0 0
0.3125 0 0
0.3125 0 0
0.3125 0 0
0.4375 0 0
0 0 0
0 0 0
0.25 0 0
0.25 0 0
0.25 0 0
0.4375 0 0
0.3125 0 0
0.3125 0 0
0.3125 0 0
0.3125 0 0
0.3125 0 0
0.3125 0 0
0.3125 0 0
0.3125 0 0
0.4375 0 0
0 0 0
0 0 0
0.25 0 0
0.25 0 0
0.25 0 0
0.4375 0 0
0.3125 0 0
0.3125 0 0
0.3125 0 0
0.3125 0 0
0.3125 0 0
0.3125 0 0
0.4375 0 0
0 0 0
0 0 0
0.25 0 0
0.25 0 0
0.25 0 0
0.4375 0 0
0.3125 0 0
0.3125 0 0
0.3125 0 0
0.3125 0 0
0.3125 0 0
0.3125 0 0
0.4375 0 0
0 0 0
0 0 0
0.25 0 0
0.25 0 0
0.25 0 0
0.4375 0 0
0.3125 0 0
0.3125 0 0
0.3125 0 0
0.3125 0 0
0.3125 0 0
0.3125 0 0
0.4375 0 0
0 0 0
0 0 0
0.25 0 0
0.25 0 0
0.25 0 0
0.4375 0 0
0.3125 0 0
0.3125 0 0
0.3125 0 0
0.3125 0 0
0.3125 0 0
0.3125 0 0
0.3125 0 0
0.3125 0 0
0.4375 0 0
0 0 0
0 0 0
0.25 0 0
0.25 0 0
0.25 0 0
0.4375 0 0
0.3125 0 0
0.3125 0 0
0.3125 0 0
0.3125 0 0
0.3125 0 0
0.3125 0 0
0.4375 0 0
0 0 0
0 0 0
0.25 0 0
0.25 0 0
0.25 0 0
0.4375 0 0
0.3125 0 0
0.3125 0 0
0.3125 0 0
0.3125 0 0
0.3125 0 0
0.3125 0 0
0.4375 0 0
0 0 0
0 0 0
0.25 0 0
0.25 0 0
0.25 0 0
0.4375 0 0
0.3125 0 0
0.3125 0 0
0.3125 0 0
0.3125 0 0
0.3125 0 0
0.3125 0 0
0.4375 0 0
0 0 0
0 0 0
0.25 0 0
0.25 0 0
0.25 0 0
