# vtk DataFile Version 1.0
Cube
ASCII

DATASET POLYDATA
POINTS 355 float
10.209857 8.531081 1.719883
6.272375 8.531081 29.238009
4.484943 4.033296 1.100725
0.547460 4.033296 28.618851
4.484943 37.093096 1.100725
0.547460 37.093096 28.618851
46.308743 4.033296 1.100725
42.371260 4.033296 28.618851
46.308743 37.093096 1.100725
42.371260 37.093096 28.618851
5.656009 4.661432 1.100725
1.718527 4.661432 28.618851
5.656009 37.721232 1.100725
1.718527 37.721232 28.618851
47.479809 4.661432 1.100725
43.542327 4.661432 28.618851
47.479809 37.721232 1.100725
43.542327 37.721232 28.618851
6.503601 4.760611 0.000000
2.566119 4.760611 27.518126
6.503601 37.820411 0.000000
2.566119 37.820411 27.518126
7.570108 5.702815 0.000000
3.632626 5.702816 27.518126
7.776730 6.661550 0.894339
3.839248 6.661550 28.412465
7.644897 5.686286 6.053988
6.084043 5.355688 2.201450
2.146561 5.355688 29.719576
8.925660 7.273156 0.756748
4.988178 7.273156 28.274875
8.462910 6.678080 6.329169
3.945346 3.957390 2.031299
0.007864 3.957390 29.549425
3.945346 37.017190 2.031299
0.007864 37.017190 29.549425
45.769146 3.957390 2.031299
41.831664 3.957390 29.549425
45.769146 37.017190 2.031299
41.831664 37.017190 29.549425
7.056178 6.917614 1.667688
3.118696 6.917614 29.185814
7.798304 4.935217 5.310111
7.798304 37.995017 5.310111
9.225487 8.531081 8.599414
3.500572 4.033296 7.980257
3.500572 37.093096 7.980257
45.324372 4.033296 7.980257
45.324372 37.093096 7.980257
4.671638 4.661432 7.980257
4.671638 37.721232 7.980257
46.495438 4.661432 7.980257
46.495438 37.721232 7.980257
5.519230 4.760611 6.879532
5.519230 37.820411 6.879532
6.585737 5.702816 6.879532
6.792360 6.661550 7.773871
6.660527 5.686286 12.933519
5.099672 5.355688 9.080982
7.941290 7.273156 7.636280
7.478540 6.678080 13.208701
2.960975 3.957390 8.910830
2.960975 37.017190 8.910830
44.784775 3.957390 8.910830
44.784775 37.017190 8.910830
6.071808 6.917614 8.547219
6.813934 4.935217 12.189643
6.813934 37.995017 12.189643
8.241116 8.531081 15.478946
2.516202 4.033296 14.859788
2.516202 37.093096 14.859788
44.340002 4.033296 14.859788
44.340002 37.093096 14.859788
3.687268 4.661432 14.859788
3.687268 37.721232 14.859788
45.511068 4.661432 14.859788
45.511068 37.721232 14.859788
4.534860 4.760611 13.759063
4.534860 37.820411 13.759063
5.601367 5.702816 13.759063
5.807989 6.661550 14.653402
5.676156 5.686286 19.813051
4.115302 5.355688 15.960513
6.956919 7.273156 14.515812
6.494169 6.678080 20.088232
1.976605 3.957390 15.790362
1.976605 37.017190 15.790362
43.800405 3.957390 15.790362
43.800405 37.017190 15.790362
5.087437 6.917614 15.426751
5.829563 4.935217 19.069174
5.829563 37.995017 19.069174
7.256746 8.531081 22.358478
1.531831 4.033296 21.739320
1.531831 37.093096 21.739320
43.355631 4.033296 21.739320
43.355631 37.093096 21.739320
2.702897 4.661432 21.739320
2.702897 37.721232 21.739320
44.526697 4.661432 21.739320
44.526697 37.721232 21.739320
3.550489 4.760611 20.638595
3.550489 37.820411 20.638595
4.616996 5.702816 20.638595
4.823619 6.661550 21.532934
8.629268 5.686286 -0.825544
4.691786 5.686286 26.692583
3.130931 5.355688 22.840045
5.972549 7.273156 21.395343
9.447281 6.678080 -0.550363
5.509799 6.678080 26.967764
0.992234 3.957390 22.669893
0.992234 37.017190 22.669893
42.816034 3.957390 22.669893
42.816034 37.017190 22.669893
4.103067 6.917614 22.306283
8.782675 4.935217 -1.569421
4.845193 4.935217 25.948706
8.782675 37.995017 -1.569421
4.845193 37.995017 25.948706
10.209857 25.060981 1.719883
6.272375 25.060981 29.238009
4.484943 20.563196 1.100725
0.547460 20.563196 28.618851
46.308743 20.563196 1.100725
42.371260 20.563196 28.618851
5.656009 21.191332 1.100725
1.718527 21.191332 28.618851
47.479809 21.191332 1.100725
43.542327 21.191332 28.618851
6.503601 21.290511 0.000000
2.566119 21.290511 27.518126
7.570108 22.232716 0.000000
3.632626 22.232716 27.518126
7.776730 23.191450 0.894339
3.839248 23.191450 28.412465
7.644897 22.216186 6.053988
6.084043 21.885588 2.201450
2.146561 21.885588 29.719576
8.925660 23.803056 0.756748
4.988178 23.803056 28.274875
8.462910 23.207980 6.329169
3.945346 20.487290 2.031299
0.007864 20.487290 29.549425
45.769146 20.487290 2.031299
41.831664 20.487290 29.549425
7.056178 23.447514 1.667688
3.118696 23.447514 29.185814
7.798304 21.465117 5.310111
9.225487 25.060981 8.599414
3.500572 20.563196 7.980257
45.324372 20.563196 7.980257
4.671638 21.191332 7.980257
46.495438 21.191332 7.980257
5.519230 21.290511 6.879532
6.585737 22.232716 6.879532
6.792360 23.191450 7.773871
6.660527 22.216186 12.933519
5.099672 21.885588 9.080982
7.941290 23.803056 7.636280
7.478540 23.207980 13.208701
2.960975 20.487290 8.910830
44.784775 20.487290 8.910830
6.071808 23.447514 8.547219
6.813934 21.465117 12.189643
8.241116 25.060981 15.478946
2.516202 20.563196 14.859788
44.340002 20.563196 14.859788
3.687268 21.191332 14.859788
45.511068 21.191332 14.859788
4.534860 21.290511 13.759063
5.601367 22.232716 13.759063
5.807989 23.191450 14.653402
5.676156 22.216186 19.813051
4.115302 21.885588 15.960513
6.956919 23.803056 14.515812
6.494169 23.207980 20.088232
1.976605 20.487290 15.790362
43.800405 20.487290 15.790362
5.087437 23.447514 15.426751
5.829563 21.465117 19.069174
7.256746 25.060981 22.358478
1.531831 20.563196 21.739320
43.355631 20.563196 21.739320
2.702897 21.191332 21.739320
44.526697 21.191332 21.739320
3.550489 21.290511 20.638595
4.616996 22.232716 20.638595
4.823619 23.191450 21.532934
8.629268 22.216186 -0.825544
4.691786 22.216186 26.692583
3.130931 21.885588 22.840045
5.972549 23.803056 21.395343
9.447281 23.207980 -0.550363
5.509799 23.207980 26.967764
0.992234 20.487290 22.669893
42.816034 20.487290 22.669893
4.103067 23.447514 22.306283
8.782675 21.465117 -1.569421
4.845193 21.465117 25.948706
31.121757 8.531081 1.719883
27.184275 8.531081 29.238009
25.396843 4.033296 1.100725
21.459360 4.033296 28.618851
25.396843 37.093096 1.100725
21.459360 37.093096 28.618851
26.567909 4.661432 1.100725
22.630427 4.661432 28.618851
26.567909 37.721232 1.100725
22.630427 37.721232 28.618851
27.415501 4.760611 0.000000
23.478019 4.760611 27.518126
27.415501 37.820411 0.000000
23.478019 37.820411 27.518126
28.482008 5.702815 0.000000
24.544526 5.702816 27.518126
28.688630 6.661550 0.894339
24.751148 6.661550 28.412465
28.556797 5.686286 6.053988
26.995943 5.355688 2.201450
23.058461 5.355688 29.719576
29.837560 7.273156 0.756748
25.900078 7.273156 28.274875
29.374810 6.678080 6.329169
24.857246 3.957390 2.031299
20.919764 3.957390 29.549425
24.857246 37.017190 2.031299
20.919764 37.017190 29.549425
27.968078 6.917614 1.667688
24.030596 6.917614 29.185814
28.710204 4.935217 5.310111
28.710204 37.995017 5.310111
30.137387 8.531081 8.599414
24.412472 4.033296 7.980257
24.412472 37.093096 7.980257
25.583538 4.661432 7.980257
25.583538 37.721232 7.980257
26.431130 4.760611 6.879532
26.431130 37.820411 6.879532
27.497637 5.702816 6.879532
27.704260 6.661550 7.773871
27.572427 5.686286 12.933519
26.011572 5.355688 9.080982
28.853190 7.273156 7.636280
28.390440 6.678080 13.208701
23.872875 3.957390 8.910830
23.872875 37.017190 8.910830
26.983708 6.917614 8.547219
27.725834 4.935217 12.189643
27.725834 37.995017 12.189643
29.153016 8.531081 15.478946
23.428102 4.033296 14.859788
23.428102 37.093096 14.859788
24.599168 4.661432 14.859788
24.599168 37.721232 14.859788
25.446760 4.760611 13.759063
25.446760 37.820411 13.759063
26.513267 5.702816 13.759063
26.719889 6.661550 14.653402
26.588056 5.686286 19.813051
25.027202 5.355688 15.960513
27.868819 7.273156 14.515812
27.406069 6.678080 20.088232
22.888505 3.957390 15.790362
22.888505 37.017190 15.790362
25.999337 6.917614 15.426751
26.741463 4.935217 19.069174
26.741463 37.995017 19.069174
28.168646 8.531081 22.358478
22.443731 4.033296 21.739320
22.443731 37.093096 21.739320
23.614797 4.661432 21.739320
23.614797 37.721232 21.739320
24.462389 4.760611 20.638595
24.462389 37.820411 20.638595
25.528896 5.702816 20.638595
25.735519 6.661550 21.532934
29.541168 5.686286 -0.825544
25.603686 5.686286 26.692583
24.042831 5.355688 22.840045
26.884449 7.273156 21.395343
30.359181 6.678080 -0.550363
26.421699 6.678080 26.967764
21.904134 3.957390 22.669893
21.904134 37.017190 22.669893
25.014967 6.917614 22.306283
29.694575 4.935217 -1.569421
25.757093 4.935217 25.948706
29.694575 37.995017 -1.569421
25.757093 37.995017 25.948706
31.121757 25.060981 1.719883
27.184275 25.060981 29.238009
25.396843 20.563196 1.100725
21.459360 20.563196 28.618851
26.567909 21.191332 1.100725
22.630427 21.191332 28.618851
27.415501 21.290511 0.000000
23.478019 21.290511 27.518126
28.482008 22.232716 0.000000
24.544526 22.232716 27.518126
28.688630 23.191450 0.894339
24.751148 23.191450 28.412465
28.556797 22.216186 6.053988
26.995943 21.885588 2.201450
23.058461 21.885588 29.719576
29.837560 23.803056 0.756748
25.900078 23.803056 28.274875
29.374810 23.207980 6.329169
24.857246 20.487290 2.031299
20.919764 20.487290 29.549425
27.968078 23.447514 1.667688
24.030596 23.447514 29.185814
28.710204 21.465117 5.310111
30.137387 25.060981 8.599414
24.412472 20.563196 7.980257
25.583538 21.191332 7.980257
26.431130 21.290511 6.879532
27.497637 22.232716 6.879532
27.704260 23.191450 7.773871
27.572427 22.216186 12.933519
26.011572 21.885588 9.080982
28.853190 23.803056 7.636280
28.390440 23.207980 13.208701
23.872875 20.487290 8.910830
26.983708 23.447514 8.547219
27.725834 21.465117 12.189643
29.153016 25.060981 15.478946
23.428102 20.563196 14.859788
24.599168 21.191332 14.859788
25.446760 21.290511 13.759063
26.513267 22.232716 13.759063
26.719889 23.191450 14.653402
26.588056 22.216186 19.813051
25.027202 21.885588 15.960513
27.868819 23.803056 14.515812
27.406069 23.207980 20.088232
22.888505 20.487290 15.790362
25.999337 23.447514 15.426751
26.741463 21.465117 19.069174
28.168646 25.060981 22.358478
22.443731 20.563196 21.739320
23.614797 21.191332 21.739320
24.462389 21.290511 20.638595
25.528896 22.232716 20.638595
25.735519 23.191450 21.532934
29.541168 22.216186 -0.825544
25.603686 22.216186 26.692583
24.042831 21.885588 22.840045
26.884449 23.803056 21.395343
30.359181 23.207980 -0.550363
26.421699 23.207980 26.967764
21.904134 20.487290 22.669893
25.014967 23.447514 22.306283
29.694575 21.465117 -1.569421
25.757093 21.465117 25.948706
LINES 320 960
2 0 29
2 1 30
2 2 10
2 2 32
2 3 11
2 3 33
2 4 12
2 4 34
2 5 13
2 5 35
2 6 14
2 6 36
2 7 15
2 7 37
2 8 16
2 8 38
2 9 17
2 9 39
2 10 18
2 10 27
2 11 19
2 11 28
2 12 20
2 13 21
2 18 22
2 19 23
2 22 24
2 22 105
2 23 25
2 23 106
2 24 29
2 24 40
2 25 30
2 25 41
2 26 31
2 26 42
2 26 55
2 29 109
2 30 110
2 31 59
2 44 59
2 45 49
2 45 61
2 46 50
2 46 62
2 47 51
2 47 63
2 48 52
2 48 64
2 49 53
2 49 58
2 50 54
2 53 55
2 55 56
2 56 59
2 56 65
2 57 60
2 57 66
2 57 79
2 60 83
2 68 83
2 69 73
2 69 85
2 70 74
2 70 86
2 71 75
2 71 87
2 72 76
2 72 88
2 73 77
2 73 82
2 74 78
2 77 79
2 79 80
2 80 83
2 80 89
2 81 84
2 81 90
2 81 103
2 84 108
2 92 108
2 93 97
2 93 111
2 94 98
2 94 112
2 95 99
2 95 113
2 96 100
2 96 114
2 97 101
2 97 107
2 98 102
2 101 103
2 103 104
2 104 108
2 104 115
2 105 109
2 105 116
2 106 110
2 106 117
2 120 139
2 121 140
2 122 126
2 122 142
2 123 127
2 123 143
2 124 128
2 124 144
2 125 129
2 125 145
2 126 130
2 126 137
2 127 131
2 127 138
2 130 132
2 131 133
2 132 134
2 132 189
2 133 135
2 133 190
2 134 139
2 134 146
2 135 140
2 135 147
2 136 141
2 136 148
2 136 155
2 139 193
2 140 194
2 141 159
2 149 159
2 150 152
2 150 161
2 151 153
2 151 162
2 152 154
2 152 158
2 154 155
2 155 156
2 156 159
2 156 163
2 157 160
2 157 164
2 157 171
2 160 175
2 165 175
2 166 168
2 166 177
2 167 169
2 167 178
2 168 170
2 168 174
2 170 171
2 171 172
2 172 175
2 172 179
2 173 176
2 173 180
2 173 187
2 176 192
2 181 192
2 182 184
2 182 195
2 183 185
2 183 196
2 184 186
2 184 191
2 186 187
2 187 188
2 188 192
2 188 197
2 189 193
2 189 198
2 190 194
2 190 199
2 200 221
2 201 222
2 202 206
2 202 224
2 203 207
2 203 225
2 204 208
2 204 226
2 205 209
2 205 227
2 206 210
2 206 219
2 207 211
2 207 220
2 208 212
2 209 213
2 210 214
2 211 215
2 214 216
2 214 277
2 215 217
2 215 278
2 216 221
2 216 228
2 217 222
2 217 229
2 218 223
2 218 230
2 218 239
2 221 281
2 222 282
2 223 243
2 232 243
2 233 235
2 233 245
2 234 236
2 234 246
2 235 237
2 235 242
2 236 238
2 237 239
2 239 240
2 240 243
2 240 247
2 241 244
2 241 248
2 241 257
2 244 261
2 250 261
2 251 253
2 251 263
2 252 254
2 252 264
2 253 255
2 253 260
2 254 256
2 255 257
2 257 258
2 258 261
2 258 265
2 259 262
2 259 266
2 259 275
2 262 280
2 268 280
2 269 271
2 269 283
2 270 272
2 270 284
2 271 273
2 271 279
2 272 274
2 273 275
2 275 276
2 276 280
2 276 285
2 277 281
2 277 286
2 278 282
2 278 287
2 290 305
2 291 306
2 292 294
2 292 308
2 293 295
2 293 309
2 294 296
2 294 303
2 295 297
2 295 304
2 296 298
2 297 299
2 298 300
2 298 345
2 299 301
2 299 346
2 300 305
2 300 310
2 301 306
2 301 311
2 302 307
2 302 312
2 302 317
2 305 349
2 306 350
2 307 321
2 313 321
2 314 315
2 314 323
2 315 316
2 315 320
2 316 317
2 317 318
2 318 321
2 318 324
2 319 322
2 319 325
2 319 330
2 322 334
2 326 334
2 327 328
2 327 336
2 328 329
2 328 333
2 329 330
2 330 331
2 331 334
2 331 337
2 332 335
2 332 338
2 332 343
2 335 348
2 339 348
2 340 341
2 340 351
2 341 342
2 341 347
2 342 343
2 343 344
2 344 348
2 344 352
2 345 349
2 345 353
2 346 350
2 346 354
