# vtk DataFile Version 1.0
Cube
ASCII

DATASET POLYDATA
POINTS 2206 float
7.021161 7.500361 7.845183
5.275489 7.718800 8.749217
4.432976 6.670652 9.236362
3.289192 4.630828 9.209191
3.179640 3.745324 8.879251
4.303860 5.403386 8.764743
4.922051 5.064545 8.130095
8.254282 8.997361 8.339704
6.287548 10.217189 7.316891
9.450233 8.773726 9.061689
9.724115 7.960507 9.467320
6.376234 7.280566 5.997134
9.061582 7.341557 5.923383
5.099422 7.269271 5.562390
5.099422 7.269271 44.378790
4.328640 7.262494 6.115524
7.873455 5.848397 8.531845
7.969966 5.405645 9.818608
7.933449 5.315287 12.145652
7.433940 6.022336 10.963692
6.849658 6.772304 10.967574
6.934431 6.309221 13.539160
16.077917 2.330323 7.845183
3.035917 24.919730 7.845183
16.761578 0.709307 8.749217
3.719578 23.298714 8.749217
18.090558 0.503744 9.236362
5.048558 23.093150 9.236362
20.428989 0.533110 9.209191
7.386989 23.122517 9.209191
21.250635 0.880987 8.879251
8.208635 23.470393 8.879251
19.252600 1.025559 8.764743
6.210600 23.614966 8.764743
19.236950 1.730349 8.130095
6.194950 24.319755 8.130095
14.164916 2.649737 8.339704
1.122916 25.239144 8.339704
14.091881 0.336582 7.316891
1.049881 22.925989 7.316891
13.760614 3.797279 9.061689
14.327941 4.441077 9.467320
16.590728 1.881698 5.997134
3.548728 24.471104 5.997134
15.195234 4.176781 5.923383
17.238916 0.781593 5.562390
17.238916 0.781593 44.378790
4.196916 23.371000 5.562390
4.196916 23.371000 44.378790
17.630176 0.117465 6.115524
4.588176 22.706872 6.115524
17.082412 3.894414 8.531845
17.417591 4.199371 9.818608
17.514102 4.212924 12.145652
17.151534 3.426813 10.963692
16.794183 2.545826 10.967574
3.752183 25.135233 10.967574
17.152838 2.850783 13.539160
4.110838 25.440190 13.539160
-10.057077 12.758723 7.845183
16.026923 12.758723 7.845183
-8.995067 14.161299 8.749217
17.088933 14.161299 8.749217
-9.481534 15.415011 9.236362
16.602466 15.415011 9.236362
-10.676181 17.425468 9.209191
15.407819 17.425468 9.209191
-11.388274 17.963096 8.879251
14.695726 17.963096 8.879251
-10.514460 16.160462 8.764743
15.569540 16.160462 8.764743
-11.117001 15.794513 8.130095
14.966999 15.794513 8.130095
-9.377198 10.942309 8.339704
16.706802 10.942309 8.339704
-7.337429 12.035636 7.316891
18.746571 12.035636 7.316891
15.915153 10.018402 9.061689
15.073944 10.187822 9.467320
-9.924962 13.427143 5.997134
16.159038 13.427143 5.997134
14.869184 11.071068 5.923383
-9.296338 14.538542 5.562390
-9.296338 14.538542 44.378790
16.787662 14.538542 5.562390
16.787662 14.538542 44.378790
-8.916815 15.209447 6.115524
17.167185 15.209447 6.115524
14.170133 12.846596 8.531845
13.738443 12.984391 9.818608
13.678450 13.061195 12.145652
14.540526 13.140258 10.963692
-10.601842 13.271276 10.967574
15.482158 13.271276 10.967574
-11.045270 13.429402 13.539160
15.038730 13.429402 13.539160
6.020839 15.089046 17.549283
7.766511 14.870606 18.453317
8.609024 15.918755 18.940462
9.752808 17.958578 18.913291
9.862360 18.844083 18.583352
8.738140 17.186021 18.468843
8.119949 17.524862 17.834195
4.787718 13.592046 18.043804
6.754452 12.372218 17.020991
3.591767 13.815681 18.765789
3.317885 14.628900 19.171420
6.665766 15.308841 15.701234
3.980418 15.247849 15.627483
7.942578 15.320136 15.266490
8.713360 15.326912 15.819624
5.168545 16.741009 18.235945
5.072034 17.183762 0.114508
5.072034 17.183762 38.930908
5.108551 17.274119 2.441552
5.108551 17.274119 41.257952
5.274185 16.874287 3.287749
5.274185 16.874287 42.104149
5.608060 16.567071 1.259592
5.608060 16.567071 40.075992
6.192342 15.817103 1.263474
6.192342 15.817103 40.079874
10.006083 -2.330323 17.549283
-3.035917 20.259083 17.549283
9.322422 -0.709307 18.453317
-3.719578 21.880099 18.453317
7.993442 -0.503744 18.940462
-5.048558 22.085663 18.940462
5.655011 -0.533110 18.913291
-7.386989 22.056297 18.913291
4.833365 -0.880987 18.583352
-8.208635 21.708420 18.583352
6.831400 -1.025559 18.468843
-6.210600 21.563848 18.468843
6.847050 -1.730349 17.834195
-6.194950 20.859058 17.834195
11.919084 -2.649737 18.043804
-1.122916 19.939669 18.043804
11.992119 -0.336582 17.020991
-1.049881 22.252824 17.020991
-0.718614 18.792127 18.765789
-1.285941 18.148329 19.171420
9.493272 -1.881698 15.701234
-3.548728 20.707709 15.701234
-2.153234 18.412625 15.627483
8.845084 -0.781593 15.266490
-4.196916 21.807813 15.266490
8.453824 -0.117465 15.819624
-4.588176 22.471942 15.819624
-4.040412 18.694993 18.235945
-4.375591 18.390036 0.114508
-4.375591 18.390036 38.930908
-4.472102 18.376482 2.441552
-4.472102 18.376482 41.257952
-4.208653 18.719841 3.287749
-4.208653 18.719841 42.104149
-4.109534 19.162594 1.259592
-4.109534 19.162594 40.075992
9.289817 -2.545826 1.263474
9.289817 -2.545826 40.079874
-3.752183 20.043581 1.263474
-3.752183 20.043581 40.079874
-2.984923 9.830684 17.549283
23.099077 9.830684 17.549283
-4.046933 8.428108 18.453317
22.037067 8.428108 18.453317
-3.560466 7.174396 18.940462
22.523534 7.174396 18.940462
-2.365819 5.163938 18.913291
23.718181 5.163938 18.913291
-1.653726 4.626310 18.583352
24.430274 4.626310 18.583352
-2.527540 6.428945 18.468843
23.556460 6.428945 18.468843
-1.924999 6.794894 17.834195
24.159001 6.794894 17.834195
-3.664802 11.647098 18.043804
22.419198 11.647098 18.043804
-5.704571 10.553771 17.020991
20.379429 10.553771 17.020991
-2.873153 12.571005 18.765789
-2.031944 12.401584 19.171420
-3.117038 9.162263 15.701234
22.966962 9.162263 15.701234
-1.827184 11.518338 15.627483
-3.745662 8.050865 15.266490
22.338338 8.050865 15.266490
-4.125185 7.379959 15.819624
21.958815 7.379959 15.819624
-1.128133 9.742811 18.235945
-0.696443 9.605016 0.114508
-0.696443 9.605016 38.930908
-0.636450 9.528212 2.441552
-0.636450 9.528212 41.257952
-1.065531 9.584685 3.287749
-1.065531 9.584685 42.104149
-1.498526 9.449149 1.259592
-1.498526 9.449149 40.075992
-2.440158 9.318130 1.263474
-2.440158 9.318130 40.079874
23.643842 9.318130 1.263474
23.643842 9.318130 40.079874
2.984923 9.830684 11.563017
4.046933 8.428108 10.658983
3.560466 7.174396 10.171838
2.365819 5.163938 10.199009
2.527540 6.428945 10.643457
1.924999 6.794894 11.278105
1.189430 4.029950 10.558061
27.273430 4.029950 10.558061
3.664802 11.647098 11.068496
5.704571 10.553771 12.091309
2.873153 12.571005 10.346511
2.031944 12.401584 9.940880
3.117038 9.162263 13.411066
1.827184 11.518338 13.484817
3.745662 8.050865 13.845810
4.125185 7.379959 13.292676
1.128133 9.742811 10.876355
0.696443 9.605016 9.589592
0.636450 9.528212 7.262548
1.065531 9.584685 6.416351
1.498526 9.449149 8.444508
2.440158 9.318130 8.440626
-6.020839 15.089046 11.563017
20.063161 15.089046 11.563017
-7.766511 14.870606 10.658983
18.317489 14.870606 10.658983
-8.609024 15.918755 10.171838
17.474976 15.918755 10.171838
-9.752808 17.958578 10.199009
16.331192 17.958578 10.199009
-8.738140 17.186021 10.643457
17.345860 17.186021 10.643457
-8.119949 17.524862 11.278105
17.964051 17.524862 11.278105
2.895324 -3.045052 10.558061
-10.146676 19.544355 10.558061
28.979324 -3.045052 10.558061
15.937324 19.544355 10.558061
-4.787718 13.592046 11.068496
21.296282 13.592046 11.068496
-6.754452 12.372218 12.091309
19.329548 12.372218 12.091309
-3.591767 13.815681 10.346511
-3.317885 14.628900 9.940880
-6.665766 15.308841 13.411066
19.418234 15.308841 13.411066
-3.980418 15.247849 13.484817
-7.942578 15.320136 13.845810
18.141422 15.320136 13.845810
-8.713360 15.326912 13.292676
17.370640 15.326912 13.292676
-5.168545 16.741009 10.876355
-5.072034 17.183762 9.589592
-5.108551 17.274119 7.262548
-5.274185 16.874287 6.416351
-5.608060 16.567071 8.444508
-6.192342 15.817103 8.440626
19.891658 15.817103 8.440626
16.077917 -2.330323 11.563017
3.035917 20.259083 11.563017
16.761578 -0.709307 10.658983
3.719578 21.880099 10.658983
18.090558 -0.503744 10.171838
5.048558 22.085663 10.171838
20.428989 -0.533110 10.199009
7.386989 22.056297 10.199009
19.252600 -1.025559 10.643457
6.210600 21.563848 10.643457
19.236950 -1.730349 11.278105
6.194950 20.859058 11.278105
21.999246 -0.984898 10.558061
8.957246 21.604509 10.558061
14.164916 -2.649737 11.068496
1.122916 19.939669 11.068496
14.091881 -0.336582 12.091309
1.049881 22.252824 12.091309
0.718614 18.792127 10.346511
1.285941 18.148329 9.940880
16.590728 -1.881698 13.411066
3.548728 20.707709 13.411066
2.153234 18.412625 13.484817
17.238916 -0.781593 13.845810
4.196916 21.807813 13.845810
17.630176 -0.117465 13.292676
4.588176 22.471942 13.292676
4.040412 18.694993 10.876355
4.375591 18.390036 9.589592
4.472102 18.376482 7.262548
4.208653 18.719841 6.416351
4.109534 19.162594 8.444508
16.794183 -2.545826 8.440626
3.752183 20.043581 8.440626
10.057077 12.758723 1.858917
10.057077 12.758723 40.675317
8.995067 14.161299 0.954883
8.995067 14.161299 39.771283
9.481534 15.415011 0.467738
9.481534 15.415011 39.284138
10.676181 17.425468 0.494909
10.676181 17.425468 39.311309
10.514460 16.160462 0.939357
10.514460 16.160462 39.755757
11.117001 15.794513 1.574005
11.117001 15.794513 40.390405
-14.231430 18.559456 0.853961
-14.231430 18.559456 39.670361
11.852570 18.559456 0.853961
11.852570 18.559456 39.670361
9.377198 10.942309 1.364396
9.377198 10.942309 40.180796
7.337429 12.035636 2.387209
7.337429 12.035636 41.203609
10.168847 10.018402 0.642411
10.168847 10.018402 39.458811
11.010056 10.187822 0.236780
11.010056 10.187822 39.053180
9.924962 13.427143 3.706966
9.924962 13.427143 42.523366
11.214816 11.071068 3.780717
11.214816 11.071068 42.597117
9.296338 14.538542 4.141710
9.296338 14.538542 42.958110
8.916815 15.209447 3.588576
8.916815 15.209447 42.404976
11.913867 12.846596 1.172255
11.913867 12.846596 39.988655
12.345557 12.984391 19.293692
12.405550 13.061195 16.966648
11.543474 13.140258 18.148608
10.601842 13.271276 18.144726
11.045270 13.429402 15.573140
-7.021161 7.500361 1.858917
-7.021161 7.500361 40.675317
19.062839 7.500361 1.858917
19.062839 7.500361 40.675317
-5.275489 7.718800 0.954883
-5.275489 7.718800 39.771283
20.808511 7.718800 0.954883
20.808511 7.718800 39.771283
-4.432976 6.670652 0.467738
-4.432976 6.670652 39.284138
21.651024 6.670652 0.467738
21.651024 6.670652 39.284138
-3.289192 4.630828 0.494909
-3.289192 4.630828 39.311309
22.794808 4.630828 0.494909
22.794808 4.630828 39.311309
-4.303860 5.403386 0.939357
-4.303860 5.403386 39.755757
21.780140 5.403386 0.939357
21.780140 5.403386 39.755757
-4.922051 5.064545 1.574005
-4.922051 5.064545 40.390405
21.161949 5.064545 1.574005
21.161949 5.064545 40.390405
-2.895324 3.045052 0.853961
-2.895324 3.045052 39.670361
-15.937324 25.634459 0.853961
-15.937324 25.634459 39.670361
23.188676 3.045052 0.853961
23.188676 3.045052 39.670361
10.146676 25.634459 0.853961
10.146676 25.634459 39.670361
-8.254282 8.997361 1.364396
-8.254282 8.997361 40.180796
17.829718 8.997361 1.364396
17.829718 8.997361 40.180796
-6.287548 10.217189 2.387209
-6.287548 10.217189 41.203609
19.796452 10.217189 2.387209
19.796452 10.217189 41.203609
16.633767 8.773726 0.642411
16.633767 8.773726 39.458811
16.359885 7.960507 0.236780
16.359885 7.960507 39.053180
-6.376234 7.280566 3.706966
-6.376234 7.280566 42.523366
19.707766 7.280566 3.706966
19.707766 7.280566 42.523366
17.022418 7.341557 3.780717
17.022418 7.341557 42.597117
-5.099422 7.269271 4.141710
-5.099422 7.269271 42.958110
20.984578 7.269271 4.141710
20.984578 7.269271 42.958110
-4.328640 7.262494 3.588576
-4.328640 7.262494 42.404976
21.755360 7.262494 3.588576
21.755360 7.262494 42.404976
18.210545 5.848397 1.172255
18.210545 5.848397 39.988655
18.114034 5.405645 19.293692
18.150551 5.315287 16.966648
18.650060 6.022336 18.148608
-6.849658 6.772304 18.144726
19.234342 6.772304 18.144726
-6.934431 6.309221 15.573140
19.149569 6.309221 15.573140
10.006083 2.330323 1.858917
10.006083 2.330323 40.675317
-3.035917 24.919730 1.858917
-3.035917 24.919730 40.675317
9.322422 0.709307 0.954883
9.322422 0.709307 39.771283
-3.719578 23.298714 0.954883
-3.719578 23.298714 39.771283
7.993442 0.503744 0.467738
7.993442 0.503744 39.284138
-5.048558 23.093150 0.467738
-5.048558 23.093150 39.284138
5.655011 0.533110 0.494909
5.655011 0.533110 39.311309
-7.386989 23.122517 0.494909
-7.386989 23.122517 39.311309
6.831400 1.025559 0.939357
6.831400 1.025559 39.755757
-6.210600 23.614966 0.939357
-6.210600 23.614966 39.755757
6.847050 1.730349 1.574005
6.847050 1.730349 40.390405
-6.194950 24.319755 1.574005
-6.194950 24.319755 40.390405
4.084754 0.984898 0.853961
4.084754 0.984898 39.670361
-8.957246 23.574305 0.853961
-8.957246 23.574305 39.670361
11.919084 2.649737 1.364396
11.919084 2.649737 40.180796
-1.122916 25.239144 1.364396
-1.122916 25.239144 40.180796
11.992119 0.336582 2.387209
11.992119 0.336582 41.203609
-1.049881 22.925989 2.387209
-1.049881 22.925989 41.203609
12.323386 3.797279 0.642411
12.323386 3.797279 39.458811
11.756059 4.441077 0.236780
11.756059 4.441077 39.053180
9.493272 1.881698 3.706966
9.493272 1.881698 42.523366
-3.548728 24.471104 3.706966
-3.548728 24.471104 42.523366
10.888766 4.176781 3.780717
10.888766 4.176781 42.597117
8.845084 0.781593 4.141710
8.845084 0.781593 42.958110
-4.196916 23.371000 4.141710
-4.196916 23.371000 42.958110
8.453824 0.117465 3.588576
8.453824 0.117465 42.404976
-4.588176 22.706872 3.588576
-4.588176 22.706872 42.404976
9.001588 3.894414 1.172255
9.001588 3.894414 39.988655
8.666409 4.199371 19.293692
8.569898 4.212924 16.966648
8.932466 3.426813 18.148608
9.289817 2.545826 18.144726
-3.752183 25.135233 18.144726
8.931162 2.850783 15.573140
-4.110838 25.440190 15.573140
6.020839 15.089046 11.563017
7.766511 14.870606 10.658983
8.609024 15.918755 10.171838
9.752808 17.958578 10.199009
9.862360 18.844083 10.528949
8.738140 17.186021 10.643457
8.119949 17.524862 11.278105
4.787718 13.592046 11.068496
6.754452 12.372218 12.091309
3.591767 13.815681 10.346511
3.317885 14.628900 9.940880
6.665766 15.308841 13.411066
3.980418 15.247849 13.484817
7.942578 15.320136 13.845810
8.713360 15.326912 13.292676
5.168545 16.741009 10.876355
5.072034 17.183762 9.589592
5.108551 17.274119 7.262548
5.608060 16.567071 8.444508
6.192342 15.817103 8.440626
6.107569 16.280185 5.869040
10.006083 -2.330323 11.563017
-3.035917 20.259083 11.563017
9.322422 -0.709307 10.658983
-3.719578 21.880099 10.658983
7.993442 -0.503744 10.171838
-5.048558 22.085663 10.171838
5.655011 -0.533110 10.199009
-7.386989 22.056297 10.199009
4.833365 -0.880987 10.528949
-8.208635 21.708420 10.528949
6.831400 -1.025559 10.643457
-6.210600 21.563848 10.643457
6.847050 -1.730349 11.278105
-6.194950 20.859058 11.278105
11.919084 -2.649737 11.068496
-1.122916 19.939669 11.068496
11.992119 -0.336582 12.091309
-1.049881 22.252824 12.091309
-0.718614 18.792127 10.346511
-1.285941 18.148329 9.940880
9.493272 -1.881698 13.411066
-3.548728 20.707709 13.411066
-2.153234 18.412625 13.484817
8.845084 -0.781593 13.845810
-4.196916 21.807813 13.845810
8.453824 -0.117465 13.292676
-4.588176 22.471942 13.292676
-4.040412 18.694993 10.876355
-4.375591 18.390036 9.589592
-4.472102 18.376482 7.262548
-4.109534 19.162594 8.444508
9.289817 -2.545826 8.440626
-3.752183 20.043581 8.440626
8.931162 -2.850783 5.869040
-4.110838 19.738624 5.869040
-2.984923 9.830684 11.563017
23.099077 9.830684 11.563017
-4.046933 8.428108 10.658983
22.037067 8.428108 10.658983
-3.560466 7.174396 10.171838
22.523534 7.174396 10.171838
-2.365819 5.163938 10.199009
23.718181 5.163938 10.199009
-1.653726 4.626310 10.528949
24.430274 4.626310 10.528949
-2.527540 6.428945 10.643457
23.556460 6.428945 10.643457
-1.924999 6.794894 11.278105
24.159001 6.794894 11.278105
-3.664802 11.647098 11.068496
22.419198 11.647098 11.068496
-5.704571 10.553771 12.091309
20.379429 10.553771 12.091309
-2.873153 12.571005 10.346511
-2.031944 12.401584 9.940880
-3.117038 9.162263 13.411066
22.966962 9.162263 13.411066
-1.827184 11.518338 13.484817
-3.745662 8.050865 13.845810
22.338338 8.050865 13.845810
-4.125185 7.379959 13.292676
21.958815 7.379959 13.292676
-1.128133 9.742811 10.876355
-0.696443 9.605016 9.589592
-0.636450 9.528212 7.262548
-1.498526 9.449149 8.444508
-2.440158 9.318130 8.440626
23.643842 9.318130 8.440626
-1.996730 9.160004 5.869040
24.087270 9.160004 5.869040
7.021161 7.500361 1.858917
7.021161 7.500361 40.675317
5.275489 7.718800 0.954883
5.275489 7.718800 39.771283
4.432976 6.670652 0.467738
4.432976 6.670652 39.284138
3.289192 4.630828 0.494909
3.289192 4.630828 39.311309
3.179640 3.745324 0.824849
3.179640 3.745324 39.641249
4.303860 5.403386 0.939357
4.303860 5.403386 39.755757
4.922051 5.064545 1.574005
4.922051 5.064545 40.390405
8.254282 8.997361 1.364396
8.254282 8.997361 40.180796
6.287548 10.217189 2.387209
6.287548 10.217189 41.203609
9.450233 8.773726 0.642411
9.450233 8.773726 39.458811
9.724115 7.960507 0.236780
9.724115 7.960507 39.053180
6.376234 7.280566 3.706966
6.376234 7.280566 42.523366
9.061582 7.341557 3.780717
9.061582 7.341557 42.597117
5.099422 7.269271 4.141710
5.099422 7.269271 42.958110
4.328640 7.262494 3.588576
4.328640 7.262494 42.404976
7.873455 5.848397 1.172255
7.873455 5.848397 39.988655
7.969966 5.405645 19.293692
7.933449 5.315287 16.966648
7.767815 5.715120 16.120451
7.433940 6.022336 18.148608
6.849658 6.772304 18.144726
16.077917 2.330323 1.858917
16.077917 2.330323 40.675317
3.035917 24.919730 1.858917
3.035917 24.919730 40.675317
16.761578 0.709307 0.954883
16.761578 0.709307 39.771283
3.719578 23.298714 0.954883
3.719578 23.298714 39.771283
18.090558 0.503744 0.467738
18.090558 0.503744 39.284138
5.048558 23.093150 0.467738
5.048558 23.093150 39.284138
20.428989 0.533110 0.494909
20.428989 0.533110 39.311309
7.386989 23.122517 0.494909
7.386989 23.122517 39.311309
21.250635 0.880987 0.824849
21.250635 0.880987 39.641249
8.208635 23.470393 0.824849
8.208635 23.470393 39.641249
19.252600 1.025559 0.939357
19.252600 1.025559 39.755757
6.210600 23.614966 0.939357
6.210600 23.614966 39.755757
19.236950 1.730349 1.574005
19.236950 1.730349 40.390405
6.194950 24.319755 1.574005
6.194950 24.319755 40.390405
14.164916 2.649737 1.364396
14.164916 2.649737 40.180796
1.122916 25.239144 1.364396
1.122916 25.239144 40.180796
14.091881 0.336582 2.387209
14.091881 0.336582 41.203609
1.049881 22.925989 2.387209
1.049881 22.925989 41.203609
13.760614 3.797279 0.642411
13.760614 3.797279 39.458811
14.327941 4.441077 0.236780
14.327941 4.441077 39.053180
16.590728 1.881698 3.706966
16.590728 1.881698 42.523366
3.548728 24.471104 3.706966
3.548728 24.471104 42.523366
15.195234 4.176781 3.780717
15.195234 4.176781 42.597117
17.238916 0.781593 4.141710
17.238916 0.781593 42.958110
4.196916 23.371000 4.141710
4.196916 23.371000 42.958110
17.630176 0.117465 3.588576
17.630176 0.117465 42.404976
4.588176 22.706872 3.588576
4.588176 22.706872 42.404976
17.082412 3.894414 1.172255
17.082412 3.894414 39.988655
17.417591 4.199371 19.293692
17.514102 4.212924 16.966648
17.250653 3.869565 16.120451
17.151534 3.426813 18.148608
16.794183 2.545826 18.144726
3.752183 25.135233 18.144726
-10.057077 12.758723 1.858917
-10.057077 12.758723 40.675317
16.026923 12.758723 1.858917
16.026923 12.758723 40.675317
-8.995067 14.161299 0.954883
-8.995067 14.161299 39.771283
17.088933 14.161299 0.954883
17.088933 14.161299 39.771283
-9.481534 15.415011 0.467738
-9.481534 15.415011 39.284138
16.602466 15.415011 0.467738
16.602466 15.415011 39.284138
-10.676181 17.425468 0.494909
-10.676181 17.425468 39.311309
15.407819 17.425468 0.494909
15.407819 17.425468 39.311309
-11.388274 17.963096 0.824849
-11.388274 17.963096 39.641249
14.695726 17.963096 0.824849
14.695726 17.963096 39.641249
-10.514460 16.160462 0.939357
-10.514460 16.160462 39.755757
15.569540 16.160462 0.939357
15.569540 16.160462 39.755757
-11.117001 15.794513 1.574005
-11.117001 15.794513 40.390405
14.966999 15.794513 1.574005
14.966999 15.794513 40.390405
-9.377198 10.942309 1.364396
-9.377198 10.942309 40.180796
16.706802 10.942309 1.364396
16.706802 10.942309 40.180796
-7.337429 12.035636 2.387209
-7.337429 12.035636 41.203609
18.746571 12.035636 2.387209
18.746571 12.035636 41.203609
15.915153 10.018402 0.642411
15.915153 10.018402 39.458811
15.073944 10.187822 0.236780
15.073944 10.187822 39.053180
-9.924962 13.427143 3.706966
-9.924962 13.427143 42.523366
16.159038 13.427143 3.706966
16.159038 13.427143 42.523366
14.869184 11.071068 3.780717
14.869184 11.071068 42.597117
-9.296338 14.538542 4.141710
-9.296338 14.538542 42.958110
16.787662 14.538542 4.141710
16.787662 14.538542 42.958110
-8.916815 15.209447 3.588576
-8.916815 15.209447 42.404976
17.167185 15.209447 3.588576
17.167185 15.209447 42.404976
14.170133 12.846596 1.172255
14.170133 12.846596 39.988655
13.738443 12.984391 19.293692
13.678450 13.061195 16.966648
14.107531 13.004721 16.120451
14.540526 13.140258 18.148608
-10.601842 13.271276 18.144726
15.482158 13.271276 18.144726
10.057077 12.758723 7.845183
8.995067 14.161299 8.749217
9.481534 15.415011 9.236362
10.676181 17.425468 9.209191
10.514460 16.160462 8.764743
11.117001 15.794513 8.130095
-14.231430 18.559456 8.850139
11.852570 18.559456 8.850139
9.377198 10.942309 8.339704
7.337429 12.035636 7.316891
10.168847 10.018402 9.061689
11.010056 10.187822 9.467320
9.924962 13.427143 5.997134
11.214816 11.071068 5.923383
9.296338 14.538542 5.562390
9.296338 14.538542 44.378790
8.916815 15.209447 6.115524
11.913867 12.846596 8.531845
12.345557 12.984391 9.818608
12.405550 13.061195 12.145652
11.976469 13.004721 12.991849
11.543474 13.140258 10.963692
10.601842 13.271276 10.967574
-7.021161 7.500361 7.845183
19.062839 7.500361 7.845183
-5.275489 7.718800 8.749217
20.808511 7.718800 8.749217
-4.432976 6.670652 9.236362
21.651024 6.670652 9.236362
-3.289192 4.630828 9.209191
22.794808 4.630828 9.209191
-4.303860 5.403386 8.764743
21.780140 5.403386 8.764743
-4.922051 5.064545 8.130095
21.161949 5.064545 8.130095
-2.895324 3.045052 8.850139
-15.937324 25.634459 8.850139
23.188676 3.045052 8.850139
10.146676 25.634459 8.850139
-8.254282 8.997361 8.339704
17.829718 8.997361 8.339704
-6.287548 10.217189 7.316891
19.796452 10.217189 7.316891
16.633767 8.773726 9.061689
16.359885 7.960507 9.467320
-6.376234 7.280566 5.997134
19.707766 7.280566 5.997134
17.022418 7.341557 5.923383
-5.099422 7.269271 5.562390
-5.099422 7.269271 44.378790
20.984578 7.269271 5.562390
20.984578 7.269271 44.378790
-4.328640 7.262494 6.115524
21.755360 7.262494 6.115524
18.210545 5.848397 8.531845
18.114034 5.405645 9.818608
18.150551 5.315287 12.145652
18.316185 5.715120 12.991849
18.650060 6.022336 10.963692
-6.849658 6.772304 10.967574
19.234342 6.772304 10.967574
10.006083 2.330323 7.845183
-3.035917 24.919730 7.845183
9.322422 0.709307 8.749217
-3.719578 23.298714 8.749217
7.993442 0.503744 9.236362
-5.048558 23.093150 9.236362
5.655011 0.533110 9.209191
-7.386989 23.122517 9.209191
6.831400 1.025559 8.764743
-6.210600 23.614966 8.764743
6.847050 1.730349 8.130095
-6.194950 24.319755 8.130095
4.084754 0.984898 8.850139
-8.957246 23.574305 8.850139
11.919084 2.649737 8.339704
-1.122916 25.239144 8.339704
11.992119 0.336582 7.316891
-1.049881 22.925989 7.316891
12.323386 3.797279 9.061689
11.756059 4.441077 9.467320
9.493272 1.881698 5.997134
-3.548728 24.471104 5.997134
10.888766 4.176781 5.923383
8.845084 0.781593 5.562390
8.845084 0.781593 44.378790
-4.196916 23.371000 5.562390
-4.196916 23.371000 44.378790
8.453824 0.117465 6.115524
-4.588176 22.706872 6.115524
9.001588 3.894414 8.531845
8.666409 4.199371 9.818608
8.569898 4.212924 12.145652
8.833347 3.869565 12.991849
8.932466 3.426813 10.963692
9.289817 2.545826 10.967574
-3.752183 25.135233 10.967574
2.984923 9.830684 17.549283
4.046933 8.428108 18.453317
3.560466 7.174396 18.940462
2.365819 5.163938 18.913291
2.527540 6.428945 18.468843
1.924999 6.794894 17.834195
1.189430 4.029950 18.554239
27.273430 4.029950 18.554239
3.664802 11.647098 18.043804
5.704571 10.553771 17.020991
2.873153 12.571005 18.765789
2.031944 12.401584 19.171420
3.117038 9.162263 15.701234
1.827184 11.518338 15.627483
3.745662 8.050865 15.266490
4.125185 7.379959 15.819624
1.128133 9.742811 18.235945
0.696443 9.605016 0.114508
0.696443 9.605016 38.930908
0.636450 9.528212 2.441552
0.636450 9.528212 41.257952
1.498526 9.449149 1.259592
1.498526 9.449149 40.075992
2.440158 9.318130 1.263474
2.440158 9.318130 40.079874
1.996730 9.160004 3.835060
1.996730 9.160004 42.651460
-6.020839 15.089046 17.549283
20.063161 15.089046 17.549283
-7.766511 14.870606 18.453317
18.317489 14.870606 18.453317
-8.609024 15.918755 18.940462
17.474976 15.918755 18.940462
-9.752808 17.958578 18.913291
16.331192 17.958578 18.913291
-8.738140 17.186021 18.468843
17.345860 17.186021 18.468843
-8.119949 17.524862 17.834195
17.964051 17.524862 17.834195
2.895324 -3.045052 18.554239
-10.146676 19.544355 18.554239
28.979324 -3.045052 18.554239
15.937324 19.544355 18.554239
-4.787718 13.592046 18.043804
21.296282 13.592046 18.043804
-6.754452 12.372218 17.020991
19.329548 12.372218 17.020991
-3.591767 13.815681 18.765789
-3.317885 14.628900 19.171420
-6.665766 15.308841 15.701234
19.418234 15.308841 15.701234
-3.980418 15.247849 15.627483
-7.942578 15.320136 15.266490
18.141422 15.320136 15.266490
-8.713360 15.326912 15.819624
17.370640 15.326912 15.819624
-5.168545 16.741009 18.235945
-5.072034 17.183762 0.114508
-5.072034 17.183762 38.930908
-5.108551 17.274119 2.441552
-5.108551 17.274119 41.257952
-5.608060 16.567071 1.259592
-5.608060 16.567071 40.075992
-6.192342 15.817103 1.263474
-6.192342 15.817103 40.079874
19.891658 15.817103 1.263474
19.891658 15.817103 40.079874
-6.107569 16.280185 3.835060
-6.107569 16.280185 42.651460
19.976431 16.280185 3.835060
19.976431 16.280185 42.651460
16.077917 -2.330323 17.549283
3.035917 20.259083 17.549283
16.761578 -0.709307 18.453317
3.719578 21.880099 18.453317
18.090558 -0.503744 18.940462
5.048558 22.085663 18.940462
20.428989 -0.533110 18.913291
7.386989 22.056297 18.913291
19.252600 -1.025559 18.468843
6.210600 21.563848 18.468843
19.236950 -1.730349 17.834195
6.194950 20.859058 17.834195
21.999246 -0.984898 18.554239
8.957246 21.604509 18.554239
14.164916 -2.649737 18.043804
1.122916 19.939669 18.043804
14.091881 -0.336582 17.020991
1.049881 22.252824 17.020991
0.718614 18.792127 18.765789
1.285941 18.148329 19.171420
16.590728 -1.881698 15.701234
3.548728 20.707709 15.701234
2.153234 18.412625 15.627483
17.238916 -0.781593 15.266490
4.196916 21.807813 15.266490
17.630176 -0.117465 15.819624
4.588176 22.471942 15.819624
4.040412 18.694993 18.235945
4.375591 18.390036 0.114508
4.375591 18.390036 38.930908
4.472102 18.376482 2.441552
4.472102 18.376482 41.257952
4.109534 19.162594 1.259592
4.109534 19.162594 40.075992
16.794183 -2.545826 1.263474
16.794183 -2.545826 40.079874
3.752183 20.043581 1.263474
3.752183 20.043581 40.079874
17.152838 -2.850783 3.835060
17.152838 -2.850783 42.651460
4.110838 19.738624 3.835060
4.110838 19.738624 42.651460
5.001607 8.663037 9.704100
5.476336 9.485292 9.704100
16.080786 0.000000 9.704100
3.038786 22.589407 9.704100
15.131328 0.000000 9.704100
2.089328 22.589407 9.704100
-8.040393 13.926369 9.704100
18.043607 13.926369 9.704100
-7.565664 13.104115 9.704100
18.518336 13.104115 9.704100
8.040393 13.926369 0.000000
8.040393 13.926369 38.816400
7.565664 13.104115 0.000000
7.565664 13.104115 38.816400
10.003214 0.000000 0.000000
10.003214 0.000000 38.816400
-3.038786 22.589407 0.000000
-3.038786 22.589407 38.816400
10.952672 0.000000 0.000000
10.952672 0.000000 38.816400
-2.089328 22.589407 0.000000
-2.089328 22.589407 38.816400
-5.001607 8.663037 0.000000
-5.001607 8.663037 38.816400
21.082393 8.663037 0.000000
21.082393 8.663037 38.816400
-5.476336 9.485292 0.000000
-5.476336 9.485292 38.816400
20.607664 9.485292 0.000000
20.607664 9.485292 38.816400
8.040393 13.926369 9.704100
7.565664 13.104115 9.704100
10.003214 0.000000 9.704100
-3.038786 22.589407 9.704100
10.952672 0.000000 9.704100
-2.089328 22.589407 9.704100
-5.001607 8.663037 9.704100
21.082393 8.663037 9.704100
-5.476336 9.485292 9.704100
20.607664 9.485292 9.704100
5.001607 8.663037 0.000000
5.001607 8.663037 38.816400
5.476336 9.485292 0.000000
5.476336 9.485292 38.816400
16.080786 0.000000 0.000000
16.080786 0.000000 38.816400
3.038786 22.589407 0.000000
3.038786 22.589407 38.816400
15.131328 0.000000 0.000000
15.131328 0.000000 38.816400
2.089328 22.589407 0.000000
2.089328 22.589407 38.816400
-8.040393 13.926369 0.000000
-8.040393 13.926369 38.816400
18.043607 13.926369 0.000000
18.043607 13.926369 38.816400
-7.565664 13.104115 0.000000
-7.565664 13.104115 38.816400
18.518336 13.104115 0.000000
18.518336 13.104115 38.816400
8.399048 10.210412 7.932131
7.272219 10.860987 7.394524
13.042000 2.168583 7.932131
0.000000 24.757990 7.932131
13.042000 0.867433 7.394524
0.000000 23.456840 7.394524
-8.399048 10.210412 7.932131
17.684952 10.210412 7.932131
-7.272219 10.860987 7.394524
18.811781 10.860987 7.394524
4.642952 12.378995 17.636231
5.769781 11.728420 17.098624
13.042000 -2.168583 17.636231
0.000000 20.420824 17.636231
13.042000 -0.867433 17.098624
0.000000 21.721973 17.098624
-4.642952 12.378995 17.636231
21.441048 12.378995 17.636231
-5.769781 11.728420 17.098624
20.314219 11.728420 17.098624
4.642952 12.378995 11.476069
5.769781 11.728420 12.013676
-4.642952 12.378995 11.476069
21.441048 12.378995 11.476069
-5.769781 11.728420 12.013676
20.314219 11.728420 12.013676
13.042000 -2.168583 11.476069
0.000000 20.420824 11.476069
13.042000 -0.867433 12.013676
0.000000 21.721973 12.013676
8.399048 10.210412 1.771969
8.399048 10.210412 40.588369
7.272219 10.860987 2.309576
7.272219 10.860987 41.125976
-8.399048 10.210412 1.771969
-8.399048 10.210412 40.588369
17.684952 10.210412 1.771969
17.684952 10.210412 40.588369
-7.272219 10.860987 2.309576
-7.272219 10.860987 41.125976
18.811781 10.860987 2.309576
18.811781 10.860987 41.125976
13.042000 2.168583 1.771969
13.042000 2.168583 40.588369
0.000000 24.757990 1.771969
0.000000 24.757990 40.588369
13.042000 0.867433 2.309576
13.042000 0.867433 41.125976
0.000000 23.456840 2.309576
0.000000 23.456840 41.125976
7.062243 7.280566 4.852050
7.062243 7.280566 43.668450
8.504688 7.334780 4.852050
8.504688 7.334780 43.668450
16.247724 2.475799 4.852050
16.247724 2.475799 43.668450
3.205724 25.065206 4.852050
3.205724 25.065206 43.668450
15.479550 3.697886 4.852050
15.479550 3.697886 43.668450
-10.267967 12.833042 4.852050
-10.267967 12.833042 43.668450
15.816033 12.833042 4.852050
15.816033 12.833042 43.668450
15.141762 11.556740 4.852050
15.141762 11.556740 43.668450
5.979757 15.308841 14.556150
4.537312 15.254626 14.556150
9.836276 -2.475799 14.556150
-3.205724 20.113608 14.556150
-2.437550 18.891521 14.556150
-2.774033 9.756365 14.556150
23.309967 9.756365 14.556150
-2.099762 11.032666 14.556150
2.774033 9.756365 14.556150
2.099762 11.032666 14.556150
-5.979757 15.308841 14.556150
20.104243 15.308841 14.556150
-4.537312 15.254626 14.556150
16.247724 -2.475799 14.556150
3.205724 20.113608 14.556150
2.437550 18.891521 14.556150
10.267967 12.833042 4.852050
10.267967 12.833042 43.668450
10.942238 11.556740 4.852050
10.942238 11.556740 43.668450
-7.062243 7.280566 4.852050
-7.062243 7.280566 43.668450
19.021757 7.280566 4.852050
19.021757 7.280566 43.668450
17.579312 7.334780 4.852050
17.579312 7.334780 43.668450
9.836276 2.475799 4.852050
9.836276 2.475799 43.668450
-3.205724 25.065206 4.852050
-3.205724 25.065206 43.668450
10.604450 3.697886 4.852050
10.604450 3.697886 43.668450
8.527512 4.923361 7.848676
8.648802 4.993388 6.909319
17.556488 4.923361 7.848676
17.435198 4.993388 6.909319
13.042000 12.742684 7.848676
13.042000 12.602630 6.909319
4.514488 17.666045 17.552776
4.393198 17.596018 16.613419
-4.514488 17.666045 17.552776
-4.393198 17.596018 16.613419
0.000000 9.846722 17.552776
0.000000 9.986777 16.613419
0.000000 9.846722 11.559524
0.000000 9.986777 12.498881
-4.514488 17.666045 11.559524
-4.393198 17.596018 12.498881
4.514488 17.666045 11.559524
4.393198 17.596018 12.498881
13.042000 12.742684 1.855424
13.042000 12.742684 40.671824
13.042000 12.602630 2.794781
13.042000 12.602630 41.611181
17.556488 4.923361 1.855424
17.556488 4.923361 40.671824
17.435198 4.993388 2.794781
17.435198 4.993388 41.611181
8.527512 4.923361 1.855424
8.527512 4.923361 40.671824
8.648802 4.993388 2.794781
8.648802 4.993388 41.611181
7.021161 7.500361 27.253383
5.275489 7.718800 28.157417
4.432976 6.670652 28.644562
3.289192 4.630828 28.617391
3.179640 3.745324 28.287452
4.303860 5.403386 28.172943
4.922051 5.064545 27.538295
8.254282 8.997361 27.747904
6.287548 10.217189 26.725091
9.450233 8.773726 28.469889
9.724115 7.960507 28.875520
6.376234 7.280566 25.405334
9.061582 7.341557 25.331583
5.099422 7.269271 24.970590
4.328640 7.262494 25.523724
7.873455 5.848397 27.940045
7.969966 5.405645 29.226808
7.933449 5.315287 31.553852
7.433940 6.022336 30.371892
6.849658 6.772304 30.375774
6.934431 6.309221 32.947360
16.077917 2.330323 27.253383
3.035917 24.919730 27.253383
16.761578 0.709307 28.157417
3.719578 23.298714 28.157417
18.090558 0.503744 28.644562
5.048558 23.093150 28.644562
20.428989 0.533110 28.617391
7.386989 23.122517 28.617391
21.250635 0.880987 28.287452
8.208635 23.470393 28.287452
19.252600 1.025559 28.172943
6.210600 23.614966 28.172943
19.236950 1.730349 27.538295
6.194950 24.319755 27.538295
14.164916 2.649737 27.747904
1.122916 25.239144 27.747904
14.091881 0.336582 26.725091
1.049881 22.925989 26.725091
13.760614 3.797279 28.469889
14.327941 4.441077 28.875520
16.590728 1.881698 25.405334
3.548728 24.471104 25.405334
15.195234 4.176781 25.331583
17.238916 0.781593 24.970590
4.196916 23.371000 24.970590
17.630176 0.117465 25.523724
4.588176 22.706872 25.523724
17.082412 3.894414 27.940045
17.417591 4.199371 29.226808
17.514102 4.212924 31.553852
17.151534 3.426813 30.371892
16.794183 2.545826 30.375774
3.752183 25.135233 30.375774
17.152838 2.850783 32.947360
4.110838 25.440190 32.947360
-10.057077 12.758723 27.253383
16.026923 12.758723 27.253383
-8.995067 14.161299 28.157417
17.088933 14.161299 28.157417
-9.481534 15.415011 28.644562
16.602466 15.415011 28.644562
-10.676181 17.425468 28.617391
15.407819 17.425468 28.617391
-11.388274 17.963096 28.287452
14.695726 17.963096 28.287452
-10.514460 16.160462 28.172943
15.569540 16.160462 28.172943
-11.117001 15.794513 27.538295
14.966999 15.794513 27.538295
-9.377198 10.942309 27.747904
16.706802 10.942309 27.747904
-7.337429 12.035636 26.725091
18.746571 12.035636 26.725091
15.915153 10.018402 28.469889
15.073944 10.187822 28.875520
-9.924962 13.427143 25.405334
16.159038 13.427143 25.405334
14.869184 11.071068 25.331583
-9.296338 14.538542 24.970590
16.787662 14.538542 24.970590
-8.916815 15.209447 25.523724
17.167185 15.209447 25.523724
14.170133 12.846596 27.940045
13.738443 12.984391 29.226808
13.678450 13.061195 31.553852
14.540526 13.140258 30.371892
-10.601842 13.271276 30.375774
15.482158 13.271276 30.375774
-11.045270 13.429402 32.947360
15.038730 13.429402 32.947360
6.020839 15.089046 -1.858917
6.020839 15.089046 36.957483
7.766511 14.870606 -0.954883
7.766511 14.870606 37.861517
8.609024 15.918755 -0.467738
8.609024 15.918755 38.348662
9.752808 17.958578 -0.494909
9.752808 17.958578 38.321491
9.862360 18.844083 -0.824849
9.862360 18.844083 37.991551
8.738140 17.186021 -0.939357
8.738140 17.186021 37.877043
8.119949 17.524862 -1.574005
8.119949 17.524862 37.242395
4.787718 13.592046 -1.364396
4.787718 13.592046 37.452004
6.754452 12.372218 -2.387209
6.754452 12.372218 36.429191
3.591767 13.815681 -0.642411
3.591767 13.815681 38.173989
3.317885 14.628900 -0.236780
3.317885 14.628900 38.579620
6.665766 15.308841 -3.706966
6.665766 15.308841 35.109434
3.980418 15.247849 -3.780717
3.980418 15.247849 35.035683
7.942578 15.320136 -4.141710
7.942578 15.320136 34.674690
8.713360 15.326912 -3.588576
8.713360 15.326912 35.227824
5.168545 16.741009 -1.172255
5.168545 16.741009 37.644145
5.072034 17.183762 19.522708
5.108551 17.274119 21.849752
5.274185 16.874287 22.695949
5.608060 16.567071 20.667792
6.192342 15.817103 20.671674
10.006083 -2.330323 -1.858917
10.006083 -2.330323 36.957483
-3.035917 20.259083 -1.858917
-3.035917 20.259083 36.957483
9.322422 -0.709307 -0.954883
9.322422 -0.709307 37.861517
-3.719578 21.880099 -0.954883
-3.719578 21.880099 37.861517
7.993442 -0.503744 -0.467738
7.993442 -0.503744 38.348662
-5.048558 22.085663 -0.467738
-5.048558 22.085663 38.348662
5.655011 -0.533110 -0.494909
5.655011 -0.533110 38.321491
-7.386989 22.056297 -0.494909
-7.386989 22.056297 38.321491
4.833365 -0.880987 -0.824849
4.833365 -0.880987 37.991551
-8.208635 21.708420 -0.824849
-8.208635 21.708420 37.991551
6.831400 -1.025559 -0.939357
6.831400 -1.025559 37.877043
-6.210600 21.563848 -0.939357
-6.210600 21.563848 37.877043
6.847050 -1.730349 -1.574005
6.847050 -1.730349 37.242395
-6.194950 20.859058 -1.574005
-6.194950 20.859058 37.242395
11.919084 -2.649737 -1.364396
11.919084 -2.649737 37.452004
-1.122916 19.939669 -1.364396
-1.122916 19.939669 37.452004
11.992119 -0.336582 -2.387209
11.992119 -0.336582 36.429191
-1.049881 22.252824 -2.387209
-1.049881 22.252824 36.429191
-0.718614 18.792127 -0.642411
-0.718614 18.792127 38.173989
-1.285941 18.148329 -0.236780
-1.285941 18.148329 38.579620
9.493272 -1.881698 -3.706966
9.493272 -1.881698 35.109434
-3.548728 20.707709 -3.706966
-3.548728 20.707709 35.109434
-2.153234 18.412625 -3.780717
-2.153234 18.412625 35.035683
8.845084 -0.781593 -4.141710
8.845084 -0.781593 34.674690
-4.196916 21.807813 -4.141710
-4.196916 21.807813 34.674690
8.453824 -0.117465 -3.588576
8.453824 -0.117465 35.227824
-4.588176 22.471942 -3.588576
-4.588176 22.471942 35.227824
-4.040412 18.694993 -1.172255
-4.040412 18.694993 37.644145
-4.375591 18.390036 19.522708
-4.472102 18.376482 21.849752
-4.208653 18.719841 22.695949
-4.109534 19.162594 20.667792
9.289817 -2.545826 20.671674
-3.752183 20.043581 20.671674
-2.984923 9.830684 -1.858917
-2.984923 9.830684 36.957483
23.099077 9.830684 -1.858917
23.099077 9.830684 36.957483
-4.046933 8.428108 -0.954883
-4.046933 8.428108 37.861517
22.037067 8.428108 -0.954883
22.037067 8.428108 37.861517
-3.560466 7.174396 -0.467738
-3.560466 7.174396 38.348662
22.523534 7.174396 -0.467738
22.523534 7.174396 38.348662
-2.365819 5.163938 -0.494909
-2.365819 5.163938 38.321491
23.718181 5.163938 -0.494909
23.718181 5.163938 38.321491
-1.653726 4.626310 -0.824849
-1.653726 4.626310 37.991551
24.430274 4.626310 -0.824849
24.430274 4.626310 37.991551
-2.527540 6.428945 -0.939357
-2.527540 6.428945 37.877043
23.556460 6.428945 -0.939357
23.556460 6.428945 37.877043
-1.924999 6.794894 -1.574005
-1.924999 6.794894 37.242395
24.159001 6.794894 -1.574005
24.159001 6.794894 37.242395
-3.664802 11.647098 -1.364396
-3.664802 11.647098 37.452004
22.419198 11.647098 -1.364396
22.419198 11.647098 37.452004
-5.704571 10.553771 -2.387209
-5.704571 10.553771 36.429191
20.379429 10.553771 -2.387209
20.379429 10.553771 36.429191
-2.873153 12.571005 -0.642411
-2.873153 12.571005 38.173989
-2.031944 12.401584 -0.236780
-2.031944 12.401584 38.579620
-3.117038 9.162263 -3.706966
-3.117038 9.162263 35.109434
22.966962 9.162263 -3.706966
22.966962 9.162263 35.109434
-1.827184 11.518338 -3.780717
-1.827184 11.518338 35.035683
-3.745662 8.050865 -4.141710
-3.745662 8.050865 34.674690
22.338338 8.050865 -4.141710
22.338338 8.050865 34.674690
-4.125185 7.379959 -3.588576
-4.125185 7.379959 35.227824
21.958815 7.379959 -3.588576
21.958815 7.379959 35.227824
-1.128133 9.742811 -1.172255
-1.128133 9.742811 37.644145
-0.696443 9.605016 19.522708
-0.636450 9.528212 21.849752
-1.065531 9.584685 22.695949
-1.498526 9.449149 20.667792
-2.440158 9.318130 20.671674
23.643842 9.318130 20.671674
2.984923 9.830684 30.971217
4.046933 8.428108 30.067183
3.560466 7.174396 29.580038
2.365819 5.163938 29.607209
2.527540 6.428945 30.051657
1.924999 6.794894 30.686305
1.189430 4.029950 29.966261
27.273430 4.029950 29.966261
3.664802 11.647098 30.476696
5.704571 10.553771 31.499509
2.873153 12.571005 29.754711
2.031944 12.401584 29.349080
3.117038 9.162263 32.819266
1.827184 11.518338 32.893017
3.745662 8.050865 -5.562390
3.745662 8.050865 33.254010
4.125185 7.379959 32.700876
1.128133 9.742811 30.284555
0.696443 9.605016 28.997792
0.636450 9.528212 26.670748
1.065531 9.584685 25.824551
1.498526 9.449149 27.852708
2.440158 9.318130 27.848826
-6.020839 15.089046 30.971217
20.063161 15.089046 30.971217
-7.766511 14.870606 30.067183
18.317489 14.870606 30.067183
-8.609024 15.918755 29.580038
17.474976 15.918755 29.580038
-9.752808 17.958578 29.607209
16.331192 17.958578 29.607209
-8.738140 17.186021 30.051657
17.345860 17.186021 30.051657
-8.119949 17.524862 30.686305
17.964051 17.524862 30.686305
2.895324 -3.045052 29.966261
-10.146676 19.544355 29.966261
28.979324 -3.045052 29.966261
15.937324 19.544355 29.966261
-4.787718 13.592046 30.476696
21.296282 13.592046 30.476696
-6.754452 12.372218 31.499509
19.329548 12.372218 31.499509
-3.591767 13.815681 29.754711
-3.317885 14.628900 29.349080
-6.665766 15.308841 32.819266
19.418234 15.308841 32.819266
-3.980418 15.247849 32.893017
-7.942578 15.320136 -5.562390
-7.942578 15.320136 33.254010
18.141422 15.320136 -5.562390
18.141422 15.320136 33.254010
-8.713360 15.326912 32.700876
17.370640 15.326912 32.700876
-5.168545 16.741009 30.284555
-5.072034 17.183762 28.997792
-5.108551 17.274119 26.670748
-5.274185 16.874287 25.824551
-5.608060 16.567071 27.852708
-6.192342 15.817103 27.848826
19.891658 15.817103 27.848826
16.077917 -2.330323 30.971217
3.035917 20.259083 30.971217
16.761578 -0.709307 30.067183
3.719578 21.880099 30.067183
18.090558 -0.503744 29.580038
5.048558 22.085663 29.580038
20.428989 -0.533110 29.607209
7.386989 22.056297 29.607209
19.252600 -1.025559 30.051657
6.210600 21.563848 30.051657
19.236950 -1.730349 30.686305
6.194950 20.859058 30.686305
21.999246 -0.984898 29.966261
8.957246 21.604509 29.966261
14.164916 -2.649737 30.476696
1.122916 19.939669 30.476696
14.091881 -0.336582 31.499509
1.049881 22.252824 31.499509
0.718614 18.792127 29.754711
1.285941 18.148329 29.349080
16.590728 -1.881698 32.819266
3.548728 20.707709 32.819266
2.153234 18.412625 32.893017
17.238916 -0.781593 -5.562390
17.238916 -0.781593 33.254010
4.196916 21.807813 -5.562390
4.196916 21.807813 33.254010
17.630176 -0.117465 32.700876
4.588176 22.471942 32.700876
4.040412 18.694993 30.284555
4.375591 18.390036 28.997792
4.472102 18.376482 26.670748
4.208653 18.719841 25.824551
4.109534 19.162594 27.852708
16.794183 -2.545826 27.848826
3.752183 20.043581 27.848826
10.057077 12.758723 21.267117
8.995067 14.161299 20.363083
9.481534 15.415011 19.875938
10.676181 17.425468 19.903109
10.514460 16.160462 20.347557
11.117001 15.794513 20.982205
-14.231430 18.559456 20.262161
11.852570 18.559456 20.262161
9.377198 10.942309 20.772596
7.337429 12.035636 21.795409
10.168847 10.018402 20.050611
11.010056 10.187822 19.644980
9.924962 13.427143 23.115166
11.214816 11.071068 23.188917
9.296338 14.538542 23.549910
8.916815 15.209447 22.996776
11.913867 12.846596 20.580455
12.345557 12.984391 -0.114508
12.345557 12.984391 38.701892
12.405550 13.061195 -2.441552
12.405550 13.061195 36.374848
11.543474 13.140258 -1.259592
11.543474 13.140258 37.556808
10.601842 13.271276 -1.263474
10.601842 13.271276 37.552926
11.045270 13.429402 -3.835060
11.045270 13.429402 34.981340
-7.021161 7.500361 21.267117
19.062839 7.500361 21.267117
-5.275489 7.718800 20.363083
20.808511 7.718800 20.363083
-4.432976 6.670652 19.875938
21.651024 6.670652 19.875938
-3.289192 4.630828 19.903109
22.794808 4.630828 19.903109
-4.303860 5.403386 20.347557
21.780140 5.403386 20.347557
-4.922051 5.064545 20.982205
21.161949 5.064545 20.982205
-2.895324 3.045052 20.262161
-15.937324 25.634459 20.262161
23.188676 3.045052 20.262161
10.146676 25.634459 20.262161
-8.254282 8.997361 20.772596
17.829718 8.997361 20.772596
-6.287548 10.217189 21.795409
19.796452 10.217189 21.795409
16.633767 8.773726 20.050611
16.359885 7.960507 19.644980
-6.376234 7.280566 23.115166
19.707766 7.280566 23.115166
17.022418 7.341557 23.188917
-5.099422 7.269271 23.549910
20.984578 7.269271 23.549910
-4.328640 7.262494 22.996776
21.755360 7.262494 22.996776
18.210545 5.848397 20.580455
18.114034 5.405645 -0.114508
18.114034 5.405645 38.701892
18.150551 5.315287 -2.441552
18.150551 5.315287 36.374848
18.650060 6.022336 -1.259592
18.650060 6.022336 37.556808
-6.849658 6.772304 -1.263474
-6.849658 6.772304 37.552926
19.234342 6.772304 -1.263474
19.234342 6.772304 37.552926
-6.934431 6.309221 -3.835060
-6.934431 6.309221 34.981340
19.149569 6.309221 -3.835060
19.149569 6.309221 34.981340
10.006083 2.330323 21.267117
-3.035917 24.919730 21.267117
9.322422 0.709307 20.363083
-3.719578 23.298714 20.363083
7.993442 0.503744 19.875938
-5.048558 23.093150 19.875938
5.655011 0.533110 19.903109
-7.386989 23.122517 19.903109
6.831400 1.025559 20.347557
-6.210600 23.614966 20.347557
6.847050 1.730349 20.982205
-6.194950 24.319755 20.982205
4.084754 0.984898 20.262161
-8.957246 23.574305 20.262161
11.919084 2.649737 20.772596
-1.122916 25.239144 20.772596
11.992119 0.336582 21.795409
-1.049881 22.925989 21.795409
12.323386 3.797279 20.050611
11.756059 4.441077 19.644980
9.493272 1.881698 23.115166
-3.548728 24.471104 23.115166
10.888766 4.176781 23.188917
8.845084 0.781593 23.549910
-4.196916 23.371000 23.549910
8.453824 0.117465 22.996776
-4.588176 22.706872 22.996776
9.001588 3.894414 20.580455
8.666409 4.199371 -0.114508
8.666409 4.199371 38.701892
8.569898 4.212924 -2.441552
8.569898 4.212924 36.374848
8.932466 3.426813 -1.259592
8.932466 3.426813 37.556808
9.289817 2.545826 -1.263474
9.289817 2.545826 37.552926
-3.752183 25.135233 -1.263474
-3.752183 25.135233 37.552926
8.931162 2.850783 -3.835060
8.931162 2.850783 34.981340
-4.110838 25.440190 -3.835060
-4.110838 25.440190 34.981340
6.020839 15.089046 30.971217
7.766511 14.870606 30.067183
8.609024 15.918755 29.580038
9.752808 17.958578 29.607209
9.862360 18.844083 29.937148
8.738140 17.186021 30.051657
8.119949 17.524862 30.686305
4.787718 13.592046 30.476696
6.754452 12.372218 31.499509
3.591767 13.815681 29.754711
3.317885 14.628900 29.349080
6.665766 15.308841 32.819266
3.980418 15.247849 32.893017
7.942578 15.320136 -5.562390
7.942578 15.320136 33.254010
8.713360 15.326912 32.700876
5.168545 16.741009 30.284555
5.072034 17.183762 28.997792
5.108551 17.274119 26.670748
5.608060 16.567071 27.852708
6.192342 15.817103 27.848826
6.107569 16.280185 25.277240
10.006083 -2.330323 30.971217
-3.035917 20.259083 30.971217
9.322422 -0.709307 30.067183
-3.719578 21.880099 30.067183
7.993442 -0.503744 29.580038
-5.048558 22.085663 29.580038
5.655011 -0.533110 29.607209
-7.386989 22.056297 29.607209
4.833365 -0.880987 29.937148
-8.208635 21.708420 29.937148
6.831400 -1.025559 30.051657
-6.210600 21.563848 30.051657
6.847050 -1.730349 30.686305
-6.194950 20.859058 30.686305
11.919084 -2.649737 30.476696
-1.122916 19.939669 30.476696
11.992119 -0.336582 31.499509
-1.049881 22.252824 31.499509
-0.718614 18.792127 29.754711
-1.285941 18.148329 29.349080
9.493272 -1.881698 32.819266
-3.548728 20.707709 32.819266
-2.153234 18.412625 32.893017
8.845084 -0.781593 -5.562390
8.845084 -0.781593 33.254010
-4.196916 21.807813 -5.562390
-4.196916 21.807813 33.254010
8.453824 -0.117465 32.700876
-4.588176 22.471942 32.700876
-4.040412 18.694993 30.284555
-4.375591 18.390036 28.997792
-4.472102 18.376482 26.670748
-4.109534 19.162594 27.852708
9.289817 -2.545826 27.848826
-3.752183 20.043581 27.848826
8.931162 -2.850783 25.277240
-4.110838 19.738624 25.277240
-2.984923 9.830684 30.971217
23.099077 9.830684 30.971217
-4.046933 8.428108 30.067183
22.037067 8.428108 30.067183
-3.560466 7.174396 29.580038
22.523534 7.174396 29.580038
-2.365819 5.163938 29.607209
23.718181 5.163938 29.607209
-1.653726 4.626310 29.937148
24.430274 4.626310 29.937148
-2.527540 6.428945 30.051657
23.556460 6.428945 30.051657
-1.924999 6.794894 30.686305
24.159001 6.794894 30.686305
-3.664802 11.647098 30.476696
22.419198 11.647098 30.476696
-5.704571 10.553771 31.499509
20.379429 10.553771 31.499509
-2.873153 12.571005 29.754711
-2.031944 12.401584 29.349080
-3.117038 9.162263 32.819266
22.966962 9.162263 32.819266
-1.827184 11.518338 32.893017
-3.745662 8.050865 -5.562390
-3.745662 8.050865 33.254010
22.338338 8.050865 -5.562390
22.338338 8.050865 33.254010
-4.125185 7.379959 32.700876
21.958815 7.379959 32.700876
-1.128133 9.742811 30.284555
-0.696443 9.605016 28.997792
-0.636450 9.528212 26.670748
-1.498526 9.449149 27.852708
-2.440158 9.318130 27.848826
23.643842 9.318130 27.848826
-1.996730 9.160004 25.277240
24.087270 9.160004 25.277240
7.021161 7.500361 21.267117
5.275489 7.718800 20.363083
4.432976 6.670652 19.875938
3.289192 4.630828 19.903109
3.179640 3.745324 20.233048
4.303860 5.403386 20.347557
4.922051 5.064545 20.982205
8.254282 8.997361 20.772596
6.287548 10.217189 21.795409
9.450233 8.773726 20.050611
9.724115 7.960507 19.644980
6.376234 7.280566 23.115166
9.061582 7.341557 23.188917
5.099422 7.269271 23.549910
4.328640 7.262494 22.996776
7.873455 5.848397 20.580455
7.969966 5.405645 -0.114508
7.969966 5.405645 38.701892
7.933449 5.315287 -2.441552
7.933449 5.315287 36.374848
7.767815 5.715120 -3.287749
7.767815 5.715120 35.528651
7.433940 6.022336 -1.259592
7.433940 6.022336 37.556808
6.849658 6.772304 -1.263474
6.849658 6.772304 37.552926
16.077917 2.330323 21.267117
3.035917 24.919730 21.267117
16.761578 0.709307 20.363083
3.719578 23.298714 20.363083
18.090558 0.503744 19.875938
5.048558 23.093150 19.875938
20.428989 0.533110 19.903109
7.386989 23.122517 19.903109
21.250635 0.880987 20.233048
8.208635 23.470393 20.233048
19.252600 1.025559 20.347557
6.210600 23.614966 20.347557
19.236950 1.730349 20.982205
6.194950 24.319755 20.982205
14.164916 2.649737 20.772596
1.122916 25.239144 20.772596
14.091881 0.336582 21.795409
1.049881 22.925989 21.795409
13.760614 3.797279 20.050611
14.327941 4.441077 19.644980
16.590728 1.881698 23.115166
3.548728 24.471104 23.115166
15.195234 4.176781 23.188917
17.238916 0.781593 23.549910
4.196916 23.371000 23.549910
17.630176 0.117465 22.996776
4.588176 22.706872 22.996776
17.082412 3.894414 20.580455
17.417591 4.199371 -0.114508
17.417591 4.199371 38.701892
17.514102 4.212924 -2.441552
17.514102 4.212924 36.374848
17.250653 3.869565 -3.287749
17.250653 3.869565 35.528651
17.151534 3.426813 -1.259592
17.151534 3.426813 37.556808
16.794183 2.545826 -1.263474
16.794183 2.545826 37.552926
3.752183 25.135233 -1.263474
3.752183 25.135233 37.552926
-10.057077 12.758723 21.267117
16.026923 12.758723 21.267117
-8.995067 14.161299 20.363083
17.088933 14.161299 20.363083
-9.481534 15.415011 19.875938
16.602466 15.415011 19.875938
-10.676181 17.425468 19.903109
15.407819 17.425468 19.903109
-11.388274 17.963096 20.233048
14.695726 17.963096 20.233048
-10.514460 16.160462 20.347557
15.569540 16.160462 20.347557
-11.117001 15.794513 20.982205
14.966999 15.794513 20.982205
-9.377198 10.942309 20.772596
16.706802 10.942309 20.772596
-7.337429 12.035636 21.795409
18.746571 12.035636 21.795409
15.915153 10.018402 20.050611
15.073944 10.187822 19.644980
-9.924962 13.427143 23.115166
16.159038 13.427143 23.115166
14.869184 11.071068 23.188917
-9.296338 14.538542 23.549910
16.787662 14.538542 23.549910
-8.916815 15.209447 22.996776
17.167185 15.209447 22.996776
14.170133 12.846596 20.580455
13.738443 12.984391 -0.114508
13.738443 12.984391 38.701892
13.678450 13.061195 -2.441552
13.678450 13.061195 36.374848
14.107531 13.004721 -3.287749
14.107531 13.004721 35.528651
14.540526 13.140258 -1.259592
14.540526 13.140258 37.556808
-10.601842 13.271276 -1.263474
-10.601842 13.271276 37.552926
15.482158 13.271276 -1.263474
15.482158 13.271276 37.552926
10.057077 12.758723 27.253383
8.995067 14.161299 28.157417
9.481534 15.415011 28.644562
10.676181 17.425468 28.617391
10.514460 16.160462 28.172943
11.117001 15.794513 27.538295
-14.231430 18.559456 28.258339
11.852570 18.559456 28.258339
9.377198 10.942309 27.747904
7.337429 12.035636 26.725091
10.168847 10.018402 28.469889
11.010056 10.187822 28.875520
9.924962 13.427143 25.405334
11.214816 11.071068 25.331583
9.296338 14.538542 24.970590
8.916815 15.209447 25.523724
11.913867 12.846596 27.940045
12.345557 12.984391 29.226808
12.405550 13.061195 31.553852
11.976469 13.004721 32.400049
11.543474 13.140258 30.371892
10.601842 13.271276 30.375774
-7.021161 7.500361 27.253383
19.062839 7.500361 27.253383
-5.275489 7.718800 28.157417
20.808511 7.718800 28.157417
-4.432976 6.670652 28.644562
21.651024 6.670652 28.644562
-3.289192 4.630828 28.617391
22.794808 4.630828 28.617391
-4.303860 5.403386 28.172943
21.780140 5.403386 28.172943
-4.922051 5.064545 27.538295
21.161949 5.064545 27.538295
-2.895324 3.045052 28.258339
-15.937324 25.634459 28.258339
23.188676 3.045052 28.258339
10.146676 25.634459 28.258339
-8.254282 8.997361 27.747904
17.829718 8.997361 27.747904
-6.287548 10.217189 26.725091
19.796452 10.217189 26.725091
16.633767 8.773726 28.469889
16.359885 7.960507 28.875520
-6.376234 7.280566 25.405334
19.707766 7.280566 25.405334
17.022418 7.341557 25.331583
-5.099422 7.269271 24.970590
20.984578 7.269271 24.970590
-4.328640 7.262494 25.523724
21.755360 7.262494 25.523724
18.210545 5.848397 27.940045
18.114034 5.405645 29.226808
18.150551 5.315287 31.553852
18.316185 5.715120 32.400049
18.650060 6.022336 30.371892
-6.849658 6.772304 30.375774
19.234342 6.772304 30.375774
10.006083 2.330323 27.253383
-3.035917 24.919730 27.253383
9.322422 0.709307 28.157417
-3.719578 23.298714 28.157417
7.993442 0.503744 28.644562
-5.048558 23.093150 28.644562
5.655011 0.533110 28.617391
-7.386989 23.122517 28.617391
6.831400 1.025559 28.172943
-6.210600 23.614966 28.172943
6.847050 1.730349 27.538295
-6.194950 24.319755 27.538295
4.084754 0.984898 28.258339
-8.957246 23.574305 28.258339
11.919084 2.649737 27.747904
-1.122916 25.239144 27.747904
11.992119 0.336582 26.725091
-1.049881 22.925989 26.725091
12.323386 3.797279 28.469889
11.756059 4.441077 28.875520
9.493272 1.881698 25.405334
-3.548728 24.471104 25.405334
10.888766 4.176781 25.331583
8.845084 0.781593 24.970590
-4.196916 23.371000 24.970590
8.453824 0.117465 25.523724
-4.588176 22.706872 25.523724
9.001588 3.894414 27.940045
8.666409 4.199371 29.226808
8.569898 4.212924 31.553852
8.833347 3.869565 32.400049
8.932466 3.426813 30.371892
9.289817 2.545826 30.375774
-3.752183 25.135233 30.375774
2.984923 9.830684 -1.858917
2.984923 9.830684 36.957483
4.046933 8.428108 -0.954883
4.046933 8.428108 37.861517
3.560466 7.174396 -0.467738
3.560466 7.174396 38.348662
2.365819 5.163938 -0.494909
2.365819 5.163938 38.321491
2.527540 6.428945 -0.939357
2.527540 6.428945 37.877043
1.924999 6.794894 -1.574005
1.924999 6.794894 37.242395
1.189430 4.029950 -0.853961
1.189430 4.029950 37.962439
27.273430 4.029950 -0.853961
27.273430 4.029950 37.962439
3.664802 11.647098 -1.364396
3.664802 11.647098 37.452004
5.704571 10.553771 -2.387209
5.704571 10.553771 36.429191
2.873153 12.571005 -0.642411
2.873153 12.571005 38.173989
2.031944 12.401584 -0.236780
2.031944 12.401584 38.579620
3.117038 9.162263 -3.706966
3.117038 9.162263 35.109434
1.827184 11.518338 -3.780717
1.827184 11.518338 35.035683
3.745662 8.050865 -4.141710
3.745662 8.050865 34.674690
4.125185 7.379959 -3.588576
4.125185 7.379959 35.227824
1.128133 9.742811 -1.172255
1.128133 9.742811 37.644145
0.696443 9.605016 19.522708
0.636450 9.528212 21.849752
1.498526 9.449149 20.667792
2.440158 9.318130 20.671674
1.996730 9.160004 23.243260
-6.020839 15.089046 -1.858917
-6.020839 15.089046 36.957483
20.063161 15.089046 -1.858917
20.063161 15.089046 36.957483
-7.766511 14.870606 -0.954883
-7.766511 14.870606 37.861517
18.317489 14.870606 -0.954883
18.317489 14.870606 37.861517
-8.609024 15.918755 -0.467738
-8.609024 15.918755 38.348662
17.474976 15.918755 -0.467738
17.474976 15.918755 38.348662
-9.752808 17.958578 -0.494909
-9.752808 17.958578 38.321491
16.331192 17.958578 -0.494909
16.331192 17.958578 38.321491
-8.738140 17.186021 -0.939357
-8.738140 17.186021 37.877043
17.345860 17.186021 -0.939357
17.345860 17.186021 37.877043
-8.119949 17.524862 -1.574005
-8.119949 17.524862 37.242395
17.964051 17.524862 -1.574005
17.964051 17.524862 37.242395
2.895324 -3.045052 -0.853961
2.895324 -3.045052 37.962439
-10.146676 19.544355 -0.853961
-10.146676 19.544355 37.962439
28.979324 -3.045052 -0.853961
28.979324 -3.045052 37.962439
15.937324 19.544355 -0.853961
15.937324 19.544355 37.962439
-4.787718 13.592046 -1.364396
-4.787718 13.592046 37.452004
21.296282 13.592046 -1.364396
21.296282 13.592046 37.452004
-6.754452 12.372218 -2.387209
-6.754452 12.372218 36.429191
19.329548 12.372218 -2.387209
19.329548 12.372218 36.429191
-3.591767 13.815681 -0.642411
-3.591767 13.815681 38.173989
-3.317885 14.628900 -0.236780
-3.317885 14.628900 38.579620
-6.665766 15.308841 -3.706966
-6.665766 15.308841 35.109434
19.418234 15.308841 -3.706966
19.418234 15.308841 35.109434
-3.980418 15.247849 -3.780717
-3.980418 15.247849 35.035683
-7.942578 15.320136 -4.141710
-7.942578 15.320136 34.674690
18.141422 15.320136 -4.141710
18.141422 15.320136 34.674690
-8.713360 15.326912 -3.588576
-8.713360 15.326912 35.227824
17.370640 15.326912 -3.588576
17.370640 15.326912 35.227824
-5.168545 16.741009 -1.172255
-5.168545 16.741009 37.644145
-5.072034 17.183762 19.522708
-5.108551 17.274119 21.849752
-5.608060 16.567071 20.667792
-6.192342 15.817103 20.671674
19.891658 15.817103 20.671674
-6.107569 16.280185 23.243260
19.976431 16.280185 23.243260
16.077917 -2.330323 -1.858917
16.077917 -2.330323 36.957483
3.035917 20.259083 -1.858917
3.035917 20.259083 36.957483
16.761578 -0.709307 -0.954883
16.761578 -0.709307 37.861517
3.719578 21.880099 -0.954883
3.719578 21.880099 37.861517
18.090558 -0.503744 -0.467738
18.090558 -0.503744 38.348662
5.048558 22.085663 -0.467738
5.048558 22.085663 38.348662
20.428989 -0.533110 -0.494909
20.428989 -0.533110 38.321491
7.386989 22.056297 -0.494909
7.386989 22.056297 38.321491
19.252600 -1.025559 -0.939357
19.252600 -1.025559 37.877043
6.210600 21.563848 -0.939357
6.210600 21.563848 37.877043
19.236950 -1.730349 -1.574005
19.236950 -1.730349 37.242395
6.194950 20.859058 -1.574005
6.194950 20.859058 37.242395
21.999246 -0.984898 -0.853961
21.999246 -0.984898 37.962439
8.957246 21.604509 -0.853961
8.957246 21.604509 37.962439
14.164916 -2.649737 -1.364396
14.164916 -2.649737 37.452004
1.122916 19.939669 -1.364396
1.122916 19.939669 37.452004
14.091881 -0.336582 -2.387209
14.091881 -0.336582 36.429191
1.049881 22.252824 -2.387209
1.049881 22.252824 36.429191
0.718614 18.792127 -0.642411
0.718614 18.792127 38.173989
1.285941 18.148329 -0.236780
1.285941 18.148329 38.579620
16.590728 -1.881698 -3.706966
16.590728 -1.881698 35.109434
3.548728 20.707709 -3.706966
3.548728 20.707709 35.109434
2.153234 18.412625 -3.780717
2.153234 18.412625 35.035683
17.238916 -0.781593 -4.141710
17.238916 -0.781593 34.674690
4.196916 21.807813 -4.141710
4.196916 21.807813 34.674690
17.630176 -0.117465 -3.588576
17.630176 -0.117465 35.227824
4.588176 22.471942 -3.588576
4.588176 22.471942 35.227824
4.040412 18.694993 -1.172255
4.040412 18.694993 37.644145
4.375591 18.390036 19.522708
4.472102 18.376482 21.849752
4.109534 19.162594 20.667792
16.794183 -2.545826 20.671674
3.752183 20.043581 20.671674
17.152838 -2.850783 23.243260
4.110838 19.738624 23.243260
5.001607 8.663037 29.112300
5.476336 9.485292 29.112300
16.080786 0.000000 29.112300
3.038786 22.589407 29.112300
15.131328 0.000000 29.112300
2.089328 22.589407 29.112300
-8.040393 13.926369 29.112300
18.043607 13.926369 29.112300
-7.565664 13.104115 29.112300
18.518336 13.104115 29.112300
8.040393 13.926369 19.408200
7.565664 13.104115 19.408200
10.003214 0.000000 19.408200
-3.038786 22.589407 19.408200
10.952672 0.000000 19.408200
-2.089328 22.589407 19.408200
-5.001607 8.663037 19.408200
21.082393 8.663037 19.408200
-5.476336 9.485292 19.408200
20.607664 9.485292 19.408200
8.040393 13.926369 29.112300
7.565664 13.104115 29.112300
10.003214 0.000000 29.112300
-3.038786 22.589407 29.112300
10.952672 0.000000 29.112300
-2.089328 22.589407 29.112300
-5.001607 8.663037 29.112300
21.082393 8.663037 29.112300
-5.476336 9.485292 29.112300
20.607664 9.485292 29.112300
5.001607 8.663037 19.408200
5.476336 9.485292 19.408200
16.080786 0.000000 19.408200
3.038786 22.589407 19.408200
15.131328 0.000000 19.408200
2.089328 22.589407 19.408200
-8.040393 13.926369 19.408200
18.043607 13.926369 19.408200
-7.565664 13.104115 19.408200
18.518336 13.104115 19.408200
8.399048 10.210412 27.340331
7.272219 10.860987 26.802724
13.042000 2.168583 27.340331
0.000000 24.757990 27.340331
13.042000 0.867433 26.802724
0.000000 23.456840 26.802724
-8.399048 10.210412 27.340331
17.684952 10.210412 27.340331
-7.272219 10.860987 26.802724
18.811781 10.860987 26.802724
4.642952 12.378995 -1.771969
4.642952 12.378995 37.044431
5.769781 11.728420 -2.309576
5.769781 11.728420 36.506824
13.042000 -2.168583 -1.771969
13.042000 -2.168583 37.044431
0.000000 20.420824 -1.771969
0.000000 20.420824 37.044431
13.042000 -0.867433 -2.309576
13.042000 -0.867433 36.506824
0.000000 21.721973 -2.309576
0.000000 21.721973 36.506824
-4.642952 12.378995 -1.771969
-4.642952 12.378995 37.044431
21.441048 12.378995 -1.771969
21.441048 12.378995 37.044431
-5.769781 11.728420 -2.309576
-5.769781 11.728420 36.506824
20.314219 11.728420 -2.309576
20.314219 11.728420 36.506824
4.642952 12.378995 30.884269
5.769781 11.728420 31.421876
-4.642952 12.378995 30.884269
21.441048 12.378995 30.884269
-5.769781 11.728420 31.421876
20.314219 11.728420 31.421876
13.042000 -2.168583 30.884269
0.000000 20.420824 30.884269
13.042000 -0.867433 31.421876
0.000000 21.721973 31.421876
8.399048 10.210412 21.180169
7.272219 10.860987 21.717776
-8.399048 10.210412 21.180169
17.684952 10.210412 21.180169
-7.272219 10.860987 21.717776
18.811781 10.860987 21.717776
13.042000 2.168583 21.180169
0.000000 24.757990 21.180169
13.042000 0.867433 21.717776
0.000000 23.456840 21.717776
7.062243 7.280566 24.260250
8.504688 7.334780 24.260250
16.247724 2.475799 24.260250
3.205724 25.065206 24.260250
15.479550 3.697886 24.260250
-10.267967 12.833042 24.260250
15.816033 12.833042 24.260250
15.141762 11.556740 24.260250
5.979757 15.308841 -4.852050
5.979757 15.308841 33.964350
4.537312 15.254626 -4.852050
4.537312 15.254626 33.964350
9.836276 -2.475799 -4.852050
9.836276 -2.475799 33.964350
-3.205724 20.113608 -4.852050
-3.205724 20.113608 33.964350
-2.437550 18.891521 -4.852050
-2.437550 18.891521 33.964350
-2.774033 9.756365 -4.852050
-2.774033 9.756365 33.964350
23.309967 9.756365 -4.852050
23.309967 9.756365 33.964350
-2.099762 11.032666 -4.852050
-2.099762 11.032666 33.964350
2.774033 9.756365 -4.852050
2.774033 9.756365 33.964350
2.099762 11.032666 -4.852050
2.099762 11.032666 33.964350
-5.979757 15.308841 -4.852050
-5.979757 15.308841 33.964350
20.104243 15.308841 -4.852050
20.104243 15.308841 33.964350
-4.537312 15.254626 -4.852050
-4.537312 15.254626 33.964350
16.247724 -2.475799 -4.852050
16.247724 -2.475799 33.964350
3.205724 20.113608 -4.852050
3.205724 20.113608 33.964350
2.437550 18.891521 -4.852050
2.437550 18.891521 33.964350
10.267967 12.833042 24.260250
10.942238 11.556740 24.260250
-7.062243 7.280566 24.260250
19.021757 7.280566 24.260250
17.579312 7.334780 24.260250
9.836276 2.475799 24.260250
-3.205724 25.065206 24.260250
10.604450 3.697886 24.260250
8.527512 4.923361 27.256876
8.648802 4.993388 26.317519
17.556488 4.923361 27.256876
17.435198 4.993388 26.317519
13.042000 12.742684 27.256876
13.042000 12.602630 26.317519
4.514488 17.666045 -1.855424
4.514488 17.666045 36.960976
4.393198 17.596018 -2.794781
4.393198 17.596018 36.021619
-4.514488 17.666045 -1.855424
-4.514488 17.666045 36.960976
-4.393198 17.596018 -2.794781
-4.393198 17.596018 36.021619
0.000000 9.846722 -1.855424
0.000000 9.846722 36.960976
0.000000 9.986777 -2.794781
0.000000 9.986777 36.021619
0.000000 9.846722 30.967724
0.000000 9.986777 31.907081
-4.514488 17.666045 30.967724
-4.393198 17.596018 31.907081
4.514488 17.666045 30.967724
4.393198 17.596018 31.907081
13.042000 12.742684 21.263624
13.042000 12.602630 22.202981
17.556488 4.923361 21.263624
17.435198 4.993388 22.202981
8.527512 4.923361 21.263624
8.648802 4.993388 22.202981
LINES 2416 7248
2 0 1
2 0 7
2 0 11
2 0 16
2 1 2
2 1 925
2 2 5
2 2 204
2 3 4
2 3 5
2 3 205
2 5 6
2 7 9
2 7 985
2 8 986
2 9 10
2 9 725
2 11 13
2 11 1035
2 12 1037
2 13 15
2 13 580
2 14 581
2 16 17
2 16 1083
2 17 19
2 17 806
2 18 19
2 18 21
2 18 807
2 19 20
2 22 24
2 22 36
2 22 42
2 22 51
2 23 25
2 23 37
2 23 43
2 24 26
2 24 927
2 25 27
2 25 928
2 26 32
2 26 264
2 27 33
2 27 265
2 28 30
2 28 32
2 28 266
2 29 31
2 29 33
2 29 267
2 32 34
2 33 35
2 36 40
2 36 987
2 37 988
2 38 989
2 39 990
2 40 41
2 40 794
2 42 45
2 42 1039
2 43 47
2 43 1041
2 44 1043
2 45 49
2 45 637
2 46 638
2 47 50
2 47 639
2 48 640
2 51 52
2 51 1085
2 52 54
2 52 770
2 53 54
2 53 57
2 53 771
2 54 55
2 59 61
2 59 73
2 59 79
2 60 62
2 60 74
2 60 80
2 60 88
2 61 63
2 61 931
2 62 64
2 62 932
2 63 69
2 63 228
2 64 70
2 64 229
2 65 67
2 65 69
2 65 230
2 66 68
2 66 70
2 66 231
2 69 71
2 70 72
2 73 991
2 74 77
2 74 992
2 75 993
2 76 994
2 77 78
2 77 758
2 79 82
2 79 1045
2 80 84
2 80 1047
2 81 1049
2 82 86
2 82 699
2 83 700
2 84 87
2 84 701
2 85 702
2 88 89
2 88 1087
2 89 91
2 89 733
2 90 91
2 90 95
2 90 734
2 91 93
2 96 97
2 96 103
2 96 107
2 96 111
2 97 98
2 97 2048
2 98 101
2 98 1464
2 99 100
2 99 101
2 99 1465
2 101 102
2 103 105
2 103 995
2 104 996
2 105 106
2 105 822
2 107 109
2 107 1051
2 108 1052
2 109 110
2 109 476
2 111 1089
2 111 1236
2 112 118
2 112 911
2 112 1234
2 113 119
2 113 912
2 113 1235
2 114 116
2 114 118
2 114 913
2 115 117
2 115 119
2 115 914
2 118 120
2 119 121
2 122 124
2 122 136
2 122 142
2 123 125
2 123 137
2 123 143
2 123 149
2 124 126
2 124 2050
2 125 127
2 125 2051
2 126 132
2 126 1537
2 127 133
2 127 1538
2 128 130
2 128 132
2 128 1539
2 129 131
2 129 133
2 129 1540
2 132 134
2 133 135
2 136 997
2 137 140
2 137 998
2 138 999
2 139 1000
2 140 141
2 140 901
2 142 145
2 142 1053
2 143 146
2 143 1054
2 144 1055
2 145 147
2 145 507
2 146 148
2 146 508
2 149 1091
2 149 1297
2 150 156
2 150 869
2 150 1295
2 151 157
2 151 870
2 151 1296
2 152 154
2 152 156
2 152 871
2 153 155
2 153 157
2 153 872
2 156 160
2 157 161
2 162 164
2 162 176
2 162 182
2 162 189
2 163 165
2 163 177
2 163 183
2 164 166
2 164 2054
2 165 167
2 165 2055
2 166 172
2 166 1493
2 167 173
2 167 1494
2 168 170
2 168 172
2 168 1495
2 169 171
2 169 173
2 169 1496
2 172 174
2 173 175
2 176 180
2 176 1001
2 177 1002
2 178 1003
2 179 1004
2 180 181
2 180 859
2 182 185
2 182 1056
2 183 186
2 183 1057
2 184 1058
2 185 187
2 185 542
2 186 188
2 186 543
2 189 1093
2 189 1359
2 190 196
2 190 829
2 190 1357
2 191 197
2 191 830
2 191 1358
2 192 194
2 192 196
2 192 831
2 193 195
2 193 197
2 193 832
2 196 198
2 197 199
2 202 203
2 202 210
2 202 214
2 202 218
2 203 204
2 203 925
2 204 206
2 205 206
2 205 208
2 206 207
2 210 212
2 210 1005
2 211 1006
2 212 213
2 212 472
2 214 216
2 214 1059
2 215 1060
2 216 217
2 216 826
2 218 219
2 218 1095
2 219 222
2 219 547
2 220 221
2 220 222
2 220 548
2 222 223
2 224 226
2 224 240
2 224 246
2 224 253
2 225 227
2 225 241
2 225 247
2 226 228
2 226 931
2 227 229
2 227 932
2 228 232
2 229 233
2 230 232
2 230 237
2 231 233
2 231 239
2 232 234
2 233 235
2 240 244
2 240 1007
2 241 1008
2 242 1009
2 243 1010
2 244 245
2 244 537
2 246 249
2 246 1061
2 247 250
2 247 1062
2 248 1063
2 249 251
2 249 864
2 250 252
2 250 865
2 253 254
2 253 1097
2 254 257
2 254 512
2 255 256
2 255 257
2 255 513
2 257 258
2 260 262
2 260 274
2 260 280
2 261 263
2 261 275
2 261 281
2 261 287
2 262 264
2 262 927
2 263 265
2 263 928
2 264 268
2 265 269
2 266 268
2 266 272
2 267 269
2 267 273
2 268 270
2 269 271
2 274 1011
2 275 278
2 275 1012
2 276 1013
2 277 1014
2 278 279
2 278 502
2 280 283
2 280 1064
2 281 284
2 281 1065
2 282 1066
2 283 285
2 283 906
2 284 286
2 284 907
2 287 288
2 287 1099
2 288 291
2 288 479
2 289 290
2 289 291
2 289 480
2 291 293
2 294 296
2 294 310
2 294 318
2 294 326
2 295 297
2 295 311
2 295 319
2 295 327
2 296 298
2 296 935
2 297 299
2 297 936
2 298 302
2 298 1208
2 299 303
2 299 1209
2 300 302
2 300 308
2 300 1210
2 301 303
2 301 309
2 301 1211
2 302 304
2 303 305
2 310 314
2 310 1015
2 311 315
2 311 1016
2 312 1017
2 313 1018
2 314 316
2 314 572
2 315 317
2 315 573
2 318 322
2 318 1067
2 319 323
2 319 1068
2 320 1069
2 321 1070
2 322 324
2 322 729
2 323 325
2 323 730
2 326 1101
2 326 1479
2 327 1102
2 327 1480
2 328 330
2 328 709
2 328 1478
2 329 330
2 329 332
2 329 710
2 330 331
2 333 337
2 333 365
2 333 377
2 334 338
2 334 366
2 334 378
2 335 339
2 335 367
2 335 379
2 335 391
2 336 340
2 336 368
2 336 380
2 336 392
2 337 341
2 337 947
2 338 342
2 338 948
2 339 343
2 339 949
2 340 344
2 340 950
2 341 349
2 341 1311
2 342 350
2 342 1312
2 343 351
2 343 1313
2 344 352
2 344 1314
2 345 349
2 345 357
2 345 1315
2 346 350
2 346 358
2 346 1316
2 347 351
2 347 361
2 347 1317
2 348 352
2 348 362
2 348 1318
2 349 353
2 350 354
2 351 355
2 352 356
2 365 1019
2 366 1020
2 367 373
2 367 1021
2 368 374
2 368 1022
2 369 1023
2 370 1024
2 371 1025
2 372 1026
2 373 375
2 373 689
2 374 376
2 374 690
2 377 383
2 377 1071
2 378 384
2 378 1072
2 379 385
2 379 1073
2 380 386
2 380 1074
2 381 1075
2 382 1076
2 383 387
2 383 763
2 384 388
2 384 764
2 385 389
2 385 765
2 386 390
2 386 766
2 391 1105
2 391 1519
2 392 1106
2 392 1520
2 393 395
2 393 647
2 393 1518
2 394 395
2 394 399
2 394 648
2 395 397
2 400 404
2 400 428
2 400 440
2 400 454
2 401 405
2 401 429
2 401 441
2 401 455
2 402 406
2 402 430
2 402 442
2 403 407
2 403 431
2 403 443
2 404 408
2 404 939
2 405 409
2 405 940
2 406 410
2 406 941
2 407 411
2 407 942
2 408 416
2 408 1249
2 409 417
2 409 1250
2 410 418
2 410 1251
2 411 419
2 411 1252
2 412 416
2 412 424
2 412 1253
2 413 417
2 413 425
2 413 1254
2 414 418
2 414 426
2 414 1255
2 415 419
2 415 427
2 415 1256
2 416 420
2 417 421
2 418 422
2 419 423
2 428 436
2 428 1027
2 429 437
2 429 1028
2 430 1029
2 431 1030
2 432 1031
2 433 1032
2 434 1033
2 435 1034
2 436 438
2 436 627
2 437 439
2 437 628
2 440 446
2 440 1077
2 441 447
2 441 1078
2 442 448
2 442 1079
2 443 449
2 443 1080
2 444 1081
2 445 1082
2 446 450
2 446 799
2 447 451
2 447 800
2 448 452
2 448 801
2 449 453
2 449 802
2 454 1109
2 454 1561
2 455 1110
2 455 1562
2 456 458
2 456 586
2 456 1560
2 457 458
2 457 461
2 457 587
2 458 459
2 463 464
2 463 470
2 463 474
2 463 478
2 464 465
2 464 955
2 465 468
2 465 717
2 466 467
2 466 468
2 466 718
2 468 469
2 470 472
2 470 1005
2 471 1006
2 472 473
2 474 476
2 474 1051
2 475 1052
2 476 477
2 478 479
2 478 1099
2 479 481
2 480 481
2 480 483
2 481 482
2 484 486
2 484 498
2 484 504
2 485 487
2 485 499
2 485 505
2 485 511
2 486 488
2 486 957
2 487 489
2 487 958
2 488 494
2 488 780
2 489 495
2 489 781
2 490 492
2 490 494
2 490 782
2 491 493
2 491 495
2 491 783
2 494 496
2 495 497
2 498 1011
2 499 502
2 499 1012
2 500 1013
2 501 1014
2 502 503
2 504 507
2 504 1053
2 505 508
2 505 1054
2 506 1055
2 507 509
2 508 510
2 511 512
2 511 1097
2 512 514
2 513 514
2 513 518
2 514 516
2 519 521
2 519 533
2 519 539
2 519 546
2 520 522
2 520 534
2 520 540
2 521 523
2 521 961
2 522 524
2 522 962
2 523 529
2 523 742
2 524 530
2 524 743
2 525 527
2 525 529
2 525 744
2 526 528
2 526 530
2 526 745
2 529 531
2 530 532
2 533 537
2 533 1007
2 534 1008
2 535 1009
2 536 1010
2 537 538
2 539 542
2 539 1056
2 540 543
2 540 1057
2 541 1058
2 542 544
2 543 545
2 546 547
2 546 1095
2 547 549
2 548 549
2 548 552
2 549 550
2 554 556
2 554 568
2 554 576
2 554 584
2 555 557
2 555 569
2 555 577
2 555 585
2 556 558
2 556 965
2 557 559
2 557 966
2 558 564
2 558 1873
2 559 565
2 559 1874
2 560 562
2 560 564
2 560 1875
2 561 563
2 561 565
2 561 1876
2 564 566
2 565 567
2 568 572
2 568 1015
2 569 573
2 569 1016
2 570 1017
2 571 1018
2 572 574
2 573 575
2 576 580
2 576 1035
2 577 581
2 577 1036
2 578 1037
2 579 1038
2 580 582
2 581 583
2 584 1109
2 584 1687
2 585 1110
2 585 1688
2 586 589
2 586 1686
2 587 588
2 587 589
2 589 590
2 591 595
2 591 619
2 591 631
2 591 645
2 592 596
2 592 620
2 592 632
2 592 646
2 593 597
2 593 621
2 593 633
2 594 598
2 594 622
2 594 634
2 595 599
2 595 969
2 596 600
2 596 970
2 597 601
2 597 971
2 598 602
2 598 972
2 599 611
2 599 1983
2 600 612
2 600 1984
2 601 613
2 601 1985
2 602 614
2 602 1986
2 603 607
2 603 611
2 603 1987
2 604 608
2 604 612
2 604 1988
2 605 609
2 605 613
2 605 1989
2 606 610
2 606 614
2 606 1990
2 611 615
2 612 616
2 613 617
2 614 618
2 619 627
2 619 1027
2 620 628
2 620 1028
2 621 1029
2 622 1030
2 623 1031
2 624 1032
2 625 1033
2 626 1034
2 627 629
2 628 630
2 631 637
2 631 1039
2 632 638
2 632 1040
2 633 639
2 633 1041
2 634 640
2 634 1042
2 635 1043
2 636 1044
2 637 641
2 638 642
2 639 643
2 640 644
2 645 1105
2 645 1725
2 646 1106
2 646 1726
2 647 650
2 647 1724
2 648 649
2 648 650
2 650 651
2 653 657
2 653 681
2 653 693
2 654 658
2 654 682
2 654 694
2 655 659
2 655 683
2 655 695
2 655 707
2 656 660
2 656 684
2 656 696
2 656 708
2 657 661
2 657 977
2 658 662
2 658 978
2 659 663
2 659 979
2 660 664
2 660 980
2 661 673
2 661 1916
2 662 674
2 662 1917
2 663 675
2 663 1918
2 664 676
2 664 1919
2 665 669
2 665 673
2 665 1920
2 666 670
2 666 674
2 666 1921
2 667 671
2 667 675
2 667 1922
2 668 672
2 668 676
2 668 1923
2 673 677
2 674 678
2 675 679
2 676 680
2 681 1019
2 682 1020
2 683 689
2 683 1021
2 684 690
2 684 1022
2 685 1023
2 686 1024
2 687 1025
2 688 1026
2 689 691
2 690 692
2 693 699
2 693 1045
2 694 700
2 694 1046
2 695 701
2 695 1047
2 696 702
2 696 1048
2 697 1049
2 698 1050
2 699 703
2 700 704
2 701 705
2 702 706
2 707 1101
2 707 1765
2 708 1102
2 708 1766
2 709 712
2 709 1764
2 710 711
2 710 712
2 712 714
2 715 716
2 715 723
2 715 727
2 715 732
2 716 717
2 716 955
2 717 719
2 718 719
2 718 722
2 719 720
2 723 725
2 723 985
2 724 986
2 725 726
2 727 729
2 727 1067
2 728 1069
2 729 731
2 732 733
2 732 1087
2 733 736
2 734 735
2 734 736
2 736 737
2 738 740
2 738 754
2 738 760
2 739 741
2 739 755
2 739 761
2 739 769
2 740 742
2 740 961
2 741 743
2 741 962
2 742 746
2 743 747
2 744 746
2 744 750
2 745 747
2 745 752
2 746 748
2 747 749
2 754 991
2 755 758
2 755 992
2 756 993
2 757 994
2 758 759
2 760 763
2 760 1071
2 761 765
2 761 1073
2 762 1075
2 763 767
2 765 768
2 769 770
2 769 1085
2 770 773
2 771 772
2 771 773
2 773 775
2 776 778
2 776 790
2 776 796
2 776 805
2 777 779
2 777 791
2 777 797
2 778 780
2 778 957
2 779 781
2 779 958
2 780 784
2 781 785
2 782 784
2 782 788
2 783 785
2 783 789
2 784 786
2 785 787
2 790 794
2 790 987
2 791 988
2 792 989
2 793 990
2 794 795
2 796 799
2 796 1077
2 797 801
2 797 1079
2 798 1081
2 799 803
2 801 804
2 805 806
2 805 1083
2 806 809
2 807 808
2 807 809
2 809 810
2 812 813
2 812 820
2 812 824
2 812 828
2 813 814
2 813 2068
2 814 816
2 814 1673
2 815 816
2 815 818
2 815 1674
2 816 817
2 820 822
2 820 995
2 821 996
2 822 823
2 824 826
2 824 1059
2 825 1060
2 826 827
2 828 1093
2 828 1903
2 829 833
2 829 1901
2 830 834
2 830 1902
2 831 833
2 831 837
2 832 834
2 832 838
2 833 835
2 834 836
2 839 841
2 839 855
2 839 861
2 839 868
2 840 842
2 840 856
2 840 862
2 841 843
2 841 2074
2 842 844
2 842 2075
2 843 847
2 843 1741
2 844 848
2 844 1742
2 845 847
2 845 852
2 845 1743
2 846 848
2 846 854
2 846 1744
2 847 849
2 848 850
2 855 859
2 855 1001
2 856 1002
2 857 1003
2 858 1004
2 859 860
2 861 864
2 861 1061
2 862 865
2 862 1062
2 863 1063
2 864 866
2 865 867
2 868 1091
2 868 1968
2 869 873
2 869 1966
2 870 874
2 870 1967
2 871 873
2 871 879
2 872 874
2 872 880
2 873 875
2 874 876
2 883 885
2 883 897
2 883 903
2 884 886
2 884 898
2 884 904
2 884 910
2 885 887
2 885 2070
2 886 888
2 886 2071
2 887 891
2 887 1701
2 888 892
2 888 1702
2 889 891
2 889 895
2 889 1703
2 890 892
2 890 896
2 890 1704
2 891 893
2 892 894
2 897 997
2 898 901
2 898 998
2 899 999
2 900 1000
2 901 902
2 903 906
2 903 1064
2 904 907
2 904 1065
2 905 1066
2 906 908
2 907 909
2 910 1089
2 910 2031
2 911 915
2 911 2029
2 912 916
2 912 2030
2 913 915
2 913 923
2 914 916
2 914 924
2 915 919
2 916 920
2 925 926
2 927 929
2 928 930
2 931 933
2 932 934
2 935 937
2 935 1206
2 936 938
2 936 1207
2 939 943
2 939 1245
2 940 944
2 940 1246
2 941 945
2 941 1247
2 942 946
2 942 1248
2 947 951
2 947 1307
2 948 952
2 948 1308
2 949 953
2 949 1309
2 950 954
2 950 1310
2 955 956
2 957 959
2 958 960
2 961 963
2 962 964
2 965 967
2 965 1871
2 966 968
2 966 1872
2 969 973
2 969 1979
2 970 974
2 970 1980
2 971 975
2 971 1981
2 972 976
2 972 1982
2 977 981
2 977 1912
2 978 982
2 978 1913
2 979 983
2 979 1914
2 980 984
2 980 1915
2 985 986
2 987 989
2 988 990
2 991 993
2 992 994
2 995 996
2 997 999
2 998 1000
2 1001 1003
2 1002 1004
2 1005 1006
2 1007 1009
2 1008 1010
2 1011 1013
2 1012 1014
2 1015 1017
2 1016 1018
2 1019 1023
2 1020 1024
2 1021 1025
2 1022 1026
2 1027 1031
2 1028 1032
2 1029 1033
2 1030 1034
2 1035 1037
2 1036 1038
2 1039 1043
2 1040 1044
2 1047 1049
2 1048 1050
2 1051 1052
2 1054 1055
2 1056 1058
2 1059 1060
2 1061 1063
2 1065 1066
2 1067 1069
2 1068 1070
2 1073 1075
2 1074 1076
2 1077 1081
2 1078 1082
2 1083 1084
2 1085 1086
2 1087 1088
2 1089 1090
2 1091 1092
2 1093 1094
2 1095 1096
2 1097 1098
2 1099 1100
2 1101 1103
2 1102 1104
2 1105 1107
2 1106 1108
2 1109 1111
2 1110 1112
2 1113 1114
2 1113 1120
2 1113 1124
2 1113 1128
2 1114 1115
2 1114 2038
2 1115 1118
2 1115 1367
2 1116 1117
2 1116 1118
2 1116 1368
2 1118 1119
2 1120 1122
2 1120 2078
2 1121 2079
2 1122 1123
2 1122 1787
2 1124 1126
2 1124 2128
2 1125 2129
2 1126 1127
2 1126 1684
2 1128 1129
2 1128 2176
2 1129 1131
2 1129 1863
2 1130 1131
2 1130 1133
2 1130 1864
2 1131 1132
2 1134 1136
2 1134 1148
2 1134 1154
2 1134 1161
2 1135 1137
2 1135 1149
2 1135 1155
2 1136 1138
2 1136 2040
2 1137 1139
2 1137 2041
2 1138 1144
2 1138 1430
2 1139 1145
2 1139 1431
2 1140 1142
2 1140 1144
2 1140 1432
2 1141 1143
2 1141 1145
2 1141 1433
2 1144 1146
2 1145 1147
2 1148 1152
2 1148 2080
2 1149 2081
2 1150 2082
2 1151 2083
2 1152 1153
2 1152 1853
2 1154 1157
2 1154 2130
2 1155 1158
2 1155 2131
2 1156 2132
2 1157 1159
2 1157 1720
2 1158 1160
2 1158 1721
2 1161 1162
2 1161 2178
2 1162 1164
2 1162 1829
2 1163 1164
2 1163 1167
2 1163 1830
2 1164 1165
2 1169 1171
2 1169 1183
2 1169 1189
2 1170 1172
2 1170 1184
2 1170 1190
2 1170 1196
2 1171 1173
2 1171 2044
2 1172 1174
2 1172 2045
2 1173 1179
2 1173 1392
2 1174 1180
2 1174 1393
2 1175 1177
2 1175 1179
2 1175 1394
2 1176 1178
2 1176 1180
2 1176 1395
2 1179 1181
2 1180 1182
2 1183 2084
2 1184 1187
2 1184 2085
2 1185 2086
2 1186 2087
2 1187 1188
2 1187 1819
2 1189 1192
2 1189 2133
2 1190 1193
2 1190 2134
2 1191 2135
2 1192 1194
2 1192 1760
2 1193 1195
2 1193 1761
2 1196 1197
2 1196 2180
2 1197 1199
2 1197 1794
2 1198 1199
2 1198 1203
2 1198 1795
2 1199 1201
2 1204 1206
2 1204 1218
2 1204 1226
2 1204 1234
2 1205 1207
2 1205 1219
2 1205 1227
2 1205 1235
2 1206 1208
2 1207 1209
2 1208 1214
2 1209 1215
2 1210 1212
2 1210 1214
2 1211 1213
2 1211 1215
2 1214 1216
2 1215 1217
2 1218 1222
2 1218 2088
2 1219 1223
2 1219 2089
2 1220 2090
2 1221 2091
2 1222 1224
2 1222 1889
2 1223 1225
2 1223 1890
2 1226 1230
2 1226 2136
2 1227 1231
2 1227 2137
2 1228 2138
2 1229 2139
2 1230 1232
2 1230 1588
2 1231 1233
2 1231 1589
2 1234 2182
2 1235 2183
2 1236 1239
2 1236 2031
2 1237 1238
2 1237 1239
2 1237 2032
2 1239 1240
2 1241 1245
2 1241 1269
2 1241 1281
2 1242 1246
2 1242 1270
2 1242 1282
2 1243 1247
2 1243 1271
2 1243 1283
2 1243 1295
2 1244 1248
2 1244 1272
2 1244 1284
2 1244 1296
2 1245 1249
2 1246 1250
2 1247 1251
2 1248 1252
2 1249 1261
2 1250 1262
2 1251 1263
2 1252 1264
2 1253 1257
2 1253 1261
2 1254 1258
2 1254 1262
2 1255 1259
2 1255 1263
2 1256 1260
2 1256 1264
2 1261 1265
2 1262 1266
2 1263 1267
2 1264 1268
2 1269 2092
2 1270 2093
2 1271 1277
2 1271 2094
2 1272 1278
2 1272 2095
2 1273 2096
2 1274 2097
2 1275 2098
2 1276 2099
2 1277 1279
2 1277 2011
2 1278 1280
2 1278 2012
2 1281 1287
2 1281 2140
2 1282 1288
2 1282 2141
2 1283 1289
2 1283 2142
2 1284 1290
2 1284 2143
2 1285 2144
2 1286 2145
2 1287 1291
2 1287 1620
2 1288 1292
2 1288 1621
2 1289 1293
2 1289 1622
2 1290 1294
2 1290 1623
2 1295 2186
2 1296 2187
2 1297 1300
2 1297 1968
2 1298 1299
2 1298 1300
2 1298 1969
2 1300 1302
2 1303 1307
2 1303 1331
2 1303 1343
2 1303 1357
2 1304 1308
2 1304 1332
2 1304 1344
2 1304 1358
2 1305 1309
2 1305 1333
2 1305 1345
2 1306 1310
2 1306 1334
2 1306 1346
2 1307 1311
2 1308 1312
2 1309 1313
2 1310 1314
2 1311 1323
2 1312 1324
2 1313 1325
2 1314 1326
2 1315 1319
2 1315 1323
2 1316 1320
2 1316 1324
2 1317 1321
2 1317 1325
2 1318 1322
2 1318 1326
2 1323 1327
2 1324 1328
2 1325 1329
2 1326 1330
2 1331 1339
2 1331 2100
2 1332 1340
2 1332 2101
2 1333 2102
2 1334 2103
2 1335 2104
2 1336 2105
2 1337 2106
2 1338 2107
2 1339 1341
2 1339 1948
2 1340 1342
2 1340 1949
2 1343 1349
2 1343 2146
2 1344 1350
2 1344 2147
2 1345 1351
2 1345 2148
2 1346 1352
2 1346 2149
2 1347 2150
2 1348 2151
2 1349 1353
2 1349 1657
2 1350 1354
2 1350 1658
2 1351 1355
2 1351 1659
2 1352 1356
2 1352 1660
2 1357 2190
2 1358 2191
2 1359 1362
2 1359 1903
2 1360 1361
2 1360 1362
2 1360 1904
2 1362 1363
2 1365 1366
2 1365 1373
2 1365 1377
2 1365 1382
2 1366 1367
2 1366 2038
2 1367 1369
2 1368 1369
2 1368 1371
2 1369 1370
2 1373 1375
2 1373 2108
2 1374 2109
2 1375 1376
2 1375 1584
2 1377 1380
2 1377 2153
2 1378 2155
2 1379 1897
2 1380 1381
2 1380 1898
2 1382 1383
2 1382 2194
2 1383 1386
2 1383 1664
2 1384 1385
2 1384 1386
2 1384 1665
2 1386 1387
2 1388 1390
2 1388 1404
2 1388 1410
2 1388 1419
2 1389 1391
2 1389 1405
2 1389 1411
2 1390 1392
2 1390 2044
2 1391 1393
2 1391 2045
2 1392 1396
2 1393 1397
2 1394 1396
2 1394 1401
2 1395 1397
2 1395 1403
2 1396 1398
2 1397 1399
2 1404 1408
2 1404 2110
2 1405 2111
2 1406 2112
2 1407 2113
2 1408 1409
2 1408 1652
2 1410 1414
2 1410 2157
2 1411 1416
2 1411 2159
2 1412 2161
2 1413 1958
2 1414 1417
2 1414 1959
2 1415 1960
2 1416 1418
2 1416 1961
2 1419 1420
2 1419 2196
2 1420 1423
2 1420 1627
2 1421 1422
2 1421 1423
2 1421 1628
2 1423 1424
2 1426 1428
2 1426 1440
2 1426 1446
2 1427 1429
2 1427 1441
2 1427 1447
2 1427 1455
2 1428 1430
2 1428 2040
2 1429 1431
2 1429 2041
2 1430 1434
2 1431 1435
2 1432 1434
2 1432 1438
2 1433 1435
2 1433 1439
2 1434 1436
2 1435 1437
2 1440 2114
2 1441 1444
2 1441 2115
2 1442 2116
2 1443 2117
2 1444 1445
2 1444 1615
2 1446 1450
2 1446 2163
2 1447 1452
2 1447 2165
2 1448 2167
2 1449 2021
2 1450 1453
2 1450 2022
2 1451 2023
2 1452 1454
2 1452 2024
2 1455 1456
2 1455 2198
2 1456 1459
2 1456 1592
2 1457 1458
2 1457 1459
2 1457 1593
2 1459 1461
2 1462 1463
2 1462 1470
2 1462 1474
2 1462 1478
2 1463 1464
2 1463 2048
2 1464 1466
2 1465 1466
2 1465 1469
2 1466 1467
2 1470 1472
2 1470 2118
2 1471 2119
2 1472 1473
2 1472 1680
2 1474 1476
2 1474 2168
2 1475 2169
2 1476 1477
2 1476 1791
2 1478 2200
2 1479 1483
2 1479 1765
2 1480 1484
2 1480 1766
2 1481 1483
2 1481 1487
2 1481 1767
2 1482 1484
2 1482 1488
2 1482 1768
2 1483 1485
2 1484 1486
2 1489 1491
2 1489 1505
2 1489 1511
2 1490 1492
2 1490 1506
2 1490 1512
2 1490 1518
2 1491 1493
2 1491 2054
2 1492 1494
2 1492 2055
2 1493 1497
2 1494 1498
2 1495 1497
2 1495 1501
2 1496 1498
2 1496 1503
2 1497 1499
2 1498 1500
2 1505 2120
2 1506 1509
2 1506 2121
2 1507 2122
2 1508 2123
2 1509 1510
2 1509 1755
2 1511 1514
2 1511 2170
2 1512 1515
2 1512 2171
2 1513 2172
2 1514 1516
2 1514 1824
2 1515 1517
2 1515 1825
2 1518 2202
2 1519 1523
2 1519 1725
2 1520 1524
2 1520 1726
2 1521 1523
2 1521 1531
2 1521 1727
2 1522 1524
2 1522 1532
2 1522 1728
2 1523 1527
2 1524 1528
2 1533 1535
2 1533 1547
2 1533 1553
2 1533 1560
2 1534 1536
2 1534 1548
2 1534 1554
2 1535 1537
2 1535 2050
2 1536 1538
2 1536 2051
2 1537 1541
2 1538 1542
2 1539 1541
2 1539 1545
2 1540 1542
2 1540 1546
2 1541 1543
2 1542 1544
2 1547 1551
2 1547 2124
2 1548 2125
2 1549 2126
2 1550 2127
2 1551 1552
2 1551 1715
2 1553 1556
2 1553 2173
2 1554 1557
2 1554 2174
2 1555 2175
2 1556 1558
2 1556 1858
2 1557 1559
2 1557 1859
2 1560 2204
2 1561 1565
2 1561 1687
2 1562 1566
2 1562 1688
2 1563 1565
2 1563 1571
2 1563 1689
2 1564 1566
2 1564 1572
2 1564 1690
2 1565 1567
2 1566 1568
2 1575 1576
2 1575 1582
2 1575 1586
2 1575 1591
2 1576 1577
2 1576 2058
2 1577 1580
2 1577 1779
2 1578 1579
2 1578 1580
2 1578 1780
2 1580 1581
2 1582 1584
2 1582 2108
2 1583 2109
2 1584 1585
2 1586 1589
2 1586 2137
2 1587 2139
2 1589 1590
2 1591 1592
2 1591 2198
2 1592 1594
2 1593 1594
2 1593 1596
2 1594 1595
2 1597 1599
2 1597 1611
2 1597 1617
2 1598 1600
2 1598 1612
2 1598 1618
2 1598 1626
2 1599 1601
2 1599 2060
2 1600 1602
2 1600 2061
2 1601 1607
2 1601 1839
2 1602 1608
2 1602 1840
2 1603 1605
2 1603 1607
2 1603 1841
2 1604 1606
2 1604 1608
2 1604 1842
2 1607 1609
2 1608 1610
2 1611 2114
2 1612 1615
2 1612 2115
2 1613 2116
2 1614 2117
2 1615 1616
2 1617 1621
2 1617 2141
2 1618 1623
2 1618 2143
2 1619 2145
2 1621 1624
2 1623 1625
2 1626 1627
2 1626 2196
2 1627 1629
2 1628 1629
2 1628 1633
2 1629 1631
2 1634 1636
2 1634 1648
2 1634 1654
2 1634 1663
2 1635 1637
2 1635 1649
2 1635 1655
2 1636 1638
2 1636 2064
2 1637 1639
2 1637 2065
2 1638 1644
2 1638 1803
2 1639 1645
2 1639 1804
2 1640 1642
2 1640 1644
2 1640 1805
2 1641 1643
2 1641 1645
2 1641 1806
2 1644 1646
2 1645 1647
2 1648 1652
2 1648 2110
2 1649 2111
2 1650 2112
2 1651 2113
2 1652 1653
2 1654 1658
2 1654 2147
2 1655 1660
2 1655 2149
2 1656 2151
2 1658 1661
2 1660 1662
2 1663 1664
2 1663 2194
2 1664 1666
2 1665 1666
2 1665 1669
2 1666 1667
2 1671 1672
2 1671 1678
2 1671 1682
2 1671 1686
2 1672 1673
2 1672 2068
2 1673 1676
2 1674 1675
2 1674 1676
2 1676 1677
2 1678 1680
2 1678 2118
2 1679 2119
2 1680 1681
2 1682 1684
2 1682 2128
2 1683 2129
2 1684 1685
2 1686 2204
2 1687 1693
2 1688 1694
2 1689 1691
2 1689 1693
2 1690 1692
2 1690 1694
2 1693 1695
2 1694 1696
2 1697 1699
2 1697 1711
2 1697 1717
2 1697 1724
2 1698 1700
2 1698 1712
2 1698 1718
2 1699 1701
2 1699 2070
2 1700 1702
2 1700 2071
2 1701 1707
2 1702 1708
2 1703 1705
2 1703 1707
2 1704 1706
2 1704 1708
2 1707 1709
2 1708 1710
2 1711 1715
2 1711 2124
2 1712 2125
2 1713 2126
2 1714 2127
2 1715 1716
2 1717 1720
2 1717 2130
2 1718 1721
2 1718 2131
2 1719 2132
2 1720 1722
2 1721 1723
2 1724 2202
2 1725 1731
2 1726 1732
2 1727 1729
2 1727 1731
2 1728 1730
2 1728 1732
2 1731 1733
2 1732 1734
2 1737 1739
2 1737 1751
2 1737 1757
2 1738 1740
2 1738 1752
2 1738 1758
2 1738 1764
2 1739 1741
2 1739 2074
2 1740 1742
2 1740 2075
2 1741 1747
2 1742 1748
2 1743 1745
2 1743 1747
2 1744 1746
2 1744 1748
2 1747 1749
2 1748 1750
2 1751 2120
2 1752 1755
2 1752 2121
2 1753 2122
2 1754 2123
2 1755 1756
2 1757 1760
2 1757 2133
2 1758 1761
2 1758 2134
2 1759 2135
2 1760 1762
2 1761 1763
2 1764 2200
2 1765 1771
2 1766 1772
2 1767 1769
2 1767 1771
2 1768 1770
2 1768 1772
2 1771 1775
2 1772 1776
2 1777 1778
2 1777 1785
2 1777 1789
2 1777 1793
2 1778 1779
2 1778 2058
2 1779 1781
2 1780 1781
2 1780 1784
2 1781 1782
2 1785 1787
2 1785 2078
2 1786 2079
2 1787 1788
2 1789 1791
2 1789 2168
2 1790 2169
2 1791 1792
2 1793 1794
2 1793 2180
2 1794 1797
2 1795 1796
2 1795 1797
2 1797 1798
2 1799 1801
2 1799 1815
2 1799 1821
2 1800 1802
2 1800 1816
2 1800 1822
2 1800 1828
2 1801 1803
2 1801 2064
2 1802 1804
2 1802 2065
2 1803 1807
2 1804 1808
2 1805 1807
2 1805 1811
2 1806 1808
2 1806 1813
2 1807 1809
2 1808 1810
2 1815 2084
2 1816 1819
2 1816 2085
2 1817 2086
2 1818 2087
2 1819 1820
2 1821 1824
2 1821 2170
2 1822 1825
2 1822 2171
2 1823 2172
2 1824 1826
2 1825 1827
2 1828 1829
2 1828 2178
2 1829 1832
2 1830 1831
2 1830 1832
2 1832 1834
2 1835 1837
2 1835 1849
2 1835 1855
2 1835 1862
2 1836 1838
2 1836 1850
2 1836 1856
2 1837 1839
2 1837 2060
2 1838 1840
2 1838 2061
2 1839 1843
2 1840 1844
2 1841 1843
2 1841 1847
2 1842 1844
2 1842 1848
2 1843 1845
2 1844 1846
2 1849 1853
2 1849 2080
2 1850 2081
2 1851 2082
2 1852 2083
2 1853 1854
2 1855 1858
2 1855 2173
2 1856 1859
2 1856 2174
2 1857 2175
2 1858 1860
2 1859 1861
2 1862 1863
2 1862 2176
2 1863 1866
2 1864 1865
2 1864 1866
2 1866 1867
2 1869 1871
2 1869 1885
2 1869 1893
2 1869 1901
2 1870 1872
2 1870 1886
2 1870 1894
2 1870 1902
2 1871 1873
2 1872 1874
2 1873 1877
2 1874 1878
2 1875 1877
2 1875 1881
2 1876 1878
2 1876 1882
2 1877 1879
2 1878 1880
2 1885 1889
2 1885 2088
2 1886 1890
2 1886 2089
2 1887 2090
2 1888 2091
2 1889 1891
2 1890 1892
2 1893 1897
2 1893 2152
2 1894 1898
2 1894 2153
2 1895 2154
2 1896 2155
2 1897 1899
2 1898 1900
2 1901 2190
2 1902 2191
2 1903 1905
2 1904 1905
2 1904 1907
2 1905 1906
2 1908 1912
2 1908 1940
2 1908 1952
2 1908 1966
2 1909 1913
2 1909 1941
2 1909 1953
2 1909 1967
2 1910 1914
2 1910 1942
2 1910 1954
2 1911 1915
2 1911 1943
2 1911 1955
2 1912 1916
2 1913 1917
2 1914 1918
2 1915 1919
2 1916 1924
2 1917 1925
2 1918 1926
2 1919 1927
2 1920 1924
2 1920 1934
2 1921 1925
2 1921 1935
2 1922 1926
2 1922 1938
2 1923 1927
2 1923 1939
2 1924 1928
2 1925 1929
2 1926 1930
2 1927 1931
2 1940 1948
2 1940 2100
2 1941 1949
2 1941 2101
2 1942 2102
2 1943 2103
2 1944 2104
2 1945 2105
2 1946 2106
2 1947 2107
2 1948 1950
2 1949 1951
2 1952 1958
2 1952 2156
2 1953 1959
2 1953 2157
2 1954 1960
2 1954 2158
2 1955 1961
2 1955 2159
2 1956 2160
2 1957 2161
2 1958 1962
2 1959 1963
2 1960 1964
2 1961 1965
2 1966 2186
2 1967 2187
2 1968 1970
2 1969 1970
2 1969 1973
2 1970 1971
2 1975 1979
2 1975 2003
2 1975 2015
2 1976 1980
2 1976 2004
2 1976 2016
2 1977 1981
2 1977 2005
2 1977 2017
2 1977 2029
2 1978 1982
2 1978 2006
2 1978 2018
2 1978 2030
2 1979 1983
2 1980 1984
2 1981 1985
2 1982 1986
2 1983 1991
2 1984 1992
2 1985 1993
2 1986 1994
2 1987 1991
2 1987 1999
2 1988 1992
2 1988 2000
2 1989 1993
2 1989 2001
2 1990 1994
2 1990 2002
2 1991 1995
2 1992 1996
2 1993 1997
2 1994 1998
2 2003 2092
2 2004 2093
2 2005 2011
2 2005 2094
2 2006 2012
2 2006 2095
2 2007 2096
2 2008 2097
2 2009 2098
2 2010 2099
2 2011 2013
2 2012 2014
2 2015 2021
2 2015 2162
2 2016 2022
2 2016 2163
2 2017 2023
2 2017 2164
2 2018 2024
2 2018 2165
2 2019 2166
2 2020 2167
2 2021 2025
2 2022 2026
2 2023 2027
2 2024 2028
2 2029 2182
2 2030 2183
2 2031 2033
2 2032 2033
2 2032 2037
2 2033 2035
2 2038 2039
2 2040 2042
2 2041 2043
2 2044 2046
2 2045 2047
2 2048 2049
2 2050 2052
2 2051 2053
2 2054 2056
2 2055 2057
2 2058 2059
2 2060 2062
2 2061 2063
2 2064 2066
2 2065 2067
2 2068 2069
2 2070 2072
2 2071 2073
2 2074 2076
2 2075 2077
2 2078 2079
2 2080 2082
2 2081 2083
2 2084 2086
2 2085 2087
2 2088 2090
2 2089 2091
2 2092 2096
2 2093 2097
2 2094 2098
2 2095 2099
2 2100 2104
2 2101 2105
2 2102 2106
2 2103 2107
2 2108 2109
2 2110 2112
2 2111 2113
2 2114 2116
2 2115 2117
2 2118 2119
2 2120 2122
2 2121 2123
2 2124 2126
2 2125 2127
2 2128 2129
2 2130 2132
2 2134 2135
2 2136 2138
2 2137 2139
2 2142 2144
2 2143 2145
2 2146 2150
2 2147 2151
2 2152 2154
2 2153 2155
2 2156 2160
2 2157 2161
2 2164 2166
2 2165 2167
2 2168 2169
2 2171 2172
2 2173 2175
2 2176 2177
2 2178 2179
2 2180 2181
2 2182 2184
2 2183 2185
2 2186 2188
2 2187 2189
2 2190 2192
2 2191 2193
2 2194 2195
2 2196 2197
2 2198 2199
2 2200 2201
2 2202 2203
2 2204 2205
