# vtk DataFile Version 1.0
Cube
ASCII

DATASET POLYDATA
POINTS 1252 float
7.021161 7.500361 7.845183
5.275489 7.718800 8.749217
4.432976 6.670652 9.236362
3.289192 4.630828 9.209191
3.179640 3.745324 8.879251
4.303860 5.403386 8.764743
4.922051 5.064545 8.130095
8.254282 8.997361 8.339704
6.287548 10.217189 7.316891
9.450233 8.773726 9.061689
9.724115 7.960507 9.467320
6.376234 7.280566 5.997134
9.061582 7.341557 5.923383
5.099422 7.269271 5.562390
4.328640 7.262494 6.115524
7.873455 5.848397 8.531845
7.969966 5.405645 9.818608
7.933449 5.315287 12.145652
7.433940 6.022336 10.963692
6.849658 6.772304 10.967574
6.934431 6.309221 13.539160
16.077917 2.330323 7.845183
16.761578 0.709307 8.749217
18.090558 0.503744 9.236362
20.428989 0.533110 9.209191
21.250635 0.880987 8.879251
19.252600 1.025559 8.764743
19.236950 1.730349 8.130095
14.164916 2.649737 8.339704
14.091881 0.336582 7.316891
13.760614 3.797279 9.061689
14.327941 4.441077 9.467320
16.590728 1.881698 5.997134
15.195234 4.176781 5.923383
17.238916 0.781593 5.562390
17.630176 0.117465 6.115524
17.082412 3.894414 8.531845
17.417591 4.199371 9.818608
17.514102 4.212924 12.145652
17.151534 3.426813 10.963692
16.794183 2.545826 10.967574
17.152838 2.850783 13.539160
16.026923 12.758723 7.845183
17.088933 14.161299 8.749217
16.602466 15.415011 9.236362
15.407819 17.425468 9.209191
14.695726 17.963096 8.879251
15.569540 16.160462 8.764743
14.966999 15.794513 8.130095
16.706802 10.942309 8.339704
18.746571 12.035636 7.316891
15.915153 10.018402 9.061689
15.073944 10.187822 9.467320
16.159038 13.427143 5.997134
14.869184 11.071068 5.923383
16.787662 14.538542 5.562390
17.167185 15.209447 6.115524
14.170133 12.846596 8.531845
13.738443 12.984391 9.818608
13.678450 13.061195 12.145652
14.540526 13.140258 10.963692
15.482158 13.271276 10.967574
15.038730 13.429402 13.539160
6.020839 15.089046 17.549283
7.766511 14.870606 18.453317
8.609024 15.918755 18.940462
9.752808 17.958578 18.913291
9.862360 18.844083 18.583352
8.738140 17.186021 18.468843
8.119949 17.524862 17.834195
4.787718 13.592046 18.043804
6.754452 12.372218 17.020991
3.591767 13.815681 18.765789
3.317885 14.628900 19.171420
6.665766 15.308841 15.701234
3.980418 15.247849 15.627483
7.942578 15.320136 15.266490
8.713360 15.326912 15.819624
5.168545 16.741009 18.235945
5.072034 17.183762 0.114508
5.108551 17.274119 2.441552
5.274185 16.874287 3.287749
5.608060 16.567071 1.259592
6.192342 15.817103 1.263474
-3.035917 20.259083 17.549283
-3.719578 21.880099 18.453317
-5.048558 22.085663 18.940462
-7.386989 22.056297 18.913291
-8.208635 21.708420 18.583352
-6.210600 21.563848 18.468843
-6.194950 20.859058 17.834195
-1.122916 19.939669 18.043804
-1.049881 22.252824 17.020991
-0.718614 18.792127 18.765789
-1.285941 18.148329 19.171420
-3.548728 20.707709 15.701234
-2.153234 18.412625 15.627483
-4.196916 21.807813 15.266490
-4.588176 22.471942 15.819624
-4.040412 18.694993 18.235945
-4.375591 18.390036 0.114508
-4.472102 18.376482 2.441552
-4.208653 18.719841 3.287749
-4.109534 19.162594 1.259592
-3.752183 20.043581 1.263474
-2.984923 9.830684 17.549283
-4.046933 8.428108 18.453317
-3.560466 7.174396 18.940462
-2.365819 5.163938 18.913291
-1.653726 4.626310 18.583352
-2.527540 6.428945 18.468843
-1.924999 6.794894 17.834195
-3.664802 11.647098 18.043804
-5.704571 10.553771 17.020991
-2.873153 12.571005 18.765789
-2.031944 12.401584 19.171420
-3.117038 9.162263 15.701234
-1.827184 11.518338 15.627483
-3.745662 8.050865 15.266490
-4.125185 7.379959 15.819624
-1.128133 9.742811 18.235945
-0.696443 9.605016 0.114508
-0.636450 9.528212 2.441552
-1.065531 9.584685 3.287749
-1.498526 9.449149 1.259592
-2.440158 9.318130 1.263474
2.984923 9.830684 11.563017
4.046933 8.428108 10.658983
3.560466 7.174396 10.171838
2.365819 5.163938 10.199009
2.527540 6.428945 10.643457
1.924999 6.794894 11.278105
1.189430 4.029950 10.558061
3.664802 11.647098 11.068496
5.704571 10.553771 12.091309
2.873153 12.571005 10.346511
2.031944 12.401584 9.940880
3.117038 9.162263 13.411066
1.827184 11.518338 13.484817
3.745662 8.050865 13.845810
4.125185 7.379959 13.292676
1.128133 9.742811 10.876355
0.696443 9.605016 9.589592
0.636450 9.528212 7.262548
1.065531 9.584685 6.416351
1.498526 9.449149 8.444508
2.440158 9.318130 8.440626
-6.020839 15.089046 11.563017
-7.766511 14.870606 10.658983
-8.609024 15.918755 10.171838
-9.752808 17.958578 10.199009
-8.738140 17.186021 10.643457
-8.119949 17.524862 11.278105
-10.146676 19.544355 10.558061
-4.787718 13.592046 11.068496
-6.754452 12.372218 12.091309
-3.591767 13.815681 10.346511
-3.317885 14.628900 9.940880
-6.665766 15.308841 13.411066
-3.980418 15.247849 13.484817
-7.942578 15.320136 13.845810
-8.713360 15.326912 13.292676
-5.168545 16.741009 10.876355
-5.072034 17.183762 9.589592
-5.108551 17.274119 7.262548
-5.274185 16.874287 6.416351
-5.608060 16.567071 8.444508
-6.192342 15.817103 8.440626
3.035917 20.259083 11.563017
3.719578 21.880099 10.658983
5.048558 22.085663 10.171838
7.386989 22.056297 10.199009
6.210600 21.563848 10.643457
6.194950 20.859058 11.278105
8.957246 21.604509 10.558061
1.122916 19.939669 11.068496
1.049881 22.252824 12.091309
0.718614 18.792127 10.346511
1.285941 18.148329 9.940880
3.548728 20.707709 13.411066
2.153234 18.412625 13.484817
4.196916 21.807813 13.845810
4.588176 22.471942 13.292676
4.040412 18.694993 10.876355
4.375591 18.390036 9.589592
4.472102 18.376482 7.262548
4.208653 18.719841 6.416351
4.109534 19.162594 8.444508
3.752183 20.043581 8.440626
10.057077 12.758723 1.858917
8.995067 14.161299 0.954883
9.481534 15.415011 0.467738
10.676181 17.425468 0.494909
10.514460 16.160462 0.939357
11.117001 15.794513 1.574005
11.852570 18.559456 0.853961
9.377198 10.942309 1.364396
7.337429 12.035636 2.387209
10.168847 10.018402 0.642411
11.010056 10.187822 0.236780
9.924962 13.427143 3.706966
11.214816 11.071068 3.780717
9.296338 14.538542 4.141710
8.916815 15.209447 3.588576
11.913867 12.846596 1.172255
12.345557 12.984391 19.293692
12.405550 13.061195 16.966648
11.543474 13.140258 18.148608
10.601842 13.271276 18.144726
11.045270 13.429402 15.573140
19.062839 7.500361 1.858917
20.808511 7.718800 0.954883
21.651024 6.670652 0.467738
22.794808 4.630828 0.494909
21.780140 5.403386 0.939357
21.161949 5.064545 1.574005
23.188676 3.045052 0.853961
17.829718 8.997361 1.364396
19.796452 10.217189 2.387209
16.633767 8.773726 0.642411
16.359885 7.960507 0.236780
19.707766 7.280566 3.706966
17.022418 7.341557 3.780717
20.984578 7.269271 4.141710
21.755360 7.262494 3.588576
18.210545 5.848397 1.172255
18.114034 5.405645 19.293692
18.150551 5.315287 16.966648
18.650060 6.022336 18.148608
19.234342 6.772304 18.144726
19.149569 6.309221 15.573140
10.006083 2.330323 1.858917
9.322422 0.709307 0.954883
7.993442 0.503744 0.467738
5.655011 0.533110 0.494909
6.831400 1.025559 0.939357
6.847050 1.730349 1.574005
4.084754 0.984898 0.853961
11.919084 2.649737 1.364396
11.992119 0.336582 2.387209
12.323386 3.797279 0.642411
11.756059 4.441077 0.236780
9.493272 1.881698 3.706966
10.888766 4.176781 3.780717
8.845084 0.781593 4.141710
8.453824 0.117465 3.588576
9.001588 3.894414 1.172255
8.666409 4.199371 19.293692
8.569898 4.212924 16.966648
8.932466 3.426813 18.148608
9.289817 2.545826 18.144726
8.931162 2.850783 15.573140
6.020839 15.089046 11.563017
7.766511 14.870606 10.658983
8.609024 15.918755 10.171838
9.752808 17.958578 10.199009
9.862360 18.844083 10.528949
8.738140 17.186021 10.643457
8.119949 17.524862 11.278105
4.787718 13.592046 11.068496
6.754452 12.372218 12.091309
3.591767 13.815681 10.346511
3.317885 14.628900 9.940880
6.665766 15.308841 13.411066
3.980418 15.247849 13.484817
7.942578 15.320136 13.845810
8.713360 15.326912 13.292676
5.168545 16.741009 10.876355
5.072034 17.183762 9.589592
5.108551 17.274119 7.262548
5.608060 16.567071 8.444508
6.192342 15.817103 8.440626
6.107569 16.280185 5.869040
-3.035917 20.259083 11.563017
-3.719578 21.880099 10.658983
-5.048558 22.085663 10.171838
-7.386989 22.056297 10.199009
-8.208635 21.708420 10.528949
-6.210600 21.563848 10.643457
-6.194950 20.859058 11.278105
-1.122916 19.939669 11.068496
-1.049881 22.252824 12.091309
-0.718614 18.792127 10.346511
-1.285941 18.148329 9.940880
-3.548728 20.707709 13.411066
-2.153234 18.412625 13.484817
-4.196916 21.807813 13.845810
-4.588176 22.471942 13.292676
-4.040412 18.694993 10.876355
-4.375591 18.390036 9.589592
-4.472102 18.376482 7.262548
-4.109534 19.162594 8.444508
-3.752183 20.043581 8.440626
-4.110838 19.738624 5.869040
-2.984923 9.830684 11.563017
-4.046933 8.428108 10.658983
-3.560466 7.174396 10.171838
-2.365819 5.163938 10.199009
-1.653726 4.626310 10.528949
-2.527540 6.428945 10.643457
-1.924999 6.794894 11.278105
-3.664802 11.647098 11.068496
-5.704571 10.553771 12.091309
-2.873153 12.571005 10.346511
-2.031944 12.401584 9.940880
-3.117038 9.162263 13.411066
-1.827184 11.518338 13.484817
-3.745662 8.050865 13.845810
-4.125185 7.379959 13.292676
-1.128133 9.742811 10.876355
-0.696443 9.605016 9.589592
-0.636450 9.528212 7.262548
-1.498526 9.449149 8.444508
-2.440158 9.318130 8.440626
-1.996730 9.160004 5.869040
7.021161 7.500361 1.858917
5.275489 7.718800 0.954883
4.432976 6.670652 0.467738
3.289192 4.630828 0.494909
3.179640 3.745324 0.824849
4.303860 5.403386 0.939357
4.922051 5.064545 1.574005
8.254282 8.997361 1.364396
6.287548 10.217189 2.387209
9.450233 8.773726 0.642411
9.724115 7.960507 0.236780
6.376234 7.280566 3.706966
9.061582 7.341557 3.780717
5.099422 7.269271 4.141710
4.328640 7.262494 3.588576
7.873455 5.848397 1.172255
7.969966 5.405645 19.293692
7.933449 5.315287 16.966648
7.767815 5.715120 16.120451
7.433940 6.022336 18.148608
6.849658 6.772304 18.144726
16.077917 2.330323 1.858917
16.761578 0.709307 0.954883
18.090558 0.503744 0.467738
20.428989 0.533110 0.494909
21.250635 0.880987 0.824849
19.252600 1.025559 0.939357
19.236950 1.730349 1.574005
14.164916 2.649737 1.364396
14.091881 0.336582 2.387209
13.760614 3.797279 0.642411
14.327941 4.441077 0.236780
16.590728 1.881698 3.706966
15.195234 4.176781 3.780717
17.238916 0.781593 4.141710
17.630176 0.117465 3.588576
17.082412 3.894414 1.172255
17.417591 4.199371 19.293692
17.514102 4.212924 16.966648
17.250653 3.869565 16.120451
17.151534 3.426813 18.148608
16.794183 2.545826 18.144726
16.026923 12.758723 1.858917
17.088933 14.161299 0.954883
16.602466 15.415011 0.467738
15.407819 17.425468 0.494909
14.695726 17.963096 0.824849
15.569540 16.160462 0.939357
14.966999 15.794513 1.574005
16.706802 10.942309 1.364396
18.746571 12.035636 2.387209
15.915153 10.018402 0.642411
15.073944 10.187822 0.236780
16.159038 13.427143 3.706966
14.869184 11.071068 3.780717
16.787662 14.538542 4.141710
17.167185 15.209447 3.588576
14.170133 12.846596 1.172255
13.738443 12.984391 19.293692
13.678450 13.061195 16.966648
14.107531 13.004721 16.120451
14.540526 13.140258 18.148608
15.482158 13.271276 18.144726
10.057077 12.758723 7.845183
8.995067 14.161299 8.749217
9.481534 15.415011 9.236362
10.676181 17.425468 9.209191
10.514460 16.160462 8.764743
11.117001 15.794513 8.130095
11.852570 18.559456 8.850139
9.377198 10.942309 8.339704
7.337429 12.035636 7.316891
10.168847 10.018402 9.061689
11.010056 10.187822 9.467320
9.924962 13.427143 5.997134
11.214816 11.071068 5.923383
9.296338 14.538542 5.562390
8.916815 15.209447 6.115524
11.913867 12.846596 8.531845
12.345557 12.984391 9.818608
12.405550 13.061195 12.145652
11.976469 13.004721 12.991849
11.543474 13.140258 10.963692
10.601842 13.271276 10.967574
19.062839 7.500361 7.845183
20.808511 7.718800 8.749217
21.651024 6.670652 9.236362
22.794808 4.630828 9.209191
21.780140 5.403386 8.764743
21.161949 5.064545 8.130095
23.188676 3.045052 8.850139
17.829718 8.997361 8.339704
19.796452 10.217189 7.316891
16.633767 8.773726 9.061689
16.359885 7.960507 9.467320
19.707766 7.280566 5.997134
17.022418 7.341557 5.923383
20.984578 7.269271 5.562390
21.755360 7.262494 6.115524
18.210545 5.848397 8.531845
18.114034 5.405645 9.818608
18.150551 5.315287 12.145652
18.316185 5.715120 12.991849
18.650060 6.022336 10.963692
19.234342 6.772304 10.967574
10.006083 2.330323 7.845183
9.322422 0.709307 8.749217
7.993442 0.503744 9.236362
5.655011 0.533110 9.209191
6.831400 1.025559 8.764743
6.847050 1.730349 8.130095
4.084754 0.984898 8.850139
11.919084 2.649737 8.339704
11.992119 0.336582 7.316891
12.323386 3.797279 9.061689
11.756059 4.441077 9.467320
9.493272 1.881698 5.997134
10.888766 4.176781 5.923383
8.845084 0.781593 5.562390
8.453824 0.117465 6.115524
9.001588 3.894414 8.531845
8.666409 4.199371 9.818608
8.569898 4.212924 12.145652
8.833347 3.869565 12.991849
8.932466 3.426813 10.963692
9.289817 2.545826 10.967574
2.984923 9.830684 17.549283
4.046933 8.428108 18.453317
3.560466 7.174396 18.940462
2.365819 5.163938 18.913291
2.527540 6.428945 18.468843
1.924999 6.794894 17.834195
1.189430 4.029950 18.554239
3.664802 11.647098 18.043804
5.704571 10.553771 17.020991
2.873153 12.571005 18.765789
2.031944 12.401584 19.171420
3.117038 9.162263 15.701234
1.827184 11.518338 15.627483
3.745662 8.050865 15.266490
4.125185 7.379959 15.819624
1.128133 9.742811 18.235945
0.696443 9.605016 0.114508
0.636450 9.528212 2.441552
1.498526 9.449149 1.259592
2.440158 9.318130 1.263474
1.996730 9.160004 3.835060
-6.020839 15.089046 17.549283
-7.766511 14.870606 18.453317
-8.609024 15.918755 18.940462
-9.752808 17.958578 18.913291
-8.738140 17.186021 18.468843
-8.119949 17.524862 17.834195
-10.146676 19.544355 18.554239
-4.787718 13.592046 18.043804
-6.754452 12.372218 17.020991
-3.591767 13.815681 18.765789
-3.317885 14.628900 19.171420
-6.665766 15.308841 15.701234
-3.980418 15.247849 15.627483
-7.942578 15.320136 15.266490
-8.713360 15.326912 15.819624
-5.168545 16.741009 18.235945
-5.072034 17.183762 0.114508
-5.108551 17.274119 2.441552
-5.608060 16.567071 1.259592
-6.192342 15.817103 1.263474
-6.107569 16.280185 3.835060
3.035917 20.259083 17.549283
3.719578 21.880099 18.453317
5.048558 22.085663 18.940462
7.386989 22.056297 18.913291
6.210600 21.563848 18.468843
6.194950 20.859058 17.834195
8.957246 21.604509 18.554239
1.122916 19.939669 18.043804
1.049881 22.252824 17.020991
0.718614 18.792127 18.765789
1.285941 18.148329 19.171420
3.548728 20.707709 15.701234
2.153234 18.412625 15.627483
4.196916 21.807813 15.266490
4.588176 22.471942 15.819624
4.040412 18.694993 18.235945
4.375591 18.390036 0.114508
4.472102 18.376482 2.441552
4.109534 19.162594 1.259592
3.752183 20.043581 1.263474
4.110838 19.738624 3.835060
5.001607 8.663037 9.704100
5.476336 9.485292 9.704100
16.080786 0.000000 9.704100
3.038786 22.589407 9.704100
15.131328 0.000000 9.704100
2.089328 22.589407 9.704100
-8.040393 13.926369 9.704100
18.043607 13.926369 9.704100
-7.565664 13.104115 9.704100
18.518336 13.104115 9.704100
8.040393 13.926369 0.000000
8.040393 13.926369 38.816400
7.565664 13.104115 0.000000
7.565664 13.104115 38.816400
10.003214 0.000000 0.000000
10.003214 0.000000 38.816400
-3.038786 22.589407 0.000000
-3.038786 22.589407 38.816400
10.952672 0.000000 0.000000
10.952672 0.000000 38.816400
-2.089328 22.589407 0.000000
-2.089328 22.589407 38.816400
-5.001607 8.663037 0.000000
-5.001607 8.663037 38.816400
21.082393 8.663037 0.000000
21.082393 8.663037 38.816400
-5.476336 9.485292 0.000000
-5.476336 9.485292 38.816400
20.607664 9.485292 0.000000
20.607664 9.485292 38.816400
8.040393 13.926369 9.704100
7.565664 13.104115 9.704100
10.003214 0.000000 9.704100
-3.038786 22.589407 9.704100
10.952672 0.000000 9.704100
-2.089328 22.589407 9.704100
-5.001607 8.663037 9.704100
21.082393 8.663037 9.704100
-5.476336 9.485292 9.704100
20.607664 9.485292 9.704100
5.001607 8.663037 0.000000
5.001607 8.663037 38.816400
5.476336 9.485292 0.000000
5.476336 9.485292 38.816400
16.080786 0.000000 0.000000
16.080786 0.000000 38.816400
3.038786 22.589407 0.000000
3.038786 22.589407 38.816400
15.131328 0.000000 0.000000
15.131328 0.000000 38.816400
2.089328 22.589407 0.000000
2.089328 22.589407 38.816400
-8.040393 13.926369 0.000000
-8.040393 13.926369 38.816400
18.043607 13.926369 0.000000
18.043607 13.926369 38.816400
-7.565664 13.104115 0.000000
-7.565664 13.104115 38.816400
18.518336 13.104115 0.000000
18.518336 13.104115 38.816400
8.399048 10.210412 7.932131
7.272219 10.860987 7.394524
13.042000 2.168583 7.932131
13.042000 0.867433 7.394524
17.684952 10.210412 7.932131
18.811781 10.860987 7.394524
4.642952 12.378995 17.636231
5.769781 11.728420 17.098624
0.000000 20.420824 17.636231
0.000000 21.721973 17.098624
-4.642952 12.378995 17.636231
-5.769781 11.728420 17.098624
4.642952 12.378995 11.476069
5.769781 11.728420 12.013676
-4.642952 12.378995 11.476069
-5.769781 11.728420 12.013676
0.000000 20.420824 11.476069
0.000000 21.721973 12.013676
8.399048 10.210412 1.771969
7.272219 10.860987 2.309576
17.684952 10.210412 1.771969
18.811781 10.860987 2.309576
13.042000 2.168583 1.771969
13.042000 0.867433 2.309576
7.062243 7.280566 4.852050
8.504688 7.334780 4.852050
16.247724 2.475799 4.852050
15.479550 3.697886 4.852050
15.816033 12.833042 4.852050
15.141762 11.556740 4.852050
5.979757 15.308841 14.556150
4.537312 15.254626 14.556150
-3.205724 20.113608 14.556150
-2.437550 18.891521 14.556150
-2.774033 9.756365 14.556150
-2.099762 11.032666 14.556150
2.774033 9.756365 14.556150
2.099762 11.032666 14.556150
-5.979757 15.308841 14.556150
-4.537312 15.254626 14.556150
3.205724 20.113608 14.556150
2.437550 18.891521 14.556150
10.267967 12.833042 4.852050
10.942238 11.556740 4.852050
19.021757 7.280566 4.852050
17.579312 7.334780 4.852050
9.836276 2.475799 4.852050
10.604450 3.697886 4.852050
8.527512 4.923361 7.848676
8.648802 4.993388 6.909319
17.556488 4.923361 7.848676
17.435198 4.993388 6.909319
13.042000 12.742684 7.848676
13.042000 12.602630 6.909319
4.514488 17.666045 17.552776
4.393198 17.596018 16.613419
-4.514488 17.666045 17.552776
-4.393198 17.596018 16.613419
0.000000 9.846722 17.552776
0.000000 9.986777 16.613419
0.000000 9.846722 11.559524
0.000000 9.986777 12.498881
-4.514488 17.666045 11.559524
-4.393198 17.596018 12.498881
4.514488 17.666045 11.559524
4.393198 17.596018 12.498881
13.042000 12.742684 1.855424
13.042000 12.602630 2.794781
17.556488 4.923361 1.855424
17.435198 4.993388 2.794781
8.527512 4.923361 1.855424
8.648802 4.993388 2.794781
7.021161 7.500361 27.253383
5.275489 7.718800 28.157417
4.432976 6.670652 28.644562
3.289192 4.630828 28.617391
3.179640 3.745324 28.287452
4.303860 5.403386 28.172943
4.922051 5.064545 27.538295
8.254282 8.997361 27.747904
6.287548 10.217189 26.725091
9.450233 8.773726 28.469889
9.724115 7.960507 28.875520
6.376234 7.280566 25.405334
9.061582 7.341557 25.331583
5.099422 7.269271 24.970590
4.328640 7.262494 25.523724
7.873455 5.848397 27.940045
7.969966 5.405645 29.226808
7.933449 5.315287 31.553852
7.433940 6.022336 30.371892
6.849658 6.772304 30.375774
6.934431 6.309221 32.947360
16.077917 2.330323 27.253383
16.761578 0.709307 28.157417
18.090558 0.503744 28.644562
20.428989 0.533110 28.617391
21.250635 0.880987 28.287452
19.252600 1.025559 28.172943
19.236950 1.730349 27.538295
14.164916 2.649737 27.747904
14.091881 0.336582 26.725091
13.760614 3.797279 28.469889
14.327941 4.441077 28.875520
16.590728 1.881698 25.405334
15.195234 4.176781 25.331583
17.238916 0.781593 24.970590
17.630176 0.117465 25.523724
17.082412 3.894414 27.940045
17.417591 4.199371 29.226808
17.514102 4.212924 31.553852
17.151534 3.426813 30.371892
16.794183 2.545826 30.375774
17.152838 2.850783 32.947360
16.026923 12.758723 27.253383
17.088933 14.161299 28.157417
16.602466 15.415011 28.644562
15.407819 17.425468 28.617391
14.695726 17.963096 28.287452
15.569540 16.160462 28.172943
14.966999 15.794513 27.538295
16.706802 10.942309 27.747904
18.746571 12.035636 26.725091
15.915153 10.018402 28.469889
15.073944 10.187822 28.875520
16.159038 13.427143 25.405334
14.869184 11.071068 25.331583
16.787662 14.538542 24.970590
17.167185 15.209447 25.523724
14.170133 12.846596 27.940045
13.738443 12.984391 29.226808
13.678450 13.061195 31.553852
14.540526 13.140258 30.371892
15.482158 13.271276 30.375774
15.038730 13.429402 32.947360
6.020839 15.089046 36.957483
7.766511 14.870606 37.861517
8.609024 15.918755 38.348662
9.752808 17.958578 38.321491
9.862360 18.844083 37.991551
8.738140 17.186021 37.877043
8.119949 17.524862 37.242395
4.787718 13.592046 37.452004
6.754452 12.372218 36.429191
3.591767 13.815681 38.173989
3.317885 14.628900 38.579620
6.665766 15.308841 35.109434
3.980418 15.247849 35.035683
7.942578 15.320136 34.674690
8.713360 15.326912 35.227824
5.168545 16.741009 37.644145
5.072034 17.183762 19.522708
5.108551 17.274119 21.849752
5.274185 16.874287 22.695949
5.608060 16.567071 20.667792
6.192342 15.817103 20.671674
-3.035917 20.259083 36.957483
-3.719578 21.880099 37.861517
-5.048558 22.085663 38.348662
-7.386989 22.056297 38.321491
-8.208635 21.708420 37.991551
-6.210600 21.563848 37.877043
-6.194950 20.859058 37.242395
-1.122916 19.939669 37.452004
-1.049881 22.252824 36.429191
-0.718614 18.792127 38.173989
-1.285941 18.148329 38.579620
-3.548728 20.707709 35.109434
-2.153234 18.412625 35.035683
-4.196916 21.807813 34.674690
-4.588176 22.471942 35.227824
-4.040412 18.694993 37.644145
-4.375591 18.390036 19.522708
-4.472102 18.376482 21.849752
-4.208653 18.719841 22.695949
-4.109534 19.162594 20.667792
-3.752183 20.043581 20.671674
-2.984923 9.830684 36.957483
-4.046933 8.428108 37.861517
-3.560466 7.174396 38.348662
-2.365819 5.163938 38.321491
-1.653726 4.626310 37.991551
-2.527540 6.428945 37.877043
-1.924999 6.794894 37.242395
-3.664802 11.647098 37.452004
-5.704571 10.553771 36.429191
-2.873153 12.571005 38.173989
-2.031944 12.401584 38.579620
-3.117038 9.162263 35.109434
-1.827184 11.518338 35.035683
-3.745662 8.050865 34.674690
-4.125185 7.379959 35.227824
-1.128133 9.742811 37.644145
-0.696443 9.605016 19.522708
-0.636450 9.528212 21.849752
-1.065531 9.584685 22.695949
-1.498526 9.449149 20.667792
-2.440158 9.318130 20.671674
2.984923 9.830684 30.971217
4.046933 8.428108 30.067183
3.560466 7.174396 29.580038
2.365819 5.163938 29.607209
2.527540 6.428945 30.051657
1.924999 6.794894 30.686305
1.189430 4.029950 29.966261
3.664802 11.647098 30.476696
5.704571 10.553771 31.499509
2.873153 12.571005 29.754711
2.031944 12.401584 29.349080
3.117038 9.162263 32.819266
1.827184 11.518338 32.893017
3.745662 8.050865 33.254010
4.125185 7.379959 32.700876
1.128133 9.742811 30.284555
0.696443 9.605016 28.997792
0.636450 9.528212 26.670748
1.065531 9.584685 25.824551
1.498526 9.449149 27.852708
2.440158 9.318130 27.848826
-6.020839 15.089046 30.971217
-7.766511 14.870606 30.067183
-8.609024 15.918755 29.580038
-9.752808 17.958578 29.607209
-8.738140 17.186021 30.051657
-8.119949 17.524862 30.686305
-10.146676 19.544355 29.966261
-4.787718 13.592046 30.476696
-6.754452 12.372218 31.499509
-3.591767 13.815681 29.754711
-3.317885 14.628900 29.349080
-6.665766 15.308841 32.819266
-3.980418 15.247849 32.893017
-7.942578 15.320136 33.254010
-8.713360 15.326912 32.700876
-5.168545 16.741009 30.284555
-5.072034 17.183762 28.997792
-5.108551 17.274119 26.670748
-5.274185 16.874287 25.824551
-5.608060 16.567071 27.852708
-6.192342 15.817103 27.848826
3.035917 20.259083 30.971217
3.719578 21.880099 30.067183
5.048558 22.085663 29.580038
7.386989 22.056297 29.607209
6.210600 21.563848 30.051657
6.194950 20.859058 30.686305
8.957246 21.604509 29.966261
1.122916 19.939669 30.476696
1.049881 22.252824 31.499509
0.718614 18.792127 29.754711
1.285941 18.148329 29.349080
3.548728 20.707709 32.819266
2.153234 18.412625 32.893017
4.196916 21.807813 33.254010
4.588176 22.471942 32.700876
4.040412 18.694993 30.284555
4.375591 18.390036 28.997792
4.472102 18.376482 26.670748
4.208653 18.719841 25.824551
4.109534 19.162594 27.852708
3.752183 20.043581 27.848826
10.057077 12.758723 21.267117
8.995067 14.161299 20.363083
9.481534 15.415011 19.875938
10.676181 17.425468 19.903109
10.514460 16.160462 20.347557
11.117001 15.794513 20.982205
11.852570 18.559456 20.262161
9.377198 10.942309 20.772596
7.337429 12.035636 21.795409
10.168847 10.018402 20.050611
11.010056 10.187822 19.644980
9.924962 13.427143 23.115166
11.214816 11.071068 23.188917
9.296338 14.538542 23.549910
8.916815 15.209447 22.996776
11.913867 12.846596 20.580455
12.345557 12.984391 38.701892
12.405550 13.061195 36.374848
11.543474 13.140258 37.556808
10.601842 13.271276 37.552926
11.045270 13.429402 34.981340
19.062839 7.500361 21.267117
20.808511 7.718800 20.363083
21.651024 6.670652 19.875938
22.794808 4.630828 19.903109
21.780140 5.403386 20.347557
21.161949 5.064545 20.982205
23.188676 3.045052 20.262161
17.829718 8.997361 20.772596
19.796452 10.217189 21.795409
16.633767 8.773726 20.050611
16.359885 7.960507 19.644980
19.707766 7.280566 23.115166
17.022418 7.341557 23.188917
20.984578 7.269271 23.549910
21.755360 7.262494 22.996776
18.210545 5.848397 20.580455
18.114034 5.405645 38.701892
18.150551 5.315287 36.374848
18.650060 6.022336 37.556808
19.234342 6.772304 37.552926
19.149569 6.309221 34.981340
10.006083 2.330323 21.267117
9.322422 0.709307 20.363083
7.993442 0.503744 19.875938
5.655011 0.533110 19.903109
6.831400 1.025559 20.347557
6.847050 1.730349 20.982205
4.084754 0.984898 20.262161
11.919084 2.649737 20.772596
11.992119 0.336582 21.795409
12.323386 3.797279 20.050611
11.756059 4.441077 19.644980
9.493272 1.881698 23.115166
10.888766 4.176781 23.188917
8.845084 0.781593 23.549910
8.453824 0.117465 22.996776
9.001588 3.894414 20.580455
8.666409 4.199371 38.701892
8.569898 4.212924 36.374848
8.932466 3.426813 37.556808
9.289817 2.545826 37.552926
8.931162 2.850783 34.981340
6.020839 15.089046 30.971217
7.766511 14.870606 30.067183
8.609024 15.918755 29.580038
9.752808 17.958578 29.607209
9.862360 18.844083 29.937148
8.738140 17.186021 30.051657
8.119949 17.524862 30.686305
4.787718 13.592046 30.476696
6.754452 12.372218 31.499509
3.591767 13.815681 29.754711
3.317885 14.628900 29.349080
6.665766 15.308841 32.819266
3.980418 15.247849 32.893017
7.942578 15.320136 33.254010
8.713360 15.326912 32.700876
5.168545 16.741009 30.284555
5.072034 17.183762 28.997792
5.108551 17.274119 26.670748
5.608060 16.567071 27.852708
6.192342 15.817103 27.848826
6.107569 16.280185 25.277240
-3.035917 20.259083 30.971217
-3.719578 21.880099 30.067183
-5.048558 22.085663 29.580038
-7.386989 22.056297 29.607209
-8.208635 21.708420 29.937148
-6.210600 21.563848 30.051657
-6.194950 20.859058 30.686305
-1.122916 19.939669 30.476696
-1.049881 22.252824 31.499509
-0.718614 18.792127 29.754711
-1.285941 18.148329 29.349080
-3.548728 20.707709 32.819266
-2.153234 18.412625 32.893017
-4.196916 21.807813 33.254010
-4.588176 22.471942 32.700876
-4.040412 18.694993 30.284555
-4.375591 18.390036 28.997792
-4.472102 18.376482 26.670748
-4.109534 19.162594 27.852708
-3.752183 20.043581 27.848826
-4.110838 19.738624 25.277240
-2.984923 9.830684 30.971217
-4.046933 8.428108 30.067183
-3.560466 7.174396 29.580038
-2.365819 5.163938 29.607209
-1.653726 4.626310 29.937148
-2.527540 6.428945 30.051657
-1.924999 6.794894 30.686305
-3.664802 11.647098 30.476696
-5.704571 10.553771 31.499509
-2.873153 12.571005 29.754711
-2.031944 12.401584 29.349080
-3.117038 9.162263 32.819266
-1.827184 11.518338 32.893017
-3.745662 8.050865 33.254010
-4.125185 7.379959 32.700876
-1.128133 9.742811 30.284555
-0.696443 9.605016 28.997792
-0.636450 9.528212 26.670748
-1.498526 9.449149 27.852708
-2.440158 9.318130 27.848826
-1.996730 9.160004 25.277240
7.021161 7.500361 21.267117
5.275489 7.718800 20.363083
4.432976 6.670652 19.875938
3.289192 4.630828 19.903109
3.179640 3.745324 20.233048
4.303860 5.403386 20.347557
4.922051 5.064545 20.982205
8.254282 8.997361 20.772596
6.287548 10.217189 21.795409
9.450233 8.773726 20.050611
9.724115 7.960507 19.644980
6.376234 7.280566 23.115166
9.061582 7.341557 23.188917
5.099422 7.269271 23.549910
4.328640 7.262494 22.996776
7.873455 5.848397 20.580455
7.969966 5.405645 38.701892
7.933449 5.315287 36.374848
7.767815 5.715120 35.528651
7.433940 6.022336 37.556808
6.849658 6.772304 37.552926
16.077917 2.330323 21.267117
16.761578 0.709307 20.363083
18.090558 0.503744 19.875938
20.428989 0.533110 19.903109
21.250635 0.880987 20.233048
19.252600 1.025559 20.347557
19.236950 1.730349 20.982205
14.164916 2.649737 20.772596
14.091881 0.336582 21.795409
13.760614 3.797279 20.050611
14.327941 4.441077 19.644980
16.590728 1.881698 23.115166
15.195234 4.176781 23.188917
17.238916 0.781593 23.549910
17.630176 0.117465 22.996776
17.082412 3.894414 20.580455
17.417591 4.199371 38.701892
17.514102 4.212924 36.374848
17.250653 3.869565 35.528651
17.151534 3.426813 37.556808
16.794183 2.545826 37.552926
16.026923 12.758723 21.267117
17.088933 14.161299 20.363083
16.602466 15.415011 19.875938
15.407819 17.425468 19.903109
14.695726 17.963096 20.233048
15.569540 16.160462 20.347557
14.966999 15.794513 20.982205
16.706802 10.942309 20.772596
18.746571 12.035636 21.795409
15.915153 10.018402 20.050611
15.073944 10.187822 19.644980
16.159038 13.427143 23.115166
14.869184 11.071068 23.188917
16.787662 14.538542 23.549910
17.167185 15.209447 22.996776
14.170133 12.846596 20.580455
13.738443 12.984391 38.701892
13.678450 13.061195 36.374848
14.107531 13.004721 35.528651
14.540526 13.140258 37.556808
15.482158 13.271276 37.552926
10.057077 12.758723 27.253383
8.995067 14.161299 28.157417
9.481534 15.415011 28.644562
10.676181 17.425468 28.617391
10.514460 16.160462 28.172943
11.117001 15.794513 27.538295
11.852570 18.559456 28.258339
9.377198 10.942309 27.747904
7.337429 12.035636 26.725091
10.168847 10.018402 28.469889
11.010056 10.187822 28.875520
9.924962 13.427143 25.405334
11.214816 11.071068 25.331583
9.296338 14.538542 24.970590
8.916815 15.209447 25.523724
11.913867 12.846596 27.940045
12.345557 12.984391 29.226808
12.405550 13.061195 31.553852
11.976469 13.004721 32.400049
11.543474 13.140258 30.371892
10.601842 13.271276 30.375774
19.062839 7.500361 27.253383
20.808511 7.718800 28.157417
21.651024 6.670652 28.644562
22.794808 4.630828 28.617391
21.780140 5.403386 28.172943
21.161949 5.064545 27.538295
23.188676 3.045052 28.258339
17.829718 8.997361 27.747904
19.796452 10.217189 26.725091
16.633767 8.773726 28.469889
16.359885 7.960507 28.875520
19.707766 7.280566 25.405334
17.022418 7.341557 25.331583
20.984578 7.269271 24.970590
21.755360 7.262494 25.523724
18.210545 5.848397 27.940045
18.114034 5.405645 29.226808
18.150551 5.315287 31.553852
18.316185 5.715120 32.400049
18.650060 6.022336 30.371892
19.234342 6.772304 30.375774
10.006083 2.330323 27.253383
9.322422 0.709307 28.157417
7.993442 0.503744 28.644562
5.655011 0.533110 28.617391
6.831400 1.025559 28.172943
6.847050 1.730349 27.538295
4.084754 0.984898 28.258339
11.919084 2.649737 27.747904
11.992119 0.336582 26.725091
12.323386 3.797279 28.469889
11.756059 4.441077 28.875520
9.493272 1.881698 25.405334
10.888766 4.176781 25.331583
8.845084 0.781593 24.970590
8.453824 0.117465 25.523724
9.001588 3.894414 27.940045
8.666409 4.199371 29.226808
8.569898 4.212924 31.553852
8.833347 3.869565 32.400049
8.932466 3.426813 30.371892
9.289817 2.545826 30.375774
2.984923 9.830684 36.957483
4.046933 8.428108 37.861517
3.560466 7.174396 38.348662
2.365819 5.163938 38.321491
2.527540 6.428945 37.877043
1.924999 6.794894 37.242395
1.189430 4.029950 37.962439
3.664802 11.647098 37.452004
5.704571 10.553771 36.429191
2.873153 12.571005 38.173989
2.031944 12.401584 38.579620
3.117038 9.162263 35.109434
1.827184 11.518338 35.035683
3.745662 8.050865 34.674690
4.125185 7.379959 35.227824
1.128133 9.742811 37.644145
0.696443 9.605016 19.522708
0.636450 9.528212 21.849752
1.498526 9.449149 20.667792
2.440158 9.318130 20.671674
1.996730 9.160004 23.243260
-6.020839 15.089046 36.957483
-7.766511 14.870606 37.861517
-8.609024 15.918755 38.348662
-9.752808 17.958578 38.321491
-8.738140 17.186021 37.877043
-8.119949 17.524862 37.242395
-10.146676 19.544355 37.962439
-4.787718 13.592046 37.452004
-6.754452 12.372218 36.429191
-3.591767 13.815681 38.173989
-3.317885 14.628900 38.579620
-6.665766 15.308841 35.109434
-3.980418 15.247849 35.035683
-7.942578 15.320136 34.674690
-8.713360 15.326912 35.227824
-5.168545 16.741009 37.644145
-5.072034 17.183762 19.522708
-5.108551 17.274119 21.849752
-5.608060 16.567071 20.667792
-6.192342 15.817103 20.671674
-6.107569 16.280185 23.243260
3.035917 20.259083 36.957483
3.719578 21.880099 37.861517
5.048558 22.085663 38.348662
7.386989 22.056297 38.321491
6.210600 21.563848 37.877043
6.194950 20.859058 37.242395
8.957246 21.604509 37.962439
1.122916 19.939669 37.452004
1.049881 22.252824 36.429191
0.718614 18.792127 38.173989
1.285941 18.148329 38.579620
3.548728 20.707709 35.109434
2.153234 18.412625 35.035683
4.196916 21.807813 34.674690
4.588176 22.471942 35.227824
4.040412 18.694993 37.644145
4.375591 18.390036 19.522708
4.472102 18.376482 21.849752
4.109534 19.162594 20.667792
3.752183 20.043581 20.671674
4.110838 19.738624 23.243260
5.001607 8.663037 29.112300
5.476336 9.485292 29.112300
16.080786 0.000000 29.112300
3.038786 22.589407 29.112300
15.131328 0.000000 29.112300
2.089328 22.589407 29.112300
-8.040393 13.926369 29.112300
18.043607 13.926369 29.112300
-7.565664 13.104115 29.112300
18.518336 13.104115 29.112300
8.040393 13.926369 19.408200
7.565664 13.104115 19.408200
10.003214 0.000000 19.408200
-3.038786 22.589407 19.408200
10.952672 0.000000 19.408200
-2.089328 22.589407 19.408200
-5.001607 8.663037 19.408200
21.082393 8.663037 19.408200
-5.476336 9.485292 19.408200
20.607664 9.485292 19.408200
8.040393 13.926369 29.112300
7.565664 13.104115 29.112300
10.003214 0.000000 29.112300
-3.038786 22.589407 29.112300
10.952672 0.000000 29.112300
-2.089328 22.589407 29.112300
-5.001607 8.663037 29.112300
21.082393 8.663037 29.112300
-5.476336 9.485292 29.112300
20.607664 9.485292 29.112300
5.001607 8.663037 19.408200
5.476336 9.485292 19.408200
16.080786 0.000000 19.408200
3.038786 22.589407 19.408200
15.131328 0.000000 19.408200
2.089328 22.589407 19.408200
-8.040393 13.926369 19.408200
18.043607 13.926369 19.408200
-7.565664 13.104115 19.408200
18.518336 13.104115 19.408200
8.399048 10.210412 27.340331
7.272219 10.860987 26.802724
13.042000 2.168583 27.340331
13.042000 0.867433 26.802724
17.684952 10.210412 27.340331
18.811781 10.860987 26.802724
4.642952 12.378995 37.044431
5.769781 11.728420 36.506824
0.000000 20.420824 37.044431
0.000000 21.721973 36.506824
-4.642952 12.378995 37.044431
-5.769781 11.728420 36.506824
4.642952 12.378995 30.884269
5.769781 11.728420 31.421876
-4.642952 12.378995 30.884269
-5.769781 11.728420 31.421876
0.000000 20.420824 30.884269
0.000000 21.721973 31.421876
8.399048 10.210412 21.180169
7.272219 10.860987 21.717776
17.684952 10.210412 21.180169
18.811781 10.860987 21.717776
13.042000 2.168583 21.180169
13.042000 0.867433 21.717776
7.062243 7.280566 24.260250
8.504688 7.334780 24.260250
16.247724 2.475799 24.260250
15.479550 3.697886 24.260250
15.816033 12.833042 24.260250
15.141762 11.556740 24.260250
5.979757 15.308841 33.964350
4.537312 15.254626 33.964350
-3.205724 20.113608 33.964350
-2.437550 18.891521 33.964350
-2.774033 9.756365 33.964350
-2.099762 11.032666 33.964350
2.774033 9.756365 33.964350
2.099762 11.032666 33.964350
-5.979757 15.308841 33.964350
-4.537312 15.254626 33.964350
3.205724 20.113608 33.964350
2.437550 18.891521 33.964350
10.267967 12.833042 24.260250
10.942238 11.556740 24.260250
19.021757 7.280566 24.260250
17.579312 7.334780 24.260250
9.836276 2.475799 24.260250
10.604450 3.697886 24.260250
8.527512 4.923361 27.256876
8.648802 4.993388 26.317519
17.556488 4.923361 27.256876
17.435198 4.993388 26.317519
13.042000 12.742684 27.256876
13.042000 12.602630 26.317519
4.514488 17.666045 36.960976
4.393198 17.596018 36.021619
-4.514488 17.666045 36.960976
-4.393198 17.596018 36.021619
0.000000 9.846722 36.960976
0.000000 9.986777 36.021619
0.000000 9.846722 30.967724
0.000000 9.986777 31.907081
-4.514488 17.666045 30.967724
-4.393198 17.596018 31.907081
4.514488 17.666045 30.967724
4.393198 17.596018 31.907081
13.042000 12.742684 21.263624
13.042000 12.602630 22.202981
17.556488 4.923361 21.263624
17.435198 4.993388 22.202981
8.527512 4.923361 21.263624
8.648802 4.993388 22.202981
POINT_DATA 1252
SCALARS my_scalars float
LOOKUP_TABLE default
1.39
1.55
1.7
1.7
1.09
1.7
1.09
1.55
1.52
1.7
1.09
1.55
1.52
1.7
1.09
1.55
1.7
1.7
1.7
1.09
1.75
1.39
1.55
1.7
1.7
1.09
1.7
1.09
1.55
1.52
1.7
1.09
1.55
1.52
1.7
1.09
1.55
1.7
1.7
1.7
1.09
1.75
1.39
1.55
1.7
1.7
1.09
1.7
1.09
1.55
1.52
1.7
1.09
1.55
1.52
1.7
1.09
1.55
1.7
1.7
1.7
1.09
1.75
1.39
1.55
1.7
1.7
1.09
1.7
1.09
1.55
1.52
1.7
1.09
1.55
1.52
1.7
1.09
1.55
1.7
1.7
1.09
1.7
1.09
1.39
1.55
1.7
1.7
1.09
1.7
1.09
1.55
1.52
1.7
1.09
1.55
1.52
1.7
1.09
1.55
1.7
1.7
1.09
1.7
1.09
1.39
1.55
1.7
1.7
1.09
1.7
1.09
1.55
1.52
1.7
1.09
1.55
1.52
1.7
1.09
1.55
1.7
1.7
1.09
1.7
1.09
1.39
1.55
1.7
1.7
1.7
1.09
1.75
1.55
1.52
1.7
1.09
1.55
1.52
1.7
1.09
1.55
1.7
1.7
1.09
1.7
1.09
1.39
1.55
1.7
1.7
1.7
1.09
1.75
1.55
1.52
1.7
1.09
1.55
1.52
1.7
1.09
1.55
1.7
1.7
1.09
1.7
1.09
1.39
1.55
1.7
1.7
1.7
1.09
1.75
1.55
1.52
1.7
1.09
1.55
1.52
1.7
1.09
1.55
1.7
1.7
1.09
1.7
1.09
1.39
1.55
1.7
1.7
1.7
1.09
1.75
1.55
1.52
1.7
1.09
1.55
1.52
1.7
1.09
1.55
1.7
1.7
1.7
1.09
1.75
1.39
1.55
1.7
1.7
1.7
1.09
1.75
1.55
1.52
1.7
1.09
1.55
1.52
1.7
1.09
1.55
1.7
1.7
1.7
1.09
1.75
1.39
1.55
1.7
1.7
1.7
1.09
1.75
1.55
1.52
1.7
1.09
1.55
1.52
1.7
1.09
1.55
1.7
1.7
1.7
1.09
1.75
1.39
1.55
1.7
1.7
1.09
1.7
1.09
1.55
1.52
1.7
1.09
1.55
1.52
1.7
1.09
1.55
1.7
1.7
1.7
1.09
1.75
1.39
1.55
1.7
1.7
1.09
1.7
1.09
1.55
1.52
1.7
1.09
1.55
1.52
1.7
1.09
1.55
1.7
1.7
1.7
1.09
1.75
1.39
1.55
1.7
1.7
1.09
1.7
1.09
1.55
1.52
1.7
1.09
1.55
1.52
1.7
1.09
1.55
1.7
1.7
1.7
1.09
1.75
1.39
1.55
1.7
1.7
1.09
1.7
1.09
1.55
1.52
1.7
1.09
1.55
1.52
1.7
1.09
1.55
1.7
1.7
1.09
1.7
1.09
1.39
1.55
1.7
1.7
1.09
1.7
1.09
1.55
1.52
1.7
1.09
1.55
1.52
1.7
1.09
1.55
1.7
1.7
1.09
1.7
1.09
1.39
1.55
1.7
1.7
1.09
1.7
1.09
1.55
1.52
1.7
1.09
1.55
1.52
1.7
1.09
1.55
1.7
1.7
1.09
1.7
1.09
1.39
1.55
1.7
1.7
1.7
1.09
1.75
1.55
1.52
1.7
1.09
1.55
1.52
1.7
1.09
1.55
1.7
1.7
1.09
1.7
1.09
1.39
1.55
1.7
1.7
1.7
1.09
1.75
1.55
1.52
1.7
1.09
1.55
1.52
1.7
1.09
1.55
1.7
1.7
1.09
1.7
1.09
1.39
1.55
1.7
1.7
1.7
1.09
1.75
1.55
1.52
1.7
1.09
1.55
1.52
1.7
1.09
1.55
1.7
1.7
1.09
1.7
1.09
1.39
1.55
1.7
1.7
1.7
1.09
1.75
1.55
1.52
1.7
1.09
1.55
1.52
1.7
1.09
1.55
1.7
1.7
1.7
1.09
1.75
1.39
1.55
1.7
1.7
1.7
1.09
1.75
1.55
1.52
1.7
1.09
1.55
1.52
1.7
1.09
1.55
1.7
1.7
1.7
1.09
1.75
1.39
1.55
1.7
1.7
1.7
1.09
1.75
1.55
1.52
1.7
1.09
1.55
1.52
1.7
1.09
1.55
1.7
1.7
1.7
1.09
1.75
1.7
1.09
1.7
1.7
1.09
1.09
1.7
1.7
1.09
1.09
1.7
1.7
1.09
1.09
1.7
1.7
1.7
1.7
1.09
1.09
1.09
1.09
1.7
1.7
1.7
1.7
1.09
1.09
1.09
1.09
1.7
1.09
1.7
1.7
1.09
1.09
1.7
1.7
1.09
1.09
1.7
1.7
1.09
1.09
1.7
1.7
1.7
1.7
1.09
1.09
1.09
1.09
1.7
1.7
1.7
1.7
1.09
1.09
1.09
1.09
1.7
1.55
1.7
1.55
1.7
1.55
1.7
1.55
1.7
1.55
1.7
1.55
1.7
1.55
1.7
1.55
1.7
1.55
1.7
1.55
1.7
1.55
1.7
1.55
1.7
1.55
1.7
1.55
1.7
1.55
1.7
1.55
1.7
1.55
1.7
1.55
1.7
1.55
1.7
1.55
1.7
1.55
1.7
1.55
1.7
1.55
1.7
1.55
1.7
1.09
1.7
1.09
1.7
1.09
1.7
1.09
1.7
1.09
1.7
1.09
1.7
1.09
1.7
1.09
1.7
1.09
1.7
1.09
1.7
1.09
1.7
1.09
1.39
1.55
1.7
1.7
1.09
1.7
1.09
1.55
1.52
1.7
1.09
1.55
1.52
1.7
1.09
1.55
1.7
1.7
1.7
1.09
1.75
1.39
1.55
1.7
1.7
1.09
1.7
1.09
1.55
1.52
1.7
1.09
1.55
1.52
1.7
1.09
1.55
1.7
1.7
1.7
1.09
1.75
1.39
1.55
1.7
1.7
1.09
1.7
1.09
1.55
1.52
1.7
1.09
1.55
1.52
1.7
1.09
1.55
1.7
1.7
1.7
1.09
1.75
1.39
1.55
1.7
1.7
1.09
1.7
1.09
1.55
1.52
1.7
1.09
1.55
1.52
1.7
1.09
1.55
1.7
1.7
1.09
1.7
1.09
1.39
1.55
1.7
1.7
1.09
1.7
1.09
1.55
1.52
1.7
1.09
1.55
1.52
1.7
1.09
1.55
1.7
1.7
1.09
1.7
1.09
1.39
1.55
1.7
1.7
1.09
1.7
1.09
1.55
1.52
1.7
1.09
1.55
1.52
1.7
1.09
1.55
1.7
1.7
1.09
1.7
1.09
1.39
1.55
1.7
1.7
1.7
1.09
1.75
1.55
1.52
1.7
1.09
1.55
1.52
1.7
1.09
1.55
1.7
1.7
1.09
1.7
1.09
1.39
1.55
1.7
1.7
1.7
1.09
1.75
1.55
1.52
1.7
1.09
1.55
1.52
1.7
1.09
1.55
1.7
1.7
1.09
1.7
1.09
1.39
1.55
1.7
1.7
1.7
1.09
1.75
1.55
1.52
1.7
1.09
1.55
1.52
1.7
1.09
1.55
1.7
1.7
1.09
1.7
1.09
1.39
1.55
1.7
1.7
1.7
1.09
1.75
1.55
1.52
1.7
1.09
1.55
1.52
1.7
1.09
1.55
1.7
1.7
1.7
1.09
1.75
1.39
1.55
1.7
1.7
1.7
1.09
1.75
1.55
1.52
1.7
1.09
1.55
1.52
1.7
1.09
1.55
1.7
1.7
1.7
1.09
1.75
1.39
1.55
1.7
1.7
1.7
1.09
1.75
1.55
1.52
1.7
1.09
1.55
1.52
1.7
1.09
1.55
1.7
1.7
1.7
1.09
1.75
1.39
1.55
1.7
1.7
1.09
1.7
1.09
1.55
1.52
1.7
1.09
1.55
1.52
1.7
1.09
1.55
1.7
1.7
1.7
1.09
1.75
1.39
1.55
1.7
1.7
1.09
1.7
1.09
1.55
1.52
1.7
1.09
1.55
1.52
1.7
1.09
1.55
1.7
1.7
1.7
1.09
1.75
1.39
1.55
1.7
1.7
1.09
1.7
1.09
1.55
1.52
1.7
1.09
1.55
1.52
1.7
1.09
1.55
1.7
1.7
1.7
1.09
1.75
1.39
1.55
1.7
1.7
1.09
1.7
1.09
1.55
1.52
1.7
1.09
1.55
1.52
1.7
1.09
1.55
1.7
1.7
1.09
1.7
1.09
1.39
1.55
1.7
1.7
1.09
1.7
1.09
1.55
1.52
1.7
1.09
1.55
1.52
1.7
1.09
1.55
1.7
1.7
1.09
1.7
1.09
1.39
1.55
1.7
1.7
1.09
1.7
1.09
1.55
1.52
1.7
1.09
1.55
1.52
1.7
1.09
1.55
1.7
1.7
1.09
1.7
1.09
1.39
1.55
1.7
1.7
1.7
1.09
1.75
1.55
1.52
1.7
1.09
1.55
1.52
1.7
1.09
1.55
1.7
1.7
1.09
1.7
1.09
1.39
1.55
1.7
1.7
1.7
1.09
1.75
1.55
1.52
1.7
1.09
1.55
1.52
1.7
1.09
1.55
1.7
1.7
1.09
1.7
1.09
1.39
1.55
1.7
1.7
1.7
1.09
1.75
1.55
1.52
1.7
1.09
1.55
1.52
1.7
1.09
1.55
1.7
1.7
1.09
1.7
1.09
1.39
1.55
1.7
1.7
1.7
1.09
1.75
1.55
1.52
1.7
1.09
1.55
1.52
1.7
1.09
1.55
1.7
1.7
1.7
1.09
1.75
1.39
1.55
1.7
1.7
1.7
1.09
1.75
1.55
1.52
1.7
1.09
1.55
1.52
1.7
1.09
1.55
1.7
1.7
1.7
1.09
1.75
1.39
1.55
1.7
1.7
1.7
1.09
1.75
1.55
1.52
1.7
1.09
1.55
1.52
1.7
1.09
1.55
1.7
1.7
1.7
1.09
1.75
1.7
1.09
1.7
1.7
1.09
1.09
1.7
1.7
1.09
1.09
1.7
1.09
1.7
1.7
1.09
1.09
1.7
1.7
1.09
1.09
1.7
1.09
1.7
1.7
1.09
1.09
1.7
1.7
1.09
1.09
1.7
1.09
1.7
1.7
1.09
1.09
1.7
1.7
1.09
1.09
1.7
1.55
1.7
1.55
1.7
1.55
1.7
1.55
1.7
1.55
1.7
1.55
1.7
1.55
1.7
1.55
1.7
1.55
1.7
1.55
1.7
1.55
1.7
1.55
1.7
1.55
1.7
1.55
1.7
1.55
1.7
1.55
1.7
1.55
1.7
1.55
1.7
1.55
1.7
1.55
1.7
1.55
1.7
1.55
1.7
1.55
1.7
1.55
1.7
1.09
1.7
1.09
1.7
1.09
1.7
1.09
1.7
1.09
1.7
1.09
1.7
1.09
1.7
1.09
1.7
1.09
1.7
1.09
1.7
1.09
1.7
1.09
VECTORS vectors float
0.4375 0 0
0 0 0
0.3125 0 0
0.3125 0 0
0.25 0 0
0.3125 0 0
0.25 0 0
0 0 0
0.03125 0 0
0.3125 0 0
0.25 0 0
0 0 0
0.03125 0 0
0.3125 0 0
0.25 0 0
0 0 0
0.3125 0 0
0.3125 0 0
0.3125 0 0
0.25 0 0
0.4375 0 0
0.4375 0 0
0 0 0
0.3125 0 0
0.3125 0 0
0.25 0 0
0.3125 0 0
0.25 0 0
0 0 0
0.03125 0 0
0.3125 0 0
0.25 0 0
0 0 0
0.03125 0 0
0.3125 0 0
0.25 0 0
0 0 0
0.3125 0 0
0.3125 0 0
0.3125 0 0
0.25 0 0
0.4375 0 0
0.4375 0 0
0 0 0
0.3125 0 0
0.3125 0 0
0.25 0 0
0.3125 0 0
0.25 0 0
0 0 0
0.03125 0 0
0.3125 0 0
0.25 0 0
0 0 0
0.03125 0 0
0.3125 0 0
0.25 0 0
0 0 0
0.3125 0 0
0.3125 0 0
0.3125 0 0
0.25 0 0
0.4375 0 0
0.4375 0 0
0 0 0
0.3125 0 0
0.3125 0 0
0.25 0 0
0.3125 0 0
0.25 0 0
0 0 0
0.03125 0 0
0.3125 0 0
0.25 0 0
0 0 0
0.03125 0 0
0.3125 0 0
0.25 0 0
0 0 0
0.3125 0 0
0.3125 0 0
0.25 0 0
0.3125 0 0
0.25 0 0
0.4375 0 0
0 0 0
0.3125 0 0
0.3125 0 0
0.25 0 0
0.3125 0 0
0.25 0 0
0 0 0
0.03125 0 0
0.3125 0 0
0.25 0 0
0 0 0
0.03125 0 0
0.3125 0 0
0.25 0 0
0 0 0
0.3125 0 0
0.3125 0 0
0.25 0 0
0.3125 0 0
0.25 0 0
0.4375 0 0
0 0 0
0.3125 0 0
0.3125 0 0
0.25 0 0
0.3125 0 0
0.25 0 0
0 0 0
0.03125 0 0
0.3125 0 0
0.25 0 0
0 0 0
0.03125 0 0
0.3125 0 0
0.25 0 0
0 0 0
0.3125 0 0
0.3125 0 0
0.25 0 0
0.3125 0 0
0.25 0 0
0.4375 0 0
0 0 0
0.3125 0 0
0.3125 0 0
0.3125 0 0
0.25 0 0
0.4375 0 0
0 0 0
0.03125 0 0
0.3125 0 0
0.25 0 0
0 0 0
0.03125 0 0
0.3125 0 0
0.25 0 0
0 0 0
0.3125 0 0
0.3125 0 0
0.25 0 0
0.3125 0 0
0.25 0 0
0.4375 0 0
0 0 0
0.3125 0 0
0.3125 0 0
0.3125 0 0
0.25 0 0
0.4375 0 0
0 0 0
0.03125 0 0
0.3125 0 0
0.25 0 0
0 0 0
0.03125 0 0
0.3125 0 0
0.25 0 0
0 0 0
0.3125 0 0
0.3125 0 0
0.25 0 0
0.3125 0 0
0.25 0 0
0.4375 0 0
0 0 0
0.3125 0 0
0.3125 0 0
0.3125 0 0
0.25 0 0
0.4375 0 0
0 0 0
0.03125 0 0
0.3125 0 0
0.25 0 0
0 0 0
0.03125 0 0
0.3125 0 0
0.25 0 0
0 0 0
0.3125 0 0
0.3125 0 0
0.25 0 0
0.3125 0 0
0.25 0 0
0.4375 0 0
0 0 0
0.3125 0 0
0.3125 0 0
0.3125 0 0
0.25 0 0
0.4375 0 0
0 0 0
0.03125 0 0
0.3125 0 0
0.25 0 0
0 0 0
0.03125 0 0
0.3125 0 0
0.25 0 0
0 0 0
0.3125 0 0
0.3125 0 0
0.3125 0 0
0.25 0 0
0.4375 0 0
0.4375 0 0
0 0 0
0.3125 0 0
0.3125 0 0
0.3125 0 0
0.25 0 0
0.4375 0 0
0 0 0
0.03125 0 0
0.3125 0 0
0.25 0 0
0 0 0
0.03125 0 0
0.3125 0 0
0.25 0 0
0 0 0
0.3125 0 0
0.3125 0 0
0.3125 0 0
0.25 0 0
0.4375 0 0
0.4375 0 0
0 0 0
0.3125 0 0
0.3125 0 0
0.3125 0 0
0.25 0 0
0.4375 0 0
0 0 0
0.03125 0 0
0.3125 0 0
0.25 0 0
0 0 0
0.03125 0 0
0.3125 0 0
0.25 0 0
0 0 0
0.3125 0 0
0.3125 0 0
0.3125 0 0
0.25 0 0
0.4375 0 0
0.4375 0 0
0 0 0
0.3125 0 0
0.3125 0 0
0.25 0 0
0.3125 0 0
0.25 0 0
0 0 0
0.03125 0 0
0.3125 0 0
0.25 0 0
0 0 0
0.03125 0 0
0.3125 0 0
0.25 0 0
0 0 0
0.3125 0 0
0.3125 0 0
0.3125 0 0
0.25 0 0
0.4375 0 0
0.4375 0 0
0 0 0
0.3125 0 0
0.3125 0 0
0.25 0 0
0.3125 0 0
0.25 0 0
0 0 0
0.03125 0 0
0.3125 0 0
0.25 0 0
0 0 0
0.03125 0 0
0.3125 0 0
0.25 0 0
0 0 0
0.3125 0 0
0.3125 0 0
0.3125 0 0
0.25 0 0
0.4375 0 0
0.4375 0 0
0 0 0
0.3125 0 0
0.3125 0 0
0.25 0 0
0.3125 0 0
0.25 0 0
0 0 0
0.03125 0 0
0.3125 0 0
0.25 0 0
0 0 0
0.03125 0 0
0.3125 0 0
0.25 0 0
0 0 0
0.3125 0 0
0.3125 0 0
0.3125 0 0
0.25 0 0
0.4375 0 0
0.4375 0 0
0 0 0
0.3125 0 0
0.3125 0 0
0.25 0 0
0.3125 0 0
0.25 0 0
0 0 0
0.03125 0 0
0.3125 0 0
0.25 0 0
0 0 0
0.03125 0 0
0.3125 0 0
0.25 0 0
0 0 0
0.3125 0 0
0.3125 0 0
0.25 0 0
0.3125 0 0
0.25 0 0
0.4375 0 0
0 0 0
0.3125 0 0
0.3125 0 0
0.25 0 0
0.3125 0 0
0.25 0 0
0 0 0
0.03125 0 0
0.3125 0 0
0.25 0 0
0 0 0
0.03125 0 0
0.3125 0 0
0.25 0 0
0 0 0
0.3125 0 0
0.3125 0 0
0.25 0 0
0.3125 0 0
0.25 0 0
0.4375 0 0
0 0 0
0.3125 0 0
0.3125 0 0
0.25 0 0
0.3125 0 0
0.25 0 0
0 0 0
0.03125 0 0
0.3125 0 0
0.25 0 0
0 0 0
0.03125 0 0
0.3125 0 0
0.25 0 0
0 0 0
0.3125 0 0
0.3125 0 0
0.25 0 0
0.3125 0 0
0.25 0 0
0.4375 0 0
0 0 0
0.3125 0 0
0.3125 0 0
0.3125 0 0
0.25 0 0
0.4375 0 0
0 0 0
0.03125 0 0
0.3125 0 0
0.25 0 0
0 0 0
0.03125 0 0
0.3125 0 0
0.25 0 0
0 0 0
0.3125 0 0
0.3125 0 0
0.25 0 0
0.3125 0 0
0.25 0 0
0.4375 0 0
0 0 0
0.3125 0 0
0.3125 0 0
0.3125 0 0
0.25 0 0
0.4375 0 0
0 0 0
0.03125 0 0
0.3125 0 0
0.25 0 0
0 0 0
0.03125 0 0
0.3125 0 0
0.25 0 0
0 0 0
0.3125 0 0
0.3125 0 0
0.25 0 0
0.3125 0 0
0.25 0 0
0.4375 0 0
0 0 0
0.3125 0 0
0.3125 0 0
0.3125 0 0
0.25 0 0
0.4375 0 0
0 0 0
0.03125 0 0
0.3125 0 0
0.25 0 0
0 0 0
0.03125 0 0
0.3125 0 0
0.25 0 0
0 0 0
0.3125 0 0
0.3125 0 0
0.25 0 0
0.3125 0 0
0.25 0 0
0.4375 0 0
0 0 0
0.3125 0 0
0.3125 0 0
0.3125 0 0
0.25 0 0
0.4375 0 0
0 0 0
0.03125 0 0
0.3125 0 0
0.25 0 0
0 0 0
0.03125 0 0
0.3125 0 0
0.25 0 0
0 0 0
0.3125 0 0
0.3125 0 0
0.3125 0 0
0.25 0 0
0.4375 0 0
0.4375 0 0
0 0 0
0.3125 0 0
0.3125 0 0
0.3125 0 0
0.25 0 0
0.4375 0 0
0 0 0
0.03125 0 0
0.3125 0 0
0.25 0 0
0 0 0
0.03125 0 0
0.3125 0 0
0.25 0 0
0 0 0
0.3125 0 0
0.3125 0 0
0.3125 0 0
0.25 0 0
0.4375 0 0
0.4375 0 0
0 0 0
0.3125 0 0
0.3125 0 0
0.3125 0 0
0.25 0 0
0.4375 0 0
0 0 0
0.03125 0 0
0.3125 0 0
0.25 0 0
0 0 0
0.03125 0 0
0.3125 0 0
0.25 0 0
0 0 0
0.3125 0 0
0.3125 0 0
0.3125 0 0
0.25 0 0
0.4375 0 0
0.3125 0 0
0.25 0 0
0.3125 0 0
0.3125 0 0
0.25 0 0
0.25 0 0
0.3125 0 0
0.3125 0 0
0.25 0 0
0.25 0 0
0.3125 0 0
0.3125 0 0
0.25 0 0
0.25 0 0
0.3125 0 0
0.3125 0 0
0.3125 0 0
0.3125 0 0
0.25 0 0
0.25 0 0
0.25 0 0
0.25 0 0
0.3125 0 0
0.3125 0 0
0.3125 0 0
0.3125 0 0
0.25 0 0
0.25 0 0
0.25 0 0
0.25 0 0
0.3125 0 0
0.25 0 0
0.3125 0 0
0.3125 0 0
0.25 0 0
0.25 0 0
0.3125 0 0
0.3125 0 0
0.25 0 0
0.25 0 0
0.3125 0 0
0.3125 0 0
0.25 0 0
0.25 0 0
0.3125 0 0
0.3125 0 0
0.3125 0 0
0.3125 0 0
0.25 0 0
0.25 0 0
0.25 0 0
0.25 0 0
0.3125 0 0
0.3125 0 0
0.3125 0 0
0.3125 0 0
0.25 0 0
0.25 0 0
0.25 0 0
0.25 0 0
0.3125 0 0
0 0 0
0.3125 0 0
0 0 0
0.3125 0 0
0 0 0
0.3125 0 0
0 0 0
0.3125 0 0
0 0 0
0.3125 0 0
0 0 0
0.3125 0 0
0 0 0
0.3125 0 0
0 0 0
0.3125 0 0
0 0 0
0.3125 0 0
0 0 0
0.3125 0 0
0 0 0
0.3125 0 0
0 0 0
0.3125 0 0
0 0 0
0.3125 0 0
0 0 0
0.3125 0 0
0 0 0
0.3125 0 0
0 0 0
0.3125 0 0
0 0 0
0.3125 0 0
0 0 0
0.3125 0 0
0 0 0
0.3125 0 0
0 0 0
0.3125 0 0
0 0 0
0.3125 0 0
0 0 0
0.3125 0 0
0 0 0
0.3125 0 0
0 0 0
0.3125 0 0
0.25 0 0
0.3125 0 0
0.25 0 0
0.3125 0 0
0.25 0 0
0.3125 0 0
0.25 0 0
0.3125 0 0
0.25 0 0
0.3125 0 0
0.25 0 0
0.3125 0 0
0.25 0 0
0.3125 0 0
0.25 0 0
0.3125 0 0
0.25 0 0
0.3125 0 0
0.25 0 0
0.3125 0 0
0.25 0 0
0.3125 0 0
0.25 0 0
0.4375 0 0
0 0 0
0.3125 0 0
0.3125 0 0
0.25 0 0
0.3125 0 0
0.25 0 0
0 0 0
0.03125 0 0
0.3125 0 0
0.25 0 0
0 0 0
0.03125 0 0
0.3125 0 0
0.25 0 0
0 0 0
0.3125 0 0
0.3125 0 0
0.3125 0 0
0.25 0 0
0.4375 0 0
0.4375 0 0
0 0 0
0.3125 0 0
0.3125 0 0
0.25 0 0
0.3125 0 0
0.25 0 0
0 0 0
0.03125 0 0
0.3125 0 0
0.25 0 0
0 0 0
0.03125 0 0
0.3125 0 0
0.25 0 0
0 0 0
0.3125 0 0
0.3125 0 0
0.3125 0 0
0.25 0 0
0.4375 0 0
0.4375 0 0
0 0 0
0.3125 0 0
0.3125 0 0
0.25 0 0
0.3125 0 0
0.25 0 0
0 0 0
0.03125 0 0
0.3125 0 0
0.25 0 0
0 0 0
0.03125 0 0
0.3125 0 0
0.25 0 0
0 0 0
0.3125 0 0
0.3125 0 0
0.3125 0 0
0.25 0 0
0.4375 0 0
0.4375 0 0
0 0 0
0.3125 0 0
0.3125 0 0
0.25 0 0
0.3125 0 0
0.25 0 0
0 0 0
0.03125 0 0
0.3125 0 0
0.25 0 0
0 0 0
0.03125 0 0
0.3125 0 0
0.25 0 0
0 0 0
0.3125 0 0
0.3125 0 0
0.25 0 0
0.3125 0 0
0.25 0 0
0.4375 0 0
0 0 0
0.3125 0 0
0.3125 0 0
0.25 0 0
0.3125 0 0
0.25 0 0
0 0 0
0.03125 0 0
0.3125 0 0
0.25 0 0
0 0 0
0.03125 0 0
0.3125 0 0
0.25 0 0
0 0 0
0.3125 0 0
0.3125 0 0
0.25 0 0
0.3125 0 0
0.25 0 0
0.4375 0 0
0 0 0
0.3125 0 0
0.3125 0 0
0.25 0 0
0.3125 0 0
0.25 0 0
0 0 0
0.03125 0 0
0.3125 0 0
0.25 0 0
0 0 0
0.03125 0 0
0.3125 0 0
0.25 0 0
0 0 0
0.3125 0 0
0.3125 0 0
0.25 0 0
0.3125 0 0
0.25 0 0
0.4375 0 0
0 0 0
0.3125 0 0
0.3125 0 0
0.3125 0 0
0.25 0 0
0.4375 0 0
0 0 0
0.03125 0 0
0.3125 0 0
0.25 0 0
0 0 0
0.03125 0 0
0.3125 0 0
0.25 0 0
0 0 0
0.3125 0 0
0.3125 0 0
0.25 0 0
0.3125 0 0
0.25 0 0
0.4375 0 0
0 0 0
0.3125 0 0
0.3125 0 0
0.3125 0 0
0.25 0 0
0.4375 0 0
0 0 0
0.03125 0 0
0.3125 0 0
0.25 0 0
0 0 0
0.03125 0 0
0.3125 0 0
0.25 0 0
0 0 0
0.3125 0 0
0.3125 0 0
0.25 0 0
0.3125 0 0
0.25 0 0
0.4375 0 0
0 0 0
0.3125 0 0
0.3125 0 0
0.3125 0 0
0.25 0 0
0.4375 0 0
0 0 0
0.03125 0 0
0.3125 0 0
0.25 0 0
0 0 0
0.03125 0 0
0.3125 0 0
0.25 0 0
0 0 0
0.3125 0 0
0.3125 0 0
0.25 0 0
0.3125 0 0
0.25 0 0
0.4375 0 0
0 0 0
0.3125 0 0
0.3125 0 0
0.3125 0 0
0.25 0 0
0.4375 0 0
0 0 0
0.03125 0 0
0.3125 0 0
0.25 0 0
0 0 0
0.03125 0 0
0.3125 0 0
0.25 0 0
0 0 0
0.3125 0 0
0.3125 0 0
0.3125 0 0
0.25 0 0
0.4375 0 0
0.4375 0 0
0 0 0
0.3125 0 0
0.3125 0 0
0.3125 0 0
0.25 0 0
0.4375 0 0
0 0 0
0.03125 0 0
0.3125 0 0
0.25 0 0
0 0 0
0.03125 0 0
0.3125 0 0
0.25 0 0
0 0 0
0.3125 0 0
0.3125 0 0
0.3125 0 0
0.25 0 0
0.4375 0 0
0.4375 0 0
0 0 0
0.3125 0 0
0.3125 0 0
0.3125 0 0
0.25 0 0
0.4375 0 0
0 0 0
0.03125 0 0
0.3125 0 0
0.25 0 0
0 0 0
0.03125 0 0
0.3125 0 0
0.25 0 0
0 0 0
0.3125 0 0
0.3125 0 0
0.3125 0 0
0.25 0 0
0.4375 0 0
0.4375 0 0
0 0 0
0.3125 0 0
0.3125 0 0
0.25 0 0
0.3125 0 0
0.25 0 0
0 0 0
0.03125 0 0
0.3125 0 0
0.25 0 0
0 0 0
0.03125 0 0
0.3125 0 0
0.25 0 0
0 0 0
0.3125 0 0
0.3125 0 0
0.3125 0 0
0.25 0 0
0.4375 0 0
0.4375 0 0
0 0 0
0.3125 0 0
0.3125 0 0
0.25 0 0
0.3125 0 0
0.25 0 0
0 0 0
0.03125 0 0
0.3125 0 0
0.25 0 0
0 0 0
0.03125 0 0
0.3125 0 0
0.25 0 0
0 0 0
0.3125 0 0
0.3125 0 0
0.3125 0 0
0.25 0 0
0.4375 0 0
0.4375 0 0
0 0 0
0.3125 0 0
0.3125 0 0
0.25 0 0
0.3125 0 0
0.25 0 0
0 0 0
0.03125 0 0
0.3125 0 0
0.25 0 0
0 0 0
0.03125 0 0
0.3125 0 0
0.25 0 0
0 0 0
0.3125 0 0
0.3125 0 0
0.3125 0 0
0.25 0 0
0.4375 0 0
0.4375 0 0
0 0 0
0.3125 0 0
0.3125 0 0
0.25 0 0
0.3125 0 0
0.25 0 0
0 0 0
0.03125 0 0
0.3125 0 0
0.25 0 0
0 0 0
0.03125 0 0
0.3125 0 0
0.25 0 0
0 0 0
0.3125 0 0
0.3125 0 0
0.25 0 0
0.3125 0 0
0.25 0 0
0.4375 0 0
0 0 0
0.3125 0 0
0.3125 0 0
0.25 0 0
0.3125 0 0
0.25 0 0
0 0 0
0.03125 0 0
0.3125 0 0
0.25 0 0
0 0 0
0.03125 0 0
0.3125 0 0
0.25 0 0
0 0 0
0.3125 0 0
0.3125 0 0
0.25 0 0
0.3125 0 0
0.25 0 0
0.4375 0 0
0 0 0
0.3125 0 0
0.3125 0 0
0.25 0 0
0.3125 0 0
0.25 0 0
0 0 0
0.03125 0 0
0.3125 0 0
0.25 0 0
0 0 0
0.03125 0 0
0.3125 0 0
0.25 0 0
0 0 0
0.3125 0 0
0.3125 0 0
0.25 0 0
0.3125 0 0
0.25 0 0
0.4375 0 0
0 0 0
0.3125 0 0
0.3125 0 0
0.3125 0 0
0.25 0 0
0.4375 0 0
0 0 0
0.03125 0 0
0.3125 0 0
0.25 0 0
0 0 0
0.03125 0 0
0.3125 0 0
0.25 0 0
0 0 0
0.3125 0 0
0.3125 0 0
0.25 0 0
0.3125 0 0
0.25 0 0
0.4375 0 0
0 0 0
0.3125 0 0
0.3125 0 0
0.3125 0 0
0.25 0 0
0.4375 0 0
0 0 0
0.03125 0 0
0.3125 0 0
0.25 0 0
0 0 0
0.03125 0 0
0.3125 0 0
0.25 0 0
0 0 0
0.3125 0 0
0.3125 0 0
0.25 0 0
0.3125 0 0
0.25 0 0
0.4375 0 0
0 0 0
0.3125 0 0
0.3125 0 0
0.3125 0 0
0.25 0 0
0.4375 0 0
0 0 0
0.03125 0 0
0.3125 0 0
0.25 0 0
0 0 0
0.03125 0 0
0.3125 0 0
0.25 0 0
0 0 0
0.3125 0 0
0.3125 0 0
0.25 0 0
0.3125 0 0
0.25 0 0
0.4375 0 0
0 0 0
0.3125 0 0
0.3125 0 0
0.3125 0 0
0.25 0 0
0.4375 0 0
0 0 0
0.03125 0 0
0.3125 0 0
0.25 0 0
0 0 0
0.03125 0 0
0.3125 0 0
0.25 0 0
0 0 0
0.3125 0 0
0.3125 0 0
0.3125 0 0
0.25 0 0
0.4375 0 0
0.4375 0 0
0 0 0
0.3125 0 0
0.3125 0 0
0.3125 0 0
0.25 0 0
0.4375 0 0
0 0 0
0.03125 0 0
0.3125 0 0
0.25 0 0
0 0 0
0.03125 0 0
0.3125 0 0
0.25 0 0
0 0 0
0.3125 0 0
0.3125 0 0
0.3125 0 0
0.25 0 0
0.4375 0 0
0.4375 0 0
0 0 0
0.3125 0 0
0.3125 0 0
0.3125 0 0
0.25 0 0
0.4375 0 0
0 0 0
0.03125 0 0
0.3125 0 0
0.25 0 0
0 0 0
0.03125 0 0
0.3125 0 0
0.25 0 0
0 0 0
0.3125 0 0
0.3125 0 0
0.3125 0 0
0.25 0 0
0.4375 0 0
0.3125 0 0
0.25 0 0
0.3125 0 0
0.3125 0 0
0.25 0 0
0.25 0 0
0.3125 0 0
0.3125 0 0
0.25 0 0
0.25 0 0
0.3125 0 0
0.25 0 0
0.3125 0 0
0.3125 0 0
0.25 0 0
0.25 0 0
0.3125 0 0
0.3125 0 0
0.25 0 0
0.25 0 0
0.3125 0 0
0.25 0 0
0.3125 0 0
0.3125 0 0
0.25 0 0
0.25 0 0
0.3125 0 0
0.3125 0 0
0.25 0 0
0.25 0 0
0.3125 0 0
0.25 0 0
0.3125 0 0
0.3125 0 0
0.25 0 0
0.25 0 0
0.3125 0 0
0.3125 0 0
0.25 0 0
0.25 0 0
0.3125 0 0
0 0 0
0.3125 0 0
0 0 0
0.3125 0 0
0 0 0
0.3125 0 0
0 0 0
0.3125 0 0
0 0 0
0.3125 0 0
0 0 0
0.3125 0 0
0 0 0
0.3125 0 0
0 0 0
0.3125 0 0
0 0 0
0.3125 0 0
0 0 0
0.3125 0 0
0 0 0
0.3125 0 0
0 0 0
0.3125 0 0
0 0 0
0.3125 0 0
0 0 0
0.3125 0 0
0 0 0
0.3125 0 0
0 0 0
0.3125 0 0
0 0 0
0.3125 0 0
0 0 0
0.3125 0 0
0 0 0
0.3125 0 0
0 0 0
0.3125 0 0
0 0 0
0.3125 0 0
0 0 0
0.3125 0 0
0 0 0
0.3125 0 0
0 0 0
0.3125 0 0
0.25 0 0
0.3125 0 0
0.25 0 0
0.3125 0 0
0.25 0 0
0.3125 0 0
0.25 0 0
0.3125 0 0
0.25 0 0
0.3125 0 0
0.25 0 0
0.3125 0 0
0.25 0 0
0.3125 0 0
0.25 0 0
0.3125 0 0
0.25 0 0
0.3125 0 0
0.25 0 0
0.3125 0 0
0.25 0 0
0.3125 0 0
0.25 0 0
