# vtk DataFile Version 1.0
Cube
ASCII

DATASET POLYDATA
POINTS 1140 float
14.834923 4.677983 8.225126
14.275104 3.293618 4.971067
14.913464 2.947630 1.552469
13.387294 3.347659 8.554813
2.214699 2.445180 5.527781
13.255449 1.818601 4.192195
13.081901 2.389348 2.048927
14.834019 4.883492 1.867751
17.307146 5.905400 14.953779
12.702520 1.764991 3.070449
2.930343 2.829112 6.494321
13.121285 3.881713 6.436297
14.426232 4.966006 4.045104
18.649206 7.205619 19.832737
15.467768 11.884658 2.677665
11.494635 0.899332 2.921329
15.766128 4.783297 10.058590
14.524109 6.978530 2.849305
13.029304 11.813154 2.447594
2.619040 3.725491 7.289424
15.200393 6.477651 7.517872
14.247982 11.150364 2.567905
14.208394 11.371655 7.577723
4.359663 0.672530 2.186280
4.255085 2.162197 6.676106
12.736940 3.278708 7.492511
12.937302 13.425308 7.119813
15.363994 13.554377 7.435704
14.177885 12.770782 7.381331
14.603177 5.490629 2.931676
10.869556 13.589177 5.913058
10.301659 13.272428 5.248126
6.335033 1.990408 7.863789
6.908075 2.312625 8.522372
14.323790 9.728853 2.673202
18.329045 6.786268 17.095830
11.463683 2.515578 7.468774
17.220319 12.784551 4.022787
17.631827 12.862461 4.852867
5.118464 6.671627 13.562196
15.341358 10.640512 7.247022
16.100983 11.077394 6.934032
18.255229 6.584266 15.659207
3.990945 5.499989 11.258853
4.886622 5.746767 11.238585
17.456457 14.094185 8.468384
18.067546 13.968273 9.157744
17.007802 5.479441 12.462159
10.531422 2.710874 6.486409
10.696587 3.337276 5.819752
5.550466 1.345146 2.363600
5.546421 2.274681 2.395636
17.056725 5.158889 10.109108
3.837141 5.187183 9.314289
5.467745 7.050788 14.834686
13.388767 6.546544 8.740655
11.829557 11.125832 2.283258
11.830784 10.196628 2.253941
16.137723 5.289875 15.434208
15.950777 5.316832 16.273358
15.609075 4.886097 14.888937
15.343764 9.264391 7.382345
16.095526 8.776939 7.134462
5.125476 2.613947 7.632502
4.895619 3.359715 8.139468
10.645977 11.806516 2.164571
9.853915 11.329966 2.067633
17.685238 5.995161 13.637061
14.239087 8.610476 7.882049
16.305894 13.351627 8.429836
16.155558 12.702955 9.078376
3.084596 1.407771 2.042029
16.009710 12.492019 1.568497
15.618637 12.375830 0.732533
14.264577 7.110988 8.060587
17.605521 6.080767 18.019358
16.988507 5.443440 17.739378
10.885973 0.745633 1.706053
11.237817 1.177156 0.960778
9.344389 1.994187 6.463077
8.708485 2.158509 5.805002
16.076673 12.022375 3.877116
15.718993 11.595662 4.621924
12.070330 12.972933 6.143332
12.306982 12.233667 5.631536
14.678017 7.620781 1.647419
14.846020 7.124077 0.878914
17.790318 6.312820 19.346829
17.285778 5.818167 19.951444
6.740486 0.678173 2.493446
7.527368 1.158388 2.613898
14.586905 8.979909 1.566266
14.707324 9.400529 0.745944
13.109490 10.708330 8.103193
12.355190 11.189579 8.356352
13.132966 9.353347 8.249269
12.388829 8.919087 8.601253
5.682605 7.846704 18.941264
6.314233 8.455797 19.250196
15.117679 4.722025 11.207320
14.231091 4.437830 11.201660
15.670549 5.045427 12.367818
15.161178 4.984454 13.142632
5.568596 7.665556 17.600200
6.123858 8.133457 17.020194
14.188809 9.097434 3.873058
14.027744 9.595582 4.642152
14.289215 7.721577 3.952183
14.193682 7.302117 4.777536
3.125701 2.644689 1.929022
2.017968 0.838343 1.975889
17.109296 11.496347 11.002407
9.874026 8.605692 1.057026
15.299174 10.301047 11.363541
14.081297 12.593373 19.192840
16.416216 10.458683 11.109936
17.115781 9.073131 10.777206
18.041510 9.224170 10.569615
17.049724 8.489996 11.536561
16.681292 8.668363 10.023248
13.326377 12.475898 20.227549
14.551603 11.688361 11.669896
13.629227 11.516343 11.874241
14.970378 12.120247 12.416652
14.606511 12.257575 10.897962
8.046782 7.322753 0.040577
15.997935 16.177464 40.617406
7.705834 7.402452 0.934606
11.394500 12.133387 19.711980
12.154407 10.823633 20.117789
15.343398 13.214549 19.209071
15.724335 13.186930 18.327620
15.246568 14.128679 19.486271
15.919974 12.753246 19.821375
14.547917 9.021404 11.590771
13.628499 9.219588 11.783166
14.598698 8.476710 10.801106
14.935496 8.548921 12.330507
13.321340 11.939351 17.941045
13.869946 12.017303 17.157811
13.149392 11.012322 18.121368
12.490228 12.397382 17.797768
8.983025 9.092931 3.846683
18.810499 9.105339 28.513541
18.250680 7.720973 25.259482
18.889040 7.374986 21.840884
17.362871 7.775014 28.843227
6.190275 6.872535 25.816196
17.231025 6.245956 24.480610
17.057478 6.816704 22.337342
18.809596 9.310848 22.156166
21.282723 10.332756 35.242193
16.678096 6.192346 23.358863
6.905920 7.256467 26.782736
17.096861 8.309069 26.724711
18.401808 9.393361 24.333519
22.624782 11.632974 40.121151
19.443345 16.312014 22.966079
15.470212 5.326687 23.209743
19.741704 9.210653 30.347005
18.499686 11.405885 23.137719
17.004880 16.240510 22.736009
6.594617 8.152846 27.577839
19.175969 10.905007 27.806287
18.223559 15.577719 22.856319
18.183971 15.799011 27.866137
8.335239 5.099885 22.474694
8.230662 6.589552 26.964520
16.712516 7.706063 27.780926
16.912878 17.852664 27.408228
19.339570 17.981733 27.724118
18.153462 17.198137 27.669746
18.578753 9.917984 23.220090
14.845132 18.016533 26.201473
14.277236 17.699783 25.536540
10.310609 6.417764 28.152204
10.883652 6.739980 28.810786
18.299366 14.156208 22.961616
22.304621 11.213623 37.384244
15.439259 6.942934 27.757189
21.195896 17.211907 24.311201
21.607404 17.289816 25.141282
9.094040 11.098982 33.850611
19.316935 15.067868 27.535436
20.076559 15.504749 27.222447
22.230806 11.011622 35.947622
7.966522 9.927345 31.547267
8.862198 10.174123 31.526999
21.432033 18.521540 28.756799
22.043123 18.395628 29.446159
20.983378 9.906796 32.750573
14.506998 7.138230 26.774824
14.672164 7.764632 26.108167
9.526043 5.772502 22.652015
9.521998 6.702036 22.684050
21.032302 9.586244 30.397523
7.812717 9.614538 29.602704
9.443321 11.478144 35.123100
17.364344 10.973900 29.029069
15.805134 15.553187 22.571673
15.806361 14.623983 22.542356
20.113300 9.717231 35.722623
19.926353 9.744188 36.561772
19.584652 9.313452 35.177352
19.319340 13.691746 27.670760
20.071103 13.204294 27.422876
9.101052 7.041303 27.920916
8.871196 7.787070 28.427883
14.621554 16.233872 22.452985
13.829491 15.757322 22.356047
21.660814 10.422516 33.925475
18.214664 13.037832 28.170464
20.281470 17.778982 28.718251
20.131134 17.130310 29.366790
7.060173 5.835126 22.330443
19.985286 16.919374 21.856912
19.594213 16.803186 21.020948
18.240154 11.538343 28.349002
21.581098 10.508123 38.307773
20.964083 9.870796 38.027793
14.861550 5.172989 21.994467
15.213394 5.604511 21.249193
13.319966 6.421543 26.751492
12.684061 6.585865 26.093417
20.052249 16.449731 24.165531
19.694569 16.023017 24.910339
16.045907 17.400289 26.431746
16.282558 16.661022 25.919951
18.653594 12.048137 21.935834
18.821597 11.551433 21.167329
21.765894 10.740175 39.635244
21.261355 10.245523 40.239859
10.716062 5.105528 22.781861
11.502945 5.585743 22.902313
18.562481 13.407264 21.854680
18.682900 13.827885 21.034359
17.085067 15.135685 28.391607
16.330767 15.616935 28.644766
17.108542 13.780703 28.537684
16.364406 13.346442 28.889668
9.658182 12.274060 39.229678
10.289809 12.883152 39.538610
19.093255 9.149380 31.495735
18.206668 8.865186 31.490074
19.646125 9.472782 32.656232
19.136754 9.411810 33.431047
9.544173 12.092912 37.888614
10.099435 12.560813 37.308609
18.164386 13.524789 24.161473
18.003320 14.022937 24.930566
18.264791 12.148933 24.240598
18.169258 11.729473 25.065951
7.101278 7.072044 22.217437
5.993544 5.265698 22.264303
21.084872 15.923702 31.290822
13.849602 13.033048 21.345441
19.274750 14.728403 31.651956
18.056873 17.020728 39.481255
20.391792 14.886038 31.398350
21.091357 13.500486 31.065620
22.017087 13.651526 30.858029
21.025301 12.917352 31.824975
20.656868 13.095718 30.311662
17.301953 16.903254 40.515964
18.527179 16.115716 31.958311
17.604804 15.943698 32.162656
18.945954 16.547602 32.705066
18.582088 16.684931 31.186377
12.022359 11.750108 20.328991
11.681410 11.829808 21.223021
15.370076 16.560743 40.000395
16.129984 15.250988 40.406204
19.318974 17.641905 39.497485
19.699911 17.614286 38.616035
19.222144 18.556035 39.774686
19.895551 17.180601 40.109790
18.523494 13.448759 31.879186
17.604075 13.646944 32.071581
18.574274 12.904065 31.089520
18.911073 12.976276 32.618922
17.296917 16.366706 38.229460
17.845522 16.444659 37.446225
17.124968 15.439678 38.409783
16.465805 16.824738 38.086183
12.958601 13.520287 24.135098
21.082563 17.206072 8.225126
20.522743 15.821706 4.971067
21.161104 15.475719 1.552469
19.634934 15.875747 8.554813
8.462338 14.973268 5.527781
19.503088 14.346689 4.192195
19.329541 14.917437 2.048927
21.081659 17.411581 1.867751
23.554786 18.433489 14.953779
18.950159 14.293079 3.070449
9.177983 15.357200 6.494321
19.368925 16.409802 6.436297
20.673871 17.494094 4.045104
24.896846 19.733707 19.832737
21.715408 24.412747 2.677665
17.742275 13.427420 2.921329
22.013767 17.311386 10.058590
20.771749 19.506618 2.849305
19.276943 24.341243 2.447594
8.866680 16.253579 7.289424
21.448032 19.005740 7.517872
20.495622 23.678452 2.567905
20.456034 23.899744 7.577723
10.607303 13.200618 2.186280
10.502725 14.690285 6.676106
18.984579 15.806796 7.492511
19.184941 25.953397 7.119813
21.611634 26.082466 7.435704
20.425525 25.298870 7.381331
20.850816 18.018717 2.931676
17.117195 26.117266 5.913058
16.549299 25.800516 5.248126
12.582672 14.518497 7.863789
13.155715 14.840713 8.522372
20.571430 22.256941 2.673202
24.576684 19.314356 17.095830
17.711322 15.043667 7.468774
23.467959 25.312640 4.022787
23.879467 25.390549 4.852867
11.366103 19.199715 13.562196
21.588998 23.168601 7.247022
22.348622 23.605482 6.934032
24.502869 19.112355 15.659207
10.238585 18.028078 11.258853
11.134261 18.274856 11.238585
23.704097 26.622273 8.468384
24.315186 26.496361 9.157744
23.255441 18.007529 12.462159
16.779062 15.238963 6.486409
16.944227 15.865365 5.819752
11.798106 13.873235 2.363600
11.794061 14.802769 2.395636
23.304365 17.686977 10.109108
10.084781 17.715271 9.314289
11.715384 19.578877 14.834686
19.636407 19.074633 8.740655
18.077197 23.653920 2.283258
18.078424 22.724716 2.253941
22.385363 17.817964 15.434208
22.198416 17.844921 16.273358
21.856715 17.414185 14.888937
21.591403 21.792479 7.382345
22.343166 21.305027 7.134462
11.373116 15.142036 7.632502
11.143259 15.887803 8.139468
16.893617 24.334605 2.164571
16.101554 23.858055 2.067633
23.932877 18.523249 13.637061
20.486727 21.138565 7.882049
22.553534 25.879715 8.429836
22.403198 25.231043 9.078376
9.332236 13.935859 2.042029
22.257350 25.020107 1.568497
21.866276 24.903919 0.732533
20.512217 19.639076 8.060587
23.853161 18.608856 18.019358
23.236146 17.971529 17.739378
17.133613 13.273722 1.706053
17.485457 13.705244 0.960778
15.592029 14.522276 6.463077
14.956124 14.686598 5.805002
22.324313 24.550464 3.877116
21.966632 24.123750 4.621924
18.317970 25.501022 6.143332
18.554621 24.761755 5.631536
20.925657 20.148870 1.647419
21.093660 19.652166 0.878914
24.037957 18.840908 19.346829
23.533418 18.346256 19.951444
12.988125 13.206261 2.493446
13.775008 13.686476 2.613898
20.834544 21.507997 1.566266
20.954963 21.928618 0.745944
19.357130 23.236418 8.103193
18.602830 23.717668 8.356352
19.380606 21.881436 8.249269
18.636469 21.447175 8.601253
11.930245 20.374793 18.941264
12.561872 20.983885 19.250196
21.365319 17.250113 11.207320
20.478731 16.965919 11.201660
21.918189 17.573515 12.367818
21.408818 17.512543 13.142632
11.816236 20.193645 17.600200
12.371498 20.661546 17.020194
20.436449 21.625522 3.873058
20.275383 22.123670 4.642152
20.536854 20.249666 3.952183
20.441321 19.830206 4.777536
9.373341 15.172777 1.929022
8.265607 13.366431 1.975889
23.356936 24.024435 11.002407
16.121666 21.133781 1.057026
21.546813 22.829136 11.363541
20.328936 25.121461 19.192840
22.663855 22.986771 11.109936
23.363420 21.601219 10.777206
24.289150 21.752259 10.569615
23.297364 21.018085 11.536561
22.928931 21.196451 10.023248
19.574016 25.003987 20.227549
20.799242 24.216449 11.669896
19.876867 24.044431 11.874241
21.218018 24.648335 12.416652
20.854151 24.785664 10.897962
14.294422 19.850841 0.040577
22.245575 28.705552 40.617406
13.953474 19.930541 0.934606
17.642139 24.661476 19.711980
18.402047 23.351721 20.117789
21.591037 25.742638 19.209071
21.971974 25.715019 18.327620
21.494207 26.656768 19.486271
22.167614 25.281334 19.821375
20.795557 21.549492 11.590771
19.876139 21.747677 11.783166
20.846337 21.004798 10.801106
21.183136 21.077009 12.330507
19.568980 24.467439 17.941045
20.117586 24.545392 17.157811
19.397031 23.540411 18.121368
18.737868 24.925471 17.797768
15.230664 21.621020 3.846683
25.058139 21.633427 28.513541
24.498320 20.249062 25.259482
25.136680 19.903074 21.840884
23.610510 20.303103 28.843227
12.437915 19.400624 25.816196
23.478665 18.774045 24.480610
23.305117 19.344792 22.337342
25.057236 21.838936 22.156166
27.530363 22.860844 35.242193
22.925736 18.720435 23.358863
13.153559 19.784556 26.782736
23.344501 20.837157 26.724711
24.649448 21.921450 24.333519
28.872422 24.161063 40.121151
25.690984 28.840102 22.966079
21.717851 17.854776 23.209743
25.989344 21.738741 30.347005
24.747325 23.933974 23.137719
23.252520 28.768598 22.736009
12.842256 20.680935 27.577839
25.423609 23.433095 27.806287
24.471198 28.105807 22.856319
24.431610 28.327099 27.866137
14.582879 17.627974 22.474694
14.478301 19.117641 26.964520
22.960156 20.234151 27.780926
23.160518 30.380752 27.408228
25.587210 30.509821 27.724118
24.401101 29.726225 27.669746
24.826393 22.446073 23.220090
21.092772 30.544621 26.201473
20.524875 30.227872 25.536540
16.558249 18.945852 28.152204
17.131291 19.268069 28.810786
24.547006 26.684297 22.961616
28.552261 23.741711 37.384244
21.686899 19.471022 27.757189
27.443535 29.739995 24.311201
27.855043 29.817905 25.141282
15.341680 23.627071 33.850611
25.564574 27.595956 27.535436
26.324199 28.032838 27.222447
28.478445 23.539710 35.947622
14.214161 22.455433 31.547267
15.109838 22.702211 31.526999
27.679673 31.049628 28.756799
28.290762 30.923717 29.446159
27.231018 22.434885 32.750573
20.754638 19.666318 26.774824
20.919803 20.292720 26.108167
15.773683 18.300590 22.652015
15.769637 19.230124 22.684050
27.279941 22.114333 30.397523
14.060357 22.142626 29.602704
15.690961 24.006232 35.123100
23.611983 23.501988 29.029069
22.052773 28.081276 22.571673
22.054000 27.152072 22.542356
26.360939 22.245319 35.722623
26.173993 22.272276 36.561772
25.832291 21.841541 35.177352
25.566980 26.219835 27.670760
26.318742 25.732382 27.422876
15.348692 19.569391 27.920916
15.118835 20.315159 28.427883
20.869193 28.761960 22.452985
20.077131 28.285410 22.356047
27.908454 22.950604 33.925475
24.462303 25.565920 28.170464
26.529110 30.307071 28.718251
26.378774 29.658399 29.366790
13.307812 18.363214 22.330443
26.232926 29.447463 21.856912
25.841853 29.331274 21.020948
24.487793 24.066432 28.349002
27.828737 23.036211 38.307773
27.211723 22.398884 38.027793
21.109189 17.701077 21.994467
21.461033 18.132600 21.249193
19.567605 18.949631 26.751492
18.931701 19.113953 26.093417
26.299889 28.977819 24.165531
25.942209 28.551106 24.910339
22.293546 29.928377 26.431746
22.530198 29.189111 25.919951
24.901233 24.576225 21.935834
25.069236 24.079521 21.167329
28.013534 23.268264 39.635244
27.508994 22.773611 40.239859
16.963702 17.633616 22.781861
17.750584 18.113832 22.902313
24.810121 25.935353 21.854680
24.930540 26.355973 21.034359
23.332706 27.663774 28.391607
22.578406 28.145023 28.644766
23.356182 26.308791 28.537684
22.612045 25.874530 28.889668
15.905821 24.802148 39.229678
16.537449 25.411241 39.538610
25.340895 21.677469 31.495735
24.454307 21.393274 31.490074
25.893765 22.000871 32.656232
25.384394 21.939898 33.431047
15.791812 24.621000 37.888614
16.347074 25.088901 37.308609
24.412025 26.052878 24.161473
24.250960 26.551026 24.930566
24.512431 24.677021 24.240598
24.416898 24.257561 25.065951
13.348917 19.600133 22.217437
12.241184 17.793787 22.264303
27.332512 28.451791 31.290822
20.097242 25.561136 21.345441
25.522390 27.256491 31.651956
24.304513 29.548817 39.481255
26.639432 27.414127 31.398350
27.338997 26.028575 31.065620
28.264726 26.179614 30.858029
27.272940 25.445440 31.824975
26.904508 25.623807 30.311662
23.549593 29.431342 40.515964
24.774819 28.643805 31.958311
23.852443 28.471787 32.162656
25.193594 29.075690 32.705066
24.829727 29.213019 31.186377
18.269998 24.278197 20.328991
17.929050 24.357896 21.223021
21.617716 29.088831 40.000395
22.377623 27.779077 40.406204
25.566614 30.169993 39.497485
25.947551 30.142374 38.616035
25.469784 31.084123 39.774686
26.143190 29.708690 40.109790
24.771133 25.976847 31.879186
23.851715 26.175032 32.071581
24.821914 25.432154 31.089520
25.158712 25.504365 32.618922
23.544556 28.894795 38.229460
24.093162 28.972747 37.446225
23.372608 27.967766 38.409783
22.713444 29.352826 38.086183
19.206241 26.048375 24.135098
28.536823 4.677983 8.225126
27.977004 3.293618 4.971067
28.615364 2.947630 1.552469
27.089194 3.347659 8.554813
15.916599 2.445180 5.527781
26.957349 1.818601 4.192195
26.783801 2.389348 2.048927
28.535919 4.883492 1.867751
31.009046 5.905400 14.953779
26.404420 1.764991 3.070449
16.632243 2.829112 6.494321
26.823185 3.881713 6.436297
28.128132 4.966006 4.045104
32.351106 7.205619 19.832737
29.169668 11.884658 2.677665
25.196535 0.899332 2.921329
29.468028 4.783297 10.058590
28.226009 6.978530 2.849305
26.731204 11.813154 2.447594
16.320940 3.725491 7.289424
28.902293 6.477651 7.517872
27.949882 11.150364 2.567905
27.910294 11.371655 7.577723
18.061563 0.672530 2.186280
17.956985 2.162197 6.676106
26.438840 3.278708 7.492511
26.639202 13.425308 7.119813
29.065894 13.554377 7.435704
27.879785 12.770782 7.381331
28.305077 5.490629 2.931676
24.571456 13.589177 5.913058
24.003559 13.272428 5.248126
20.036933 1.990408 7.863789
20.609975 2.312625 8.522372
28.025690 9.728853 2.673202
32.030945 6.786268 17.095830
25.165583 2.515578 7.468774
30.922219 12.784551 4.022787
31.333727 12.862461 4.852867
18.820364 6.671627 13.562196
29.043258 10.640512 7.247022
29.802883 11.077394 6.934032
31.957129 6.584266 15.659207
17.692845 5.499989 11.258853
18.588522 5.746767 11.238585
31.158357 14.094185 8.468384
31.769446 13.968273 9.157744
30.709702 5.479441 12.462159
24.233322 2.710874 6.486409
24.398487 3.337276 5.819752
19.252366 1.345146 2.363600
19.248321 2.274681 2.395636
30.758625 5.158889 10.109108
17.539041 5.187183 9.314289
19.169645 7.050788 14.834686
27.090667 6.546544 8.740655
25.531457 11.125832 2.283258
25.532684 10.196628 2.253941
29.839623 5.289875 15.434208
29.652677 5.316832 16.273358
29.310975 4.886097 14.888937
29.045664 9.264391 7.382345
29.797426 8.776939 7.134462
18.827376 2.613947 7.632502
18.597519 3.359715 8.139468
24.347877 11.806516 2.164571
23.555815 11.329966 2.067633
31.387138 5.995161 13.637061
27.940987 8.610476 7.882049
30.007794 13.351627 8.429836
29.857458 12.702955 9.078376
16.786496 1.407771 2.042029
29.711610 12.492019 1.568497
29.320537 12.375830 0.732533
27.966477 7.110988 8.060587
31.307421 6.080767 18.019358
30.690407 5.443440 17.739378
24.587873 0.745633 1.706053
24.939717 1.177156 0.960778
23.046289 1.994187 6.463077
22.410385 2.158509 5.805002
29.778573 12.022375 3.877116
29.420893 11.595662 4.621924
25.772230 12.972933 6.143332
26.008882 12.233667 5.631536
28.379917 7.620781 1.647419
28.547920 7.124077 0.878914
31.492218 6.312820 19.346829
30.987678 5.818167 19.951444
20.442386 0.678173 2.493446
21.229268 1.158388 2.613898
28.288805 8.979909 1.566266
28.409224 9.400529 0.745944
26.811390 10.708330 8.103193
26.057090 11.189579 8.356352
26.834866 9.353347 8.249269
26.090729 8.919087 8.601253
19.384505 7.846704 18.941264
20.016133 8.455797 19.250196
28.819579 4.722025 11.207320
27.932991 4.437830 11.201660
29.372449 5.045427 12.367818
28.863078 4.984454 13.142632
19.270496 7.665556 17.600200
19.825758 8.133457 17.020194
27.890709 9.097434 3.873058
27.729644 9.595582 4.642152
27.991115 7.721577 3.952183
27.895582 7.302117 4.777536
16.827601 2.644689 1.929022
15.719868 0.838343 1.975889
30.811196 11.496347 11.002407
23.575926 8.605692 1.057026
29.001074 10.301047 11.363541
27.783197 12.593373 19.192840
30.118116 10.458683 11.109936
30.817681 9.073131 10.777206
31.743410 9.224170 10.569615
30.751624 8.489996 11.536561
30.383192 8.668363 10.023248
27.028277 12.475898 20.227549
28.253503 11.688361 11.669896
27.331127 11.516343 11.874241
28.672278 12.120247 12.416652
28.308411 12.257575 10.897962
21.748682 7.322753 0.040577
29.699835 16.177464 40.617406
21.407734 7.402452 0.934606
25.096400 12.133387 19.711980
25.856307 10.823633 20.117789
29.045298 13.214549 19.209071
29.426235 13.186930 18.327620
28.948468 14.128679 19.486271
29.621874 12.753246 19.821375
28.249817 9.021404 11.590771
27.330399 9.219588 11.783166
28.300598 8.476710 10.801106
28.637396 8.548921 12.330507
27.023240 11.939351 17.941045
27.571846 12.017303 17.157811
26.851292 11.012322 18.121368
26.192128 12.397382 17.797768
22.684925 9.092931 3.846683
32.512399 9.105339 28.513541
31.952580 7.720973 25.259482
32.590940 7.374986 21.840884
31.064771 7.775014 28.843227
19.892175 6.872535 25.816196
30.932925 6.245956 24.480610
30.759378 6.816704 22.337342
32.511496 9.310848 22.156166
34.984623 10.332756 35.242193
30.379996 6.192346 23.358863
20.607820 7.256467 26.782736
30.798761 8.309069 26.724711
32.103708 9.393361 24.333519
36.326682 11.632974 40.121151
33.145245 16.312014 22.966079
29.172112 5.326687 23.209743
33.443604 9.210653 30.347005
32.201586 11.405885 23.137719
30.706780 16.240510 22.736009
20.296517 8.152846 27.577839
32.877869 10.905007 27.806287
31.925459 15.577719 22.856319
31.885871 15.799011 27.866137
22.037139 5.099885 22.474694
21.932562 6.589552 26.964520
30.414416 7.706063 27.780926
30.614778 17.852664 27.408228
33.041470 17.981733 27.724118
31.855362 17.198137 27.669746
32.280653 9.917984 23.220090
28.547032 18.016533 26.201473
27.979136 17.699783 25.536540
24.012509 6.417764 28.152204
24.585552 6.739980 28.810786
32.001266 14.156208 22.961616
36.006521 11.213623 37.384244
29.141159 6.942934 27.757189
34.897796 17.211907 24.311201
35.309304 17.289816 25.141282
22.795940 11.098982 33.850611
33.018835 15.067868 27.535436
33.778459 15.504749 27.222447
35.932706 11.011622 35.947622
21.668422 9.927345 31.547267
22.564098 10.174123 31.526999
35.133933 18.521540 28.756799
35.745023 18.395628 29.446159
34.685278 9.906796 32.750573
28.208898 7.138230 26.774824
28.374064 7.764632 26.108167
23.227943 5.772502 22.652015
23.223898 6.702036 22.684050
34.734202 9.586244 30.397523
21.514617 9.614538 29.602704
23.145221 11.478144 35.123100
31.066244 10.973900 29.029069
29.507034 15.553187 22.571673
29.508261 14.623983 22.542356
33.815200 9.717231 35.722623
33.628253 9.744188 36.561772
33.286552 9.313452 35.177352
33.021240 13.691746 27.670760
33.773003 13.204294 27.422876
22.802952 7.041303 27.920916
22.573096 7.787070 28.427883
28.323454 16.233872 22.452985
27.531391 15.757322 22.356047
35.362714 10.422516 33.925475
31.916564 13.037832 28.170464
33.983370 17.778982 28.718251
33.833034 17.130310 29.366790
20.762073 5.835126 22.330443
33.687186 16.919374 21.856912
33.296113 16.803186 21.020948
31.942054 11.538343 28.349002
35.282998 10.508123 38.307773
34.665983 9.870796 38.027793
28.563450 5.172989 21.994467
28.915294 5.604511 21.249193
27.021866 6.421543 26.751492
26.385961 6.585865 26.093417
33.754149 16.449731 24.165531
33.396469 16.023017 24.910339
29.747807 17.400289 26.431746
29.984458 16.661022 25.919951
32.355494 12.048137 21.935834
32.523497 11.551433 21.167329
35.467794 10.740175 39.635244
34.963255 10.245523 40.239859
24.417962 5.105528 22.781861
25.204845 5.585743 22.902313
32.264381 13.407264 21.854680
32.384800 13.827885 21.034359
30.786967 15.135685 28.391607
30.032667 15.616935 28.644766
30.810442 13.780703 28.537684
30.066306 13.346442 28.889668
23.360082 12.274060 39.229678
23.991709 12.883152 39.538610
32.795155 9.149380 31.495735
31.908568 8.865186 31.490074
33.348025 9.472782 32.656232
32.838654 9.411810 33.431047
23.246073 12.092912 37.888614
23.801335 12.560813 37.308609
31.866286 13.524789 24.161473
31.705220 14.022937 24.930566
31.966691 12.148933 24.240598
31.871158 11.729473 25.065951
20.803178 7.072044 22.217437
19.695444 5.265698 22.264303
34.786772 15.923702 31.290822
27.551502 13.033048 21.345441
32.976650 14.728403 31.651956
31.758773 17.020728 39.481255
34.093692 14.886038 31.398350
34.793257 13.500486 31.065620
35.718987 13.651526 30.858029
34.727201 12.917352 31.824975
34.358768 13.095718 30.311662
31.003853 16.903254 40.515964
32.229079 16.115716 31.958311
31.306704 15.943698 32.162656
32.647854 16.547602 32.705066
32.283988 16.684931 31.186377
25.724259 11.750108 20.328991
25.383310 11.829808 21.223021
29.071976 16.560743 40.000395
29.831884 15.250988 40.406204
33.020874 17.641905 39.497485
33.401811 17.614286 38.616035
32.924044 18.556035 39.774686
33.597451 17.180601 40.109790
32.225394 13.448759 31.879186
31.305975 13.646944 32.071581
32.276174 12.904065 31.089520
32.612973 12.976276 32.618922
30.998817 16.366706 38.229460
31.547422 16.444659 37.446225
30.826868 15.439678 38.409783
30.167705 16.824738 38.086183
26.660501 13.520287 24.135098
34.784463 17.206072 8.225126
34.224643 15.821706 4.971067
34.863004 15.475719 1.552469
33.336834 15.875747 8.554813
22.164238 14.973268 5.527781
33.204988 14.346689 4.192195
33.031441 14.917437 2.048927
34.783559 17.411581 1.867751
37.256686 18.433489 14.953779
32.652059 14.293079 3.070449
22.879883 15.357200 6.494321
33.070825 16.409802 6.436297
34.375771 17.494094 4.045104
38.598746 19.733707 19.832737
35.417308 24.412747 2.677665
31.444175 13.427420 2.921329
35.715667 17.311386 10.058590
34.473649 19.506618 2.849305
32.978843 24.341243 2.447594
22.568580 16.253579 7.289424
35.149932 19.005740 7.517872
34.197522 23.678452 2.567905
34.157934 23.899744 7.577723
24.309203 13.200618 2.186280
24.204625 14.690285 6.676106
32.686479 15.806796 7.492511
32.886841 25.953397 7.119813
35.313534 26.082466 7.435704
34.127425 25.298870 7.381331
34.552716 18.018717 2.931676
30.819095 26.117266 5.913058
30.251199 25.800516 5.248126
26.284572 14.518497 7.863789
26.857615 14.840713 8.522372
34.273330 22.256941 2.673202
38.278584 19.314356 17.095830
31.413222 15.043667 7.468774
37.169859 25.312640 4.022787
37.581367 25.390549 4.852867
25.068003 19.199715 13.562196
35.290898 23.168601 7.247022
36.050522 23.605482 6.934032
38.204769 19.112355 15.659207
23.940485 18.028078 11.258853
24.836161 18.274856 11.238585
37.405997 26.622273 8.468384
38.017086 26.496361 9.157744
36.957341 18.007529 12.462159
30.480962 15.238963 6.486409
30.646127 15.865365 5.819752
25.500006 13.873235 2.363600
25.495961 14.802769 2.395636
37.006265 17.686977 10.109108
23.786681 17.715271 9.314289
25.417284 19.578877 14.834686
33.338307 19.074633 8.740655
31.779097 23.653920 2.283258
31.780324 22.724716 2.253941
36.087263 17.817964 15.434208
35.900316 17.844921 16.273358
35.558615 17.414185 14.888937
35.293303 21.792479 7.382345
36.045066 21.305027 7.134462
25.075016 15.142036 7.632502
24.845159 15.887803 8.139468
30.595517 24.334605 2.164571
29.803454 23.858055 2.067633
37.634777 18.523249 13.637061
34.188627 21.138565 7.882049
36.255434 25.879715 8.429836
36.105098 25.231043 9.078376
23.034136 13.935859 2.042029
35.959250 25.020107 1.568497
35.568176 24.903919 0.732533
34.214117 19.639076 8.060587
37.555061 18.608856 18.019358
36.938046 17.971529 17.739378
30.835513 13.273722 1.706053
31.187357 13.705244 0.960778
29.293929 14.522276 6.463077
28.658024 14.686598 5.805002
36.026213 24.550464 3.877116
35.668532 24.123750 4.621924
32.019870 25.501022 6.143332
32.256521 24.761755 5.631536
34.627557 20.148870 1.647419
34.795560 19.652166 0.878914
37.739857 18.840908 19.346829
37.235318 18.346256 19.951444
26.690025 13.206261 2.493446
27.476908 13.686476 2.613898
34.536444 21.507997 1.566266
34.656863 21.928618 0.745944
33.059030 23.236418 8.103193
32.304730 23.717668 8.356352
33.082506 21.881436 8.249269
32.338369 21.447175 8.601253
25.632145 20.374793 18.941264
26.263772 20.983885 19.250196
35.067219 17.250113 11.207320
34.180631 16.965919 11.201660
35.620089 17.573515 12.367818
35.110718 17.512543 13.142632
25.518136 20.193645 17.600200
26.073398 20.661546 17.020194
34.138349 21.625522 3.873058
33.977283 22.123670 4.642152
34.238754 20.249666 3.952183
34.143221 19.830206 4.777536
23.075241 15.172777 1.929022
21.967507 13.366431 1.975889
37.058836 24.024435 11.002407
29.823566 21.133781 1.057026
35.248713 22.829136 11.363541
34.030836 25.121461 19.192840
36.365755 22.986771 11.109936
37.065320 21.601219 10.777206
37.991050 21.752259 10.569615
36.999264 21.018085 11.536561
36.630831 21.196451 10.023248
33.275916 25.003987 20.227549
34.501142 24.216449 11.669896
33.578767 24.044431 11.874241
34.919918 24.648335 12.416652
34.556051 24.785664 10.897962
27.996322 19.850841 0.040577
35.947475 28.705552 40.617406
27.655374 19.930541 0.934606
31.344039 24.661476 19.711980
32.103947 23.351721 20.117789
35.292937 25.742638 19.209071
35.673874 25.715019 18.327620
35.196107 26.656768 19.486271
35.869514 25.281334 19.821375
34.497457 21.549492 11.590771
33.578039 21.747677 11.783166
34.548237 21.004798 10.801106
34.885036 21.077009 12.330507
33.270880 24.467439 17.941045
33.819486 24.545392 17.157811
33.098931 23.540411 18.121368
32.439768 24.925471 17.797768
28.932564 21.621020 3.846683
38.760039 21.633427 28.513541
38.200220 20.249062 25.259482
38.838580 19.903074 21.840884
37.312410 20.303103 28.843227
26.139815 19.400624 25.816196
37.180565 18.774045 24.480610
37.007017 19.344792 22.337342
38.759136 21.838936 22.156166
41.232263 22.860844 35.242193
36.627636 18.720435 23.358863
26.855459 19.784556 26.782736
37.046401 20.837157 26.724711
38.351348 21.921450 24.333519
42.574322 24.161063 40.121151
39.392884 28.840102 22.966079
35.419751 17.854776 23.209743
39.691244 21.738741 30.347005
38.449225 23.933974 23.137719
36.954420 28.768598 22.736009
26.544156 20.680935 27.577839
39.125509 23.433095 27.806287
38.173098 28.105807 22.856319
38.133510 28.327099 27.866137
28.284779 17.627974 22.474694
28.180201 19.117641 26.964520
36.662056 20.234151 27.780926
36.862418 30.380752 27.408228
39.289110 30.509821 27.724118
38.103001 29.726225 27.669746
38.528293 22.446073 23.220090
34.794672 30.544621 26.201473
34.226775 30.227872 25.536540
30.260149 18.945852 28.152204
30.833191 19.268069 28.810786
38.248906 26.684297 22.961616
42.254161 23.741711 37.384244
35.388799 19.471022 27.757189
41.145435 29.739995 24.311201
41.556943 29.817905 25.141282
29.043580 23.627071 33.850611
39.266474 27.595956 27.535436
40.026099 28.032838 27.222447
42.180345 23.539710 35.947622
27.916061 22.455433 31.547267
28.811738 22.702211 31.526999
41.381573 31.049628 28.756799
41.992662 30.923717 29.446159
40.932918 22.434885 32.750573
34.456538 19.666318 26.774824
34.621703 20.292720 26.108167
29.475583 18.300590 22.652015
29.471537 19.230124 22.684050
40.981841 22.114333 30.397523
27.762257 22.142626 29.602704
29.392861 24.006232 35.123100
37.313883 23.501988 29.029069
35.754673 28.081276 22.571673
35.755900 27.152072 22.542356
40.062839 22.245319 35.722623
39.875893 22.272276 36.561772
39.534191 21.841541 35.177352
39.268880 26.219835 27.670760
40.020642 25.732382 27.422876
29.050592 19.569391 27.920916
28.820735 20.315159 28.427883
34.571093 28.761960 22.452985
33.779031 28.285410 22.356047
41.610354 22.950604 33.925475
38.164203 25.565920 28.170464
40.231010 30.307071 28.718251
40.080674 29.658399 29.366790
27.009712 18.363214 22.330443
39.934826 29.447463 21.856912
39.543753 29.331274 21.020948
38.189693 24.066432 28.349002
41.530637 23.036211 38.307773
40.913623 22.398884 38.027793
34.811089 17.701077 21.994467
35.162933 18.132600 21.249193
33.269505 18.949631 26.751492
32.633601 19.113953 26.093417
40.001789 28.977819 24.165531
39.644109 28.551106 24.910339
35.995446 29.928377 26.431746
36.232098 29.189111 25.919951
38.603133 24.576225 21.935834
38.771136 24.079521 21.167329
41.715434 23.268264 39.635244
41.210894 22.773611 40.239859
30.665602 17.633616 22.781861
31.452484 18.113832 22.902313
38.512021 25.935353 21.854680
38.632440 26.355973 21.034359
37.034606 27.663774 28.391607
36.280306 28.145023 28.644766
37.058082 26.308791 28.537684
36.313945 25.874530 28.889668
29.607721 24.802148 39.229678
30.239349 25.411241 39.538610
39.042795 21.677469 31.495735
38.156207 21.393274 31.490074
39.595665 22.000871 32.656232
39.086294 21.939898 33.431047
29.493712 24.621000 37.888614
30.048974 25.088901 37.308609
38.113925 26.052878 24.161473
37.952860 26.551026 24.930566
38.214331 24.677021 24.240598
38.118798 24.257561 25.065951
27.050817 19.600133 22.217437
25.943084 17.793787 22.264303
41.034412 28.451791 31.290822
33.799142 25.561136 21.345441
39.224290 27.256491 31.651956
38.006413 29.548817 39.481255
40.341332 27.414127 31.398350
41.040897 26.028575 31.065620
41.966626 26.179614 30.858029
40.974840 25.445440 31.824975
40.606408 25.623807 30.311662
37.251493 29.431342 40.515964
38.476719 28.643805 31.958311
37.554343 28.471787 32.162656
38.895494 29.075690 32.705066
38.531627 29.213019 31.186377
31.971898 24.278197 20.328991
31.630950 24.357896 21.223021
35.319616 29.088831 40.000395
36.079523 27.779077 40.406204
39.268514 30.169993 39.497485
39.649451 30.142374 38.616035
39.171684 31.084123 39.774686
39.845090 29.708690 40.109790
38.473033 25.976847 31.879186
37.553615 26.175032 32.071581
38.523814 25.432154 31.089520
38.860612 25.504365 32.618922
37.246456 28.894795 38.229460
37.795062 28.972747 37.446225
37.074508 27.967766 38.409783
36.415344 29.352826 38.086183
32.908141 26.048375 24.135098
POINT_DATA 1140
SCALARS my_scalars float
LOOKUP_TABLE default
1.39
1.39
1.39
1.52
1.52
1.52
1.52
1.52
1.55
1.7
1.7
1.52
1.52
1.55
1.7
1.7
1.55
1.7
1.7
1.52
1.52
1.55
1.7
1.7
1.7
1.7
1.7
1.7
1.55
1.7
1.7
1.09
1.7
1.09
1.7
1.7
1.7
1.7
1.09
1.55
1.7
1.09
1.7
1.7
1.09
1.7
1.09
1.7
1.7
1.09
1.7
1.09
1.7
1.09
1.55
1.52
1.7
1.09
1.55
1.09
1.09
1.7
1.09
1.7
1.09
1.7
1.09
1.7
1.7
1.7
1.09
1.7
1.7
1.09
1.7
1.7
1.09
1.7
1.09
1.7
1.09
1.7
1.09
1.7
1.09
1.7
1.09
1.7
1.09
1.7
1.09
1.7
1.09
1.7
1.09
1.7
1.09
1.7
1.09
1.7
1.09
1.7
1.09
1.7
1.09
1.7
1.09
1.7
1.09
1.52
1.52
1.52
1.52
1.55
1.55
1.7
1.7
1.09
1.09
1.09
1.7
1.7
1.09
1.09
1.09
1.7
1.7
1.09
1.09
1.09
1.7
1.09
1.09
1.09
1.7
1.09
1.09
1.09
1.7
1.09
1.09
1.09
1.52
1.39
1.39
1.39
1.52
1.52
1.52
1.52
1.52
1.55
1.7
1.7
1.52
1.52
1.55
1.7
1.7
1.55
1.7
1.7
1.52
1.52
1.55
1.7
1.7
1.7
1.7
1.7
1.7
1.55
1.7
1.7
1.09
1.7
1.09
1.7
1.7
1.7
1.7
1.09
1.55
1.7
1.09
1.7
1.7
1.09
1.7
1.09
1.7
1.7
1.09
1.7
1.09
1.7
1.09
1.55
1.52
1.7
1.09
1.55
1.09
1.09
1.7
1.09
1.7
1.09
1.7
1.09
1.7
1.7
1.7
1.09
1.7
1.7
1.09
1.7
1.7
1.09
1.7
1.09
1.7
1.09
1.7
1.09
1.7
1.09
1.7
1.09
1.7
1.09
1.7
1.09
1.7
1.09
1.7
1.09
1.7
1.09
1.7
1.09
1.7
1.09
1.7
1.09
1.7
1.09
1.7
1.09
1.7
1.09
1.52
1.52
1.52
1.52
1.55
1.55
1.7
1.7
1.09
1.09
1.09
1.7
1.7
1.09
1.09
1.09
1.7
1.09
1.09
1.09
1.7
1.09
1.09
1.09
1.7
1.09
1.09
1.09
1.7
1.09
1.09
1.09
1.52
1.39
1.39
1.39
1.52
1.52
1.52
1.52
1.52
1.55
1.7
1.7
1.52
1.52
1.55
1.7
1.7
1.55
1.7
1.7
1.52
1.52
1.55
1.7
1.7
1.7
1.7
1.7
1.7
1.55
1.7
1.7
1.09
1.7
1.09
1.7
1.7
1.7
1.7
1.09
1.55
1.7
1.09
1.7
1.7
1.09
1.7
1.09
1.7
1.7
1.09
1.7
1.09
1.7
1.09
1.55
1.52
1.7
1.09
1.55
1.09
1.09
1.7
1.09
1.7
1.09
1.7
1.09
1.7
1.7
1.7
1.09
1.7
1.7
1.09
1.7
1.7
1.09
1.7
1.09
1.7
1.09
1.7
1.09
1.7
1.09
1.7
1.09
1.7
1.09
1.7
1.09
1.7
1.09
1.7
1.09
1.7
1.09
1.7
1.09
1.7
1.09
1.7
1.09
1.7
1.09
1.7
1.09
1.7
1.09
1.52
1.52
1.52
1.52
1.55
1.55
1.7
1.7
1.09
1.09
1.09
1.7
1.7
1.09
1.09
1.09
1.7
1.7
1.09
1.09
1.09
1.7
1.09
1.09
1.09
1.7
1.09
1.09
1.09
1.7
1.09
1.09
1.09
1.52
1.39
1.39
1.39
1.52
1.52
1.52
1.52
1.52
1.55
1.7
1.7
1.52
1.52
1.55
1.7
1.7
1.55
1.7
1.7
1.52
1.52
1.55
1.7
1.7
1.7
1.7
1.7
1.7
1.55
1.7
1.7
1.09
1.7
1.09
1.7
1.7
1.7
1.7
1.09
1.55
1.7
1.09
1.7
1.7
1.09
1.7
1.09
1.7
1.7
1.09
1.7
1.09
1.7
1.09
1.55
1.52
1.7
1.09
1.55
1.09
1.09
1.7
1.09
1.7
1.09
1.7
1.09
1.7
1.7
1.7
1.09
1.7
1.7
1.09
1.7
1.7
1.09
1.7
1.09
1.7
1.09
1.7
1.09
1.7
1.09
1.7
1.09
1.7
1.09
1.7
1.09
1.7
1.09
1.7
1.09
1.7
1.09
1.7
1.09
1.7
1.09
1.7
1.09
1.7
1.09
1.7
1.09
1.7
1.09
1.52
1.52
1.52
1.52
1.55
1.55
1.7
1.7
1.09
1.09
1.09
1.7
1.7
1.09
1.09
1.09
1.7
1.09
1.09
1.09
1.7
1.09
1.09
1.09
1.7
1.09
1.09
1.09
1.7
1.09
1.09
1.09
1.52
1.39
1.39
1.39
1.52
1.52
1.52
1.52
1.52
1.55
1.7
1.7
1.52
1.52
1.55
1.7
1.7
1.55
1.7
1.7
1.52
1.52
1.55
1.7
1.7
1.7
1.7
1.7
1.7
1.55
1.7
1.7
1.09
1.7
1.09
1.7
1.7
1.7
1.7
1.09
1.55
1.7
1.09
1.7
1.7
1.09
1.7
1.09
1.7
1.7
1.09
1.7
1.09
1.7
1.09
1.55
1.52
1.7
1.09
1.55
1.09
1.09
1.7
1.09
1.7
1.09
1.7
1.09
1.7
1.7
1.7
1.09
1.7
1.7
1.09
1.7
1.7
1.09
1.7
1.09
1.7
1.09
1.7
1.09
1.7
1.09
1.7
1.09
1.7
1.09
1.7
1.09
1.7
1.09
1.7
1.09
1.7
1.09
1.7
1.09
1.7
1.09
1.7
1.09
1.7
1.09
1.7
1.09
1.7
1.09
1.52
1.52
1.52
1.52
1.55
1.55
1.7
1.7
1.09
1.09
1.09
1.7
1.7
1.09
1.09
1.09
1.7
1.7
1.09
1.09
1.09
1.7
1.09
1.09
1.09
1.7
1.09
1.09
1.09
1.7
1.09
1.09
1.09
1.52
1.39
1.39
1.39
1.52
1.52
1.52
1.52
1.52
1.55
1.7
1.7
1.52
1.52
1.55
1.7
1.7
1.55
1.7
1.7
1.52
1.52
1.55
1.7
1.7
1.7
1.7
1.7
1.7
1.55
1.7
1.7
1.09
1.7
1.09
1.7
1.7
1.7
1.7
1.09
1.55
1.7
1.09
1.7
1.7
1.09
1.7
1.09
1.7
1.7
1.09
1.7
1.09
1.7
1.09
1.55
1.52
1.7
1.09
1.55
1.09
1.09
1.7
1.09
1.7
1.09
1.7
1.09
1.7
1.7
1.7
1.09
1.7
1.7
1.09
1.7
1.7
1.09
1.7
1.09
1.7
1.09
1.7
1.09
1.7
1.09
1.7
1.09
1.7
1.09
1.7
1.09
1.7
1.09
1.7
1.09
1.7
1.09
1.7
1.09
1.7
1.09
1.7
1.09
1.7
1.09
1.7
1.09
1.7
1.09
1.52
1.52
1.52
1.52
1.55
1.55
1.7
1.7
1.09
1.09
1.09
1.7
1.7
1.09
1.09
1.09
1.7
1.09
1.09
1.09
1.7
1.09
1.09
1.09
1.7
1.09
1.09
1.09
1.7
1.09
1.09
1.09
1.52
1.39
1.39
1.39
1.52
1.52
1.52
1.52
1.52
1.55
1.7
1.7
1.52
1.52
1.55
1.7
1.7
1.55
1.7
1.7
1.52
1.52
1.55
1.7
1.7
1.7
1.7
1.7
1.7
1.55
1.7
1.7
1.09
1.7
1.09
1.7
1.7
1.7
1.7
1.09
1.55
1.7
1.09
1.7
1.7
1.09
1.7
1.09
1.7
1.7
1.09
1.7
1.09
1.7
1.09
1.55
1.52
1.7
1.09
1.55
1.09
1.09
1.7
1.09
1.7
1.09
1.7
1.09
1.7
1.7
1.7
1.09
1.7
1.7
1.09
1.7
1.7
1.09
1.7
1.09
1.7
1.09
1.7
1.09
1.7
1.09
1.7
1.09
1.7
1.09
1.7
1.09
1.7
1.09
1.7
1.09
1.7
1.09
1.7
1.09
1.7
1.09
1.7
1.09
1.7
1.09
1.7
1.09
1.7
1.09
1.52
1.52
1.52
1.52
1.55
1.55
1.7
1.7
1.09
1.09
1.09
1.7
1.7
1.09
1.09
1.09
1.7
1.7
1.09
1.09
1.09
1.7
1.09
1.09
1.09
1.7
1.09
1.09
1.09
1.7
1.09
1.09
1.09
1.52
1.39
1.39
1.39
1.52
1.52
1.52
1.52
1.52
1.55
1.7
1.7
1.52
1.52
1.55
1.7
1.7
1.55
1.7
1.7
1.52
1.52
1.55
1.7
1.7
1.7
1.7
1.7
1.7
1.55
1.7
1.7
1.09
1.7
1.09
1.7
1.7
1.7
1.7
1.09
1.55
1.7
1.09
1.7
1.7
1.09
1.7
1.09
1.7
1.7
1.09
1.7
1.09
1.7
1.09
1.55
1.52
1.7
1.09
1.55
1.09
1.09
1.7
1.09
1.7
1.09
1.7
1.09
1.7
1.7
1.7
1.09
1.7
1.7
1.09
1.7
1.7
1.09
1.7
1.09
1.7
1.09
1.7
1.09
1.7
1.09
1.7
1.09
1.7
1.09
1.7
1.09
1.7
1.09
1.7
1.09
1.7
1.09
1.7
1.09
1.7
1.09
1.7
1.09
1.7
1.09
1.7
1.09
1.7
1.09
1.52
1.52
1.52
1.52
1.55
1.55
1.7
1.7
1.09
1.09
1.09
1.7
1.7
1.09
1.09
1.09
1.7
1.09
1.09
1.09
1.7
1.09
1.09
1.09
1.7
1.09
1.09
1.09
1.7
1.09
1.09
1.09
1.52
VECTORS vectors float
0.4375 0 0
0.4375 0 0
0.4375 0 0
0.03125 0 0
0.03125 0 0
0.03125 0 0
0.03125 0 0
0.03125 0 0
0 0 0
0.3125 0 0
0.3125 0 0
0.03125 0 0
0.03125 0 0
0 0 0
0.3125 0 0
0.3125 0 0
0 0 0
0.3125 0 0
0.3125 0 0
0.03125 0 0
0.03125 0 0
0 0 0
0.3125 0 0
0.3125 0 0
0.3125 0 0
0.3125 0 0
0.3125 0 0
0.3125 0 0
0 0 0
0.3125 0 0
0.3125 0 0
0.25 0 0
0.3125 0 0
0.25 0 0
0.3125 0 0
0.3125 0 0
0.3125 0 0
0.3125 0 0
0.25 0 0
0 0 0
0.3125 0 0
0.25 0 0
0.3125 0 0
0.3125 0 0
0.25 0 0
0.3125 0 0
0.25 0 0
0.3125 0 0
0.3125 0 0
0.25 0 0
0.3125 0 0
0.25 0 0
0.3125 0 0
0.25 0 0
0 0 0
0.03125 0 0
0.3125 0 0
0.25 0 0
0 0 0
0.25 0 0
0.25 0 0
0.3125 0 0
0.25 0 0
0.3125 0 0
0.25 0 0
0.3125 0 0
0.25 0 0
0.3125 0 0
0.3125 0 0
0.3125 0 0
0.25 0 0
0.3125 0 0
0.3125 0 0
0.25 0 0
0.3125 0 0
0.3125 0 0
0.25 0 0
0.3125 0 0
0.25 0 0
0.3125 0 0
0.25 0 0
0.3125 0 0
0.25 0 0
0.3125 0 0
0.25 0 0
0.3125 0 0
0.25 0 0
0.3125 0 0
0.25 0 0
0.3125 0 0
0.25 0 0
0.3125 0 0
0.25 0 0
0.3125 0 0
0.25 0 0
0.3125 0 0
0.25 0 0
0.3125 0 0
0.25 0 0
0.3125 0 0
0.25 0 0
0.3125 0 0
0.25 0 0
0.3125 0 0
0.25 0 0
0.3125 0 0
0.25 0 0
0.3125 0 0
0.25 0 0
0.03125 0 0
0.03125 0 0
0.03125 0 0
0.03125 0 0
0 0 0
0 0 0
0.3125 0 0
0.3125 0 0
0.25 0 0
0.25 0 0
0.25 0 0
0.3125 0 0
0.3125 0 0
0.25 0 0
0.25 0 0
0.25 0 0
0.3125 0 0
0.3125 0 0
0.25 0 0
0.25 0 0
0.25 0 0
0.3125 0 0
0.25 0 0
0.25 0 0
0.25 0 0
0.3125 0 0
0.25 0 0
0.25 0 0
0.25 0 0
0.3125 0 0
0.25 0 0
0.25 0 0
0.25 0 0
0.03125 0 0
0.4375 0 0
0.4375 0 0
0.4375 0 0
0.03125 0 0
0.03125 0 0
0.03125 0 0
0.03125 0 0
0.03125 0 0
0 0 0
0.3125 0 0
0.3125 0 0
0.03125 0 0
0.03125 0 0
0 0 0
0.3125 0 0
0.3125 0 0
0 0 0
0.3125 0 0
0.3125 0 0
0.03125 0 0
0.03125 0 0
0 0 0
0.3125 0 0
0.3125 0 0
0.3125 0 0
0.3125 0 0
0.3125 0 0
0.3125 0 0
0 0 0
0.3125 0 0
0.3125 0 0
0.25 0 0
0.3125 0 0
0.25 0 0
0.3125 0 0
0.3125 0 0
0.3125 0 0
0.3125 0 0
0.25 0 0
0 0 0
0.3125 0 0
0.25 0 0
0.3125 0 0
0.3125 0 0
0.25 0 0
0.3125 0 0
0.25 0 0
0.3125 0 0
0.3125 0 0
0.25 0 0
0.3125 0 0
0.25 0 0
0.3125 0 0
0.25 0 0
0 0 0
0.03125 0 0
0.3125 0 0
0.25 0 0
0 0 0
0.25 0 0
0.25 0 0
0.3125 0 0
0.25 0 0
0.3125 0 0
0.25 0 0
0.3125 0 0
0.25 0 0
0.3125 0 0
0.3125 0 0
0.3125 0 0
0.25 0 0
0.3125 0 0
0.3125 0 0
0.25 0 0
0.3125 0 0
0.3125 0 0
0.25 0 0
0.3125 0 0
0.25 0 0
0.3125 0 0
0.25 0 0
0.3125 0 0
0.25 0 0
0.3125 0 0
0.25 0 0
0.3125 0 0
0.25 0 0
0.3125 0 0
0.25 0 0
0.3125 0 0
0.25 0 0
0.3125 0 0
0.25 0 0
0.3125 0 0
0.25 0 0
0.3125 0 0
0.25 0 0
0.3125 0 0
0.25 0 0
0.3125 0 0
0.25 0 0
0.3125 0 0
0.25 0 0
0.3125 0 0
0.25 0 0
0.3125 0 0
0.25 0 0
0.3125 0 0
0.25 0 0
0.03125 0 0
0.03125 0 0
0.03125 0 0
0.03125 0 0
0 0 0
0 0 0
0.3125 0 0
0.3125 0 0
0.25 0 0
0.25 0 0
0.25 0 0
0.3125 0 0
0.3125 0 0
0.25 0 0
0.25 0 0
0.25 0 0
0.3125 0 0
0.25 0 0
0.25 0 0
0.25 0 0
0.3125 0 0
0.25 0 0
0.25 0 0
0.25 0 0
0.3125 0 0
0.25 0 0
0.25 0 0
0.25 0 0
0.3125 0 0
0.25 0 0
0.25 0 0
0.25 0 0
0.03125 0 0
0.4375 0 0
0.4375 0 0
0.4375 0 0
0.03125 0 0
0.03125 0 0
0.03125 0 0
0.03125 0 0
0.03125 0 0
0 0 0
0.3125 0 0
0.3125 0 0
0.03125 0 0
0.03125 0 0
0 0 0
0.3125 0 0
0.3125 0 0
0 0 0
0.3125 0 0
0.3125 0 0
0.03125 0 0
0.03125 0 0
0 0 0
0.3125 0 0
0.3125 0 0
0.3125 0 0
0.3125 0 0
0.3125 0 0
0.3125 0 0
0 0 0
0.3125 0 0
0.3125 0 0
0.25 0 0
0.3125 0 0
0.25 0 0
0.3125 0 0
0.3125 0 0
0.3125 0 0
0.3125 0 0
0.25 0 0
0 0 0
0.3125 0 0
0.25 0 0
0.3125 0 0
0.3125 0 0
0.25 0 0
0.3125 0 0
0.25 0 0
0.3125 0 0
0.3125 0 0
0.25 0 0
0.3125 0 0
0.25 0 0
0.3125 0 0
0.25 0 0
0 0 0
0.03125 0 0
0.3125 0 0
0.25 0 0
0 0 0
0.25 0 0
0.25 0 0
0.3125 0 0
0.25 0 0
0.3125 0 0
0.25 0 0
0.3125 0 0
0.25 0 0
0.3125 0 0
0.3125 0 0
0.3125 0 0
0.25 0 0
0.3125 0 0
0.3125 0 0
0.25 0 0
0.3125 0 0
0.3125 0 0
0.25 0 0
0.3125 0 0
0.25 0 0
0.3125 0 0
0.25 0 0
0.3125 0 0
0.25 0 0
0.3125 0 0
0.25 0 0
0.3125 0 0
0.25 0 0
0.3125 0 0
0.25 0 0
0.3125 0 0
0.25 0 0
0.3125 0 0
0.25 0 0
0.3125 0 0
0.25 0 0
0.3125 0 0
0.25 0 0
0.3125 0 0
0.25 0 0
0.3125 0 0
0.25 0 0
0.3125 0 0
0.25 0 0
0.3125 0 0
0.25 0 0
0.3125 0 0
0.25 0 0
0.3125 0 0
0.25 0 0
0.03125 0 0
0.03125 0 0
0.03125 0 0
0.03125 0 0
0 0 0
0 0 0
0.3125 0 0
0.3125 0 0
0.25 0 0
0.25 0 0
0.25 0 0
0.3125 0 0
0.3125 0 0
0.25 0 0
0.25 0 0
0.25 0 0
0.3125 0 0
0.3125 0 0
0.25 0 0
0.25 0 0
0.25 0 0
0.3125 0 0
0.25 0 0
0.25 0 0
0.25 0 0
0.3125 0 0
0.25 0 0
0.25 0 0
0.25 0 0
0.3125 0 0
0.25 0 0
0.25 0 0
0.25 0 0
0.03125 0 0
0.4375 0 0
0.4375 0 0
0.4375 0 0
0.03125 0 0
0.03125 0 0
0.03125 0 0
0.03125 0 0
0.03125 0 0
0 0 0
0.3125 0 0
0.3125 0 0
0.03125 0 0
0.03125 0 0
0 0 0
0.3125 0 0
0.3125 0 0
0 0 0
0.3125 0 0
0.3125 0 0
0.03125 0 0
0.03125 0 0
0 0 0
0.3125 0 0
0.3125 0 0
0.3125 0 0
0.3125 0 0
0.3125 0 0
0.3125 0 0
0 0 0
0.3125 0 0
0.3125 0 0
0.25 0 0
0.3125 0 0
0.25 0 0
0.3125 0 0
0.3125 0 0
0.3125 0 0
0.3125 0 0
0.25 0 0
0 0 0
0.3125 0 0
0.25 0 0
0.3125 0 0
0.3125 0 0
0.25 0 0
0.3125 0 0
0.25 0 0
0.3125 0 0
0.3125 0 0
0.25 0 0
0.3125 0 0
0.25 0 0
0.3125 0 0
0.25 0 0
0 0 0
0.03125 0 0
0.3125 0 0
0.25 0 0
0 0 0
0.25 0 0
0.25 0 0
0.3125 0 0
0.25 0 0
0.3125 0 0
0.25 0 0
0.3125 0 0
0.25 0 0
0.3125 0 0
0.3125 0 0
0.3125 0 0
0.25 0 0
0.3125 0 0
0.3125 0 0
0.25 0 0
0.3125 0 0
0.3125 0 0
0.25 0 0
0.3125 0 0
0.25 0 0
0.3125 0 0
0.25 0 0
0.3125 0 0
0.25 0 0
0.3125 0 0
0.25 0 0
0.3125 0 0
0.25 0 0
0.3125 0 0
0.25 0 0
0.3125 0 0
0.25 0 0
0.3125 0 0
0.25 0 0
0.3125 0 0
0.25 0 0
0.3125 0 0
0.25 0 0
0.3125 0 0
0.25 0 0
0.3125 0 0
0.25 0 0
0.3125 0 0
0.25 0 0
0.3125 0 0
0.25 0 0
0.3125 0 0
0.25 0 0
0.3125 0 0
0.25 0 0
0.03125 0 0
0.03125 0 0
0.03125 0 0
0.03125 0 0
0 0 0
0 0 0
0.3125 0 0
0.3125 0 0
0.25 0 0
0.25 0 0
0.25 0 0
0.3125 0 0
0.3125 0 0
0.25 0 0
0.25 0 0
0.25 0 0
0.3125 0 0
0.25 0 0
0.25 0 0
0.25 0 0
0.3125 0 0
0.25 0 0
0.25 0 0
0.25 0 0
0.3125 0 0
0.25 0 0
0.25 0 0
0.25 0 0
0.3125 0 0
0.25 0 0
0.25 0 0
0.25 0 0
0.03125 0 0
0.4375 0 0
0.4375 0 0
0.4375 0 0
0.03125 0 0
0.03125 0 0
0.03125 0 0
0.03125 0 0
0.03125 0 0
0 0 0
0.3125 0 0
0.3125 0 0
0.03125 0 0
0.03125 0 0
0 0 0
0.3125 0 0
0.3125 0 0
0 0 0
0.3125 0 0
0.3125 0 0
0.03125 0 0
0.03125 0 0
0 0 0
0.3125 0 0
0.3125 0 0
0.3125 0 0
0.3125 0 0
0.3125 0 0
0.3125 0 0
0 0 0
0.3125 0 0
0.3125 0 0
0.25 0 0
0.3125 0 0
0.25 0 0
0.3125 0 0
0.3125 0 0
0.3125 0 0
0.3125 0 0
0.25 0 0
0 0 0
0.3125 0 0
0.25 0 0
0.3125 0 0
0.3125 0 0
0.25 0 0
0.3125 0 0
0.25 0 0
0.3125 0 0
0.3125 0 0
0.25 0 0
0.3125 0 0
0.25 0 0
0.3125 0 0
0.25 0 0
0 0 0
0.03125 0 0
0.3125 0 0
0.25 0 0
0 0 0
0.25 0 0
0.25 0 0
0.3125 0 0
0.25 0 0
0.3125 0 0
0.25 0 0
0.3125 0 0
0.25 0 0
0.3125 0 0
0.3125 0 0
0.3125 0 0
0.25 0 0
0.3125 0 0
0.3125 0 0
0.25 0 0
0.3125 0 0
0.3125 0 0
0.25 0 0
0.3125 0 0
0.25 0 0
0.3125 0 0
0.25 0 0
0.3125 0 0
0.25 0 0
0.3125 0 0
0.25 0 0
0.3125 0 0
0.25 0 0
0.3125 0 0
0.25 0 0
0.3125 0 0
0.25 0 0
0.3125 0 0
0.25 0 0
0.3125 0 0
0.25 0 0
0.3125 0 0
0.25 0 0
0.3125 0 0
0.25 0 0
0.3125 0 0
0.25 0 0
0.3125 0 0
0.25 0 0
0.3125 0 0
0.25 0 0
0.3125 0 0
0.25 0 0
0.3125 0 0
0.25 0 0
0.03125 0 0
0.03125 0 0
0.03125 0 0
0.03125 0 0
0 0 0
0 0 0
0.3125 0 0
0.3125 0 0
0.25 0 0
0.25 0 0
0.25 0 0
0.3125 0 0
0.3125 0 0
0.25 0 0
0.25 0 0
0.25 0 0
0.3125 0 0
0.3125 0 0
0.25 0 0
0.25 0 0
0.25 0 0
0.3125 0 0
0.25 0 0
0.25 0 0
0.25 0 0
0.3125 0 0
0.25 0 0
0.25 0 0
0.25 0 0
0.3125 0 0
0.25 0 0
0.25 0 0
0.25 0 0
0.03125 0 0
0.4375 0 0
0.4375 0 0
0.4375 0 0
0.03125 0 0
0.03125 0 0
0.03125 0 0
0.03125 0 0
0.03125 0 0
0 0 0
0.3125 0 0
0.3125 0 0
0.03125 0 0
0.03125 0 0
0 0 0
0.3125 0 0
0.3125 0 0
0 0 0
0.3125 0 0
0.3125 0 0
0.03125 0 0
0.03125 0 0
0 0 0
0.3125 0 0
0.3125 0 0
0.3125 0 0
0.3125 0 0
0.3125 0 0
0.3125 0 0
0 0 0
0.3125 0 0
0.3125 0 0
0.25 0 0
0.3125 0 0
0.25 0 0
0.3125 0 0
0.3125 0 0
0.3125 0 0
0.3125 0 0
0.25 0 0
0 0 0
0.3125 0 0
0.25 0 0
0.3125 0 0
0.3125 0 0
0.25 0 0
0.3125 0 0
0.25 0 0
0.3125 0 0
0.3125 0 0
0.25 0 0
0.3125 0 0
0.25 0 0
0.3125 0 0
0.25 0 0
0 0 0
0.03125 0 0
0.3125 0 0
0.25 0 0
0 0 0
0.25 0 0
0.25 0 0
0.3125 0 0
0.25 0 0
0.3125 0 0
0.25 0 0
0.3125 0 0
0.25 0 0
0.3125 0 0
0.3125 0 0
0.3125 0 0
0.25 0 0
0.3125 0 0
0.3125 0 0
0.25 0 0
0.3125 0 0
0.3125 0 0
0.25 0 0
0.3125 0 0
0.25 0 0
0.3125 0 0
0.25 0 0
0.3125 0 0
0.25 0 0
0.3125 0 0
0.25 0 0
0.3125 0 0
0.25 0 0
0.3125 0 0
0.25 0 0
0.3125 0 0
0.25 0 0
0.3125 0 0
0.25 0 0
0.3125 0 0
0.25 0 0
0.3125 0 0
0.25 0 0
0.3125 0 0
0.25 0 0
0.3125 0 0
0.25 0 0
0.3125 0 0
0.25 0 0
0.3125 0 0
0.25 0 0
0.3125 0 0
0.25 0 0
0.3125 0 0
0.25 0 0
0.03125 0 0
0.03125 0 0
0.03125 0 0
0.03125 0 0
0 0 0
0 0 0
0.3125 0 0
0.3125 0 0
0.25 0 0
0.25 0 0
0.25 0 0
0.3125 0 0
0.3125 0 0
0.25 0 0
0.25 0 0
0.25 0 0
0.3125 0 0
0.25 0 0
0.25 0 0
0.25 0 0
0.3125 0 0
0.25 0 0
0.25 0 0
0.25 0 0
0.3125 0 0
0.25 0 0
0.25 0 0
0.25 0 0
0.3125 0 0
0.25 0 0
0.25 0 0
0.25 0 0
0.03125 0 0
0.4375 0 0
0.4375 0 0
0.4375 0 0
0.03125 0 0
0.03125 0 0
0.03125 0 0
0.03125 0 0
0.03125 0 0
0 0 0
0.3125 0 0
0.3125 0 0
0.03125 0 0
0.03125 0 0
0 0 0
0.3125 0 0
0.3125 0 0
0 0 0
0.3125 0 0
0.3125 0 0
0.03125 0 0
0.03125 0 0
0 0 0
0.3125 0 0
0.3125 0 0
0.3125 0 0
0.3125 0 0
0.3125 0 0
0.3125 0 0
0 0 0
0.3125 0 0
0.3125 0 0
0.25 0 0
0.3125 0 0
0.25 0 0
0.3125 0 0
0.3125 0 0
0.3125 0 0
0.3125 0 0
0.25 0 0
0 0 0
0.3125 0 0
0.25 0 0
0.3125 0 0
0.3125 0 0
0.25 0 0
0.3125 0 0
0.25 0 0
0.3125 0 0
0.3125 0 0
0.25 0 0
0.3125 0 0
0.25 0 0
0.3125 0 0
0.25 0 0
0 0 0
0.03125 0 0
0.3125 0 0
0.25 0 0
0 0 0
0.25 0 0
0.25 0 0
0.3125 0 0
0.25 0 0
0.3125 0 0
0.25 0 0
0.3125 0 0
0.25 0 0
0.3125 0 0
0.3125 0 0
0.3125 0 0
0.25 0 0
0.3125 0 0
0.3125 0 0
0.25 0 0
0.3125 0 0
0.3125 0 0
0.25 0 0
0.3125 0 0
0.25 0 0
0.3125 0 0
0.25 0 0
0.3125 0 0
0.25 0 0
0.3125 0 0
0.25 0 0
0.3125 0 0
0.25 0 0
0.3125 0 0
0.25 0 0
0.3125 0 0
0.25 0 0
0.3125 0 0
0.25 0 0
0.3125 0 0
0.25 0 0
0.3125 0 0
0.25 0 0
0.3125 0 0
0.25 0 0
0.3125 0 0
0.25 0 0
0.3125 0 0
0.25 0 0
0.3125 0 0
0.25 0 0
0.3125 0 0
0.25 0 0
0.3125 0 0
0.25 0 0
0.03125 0 0
0.03125 0 0
0.03125 0 0
0.03125 0 0
0 0 0
0 0 0
0.3125 0 0
0.3125 0 0
0.25 0 0
0.25 0 0
0.25 0 0
0.3125 0 0
0.3125 0 0
0.25 0 0
0.25 0 0
0.25 0 0
0.3125 0 0
0.3125 0 0
0.25 0 0
0.25 0 0
0.25 0 0
0.3125 0 0
0.25 0 0
0.25 0 0
0.25 0 0
0.3125 0 0
0.25 0 0
0.25 0 0
0.25 0 0
0.3125 0 0
0.25 0 0
0.25 0 0
0.25 0 0
0.03125 0 0
0.4375 0 0
0.4375 0 0
0.4375 0 0
0.03125 0 0
0.03125 0 0
0.03125 0 0
0.03125 0 0
0.03125 0 0
0 0 0
0.3125 0 0
0.3125 0 0
0.03125 0 0
0.03125 0 0
0 0 0
0.3125 0 0
0.3125 0 0
0 0 0
0.3125 0 0
0.3125 0 0
0.03125 0 0
0.03125 0 0
0 0 0
0.3125 0 0
0.3125 0 0
0.3125 0 0
0.3125 0 0
0.3125 0 0
0.3125 0 0
0 0 0
0.3125 0 0
0.3125 0 0
0.25 0 0
0.3125 0 0
0.25 0 0
0.3125 0 0
0.3125 0 0
0.3125 0 0
0.3125 0 0
0.25 0 0
0 0 0
0.3125 0 0
0.25 0 0
0.3125 0 0
0.3125 0 0
0.25 0 0
0.3125 0 0
0.25 0 0
0.3125 0 0
0.3125 0 0
0.25 0 0
0.3125 0 0
0.25 0 0
0.3125 0 0
0.25 0 0
0 0 0
0.03125 0 0
0.3125 0 0
0.25 0 0
0 0 0
0.25 0 0
0.25 0 0
0.3125 0 0
0.25 0 0
0.3125 0 0
0.25 0 0
0.3125 0 0
0.25 0 0
0.3125 0 0
0.3125 0 0
0.3125 0 0
0.25 0 0
0.3125 0 0
0.3125 0 0
0.25 0 0
0.3125 0 0
0.3125 0 0
0.25 0 0
0.3125 0 0
0.25 0 0
0.3125 0 0
0.25 0 0
0.3125 0 0
0.25 0 0
0.3125 0 0
0.25 0 0
0.3125 0 0
0.25 0 0
0.3125 0 0
0.25 0 0
0.3125 0 0
0.25 0 0
0.3125 0 0
0.25 0 0
0.3125 0 0
0.25 0 0
0.3125 0 0
0.25 0 0
0.3125 0 0
0.25 0 0
0.3125 0 0
0.25 0 0
0.3125 0 0
0.25 0 0
0.3125 0 0
0.25 0 0
0.3125 0 0
0.25 0 0
0.3125 0 0
0.25 0 0
0.03125 0 0
0.03125 0 0
0.03125 0 0
0.03125 0 0
0 0 0
0 0 0
0.3125 0 0
0.3125 0 0
0.25 0 0
0.25 0 0
0.25 0 0
0.3125 0 0
0.3125 0 0
0.25 0 0
0.25 0 0
0.25 0 0
0.3125 0 0
0.25 0 0
0.25 0 0
0.25 0 0
0.3125 0 0
0.25 0 0
0.25 0 0
0.25 0 0
0.3125 0 0
0.25 0 0
0.25 0 0
0.25 0 0
0.3125 0 0
0.25 0 0
0.25 0 0
0.25 0 0
0.03125 0 0
