# vtk DataFile Version 1.0
Cube
ASCII

DATASET POLYDATA
POINTS 136 float
13.146295 13.146295 1.794500
1.477416 13.195471 2.916134
11.529989 0.201357 4.235881
2.763577 13.147358 2.519478
3.038300 13.033057 1.638020
3.620441 0.000000 3.589000
3.620441 26.581800 3.589000
5.097060 0.000000 3.589000
5.097060 26.581800 3.589000
5.801212 0.309678 4.730733
5.342942 0.534294 5.508397
7.199681 0.291071 4.731881
7.654229 0.479801 5.521318
7.922705 0.000000 3.589000
7.922705 26.581800 3.589000
9.397995 0.000000 3.589000
9.397995 26.581800 3.589000
10.252334 0.325627 4.616890
9.978808 0.596761 5.463894
13.146295 13.146295 16.150500
1.477416 13.195471 17.272134
11.529989 0.201357 18.591881
2.763577 13.147358 16.875478
3.038300 13.033057 15.994020
3.620441 0.000000 17.945000
3.620441 26.581800 17.945000
5.097060 0.000000 17.945000
5.097060 26.581800 17.945000
5.801212 0.309678 19.086733
5.342942 0.534294 19.864397
7.199681 0.291071 19.087881
7.654229 0.479801 19.877318
7.922705 0.000000 17.945000
7.922705 26.581800 17.945000
9.397995 0.000000 17.945000
9.397995 26.581800 17.945000
10.252334 0.325627 18.972890
9.978808 0.596761 19.819894
13.146295 26.437195 1.794500
1.477416 26.486371 2.916134
11.529989 13.492257 4.235881
2.763577 26.438258 2.519478
3.038300 26.323957 1.638020
3.620441 13.290900 3.589000
5.097060 13.290900 3.589000
5.801212 13.600578 4.730733
5.342942 13.825194 5.508397
7.199681 13.581971 4.731881
7.654229 13.770701 5.521318
7.922705 13.290900 3.589000
9.397995 13.290900 3.589000
10.252334 13.616527 4.616890
9.978808 13.887661 5.463894
13.146295 26.437195 16.150500
1.477416 26.486371 17.272134
11.529989 13.492257 18.591881
2.763577 26.438258 16.875478
3.038300 26.323957 15.994020
3.620441 13.290900 17.945000
5.097060 13.290900 17.945000
5.801212 13.600578 19.086733
5.342942 13.825194 19.864397
7.199681 13.581971 19.087881
7.654229 13.770701 19.877318
7.922705 13.290900 17.945000
9.397995 13.290900 17.945000
10.252334 13.616527 18.972890
9.978808 13.887661 19.819894
26.437195 13.146295 1.794500
14.768316 13.195471 2.916134
24.820889 0.201357 4.235881
16.054477 13.147358 2.519478
16.329200 13.033057 1.638020
16.911341 0.000000 3.589000
16.911341 26.581800 3.589000
18.387960 0.000000 3.589000
18.387960 26.581800 3.589000
19.092112 0.309678 4.730733
18.633842 0.534294 5.508397
20.490581 0.291071 4.731881
20.945129 0.479801 5.521318
21.213605 0.000000 3.589000
21.213605 26.581800 3.589000
22.688895 0.000000 3.589000
22.688895 26.581800 3.589000
23.543234 0.325627 4.616890
23.269708 0.596761 5.463894
26.437195 13.146295 16.150500
14.768316 13.195471 17.272134
24.820889 0.201357 18.591881
16.054477 13.147358 16.875478
16.329200 13.033057 15.994020
16.911341 0.000000 17.945000
16.911341 26.581800 17.945000
18.387960 0.000000 17.945000
18.387960 26.581800 17.945000
19.092112 0.309678 19.086733
18.633842 0.534294 19.864397
20.490581 0.291071 19.087881
20.945129 0.479801 19.877318
21.213605 0.000000 17.945000
21.213605 26.581800 17.945000
22.688895 0.000000 17.945000
22.688895 26.581800 17.945000
23.543234 0.325627 18.972890
23.269708 0.596761 19.819894
26.437195 26.437195 1.794500
14.768316 26.486371 2.916134
24.820889 13.492257 4.235881
16.054477 26.438258 2.519478
16.329200 26.323957 1.638020
16.911341 13.290900 3.589000
18.387960 13.290900 3.589000
19.092112 13.600578 4.730733
18.633842 13.825194 5.508397
20.490581 13.581971 4.731881
20.945129 13.770701 5.521318
21.213605 13.290900 3.589000
22.688895 13.290900 3.589000
23.543234 13.616527 4.616890
23.269708 13.887661 5.463894
26.437195 26.437195 16.150500
14.768316 26.486371 17.272134
24.820889 13.492257 18.591881
16.054477 26.438258 16.875478
16.329200 26.323957 15.994020
16.911341 13.290900 17.945000
18.387960 13.290900 17.945000
19.092112 13.600578 19.086733
18.633842 13.825194 19.864397
20.490581 13.581971 19.087881
20.945129 13.770701 19.877318
21.213605 13.290900 17.945000
22.688895 13.290900 17.945000
23.543234 13.616527 18.972890
23.269708 13.887661 19.819894
POINT_DATA 136
SCALARS my_scalars float
LOOKUP_TABLE default
2
1.55
1.55
1.7
1.09
1.7
1.7
1.7
1.7
1.7
-1
1.7
-1
1.7
1.7
1.7
1.7
1.7
1.09
2
1.55
1.55
1.7
1.09
1.7
1.7
1.7
1.7
1.7
-1
1.7
-1
1.7
1.7
1.7
1.7
1.7
1.09
2
1.55
1.55
1.7
1.09
1.7
1.7
1.7
-1
1.7
-1
1.7
1.7
1.7
1.09
2
1.55
1.55
1.7
1.09
1.7
1.7
1.7
-1
1.7
-1
1.7
1.7
1.7
1.09
2
1.55
1.55
1.7
1.09
1.7
1.7
1.7
1.7
1.7
-1
1.7
-1
1.7
1.7
1.7
1.7
1.7
1.09
2
1.55
1.55
1.7
1.09
1.7
1.7
1.7
1.7
1.7
-1
1.7
-1
1.7
1.7
1.7
1.7
1.7
1.09
2
1.55
1.55
1.7
1.09
1.7
1.7
1.7
-1
1.7
-1
1.7
1.7
1.7
1.09
2
1.55
1.55
1.7
1.09
1.7
1.7
1.7
-1
1.7
-1
1.7
1.7
1.7
1.09
VECTORS vectors float
0.4375 0 0
0 0 0
0 0 0
0.3125 0 0
0.25 0 0
0.3125 0 0
0.3125 0 0
0.3125 0 0
0.3125 0 0
0.3125 0 0
-0.03125 0 0
0.3125 0 0
-0.03125 0 0
0.3125 0 0
0.3125 0 0
0.3125 0 0
0.3125 0 0
0.3125 0 0
0.25 0 0
0.4375 0 0
0 0 0
0 0 0
0.3125 0 0
0.25 0 0
0.3125 0 0
0.3125 0 0
0.3125 0 0
0.3125 0 0
0.3125 0 0
-0.03125 0 0
0.3125 0 0
-0.03125 0 0
0.3125 0 0
0.3125 0 0
0.3125 0 0
0.3125 0 0
0.3125 0 0
0.25 0 0
0.4375 0 0
0 0 0
0 0 0
0.3125 0 0
0.25 0 0
0.3125 0 0
0.3125 0 0
0.3125 0 0
-0.03125 0 0
0.3125 0 0
-0.03125 0 0
0.3125 0 0
0.3125 0 0
0.3125 0 0
0.25 0 0
0.4375 0 0
0 0 0
0 0 0
0.3125 0 0
0.25 0 0
0.3125 0 0
0.3125 0 0
0.3125 0 0
-0.03125 0 0
0.3125 0 0
-0.03125 0 0
0.3125 0 0
0.3125 0 0
0.3125 0 0
0.25 0 0
0.4375 0 0
0 0 0
0 0 0
0.3125 0 0
0.25 0 0
0.3125 0 0
0.3125 0 0
0.3125 0 0
0.3125 0 0
0.3125 0 0
-0.03125 0 0
0.3125 0 0
-0.03125 0 0
0.3125 0 0
0.3125 0 0
0.3125 0 0
0.3125 0 0
0.3125 0 0
0.25 0 0
0.4375 0 0
0 0 0
0 0 0
0.3125 0 0
0.25 0 0
0.3125 0 0
0.3125 0 0
0.3125 0 0
0.3125 0 0
0.3125 0 0
-0.03125 0 0
0.3125 0 0
-0.03125 0 0
0.3125 0 0
0.3125 0 0
0.3125 0 0
0.3125 0 0
0.3125 0 0
0.25 0 0
0.4375 0 0
0 0 0
0 0 0
0.3125 0 0
0.25 0 0
0.3125 0 0
0.3125 0 0
0.3125 0 0
-0.03125 0 0
0.3125 0 0
-0.03125 0 0
0.3125 0 0
0.3125 0 0
0.3125 0 0
0.25 0 0
0.4375 0 0
0 0 0
0 0 0
0.3125 0 0
0.25 0 0
0.3125 0 0
0.3125 0 0
0.3125 0 0
-0.03125 0 0
0.3125 0 0
-0.03125 0 0
0.3125 0 0
0.3125 0 0
0.3125 0 0
0.25 0 0
