# vtk DataFile Version 1.0
Cube
ASCII

DATASET POLYDATA
POINTS 309 float
13.146295 13.146295 1.794500
13.146295 13.146295 30.506500
1.477416 13.195471 2.916134
1.477416 13.195471 31.628134
28.059216 13.195471 2.916134
28.059216 13.195471 31.628134
11.529989 0.201357 4.235881
11.529989 0.201357 32.947881
11.529989 26.783157 4.235881
11.529989 26.783157 32.947881
2.763577 13.147358 2.519478
2.763577 13.147358 31.231478
29.345377 13.147358 2.519478
29.345377 13.147358 31.231478
3.038300 13.033057 1.638020
3.038300 13.033057 30.350020
29.620100 13.033057 1.638020
29.620100 13.033057 30.350020
3.620441 0.000000 3.589000
3.620441 0.000000 32.301000
3.620441 26.581800 3.589000
3.620441 26.581800 32.301000
30.202241 0.000000 3.589000
30.202241 0.000000 32.301000
30.202241 26.581800 3.589000
30.202241 26.581800 32.301000
5.097060 0.000000 3.589000
5.097060 0.000000 32.301000
5.097060 26.581800 3.589000
5.097060 26.581800 32.301000
5.801212 0.309678 4.730733
5.801212 26.891478 4.730733
5.342942 0.534294 5.508397
5.342942 27.116094 5.508397
7.199681 0.291071 4.731881
7.199681 26.872871 4.731881
7.654229 0.479801 5.521318
7.654229 27.061601 5.521318
7.922705 0.000000 3.589000
7.922705 0.000000 32.301000
7.922705 26.581800 3.589000
7.922705 26.581800 32.301000
9.397995 0.000000 3.589000
9.397995 0.000000 32.301000
9.397995 26.581800 3.589000
9.397995 26.581800 32.301000
10.252334 0.325627 4.616890
10.252334 26.907427 4.616890
9.978808 0.596761 5.463894
9.978808 27.178561 5.463894
13.146295 13.146295 16.150500
1.477416 13.195471 17.272134
28.059216 13.195471 17.272134
11.529989 0.201357 18.591881
11.529989 26.783157 18.591881
2.763577 13.147358 16.875478
29.345377 13.147358 16.875478
3.038300 13.033057 15.994020
29.620100 13.033057 15.994020
3.620441 0.000000 17.945000
3.620441 26.581800 17.945000
30.202241 0.000000 17.945000
30.202241 26.581800 17.945000
5.097060 0.000000 17.945000
5.097060 26.581800 17.945000
5.801212 0.309678 19.086733
5.801212 26.891478 19.086733
5.342942 0.534294 19.864397
5.342942 27.116094 19.864397
7.199681 0.291071 19.087881
7.199681 26.872871 19.087881
7.654229 0.479801 19.877318
7.654229 27.061601 19.877318
7.922705 0.000000 17.945000
7.922705 26.581800 17.945000
9.397995 0.000000 17.945000
9.397995 26.581800 17.945000
10.252334 0.325627 18.972890
10.252334 26.907427 18.972890
9.978808 0.596761 19.819894
9.978808 27.178561 19.819894
13.146295 -0.144605 1.794500
13.146295 -0.144605 30.506500
13.146295 26.437195 1.794500
13.146295 26.437195 30.506500
1.477416 -0.095429 2.916134
1.477416 -0.095429 31.628134
1.477416 26.486371 2.916134
1.477416 26.486371 31.628134
28.059216 -0.095429 2.916134
28.059216 -0.095429 31.628134
28.059216 26.486371 2.916134
28.059216 26.486371 31.628134
11.529989 13.492257 4.235881
11.529989 13.492257 32.947881
2.763577 -0.143542 2.519478
2.763577 -0.143542 31.231478
2.763577 26.438258 2.519478
2.763577 26.438258 31.231478
29.345377 -0.143542 2.519478
29.345377 -0.143542 31.231478
29.345377 26.438258 2.519478
29.345377 26.438258 31.231478
3.038300 -0.257843 1.638020
3.038300 -0.257843 30.350020
3.038300 26.323957 1.638020
3.038300 26.323957 30.350020
29.620100 -0.257843 1.638020
29.620100 -0.257843 30.350020
29.620100 26.323957 1.638020
29.620100 26.323957 30.350020
3.620441 13.290900 3.589000
3.620441 13.290900 32.301000
30.202241 13.290900 3.589000
30.202241 13.290900 32.301000
5.097060 13.290900 3.589000
5.097060 13.290900 32.301000
5.801212 13.600578 4.730733
5.342942 13.825194 5.508397
7.199681 13.581971 4.731881
7.654229 13.770701 5.521318
7.922705 13.290900 3.589000
7.922705 13.290900 32.301000
9.397995 13.290900 3.589000
9.397995 13.290900 32.301000
10.252334 13.616527 4.616890
9.978808 13.887661 5.463894
13.146295 -0.144605 16.150500
13.146295 26.437195 16.150500
1.477416 -0.095429 17.272134
1.477416 26.486371 17.272134
28.059216 -0.095429 17.272134
28.059216 26.486371 17.272134
11.529989 13.492257 18.591881
2.763577 -0.143542 16.875478
2.763577 26.438258 16.875478
29.345377 -0.143542 16.875478
29.345377 26.438258 16.875478
3.038300 -0.257843 15.994020
3.038300 26.323957 15.994020
29.620100 -0.257843 15.994020
29.620100 26.323957 15.994020
3.620441 13.290900 17.945000
30.202241 13.290900 17.945000
5.097060 13.290900 17.945000
5.801212 13.600578 19.086733
5.342942 13.825194 19.864397
7.199681 13.581971 19.087881
7.654229 13.770701 19.877318
7.922705 13.290900 17.945000
9.397995 13.290900 17.945000
10.252334 13.616527 18.972890
9.978808 13.887661 19.819894
-0.144605 13.146295 1.794500
-0.144605 13.146295 30.506500
26.437195 13.146295 1.794500
26.437195 13.146295 30.506500
14.768316 13.195471 2.916134
14.768316 13.195471 31.628134
-1.760911 0.201357 4.235881
-1.760911 0.201357 32.947881
-1.760911 26.783157 4.235881
-1.760911 26.783157 32.947881
24.820889 0.201357 4.235881
24.820889 0.201357 32.947881
24.820889 26.783157 4.235881
24.820889 26.783157 32.947881
16.054477 13.147358 2.519478
16.054477 13.147358 31.231478
16.329200 13.033057 1.638020
16.329200 13.033057 30.350020
16.911341 0.000000 3.589000
16.911341 0.000000 32.301000
16.911341 26.581800 3.589000
16.911341 26.581800 32.301000
18.387960 0.000000 3.589000
18.387960 0.000000 32.301000
18.387960 26.581800 3.589000
18.387960 26.581800 32.301000
19.092112 0.309678 4.730733
19.092112 26.891478 4.730733
18.633842 0.534294 5.508397
18.633842 27.116094 5.508397
20.490581 0.291071 4.731881
20.490581 26.872871 4.731881
20.945129 0.479801 5.521318
20.945129 27.061601 5.521318
21.213605 0.000000 3.589000
21.213605 0.000000 32.301000
21.213605 26.581800 3.589000
21.213605 26.581800 32.301000
-3.892905 0.000000 3.589000
-3.892905 0.000000 32.301000
-3.892905 26.581800 3.589000
-3.892905 26.581800 32.301000
22.688895 0.000000 3.589000
22.688895 0.000000 32.301000
22.688895 26.581800 3.589000
22.688895 26.581800 32.301000
-3.038566 0.325627 4.616890
-3.038566 26.907427 4.616890
23.543234 0.325627 4.616890
23.543234 26.907427 4.616890
-3.312092 0.596761 5.463894
-3.312092 27.178561 5.463894
23.269708 0.596761 5.463894
23.269708 27.178561 5.463894
-0.144605 13.146295 16.150500
26.437195 13.146295 16.150500
14.768316 13.195471 17.272134
-1.760911 0.201357 18.591881
-1.760911 26.783157 18.591881
24.820889 0.201357 18.591881
24.820889 26.783157 18.591881
16.054477 13.147358 16.875478
16.329200 13.033057 15.994020
16.911341 0.000000 17.945000
16.911341 26.581800 17.945000
18.387960 0.000000 17.945000
18.387960 26.581800 17.945000
19.092112 0.309678 19.086733
19.092112 26.891478 19.086733
18.633842 0.534294 19.864397
18.633842 27.116094 19.864397
20.490581 0.291071 19.087881
20.490581 26.872871 19.087881
20.945129 0.479801 19.877318
20.945129 27.061601 19.877318
21.213605 0.000000 17.945000
21.213605 26.581800 17.945000
-3.892905 0.000000 17.945000
-3.892905 26.581800 17.945000
22.688895 0.000000 17.945000
22.688895 26.581800 17.945000
-3.038566 0.325627 18.972890
-3.038566 26.907427 18.972890
23.543234 0.325627 18.972890
23.543234 26.907427 18.972890
-3.312092 0.596761 19.819894
-3.312092 27.178561 19.819894
23.269708 0.596761 19.819894
23.269708 27.178561 19.819894
-0.144605 -0.144605 1.794500
-0.144605 -0.144605 30.506500
-0.144605 26.437195 1.794500
-0.144605 26.437195 30.506500
26.437195 -0.144605 1.794500
26.437195 -0.144605 30.506500
26.437195 26.437195 1.794500
26.437195 26.437195 30.506500
14.768316 -0.095429 2.916134
14.768316 -0.095429 31.628134
14.768316 26.486371 2.916134
14.768316 26.486371 31.628134
-1.760911 13.492257 4.235881
-1.760911 13.492257 32.947881
24.820889 13.492257 4.235881
24.820889 13.492257 32.947881
16.054477 -0.143542 2.519478
16.054477 -0.143542 31.231478
16.054477 26.438258 2.519478
16.054477 26.438258 31.231478
16.329200 -0.257843 1.638020
16.329200 -0.257843 30.350020
16.329200 26.323957 1.638020
16.329200 26.323957 30.350020
16.911341 13.290900 3.589000
16.911341 13.290900 32.301000
18.387960 13.290900 3.589000
18.387960 13.290900 32.301000
19.092112 13.600578 4.730733
18.633842 13.825194 5.508397
20.490581 13.581971 4.731881
20.945129 13.770701 5.521318
21.213605 13.290900 3.589000
21.213605 13.290900 32.301000
-3.892905 13.290900 3.589000
-3.892905 13.290900 32.301000
22.688895 13.290900 3.589000
22.688895 13.290900 32.301000
-3.038566 13.616527 4.616890
23.543234 13.616527 4.616890
-3.312092 13.887661 5.463894
23.269708 13.887661 5.463894
-0.144605 -0.144605 16.150500
-0.144605 26.437195 16.150500
26.437195 -0.144605 16.150500
26.437195 26.437195 16.150500
14.768316 -0.095429 17.272134
14.768316 26.486371 17.272134
-1.760911 13.492257 18.591881
24.820889 13.492257 18.591881
16.054477 -0.143542 16.875478
16.054477 26.438258 16.875478
16.329200 -0.257843 15.994020
16.329200 26.323957 15.994020
16.911341 13.290900 17.945000
18.387960 13.290900 17.945000
19.092112 13.600578 19.086733
18.633842 13.825194 19.864397
20.490581 13.581971 19.087881
20.945129 13.770701 19.877318
21.213605 13.290900 17.945000
-3.892905 13.290900 17.945000
22.688895 13.290900 17.945000
-3.038566 13.616527 18.972890
23.543234 13.616527 18.972890
-3.312092 13.887661 19.819894
23.269708 13.887661 19.819894
LINES 258 774
2 0 157
2 1 158
2 2 10
2 2 153
2 3 11
2 3 154
2 4 12
2 4 155
2 5 13
2 5 156
2 6 46
2 8 47
2 10 14
2 10 111
2 11 15
2 11 112
2 12 16
2 12 113
2 13 17
2 13 114
2 18 26
2 18 95
2 19 27
2 19 96
2 20 28
2 20 97
2 21 29
2 21 98
2 22 99
2 23 100
2 24 101
2 25 102
2 26 30
2 28 31
2 30 32
2 30 34
2 31 33
2 31 35
2 34 36
2 34 38
2 35 37
2 35 40
2 38 42
2 39 43
2 40 44
2 41 45
2 42 46
2 44 47
2 46 48
2 47 49
2 50 209
2 51 55
2 51 207
2 52 56
2 52 208
2 53 77
2 54 78
2 55 57
2 55 142
2 56 58
2 56 143
2 59 63
2 59 134
2 60 64
2 60 135
2 61 136
2 62 137
2 63 65
2 64 66
2 65 67
2 65 69
2 66 68
2 66 70
2 69 71
2 69 73
2 70 72
2 70 74
2 73 75
2 74 76
2 75 77
2 76 78
2 77 79
2 78 80
2 81 250
2 82 251
2 83 252
2 84 253
2 85 95
2 85 242
2 86 96
2 86 243
2 87 97
2 87 244
2 88 98
2 88 245
2 89 99
2 89 246
2 90 100
2 90 247
2 91 101
2 91 248
2 92 102
2 92 249
2 93 125
2 95 103
2 96 104
2 97 105
2 98 106
2 99 107
2 100 108
2 101 109
2 102 110
2 111 115
2 112 116
2 115 117
2 117 118
2 117 119
2 119 120
2 119 121
2 121 123
2 122 124
2 123 125
2 125 126
2 127 288
2 128 289
2 129 134
2 129 284
2 130 135
2 130 285
2 131 136
2 131 286
2 132 137
2 132 287
2 133 151
2 134 138
2 135 139
2 136 140
2 137 141
2 142 144
2 144 145
2 145 146
2 145 147
2 147 148
2 147 149
2 149 150
2 150 151
2 151 152
2 157 167
2 158 168
2 159 199
2 161 200
2 163 201
2 165 202
2 167 169
2 167 266
2 168 170
2 168 267
2 171 175
2 171 258
2 172 176
2 172 259
2 173 177
2 173 260
2 174 178
2 174 261
2 175 179
2 177 180
2 179 181
2 179 183
2 180 182
2 180 184
2 183 185
2 183 187
2 184 186
2 184 189
2 187 195
2 188 196
2 189 197
2 190 198
2 191 199
2 193 200
2 195 201
2 197 202
2 199 203
2 200 204
2 201 205
2 202 206
2 209 214
2 210 234
2 211 235
2 212 236
2 213 237
2 214 215
2 214 296
2 216 218
2 216 292
2 217 219
2 217 293
2 218 220
2 219 221
2 220 222
2 220 224
2 221 223
2 221 225
2 224 226
2 224 228
2 225 227
2 225 229
2 228 232
2 229 233
2 230 234
2 231 235
2 232 236
2 233 237
2 234 238
2 235 239
2 236 240
2 237 241
2 250 258
2 251 259
2 252 260
2 253 261
2 254 280
2 256 281
2 258 262
2 259 263
2 260 264
2 261 265
2 266 268
2 267 269
2 268 270
2 270 271
2 270 272
2 272 273
2 272 274
2 274 278
2 275 279
2 276 280
2 278 281
2 280 282
2 281 283
2 288 292
2 289 293
2 290 305
2 291 306
2 292 294
2 293 295
2 296 297
2 297 298
2 298 299
2 298 300
2 300 301
2 300 302
2 302 304
2 303 305
2 304 306
2 305 307
2 306 308
