# vtk DataFile Version 1.0
Cube
ASCII

DATASET POLYDATA
POINTS 1303 float
4.685832 5.117068 3.035639
4.685832 5.117068 30.827639
30.534852 5.117068 3.035639
30.534852 5.117068 30.827639
5.509957 4.397661 2.036047
5.509957 4.397661 29.828047
31.358976 4.397661 2.036047
31.358976 4.397661 29.828047
5.636197 4.824829 0.673435
5.636197 4.824829 28.465435
31.485216 4.824829 0.673435
31.485216 4.824829 28.465435
6.449824 4.077281 6.783843
6.564390 4.382488 5.746392
6.961383 2.440629 1.628207
6.961383 2.440629 29.420207
19.885893 24.826536 1.628207
19.885893 24.826536 29.420207
6.170926 3.235081 2.467858
6.170926 3.235081 30.259858
19.095436 25.620988 2.467858
19.095436 25.620988 30.259858
6.060939 2.930270 3.505585
6.060939 2.930270 31.297585
18.985448 25.316177 3.505585
18.985448 25.316177 31.297585
7.913953 2.169869 6.212410
20.838463 24.555777 6.212410
7.083599 2.866701 0.262758
7.083599 2.866701 28.054758
20.008109 25.252609 0.262758
20.008109 25.252609 28.054758
5.804480 9.496703 6.117918
31.653500 9.496703 6.117918
6.301713 10.358081 0.268416
6.301713 10.358081 28.060416
32.150733 10.358081 0.268416
32.150733 10.358081 28.060416
6.165125 10.015523 1.653738
6.165125 10.015523 29.445738
32.014145 10.015523 1.653738
32.014145 10.015523 29.445738
6.685405 10.895724 2.590186
6.685405 10.895724 30.382186
32.534425 10.895724 2.590186
32.534425 10.895724 30.382186
6.597129 10.657003 3.647446
6.597129 10.657003 31.439446
32.446148 10.657003 3.647446
32.446148 10.657003 31.439446
7.405769 12.494086 0.835419
7.405769 12.494086 28.627419
33.254788 12.494086 0.835419
33.254788 12.494086 28.627419
6.913443 11.570094 6.853448
32.762463 11.570094 6.853448
7.006260 11.808965 5.796940
32.855279 11.808965 5.796940
7.770506 12.991955 3.322853
7.770506 12.991955 31.114853
33.619526 12.991955 3.322853
33.619526 12.991955 31.114853
7.264530 12.152263 2.222550
7.264530 12.152263 30.014550
33.113550 12.152263 2.222550
33.113550 12.152263 30.014550
19.849675 12.133258 1.742762
19.849675 12.133258 29.534762
20.087877 11.465281 3.043906
20.087877 11.465281 30.835906
19.641120 12.006307 4.294034
19.910340 11.280258 5.444144
19.579155 11.667981 6.404648
21.126373 9.530027 4.174953
21.126373 9.530027 31.966953
20.804884 10.256830 3.021960
20.804884 10.256830 30.813960
21.133563 9.865379 2.062470
21.133563 9.865379 29.854470
20.897824 9.411266 6.724835
20.682458 10.074870 5.426756
10.391943 14.780517 2.945954
10.391943 14.780517 30.737954
36.240962 14.780517 2.945954
36.240962 14.780517 30.737954
11.516314 14.686161 1.985330
11.516314 14.686161 29.777330
37.365333 14.686161 1.985330
37.365333 14.686161 29.777330
11.335620 14.371377 0.598470
11.335620 14.371377 28.390470
37.184639 14.371377 0.598470
37.184639 14.371377 28.390470
12.464422 14.327698 6.742557
12.353401 14.094052 5.686307
13.967364 14.817756 1.706075
13.967364 14.817756 29.498075
12.810131 14.900716 2.490244
12.810131 14.900716 30.282244
12.923131 15.138272 3.545081
12.923131 15.138272 31.337081
14.893946 14.418848 6.298114
13.785799 14.498079 0.318355
13.785799 14.498079 28.110355
7.244393 16.726380 3.864357
7.244393 16.726380 31.656357
33.093413 16.726380 3.864357
33.093413 16.726380 31.656357
6.506733 17.498829 4.891533
32.355753 17.498829 4.891533
6.416756 17.089874 6.262583
32.265776 17.089874 6.262583
31.560030 17.905358 0.185954
31.560030 17.905358 27.977954
31.479848 17.618509 1.231836
31.479848 17.618509 29.023836
18.028501 -2.899531 5.321553
30.953010 19.486377 5.321553
31.707828 18.671898 4.468402
31.789904 18.962644 3.424078
31.789904 18.962644 31.216078
17.219745 -2.543542 0.779259
17.219745 -2.543542 28.571259
30.144255 19.842366 0.779259
30.144255 19.842366 28.571259
17.935247 -3.312243 6.693375
30.859757 19.073664 6.693375
10.754365 -0.742752 3.716734
10.754365 -0.742752 31.508734
23.678875 21.643155 3.716734
23.678875 21.643155 31.508734
11.790931 -0.741119 4.775715
24.715441 21.644789 4.775715
11.480078 -0.790318 6.174310
24.404588 21.595589 6.174310
12.538134 -0.799659 0.122307
12.538134 -0.799659 27.914307
25.462643 21.586248 0.122307
25.462643 21.586248 27.914307
12.328526 -0.839708 1.188628
12.328526 -0.839708 28.980628
25.253036 21.546199 1.188628
25.253036 21.546199 28.980628
14.213144 -0.630577 5.248593
27.137654 21.755330 5.248593
13.131364 -0.667298 4.360113
26.055874 21.718610 4.360113
13.343395 -0.631107 3.294461
13.343395 -0.631107 31.086461
26.267905 21.754800 3.294461
26.267905 21.754800 31.086461
14.922896 -0.692136 0.762441
14.922896 -0.692136 28.554441
27.847406 21.693771 0.762441
27.847406 21.693771 28.554441
13.900678 -0.675376 6.649051
26.825188 21.710532 6.649051
6.672633 -2.081065 3.869705
6.672633 -2.081065 31.661705
19.597143 20.304842 3.869705
19.597143 20.304842 31.661705
6.365317 -3.104453 4.896421
19.289827 19.281455 4.896421
6.748589 -2.972327 6.271472
19.673099 19.413581 6.271472
19.314276 18.395648 0.193780
19.314276 18.395648 27.985780
19.590765 18.473815 1.242601
19.590765 18.473815 29.034601
18.274410 17.069834 5.321400
18.607449 18.129706 4.468905
18.326622 18.051217 3.421595
18.326622 18.051217 31.213595
18.347257 16.198685 0.782555
18.347257 16.198685 28.574555
18.662568 17.201024 6.697280
18.553447 1.501443 3.019694
18.553447 1.501443 30.811694
31.477957 23.887351 3.019694
31.477957 23.887351 30.811694
18.726659 2.591282 2.030674
18.726659 2.591282 29.822674
31.651169 24.977190 2.030674
31.651169 24.977190 29.822674
18.259254 2.501663 0.678409
18.259254 2.501663 28.470409
31.183764 24.887570 0.678409
31.183764 24.887570 28.470409
18.466257 3.594500 6.798620
18.118224 3.552344 5.769214
19.660735 4.842988 1.630337
19.660735 4.842988 29.422337
19.401638 3.746156 2.461492
19.401638 3.746156 30.253492
19.747007 3.792046 3.491297
19.747007 3.792046 31.283297
19.346898 5.834183 6.235843
19.196247 4.750505 0.275116
19.196247 4.750505 28.067116
18.256376 11.872743 0.890866
18.256376 11.872743 28.682866
18.620933 11.439598 6.469416
18.195148 12.134581 5.290084
18.614355 11.641328 4.063973
18.614355 11.641328 31.855973
18.307219 12.152566 3.154642
18.307219 12.152566 30.946642
19.802048 9.738340 5.122703
19.404697 10.279073 6.351813
19.716145 9.768579 0.311711
19.716145 9.768579 28.103711
19.742106 10.021664 2.576260
19.742106 10.021664 30.368260
19.371451 10.432448 3.942142
19.371451 10.432448 31.734142
5.297487 7.022439 3.713332
5.297487 7.022439 31.505332
31.146506 7.022439 3.713332
31.146506 7.022439 31.505332
3.423708 6.835235 1.393395
3.423708 6.835235 29.185395
29.272727 6.835235 1.393395
29.272727 6.835235 29.185395
4.179893 8.502170 6.020972
30.028912 8.502170 6.020972
4.841211 5.655575 2.308238
4.841211 5.655575 30.100238
30.690231 5.655575 2.308238
30.690231 5.655575 30.100238
4.833884 6.701291 6.775107
30.682903 6.701291 6.775107
6.092273 5.812636 5.143648
31.941292 5.812636 5.143648
5.601584 8.833291 4.627967
31.450603 8.833291 4.627967
4.681181 8.264425 2.152742
4.681181 8.264425 29.944742
30.530201 8.264425 2.152742
30.530201 8.264425 29.944742
4.763879 9.834132 0.559844
4.763879 9.834132 28.351844
30.612898 9.834132 0.559844
30.612898 9.834132 28.351844
18.389341 14.570448 6.038272
19.810770 18.431709 0.179649
19.810770 18.431709 27.971649
18.193471 -0.223029 1.387976
18.193471 -0.223029 29.179976
31.117981 22.162879 1.387976
31.117981 22.162879 29.179976
9.473978 15.596227 5.539303
35.322997 15.596227 5.539303
8.708633 13.854954 0.919856
8.708633 13.854954 28.711856
34.557653 13.854954 0.919856
34.557653 13.854954 28.711856
7.598759 15.359842 3.238126
7.598759 15.359842 31.030126
33.447779 15.359842 3.238126
33.447779 15.359842 31.030126
8.235216 14.125109 4.798299
34.084235 14.125109 4.798299
7.252136 13.558736 2.322240
7.252136 13.558736 30.114240
33.101156 13.558736 2.322240
33.101156 13.558736 30.114240
8.157752 12.552683 6.387029
34.006772 12.552683 6.387029
9.490334 14.997219 2.483156
9.490334 14.997219 30.275156
35.339353 14.997219 2.483156
35.339353 14.997219 30.275156
10.443056 14.492492 0.004179
10.443056 14.492492 27.796179
36.292076 14.492492 0.004179
36.292076 14.492492 27.796179
10.895407 15.715213 4.072303
10.895407 15.715213 31.864303
36.744426 15.715213 4.072303
36.744426 15.715213 31.864303
8.050586 16.770221 4.636967
33.899605 16.770221 4.636967
8.045352 15.643368 0.162594
8.045352 15.643368 27.954594
33.894371 15.643368 0.162594
33.894371 15.643368 27.954594
6.785392 16.521597 1.785924
6.785392 16.521597 29.577924
32.634412 16.521597 1.785924
32.634412 16.521597 29.577924
9.444013 0.640484 0.904868
9.444013 0.640484 28.696868
22.368523 23.026391 0.904868
22.368523 23.026391 28.696868
10.282516 14.399804 0.004616
10.282516 14.399804 27.796616
36.131536 14.399804 0.004616
36.131536 14.399804 27.796616
8.730485 -1.075859 3.236686
8.730485 -1.075859 31.028686
21.654995 21.310049 3.236686
21.654995 21.310049 31.028686
9.498708 0.078417 4.806448
22.423218 22.464325 4.806448
10.441617 -0.429709 2.319967
10.441617 -0.429709 30.111967
23.366127 21.956199 2.319967
23.366127 21.956199 30.111967
10.921446 0.717768 6.428528
23.845956 23.103676 6.428528
8.042866 0.713915 2.482342
8.042866 0.713915 30.274342
20.967375 23.099823 2.482342
20.967375 23.099823 30.274342
8.001255 1.792720 0.005658
8.001255 1.792720 27.797658
20.925765 24.178628 0.005658
20.925765 24.178628 27.797658
6.789187 1.588518 4.117762
6.789187 1.588518 31.909762
19.713697 23.974425 4.117762
19.713697 23.974425 31.909762
7.308925 -1.395874 4.645741
20.233435 20.990034 4.645741
8.210485 -0.848312 0.167616
8.210485 -0.848312 27.959616
21.134995 21.537595 0.167616
21.134995 21.537595 27.959616
8.149640 -2.382890 1.792614
8.149640 -2.382890 29.584614
21.074149 20.003018 1.792614
21.074149 20.003018 29.584614
17.092103 1.092177 3.706259
17.092103 1.092177 31.498259
30.016612 23.478084 3.706259
30.016612 23.478084 31.498259
16.339974 -0.612154 6.024320
29.264484 21.773754 6.024320
18.193471 -0.408405 1.386530
18.193471 -0.408405 29.178530
31.117981 21.977503 1.386530
31.117981 21.977503 29.178530
15.362782 0.498834 4.620268
28.287292 22.884742 4.620268
16.306345 -0.072978 2.144418
16.306345 -0.072978 29.936418
29.230855 22.312930 2.144418
29.230855 22.312930 29.936418
14.909385 -0.717995 0.511708
14.909385 -0.717995 28.303708
27.833895 21.667913 0.511708
27.833895 21.667913 28.303708
17.726073 -0.713462 4.465398
30.650583 21.672446 4.465398
17.762581 -1.792493 6.938538
30.687090 20.593414 6.938538
18.980668 -1.589198 2.832062
18.980668 -1.589198 30.624062
31.905178 20.796710 2.832062
31.905178 20.796710 30.624062
18.522691 1.378423 2.302624
18.522691 1.378423 30.094624
31.447201 23.764330 2.302624
31.447201 23.764330 30.094624
17.563295 0.856698 6.779707
30.487805 23.242606 6.779707
17.768992 2.372011 5.138659
30.693502 24.757919 5.138659
16.373341 14.252480 3.708223
16.373341 14.252480 31.500223
18.575424 13.248693 1.712410
18.575424 13.248693 29.504410
17.112908 15.967237 1.399541
17.112908 15.967237 29.191541
15.383457 15.349643 2.304796
15.383457 15.349643 30.096796
16.328459 14.783497 6.780628
14.943668 14.135081 5.144374
17.606083 15.718613 4.463609
18.519420 16.290198 6.943420
17.691136 17.286960 2.863624
17.691136 17.286960 30.655624
17.759048 14.157745 2.145757
17.759048 14.157745 29.937757
17.792153 13.086419 4.626818
19.016128 13.267731 0.516173
19.016128 13.267731 28.308173
20.535045 7.891376 0.928435
20.535045 7.891376 28.720435
21.670174 6.388075 5.558930
22.412619 8.092405 3.235241
22.412619 8.092405 31.027241
21.160642 6.638285 2.492569
21.160642 6.638285 30.284569
20.178216 6.102962 0.012133
20.178216 6.102962 27.804133
21.005322 5.096455 4.117359
21.005322 5.096455 31.909359
23.383137 7.023346 4.651590
22.423218 7.536005 0.182011
22.423218 7.536005 27.974011
23.847526 8.180342 1.798672
23.847526 8.180342 29.590672
21.039082 8.181475 4.803335
21.004406 9.263226 2.330194
21.004406 9.263226 30.122194
19.787889 9.054038 6.438963
4.685832 5.117068 9.983639
30.534852 5.117068 9.983639
5.509957 4.397661 8.984047
31.358976 4.397661 8.984047
5.636197 4.824829 7.621435
31.485216 4.824829 7.621435
6.449824 4.077281 13.731843
6.564390 4.382488 12.694392
6.961383 2.440629 8.576207
19.885893 24.826536 8.576207
6.170926 3.235081 9.415858
19.095436 25.620988 9.415858
6.060939 2.930270 10.453585
18.985448 25.316177 10.453585
7.913953 2.169869 13.160410
20.838463 24.555777 13.160410
7.083599 2.866701 7.210758
20.008109 25.252609 7.210758
5.804480 9.496703 13.065918
31.653500 9.496703 13.065918
6.301713 10.358081 7.216416
32.150733 10.358081 7.216416
6.165125 10.015523 8.601738
32.014145 10.015523 8.601738
6.685405 10.895724 9.538186
32.534425 10.895724 9.538186
6.597129 10.657003 10.595446
32.446148 10.657003 10.595446
7.405769 12.494086 7.783419
33.254788 12.494086 7.783419
6.913443 11.570094 13.801448
32.762463 11.570094 13.801448
7.006260 11.808965 12.744940
32.855279 11.808965 12.744940
7.770506 12.991955 10.270853
33.619526 12.991955 10.270853
7.264530 12.152263 9.170550
33.113550 12.152263 9.170550
19.849675 12.133258 8.690762
20.087877 11.465281 9.991906
19.641120 12.006307 11.242034
19.910340 11.280258 12.392144
19.579155 11.667981 13.352648
21.126373 9.530027 11.122953
20.804884 10.256830 9.969960
21.133563 9.865379 9.010470
20.897824 9.411266 13.672835
20.682458 10.074870 12.374756
10.391943 14.780517 9.893954
36.240962 14.780517 9.893954
11.516314 14.686161 8.933330
37.365333 14.686161 8.933330
11.335620 14.371377 7.546470
37.184639 14.371377 7.546470
12.464422 14.327698 13.690557
12.353401 14.094052 12.634307
13.967364 14.817756 8.654075
12.810131 14.900716 9.438244
12.923131 15.138272 10.493081
14.893946 14.418848 13.246114
13.785799 14.498079 7.266355
7.244393 16.726380 10.812357
33.093413 16.726380 10.812357
6.506733 17.498829 11.839533
32.355753 17.498829 11.839533
6.416756 17.089874 13.210583
32.265776 17.089874 13.210583
31.560030 17.905358 7.133954
31.479848 17.618509 8.179836
18.028501 -2.899531 12.269553
30.953010 19.486377 12.269553
31.707828 18.671898 11.416402
31.789904 18.962644 10.372078
17.219745 -2.543542 7.727259
30.144255 19.842366 7.727259
17.935247 -3.312243 13.641375
30.859757 19.073664 13.641375
10.754365 -0.742752 10.664734
23.678875 21.643155 10.664734
11.790931 -0.741119 11.723715
24.715441 21.644789 11.723715
11.480078 -0.790318 13.122310
24.404588 21.595589 13.122310
12.538134 -0.799659 7.070307
25.462643 21.586248 7.070307
12.328526 -0.839708 8.136628
25.253036 21.546199 8.136628
14.213144 -0.630577 12.196593
27.137654 21.755330 12.196593
13.131364 -0.667298 11.308113
26.055874 21.718610 11.308113
13.343395 -0.631107 10.242461
26.267905 21.754800 10.242461
14.922896 -0.692136 7.710441
27.847406 21.693771 7.710441
13.900678 -0.675376 13.597051
26.825188 21.710532 13.597051
6.672633 -2.081065 10.817705
19.597143 20.304842 10.817705
6.365317 -3.104453 11.844421
19.289827 19.281455 11.844421
6.748589 -2.972327 13.219472
19.673099 19.413581 13.219472
19.314276 18.395648 7.141780
19.590765 18.473815 8.190601
18.274410 17.069834 12.269400
18.607449 18.129706 11.416905
18.326622 18.051217 10.369595
18.347257 16.198685 7.730555
18.662568 17.201024 13.645280
18.553447 1.501443 9.967694
31.477957 23.887351 9.967694
18.726659 2.591282 8.978674
31.651169 24.977190 8.978674
18.259254 2.501663 7.626409
31.183764 24.887570 7.626409
18.466257 3.594500 13.746620
18.118224 3.552344 12.717214
19.660735 4.842988 8.578337
19.401638 3.746156 9.409492
19.747007 3.792046 10.439297
19.346898 5.834183 13.183843
19.196247 4.750505 7.223116
18.256376 11.872743 7.838866
18.620933 11.439598 13.417416
18.195148 12.134581 12.238084
18.614355 11.641328 11.011973
18.307219 12.152566 10.102642
19.802048 9.738340 12.070703
19.404697 10.279073 13.299813
19.716145 9.768579 7.259711
19.742106 10.021664 9.524260
19.371451 10.432448 10.890142
5.297487 7.022439 10.661332
31.146506 7.022439 10.661332
3.423708 6.835235 8.341395
29.272727 6.835235 8.341395
4.179893 8.502170 12.968972
30.028912 8.502170 12.968972
4.841211 5.655575 9.256238
30.690231 5.655575 9.256238
4.833884 6.701291 13.723107
30.682903 6.701291 13.723107
6.092273 5.812636 12.091648
31.941292 5.812636 12.091648
5.601584 8.833291 11.575967
31.450603 8.833291 11.575967
4.681181 8.264425 9.100742
30.530201 8.264425 9.100742
4.763879 9.834132 7.507844
30.612898 9.834132 7.507844
18.389341 14.570448 12.986272
19.810770 18.431709 7.127649
18.193471 -0.223029 8.335976
31.117981 22.162879 8.335976
9.473978 15.596227 12.487303
35.322997 15.596227 12.487303
8.708633 13.854954 7.867856
34.557653 13.854954 7.867856
7.598759 15.359842 10.186126
33.447779 15.359842 10.186126
8.235216 14.125109 11.746299
34.084235 14.125109 11.746299
7.252136 13.558736 9.270240
33.101156 13.558736 9.270240
8.157752 12.552683 13.335029
34.006772 12.552683 13.335029
9.490334 14.997219 9.431156
35.339353 14.997219 9.431156
10.443056 14.492492 6.952179
36.292076 14.492492 6.952179
10.895407 15.715213 11.020303
36.744426 15.715213 11.020303
8.050586 16.770221 11.584967
33.899605 16.770221 11.584967
8.045352 15.643368 7.110594
33.894371 15.643368 7.110594
6.785392 16.521597 8.733924
32.634412 16.521597 8.733924
9.444013 0.640484 7.852868
22.368523 23.026391 7.852868
10.282516 14.399804 6.952616
36.131536 14.399804 6.952616
8.730485 -1.075859 10.184686
21.654995 21.310049 10.184686
9.498708 0.078417 11.754448
22.423218 22.464325 11.754448
10.441617 -0.429709 9.267967
23.366127 21.956199 9.267967
10.921446 0.717768 13.376528
23.845956 23.103676 13.376528
8.042866 0.713915 9.430342
20.967375 23.099823 9.430342
8.001255 1.792720 6.953658
20.925765 24.178628 6.953658
6.789187 1.588518 11.065762
19.713697 23.974425 11.065762
7.308925 -1.395874 11.593741
20.233435 20.990034 11.593741
8.210485 -0.848312 7.115616
21.134995 21.537595 7.115616
8.149640 -2.382890 8.740614
21.074149 20.003018 8.740614
17.092103 1.092177 10.654259
30.016612 23.478084 10.654259
16.339974 -0.612154 12.972320
29.264484 21.773754 12.972320
18.193471 -0.408405 8.334530
31.117981 21.977503 8.334530
15.362782 0.498834 11.568268
28.287292 22.884742 11.568268
16.306345 -0.072978 9.092418
29.230855 22.312930 9.092418
14.909385 -0.717995 7.459708
27.833895 21.667913 7.459708
17.726073 -0.713462 11.413398
30.650583 21.672446 11.413398
17.762581 -1.792493 13.886538
30.687090 20.593414 13.886538
18.980668 -1.589198 9.780062
31.905178 20.796710 9.780062
18.522691 1.378423 9.250624
31.447201 23.764330 9.250624
17.563295 0.856698 13.727707
30.487805 23.242606 13.727707
17.768992 2.372011 12.086659
30.693502 24.757919 12.086659
16.373341 14.252480 10.656223
18.575424 13.248693 8.660410
17.112908 15.967237 8.347541
15.383457 15.349643 9.252796
16.328459 14.783497 13.728628
14.943668 14.135081 12.092374
17.606083 15.718613 11.411609
18.519420 16.290198 13.891420
17.691136 17.286960 9.811624
17.759048 14.157745 9.093757
17.792153 13.086419 11.574818
19.016128 13.267731 7.464173
20.535045 7.891376 7.876435
21.670174 6.388075 12.506930
22.412619 8.092405 10.183241
21.160642 6.638285 9.440569
20.178216 6.102962 6.960133
21.005322 5.096455 11.065359
23.383137 7.023346 11.599590
22.423218 7.536005 7.130011
23.847526 8.180342 8.746672
21.039082 8.181475 11.751335
21.004406 9.263226 9.278194
19.787889 9.054038 13.386963
4.685832 5.117068 16.931639
30.534852 5.117068 16.931639
5.509957 4.397661 15.932047
31.358976 4.397661 15.932047
5.636197 4.824829 14.569435
31.485216 4.824829 14.569435
6.449824 4.077281 20.679843
6.564390 4.382488 19.642392
6.961383 2.440629 15.524207
19.885893 24.826536 15.524207
6.170926 3.235081 16.363858
19.095436 25.620988 16.363858
6.060939 2.930270 17.401585
18.985448 25.316177 17.401585
7.913953 2.169869 20.108410
20.838463 24.555777 20.108410
7.083599 2.866701 14.158758
20.008109 25.252609 14.158758
5.804480 9.496703 20.013918
31.653500 9.496703 20.013918
6.301713 10.358081 14.164416
32.150733 10.358081 14.164416
6.165125 10.015523 15.549738
32.014145 10.015523 15.549738
6.685405 10.895724 16.486186
32.534425 10.895724 16.486186
6.597129 10.657003 17.543446
32.446148 10.657003 17.543446
7.405769 12.494086 14.731419
33.254788 12.494086 14.731419
6.913443 11.570094 20.749448
32.762463 11.570094 20.749448
7.006260 11.808965 19.692940
32.855279 11.808965 19.692940
7.770506 12.991955 17.218853
33.619526 12.991955 17.218853
7.264530 12.152263 16.118550
33.113550 12.152263 16.118550
19.849675 12.133258 15.638762
20.087877 11.465281 16.939906
19.641120 12.006307 18.190034
19.910340 11.280258 19.340144
19.579155 11.667981 20.300648
21.126373 9.530027 18.070953
20.804884 10.256830 16.917960
21.133563 9.865379 15.958470
20.897824 9.411266 20.620835
20.682458 10.074870 19.322756
10.391943 14.780517 16.841954
36.240962 14.780517 16.841954
11.516314 14.686161 15.881330
37.365333 14.686161 15.881330
11.335620 14.371377 14.494470
37.184639 14.371377 14.494470
12.464422 14.327698 20.638557
12.353401 14.094052 19.582307
13.967364 14.817756 15.602075
12.810131 14.900716 16.386244
12.923131 15.138272 17.441081
14.893946 14.418848 20.194114
13.785799 14.498079 14.214355
7.244393 16.726380 17.760357
33.093413 16.726380 17.760357
6.506733 17.498829 18.787533
32.355753 17.498829 18.787533
6.416756 17.089874 20.158583
32.265776 17.089874 20.158583
31.560030 17.905358 14.081954
31.479848 17.618509 15.127836
18.028501 -2.899531 19.217553
30.953010 19.486377 19.217553
31.707828 18.671898 18.364402
31.789904 18.962644 17.320078
17.219745 -2.543542 14.675259
30.144255 19.842366 14.675259
17.935247 -3.312243 20.589375
30.859757 19.073664 20.589375
10.754365 -0.742752 17.612734
23.678875 21.643155 17.612734
11.790931 -0.741119 18.671715
24.715441 21.644789 18.671715
11.480078 -0.790318 20.070310
24.404588 21.595589 20.070310
12.538134 -0.799659 14.018307
25.462643 21.586248 14.018307
12.328526 -0.839708 15.084628
25.253036 21.546199 15.084628
14.213144 -0.630577 19.144593
27.137654 21.755330 19.144593
13.131364 -0.667298 18.256113
26.055874 21.718610 18.256113
13.343395 -0.631107 17.190461
26.267905 21.754800 17.190461
14.922896 -0.692136 14.658441
27.847406 21.693771 14.658441
13.900678 -0.675376 20.545051
26.825188 21.710532 20.545051
6.672633 -2.081065 17.765705
19.597143 20.304842 17.765705
6.365317 -3.104453 18.792421
19.289827 19.281455 18.792421
6.748589 -2.972327 20.167472
19.673099 19.413581 20.167472
19.314276 18.395648 14.089780
19.590765 18.473815 15.138601
18.274410 17.069834 19.217400
18.607449 18.129706 18.364905
18.326622 18.051217 17.317595
18.347257 16.198685 14.678555
18.662568 17.201024 20.593280
18.553447 1.501443 16.915694
31.477957 23.887351 16.915694
18.726659 2.591282 15.926674
31.651169 24.977190 15.926674
18.259254 2.501663 14.574409
31.183764 24.887570 14.574409
18.466257 3.594500 20.694620
18.118224 3.552344 19.665214
19.660735 4.842988 15.526337
19.401638 3.746156 16.357492
19.747007 3.792046 17.387297
19.346898 5.834183 20.131843
19.196247 4.750505 14.171116
18.256376 11.872743 14.786866
18.620933 11.439598 20.365416
18.195148 12.134581 19.186084
18.614355 11.641328 17.959973
18.307219 12.152566 17.050642
19.802048 9.738340 19.018703
19.404697 10.279073 20.247813
19.716145 9.768579 14.207711
19.742106 10.021664 16.472260
19.371451 10.432448 17.838142
5.297487 7.022439 17.609332
31.146506 7.022439 17.609332
3.423708 6.835235 15.289395
29.272727 6.835235 15.289395
4.179893 8.502170 19.916972
30.028912 8.502170 19.916972
4.841211 5.655575 16.204238
30.690231 5.655575 16.204238
4.833884 6.701291 20.671107
30.682903 6.701291 20.671107
6.092273 5.812636 19.039648
31.941292 5.812636 19.039648
5.601584 8.833291 18.523967
31.450603 8.833291 18.523967
4.681181 8.264425 16.048742
30.530201 8.264425 16.048742
4.763879 9.834132 14.455844
30.612898 9.834132 14.455844
18.389341 14.570448 19.934272
19.810770 18.431709 14.075649
18.193471 -0.223029 15.283976
31.117981 22.162879 15.283976
9.473978 15.596227 19.435303
35.322997 15.596227 19.435303
8.708633 13.854954 14.815856
34.557653 13.854954 14.815856
7.598759 15.359842 17.134126
33.447779 15.359842 17.134126
8.235216 14.125109 18.694299
34.084235 14.125109 18.694299
7.252136 13.558736 16.218240
33.101156 13.558736 16.218240
8.157752 12.552683 20.283029
34.006772 12.552683 20.283029
9.490334 14.997219 16.379156
35.339353 14.997219 16.379156
10.443056 14.492492 13.900179
36.292076 14.492492 13.900179
10.895407 15.715213 17.968303
36.744426 15.715213 17.968303
8.050586 16.770221 18.532967
33.899605 16.770221 18.532967
8.045352 15.643368 14.058594
33.894371 15.643368 14.058594
6.785392 16.521597 15.681924
32.634412 16.521597 15.681924
9.444013 0.640484 14.800868
22.368523 23.026391 14.800868
10.282516 14.399804 13.900616
36.131536 14.399804 13.900616
8.730485 -1.075859 17.132686
21.654995 21.310049 17.132686
9.498708 0.078417 18.702448
22.423218 22.464325 18.702448
10.441617 -0.429709 16.215967
23.366127 21.956199 16.215967
10.921446 0.717768 20.324528
23.845956 23.103676 20.324528
8.042866 0.713915 16.378342
20.967375 23.099823 16.378342
8.001255 1.792720 13.901658
20.925765 24.178628 13.901658
6.789187 1.588518 18.013762
19.713697 23.974425 18.013762
7.308925 -1.395874 18.541741
20.233435 20.990034 18.541741
8.210485 -0.848312 14.063616
21.134995 21.537595 14.063616
8.149640 -2.382890 15.688614
21.074149 20.003018 15.688614
17.092103 1.092177 17.602259
30.016612 23.478084 17.602259
16.339974 -0.612154 19.920320
29.264484 21.773754 19.920320
18.193471 -0.408405 15.282530
31.117981 21.977503 15.282530
15.362782 0.498834 18.516268
28.287292 22.884742 18.516268
16.306345 -0.072978 16.040418
29.230855 22.312930 16.040418
14.909385 -0.717995 14.407708
27.833895 21.667913 14.407708
17.726073 -0.713462 18.361398
30.650583 21.672446 18.361398
17.762581 -1.792493 20.834538
30.687090 20.593414 20.834538
18.980668 -1.589198 16.728062
31.905178 20.796710 16.728062
18.522691 1.378423 16.198624
31.447201 23.764330 16.198624
17.563295 0.856698 20.675707
30.487805 23.242606 20.675707
17.768992 2.372011 19.034659
30.693502 24.757919 19.034659
16.373341 14.252480 17.604223
18.575424 13.248693 15.608410
17.112908 15.967237 15.295541
15.383457 15.349643 16.200796
16.328459 14.783497 20.676628
14.943668 14.135081 19.040374
17.606083 15.718613 18.359609
18.519420 16.290198 20.839420
17.691136 17.286960 16.759624
17.759048 14.157745 16.041757
17.792153 13.086419 18.522818
19.016128 13.267731 14.412173
20.535045 7.891376 14.824435
21.670174 6.388075 19.454930
22.412619 8.092405 17.131241
21.160642 6.638285 16.388569
20.178216 6.102962 13.908133
21.005322 5.096455 18.013359
23.383137 7.023346 18.547590
22.423218 7.536005 14.078011
23.847526 8.180342 15.694672
21.039082 8.181475 18.699335
21.004406 9.263226 16.226194
19.787889 9.054038 20.334963
4.685832 5.117068 -3.912361
4.685832 5.117068 23.879639
30.534852 5.117068 -3.912361
30.534852 5.117068 23.879639
5.509957 4.397661 22.880047
31.358976 4.397661 22.880047
5.636197 4.824829 21.517435
31.485216 4.824829 21.517435
6.449824 4.077281 -0.164157
6.449824 4.077281 27.627843
6.564390 4.382488 -1.201608
6.564390 4.382488 26.590392
6.961383 2.440629 22.472207
19.885893 24.826536 22.472207
6.170926 3.235081 23.311858
19.095436 25.620988 23.311858
6.060939 2.930270 -3.442415
6.060939 2.930270 24.349585
18.985448 25.316177 -3.442415
18.985448 25.316177 24.349585
7.913953 2.169869 -0.735590
7.913953 2.169869 27.056410
20.838463 24.555777 -0.735590
20.838463 24.555777 27.056410
7.083599 2.866701 21.106758
20.008109 25.252609 21.106758
5.804480 9.496703 -0.830082
5.804480 9.496703 26.961918
31.653500 9.496703 -0.830082
31.653500 9.496703 26.961918
6.301713 10.358081 21.112416
32.150733 10.358081 21.112416
6.165125 10.015523 22.497738
32.014145 10.015523 22.497738
6.685405 10.895724 23.434186
32.534425 10.895724 23.434186
6.597129 10.657003 -3.300554
6.597129 10.657003 24.491446
32.446148 10.657003 -3.300554
32.446148 10.657003 24.491446
7.405769 12.494086 21.679419
33.254788 12.494086 21.679419
6.913443 11.570094 -0.094552
6.913443 11.570094 27.697448
32.762463 11.570094 -0.094552
32.762463 11.570094 27.697448
7.006260 11.808965 -1.151060
7.006260 11.808965 26.640940
32.855279 11.808965 -1.151060
32.855279 11.808965 26.640940
7.770506 12.991955 -3.625147
7.770506 12.991955 24.166853
33.619526 12.991955 -3.625147
33.619526 12.991955 24.166853
7.264530 12.152263 23.066550
33.113550 12.152263 23.066550
19.849675 12.133258 22.586762
20.087877 11.465281 -3.904094
20.087877 11.465281 23.887906
19.641120 12.006307 -2.653966
19.641120 12.006307 25.138034
19.910340 11.280258 -1.503856
19.910340 11.280258 26.288144
19.579155 11.667981 -0.543352
19.579155 11.667981 27.248648
21.126373 9.530027 -2.773047
21.126373 9.530027 25.018953
20.804884 10.256830 -3.926040
20.804884 10.256830 23.865960
21.133563 9.865379 22.906470
20.897824 9.411266 -0.223165
20.897824 9.411266 27.568835
20.682458 10.074870 -1.521244
20.682458 10.074870 26.270756
10.391943 14.780517 -4.002046
10.391943 14.780517 23.789954
36.240962 14.780517 -4.002046
36.240962 14.780517 23.789954
11.516314 14.686161 22.829330
37.365333 14.686161 22.829330
11.335620 14.371377 21.442470
37.184639 14.371377 21.442470
12.464422 14.327698 -0.205443
12.464422 14.327698 27.586557
12.353401 14.094052 -1.261693
12.353401 14.094052 26.530307
13.967364 14.817756 22.550075
12.810131 14.900716 23.334244
12.923131 15.138272 -3.402919
12.923131 15.138272 24.389081
14.893946 14.418848 -0.649886
14.893946 14.418848 27.142114
13.785799 14.498079 21.162355
7.244393 16.726380 -3.083643
7.244393 16.726380 24.708357
33.093413 16.726380 -3.083643
33.093413 16.726380 24.708357
6.506733 17.498829 -2.056467
6.506733 17.498829 25.735533
32.355753 17.498829 -2.056467
32.355753 17.498829 25.735533
6.416756 17.089874 -0.685417
6.416756 17.089874 27.106583
32.265776 17.089874 -0.685417
32.265776 17.089874 27.106583
31.560030 17.905358 21.029954
31.479848 17.618509 22.075836
18.028501 -2.899531 -1.626447
18.028501 -2.899531 26.165553
30.953010 19.486377 -1.626447
30.953010 19.486377 26.165553
31.707828 18.671898 -2.479598
31.707828 18.671898 25.312402
31.789904 18.962644 -3.523922
31.789904 18.962644 24.268078
17.219745 -2.543542 21.623259
30.144255 19.842366 21.623259
17.935247 -3.312243 -0.254625
17.935247 -3.312243 27.537375
30.859757 19.073664 -0.254625
30.859757 19.073664 27.537375
10.754365 -0.742752 -3.231266
10.754365 -0.742752 24.560734
23.678875 21.643155 -3.231266
23.678875 21.643155 24.560734
11.790931 -0.741119 -2.172285
11.790931 -0.741119 25.619715
24.715441 21.644789 -2.172285
24.715441 21.644789 25.619715
11.480078 -0.790318 -0.773690
11.480078 -0.790318 27.018310
24.404588 21.595589 -0.773690
24.404588 21.595589 27.018310
12.538134 -0.799659 20.966307
25.462643 21.586248 20.966307
12.328526 -0.839708 22.032628
25.253036 21.546199 22.032628
14.213144 -0.630577 -1.699407
14.213144 -0.630577 26.092593
27.137654 21.755330 -1.699407
27.137654 21.755330 26.092593
13.131364 -0.667298 -2.587887
13.131364 -0.667298 25.204113
26.055874 21.718610 -2.587887
26.055874 21.718610 25.204113
13.343395 -0.631107 -3.653539
13.343395 -0.631107 24.138461
26.267905 21.754800 -3.653539
26.267905 21.754800 24.138461
14.922896 -0.692136 21.606441
27.847406 21.693771 21.606441
13.900678 -0.675376 -0.298949
13.900678 -0.675376 27.493051
26.825188 21.710532 -0.298949
26.825188 21.710532 27.493051
6.672633 -2.081065 -3.078295
6.672633 -2.081065 24.713705
19.597143 20.304842 -3.078295
19.597143 20.304842 24.713705
6.365317 -3.104453 -2.051579
6.365317 -3.104453 25.740421
19.289827 19.281455 -2.051579
19.289827 19.281455 25.740421
6.748589 -2.972327 -0.676528
6.748589 -2.972327 27.115472
19.673099 19.413581 -0.676528
19.673099 19.413581 27.115472
19.314276 18.395648 21.037780
19.590765 18.473815 22.086601
18.274410 17.069834 -1.626600
18.274410 17.069834 26.165400
18.607449 18.129706 -2.479095
18.607449 18.129706 25.312905
18.326622 18.051217 -3.526405
18.326622 18.051217 24.265595
18.347257 16.198685 21.626555
18.662568 17.201024 -0.250720
18.662568 17.201024 27.541280
18.553447 1.501443 -3.928306
18.553447 1.501443 23.863694
31.477957 23.887351 -3.928306
31.477957 23.887351 23.863694
18.726659 2.591282 22.874674
31.651169 24.977190 22.874674
18.259254 2.501663 21.522409
31.183764 24.887570 21.522409
18.466257 3.594500 -0.149380
18.466257 3.594500 27.642620
18.118224 3.552344 -1.178786
18.118224 3.552344 26.613214
19.660735 4.842988 22.474337
19.401638 3.746156 23.305492
19.747007 3.792046 -3.456703
19.747007 3.792046 24.335297
19.346898 5.834183 -0.712157
19.346898 5.834183 27.079843
19.196247 4.750505 21.119116
18.256376 11.872743 21.734866
18.620933 11.439598 -0.478584
18.620933 11.439598 27.313416
18.195148 12.134581 -1.657916
18.195148 12.134581 26.134084
18.614355 11.641328 -2.884027
18.614355 11.641328 24.907973
18.307219 12.152566 -3.793358
18.307219 12.152566 23.998642
19.802048 9.738340 -1.825297
19.802048 9.738340 25.966703
19.404697 10.279073 -0.596187
19.404697 10.279073 27.195813
19.716145 9.768579 21.155711
19.742106 10.021664 23.420260
19.371451 10.432448 -3.005858
19.371451 10.432448 24.786142
5.297487 7.022439 -3.234668
5.297487 7.022439 24.557332
31.146506 7.022439 -3.234668
31.146506 7.022439 24.557332
3.423708 6.835235 22.237395
29.272727 6.835235 22.237395
4.179893 8.502170 -0.927028
4.179893 8.502170 26.864972
30.028912 8.502170 -0.927028
30.028912 8.502170 26.864972
4.841211 5.655575 23.152238
30.690231 5.655575 23.152238
4.833884 6.701291 -0.172893
4.833884 6.701291 27.619107
30.682903 6.701291 -0.172893
30.682903 6.701291 27.619107
6.092273 5.812636 -1.804352
6.092273 5.812636 25.987648
31.941292 5.812636 -1.804352
31.941292 5.812636 25.987648
5.601584 8.833291 -2.320033
5.601584 8.833291 25.471967
31.450603 8.833291 -2.320033
31.450603 8.833291 25.471967
4.681181 8.264425 22.996742
30.530201 8.264425 22.996742
4.763879 9.834132 21.403844
30.612898 9.834132 21.403844
18.389341 14.570448 -0.909728
18.389341 14.570448 26.882272
19.810770 18.431709 21.023649
18.193471 -0.223029 22.231976
31.117981 22.162879 22.231976
9.473978 15.596227 -1.408697
9.473978 15.596227 26.383303
35.322997 15.596227 -1.408697
35.322997 15.596227 26.383303
8.708633 13.854954 21.763856
34.557653 13.854954 21.763856
7.598759 15.359842 -3.709874
7.598759 15.359842 24.082126
33.447779 15.359842 -3.709874
33.447779 15.359842 24.082126
8.235216 14.125109 -2.149701
8.235216 14.125109 25.642299
34.084235 14.125109 -2.149701
34.084235 14.125109 25.642299
7.252136 13.558736 23.166240
33.101156 13.558736 23.166240
8.157752 12.552683 -0.560971
8.157752 12.552683 27.231029
34.006772 12.552683 -0.560971
34.006772 12.552683 27.231029
9.490334 14.997219 23.327156
35.339353 14.997219 23.327156
10.443056 14.492492 20.848179
36.292076 14.492492 20.848179
10.895407 15.715213 -2.875697
10.895407 15.715213 24.916303
36.744426 15.715213 -2.875697
36.744426 15.715213 24.916303
8.050586 16.770221 -2.311033
8.050586 16.770221 25.480967
33.899605 16.770221 -2.311033
33.899605 16.770221 25.480967
8.045352 15.643368 21.006594
33.894371 15.643368 21.006594
6.785392 16.521597 22.629924
32.634412 16.521597 22.629924
9.444013 0.640484 21.748868
22.368523 23.026391 21.748868
10.282516 14.399804 20.848616
36.131536 14.399804 20.848616
8.730485 -1.075859 -3.711314
8.730485 -1.075859 24.080686
21.654995 21.310049 -3.711314
21.654995 21.310049 24.080686
9.498708 0.078417 -2.141552
9.498708 0.078417 25.650448
22.423218 22.464325 -2.141552
22.423218 22.464325 25.650448
10.441617 -0.429709 23.163967
23.366127 21.956199 23.163967
10.921446 0.717768 -0.519472
10.921446 0.717768 27.272528
23.845956 23.103676 -0.519472
23.845956 23.103676 27.272528
8.042866 0.713915 23.326342
20.967375 23.099823 23.326342
8.001255 1.792720 20.849658
20.925765 24.178628 20.849658
6.789187 1.588518 -2.830238
6.789187 1.588518 24.961762
19.713697 23.974425 -2.830238
19.713697 23.974425 24.961762
7.308925 -1.395874 -2.302259
7.308925 -1.395874 25.489741
20.233435 20.990034 -2.302259
20.233435 20.990034 25.489741
8.210485 -0.848312 21.011616
21.134995 21.537595 21.011616
8.149640 -2.382890 22.636614
21.074149 20.003018 22.636614
17.092103 1.092177 -3.241741
17.092103 1.092177 24.550259
30.016612 23.478084 -3.241741
30.016612 23.478084 24.550259
16.339974 -0.612154 -0.923680
16.339974 -0.612154 26.868320
29.264484 21.773754 -0.923680
29.264484 21.773754 26.868320
18.193471 -0.408405 22.230530
31.117981 21.977503 22.230530
15.362782 0.498834 -2.327732
15.362782 0.498834 25.464268
28.287292 22.884742 -2.327732
28.287292 22.884742 25.464268
16.306345 -0.072978 22.988418
29.230855 22.312930 22.988418
14.909385 -0.717995 21.355708
27.833895 21.667913 21.355708
17.726073 -0.713462 -2.482602
17.726073 -0.713462 25.309398
30.650583 21.672446 -2.482602
30.650583 21.672446 25.309398
17.762581 -1.792493 -0.009462
17.762581 -1.792493 27.782538
30.687090 20.593414 -0.009462
30.687090 20.593414 27.782538
18.980668 -1.589198 -4.115938
18.980668 -1.589198 23.676062
31.905178 20.796710 -4.115938
31.905178 20.796710 23.676062
18.522691 1.378423 23.146624
31.447201 23.764330 23.146624
17.563295 0.856698 -0.168293
17.563295 0.856698 27.623707
30.487805 23.242606 -0.168293
30.487805 23.242606 27.623707
17.768992 2.372011 -1.809341
17.768992 2.372011 25.982659
30.693502 24.757919 -1.809341
30.693502 24.757919 25.982659
16.373341 14.252480 -3.239777
16.373341 14.252480 24.552223
18.575424 13.248693 22.556410
17.112908 15.967237 22.243541
15.383457 15.349643 23.148796
16.328459 14.783497 -0.167372
16.328459 14.783497 27.624628
14.943668 14.135081 -1.803626
14.943668 14.135081 25.988374
17.606083 15.718613 -2.484391
17.606083 15.718613 25.307609
18.519420 16.290198 -0.004580
18.519420 16.290198 27.787420
17.691136 17.286960 -4.084376
17.691136 17.286960 23.707624
17.759048 14.157745 22.989757
17.792153 13.086419 -2.321182
17.792153 13.086419 25.470818
19.016128 13.267731 21.360173
20.535045 7.891376 21.772435
21.670174 6.388075 -1.389070
21.670174 6.388075 26.402930
22.412619 8.092405 -3.712759
22.412619 8.092405 24.079241
21.160642 6.638285 23.336569
20.178216 6.102962 20.856133
21.005322 5.096455 -2.830641
21.005322 5.096455 24.961359
23.383137 7.023346 -2.296410
23.383137 7.023346 25.495590
22.423218 7.536005 21.026011
23.847526 8.180342 22.642672
21.039082 8.181475 -2.144665
21.039082 8.181475 25.647335
21.004406 9.263226 23.174194
19.787889 9.054038 -0.509037
19.787889 9.054038 27.282963
LINES 2390 7170
2 0 4
2 0 215
2 0 219
2 0 225
2 1 5
2 1 216
2 1 220
2 1 226
2 2 6
2 2 217
2 2 221
2 2 227
2 3 7
2 3 218
2 3 222
2 3 228
2 4 8
2 4 18
2 4 225
2 5 9
2 5 19
2 5 226
2 6 10
2 6 227
2 7 11
2 7 228
2 8 917
2 9 918
2 12 13
2 12 411
2 12 423
2 14 18
2 14 28
2 15 19
2 15 29
2 16 20
2 16 30
2 17 21
2 17 31
2 18 22
2 19 23
2 20 24
2 21 25
2 26 423
2 26 600
2 27 424
2 27 601
2 28 314
2 28 917
2 28 929
2 29 315
2 29 918
2 29 930
2 30 316
2 30 931
2 31 317
2 31 932
2 32 223
2 32 233
2 32 427
2 32 556
2 33 224
2 33 234
2 33 428
2 33 557
2 34 38
2 34 239
2 34 935
2 34 951
2 35 39
2 35 240
2 35 936
2 35 952
2 36 40
2 36 241
2 36 937
2 36 953
2 37 41
2 37 242
2 37 938
2 37 954
2 38 42
2 38 239
2 39 43
2 39 240
2 40 44
2 40 241
2 41 45
2 41 242
2 42 46
2 42 62
2 43 47
2 43 63
2 44 48
2 44 64
2 45 49
2 45 65
2 50 62
2 50 252
2 50 262
2 50 951
2 50 1172
2 51 63
2 51 253
2 51 263
2 51 952
2 51 1173
2 52 64
2 52 254
2 52 264
2 52 953
2 52 1174
2 53 65
2 53 255
2 53 265
2 53 954
2 53 1175
2 54 56
2 54 266
2 54 427
2 54 435
2 55 57
2 55 267
2 55 428
2 55 436
2 56 266
2 57 267
2 58 62
2 58 256
2 58 260
2 58 262
2 59 63
2 59 257
2 59 263
2 60 64
2 60 258
2 60 261
2 60 264
2 61 65
2 61 259
2 61 265
2 62 252
2 62 262
2 63 253
2 63 263
2 64 254
2 64 264
2 65 255
2 65 265
2 66 68
2 66 199
2 66 370
2 66 385
2 67 69
2 67 200
2 67 371
2 67 386
2 68 70
2 68 75
2 68 203
2 68 211
2 68 213
2 69 76
2 69 204
2 69 212
2 69 214
2 70 71
2 70 202
2 70 203
2 70 213
2 71 72
2 71 80
2 71 201
2 71 202
2 71 203
2 71 207
2 71 208
2 71 213
2 72 201
2 72 208
2 73 75
2 73 80
2 73 207
2 73 213
2 73 390
2 73 403
2 73 404
2 74 76
2 74 214
2 74 391
2 74 405
2 75 77
2 75 211
2 75 213
2 75 390
2 75 404
2 76 78
2 76 212
2 76 214
2 76 391
2 76 405
2 77 211
2 77 404
2 78 212
2 78 405
2 79 80
2 79 207
2 79 208
2 79 406
2 79 537
2 79 646
2 80 207
2 80 208
2 80 213
2 80 406
2 81 85
2 81 268
2 81 276
2 82 86
2 82 269
2 82 277
2 83 87
2 83 270
2 83 278
2 84 88
2 84 271
2 84 279
2 85 89
2 85 97
2 86 90
2 86 98
2 87 91
2 88 92
2 89 252
2 89 272
2 89 294
2 89 991
2 90 253
2 90 273
2 90 295
2 90 992
2 91 254
2 91 274
2 91 296
2 92 255
2 92 275
2 92 297
2 93 94
2 93 459
2 93 467
2 95 97
2 95 102
2 95 374
2 96 98
2 96 103
2 96 375
2 97 99
2 98 100
2 101 376
2 101 377
2 101 467
2 102 991
2 102 999
2 103 992
2 103 1000
2 104 108
2 104 256
2 104 280
2 105 257
2 106 109
2 106 258
2 106 281
2 107 259
2 108 110
2 108 280
2 109 111
2 109 118
2 109 281
2 111 474
2 112 114
2 112 1012
2 112 1028
2 113 115
2 113 1013
2 113 1029
2 116 125
2 117 118
2 117 126
2 118 119
2 121 246
2 121 338
2 121 1026
2 121 1248
2 122 247
2 122 339
2 122 1027
2 122 1249
2 123 248
2 123 340
2 123 1028
2 123 1250
2 124 249
2 124 341
2 124 1029
2 124 1251
2 125 354
2 125 480
2 126 355
2 126 474
2 126 481
2 127 131
2 127 298
2 127 302
2 127 304
2 128 299
2 128 305
2 129 132
2 129 300
2 129 303
2 129 306
2 130 301
2 130 307
2 131 133
2 131 145
2 132 134
2 132 146
2 133 308
2 133 490
2 134 309
2 134 491
2 135 139
2 135 1038
2 135 1060
2 136 140
2 136 1039
2 136 1061
2 137 141
2 137 1040
2 137 1062
2 138 142
2 138 1041
2 138 1063
2 143 145
2 143 155
2 143 336
2 143 342
2 144 146
2 144 156
2 144 337
2 144 343
2 145 147
2 146 149
2 151 348
2 151 1060
2 151 1230
2 152 349
2 152 1061
2 152 1231
2 153 350
2 153 1062
2 153 1232
2 154 351
2 154 1063
2 154 1233
2 155 336
2 155 490
2 155 500
2 155 620
2 156 337
2 156 491
2 156 501
2 156 621
2 157 161
2 157 298
2 157 322
2 158 299
2 159 162
2 159 300
2 159 323
2 160 301
2 161 163
2 162 164
2 162 170
2 164 510
2 164 559
2 165 167
2 165 244
2 165 1074
2 165 1085
2 166 168
2 166 245
2 166 1075
2 166 1086
2 167 244
2 168 245
2 169 170
2 169 175
2 169 243
2 169 378
2 169 379
2 170 171
2 171 380
2 172 381
2 173 372
2 173 1085
2 173 1151
2 173 1277
2 174 373
2 174 1086
2 174 1152
2 174 1278
2 175 379
2 175 510
2 175 515
2 175 559
2 175 636
2 176 180
2 176 246
2 176 332
2 176 338
2 176 360
2 177 181
2 177 247
2 177 333
2 177 339
2 177 361
2 178 182
2 178 248
2 178 334
2 178 340
2 178 362
2 179 183
2 179 249
2 179 335
2 179 341
2 179 363
2 180 184
2 180 192
2 180 360
2 181 185
2 181 193
2 181 361
2 182 186
2 182 362
2 183 187
2 183 363
2 184 1095
2 185 1096
2 188 189
2 188 521
2 188 529
2 189 366
2 190 192
2 190 197
2 191 193
2 191 198
2 192 194
2 193 195
2 196 389
2 196 529
2 196 650
2 197 394
2 197 1095
2 197 1103
2 198 395
2 198 1096
2 198 1104
2 199 370
2 199 385
2 199 1107
2 200 371
2 200 386
2 200 1108
2 201 202
2 201 208
2 201 530
2 202 203
2 202 243
2 202 384
2 203 205
2 203 213
2 203 384
2 204 206
2 204 214
2 207 208
2 207 213
2 207 406
2 208 406
2 208 537
2 209 387
2 209 979
2 209 1117
2 209 1301
2 210 388
2 210 980
2 210 1118
2 210 1302
2 211 213
2 211 404
2 212 214
2 212 405
2 215 219
2 215 223
2 215 225
2 215 231
2 215 233
2 215 235
2 216 220
2 216 226
2 216 236
2 217 221
2 217 224
2 217 227
2 217 232
2 217 234
2 217 237
2 218 222
2 218 228
2 218 238
2 219 225
2 219 235
2 219 1129
2 219 1135
2 220 226
2 220 236
2 220 1130
2 220 1136
2 221 227
2 221 237
2 221 1131
2 221 1137
2 222 228
2 222 238
2 222 1132
2 222 1138
2 223 229
2 223 233
2 223 542
2 223 556
2 224 230
2 224 234
2 224 543
2 224 557
2 229 542
2 230 543
2 239 935
2 239 1129
2 240 936
2 240 1130
2 241 937
2 241 1131
2 242 938
2 242 1132
2 243 368
2 243 376
2 243 378
2 243 379
2 243 384
2 243 515
2 243 636
2 243 645
2 244 1074
2 244 1085
2 245 1075
2 245 1086
2 246 332
2 246 338
2 246 344
2 246 356
2 246 360
2 246 1230
2 246 1248
2 246 1258
2 247 333
2 247 339
2 247 345
2 247 357
2 247 361
2 247 1231
2 247 1249
2 247 1259
2 248 334
2 248 340
2 248 346
2 248 358
2 248 362
2 248 1232
2 248 1250
2 248 1260
2 249 335
2 249 341
2 249 347
2 249 359
2 249 363
2 249 1233
2 249 1251
2 249 1261
2 250 256
2 250 260
2 250 276
2 250 280
2 250 564
2 250 576
2 250 582
2 250 588
2 251 258
2 251 261
2 251 278
2 251 281
2 251 565
2 251 577
2 251 583
2 251 589
2 252 256
2 252 262
2 252 268
2 252 272
2 252 282
2 252 294
2 252 1156
2 252 1172
2 253 257
2 253 263
2 253 269
2 253 273
2 253 283
2 253 295
2 253 1157
2 253 1173
2 254 258
2 254 264
2 254 270
2 254 274
2 254 284
2 254 296
2 254 1158
2 254 1174
2 255 259
2 255 265
2 255 271
2 255 275
2 255 285
2 255 297
2 255 1159
2 255 1175
2 256 260
2 256 262
2 256 268
2 256 280
2 256 286
2 257 263
2 257 269
2 257 287
2 258 261
2 258 264
2 258 270
2 258 281
2 258 288
2 259 265
2 259 271
2 259 289
2 266 435
2 266 564
2 267 436
2 267 565
2 272 294
2 272 1156
2 273 295
2 273 1157
2 274 296
2 274 1158
2 275 297
2 275 1159
2 282 1156
2 283 1157
2 284 1158
2 285 1159
2 290 298
2 290 304
2 290 310
2 290 314
2 290 324
2 290 1206
2 291 299
2 291 305
2 291 311
2 291 315
2 291 325
2 291 1207
2 292 300
2 292 306
2 292 312
2 292 316
2 292 326
2 292 1208
2 293 301
2 293 307
2 293 313
2 293 317
2 293 327
2 293 1209
2 294 1156
2 295 1157
2 296 1158
2 297 1159
2 298 302
2 298 304
2 298 310
2 298 322
2 298 328
2 299 305
2 299 311
2 299 329
2 300 303
2 300 306
2 300 312
2 300 323
2 300 330
2 301 307
2 301 313
2 301 331
2 308 586
2 309 587
2 314 929
2 315 930
2 316 931
2 317 932
2 332 336
2 332 338
2 332 342
2 332 344
2 332 352
2 332 360
2 332 366
2 333 339
2 333 345
2 333 361
2 334 337
2 334 340
2 334 343
2 334 346
2 334 353
2 334 362
2 334 367
2 335 341
2 335 347
2 335 363
2 336 342
2 336 352
2 336 354
2 336 364
2 336 500
2 336 560
2 336 614
2 336 620
2 337 343
2 337 353
2 337 355
2 337 365
2 337 501
2 337 561
2 337 615
2 337 621
2 338 344
2 338 356
2 338 360
2 338 1230
2 338 1248
2 338 1258
2 339 345
2 339 357
2 339 361
2 339 1231
2 339 1249
2 339 1259
2 340 346
2 340 358
2 340 362
2 340 1232
2 340 1250
2 340 1260
2 341 347
2 341 359
2 341 363
2 341 1233
2 341 1251
2 341 1261
2 348 1060
2 348 1230
2 349 1061
2 349 1231
2 350 1062
2 350 1232
2 351 1063
2 351 1233
2 354 480
2 354 560
2 354 614
2 355 481
2 355 561
2 355 615
2 364 560
2 364 614
2 365 561
2 365 615
2 368 372
2 368 374
2 368 377
2 368 378
2 368 382
2 368 384
2 369 373
2 369 375
2 369 383
2 370 382
2 370 385
2 371 383
2 371 386
2 372 374
2 372 380
2 372 382
2 372 1085
2 372 1151
2 372 1271
2 372 1277
2 373 375
2 373 381
2 373 383
2 373 1086
2 373 1152
2 373 1272
2 373 1278
2 376 636
2 379 515
2 379 636
2 385 1151
2 386 1152
2 387 390
2 387 392
2 387 394
2 387 399
2 387 404
2 387 979
2 387 1286
2 387 1301
2 388 391
2 388 393
2 388 395
2 388 400
2 388 405
2 388 980
2 388 1287
2 388 1302
2 389 390
2 389 396
2 389 398
2 389 403
2 389 646
2 389 650
2 389 653
2 390 392
2 390 398
2 390 401
2 390 403
2 390 404
2 391 393
2 391 402
2 391 405
2 394 1103
2 394 1286
2 395 1104
2 395 1287
2 399 1286
2 400 1287
2 406 537
2 406 646
2 407 409
2 407 540
2 407 542
2 407 546
2 408 410
2 408 541
2 408 543
2 408 547
2 409 411
2 409 417
2 409 546
2 410 412
2 410 547
2 413 414
2 413 662
2 413 674
2 415 417
2 415 423
2 416 418
2 416 424
2 417 419
2 418 420
2 421 674
2 421 851
2 422 675
2 422 852
2 423 600
2 424 601
2 425 544
2 425 552
2 425 678
2 425 807
2 426 545
2 426 553
2 426 679
2 426 808
2 427 429
2 427 556
2 428 430
2 428 557
2 429 431
2 429 556
2 430 432
2 430 557
2 431 433
2 431 443
2 432 434
2 432 444
2 435 443
2 435 564
2 435 570
2 436 444
2 436 565
2 436 571
2 437 439
2 437 572
2 437 678
2 437 686
2 438 440
2 438 573
2 438 679
2 438 687
2 439 572
2 440 573
2 441 443
2 441 566
2 441 568
2 441 570
2 442 444
2 442 567
2 442 569
2 442 571
2 443 564
2 443 570
2 444 565
2 444 571
2 445 446
2 445 530
2 445 635
2 445 645
2 446 447
2 446 451
2 446 533
2 446 538
2 446 539
2 447 448
2 447 532
2 447 533
2 447 539
2 448 449
2 448 454
2 448 531
2 448 532
2 448 533
2 448 535
2 448 536
2 448 539
2 449 531
2 449 536
2 450 451
2 450 454
2 450 535
2 450 539
2 450 648
2 450 655
2 450 656
2 451 452
2 451 538
2 451 539
2 451 648
2 451 656
2 452 538
2 452 656
2 453 454
2 453 535
2 453 536
2 453 657
2 453 788
2 453 897
2 454 535
2 454 536
2 454 539
2 454 657
2 455 457
2 455 574
2 455 578
2 456 458
2 456 575
2 456 579
2 457 459
2 457 464
2 458 460
2 459 564
2 459 576
2 459 588
2 460 565
2 460 577
2 460 589
2 461 462
2 461 710
2 461 718
2 463 464
2 463 467
2 463 637
2 464 465
2 466 638
2 466 639
2 466 718
2 468 470
2 468 566
2 468 580
2 469 471
2 469 567
2 469 581
2 470 472
2 470 580
2 471 473
2 471 478
2 471 581
2 473 725
2 474 475
2 476 482
2 477 478
2 477 483
2 478 479
2 480 560
2 480 614
2 481 561
2 481 615
2 482 624
2 482 731
2 483 625
2 483 725
2 483 732
2 484 486
2 484 590
2 484 592
2 484 594
2 485 487
2 485 591
2 485 593
2 485 595
2 486 488
2 486 496
2 487 489
2 487 497
2 488 596
2 488 741
2 489 597
2 489 742
2 490 492
2 491 493
2 494 496
2 494 502
2 494 612
2 494 616
2 495 497
2 495 503
2 495 613
2 495 617
2 496 498
2 497 499
2 500 620
2 501 621
2 502 612
2 502 741
2 502 751
2 502 871
2 503 613
2 503 742
2 503 752
2 503 872
2 504 506
2 504 590
2 504 604
2 505 507
2 505 591
2 505 605
2 506 508
2 507 509
2 507 513
2 509 761
2 509 810
2 510 511
2 510 559
2 511 559
2 512 513
2 512 516
2 512 558
2 512 640
2 512 641
2 513 514
2 514 642
2 515 636
2 516 641
2 516 761
2 516 766
2 516 810
2 516 887
2 517 519
2 517 560
2 517 610
2 517 614
2 517 628
2 518 520
2 518 561
2 518 611
2 518 615
2 518 629
2 519 521
2 519 526
2 519 628
2 520 522
2 520 629
2 523 524
2 523 772
2 523 780
2 524 632
2 525 526
2 525 529
2 526 527
2 528 647
2 528 780
2 528 901
2 529 650
2 530 635
2 530 645
2 531 532
2 531 536
2 531 781
2 532 533
2 532 558
2 532 644
2 533 534
2 533 539
2 533 644
2 535 536
2 535 539
2 535 657
2 536 657
2 536 788
2 537 646
2 538 539
2 538 656
2 540 542
2 540 544
2 540 546
2 540 550
2 540 552
2 540 554
2 541 543
2 541 545
2 541 547
2 541 551
2 541 553
2 541 555
2 542 546
2 542 554
2 543 547
2 543 555
2 544 548
2 544 552
2 544 793
2 544 807
2 545 549
2 545 553
2 545 794
2 545 808
2 548 793
2 549 794
2 558 634
2 558 638
2 558 640
2 558 641
2 558 644
2 558 766
2 558 887
2 558 896
2 560 610
2 560 614
2 560 618
2 560 626
2 560 628
2 561 611
2 561 615
2 561 619
2 561 627
2 561 629
2 562 566
2 562 568
2 562 578
2 562 580
2 562 815
2 562 827
2 562 833
2 562 839
2 563 567
2 563 569
2 563 579
2 563 581
2 563 816
2 563 828
2 563 834
2 563 840
2 564 566
2 564 570
2 564 574
2 564 576
2 564 582
2 564 588
2 565 567
2 565 571
2 565 575
2 565 577
2 565 583
2 565 589
2 566 568
2 566 570
2 566 574
2 566 580
2 566 584
2 567 569
2 567 571
2 567 575
2 567 581
2 567 585
2 572 686
2 572 815
2 573 687
2 573 816
2 576 588
2 577 589
2 586 590
2 586 594
2 586 598
2 586 600
2 586 606
2 587 591
2 587 595
2 587 599
2 587 601
2 587 607
2 590 592
2 590 594
2 590 598
2 590 604
2 590 608
2 591 593
2 591 595
2 591 599
2 591 605
2 591 609
2 596 837
2 597 838
2 610 612
2 610 614
2 610 616
2 610 618
2 610 622
2 610 628
2 610 632
2 611 613
2 611 615
2 611 617
2 611 619
2 611 623
2 611 629
2 611 633
2 612 616
2 612 622
2 612 624
2 612 630
2 612 751
2 612 811
2 612 865
2 612 871
2 613 617
2 613 623
2 613 625
2 613 631
2 613 752
2 613 812
2 613 866
2 613 872
2 614 618
2 614 626
2 614 628
2 615 619
2 615 627
2 615 629
2 624 731
2 624 811
2 624 865
2 625 732
2 625 812
2 625 866
2 630 811
2 630 865
2 631 812
2 631 866
2 634 636
2 634 637
2 634 639
2 634 640
2 634 643
2 634 644
2 635 643
2 635 645
2 636 637
2 636 642
2 636 643
2 638 887
2 641 766
2 641 887
2 646 648
2 646 649
2 646 650
2 646 653
2 646 656
2 647 648
2 647 651
2 647 652
2 647 655
2 647 897
2 647 901
2 647 904
2 648 649
2 648 652
2 648 654
2 648 655
2 648 656
2 657 788
2 657 897
2 658 660
2 658 791
2 658 793
2 658 797
2 659 661
2 659 792
2 659 794
2 659 798
2 660 662
2 660 668
2 660 797
2 661 663
2 661 798
2 664 665
2 664 915
2 664 933
2 666 668
2 666 674
2 667 669
2 667 675
2 668 670
2 669 671
2 672 933
2 672 1212
2 673 934
2 673 1213
2 674 851
2 675 852
2 676 795
2 676 803
2 676 939
2 676 1149
2 677 796
2 677 804
2 677 940
2 677 1150
2 678 680
2 678 807
2 679 681
2 679 808
2 680 682
2 680 807
2 681 683
2 681 808
2 682 684
2 682 694
2 683 685
2 683 695
2 686 694
2 686 815
2 686 821
2 687 695
2 687 816
2 687 822
2 688 690
2 688 823
2 688 939
2 688 949
2 689 691
2 689 824
2 689 940
2 689 950
2 690 823
2 691 824
2 692 694
2 692 817
2 692 819
2 692 821
2 693 695
2 693 818
2 693 820
2 693 822
2 694 815
2 694 821
2 695 816
2 695 822
2 696 697
2 696 781
2 696 886
2 696 896
2 697 698
2 697 702
2 697 784
2 697 789
2 697 790
2 698 699
2 698 783
2 698 784
2 698 790
2 699 700
2 699 705
2 699 782
2 699 783
2 699 784
2 699 786
2 699 787
2 699 790
2 700 782
2 700 787
2 701 702
2 701 705
2 701 786
2 701 790
2 701 899
2 701 906
2 701 907
2 702 703
2 702 789
2 702 790
2 702 899
2 702 907
2 703 789
2 703 907
2 704 705
2 704 786
2 704 787
2 704 908
2 704 1119
2 704 1285
2 705 786
2 705 787
2 705 790
2 705 908
2 706 708
2 706 825
2 706 829
2 707 709
2 707 826
2 707 830
2 708 710
2 708 715
2 709 711
2 710 815
2 710 827
2 710 839
2 711 816
2 711 828
2 711 840
2 712 713
2 712 989
2 712 1001
2 714 715
2 714 718
2 714 888
2 715 716
2 717 889
2 717 890
2 717 1001
2 719 721
2 719 817
2 719 831
2 720 722
2 720 818
2 720 832
2 721 723
2 721 831
2 722 724
2 722 729
2 722 832
2 724 1014
2 725 726
2 727 733
2 728 729
2 728 734
2 729 730
2 731 811
2 731 865
2 732 812
2 732 866
2 733 875
2 733 1024
2 734 876
2 734 1014
2 734 1025
2 735 737
2 735 841
2 735 843
2 735 845
2 736 738
2 736 842
2 736 844
2 736 846
2 737 739
2 737 747
2 738 740
2 738 748
2 739 847
2 739 1042
2 740 848
2 740 1043
2 741 743
2 742 744
2 745 747
2 745 753
2 745 863
2 745 867
2 746 748
2 746 754
2 746 864
2 746 868
2 747 749
2 748 750
2 751 871
2 752 872
2 753 863
2 753 1042
2 753 1058
2 753 1242
2 754 864
2 754 1043
2 754 1059
2 754 1243
2 755 757
2 755 841
2 755 855
2 756 758
2 756 842
2 756 856
2 757 759
2 758 760
2 758 764
2 760 1076
2 760 1153
2 761 762
2 761 810
2 762 810
2 763 764
2 763 767
2 763 809
2 763 891
2 763 892
2 764 765
2 765 893
2 766 887
2 767 892
2 767 1076
2 767 1084
2 767 1153
2 767 1269
2 768 770
2 768 811
2 768 861
2 768 865
2 768 879
2 769 771
2 769 812
2 769 862
2 769 866
2 769 880
2 770 772
2 770 777
2 770 879
2 771 773
2 771 880
2 774 775
2 774 1093
2 774 1105
2 775 883
2 776 777
2 776 780
2 777 778
2 779 898
2 779 1105
2 779 1291
2 780 901
2 781 886
2 781 896
2 782 783
2 782 787
2 782 1106
2 783 784
2 783 809
2 783 895
2 784 785
2 784 790
2 784 895
2 786 787
2 786 790
2 786 908
2 787 908
2 787 1119
2 788 897
2 789 790
2 789 907
2 791 793
2 791 795
2 791 797
2 791 801
2 791 803
2 791 805
2 792 794
2 792 796
2 792 798
2 792 802
2 792 804
2 792 806
2 793 797
2 793 805
2 794 798
2 794 806
2 795 799
2 795 803
2 795 1127
2 795 1149
2 796 800
2 796 804
2 796 1128
2 796 1150
2 799 1127
2 800 1128
2 809 885
2 809 889
2 809 891
2 809 892
2 809 895
2 809 1084
2 809 1269
2 809 1284
2 811 861
2 811 865
2 811 869
2 811 877
2 811 879
2 812 862
2 812 866
2 812 870
2 812 878
2 812 880
2 813 817
2 813 819
2 813 829
2 813 831
2 813 1160
2 813 1178
2 813 1188
2 813 1194
2 814 818
2 814 820
2 814 830
2 814 832
2 814 1161
2 814 1179
2 814 1189
2 814 1195
2 815 817
2 815 821
2 815 825
2 815 827
2 815 833
2 815 839
2 816 818
2 816 822
2 816 826
2 816 828
2 816 834
2 816 840
2 817 819
2 817 821
2 817 825
2 817 831
2 817 835
2 818 820
2 818 822
2 818 826
2 818 832
2 818 836
2 823 949
2 823 1160
2 824 950
2 824 1161
2 827 839
2 828 840
2 837 841
2 837 845
2 837 849
2 837 851
2 837 857
2 838 842
2 838 846
2 838 850
2 838 852
2 838 858
2 841 843
2 841 845
2 841 849
2 841 855
2 841 859
2 842 844
2 842 846
2 842 850
2 842 856
2 842 860
2 847 1192
2 848 1193
2 861 863
2 861 865
2 861 867
2 861 869
2 861 873
2 861 879
2 861 883
2 862 864
2 862 866
2 862 868
2 862 870
2 862 874
2 862 880
2 862 884
2 863 867
2 863 873
2 863 875
2 863 881
2 863 1058
2 863 1154
2 863 1234
2 863 1242
2 864 868
2 864 874
2 864 876
2 864 882
2 864 1059
2 864 1155
2 864 1235
2 864 1243
2 865 869
2 865 877
2 865 879
2 866 870
2 866 878
2 866 880
2 875 1024
2 875 1154
2 875 1234
2 876 1025
2 876 1155
2 876 1235
2 881 1154
2 881 1234
2 882 1155
2 882 1235
2 885 887
2 885 888
2 885 890
2 885 891
2 885 894
2 885 895
2 886 894
2 886 896
2 887 888
2 887 893
2 887 894
2 889 1269
2 892 1084
2 892 1269
2 897 899
2 897 900
2 897 901
2 897 904
2 897 907
2 898 899
2 898 902
2 898 903
2 898 906
2 898 1285
2 898 1291
2 898 1296
2 899 900
2 899 903
2 899 905
2 899 906
2 899 907
2 908 1119
2 908 1285
2 909 1123
2 910 913
2 910 1124
2 910 1127
2 910 1133
2 911 1125
2 912 914
2 912 1126
2 912 1128
2 912 1134
2 913 915
2 913 923
2 913 1133
2 914 916
2 914 1134
2 917 919
2 918 920
2 921 923
2 921 933
2 922 924
2 922 934
2 923 926
2 924 928
2 933 1212
2 934 1213
2 935 1129
2 935 1143
2 936 1130
2 936 1144
2 937 1131
2 937 1145
2 938 1132
2 938 1146
2 939 941
2 939 1149
2 940 942
2 940 1150
2 941 943
2 941 1149
2 942 944
2 942 1150
2 943 946
2 943 963
2 944 948
2 944 964
2 949 963
2 949 1160
2 949 1170
2 950 964
2 950 1161
2 950 1171
2 951 955
2 951 1172
2 952 956
2 952 1173
2 953 957
2 953 1174
2 954 958
2 954 1175
2 955 1172
2 956 1173
2 957 1174
2 958 1175
2 959 1162
2 959 1166
2 960 963
2 960 1163
2 960 1167
2 960 1170
2 961 1164
2 961 1168
2 962 964
2 962 1165
2 962 1169
2 962 1171
2 963 1160
2 963 1170
2 964 1161
2 964 1171
2 965 967
2 965 1106
2 965 1268
2 965 1284
2 966 968
2 966 976
2 966 1111
2 966 1121
2 967 969
2 967 977
2 967 1112
2 967 1120
2 967 1122
2 968 970
2 968 1109
2 968 1111
2 968 1121
2 969 971
2 969 1110
2 969 1112
2 969 1122
2 970 972
2 970 981
2 970 1107
2 970 1109
2 970 1111
2 970 1115
2 970 1117
2 970 1121
2 971 973
2 971 982
2 971 1108
2 971 1110
2 971 1112
2 971 1116
2 971 1118
2 971 1122
2 972 1107
2 972 1117
2 973 1108
2 973 1118
2 974 976
2 974 981
2 974 1115
2 974 1121
2 974 1288
2 974 1298
2 975 977
2 975 982
2 975 1116
2 975 1122
2 975 1289
2 975 1299
2 975 1300
2 976 1121
2 976 1288
2 977 978
2 977 1120
2 977 1122
2 977 1289
2 977 1300
2 978 1120
2 978 1300
2 979 981
2 979 1115
2 979 1117
2 979 1301
2 980 982
2 980 1116
2 980 1118
2 980 1302
2 981 1115
2 981 1117
2 981 1121
2 981 1301
2 982 1116
2 982 1118
2 982 1122
2 982 1302
2 983 1180
2 984 987
2 984 1176
2 984 1181
2 985 1182
2 986 988
2 986 1177
2 986 1183
2 987 989
2 987 996
2 988 990
2 989 1160
2 989 1178
2 989 1194
2 990 1161
2 990 1179
2 990 1195
2 991 993
2 992 994
2 995 996
2 995 1001
2 995 1270
2 996 998
2 999 1271
2 999 1273
2 1000 1272
2 1000 1274
2 1002 1006
2 1002 1162
2 1002 1184
2 1003 1007
2 1003 1163
2 1003 1185
2 1004 1008
2 1004 1164
2 1004 1186
2 1005 1009
2 1005 1165
2 1005 1187
2 1006 1010
2 1006 1184
2 1007 1011
2 1007 1185
2 1008 1012
2 1008 1020
2 1008 1186
2 1009 1013
2 1009 1021
2 1009 1187
2 1014 1015
2 1016 1026
2 1017 1027
2 1018 1020
2 1018 1028
2 1019 1021
2 1019 1029
2 1020 1022
2 1021 1023
2 1024 1154
2 1024 1234
2 1025 1155
2 1025 1235
2 1026 1248
2 1027 1249
2 1028 1250
2 1029 1251
2 1030 1034
2 1030 1196
2 1030 1200
2 1031 1035
2 1031 1197
2 1031 1201
2 1031 1204
2 1032 1036
2 1032 1198
2 1032 1202
2 1033 1037
2 1033 1199
2 1033 1203
2 1033 1205
2 1034 1038
2 1034 1050
2 1035 1039
2 1035 1051
2 1036 1040
2 1036 1052
2 1037 1041
2 1037 1053
2 1038 1206
2 1039 1207
2 1040 1208
2 1041 1209
2 1042 1044
2 1043 1045
2 1046 1050
2 1046 1060
2 1046 1230
2 1046 1236
2 1047 1051
2 1047 1061
2 1047 1231
2 1047 1237
2 1048 1052
2 1048 1062
2 1048 1232
2 1048 1238
2 1049 1053
2 1049 1063
2 1049 1233
2 1049 1239
2 1050 1054
2 1051 1055
2 1052 1056
2 1053 1057
2 1058 1242
2 1059 1243
2 1060 1230
2 1061 1231
2 1062 1232
2 1063 1233
2 1064 1068
2 1064 1196
2 1064 1218
2 1065 1069
2 1065 1197
2 1065 1219
2 1066 1070
2 1066 1198
2 1066 1220
2 1067 1071
2 1067 1199
2 1067 1221
2 1068 1072
2 1069 1073
2 1070 1074
2 1070 1080
2 1071 1075
2 1071 1081
2 1076 1077
2 1076 1153
2 1077 1153
2 1078 1080
2 1078 1085
2 1078 1151
2 1078 1275
2 1078 1277
2 1079 1081
2 1079 1086
2 1079 1152
2 1079 1276
2 1079 1278
2 1080 1082
2 1081 1083
2 1082 1279
2 1083 1280
2 1084 1269
2 1085 1277
2 1086 1278
2 1087 1226
2 1088 1091
2 1088 1154
2 1088 1227
2 1088 1234
2 1088 1256
2 1089 1228
2 1090 1092
2 1090 1155
2 1090 1229
2 1090 1235
2 1090 1257
2 1091 1093
2 1091 1100
2 1091 1256
2 1092 1094
2 1092 1257
2 1095 1097
2 1096 1098
2 1097 1262
2 1098 1263
2 1099 1100
2 1099 1105
2 1100 1102
2 1103 1286
2 1104 1287
2 1105 1291
2 1106 1268
2 1106 1284
2 1107 1109
2 1107 1117
2 1108 1110
2 1108 1118
2 1109 1111
2 1109 1151
2 1109 1282
2 1110 1112
2 1110 1152
2 1110 1283
2 1111 1113
2 1111 1121
2 1111 1282
2 1112 1114
2 1112 1122
2 1112 1283
2 1115 1117
2 1115 1121
2 1115 1301
2 1116 1118
2 1116 1122
2 1116 1302
2 1117 1301
2 1118 1302
2 1119 1285
2 1120 1122
2 1120 1300
2 1123 1129
2 1123 1139
2 1123 1143
2 1124 1127
2 1124 1130
2 1124 1133
2 1124 1140
2 1124 1144
2 1124 1147
2 1125 1131
2 1125 1141
2 1125 1145
2 1126 1128
2 1126 1132
2 1126 1134
2 1126 1142
2 1126 1146
2 1126 1148
2 1127 1133
2 1127 1147
2 1128 1134
2 1128 1148
2 1129 1135
2 1129 1143
2 1130 1136
2 1130 1144
2 1131 1137
2 1131 1145
2 1132 1138
2 1132 1146
2 1151 1266
2 1151 1271
2 1151 1275
2 1151 1277
2 1151 1282
2 1152 1267
2 1152 1272
2 1152 1276
2 1152 1278
2 1152 1283
2 1154 1227
2 1154 1234
2 1154 1240
2 1154 1253
2 1154 1256
2 1155 1229
2 1155 1235
2 1155 1241
2 1155 1255
2 1155 1257
2 1156 1162
2 1156 1166
2 1156 1180
2 1156 1184
2 1157 1163
2 1157 1167
2 1157 1181
2 1157 1185
2 1158 1164
2 1158 1168
2 1158 1182
2 1158 1186
2 1159 1165
2 1159 1169
2 1159 1183
2 1159 1187
2 1160 1163
2 1160 1170
2 1160 1176
2 1160 1178
2 1160 1188
2 1160 1194
2 1161 1165
2 1161 1171
2 1161 1177
2 1161 1179
2 1161 1189
2 1161 1195
2 1162 1166
2 1162 1184
2 1163 1167
2 1163 1170
2 1163 1176
2 1163 1185
2 1163 1190
2 1164 1168
2 1164 1186
2 1165 1169
2 1165 1171
2 1165 1177
2 1165 1187
2 1165 1191
2 1178 1194
2 1179 1195
2 1192 1197
2 1192 1204
2 1192 1210
2 1192 1212
2 1192 1222
2 1193 1199
2 1193 1205
2 1193 1211
2 1193 1213
2 1193 1223
2 1196 1200
2 1196 1218
2 1197 1201
2 1197 1204
2 1197 1210
2 1197 1219
2 1197 1224
2 1198 1202
2 1198 1220
2 1199 1203
2 1199 1205
2 1199 1211
2 1199 1221
2 1199 1225
2 1226 1230
2 1226 1236
2 1226 1244
2 1226 1262
2 1227 1231
2 1227 1234
2 1227 1237
2 1227 1240
2 1227 1245
2 1227 1256
2 1227 1263
2 1228 1232
2 1228 1238
2 1228 1246
2 1228 1264
2 1229 1233
2 1229 1235
2 1229 1239
2 1229 1241
2 1229 1247
2 1229 1257
2 1229 1265
2 1230 1236
2 1230 1244
2 1230 1248
2 1230 1258
2 1231 1237
2 1231 1245
2 1231 1249
2 1231 1259
2 1232 1238
2 1232 1246
2 1232 1250
2 1232 1260
2 1233 1239
2 1233 1247
2 1233 1251
2 1233 1261
2 1234 1240
2 1234 1253
2 1234 1256
2 1235 1241
2 1235 1255
2 1235 1257
2 1266 1273
2 1266 1275
2 1266 1282
2 1267 1269
2 1267 1270
2 1267 1274
2 1267 1276
2 1267 1281
2 1267 1283
2 1268 1281
2 1268 1284
2 1269 1270
2 1269 1280
2 1269 1281
2 1285 1289
2 1285 1290
2 1285 1291
2 1285 1296
2 1285 1300
2 1286 1288
2 1286 1292
2 1286 1294
2 1286 1298
2 1287 1289
2 1287 1293
2 1287 1295
2 1287 1299
2 1288 1294
2 1288 1298
2 1289 1290
2 1289 1295
2 1289 1297
2 1289 1299
2 1289 1300
