# vtk DataFile Version 1.0
Cube
ASCII

DATASET POLYDATA
POINTS 654 float
4.685832 5.117068 3.035639
5.509957 4.397661 2.036047
5.636197 4.824829 0.673435
6.449824 4.077281 6.783843
6.564390 4.382488 5.746392
6.961383 2.440629 1.628207
6.170926 3.235081 2.467858
6.060939 2.930270 3.505585
7.913953 2.169869 6.212410
7.083599 2.866701 0.262758
5.804480 9.496703 6.117918
6.301713 10.358081 0.268416
6.165125 10.015523 1.653738
6.685405 10.895724 2.590186
6.597129 10.657003 3.647446
7.405769 12.494086 0.835419
6.913443 11.570094 6.853448
7.006260 11.808965 5.796940
7.770506 12.991955 3.322853
7.264530 12.152263 2.222550
19.849675 12.133258 1.742762
20.087877 11.465281 3.043906
19.641120 12.006307 4.294034
19.910340 11.280258 5.444144
19.579155 11.667981 6.404648
21.126373 9.530027 4.174953
20.804884 10.256830 3.021960
21.133563 9.865379 2.062470
20.897824 9.411266 6.724835
20.682458 10.074870 5.426756
10.391943 14.780517 2.945954
11.516314 14.686161 1.985330
11.335620 14.371377 0.598470
12.464422 14.327698 6.742557
12.353401 14.094052 5.686307
13.967364 14.817756 1.706075
12.810131 14.900716 2.490244
12.923131 15.138272 3.545081
14.893946 14.418848 6.298114
13.785799 14.498079 0.318355
33.093413 16.726380 3.864357
32.355753 17.498829 4.891533
32.265776 17.089874 6.262583
31.560030 17.905358 0.185954
31.479848 17.618509 1.231836
30.953010 19.486377 5.321553
31.707828 18.671898 4.468402
31.789904 18.962644 3.424078
30.144255 19.842366 0.779259
30.859757 19.073664 6.693375
23.678875 21.643155 3.716734
24.715441 21.644789 4.775715
24.404588 21.595589 6.174310
25.462643 21.586248 0.122307
25.253036 21.546199 1.188628
27.137654 21.755330 5.248593
26.055874 21.718610 4.360113
26.267905 21.754800 3.294461
27.847406 21.693771 0.762441
26.825188 21.710532 6.649051
19.597143 20.304842 3.869705
19.289827 19.281455 4.896421
19.673099 19.413581 6.271472
19.314276 18.395648 0.193780
19.590765 18.473815 1.242601
18.274410 17.069834 5.321400
18.607449 18.129706 4.468905
18.326622 18.051217 3.421595
18.347257 16.198685 0.782555
18.662568 17.201024 6.697280
18.553447 1.501443 3.019694
18.726659 2.591282 2.030674
18.259254 2.501663 0.678409
18.466257 3.594500 6.798620
18.118224 3.552344 5.769214
19.660735 4.842988 1.630337
19.401638 3.746156 2.461492
19.747007 3.792046 3.491297
19.346898 5.834183 6.235843
19.196247 4.750505 0.275116
18.256376 11.872743 0.890866
18.620933 11.439598 6.469416
18.195148 12.134581 5.290084
18.614355 11.641328 4.063973
18.307219 12.152566 3.154642
19.802048 9.738340 5.122703
19.404697 10.279073 6.351813
19.716145 9.768579 0.311711
19.742106 10.021664 2.576260
19.371451 10.432448 3.942142
5.297487 7.022439 3.713332
29.272727 6.835235 1.393395
30.028912 8.502170 6.020972
4.841211 5.655575 2.308238
4.833884 6.701291 6.775107
6.092273 5.812636 5.143648
5.601584 8.833291 4.627967
30.530201 8.264425 2.152742
30.612898 9.834132 0.559844
18.389341 14.570448 6.038272
19.810770 18.431709 0.179649
31.117981 22.162879 1.387976
9.473978 15.596227 5.539303
8.708633 13.854954 0.919856
33.447779 15.359842 3.238126
8.235216 14.125109 4.798299
33.101156 13.558736 2.322240
8.157752 12.552683 6.387029
9.490334 14.997219 2.483156
10.443056 14.492492 0.004179
10.443056 14.492492 27.796179
10.895407 15.715213 4.072303
33.899605 16.770221 4.636967
33.894371 15.643368 0.162594
32.634412 16.521597 1.785924
9.444013 0.640484 0.904868
10.282516 14.399804 0.004616
10.282516 14.399804 27.796616
21.654995 21.310049 3.236686
9.498708 0.078417 4.806448
23.366127 21.956199 2.319967
10.921446 0.717768 6.428528
8.042866 0.713915 2.482342
8.001255 1.792720 0.005658
8.001255 1.792720 27.797658
6.789187 1.588518 4.117762
20.233435 20.990034 4.645741
21.134995 21.537595 0.167616
21.074149 20.003018 1.792614
17.092103 1.092177 3.706259
29.264484 21.773754 6.024320
31.117981 21.977503 1.386530
15.362782 0.498834 4.620268
29.230855 22.312930 2.144418
27.833895 21.667913 0.511708
30.650583 21.672446 4.465398
30.687090 20.593414 6.938538
31.905178 20.796710 2.832062
18.522691 1.378423 2.302624
17.563295 0.856698 6.779707
17.768992 2.372011 5.138659
16.373341 14.252480 3.708223
18.575424 13.248693 1.712410
17.112908 15.967237 1.399541
15.383457 15.349643 2.304796
16.328459 14.783497 6.780628
14.943668 14.135081 5.144374
17.606083 15.718613 4.463609
18.519420 16.290198 6.943420
17.691136 17.286960 2.863624
17.759048 14.157745 2.145757
17.792153 13.086419 4.626818
19.016128 13.267731 0.516173
20.535045 7.891376 0.928435
21.670174 6.388075 5.558930
22.412619 8.092405 3.235241
21.160642 6.638285 2.492569
20.178216 6.102962 0.012133
20.178216 6.102962 27.804133
21.005322 5.096455 4.117359
23.383137 7.023346 4.651590
22.423218 7.536005 0.182011
23.847526 8.180342 1.798672
21.039082 8.181475 4.803335
21.004406 9.263226 2.330194
19.787889 9.054038 6.438963
4.685832 5.117068 9.983639
5.509957 4.397661 8.984047
5.636197 4.824829 7.621435
6.449824 4.077281 13.731843
6.564390 4.382488 12.694392
6.961383 2.440629 8.576207
6.170926 3.235081 9.415858
6.060939 2.930270 10.453585
7.913953 2.169869 13.160410
7.083599 2.866701 7.210758
5.804480 9.496703 13.065918
6.301713 10.358081 7.216416
6.165125 10.015523 8.601738
6.685405 10.895724 9.538186
6.597129 10.657003 10.595446
7.405769 12.494086 7.783419
6.913443 11.570094 13.801448
7.006260 11.808965 12.744940
7.770506 12.991955 10.270853
7.264530 12.152263 9.170550
19.849675 12.133258 8.690762
20.087877 11.465281 9.991906
19.641120 12.006307 11.242034
19.910340 11.280258 12.392144
19.579155 11.667981 13.352648
21.126373 9.530027 11.122953
20.804884 10.256830 9.969960
21.133563 9.865379 9.010470
20.897824 9.411266 13.672835
20.682458 10.074870 12.374756
10.391943 14.780517 9.893954
11.516314 14.686161 8.933330
11.335620 14.371377 7.546470
12.464422 14.327698 13.690557
12.353401 14.094052 12.634307
13.967364 14.817756 8.654075
12.810131 14.900716 9.438244
12.923131 15.138272 10.493081
14.893946 14.418848 13.246114
13.785799 14.498079 7.266355
33.093413 16.726380 10.812357
32.355753 17.498829 11.839533
32.265776 17.089874 13.210583
31.560030 17.905358 7.133954
31.479848 17.618509 8.179836
30.953010 19.486377 12.269553
31.707828 18.671898 11.416402
31.789904 18.962644 10.372078
30.144255 19.842366 7.727259
30.859757 19.073664 13.641375
23.678875 21.643155 10.664734
24.715441 21.644789 11.723715
24.404588 21.595589 13.122310
25.462643 21.586248 7.070307
25.253036 21.546199 8.136628
27.137654 21.755330 12.196593
26.055874 21.718610 11.308113
26.267905 21.754800 10.242461
27.847406 21.693771 7.710441
26.825188 21.710532 13.597051
19.597143 20.304842 10.817705
19.289827 19.281455 11.844421
19.673099 19.413581 13.219472
19.314276 18.395648 7.141780
19.590765 18.473815 8.190601
18.274410 17.069834 12.269400
18.607449 18.129706 11.416905
18.326622 18.051217 10.369595
18.347257 16.198685 7.730555
18.662568 17.201024 13.645280
18.553447 1.501443 9.967694
18.726659 2.591282 8.978674
18.259254 2.501663 7.626409
18.466257 3.594500 13.746620
18.118224 3.552344 12.717214
19.660735 4.842988 8.578337
19.401638 3.746156 9.409492
19.747007 3.792046 10.439297
19.346898 5.834183 13.183843
19.196247 4.750505 7.223116
18.256376 11.872743 7.838866
18.620933 11.439598 13.417416
18.195148 12.134581 12.238084
18.614355 11.641328 11.011973
18.307219 12.152566 10.102642
19.802048 9.738340 12.070703
19.404697 10.279073 13.299813
19.716145 9.768579 7.259711
19.742106 10.021664 9.524260
19.371451 10.432448 10.890142
5.297487 7.022439 10.661332
29.272727 6.835235 8.341395
30.028912 8.502170 12.968972
4.841211 5.655575 9.256238
4.833884 6.701291 13.723107
6.092273 5.812636 12.091648
5.601584 8.833291 11.575967
30.530201 8.264425 9.100742
30.612898 9.834132 7.507844
18.389341 14.570448 12.986272
19.810770 18.431709 7.127649
31.117981 22.162879 8.335976
9.473978 15.596227 12.487303
8.708633 13.854954 7.867856
33.447779 15.359842 10.186126
8.235216 14.125109 11.746299
33.101156 13.558736 9.270240
8.157752 12.552683 13.335029
9.490334 14.997219 9.431156
10.443056 14.492492 6.952179
10.895407 15.715213 11.020303
33.899605 16.770221 11.584967
33.894371 15.643368 7.110594
32.634412 16.521597 8.733924
9.444013 0.640484 7.852868
10.282516 14.399804 6.952616
21.654995 21.310049 10.184686
9.498708 0.078417 11.754448
23.366127 21.956199 9.267967
10.921446 0.717768 13.376528
8.042866 0.713915 9.430342
8.001255 1.792720 6.953658
6.789187 1.588518 11.065762
20.233435 20.990034 11.593741
21.134995 21.537595 7.115616
21.074149 20.003018 8.740614
17.092103 1.092177 10.654259
29.264484 21.773754 12.972320
31.117981 21.977503 8.334530
15.362782 0.498834 11.568268
29.230855 22.312930 9.092418
27.833895 21.667913 7.459708
30.650583 21.672446 11.413398
30.687090 20.593414 13.886538
31.905178 20.796710 9.780062
18.522691 1.378423 9.250624
17.563295 0.856698 13.727707
17.768992 2.372011 12.086659
16.373341 14.252480 10.656223
18.575424 13.248693 8.660410
17.112908 15.967237 8.347541
15.383457 15.349643 9.252796
16.328459 14.783497 13.728628
14.943668 14.135081 12.092374
17.606083 15.718613 11.411609
18.519420 16.290198 13.891420
17.691136 17.286960 9.811624
17.759048 14.157745 9.093757
17.792153 13.086419 11.574818
19.016128 13.267731 7.464173
20.535045 7.891376 7.876435
21.670174 6.388075 12.506930
22.412619 8.092405 10.183241
21.160642 6.638285 9.440569
20.178216 6.102962 6.960133
21.005322 5.096455 11.065359
23.383137 7.023346 11.599590
22.423218 7.536005 7.130011
23.847526 8.180342 8.746672
21.039082 8.181475 11.751335
21.004406 9.263226 9.278194
19.787889 9.054038 13.386963
4.685832 5.117068 16.931639
5.509957 4.397661 15.932047
5.636197 4.824829 14.569435
6.449824 4.077281 20.679843
6.564390 4.382488 19.642392
6.961383 2.440629 15.524207
6.170926 3.235081 16.363858
6.060939 2.930270 17.401585
7.913953 2.169869 20.108410
7.083599 2.866701 14.158758
5.804480 9.496703 20.013918
6.301713 10.358081 14.164416
6.165125 10.015523 15.549738
6.685405 10.895724 16.486186
6.597129 10.657003 17.543446
7.405769 12.494086 14.731419
6.913443 11.570094 20.749448
7.006260 11.808965 19.692940
7.770506 12.991955 17.218853
7.264530 12.152263 16.118550
19.849675 12.133258 15.638762
20.087877 11.465281 16.939906
19.641120 12.006307 18.190034
19.910340 11.280258 19.340144
19.579155 11.667981 20.300648
21.126373 9.530027 18.070953
20.804884 10.256830 16.917960
21.133563 9.865379 15.958470
20.897824 9.411266 20.620835
20.682458 10.074870 19.322756
10.391943 14.780517 16.841954
11.516314 14.686161 15.881330
11.335620 14.371377 14.494470
12.464422 14.327698 20.638557
12.353401 14.094052 19.582307
13.967364 14.817756 15.602075
12.810131 14.900716 16.386244
12.923131 15.138272 17.441081
14.893946 14.418848 20.194114
13.785799 14.498079 14.214355
33.093413 16.726380 17.760357
32.355753 17.498829 18.787533
32.265776 17.089874 20.158583
31.560030 17.905358 14.081954
31.479848 17.618509 15.127836
30.953010 19.486377 19.217553
31.707828 18.671898 18.364402
31.789904 18.962644 17.320078
30.144255 19.842366 14.675259
30.859757 19.073664 20.589375
23.678875 21.643155 17.612734
24.715441 21.644789 18.671715
24.404588 21.595589 20.070310
25.462643 21.586248 14.018307
25.253036 21.546199 15.084628
27.137654 21.755330 19.144593
26.055874 21.718610 18.256113
26.267905 21.754800 17.190461
27.847406 21.693771 14.658441
26.825188 21.710532 20.545051
19.597143 20.304842 17.765705
19.289827 19.281455 18.792421
19.673099 19.413581 20.167472
19.314276 18.395648 14.089780
19.590765 18.473815 15.138601
18.274410 17.069834 19.217400
18.607449 18.129706 18.364905
18.326622 18.051217 17.317595
18.347257 16.198685 14.678555
18.662568 17.201024 20.593280
18.553447 1.501443 16.915694
18.726659 2.591282 15.926674
18.259254 2.501663 14.574409
18.466257 3.594500 20.694620
18.118224 3.552344 19.665214
19.660735 4.842988 15.526337
19.401638 3.746156 16.357492
19.747007 3.792046 17.387297
19.346898 5.834183 20.131843
19.196247 4.750505 14.171116
18.256376 11.872743 14.786866
18.620933 11.439598 20.365416
18.195148 12.134581 19.186084
18.614355 11.641328 17.959973
18.307219 12.152566 17.050642
19.802048 9.738340 19.018703
19.404697 10.279073 20.247813
19.716145 9.768579 14.207711
19.742106 10.021664 16.472260
19.371451 10.432448 17.838142
5.297487 7.022439 17.609332
29.272727 6.835235 15.289395
30.028912 8.502170 19.916972
4.841211 5.655575 16.204238
4.833884 6.701291 20.671107
6.092273 5.812636 19.039648
5.601584 8.833291 18.523967
30.530201 8.264425 16.048742
30.612898 9.834132 14.455844
18.389341 14.570448 19.934272
19.810770 18.431709 14.075649
31.117981 22.162879 15.283976
9.473978 15.596227 19.435303
8.708633 13.854954 14.815856
33.447779 15.359842 17.134126
8.235216 14.125109 18.694299
33.101156 13.558736 16.218240
8.157752 12.552683 20.283029
9.490334 14.997219 16.379156
10.443056 14.492492 13.900179
10.895407 15.715213 17.968303
33.899605 16.770221 18.532967
33.894371 15.643368 14.058594
32.634412 16.521597 15.681924
9.444013 0.640484 14.800868
10.282516 14.399804 13.900616
21.654995 21.310049 17.132686
9.498708 0.078417 18.702448
23.366127 21.956199 16.215967
10.921446 0.717768 20.324528
8.042866 0.713915 16.378342
8.001255 1.792720 13.901658
6.789187 1.588518 18.013762
20.233435 20.990034 18.541741
21.134995 21.537595 14.063616
21.074149 20.003018 15.688614
17.092103 1.092177 17.602259
29.264484 21.773754 19.920320
31.117981 21.977503 15.282530
15.362782 0.498834 18.516268
29.230855 22.312930 16.040418
27.833895 21.667913 14.407708
30.650583 21.672446 18.361398
30.687090 20.593414 20.834538
31.905178 20.796710 16.728062
18.522691 1.378423 16.198624
17.563295 0.856698 20.675707
17.768992 2.372011 19.034659
16.373341 14.252480 17.604223
18.575424 13.248693 15.608410
17.112908 15.967237 15.295541
15.383457 15.349643 16.200796
16.328459 14.783497 20.676628
14.943668 14.135081 19.040374
17.606083 15.718613 18.359609
18.519420 16.290198 20.839420
17.691136 17.286960 16.759624
17.759048 14.157745 16.041757
17.792153 13.086419 18.522818
19.016128 13.267731 14.412173
20.535045 7.891376 14.824435
21.670174 6.388075 19.454930
22.412619 8.092405 17.131241
21.160642 6.638285 16.388569
20.178216 6.102962 13.908133
21.005322 5.096455 18.013359
23.383137 7.023346 18.547590
22.423218 7.536005 14.078011
23.847526 8.180342 15.694672
21.039082 8.181475 18.699335
21.004406 9.263226 16.226194
19.787889 9.054038 20.334963
4.685832 5.117068 23.879639
5.509957 4.397661 22.880047
5.636197 4.824829 21.517435
6.449824 4.077281 27.627843
6.564390 4.382488 26.590392
6.961383 2.440629 22.472207
6.170926 3.235081 23.311858
6.060939 2.930270 24.349585
7.913953 2.169869 27.056410
7.083599 2.866701 21.106758
5.804480 9.496703 26.961918
6.301713 10.358081 21.112416
6.165125 10.015523 22.497738
6.685405 10.895724 23.434186
6.597129 10.657003 24.491446
7.405769 12.494086 21.679419
6.913443 11.570094 27.697448
7.006260 11.808965 26.640940
7.770506 12.991955 24.166853
7.264530 12.152263 23.066550
19.849675 12.133258 22.586762
20.087877 11.465281 23.887906
19.641120 12.006307 25.138034
19.910340 11.280258 26.288144
19.579155 11.667981 27.248648
21.126373 9.530027 25.018953
20.804884 10.256830 23.865960
21.133563 9.865379 22.906470
20.897824 9.411266 27.568835
20.682458 10.074870 26.270756
10.391943 14.780517 23.789954
11.516314 14.686161 22.829330
11.335620 14.371377 21.442470
12.464422 14.327698 27.586557
12.353401 14.094052 26.530307
13.967364 14.817756 22.550075
12.810131 14.900716 23.334244
12.923131 15.138272 24.389081
14.893946 14.418848 27.142114
13.785799 14.498079 21.162355
33.093413 16.726380 24.708357
32.355753 17.498829 25.735533
32.265776 17.089874 27.106583
31.560030 17.905358 21.029954
31.479848 17.618509 22.075836
30.953010 19.486377 26.165553
31.707828 18.671898 25.312402
31.789904 18.962644 24.268078
30.144255 19.842366 21.623259
30.859757 19.073664 27.537375
23.678875 21.643155 24.560734
24.715441 21.644789 25.619715
24.404588 21.595589 27.018310
25.462643 21.586248 20.966307
25.253036 21.546199 22.032628
27.137654 21.755330 26.092593
26.055874 21.718610 25.204113
26.267905 21.754800 24.138461
27.847406 21.693771 21.606441
26.825188 21.710532 27.493051
19.597143 20.304842 24.713705
19.289827 19.281455 25.740421
19.673099 19.413581 27.115472
19.314276 18.395648 21.037780
19.590765 18.473815 22.086601
18.274410 17.069834 26.165400
18.607449 18.129706 25.312905
18.326622 18.051217 24.265595
18.347257 16.198685 21.626555
18.662568 17.201024 27.541280
18.553447 1.501443 23.863694
18.726659 2.591282 22.874674
18.259254 2.501663 21.522409
18.466257 3.594500 27.642620
18.118224 3.552344 26.613214
19.660735 4.842988 22.474337
19.401638 3.746156 23.305492
19.747007 3.792046 24.335297
19.346898 5.834183 27.079843
19.196247 4.750505 21.119116
18.256376 11.872743 21.734866
18.620933 11.439598 27.313416
18.195148 12.134581 26.134084
18.614355 11.641328 24.907973
18.307219 12.152566 23.998642
19.802048 9.738340 25.966703
19.404697 10.279073 27.195813
19.716145 9.768579 21.155711
19.742106 10.021664 23.420260
19.371451 10.432448 24.786142
5.297487 7.022439 24.557332
29.272727 6.835235 22.237395
30.028912 8.502170 26.864972
4.841211 5.655575 23.152238
4.833884 6.701291 27.619107
6.092273 5.812636 25.987648
5.601584 8.833291 25.471967
30.530201 8.264425 22.996742
30.612898 9.834132 21.403844
18.389341 14.570448 26.882272
19.810770 18.431709 21.023649
31.117981 22.162879 22.231976
9.473978 15.596227 26.383303
8.708633 13.854954 21.763856
33.447779 15.359842 24.082126
8.235216 14.125109 25.642299
33.101156 13.558736 23.166240
8.157752 12.552683 27.231029
9.490334 14.997219 23.327156
10.443056 14.492492 20.848179
10.895407 15.715213 24.916303
33.899605 16.770221 25.480967
33.894371 15.643368 21.006594
32.634412 16.521597 22.629924
9.444013 0.640484 21.748868
10.282516 14.399804 20.848616
21.654995 21.310049 24.080686
9.498708 0.078417 25.650448
23.366127 21.956199 23.163967
10.921446 0.717768 27.272528
8.042866 0.713915 23.326342
8.001255 1.792720 20.849658
6.789187 1.588518 24.961762
20.233435 20.990034 25.489741
21.134995 21.537595 21.011616
21.074149 20.003018 22.636614
17.092103 1.092177 24.550259
29.264484 21.773754 26.868320
31.117981 21.977503 22.230530
15.362782 0.498834 25.464268
29.230855 22.312930 22.988418
27.833895 21.667913 21.355708
30.650583 21.672446 25.309398
30.687090 20.593414 -0.009462
30.687090 20.593414 27.782538
31.905178 20.796710 23.676062
18.522691 1.378423 23.146624
17.563295 0.856698 27.623707
17.768992 2.372011 25.982659
16.373341 14.252480 24.552223
18.575424 13.248693 22.556410
17.112908 15.967237 22.243541
15.383457 15.349643 23.148796
16.328459 14.783497 27.624628
14.943668 14.135081 25.988374
17.606083 15.718613 25.307609
18.519420 16.290198 -0.004580
18.519420 16.290198 27.787420
17.691136 17.286960 23.707624
17.759048 14.157745 22.989757
17.792153 13.086419 25.470818
19.016128 13.267731 21.360173
20.535045 7.891376 21.772435
21.670174 6.388075 26.402930
22.412619 8.092405 24.079241
21.160642 6.638285 23.336569
20.178216 6.102962 20.856133
21.005322 5.096455 24.961359
23.383137 7.023346 25.495590
22.423218 7.536005 21.026011
23.847526 8.180342 22.642672
21.039082 8.181475 25.647335
21.004406 9.263226 23.174194
19.787889 9.054038 27.282963
POINT_DATA 654
SCALARS my_scalars float
LOOKUP_TABLE default
1.7
1.7
1.7
1.7
1.09
1.7
1.7
1.09
1.7
1.7
1.7
1.7
1.7
1.7
1.09
1.7
1.7
1.09
1.7
1.7
1.7
1.7
1.7
1.7
1.09
1.7
1.7
1.09
1.7
1.7
1.7
1.7
1.7
1.7
1.09
1.7
1.7
1.09
1.7
1.7
1.7
1.7
1.7
1.7
1.09
1.7
1.7
1.09
1.7
1.7
1.7
1.7
1.7
1.7
1.09
1.7
1.7
1.09
1.7
1.7
1.7
1.7
1.7
1.7
1.09
1.7
1.7
1.09
1.7
1.7
1.7
1.7
1.7
1.7
1.09
1.7
1.7
1.09
1.7
1.7
1.7
1.7
1.7
1.7
1.09
1.7
1.7
1.09
1.7
1.7
1.73
1.73
1.73
1.52
1.52
1.52
1.52
1.52
1.52
1.73
1.7
1.73
1.73
1.73
1.73
1.52
1.52
1.52
1.52
1.52
1.52
1.52
1.52
1.52
1.52
1.73
1.52
1.52
1.73
1.52
1.52
1.52
1.52
1.52
1.52
1.52
1.52
1.52
1.52
1.73
1.73
1.73
1.52
1.52
1.52
1.52
1.52
1.52
1.52
1.52
1.52
1.73
1.7
1.73
1.52
1.52
1.52
1.52
1.52
1.52
1.52
1.52
1.52
1.73
1.73
1.73
1.52
1.52
1.52
1.52
1.52
1.52
1.52
1.52
1.52
1.52
1.7
1.7
1.7
1.7
1.09
1.7
1.7
1.09
1.7
1.7
1.7
1.7
1.7
1.7
1.09
1.7
1.7
1.09
1.7
1.7
1.7
1.7
1.7
1.7
1.09
1.7
1.7
1.09
1.7
1.7
1.7
1.7
1.7
1.7
1.09
1.7
1.7
1.09
1.7
1.7
1.7
1.7
1.7
1.7
1.09
1.7
1.7
1.09
1.7
1.7
1.7
1.7
1.7
1.7
1.09
1.7
1.7
1.09
1.7
1.7
1.7
1.7
1.7
1.7
1.09
1.7
1.7
1.09
1.7
1.7
1.7
1.7
1.7
1.7
1.09
1.7
1.7
1.09
1.7
1.7
1.7
1.7
1.7
1.7
1.09
1.7
1.7
1.09
1.7
1.7
1.73
1.73
1.73
1.52
1.52
1.52
1.52
1.52
1.52
1.73
1.7
1.73
1.73
1.73
1.73
1.52
1.52
1.52
1.52
1.52
1.52
1.52
1.52
1.52
1.73
1.52
1.73
1.52
1.52
1.52
1.52
1.52
1.52
1.52
1.52
1.52
1.73
1.73
1.73
1.52
1.52
1.52
1.52
1.52
1.52
1.52
1.52
1.52
1.73
1.7
1.73
1.52
1.52
1.52
1.52
1.52
1.52
1.52
1.52
1.52
1.73
1.73
1.73
1.52
1.52
1.52
1.52
1.52
1.52
1.52
1.52
1.52
1.7
1.7
1.7
1.7
1.09
1.7
1.7
1.09
1.7
1.7
1.7
1.7
1.7
1.7
1.09
1.7
1.7
1.09
1.7
1.7
1.7
1.7
1.7
1.7
1.09
1.7
1.7
1.09
1.7
1.7
1.7
1.7
1.7
1.7
1.09
1.7
1.7
1.09
1.7
1.7
1.7
1.7
1.7
1.7
1.09
1.7
1.7
1.09
1.7
1.7
1.7
1.7
1.7
1.7
1.09
1.7
1.7
1.09
1.7
1.7
1.7
1.7
1.7
1.7
1.09
1.7
1.7
1.09
1.7
1.7
1.7
1.7
1.7
1.7
1.09
1.7
1.7
1.09
1.7
1.7
1.7
1.7
1.7
1.7
1.09
1.7
1.7
1.09
1.7
1.7
1.73
1.73
1.73
1.52
1.52
1.52
1.52
1.52
1.52
1.73
1.7
1.73
1.73
1.73
1.73
1.52
1.52
1.52
1.52
1.52
1.52
1.52
1.52
1.52
1.73
1.52
1.73
1.52
1.52
1.52
1.52
1.52
1.52
1.52
1.52
1.52
1.73
1.73
1.73
1.52
1.52
1.52
1.52
1.52
1.52
1.52
1.52
1.52
1.73
1.7
1.73
1.52
1.52
1.52
1.52
1.52
1.52
1.52
1.52
1.52
1.73
1.73
1.73
1.52
1.52
1.52
1.52
1.52
1.52
1.52
1.52
1.52
1.7
1.7
1.7
1.7
1.09
1.7
1.7
1.09
1.7
1.7
1.7
1.7
1.7
1.7
1.09
1.7
1.7
1.09
1.7
1.7
1.7
1.7
1.7
1.7
1.09
1.7
1.7
1.09
1.7
1.7
1.7
1.7
1.7
1.7
1.09
1.7
1.7
1.09
1.7
1.7
1.7
1.7
1.7
1.7
1.09
1.7
1.7
1.09
1.7
1.7
1.7
1.7
1.7
1.7
1.09
1.7
1.7
1.09
1.7
1.7
1.7
1.7
1.7
1.7
1.09
1.7
1.7
1.09
1.7
1.7
1.7
1.7
1.7
1.7
1.09
1.7
1.7
1.09
1.7
1.7
1.7
1.7
1.7
1.7
1.09
1.7
1.7
1.09
1.7
1.7
1.73
1.73
1.73
1.52
1.52
1.52
1.52
1.52
1.52
1.73
1.7
1.73
1.73
1.73
1.73
1.52
1.52
1.52
1.52
1.52
1.52
1.52
1.52
1.52
1.73
1.52
1.73
1.52
1.52
1.52
1.52
1.52
1.52
1.52
1.52
1.52
1.73
1.73
1.73
1.52
1.52
1.52
1.52
1.52
1.52
1.52
1.52
1.52
1.52
1.73
1.7
1.73
1.52
1.52
1.52
1.52
1.52
1.52
1.52
1.52
1.52
1.52
1.73
1.73
1.73
1.52
1.52
1.52
1.52
1.52
1.52
1.52
1.52
1.52
VECTORS vectors float
0.3125 0 0
0.3125 0 0
0.3125 0 0
0.3125 0 0
0.25 0 0
0.3125 0 0
0.3125 0 0
0.25 0 0
0.3125 0 0
0.3125 0 0
0.3125 0 0
0.3125 0 0
0.3125 0 0
0.3125 0 0
0.25 0 0
0.3125 0 0
0.3125 0 0
0.25 0 0
0.3125 0 0
0.3125 0 0
0.3125 0 0
0.3125 0 0
0.3125 0 0
0.3125 0 0
0.25 0 0
0.3125 0 0
0.3125 0 0
0.25 0 0
0.3125 0 0
0.3125 0 0
0.3125 0 0
0.3125 0 0
0.3125 0 0
0.3125 0 0
0.25 0 0
0.3125 0 0
0.3125 0 0
0.25 0 0
0.3125 0 0
0.3125 0 0
0.3125 0 0
0.3125 0 0
0.3125 0 0
0.3125 0 0
0.25 0 0
0.3125 0 0
0.3125 0 0
0.25 0 0
0.3125 0 0
0.3125 0 0
0.3125 0 0
0.3125 0 0
0.3125 0 0
0.3125 0 0
0.25 0 0
0.3125 0 0
0.3125 0 0
0.25 0 0
0.3125 0 0
0.3125 0 0
0.3125 0 0
0.3125 0 0
0.3125 0 0
0.3125 0 0
0.25 0 0
0.3125 0 0
0.3125 0 0
0.25 0 0
0.3125 0 0
0.3125 0 0
0.3125 0 0
0.3125 0 0
0.3125 0 0
0.3125 0 0
0.25 0 0
0.3125 0 0
0.3125 0 0
0.25 0 0
0.3125 0 0
0.3125 0 0
0.3125 0 0
0.3125 0 0
0.3125 0 0
0.3125 0 0
0.25 0 0
0.3125 0 0
0.3125 0 0
0.25 0 0
0.3125 0 0
0.3125 0 0
0.4375 0 0
0.4375 0 0
0.4375 0 0
0.03125 0 0
0.03125 0 0
0.03125 0 0
0.03125 0 0
0.03125 0 0
0.03125 0 0
0.4375 0 0
0.3125 0 0
0.4375 0 0
0.4375 0 0
0.4375 0 0
0.4375 0 0
0.03125 0 0
0.03125 0 0
0.03125 0 0
0.03125 0 0
0.03125 0 0
0.03125 0 0
0.03125 0 0
0.03125 0 0
0.03125 0 0
0.03125 0 0
0.4375 0 0
0.03125 0 0
0.03125 0 0
0.4375 0 0
0.03125 0 0
0.03125 0 0
0.03125 0 0
0.03125 0 0
0.03125 0 0
0.03125 0 0
0.03125 0 0
0.03125 0 0
0.03125 0 0
0.03125 0 0
0.4375 0 0
0.4375 0 0
0.4375 0 0
0.03125 0 0
0.03125 0 0
0.03125 0 0
0.03125 0 0
0.03125 0 0
0.03125 0 0
0.03125 0 0
0.03125 0 0
0.03125 0 0
0.4375 0 0
0.3125 0 0
0.4375 0 0
0.03125 0 0
0.03125 0 0
0.03125 0 0
0.03125 0 0
0.03125 0 0
0.03125 0 0
0.03125 0 0
0.03125 0 0
0.03125 0 0
0.4375 0 0
0.4375 0 0
0.4375 0 0
0.03125 0 0
0.03125 0 0
0.03125 0 0
0.03125 0 0
0.03125 0 0
0.03125 0 0
0.03125 0 0
0.03125 0 0
0.03125 0 0
0.03125 0 0
0.3125 0 0
0.3125 0 0
0.3125 0 0
0.3125 0 0
0.25 0 0
0.3125 0 0
0.3125 0 0
0.25 0 0
0.3125 0 0
0.3125 0 0
0.3125 0 0
0.3125 0 0
0.3125 0 0
0.3125 0 0
0.25 0 0
0.3125 0 0
0.3125 0 0
0.25 0 0
0.3125 0 0
0.3125 0 0
0.3125 0 0
0.3125 0 0
0.3125 0 0
0.3125 0 0
0.25 0 0
0.3125 0 0
0.3125 0 0
0.25 0 0
0.3125 0 0
0.3125 0 0
0.3125 0 0
0.3125 0 0
0.3125 0 0
0.3125 0 0
0.25 0 0
0.3125 0 0
0.3125 0 0
0.25 0 0
0.3125 0 0
0.3125 0 0
0.3125 0 0
0.3125 0 0
0.3125 0 0
0.3125 0 0
0.25 0 0
0.3125 0 0
0.3125 0 0
0.25 0 0
0.3125 0 0
0.3125 0 0
0.3125 0 0
0.3125 0 0
0.3125 0 0
0.3125 0 0
0.25 0 0
0.3125 0 0
0.3125 0 0
0.25 0 0
0.3125 0 0
0.3125 0 0
0.3125 0 0
0.3125 0 0
0.3125 0 0
0.3125 0 0
0.25 0 0
0.3125 0 0
0.3125 0 0
0.25 0 0
0.3125 0 0
0.3125 0 0
0.3125 0 0
0.3125 0 0
0.3125 0 0
0.3125 0 0
0.25 0 0
0.3125 0 0
0.3125 0 0
0.25 0 0
0.3125 0 0
0.3125 0 0
0.3125 0 0
0.3125 0 0
0.3125 0 0
0.3125 0 0
0.25 0 0
0.3125 0 0
0.3125 0 0
0.25 0 0
0.3125 0 0
0.3125 0 0
0.4375 0 0
0.4375 0 0
0.4375 0 0
0.03125 0 0
0.03125 0 0
0.03125 0 0
0.03125 0 0
0.03125 0 0
0.03125 0 0
0.4375 0 0
0.3125 0 0
0.4375 0 0
0.4375 0 0
0.4375 0 0
0.4375 0 0
0.03125 0 0
0.03125 0 0
0.03125 0 0
0.03125 0 0
0.03125 0 0
0.03125 0 0
0.03125 0 0
0.03125 0 0
0.03125 0 0
0.4375 0 0
0.03125 0 0
0.4375 0 0
0.03125 0 0
0.03125 0 0
0.03125 0 0
0.03125 0 0
0.03125 0 0
0.03125 0 0
0.03125 0 0
0.03125 0 0
0.03125 0 0
0.4375 0 0
0.4375 0 0
0.4375 0 0
0.03125 0 0
0.03125 0 0
0.03125 0 0
0.03125 0 0
0.03125 0 0
0.03125 0 0
0.03125 0 0
0.03125 0 0
0.03125 0 0
0.4375 0 0
0.3125 0 0
0.4375 0 0
0.03125 0 0
0.03125 0 0
0.03125 0 0
0.03125 0 0
0.03125 0 0
0.03125 0 0
0.03125 0 0
0.03125 0 0
0.03125 0 0
0.4375 0 0
0.4375 0 0
0.4375 0 0
0.03125 0 0
0.03125 0 0
0.03125 0 0
0.03125 0 0
0.03125 0 0
0.03125 0 0
0.03125 0 0
0.03125 0 0
0.03125 0 0
0.3125 0 0
0.3125 0 0
0.3125 0 0
0.3125 0 0
0.25 0 0
0.3125 0 0
0.3125 0 0
0.25 0 0
0.3125 0 0
0.3125 0 0
0.3125 0 0
0.3125 0 0
0.3125 0 0
0.3125 0 0
0.25 0 0
0.3125 0 0
0.3125 0 0
0.25 0 0
0.3125 0 0
0.3125 0 0
0.3125 0 0
0.3125 0 0
0.3125 0 0
0.3125 0 0
0.25 0 0
0.3125 0 0
0.3125 0 0
0.25 0 0
0.3125 0 0
0.3125 0 0
0.3125 0 0
0.3125 0 0
0.3125 0 0
0.3125 0 0
0.25 0 0
0.3125 0 0
0.3125 0 0
0.25 0 0
0.3125 0 0
0.3125 0 0
0.3125 0 0
0.3125 0 0
0.3125 0 0
0.3125 0 0
0.25 0 0
0.3125 0 0
0.3125 0 0
0.25 0 0
0.3125 0 0
0.3125 0 0
0.3125 0 0
0.3125 0 0
0.3125 0 0
0.3125 0 0
0.25 0 0
0.3125 0 0
0.3125 0 0
0.25 0 0
0.3125 0 0
0.3125 0 0
0.3125 0 0
0.3125 0 0
0.3125 0 0
0.3125 0 0
0.25 0 0
0.3125 0 0
0.3125 0 0
0.25 0 0
0.3125 0 0
0.3125 0 0
0.3125 0 0
0.3125 0 0
0.3125 0 0
0.3125 0 0
0.25 0 0
0.3125 0 0
0.3125 0 0
0.25 0 0
0.3125 0 0
0.3125 0 0
0.3125 0 0
0.3125 0 0
0.3125 0 0
0.3125 0 0
0.25 0 0
0.3125 0 0
0.3125 0 0
0.25 0 0
0.3125 0 0
0.3125 0 0
0.4375 0 0
0.4375 0 0
0.4375 0 0
0.03125 0 0
0.03125 0 0
0.03125 0 0
0.03125 0 0
0.03125 0 0
0.03125 0 0
0.4375 0 0
0.3125 0 0
0.4375 0 0
0.4375 0 0
0.4375 0 0
0.4375 0 0
0.03125 0 0
0.03125 0 0
0.03125 0 0
0.03125 0 0
0.03125 0 0
0.03125 0 0
0.03125 0 0
0.03125 0 0
0.03125 0 0
0.4375 0 0
0.03125 0 0
0.4375 0 0
0.03125 0 0
0.03125 0 0
0.03125 0 0
0.03125 0 0
0.03125 0 0
0.03125 0 0
0.03125 0 0
0.03125 0 0
0.03125 0 0
0.4375 0 0
0.4375 0 0
0.4375 0 0
0.03125 0 0
0.03125 0 0
0.03125 0 0
0.03125 0 0
0.03125 0 0
0.03125 0 0
0.03125 0 0
0.03125 0 0
0.03125 0 0
0.4375 0 0
0.3125 0 0
0.4375 0 0
0.03125 0 0
0.03125 0 0
0.03125 0 0
0.03125 0 0
0.03125 0 0
0.03125 0 0
0.03125 0 0
0.03125 0 0
0.03125 0 0
0.4375 0 0
0.4375 0 0
0.4375 0 0
0.03125 0 0
0.03125 0 0
0.03125 0 0
0.03125 0 0
0.03125 0 0
0.03125 0 0
0.03125 0 0
0.03125 0 0
0.03125 0 0
0.3125 0 0
0.3125 0 0
0.3125 0 0
0.3125 0 0
0.25 0 0
0.3125 0 0
0.3125 0 0
0.25 0 0
0.3125 0 0
0.3125 0 0
0.3125 0 0
0.3125 0 0
0.3125 0 0
0.3125 0 0
0.25 0 0
0.3125 0 0
0.3125 0 0
0.25 0 0
0.3125 0 0
0.3125 0 0
0.3125 0 0
0.3125 0 0
0.3125 0 0
0.3125 0 0
0.25 0 0
0.3125 0 0
0.3125 0 0
0.25 0 0
0.3125 0 0
0.3125 0 0
0.3125 0 0
0.3125 0 0
0.3125 0 0
0.3125 0 0
0.25 0 0
0.3125 0 0
0.3125 0 0
0.25 0 0
0.3125 0 0
0.3125 0 0
0.3125 0 0
0.3125 0 0
0.3125 0 0
0.3125 0 0
0.25 0 0
0.3125 0 0
0.3125 0 0
0.25 0 0
0.3125 0 0
0.3125 0 0
0.3125 0 0
0.3125 0 0
0.3125 0 0
0.3125 0 0
0.25 0 0
0.3125 0 0
0.3125 0 0
0.25 0 0
0.3125 0 0
0.3125 0 0
0.3125 0 0
0.3125 0 0
0.3125 0 0
0.3125 0 0
0.25 0 0
0.3125 0 0
0.3125 0 0
0.25 0 0
0.3125 0 0
0.3125 0 0
0.3125 0 0
0.3125 0 0
0.3125 0 0
0.3125 0 0
0.25 0 0
0.3125 0 0
0.3125 0 0
0.25 0 0
0.3125 0 0
0.3125 0 0
0.3125 0 0
0.3125 0 0
0.3125 0 0
0.3125 0 0
0.25 0 0
0.3125 0 0
0.3125 0 0
0.25 0 0
0.3125 0 0
0.3125 0 0
0.4375 0 0
0.4375 0 0
0.4375 0 0
0.03125 0 0
0.03125 0 0
0.03125 0 0
0.03125 0 0
0.03125 0 0
0.03125 0 0
0.4375 0 0
0.3125 0 0
0.4375 0 0
0.4375 0 0
0.4375 0 0
0.4375 0 0
0.03125 0 0
0.03125 0 0
0.03125 0 0
0.03125 0 0
0.03125 0 0
0.03125 0 0
0.03125 0 0
0.03125 0 0
0.03125 0 0
0.4375 0 0
0.03125 0 0
0.4375 0 0
0.03125 0 0
0.03125 0 0
0.03125 0 0
0.03125 0 0
0.03125 0 0
0.03125 0 0
0.03125 0 0
0.03125 0 0
0.03125 0 0
0.4375 0 0
0.4375 0 0
0.4375 0 0
0.03125 0 0
0.03125 0 0
0.03125 0 0
0.03125 0 0
0.03125 0 0
0.03125 0 0
0.03125 0 0
0.03125 0 0
0.03125 0 0
0.03125 0 0
0.4375 0 0
0.3125 0 0
0.4375 0 0
0.03125 0 0
0.03125 0 0
0.03125 0 0
0.03125 0 0
0.03125 0 0
0.03125 0 0
0.03125 0 0
0.03125 0 0
0.03125 0 0
0.03125 0 0
0.4375 0 0
0.4375 0 0
0.4375 0 0
0.03125 0 0
0.03125 0 0
0.03125 0 0
0.03125 0 0
0.03125 0 0
0.03125 0 0
0.03125 0 0
0.03125 0 0
0.03125 0 0
