# vtk DataFile Version 1.0
Cube
ASCII

DATASET POLYDATA
POINTS 2112 float
6.406457 0.134229 10.584543
6.261353 15.277288 11.681313
6.417501 14.593570 12.291289
6.961722 16.452725 11.601115
8.495500 0.000000 12.743250
8.495500 33.982000 12.743250
0.134229 10.584543 6.406457
15.277288 10.729647 5.309687
14.593570 10.573499 4.699711
16.452725 10.029278 5.389885
0.000000 8.495500 4.247750
33.982000 8.495500 4.247750
10.584543 16.856771 10.584543
10.729647 1.713712 11.681313
10.573499 2.397430 12.291289
10.029278 0.538275 11.601115
16.856771 6.406457 6.406457
1.713712 6.261353 5.309687
2.397430 6.417501 4.699711
0.538275 6.961722 5.389885
6.406457 16.856771 6.406457
6.261353 1.713712 5.309687
6.417501 2.397430 4.699711
6.961722 0.538275 5.389885
8.495500 0.000000 4.247750
8.495500 33.982000 4.247750
16.856771 10.584543 10.584543
1.713712 10.729647 11.681313
2.397430 10.573499 12.291289
15.538270 10.090955 10.090955
0.538275 10.029278 11.601115
0.000000 8.495500 12.743250
33.982000 8.495500 12.743250
10.584543 0.134229 6.406457
10.729647 15.277288 5.309687
10.573499 14.593570 4.699711
10.029278 16.452725 5.389885
0.134229 6.406457 10.584543
15.277288 6.261353 11.681313
14.593570 6.417501 12.291289
16.452725 6.961722 11.601115
10.584543 6.406457 0.134229
11.681313 6.261353 15.277288
12.291289 6.417501 14.593570
11.601115 6.961722 16.452725
12.743250 8.495500 0.000000
12.743250 8.495500 33.982000
6.406457 6.406457 16.856771
6.261353 5.309687 1.713712
6.417501 4.699711 2.397430
6.900045 6.900045 15.538270
7.793772 7.233069 15.635118
6.894948 6.177928 14.904505
6.327448 7.603472 15.225635
6.961722 5.389885 0.538275
8.495500 4.247750 0.000000
8.495500 4.247750 33.982000
6.406457 10.584543 0.134229
5.309688 10.729647 15.277288
4.699711 10.573499 14.593570
5.389885 10.029278 16.452725
4.247750 8.495500 0.000000
4.247750 8.495500 33.982000
10.584543 10.584543 16.856771
10.729647 11.681313 1.713712
10.573499 12.291289 2.397430
10.029278 11.601115 0.538275
8.495500 12.743250 0.000000
8.495500 12.743250 33.982000
11.681313 10.729647 1.713712
12.291289 10.573499 2.397430
11.601115 10.029278 0.538275
10.729647 5.309688 15.277288
10.573499 4.699711 14.593570
10.029278 5.389885 16.452725
5.309687 6.261353 1.713712
4.699711 6.417501 2.397430
5.389885 6.961722 0.538275
6.261353 11.681313 15.277288
6.417501 12.291289 14.593570
6.961722 11.601115 16.452725
15.277288 11.681313 6.261353
14.593570 12.291289 6.417501
16.452725 11.601115 6.961722
0.000000 12.743250 8.495500
33.982000 12.743250 8.495500
15.277288 5.309688 10.729647
14.593570 4.699711 10.573499
16.452725 5.389885 10.029278
0.000000 4.247750 8.495500
33.982000 4.247750 8.495500
5.309687 1.713712 6.261353
4.699711 2.397430 6.417501
5.389885 0.538275 6.961722
4.247750 0.000000 8.495500
4.247750 33.982000 8.495500
1.713712 11.681313 10.729647
2.397430 12.291289 10.573499
15.635118 9.757931 9.197228
14.904505 10.813072 10.096052
15.225635 9.387527 10.663552
0.538275 11.601115 10.029278
11.681313 15.277288 6.261353
12.291289 14.593570 6.417501
11.601115 16.452725 6.961722
12.743250 0.000000 8.495500
12.743250 33.982000 8.495500
1.713712 5.309687 6.261353
2.397430 4.699711 6.417501
0.538275 5.389885 6.961722
5.309688 15.277288 10.729647
4.699711 14.593570 10.573499
5.389885 16.452725 10.029278
11.681313 1.713712 10.729647
12.291289 2.397430 10.573499
11.601115 0.538275 10.029278
14.901957 8.629729 2.089043
14.756853 6.781788 3.185812
14.913001 6.098070 3.795789
15.395545 9.948230 1.595455
16.289272 9.851382 1.262431
15.390448 10.581995 2.317572
14.822948 10.260865 0.892027
15.457222 7.957225 3.105615
8.629729 2.089043 14.901957
6.781788 2.234147 13.805187
6.098070 2.077999 13.195211
9.948230 1.595455 15.395545
7.957225 1.533778 13.885385
2.089043 8.361271 2.089043
2.234147 10.209212 3.185812
2.077999 10.892930 3.795789
1.533778 9.033775 3.105615
8.361271 14.901957 14.901957
10.209212 14.756853 13.805187
10.892930 14.913001 13.195211
9.033775 15.457222 13.885385
14.901957 8.361271 14.901957
14.756853 10.209212 13.805187
14.913001 10.892930 13.195211
15.395545 7.042770 15.395545
16.289272 7.139618 15.728569
15.390448 6.409005 14.673428
14.822948 6.730135 16.098972
15.457222 9.033775 13.885385
8.361271 2.089043 2.089043
10.209212 2.234147 3.185812
10.892930 2.077999 3.795789
7.042769 1.595455 1.595455
9.033775 1.533778 3.105615
2.089043 8.629729 14.901957
2.234147 6.781788 13.805187
2.077999 6.098070 13.195211
1.533778 7.957225 13.885385
8.629729 14.901957 2.089043
6.781788 14.756853 3.185812
6.098070 14.913001 3.795789
7.957225 15.457222 3.105615
2.089043 14.901957 8.629729
3.185813 14.756853 6.781788
3.795789 14.913001 6.098070
3.105615 15.457222 7.957225
14.901957 14.901957 8.361271
14.756853 13.805187 10.209212
14.913001 13.195211 10.892930
15.457222 13.885385 9.033775
14.901957 2.089043 8.629729
13.805187 2.234147 6.781788
13.195211 2.077999 6.098070
13.885385 1.533778 7.957225
2.089043 2.089043 8.361271
2.234147 3.185813 10.209212
2.077999 3.795789 10.892930
1.533778 3.105615 9.033775
3.185813 2.234147 10.209212
3.795789 2.077999 10.892930
3.105615 1.533778 9.033775
2.234147 13.805187 6.781788
2.077999 13.195211 6.098070
1.533778 13.885385 7.957225
13.805187 14.756853 10.209212
13.195211 14.913001 10.892930
13.885385 15.457222 9.033775
14.756853 3.185813 6.781788
14.913001 3.795789 6.098070
15.457222 3.105615 7.957225
6.781788 3.185813 14.756853
6.098070 3.795789 14.913001
9.851382 1.262431 16.289272
10.581995 2.317572 15.390448
10.260865 0.892028 14.822948
7.957225 3.105615 15.457222
6.781788 13.805187 2.234147
6.098070 13.195211 2.077999
7.957225 13.885385 1.533778
13.805187 10.209212 14.756853
13.195211 10.892930 14.913001
13.885385 9.033775 15.457222
10.209212 3.185812 2.234147
10.892930 3.795789 2.077999
7.139618 1.262431 0.701728
6.409005 2.317572 1.600552
6.730135 0.892028 2.168052
9.033775 3.105615 1.533778
3.185813 6.781788 14.756853
3.795789 6.098070 14.913001
3.105615 7.957225 15.457222
10.209212 13.805187 14.756853
10.892930 13.195211 14.913001
9.033775 13.885385 15.457222
13.805187 6.781788 2.234147
13.195211 6.098070 2.077999
13.885385 7.957225 1.533778
3.185813 10.209212 2.234147
3.795789 10.892930 2.077999
3.105615 9.033775 1.533778
1.433393 10.098194 6.892806
2.342912 10.885835 7.094625
1.602092 8.906915 7.094625
1.602694 15.388306 9.928893
0.653803 14.843052 10.468002
2.147948 16.337197 10.468002
9.928893 15.388306 1.602694
10.097592 16.579585 1.400875
10.838412 14.600665 1.400875
1.433393 6.892806 10.098194
1.602092 8.084085 9.896375
2.342912 6.105165 9.896375
1.602694 7.062107 1.602694
2.390335 6.152588 1.400875
0.411415 6.893408 1.400875
10.098194 10.098194 15.557607
10.643448 9.149303 15.018498
9.149303 10.643448 15.018498
15.557607 6.892806 6.892806
14.648088 6.105165 7.094625
15.388908 8.084085 7.094625
10.098194 15.557607 10.098194
10.885835 14.648088 9.896375
8.906915 15.388908 9.896375
15.388306 1.602694 9.928893
16.337197 2.147948 10.468002
14.843052 0.653803 10.468002
1.602694 1.602694 7.062107
2.147948 0.653803 6.522998
0.653803 2.147948 6.522998
10.098194 6.892806 1.433393
9.149303 6.347552 1.972502
10.643448 7.841697 1.972502
6.892806 15.557607 6.892806
8.084085 15.388908 7.094625
6.105165 14.648088 7.094625
6.892806 1.433393 10.098194
6.105165 2.342912 9.896375
8.084085 1.602092 9.896375
6.892806 10.098194 1.433393
7.841697 10.643448 1.972502
6.347552 9.149303 1.972502
15.388306 15.388306 7.062107
14.843052 16.337197 6.522998
16.337197 14.843052 6.522998
10.098194 1.433393 6.892806
8.906915 1.602092 7.094625
10.885835 2.342912 7.094625
1.602694 9.928893 15.388306
0.411415 10.097592 15.590125
2.390335 10.838412 15.590125
7.062107 15.388306 15.388306
6.152588 14.600665 15.590125
6.893408 16.579585 15.590125
6.406457 0.134229 27.575543
6.261353 15.277288 28.672313
6.417501 14.593570 29.282289
6.961722 16.452725 28.592115
8.495500 0.000000 29.734250
8.495500 33.982000 29.734250
0.134229 10.584543 23.397457
15.277288 10.729647 22.300687
14.593570 10.573499 21.690711
16.452725 10.029278 22.380885
0.000000 8.495500 21.238750
33.982000 8.495500 21.238750
10.584543 16.856771 27.575543
10.729647 1.713712 28.672313
10.573499 2.397430 29.282289
10.029278 0.538275 28.592115
16.856771 6.406457 23.397457
1.713712 6.261353 22.300687
2.397430 6.417501 21.690711
0.538275 6.961722 22.380885
6.406457 16.856771 23.397457
6.261353 1.713712 22.300687
6.417501 2.397430 21.690711
6.961722 0.538275 22.380885
8.495500 0.000000 21.238750
8.495500 33.982000 21.238750
16.856771 10.584543 27.575543
1.713712 10.729647 28.672313
2.397430 10.573499 29.282289
15.538270 10.090955 27.081955
0.538275 10.029278 28.592115
0.000000 8.495500 29.734250
33.982000 8.495500 29.734250
10.584543 0.134229 23.397457
10.729647 15.277288 22.300687
10.573499 14.593570 21.690711
10.029278 16.452725 22.380885
0.134229 6.406457 27.575543
15.277288 6.261353 28.672313
14.593570 6.417501 29.282289
16.452725 6.961722 28.592115
10.584543 6.406457 17.125229
11.681313 6.261353 32.268288
12.291289 6.417501 31.584570
11.601115 6.961722 33.443725
12.743250 8.495500 16.991000
6.406457 6.406457 33.847771
6.261353 5.309688 18.704712
6.417501 4.699711 19.388430
6.900045 6.900045 32.529269
7.793772 7.233069 32.626118
6.894948 6.177928 31.895505
6.327448 7.603472 32.216635
6.961722 5.389885 17.529275
8.495500 4.247750 16.991000
6.406457 10.584543 17.125229
5.309688 10.729647 32.268288
4.699711 10.573499 31.584570
5.389885 10.029278 33.443725
4.247750 8.495500 16.991000
10.584543 10.584543 33.847771
10.729647 11.681313 18.704712
10.573499 12.291289 19.388430
10.029278 11.601115 17.529275
8.495500 12.743250 16.991000
11.681313 10.729647 18.704712
12.291289 10.573499 19.388430
11.601115 10.029278 17.529275
10.729647 5.309688 32.268288
10.573499 4.699711 31.584570
10.029278 5.389885 33.443725
5.309688 6.261353 18.704712
4.699711 6.417501 19.388430
5.389885 6.961722 17.529275
6.261353 11.681313 32.268288
6.417501 12.291289 31.584570
6.961722 11.601115 33.443725
15.277288 11.681313 23.252353
14.593570 12.291289 23.408501
16.452725 11.601115 23.952722
0.000000 12.743250 25.486500
33.982000 12.743250 25.486500
15.277288 5.309688 27.720647
14.593570 4.699711 27.564499
16.452725 5.389885 27.020278
0.000000 4.247750 25.486500
33.982000 4.247750 25.486500
5.309688 1.713712 23.252353
4.699711 2.397430 23.408501
5.389885 0.538275 23.952722
4.247750 0.000000 25.486500
4.247750 33.982000 25.486500
1.713712 11.681313 27.720647
2.397430 12.291289 27.564499
15.635118 9.757931 26.188228
14.904505 10.813072 27.087052
15.225635 9.387527 27.654552
0.538275 11.601115 27.020278
11.681313 15.277288 23.252353
12.291289 14.593570 23.408501
11.601115 16.452725 23.952722
12.743250 0.000000 25.486500
12.743250 33.982000 25.486500
1.713712 5.309688 23.252353
2.397430 4.699711 23.408501
0.538275 5.389885 23.952722
5.309688 15.277288 27.720647
4.699711 14.593570 27.564499
5.389885 16.452725 27.020278
11.681313 1.713712 27.720647
12.291289 2.397430 27.564499
11.601115 0.538275 27.020278
14.901957 8.629729 19.080043
14.756853 6.781788 20.176813
14.913001 6.098070 20.786789
15.395545 9.948230 18.586455
16.289272 9.851382 18.253431
15.390448 10.581995 19.308572
14.822948 10.260865 17.883028
15.457222 7.957225 20.096615
8.629729 2.089043 31.892957
6.781788 2.234147 30.796187
6.098070 2.077999 30.186211
9.948230 1.595455 32.386545
7.957225 1.533778 30.876385
2.089043 8.361271 19.080043
2.234147 10.209212 20.176813
2.077999 10.892930 20.786789
1.533778 9.033775 20.096615
8.361271 14.901957 31.892957
10.209212 14.756853 30.796187
10.892930 14.913001 30.186211
9.033775 15.457222 30.876385
14.901957 8.361271 31.892957
14.756853 10.209212 30.796187
14.913001 10.892930 30.186211
15.395545 7.042770 32.386545
16.289272 7.139618 32.719569
15.390448 6.409005 31.664428
14.822948 6.730135 33.089972
15.457222 9.033775 30.876385
8.361271 2.089043 19.080043
10.209212 2.234147 20.176813
10.892930 2.077999 20.786789
7.042770 1.595455 18.586455
9.033775 1.533778 20.096615
2.089043 8.629729 31.892957
2.234147 6.781788 30.796187
2.077999 6.098070 30.186211
1.533778 7.957225 30.876385
8.629729 14.901957 19.080043
6.781788 14.756853 20.176813
6.098070 14.913001 20.786789
7.957225 15.457222 20.096615
2.089043 14.901957 25.620729
3.185813 14.756853 23.772788
3.795789 14.913001 23.089070
3.105615 15.457222 24.948225
14.901957 14.901957 25.352271
14.756853 13.805187 27.200212
14.913001 13.195211 27.883930
15.457222 13.885385 26.024775
14.901957 2.089043 25.620729
13.805187 2.234147 23.772788
13.195211 2.077999 23.089070
13.885385 1.533778 24.948225
2.089043 2.089043 25.352271
2.234147 3.185813 27.200212
2.077999 3.795789 27.883930
1.533778 3.105615 26.024775
3.185813 2.234147 27.200212
3.795789 2.077999 27.883930
3.105615 1.533778 26.024775
2.234147 13.805187 23.772788
2.077999 13.195211 23.089070
1.533778 13.885385 24.948225
13.805187 14.756853 27.200212
13.195211 14.913001 27.883930
13.885385 15.457222 26.024775
14.756853 3.185813 23.772788
14.913001 3.795789 23.089070
15.457222 3.105615 24.948225
6.781788 3.185813 31.747853
6.098070 3.795789 31.904001
9.851382 1.262431 33.280272
10.581995 2.317572 32.381448
10.260865 0.892028 31.813948
7.957225 3.105615 32.448222
6.781788 13.805187 19.225147
6.098070 13.195211 19.068999
7.957225 13.885385 18.524778
13.805187 10.209212 31.747853
13.195211 10.892930 31.904001
13.885385 9.033775 32.448222
10.209212 3.185813 19.225147
10.892930 3.795789 19.068999
7.139618 1.262431 17.692728
6.409005 2.317572 18.591552
6.730135 0.892028 19.159052
9.033775 3.105615 18.524778
3.185813 6.781788 31.747853
3.795789 6.098070 31.904001
3.105615 7.957225 32.448222
10.209212 13.805187 31.747853
10.892930 13.195211 31.904001
9.033775 13.885385 32.448222
13.805187 6.781788 19.225147
13.195211 6.098070 19.068999
13.885385 7.957225 18.524778
3.185813 10.209212 19.225147
3.795789 10.892930 19.068999
3.105615 9.033775 18.524778
1.433393 10.098194 23.883806
2.342912 10.885835 24.085625
1.602092 8.906915 24.085625
1.602694 15.388306 26.919893
0.653803 14.843052 27.459002
2.147948 16.337197 27.459002
9.928893 15.388306 18.593694
10.097592 16.579585 18.391875
10.838412 14.600665 18.391875
1.433393 6.892806 27.089194
1.602092 8.084085 26.887375
2.342912 6.105165 26.887375
1.602694 7.062107 18.593694
2.390335 6.152588 18.391875
0.411415 6.893408 18.391875
10.098194 10.098194 32.548607
10.643448 9.149303 32.009498
9.149303 10.643448 32.009498
15.557607 6.892806 23.883806
14.648088 6.105165 24.085625
15.388908 8.084085 24.085625
10.098194 15.557607 27.089194
10.885835 14.648088 26.887375
8.906915 15.388908 26.887375
15.388306 1.602694 26.919893
16.337197 2.147948 27.459002
14.843052 0.653803 27.459002
1.602694 1.602694 24.053107
2.147948 0.653803 23.513998
0.653803 2.147948 23.513998
10.098194 6.892806 18.424393
9.149303 6.347552 18.963502
10.643448 7.841697 18.963502
6.892806 15.557607 23.883806
8.084085 15.388908 24.085625
6.105165 14.648088 24.085625
6.892806 1.433393 27.089194
6.105165 2.342912 26.887375
8.084085 1.602092 26.887375
6.892806 10.098194 18.424393
7.841697 10.643448 18.963502
6.347552 9.149303 18.963502
15.388306 15.388306 24.053107
14.843052 16.337197 23.513998
16.337197 14.843052 23.513998
10.098194 1.433393 23.883806
8.906915 1.602092 24.085625
10.885835 2.342912 24.085625
1.602694 9.928893 32.379306
0.411415 10.097592 32.581125
2.390335 10.838412 32.581125
7.062107 15.388306 32.379306
6.152588 14.600665 32.581125
6.893408 16.579585 32.581125
6.406457 17.125229 10.584543
6.261353 32.268288 11.681313
6.417501 31.584570 12.291289
6.961722 33.443725 11.601115
8.495500 16.991000 12.743250
0.134229 27.575543 6.406457
15.277288 27.720647 5.309687
14.593570 27.564499 4.699711
16.452725 27.020278 5.389885
0.000000 25.486500 4.247750
33.982000 25.486500 4.247750
10.584543 33.847771 10.584543
10.729647 18.704712 11.681313
10.573499 19.388430 12.291289
10.029278 17.529275 11.601115
16.856771 23.397457 6.406457
1.713712 23.252353 5.309687
2.397430 23.408501 4.699711
0.538275 23.952722 5.389885
6.406457 33.847771 6.406457
6.261353 18.704712 5.309687
6.417501 19.388430 4.699711
6.961722 17.529275 5.389885
8.495500 16.991000 4.247750
16.856771 27.575543 10.584543
1.713712 27.720647 11.681313
2.397430 27.564499 12.291289
15.538270 27.081955 10.090955
0.538275 27.020278 11.601115
0.000000 25.486500 12.743250
33.982000 25.486500 12.743250
10.584543 17.125229 6.406457
10.729647 32.268288 5.309687
10.573499 31.584570 4.699711
10.029278 33.443725 5.389885
0.134229 23.397457 10.584543
15.277288 23.252353 11.681313
14.593570 23.408501 12.291289
16.452725 23.952722 11.601115
10.584543 23.397457 0.134229
11.681313 23.252353 15.277288
12.291289 23.408501 14.593570
11.601115 23.952722 16.452725
12.743250 25.486500 0.000000
12.743250 25.486500 33.982000
6.406457 23.397457 16.856771
6.261353 22.300687 1.713712
6.417501 21.690711 2.397430
6.900045 23.891045 15.538270
7.793772 24.224069 15.635118
6.894948 23.168928 14.904505
6.327448 24.594472 15.225635
6.961722 22.380885 0.538275
8.495500 21.238750 0.000000
8.495500 21.238750 33.982000
6.406457 27.575543 0.134229
5.309688 27.720647 15.277288
4.699711 27.564499 14.593570
5.389885 27.020278 16.452725
4.247750 25.486500 0.000000
4.247750 25.486500 33.982000
10.584543 27.575543 16.856771
10.729647 28.672313 1.713712
10.573499 29.282289 2.397430
10.029278 28.592115 0.538275
8.495500 29.734250 0.000000
8.495500 29.734250 33.982000
11.681313 27.720647 1.713712
12.291289 27.564499 2.397430
11.601115 27.020278 0.538275
10.729647 22.300687 15.277288
10.573499 21.690711 14.593570
10.029278 22.380885 16.452725
5.309688 23.252353 1.713712
4.699711 23.408501 2.397430
5.389885 23.952722 0.538275
6.261353 28.672313 15.277288
6.417501 29.282289 14.593570
6.961722 28.592115 16.452725
15.277288 28.672313 6.261353
14.593570 29.282289 6.417501
16.452725 28.592115 6.961722
0.000000 29.734250 8.495500
33.982000 29.734250 8.495500
15.277288 22.300687 10.729647
14.593570 21.690711 10.573499
16.452725 22.380885 10.029278
0.000000 21.238750 8.495500
33.982000 21.238750 8.495500
5.309688 18.704712 6.261353
4.699711 19.388430 6.417501
5.389885 17.529275 6.961722
4.247750 16.991000 8.495500
1.713712 28.672313 10.729647
2.397430 29.282289 10.573499
15.635118 26.748931 9.197228
14.904505 27.804072 10.096052
15.225635 26.378528 10.663552
0.538275 28.592115 10.029278
11.681313 32.268288 6.261353
12.291289 31.584570 6.417501
11.601115 33.443725 6.961722
12.743250 16.991000 8.495500
1.713712 22.300687 6.261353
2.397430 21.690711 6.417501
0.538275 22.380885 6.961722
5.309688 32.268288 10.729647
4.699711 31.584570 10.573499
5.389885 33.443725 10.029278
11.681313 18.704712 10.729647
12.291289 19.388430 10.573499
11.601115 17.529275 10.029278
14.901957 25.620729 2.089043
14.756853 23.772788 3.185812
14.913001 23.089070 3.795789
15.395545 26.939230 1.595455
16.289272 26.842382 1.262431
15.390448 27.572995 2.317572
14.822948 27.251865 0.892027
15.457222 24.948225 3.105615
8.629729 19.080043 14.901957
6.781788 19.225147 13.805187
6.098070 19.068999 13.195211
9.948230 18.586455 15.395545
7.957225 18.524778 13.885385
2.089043 25.352271 2.089043
2.234147 27.200212 3.185812
2.077999 27.883930 3.795789
1.533778 26.024775 3.105615
8.361271 31.892957 14.901957
10.209212 31.747853 13.805187
10.892930 31.904001 13.195211
9.033775 32.448222 13.885385
14.901957 25.352271 14.901957
14.756853 27.200212 13.805187
14.913001 27.883930 13.195211
15.395545 24.033769 15.395545
16.289272 24.130618 15.728569
15.390448 23.400005 14.673428
14.822948 23.721135 16.098972
15.457222 26.024775 13.885385
8.361271 19.080043 2.089043
10.209212 19.225147 3.185812
10.892930 19.068999 3.795789
7.042770 18.586455 1.595455
9.033775 18.524778 3.105615
2.089043 25.620729 14.901957
2.234147 23.772788 13.805187
2.077999 23.089070 13.195211
1.533778 24.948225 13.885385
8.629729 31.892957 2.089043
6.781788 31.747853 3.185812
6.098070 31.904001 3.795789
7.957225 32.448222 3.105615
2.089043 31.892957 8.629729
3.185813 31.747853 6.781788
3.795789 31.904001 6.098070
3.105615 32.448222 7.957225
14.901957 31.892957 8.361271
14.756853 30.796187 10.209212
14.913001 30.186211 10.892930
15.457222 30.876385 9.033775
14.901957 19.080043 8.629729
13.805187 19.225147 6.781788
13.195211 19.068999 6.098070
13.885385 18.524778 7.957225
2.089043 19.080043 8.361271
2.234147 20.176813 10.209212
2.077999 20.786789 10.892930
1.533778 20.096615 9.033775
3.185813 19.225147 10.209212
3.795789 19.068999 10.892930
3.105615 18.524778 9.033775
2.234147 30.796187 6.781788
2.077999 30.186211 6.098070
1.533778 30.876385 7.957225
13.805187 31.747853 10.209212
13.195211 31.904001 10.892930
13.885385 32.448222 9.033775
14.756853 20.176813 6.781788
14.913001 20.786789 6.098070
15.457222 20.096615 7.957225
6.781788 20.176813 14.756853
6.098070 20.786789 14.913001
9.851382 18.253431 16.289272
10.581995 19.308572 15.390448
10.260865 17.883028 14.822948
7.957225 20.096615 15.457222
6.781788 30.796187 2.234147
6.098070 30.186211 2.077999
7.957225 30.876385 1.533778
13.805187 27.200212 14.756853
13.195211 27.883930 14.913001
13.885385 26.024775 15.457222
10.209212 20.176813 2.234147
10.892930 20.786789 2.077999
7.139618 18.253431 0.701728
6.409005 19.308572 1.600552
6.730135 17.883028 2.168052
9.033775 20.096615 1.533778
3.185813 23.772788 14.756853
3.795789 23.089070 14.913001
3.105615 24.948225 15.457222
10.209212 30.796187 14.756853
10.892930 30.186211 14.913001
9.033775 30.876385 15.457222
13.805187 23.772788 2.234147
13.195211 23.089070 2.077999
13.885385 24.948225 1.533778
3.185813 27.200212 2.234147
3.795789 27.883930 2.077999
3.105615 26.024775 1.533778
1.433393 27.089194 6.892806
2.342912 27.876835 7.094625
1.602092 25.897915 7.094625
1.602694 32.379306 9.928893
0.653803 31.834052 10.468002
2.147948 33.328197 10.468002
9.928893 32.379306 1.602694
10.097592 33.570585 1.400875
10.838412 31.591665 1.400875
1.433393 23.883806 10.098194
1.602092 25.075085 9.896375
2.342912 23.096165 9.896375
1.602694 24.053107 1.602694
2.390335 23.143588 1.400875
0.411415 23.884408 1.400875
10.098194 27.089194 15.557607
10.643448 26.140303 15.018498
9.149303 27.634448 15.018498
15.557607 23.883806 6.892806
14.648088 23.096165 7.094625
15.388908 25.075085 7.094625
10.098194 32.548607 10.098194
10.885835 31.639088 9.896375
8.906915 32.379908 9.896375
15.388306 18.593694 9.928893
16.337197 19.138948 10.468002
14.843052 17.644803 10.468002
1.602694 18.593694 7.062107
2.147948 17.644803 6.522998
0.653803 19.138948 6.522998
10.098194 23.883806 1.433393
9.149303 23.338552 1.972502
10.643448 24.832697 1.972502
6.892806 32.548607 6.892806
8.084085 32.379908 7.094625
6.105165 31.639088 7.094625
6.892806 18.424393 10.098194
6.105165 19.333912 9.896375
8.084085 18.593092 9.896375
6.892806 27.089194 1.433393
7.841697 27.634448 1.972502
6.347552 26.140303 1.972502
15.388306 32.379306 7.062107
14.843052 33.328197 6.522998
16.337197 31.834052 6.522998
10.098194 18.424393 6.892806
8.906915 18.593092 7.094625
10.885835 19.333912 7.094625
1.602694 26.919893 15.388306
0.411415 27.088592 15.590125
2.390335 27.829412 15.590125
7.062107 32.379306 15.388306
6.152588 31.591665 15.590125
6.893408 33.570585 15.590125
6.406457 17.125229 27.575543
6.261353 32.268288 28.672313
6.417501 31.584570 29.282289
6.961722 33.443725 28.592115
8.495500 16.991000 29.734250
0.134229 27.575543 23.397457
15.277288 27.720647 22.300687
14.593570 27.564499 21.690711
16.452725 27.020278 22.380885
0.000000 25.486500 21.238750
33.982000 25.486500 21.238750
10.584543 33.847771 27.575543
10.729647 18.704712 28.672313
10.573499 19.388430 29.282289
10.029278 17.529275 28.592115
16.856771 23.397457 23.397457
1.713712 23.252353 22.300687
2.397430 23.408501 21.690711
0.538275 23.952722 22.380885
6.406457 33.847771 23.397457
6.261353 18.704712 22.300687
6.417501 19.388430 21.690711
6.961722 17.529275 22.380885
8.495500 16.991000 21.238750
16.856771 27.575543 27.575543
1.713712 27.720647 28.672313
2.397430 27.564499 29.282289
15.538270 27.081955 27.081955
0.538275 27.020278 28.592115
0.000000 25.486500 29.734250
33.982000 25.486500 29.734250
10.584543 17.125229 23.397457
10.729647 32.268288 22.300687
10.573499 31.584570 21.690711
10.029278 33.443725 22.380885
0.134229 23.397457 27.575543
15.277288 23.252353 28.672313
14.593570 23.408501 29.282289
16.452725 23.952722 28.592115
10.584543 23.397457 17.125229
11.681313 23.252353 32.268288
12.291289 23.408501 31.584570
11.601115 23.952722 33.443725
12.743250 25.486500 16.991000
6.406457 23.397457 33.847771
6.261353 22.300687 18.704712
6.417501 21.690711 19.388430
6.900045 23.891045 32.529269
7.793772 24.224069 32.626118
6.894948 23.168928 31.895505
6.327448 24.594472 32.216635
6.961722 22.380885 17.529275
8.495500 21.238750 16.991000
6.406457 27.575543 17.125229
5.309688 27.720647 32.268288
4.699711 27.564499 31.584570
5.389885 27.020278 33.443725
4.247750 25.486500 16.991000
10.584543 27.575543 33.847771
10.729647 28.672313 18.704712
10.573499 29.282289 19.388430
10.029278 28.592115 17.529275
8.495500 29.734250 16.991000
11.681313 27.720647 18.704712
12.291289 27.564499 19.388430
11.601115 27.020278 17.529275
10.729647 22.300687 32.268288
10.573499 21.690711 31.584570
10.029278 22.380885 33.443725
5.309688 23.252353 18.704712
4.699711 23.408501 19.388430
5.389885 23.952722 17.529275
6.261353 28.672313 32.268288
6.417501 29.282289 31.584570
6.961722 28.592115 33.443725
15.277288 28.672313 23.252353
14.593570 29.282289 23.408501
16.452725 28.592115 23.952722
0.000000 29.734250 25.486500
33.982000 29.734250 25.486500
15.277288 22.300687 27.720647
14.593570 21.690711 27.564499
16.452725 22.380885 27.020278
0.000000 21.238750 25.486500
33.982000 21.238750 25.486500
5.309688 18.704712 23.252353
4.699711 19.388430 23.408501
5.389885 17.529275 23.952722
4.247750 16.991000 25.486500
1.713712 28.672313 27.720647
2.397430 29.282289 27.564499
15.635118 26.748931 26.188228
14.904505 27.804072 27.087052
15.225635 26.378528 27.654552
0.538275 28.592115 27.020278
11.681313 32.268288 23.252353
12.291289 31.584570 23.408501
11.601115 33.443725 23.952722
12.743250 16.991000 25.486500
1.713712 22.300687 23.252353
2.397430 21.690711 23.408501
0.538275 22.380885 23.952722
5.309688 32.268288 27.720647
4.699711 31.584570 27.564499
5.389885 33.443725 27.020278
11.681313 18.704712 27.720647
12.291289 19.388430 27.564499
11.601115 17.529275 27.020278
14.901957 25.620729 19.080043
14.756853 23.772788 20.176813
14.913001 23.089070 20.786789
15.395545 26.939230 18.586455
16.289272 26.842382 18.253431
15.390448 27.572995 19.308572
14.822948 27.251865 17.883028
15.457222 24.948225 20.096615
8.629729 19.080043 31.892957
6.781788 19.225147 30.796187
6.098070 19.068999 30.186211
9.948230 18.586455 32.386545
7.957225 18.524778 30.876385
2.089043 25.352271 19.080043
2.234147 27.200212 20.176813
2.077999 27.883930 20.786789
1.533778 26.024775 20.096615
8.361271 31.892957 31.892957
10.209212 31.747853 30.796187
10.892930 31.904001 30.186211
9.033775 32.448222 30.876385
14.901957 25.352271 31.892957
14.756853 27.200212 30.796187
14.913001 27.883930 30.186211
15.395545 24.033770 32.386545
16.289272 24.130618 32.719569
15.390448 23.400005 31.664428
14.822948 23.721135 33.089972
15.457222 26.024775 30.876385
8.361271 19.080043 19.080043
10.209212 19.225147 20.176813
10.892930 19.068999 20.786789
7.042770 18.586455 18.586455
9.033775 18.524778 20.096615
2.089043 25.620729 31.892957
2.234147 23.772788 30.796187
2.077999 23.089070 30.186211
1.533778 24.948225 30.876385
8.629729 31.892957 19.080043
6.781788 31.747853 20.176813
6.098070 31.904001 20.786789
7.957225 32.448222 20.096615
2.089043 31.892957 25.620729
3.185813 31.747853 23.772788
3.795789 31.904001 23.089070
3.105615 32.448222 24.948225
14.901957 31.892957 25.352271
14.756853 30.796187 27.200212
14.913001 30.186211 27.883930
15.457222 30.876385 26.024775
14.901957 19.080043 25.620729
13.805187 19.225147 23.772788
13.195211 19.068999 23.089070
13.885385 18.524778 24.948225
2.089043 19.080043 25.352271
2.234147 20.176813 27.200212
2.077999 20.786789 27.883930
1.533778 20.096615 26.024775
3.185813 19.225147 27.200212
3.795789 19.068999 27.883930
3.105615 18.524778 26.024775
2.234147 30.796187 23.772788
2.077999 30.186211 23.089070
1.533778 30.876385 24.948225
13.805187 31.747853 27.200212
13.195211 31.904001 27.883930
13.885385 32.448222 26.024775
14.756853 20.176813 23.772788
14.913001 20.786789 23.089070
15.457222 20.096615 24.948225
6.781788 20.176813 31.747853
6.098070 20.786789 31.904001
9.851382 18.253431 33.280272
10.581995 19.308572 32.381448
10.260865 17.883028 31.813948
7.957225 20.096615 32.448222
6.781788 30.796187 19.225147
6.098070 30.186211 19.068999
7.957225 30.876385 18.524778
13.805187 27.200212 31.747853
13.195211 27.883930 31.904001
13.885385 26.024775 32.448222
10.209212 20.176813 19.225147
10.892930 20.786789 19.068999
7.139618 18.253431 17.692728
6.409005 19.308572 18.591552
6.730135 17.883028 19.159052
9.033775 20.096615 18.524778
3.185813 23.772788 31.747853
3.795789 23.089070 31.904001
3.105615 24.948225 32.448222
10.209212 30.796187 31.747853
10.892930 30.186211 31.904001
9.033775 30.876385 32.448222
13.805187 23.772788 19.225147
13.195211 23.089070 19.068999
13.885385 24.948225 18.524778
3.185813 27.200212 19.225147
3.795789 27.883930 19.068999
3.105615 26.024775 18.524778
1.433393 27.089194 23.883806
2.342912 27.876835 24.085625
1.602092 25.897915 24.085625
1.602694 32.379306 26.919893
0.653803 31.834052 27.459002
2.147948 33.328197 27.459002
9.928893 32.379306 18.593694
10.097592 33.570585 18.391875
10.838412 31.591665 18.391875
1.433393 23.883806 27.089194
1.602092 25.075085 26.887375
2.342912 23.096165 26.887375
1.602694 24.053107 18.593694
2.390335 23.143588 18.391875
0.411415 23.884408 18.391875
10.098194 27.089194 32.548607
10.643448 26.140303 32.009498
9.149303 27.634448 32.009498
15.557607 23.883806 23.883806
14.648088 23.096165 24.085625
15.388908 25.075085 24.085625
10.098194 32.548607 27.089194
10.885835 31.639088 26.887375
8.906915 32.379908 26.887375
15.388306 18.593694 26.919893
16.337197 19.138948 27.459002
14.843052 17.644803 27.459002
1.602694 18.593694 24.053107
2.147948 17.644803 23.513998
0.653803 19.138948 23.513998
10.098194 23.883806 18.424393
9.149303 23.338552 18.963502
10.643448 24.832697 18.963502
6.892806 32.548607 23.883806
8.084085 32.379908 24.085625
6.105165 31.639088 24.085625
6.892806 18.424393 27.089194
6.105165 19.333912 26.887375
8.084085 18.593092 26.887375
6.892806 27.089194 18.424393
7.841697 27.634448 18.963502
6.347552 26.140303 18.963502
15.388306 32.379306 24.053107
14.843052 33.328197 23.513998
16.337197 31.834052 23.513998
10.098194 18.424393 23.883806
8.906915 18.593092 24.085625
10.885835 19.333912 24.085625
1.602694 26.919893 32.379306
0.411415 27.088592 32.581125
2.390335 27.829412 32.581125
7.062107 32.379306 32.379306
6.152588 31.591665 32.581125
6.893408 33.570585 32.581125
23.397457 0.134229 10.584543
23.252353 15.277288 11.681313
23.408501 14.593570 12.291289
23.952722 16.452725 11.601115
25.486500 0.000000 12.743250
25.486500 33.982000 12.743250
17.125229 10.584543 6.406457
32.268288 10.729647 5.309687
31.584570 10.573499 4.699711
33.443725 10.029278 5.389885
16.991000 8.495500 4.247750
27.575543 16.856771 10.584543
27.720647 1.713712 11.681313
27.564499 2.397430 12.291289
27.020278 0.538275 11.601115
33.847771 6.406457 6.406457
18.704712 6.261353 5.309687
19.388430 6.417501 4.699711
17.529275 6.961722 5.389885
23.397457 16.856771 6.406457
23.252353 1.713712 5.309687
23.408501 2.397430 4.699711
23.952722 0.538275 5.389885
25.486500 0.000000 4.247750
25.486500 33.982000 4.247750
33.847771 10.584543 10.584543
18.704712 10.729647 11.681313
19.388430 10.573499 12.291289
32.529269 10.090955 10.090955
17.529275 10.029278 11.601115
16.991000 8.495500 12.743250
27.575543 0.134229 6.406457
27.720647 15.277288 5.309687
27.564499 14.593570 4.699711
27.020278 16.452725 5.389885
17.125229 6.406457 10.584543
32.268288 6.261353 11.681313
31.584570 6.417501 12.291289
33.443725 6.961722 11.601115
27.575543 6.406457 0.134229
28.672313 6.261353 15.277288
29.282289 6.417501 14.593570
28.592115 6.961722 16.452725
29.734250 8.495500 0.000000
29.734250 8.495500 33.982000
23.397457 6.406457 16.856771
23.252353 5.309687 1.713712
23.408501 4.699711 2.397430
23.891045 6.900045 15.538270
24.784772 7.233069 15.635118
23.885948 6.177928 14.904505
23.318448 7.603472 15.225635
23.952722 5.389885 0.538275
25.486500 4.247750 0.000000
25.486500 4.247750 33.982000
23.397457 10.584543 0.134229
22.300687 10.729647 15.277288
21.690711 10.573499 14.593570
22.380885 10.029278 16.452725
21.238750 8.495500 0.000000
21.238750 8.495500 33.982000
27.575543 10.584543 16.856771
27.720647 11.681313 1.713712
27.564499 12.291289 2.397430
27.020278 11.601115 0.538275
25.486500 12.743250 0.000000
25.486500 12.743250 33.982000
28.672313 10.729647 1.713712
29.282289 10.573499 2.397430
28.592115 10.029278 0.538275
27.720647 5.309688 15.277288
27.564499 4.699711 14.593570
27.020278 5.389885 16.452725
22.300687 6.261353 1.713712
21.690711 6.417501 2.397430
22.380885 6.961722 0.538275
23.252353 11.681313 15.277288
23.408501 12.291289 14.593570
23.952722 11.601115 16.452725
32.268288 11.681313 6.261353
31.584570 12.291289 6.417501
33.443725 11.601115 6.961722
16.991000 12.743250 8.495500
32.268288 5.309688 10.729647
31.584570 4.699711 10.573499
33.443725 5.389885 10.029278
16.991000 4.247750 8.495500
22.300687 1.713712 6.261353
21.690711 2.397430 6.417501
22.380885 0.538275 6.961722
21.238750 0.000000 8.495500
21.238750 33.982000 8.495500
18.704712 11.681313 10.729647
19.388430 12.291289 10.573499
32.626118 9.757931 9.197228
31.895505 10.813072 10.096052
32.216635 9.387527 10.663552
17.529275 11.601115 10.029278
28.672313 15.277288 6.261353
29.282289 14.593570 6.417501
28.592115 16.452725 6.961722
29.734250 0.000000 8.495500
29.734250 33.982000 8.495500
18.704712 5.309687 6.261353
19.388430 4.699711 6.417501
17.529275 5.389885 6.961722
22.300687 15.277288 10.729647
21.690711 14.593570 10.573499
22.380885 16.452725 10.029278
28.672313 1.713712 10.729647
29.282289 2.397430 10.573499
28.592115 0.538275 10.029278
31.892957 8.629729 2.089043
31.747853 6.781788 3.185812
31.904001 6.098070 3.795789
32.386545 9.948230 1.595455
33.280272 9.851382 1.262431
32.381448 10.581995 2.317572
31.813948 10.260865 0.892027
32.448222 7.957225 3.105615
25.620729 2.089043 14.901957
23.772788 2.234147 13.805187
23.089070 2.077999 13.195211
26.939230 1.595455 15.395545
24.948225 1.533778 13.885385
19.080043 8.361271 2.089043
19.225147 10.209212 3.185812
19.068999 10.892930 3.795789
18.524778 9.033775 3.105615
25.352271 14.901957 14.901957
27.200212 14.756853 13.805187
27.883930 14.913001 13.195211
26.024775 15.457222 13.885385
31.892957 8.361271 14.901957
31.747853 10.209212 13.805187
31.904001 10.892930 13.195211
32.386545 7.042770 15.395545
33.280272 7.139618 15.728569
32.381448 6.409005 14.673428
31.813948 6.730135 16.098972
32.448222 9.033775 13.885385
25.352271 2.089043 2.089043
27.200212 2.234147 3.185812
27.883930 2.077999 3.795789
24.033769 1.595455 1.595455
26.024775 1.533778 3.105615
19.080043 8.629729 14.901957
19.225147 6.781788 13.805187
19.068999 6.098070 13.195211
18.524778 7.957225 13.885385
25.620729 14.901957 2.089043
23.772788 14.756853 3.185812
23.089070 14.913001 3.795789
24.948225 15.457222 3.105615
19.080043 14.901957 8.629729
20.176813 14.756853 6.781788
20.786789 14.913001 6.098070
20.096615 15.457222 7.957225
31.892957 14.901957 8.361271
31.747853 13.805187 10.209212
31.904001 13.195211 10.892930
32.448222 13.885385 9.033775
31.892957 2.089043 8.629729
30.796187 2.234147 6.781788
30.186211 2.077999 6.098070
30.876385 1.533778 7.957225
19.080043 2.089043 8.361271
19.225147 3.185813 10.209212
19.068999 3.795789 10.892930
18.524778 3.105615 9.033775
20.176813 2.234147 10.209212
20.786789 2.077999 10.892930
20.096615 1.533778 9.033775
19.225147 13.805187 6.781788
19.068999 13.195211 6.098070
18.524778 13.885385 7.957225
30.796187 14.756853 10.209212
30.186211 14.913001 10.892930
30.876385 15.457222 9.033775
31.747853 3.185813 6.781788
31.904001 3.795789 6.098070
32.448222 3.105615 7.957225
23.772788 3.185813 14.756853
23.089070 3.795789 14.913001
26.842382 1.262431 16.289272
27.572995 2.317572 15.390448
27.251865 0.892028 14.822948
24.948225 3.105615 15.457222
23.772788 13.805187 2.234147
23.089070 13.195211 2.077999
24.948225 13.885385 1.533778
30.796187 10.209212 14.756853
30.186211 10.892930 14.913001
30.876385 9.033775 15.457222
27.200212 3.185812 2.234147
27.883930 3.795789 2.077999
24.130618 1.262431 0.701728
23.400005 2.317572 1.600552
23.721135 0.892028 2.168052
26.024775 3.105615 1.533778
20.176813 6.781788 14.756853
20.786789 6.098070 14.913001
20.096615 7.957225 15.457222
27.200212 13.805187 14.756853
27.883930 13.195211 14.913001
26.024775 13.885385 15.457222
30.796187 6.781788 2.234147
30.186211 6.098070 2.077999
30.876385 7.957225 1.533778
20.176813 10.209212 2.234147
20.786789 10.892930 2.077999
20.096615 9.033775 1.533778
18.424393 10.098194 6.892806
19.333912 10.885835 7.094625
18.593092 8.906915 7.094625
18.593694 15.388306 9.928893
17.644803 14.843052 10.468002
19.138948 16.337197 10.468002
26.919893 15.388306 1.602694
27.088592 16.579585 1.400875
27.829412 14.600665 1.400875
18.424393 6.892806 10.098194
18.593092 8.084085 9.896375
19.333912 6.105165 9.896375
18.593694 7.062107 1.602694
19.381335 6.152588 1.400875
17.402415 6.893408 1.400875
27.089194 10.098194 15.557607
27.634448 9.149303 15.018498
26.140303 10.643448 15.018498
32.548607 6.892806 6.892806
31.639088 6.105165 7.094625
32.379908 8.084085 7.094625
27.089194 15.557607 10.098194
27.876835 14.648088 9.896375
25.897915 15.388908 9.896375
32.379306 1.602694 9.928893
33.328197 2.147948 10.468002
31.834052 0.653803 10.468002
18.593694 1.602694 7.062107
19.138948 0.653803 6.522998
17.644803 2.147948 6.522998
27.089194 6.892806 1.433393
26.140303 6.347552 1.972502
27.634448 7.841697 1.972502
23.883806 15.557607 6.892806
25.075085 15.388908 7.094625
23.096165 14.648088 7.094625
23.883806 1.433393 10.098194
23.096165 2.342912 9.896375
25.075085 1.602092 9.896375
23.883806 10.098194 1.433393
24.832697 10.643448 1.972502
23.338552 9.149303 1.972502
32.379306 15.388306 7.062107
31.834052 16.337197 6.522998
33.328197 14.843052 6.522998
27.089194 1.433393 6.892806
25.897915 1.602092 7.094625
27.876835 2.342912 7.094625
18.593694 9.928893 15.388306
17.402415 10.097592 15.590125
19.381335 10.838412 15.590125
24.053107 15.388306 15.388306
23.143588 14.600665 15.590125
23.884408 16.579585 15.590125
23.397457 0.134229 27.575543
23.252353 15.277288 28.672313
23.408501 14.593570 29.282289
23.952722 16.452725 28.592115
25.486500 0.000000 29.734250
25.486500 33.982000 29.734250
17.125229 10.584543 23.397457
32.268288 10.729647 22.300687
31.584570 10.573499 21.690711
33.443725 10.029278 22.380885
16.991000 8.495500 21.238750
27.575543 16.856771 27.575543
27.720647 1.713712 28.672313
27.564499 2.397430 29.282289
27.020278 0.538275 28.592115
33.847771 6.406457 23.397457
18.704712 6.261353 22.300687
19.388430 6.417501 21.690711
17.529275 6.961722 22.380885
23.397457 16.856771 23.397457
23.252353 1.713712 22.300687
23.408501 2.397430 21.690711
23.952722 0.538275 22.380885
25.486500 0.000000 21.238750
25.486500 33.982000 21.238750
33.847771 10.584543 27.575543
18.704712 10.729647 28.672313
19.388430 10.573499 29.282289
32.529269 10.090955 27.081955
17.529275 10.029278 28.592115
16.991000 8.495500 29.734250
27.575543 0.134229 23.397457
27.720647 15.277288 22.300687
27.564499 14.593570 21.690711
27.020278 16.452725 22.380885
17.125229 6.406457 27.575543
32.268288 6.261353 28.672313
31.584570 6.417501 29.282289
33.443725 6.961722 28.592115
27.575543 6.406457 17.125229
28.672313 6.261353 32.268288
29.282289 6.417501 31.584570
28.592115 6.961722 33.443725
29.734250 8.495500 16.991000
23.397457 6.406457 33.847771
23.252353 5.309688 18.704712
23.408501 4.699711 19.388430
23.891045 6.900045 32.529269
24.784772 7.233069 32.626118
23.885948 6.177928 31.895505
23.318448 7.603472 32.216635
23.952722 5.389885 17.529275
25.486500 4.247750 16.991000
23.397457 10.584543 17.125229
22.300687 10.729647 32.268288
21.690711 10.573499 31.584570
22.380885 10.029278 33.443725
21.238750 8.495500 16.991000
27.575543 10.584543 33.847771
27.720647 11.681313 18.704712
27.564499 12.291289 19.388430
27.020278 11.601115 17.529275
25.486500 12.743250 16.991000
28.672313 10.729647 18.704712
29.282289 10.573499 19.388430
28.592115 10.029278 17.529275
27.720647 5.309688 32.268288
27.564499 4.699711 31.584570
27.020278 5.389885 33.443725
22.300687 6.261353 18.704712
21.690711 6.417501 19.388430
22.380885 6.961722 17.529275
23.252353 11.681313 32.268288
23.408501 12.291289 31.584570
23.952722 11.601115 33.443725
32.268288 11.681313 23.252353
31.584570 12.291289 23.408501
33.443725 11.601115 23.952722
16.991000 12.743250 25.486500
32.268288 5.309688 27.720647
31.584570 4.699711 27.564499
33.443725 5.389885 27.020278
16.991000 4.247750 25.486500
22.300687 1.713712 23.252353
21.690711 2.397430 23.408501
22.380885 0.538275 23.952722
21.238750 0.000000 25.486500
21.238750 33.982000 25.486500
18.704712 11.681313 27.720647
19.388430 12.291289 27.564499
32.626118 9.757931 26.188228
31.895505 10.813072 27.087052
32.216635 9.387527 27.654552
17.529275 11.601115 27.020278
28.672313 15.277288 23.252353
29.282289 14.593570 23.408501
28.592115 16.452725 23.952722
29.734250 0.000000 25.486500
29.734250 33.982000 25.486500
18.704712 5.309688 23.252353
19.388430 4.699711 23.408501
17.529275 5.389885 23.952722
22.300687 15.277288 27.720647
21.690711 14.593570 27.564499
22.380885 16.452725 27.020278
28.672313 1.713712 27.720647
29.282289 2.397430 27.564499
28.592115 0.538275 27.020278
31.892957 8.629729 19.080043
31.747853 6.781788 20.176813
31.904001 6.098070 20.786789
32.386545 9.948230 18.586455
33.280272 9.851382 18.253431
32.381448 10.581995 19.308572
31.813948 10.260865 17.883028
32.448222 7.957225 20.096615
25.620729 2.089043 31.892957
23.772788 2.234147 30.796187
23.089070 2.077999 30.186211
26.939230 1.595455 32.386545
24.948225 1.533778 30.876385
19.080043 8.361271 19.080043
19.225147 10.209212 20.176813
19.068999 10.892930 20.786789
18.524778 9.033775 20.096615
25.352271 14.901957 31.892957
27.200212 14.756853 30.796187
27.883930 14.913001 30.186211
26.024775 15.457222 30.876385
31.892957 8.361271 31.892957
31.747853 10.209212 30.796187
31.904001 10.892930 30.186211
32.386545 7.042770 32.386545
33.280272 7.139618 32.719569
32.381448 6.409005 31.664428
31.813948 6.730135 33.089972
32.448222 9.033775 30.876385
25.352271 2.089043 19.080043
27.200212 2.234147 20.176813
27.883930 2.077999 20.786789
24.033769 1.595455 18.586455
26.024775 1.533778 20.096615
19.080043 8.629729 31.892957
19.225147 6.781788 30.796187
19.068999 6.098070 30.186211
18.524778 7.957225 30.876385
25.620729 14.901957 19.080043
23.772788 14.756853 20.176813
23.089070 14.913001 20.786789
24.948225 15.457222 20.096615
19.080043 14.901957 25.620729
20.176813 14.756853 23.772788
20.786789 14.913001 23.089070
20.096615 15.457222 24.948225
31.892957 14.901957 25.352271
31.747853 13.805187 27.200212
31.904001 13.195211 27.883930
32.448222 13.885385 26.024775
31.892957 2.089043 25.620729
30.796187 2.234147 23.772788
30.186211 2.077999 23.089070
30.876385 1.533778 24.948225
19.080043 2.089043 25.352271
19.225147 3.185813 27.200212
19.068999 3.795789 27.883930
18.524778 3.105615 26.024775
20.176813 2.234147 27.200212
20.786789 2.077999 27.883930
20.096615 1.533778 26.024775
19.225147 13.805187 23.772788
19.068999 13.195211 23.089070
18.524778 13.885385 24.948225
30.796187 14.756853 27.200212
30.186211 14.913001 27.883930
30.876385 15.457222 26.024775
31.747853 3.185813 23.772788
31.904001 3.795789 23.089070
32.448222 3.105615 24.948225
23.772788 3.185813 31.747853
23.089070 3.795789 31.904001
26.842382 1.262431 33.280272
27.572995 2.317572 32.381448
27.251865 0.892028 31.813948
24.948225 3.105615 32.448222
23.772788 13.805187 19.225147
23.089070 13.195211 19.068999
24.948225 13.885385 18.524778
30.796187 10.209212 31.747853
30.186211 10.892930 31.904001
30.876385 9.033775 32.448222
27.200212 3.185813 19.225147
27.883930 3.795789 19.068999
24.130618 1.262431 17.692728
23.400005 2.317572 18.591552
23.721135 0.892028 19.159052
26.024775 3.105615 18.524778
20.176813 6.781788 31.747853
20.786789 6.098070 31.904001
20.096615 7.957225 32.448222
27.200212 13.805187 31.747853
27.883930 13.195211 31.904001
26.024775 13.885385 32.448222
30.796187 6.781788 19.225147
30.186211 6.098070 19.068999
30.876385 7.957225 18.524778
20.176813 10.209212 19.225147
20.786789 10.892930 19.068999
20.096615 9.033775 18.524778
18.424393 10.098194 23.883806
19.333912 10.885835 24.085625
18.593092 8.906915 24.085625
18.593694 15.388306 26.919893
17.644803 14.843052 27.459002
19.138948 16.337197 27.459002
26.919893 15.388306 18.593694
27.088592 16.579585 18.391875
27.829412 14.600665 18.391875
18.424393 6.892806 27.089194
18.593092 8.084085 26.887375
19.333912 6.105165 26.887375
18.593694 7.062107 18.593694
19.381335 6.152588 18.391875
17.402415 6.893408 18.391875
27.089194 10.098194 32.548607
27.634448 9.149303 32.009498
26.140303 10.643448 32.009498
32.548607 6.892806 23.883806
31.639088 6.105165 24.085625
32.379908 8.084085 24.085625
27.089194 15.557607 27.089194
27.876835 14.648088 26.887375
25.897915 15.388908 26.887375
32.379306 1.602694 26.919893
33.328197 2.147948 27.459002
31.834052 0.653803 27.459002
18.593694 1.602694 24.053107
19.138948 0.653803 23.513998
17.644803 2.147948 23.513998
27.089194 6.892806 18.424393
26.140303 6.347552 18.963502
27.634448 7.841697 18.963502
23.883806 15.557607 23.883806
25.075085 15.388908 24.085625
23.096165 14.648088 24.085625
23.883806 1.433393 27.089194
23.096165 2.342912 26.887375
25.075085 1.602092 26.887375
23.883806 10.098194 18.424393
24.832697 10.643448 18.963502
23.338552 9.149303 18.963502
32.379306 15.388306 24.053107
31.834052 16.337197 23.513998
33.328197 14.843052 23.513998
27.089194 1.433393 23.883806
25.897915 1.602092 24.085625
27.876835 2.342912 24.085625
18.593694 9.928893 32.379306
17.402415 10.097592 32.581125
19.381335 10.838412 32.581125
24.053107 15.388306 32.379306
23.143588 14.600665 32.581125
23.884408 16.579585 32.581125
23.397457 17.125229 10.584543
23.252353 32.268288 11.681313
23.408501 31.584570 12.291289
23.952722 33.443725 11.601115
25.486500 16.991000 12.743250
17.125229 27.575543 6.406457
32.268288 27.720647 5.309687
31.584570 27.564499 4.699711
33.443725 27.020278 5.389885
16.991000 25.486500 4.247750
27.575543 33.847771 10.584543
27.720647 18.704712 11.681313
27.564499 19.388430 12.291289
27.020278 17.529275 11.601115
33.847771 23.397457 6.406457
18.704712 23.252353 5.309687
19.388430 23.408501 4.699711
17.529275 23.952722 5.389885
23.397457 33.847771 6.406457
23.252353 18.704712 5.309687
23.408501 19.388430 4.699711
23.952722 17.529275 5.389885
25.486500 16.991000 4.247750
33.847771 27.575543 10.584543
18.704712 27.720647 11.681313
19.388430 27.564499 12.291289
32.529269 27.081955 10.090955
17.529275 27.020278 11.601115
16.991000 25.486500 12.743250
27.575543 17.125229 6.406457
27.720647 32.268288 5.309687
27.564499 31.584570 4.699711
27.020278 33.443725 5.389885
17.125229 23.397457 10.584543
32.268288 23.252353 11.681313
31.584570 23.408501 12.291289
33.443725 23.952722 11.601115
27.575543 23.397457 0.134229
28.672313 23.252353 15.277288
29.282289 23.408501 14.593570
28.592115 23.952722 16.452725
29.734250 25.486500 0.000000
29.734250 25.486500 33.982000
23.397457 23.397457 16.856771
23.252353 22.300687 1.713712
23.408501 21.690711 2.397430
23.891045 23.891045 15.538270
24.784772 24.224069 15.635118
23.885948 23.168928 14.904505
23.318448 24.594472 15.225635
23.952722 22.380885 0.538275
25.486500 21.238750 0.000000
25.486500 21.238750 33.982000
23.397457 27.575543 0.134229
22.300687 27.720647 15.277288
21.690711 27.564499 14.593570
22.380885 27.020278 16.452725
21.238750 25.486500 0.000000
21.238750 25.486500 33.982000
27.575543 27.575543 16.856771
27.720647 28.672313 1.713712
27.564499 29.282289 2.397430
27.020278 28.592115 0.538275
25.486500 29.734250 0.000000
25.486500 29.734250 33.982000
28.672313 27.720647 1.713712
29.282289 27.564499 2.397430
28.592115 27.020278 0.538275
27.720647 22.300687 15.277288
27.564499 21.690711 14.593570
27.020278 22.380885 16.452725
22.300687 23.252353 1.713712
21.690711 23.408501 2.397430
22.380885 23.952722 0.538275
23.252353 28.672313 15.277288
23.408501 29.282289 14.593570
23.952722 28.592115 16.452725
32.268288 28.672313 6.261353
31.584570 29.282289 6.417501
33.443725 28.592115 6.961722
16.991000 29.734250 8.495500
32.268288 22.300687 10.729647
31.584570 21.690711 10.573499
33.443725 22.380885 10.029278
16.991000 21.238750 8.495500
22.300687 18.704712 6.261353
21.690711 19.388430 6.417501
22.380885 17.529275 6.961722
21.238750 16.991000 8.495500
18.704712 28.672313 10.729647
19.388430 29.282289 10.573499
32.626118 26.748931 9.197228
31.895505 27.804072 10.096052
32.216635 26.378528 10.663552
17.529275 28.592115 10.029278
28.672313 32.268288 6.261353
29.282289 31.584570 6.417501
28.592115 33.443725 6.961722
29.734250 16.991000 8.495500
18.704712 22.300687 6.261353
19.388430 21.690711 6.417501
17.529275 22.380885 6.961722
22.300687 32.268288 10.729647
21.690711 31.584570 10.573499
22.380885 33.443725 10.029278
28.672313 18.704712 10.729647
29.282289 19.388430 10.573499
28.592115 17.529275 10.029278
31.892957 25.620729 2.089043
31.747853 23.772788 3.185812
31.904001 23.089070 3.795789
32.386545 26.939230 1.595455
33.280272 26.842382 1.262431
32.381448 27.572995 2.317572
31.813948 27.251865 0.892027
32.448222 24.948225 3.105615
25.620729 19.080043 14.901957
23.772788 19.225147 13.805187
23.089070 19.068999 13.195211
26.939230 18.586455 15.395545
24.948225 18.524778 13.885385
19.080043 25.352271 2.089043
19.225147 27.200212 3.185812
19.068999 27.883930 3.795789
18.524778 26.024775 3.105615
25.352271 31.892957 14.901957
27.200212 31.747853 13.805187
27.883930 31.904001 13.195211
26.024775 32.448222 13.885385
31.892957 25.352271 14.901957
31.747853 27.200212 13.805187
31.904001 27.883930 13.195211
32.386545 24.033769 15.395545
33.280272 24.130618 15.728569
32.381448 23.400005 14.673428
31.813948 23.721135 16.098972
32.448222 26.024775 13.885385
25.352271 19.080043 2.089043
27.200212 19.225147 3.185812
27.883930 19.068999 3.795789
24.033769 18.586455 1.595455
26.024775 18.524778 3.105615
19.080043 25.620729 14.901957
19.225147 23.772788 13.805187
19.068999 23.089070 13.195211
18.524778 24.948225 13.885385
25.620729 31.892957 2.089043
23.772788 31.747853 3.185812
23.089070 31.904001 3.795789
24.948225 32.448222 3.105615
19.080043 31.892957 8.629729
20.176813 31.747853 6.781788
20.786789 31.904001 6.098070
20.096615 32.448222 7.957225
31.892957 31.892957 8.361271
31.747853 30.796187 10.209212
31.904001 30.186211 10.892930
32.448222 30.876385 9.033775
31.892957 19.080043 8.629729
30.796187 19.225147 6.781788
30.186211 19.068999 6.098070
30.876385 18.524778 7.957225
19.080043 19.080043 8.361271
19.225147 20.176813 10.209212
19.068999 20.786789 10.892930
18.524778 20.096615 9.033775
20.176813 19.225147 10.209212
20.786789 19.068999 10.892930
20.096615 18.524778 9.033775
19.225147 30.796187 6.781788
19.068999 30.186211 6.098070
18.524778 30.876385 7.957225
30.796187 31.747853 10.209212
30.186211 31.904001 10.892930
30.876385 32.448222 9.033775
31.747853 20.176813 6.781788
31.904001 20.786789 6.098070
32.448222 20.096615 7.957225
23.772788 20.176813 14.756853
23.089070 20.786789 14.913001
26.842382 18.253431 16.289272
27.572995 19.308572 15.390448
27.251865 17.883028 14.822948
24.948225 20.096615 15.457222
23.772788 30.796187 2.234147
23.089070 30.186211 2.077999
24.948225 30.876385 1.533778
30.796187 27.200212 14.756853
30.186211 27.883930 14.913001
30.876385 26.024775 15.457222
27.200212 20.176813 2.234147
27.883930 20.786789 2.077999
24.130618 18.253431 0.701728
23.400005 19.308572 1.600552
23.721135 17.883028 2.168052
26.024775 20.096615 1.533778
20.176813 23.772788 14.756853
20.786789 23.089070 14.913001
20.096615 24.948225 15.457222
27.200212 30.796187 14.756853
27.883930 30.186211 14.913001
26.024775 30.876385 15.457222
30.796187 23.772788 2.234147
30.186211 23.089070 2.077999
30.876385 24.948225 1.533778
20.176813 27.200212 2.234147
20.786789 27.883930 2.077999
20.096615 26.024775 1.533778
18.424393 27.089194 6.892806
19.333912 27.876835 7.094625
18.593092 25.897915 7.094625
18.593694 32.379306 9.928893
17.644803 31.834052 10.468002
19.138948 33.328197 10.468002
26.919893 32.379306 1.602694
27.088592 33.570585 1.400875
27.829412 31.591665 1.400875
18.424393 23.883806 10.098194
18.593092 25.075085 9.896375
19.333912 23.096165 9.896375
18.593694 24.053107 1.602694
19.381335 23.143588 1.400875
17.402415 23.884408 1.400875
27.089194 27.089194 15.557607
27.634448 26.140303 15.018498
26.140303 27.634448 15.018498
32.548607 23.883806 6.892806
31.639088 23.096165 7.094625
32.379908 25.075085 7.094625
27.089194 32.548607 10.098194
27.876835 31.639088 9.896375
25.897915 32.379908 9.896375
32.379306 18.593694 9.928893
33.328197 19.138948 10.468002
31.834052 17.644803 10.468002
18.593694 18.593694 7.062107
19.138948 17.644803 6.522998
17.644803 19.138948 6.522998
27.089194 23.883806 1.433393
26.140303 23.338552 1.972502
27.634448 24.832697 1.972502
23.883806 32.548607 6.892806
25.075085 32.379908 7.094625
23.096165 31.639088 7.094625
23.883806 18.424393 10.098194
23.096165 19.333912 9.896375
25.075085 18.593092 9.896375
23.883806 27.089194 1.433393
24.832697 27.634448 1.972502
23.338552 26.140303 1.972502
32.379306 32.379306 7.062107
31.834052 33.328197 6.522998
33.328197 31.834052 6.522998
27.089194 18.424393 6.892806
25.897915 18.593092 7.094625
27.876835 19.333912 7.094625
18.593694 26.919893 15.388306
17.402415 27.088592 15.590125
19.381335 27.829412 15.590125
24.053107 32.379306 15.388306
23.143588 31.591665 15.590125
23.884408 33.570585 15.590125
23.397457 17.125229 27.575543
23.252353 32.268288 28.672313
23.408501 31.584570 29.282289
23.952722 33.443725 28.592115
25.486500 16.991000 29.734250
17.125229 27.575543 23.397457
32.268288 27.720647 22.300687
31.584570 27.564499 21.690711
33.443725 27.020278 22.380885
16.991000 25.486500 21.238750
27.575543 33.847771 27.575543
27.720647 18.704712 28.672313
27.564499 19.388430 29.282289
27.020278 17.529275 28.592115
33.847771 23.397457 23.397457
18.704712 23.252353 22.300687
19.388430 23.408501 21.690711
17.529275 23.952722 22.380885
23.397457 33.847771 23.397457
23.252353 18.704712 22.300687
23.408501 19.388430 21.690711
23.952722 17.529275 22.380885
25.486500 16.991000 21.238750
33.847771 27.575543 27.575543
18.704712 27.720647 28.672313
19.388430 27.564499 29.282289
32.529269 27.081955 27.081955
17.529275 27.020278 28.592115
16.991000 25.486500 29.734250
27.575543 17.125229 23.397457
27.720647 32.268288 22.300687
27.564499 31.584570 21.690711
27.020278 33.443725 22.380885
17.125229 23.397457 27.575543
32.268288 23.252353 28.672313
31.584570 23.408501 29.282289
33.443725 23.952722 28.592115
27.575543 23.397457 17.125229
28.672313 23.252353 32.268288
29.282289 23.408501 31.584570
28.592115 23.952722 33.443725
29.734250 25.486500 16.991000
23.397457 23.397457 33.847771
23.252353 22.300687 18.704712
23.408501 21.690711 19.388430
23.891045 23.891045 32.529269
24.784772 24.224069 32.626118
23.885948 23.168928 31.895505
23.318448 24.594472 32.216635
23.952722 22.380885 17.529275
25.486500 21.238750 16.991000
23.397457 27.575543 17.125229
22.300687 27.720647 32.268288
21.690711 27.564499 31.584570
22.380885 27.020278 33.443725
21.238750 25.486500 16.991000
27.575543 27.575543 33.847771
27.720647 28.672313 18.704712
27.564499 29.282289 19.388430
27.020278 28.592115 17.529275
25.486500 29.734250 16.991000
28.672313 27.720647 18.704712
29.282289 27.564499 19.388430
28.592115 27.020278 17.529275
27.720647 22.300687 32.268288
27.564499 21.690711 31.584570
27.020278 22.380885 33.443725
22.300687 23.252353 18.704712
21.690711 23.408501 19.388430
22.380885 23.952722 17.529275
23.252353 28.672313 32.268288
23.408501 29.282289 31.584570
23.952722 28.592115 33.443725
32.268288 28.672313 23.252353
31.584570 29.282289 23.408501
33.443725 28.592115 23.952722
16.991000 29.734250 25.486500
32.268288 22.300687 27.720647
31.584570 21.690711 27.564499
33.443725 22.380885 27.020278
16.991000 21.238750 25.486500
22.300687 18.704712 23.252353
21.690711 19.388430 23.408501
22.380885 17.529275 23.952722
21.238750 16.991000 25.486500
18.704712 28.672313 27.720647
19.388430 29.282289 27.564499
32.626118 26.748931 26.188228
31.895505 27.804072 27.087052
32.216635 26.378528 27.654552
17.529275 28.592115 27.020278
28.672313 32.268288 23.252353
29.282289 31.584570 23.408501
28.592115 33.443725 23.952722
29.734250 16.991000 25.486500
18.704712 22.300687 23.252353
19.388430 21.690711 23.408501
17.529275 22.380885 23.952722
22.300687 32.268288 27.720647
21.690711 31.584570 27.564499
22.380885 33.443725 27.020278
28.672313 18.704712 27.720647
29.282289 19.388430 27.564499
28.592115 17.529275 27.020278
31.892957 25.620729 19.080043
31.747853 23.772788 20.176813
31.904001 23.089070 20.786789
32.386545 26.939230 18.586455
33.280272 26.842382 18.253431
32.381448 27.572995 19.308572
31.813948 27.251865 17.883028
32.448222 24.948225 20.096615
25.620729 19.080043 31.892957
23.772788 19.225147 30.796187
23.089070 19.068999 30.186211
26.939230 18.586455 32.386545
24.948225 18.524778 30.876385
19.080043 25.352271 19.080043
19.225147 27.200212 20.176813
19.068999 27.883930 20.786789
18.524778 26.024775 20.096615
25.352271 31.892957 31.892957
27.200212 31.747853 30.796187
27.883930 31.904001 30.186211
26.024775 32.448222 30.876385
31.892957 25.352271 31.892957
31.747853 27.200212 30.796187
31.904001 27.883930 30.186211
32.386545 24.033770 32.386545
33.280272 24.130618 32.719569
32.381448 23.400005 31.664428
31.813948 23.721135 33.089972
32.448222 26.024775 30.876385
25.352271 19.080043 19.080043
27.200212 19.225147 20.176813
27.883930 19.068999 20.786789
24.033769 18.586455 18.586455
26.024775 18.524778 20.096615
19.080043 25.620729 31.892957
19.225147 23.772788 30.796187
19.068999 23.089070 30.186211
18.524778 24.948225 30.876385
25.620729 31.892957 19.080043
23.772788 31.747853 20.176813
23.089070 31.904001 20.786789
24.948225 32.448222 20.096615
19.080043 31.892957 25.620729
20.176813 31.747853 23.772788
20.786789 31.904001 23.089070
20.096615 32.448222 24.948225
31.892957 31.892957 25.352271
31.747853 30.796187 27.200212
31.904001 30.186211 27.883930
32.448222 30.876385 26.024775
31.892957 19.080043 25.620729
30.796187 19.225147 23.772788
30.186211 19.068999 23.089070
30.876385 18.524778 24.948225
19.080043 19.080043 25.352271
19.225147 20.176813 27.200212
19.068999 20.786789 27.883930
18.524778 20.096615 26.024775
20.176813 19.225147 27.200212
20.786789 19.068999 27.883930
20.096615 18.524778 26.024775
19.225147 30.796187 23.772788
19.068999 30.186211 23.089070
18.524778 30.876385 24.948225
30.796187 31.747853 27.200212
30.186211 31.904001 27.883930
30.876385 32.448222 26.024775
31.747853 20.176813 23.772788
31.904001 20.786789 23.089070
32.448222 20.096615 24.948225
23.772788 20.176813 31.747853
23.089070 20.786789 31.904001
26.842382 18.253431 33.280272
27.572995 19.308572 32.381448
27.251865 17.883028 31.813948
24.948225 20.096615 32.448222
23.772788 30.796187 19.225147
23.089070 30.186211 19.068999
24.948225 30.876385 18.524778
30.796187 27.200212 31.747853
30.186211 27.883930 31.904001
30.876385 26.024775 32.448222
27.200212 20.176813 19.225147
27.883930 20.786789 19.068999
24.130618 18.253431 17.692728
23.400005 19.308572 18.591552
23.721135 17.883028 19.159052
26.024775 20.096615 18.524778
20.176813 23.772788 31.747853
20.786789 23.089070 31.904001
20.096615 24.948225 32.448222
27.200212 30.796187 31.747853
27.883930 30.186211 31.904001
26.024775 30.876385 32.448222
30.796187 23.772788 19.225147
30.186211 23.089070 19.068999
30.876385 24.948225 18.524778
20.176813 27.200212 19.225147
20.786789 27.883930 19.068999
20.096615 26.024775 18.524778
18.424393 27.089194 23.883806
19.333912 27.876835 24.085625
18.593092 25.897915 24.085625
18.593694 32.379306 26.919893
17.644803 31.834052 27.459002
19.138948 33.328197 27.459002
26.919893 32.379306 18.593694
27.088592 33.570585 18.391875
27.829412 31.591665 18.391875
18.424393 23.883806 27.089194
18.593092 25.075085 26.887375
19.333912 23.096165 26.887375
18.593694 24.053107 18.593694
19.381335 23.143588 18.391875
17.402415 23.884408 18.391875
27.089194 27.089194 32.548607
27.634448 26.140303 32.009498
26.140303 27.634448 32.009498
32.548607 23.883806 23.883806
31.639088 23.096165 24.085625
32.379908 25.075085 24.085625
27.089194 32.548607 27.089194
27.876835 31.639088 26.887375
25.897915 32.379908 26.887375
32.379306 18.593694 26.919893
33.328197 19.138948 27.459002
31.834052 17.644803 27.459002
18.593694 18.593694 24.053107
19.138948 17.644803 23.513998
17.644803 19.138948 23.513998
27.089194 23.883806 18.424393
26.140303 23.338552 18.963502
27.634448 24.832697 18.963502
23.883806 32.548607 23.883806
25.075085 32.379908 24.085625
23.096165 31.639088 24.085625
23.883806 18.424393 27.089194
23.096165 19.333912 26.887375
25.075085 18.593092 26.887375
23.883806 27.089194 18.424393
24.832697 27.634448 18.963502
23.338552 26.140303 18.963502
32.379306 32.379306 24.053107
31.834052 33.328197 23.513998
33.328197 31.834052 23.513998
27.089194 18.424393 23.883806
25.897915 18.593092 24.085625
27.876835 19.333912 24.085625
18.593694 26.919893 32.379306
17.402415 27.088592 32.581125
19.381335 27.829412 32.581125
24.053107 32.379306 32.379306
23.143588 31.591665 32.581125
23.884408 33.570585 32.581125
POINT_DATA 2112
SCALARS my_scalars float
LOOKUP_TABLE default
1.7
1.7
1.09
1.55
1.39
1.39
1.7
1.7
1.09
1.55
1.39
1.39
1.7
1.7
1.09
1.55
1.7
1.7
1.09
1.55
1.7
1.7
1.09
1.55
1.39
1.39
1.7
1.7
1.09
1.7
1.55
1.39
1.39
1.7
1.7
1.09
1.55
1.7
1.7
1.09
1.55
1.7
1.7
1.09
1.55
1.39
1.39
1.7
1.7
1.09
1.7
1.09
1.09
1.09
1.55
1.39
1.39
1.7
1.7
1.09
1.55
1.39
1.39
1.7
1.7
1.09
1.55
1.39
1.39
1.7
1.09
1.55
1.7
1.09
1.55
1.7
1.09
1.55
1.7
1.09
1.55
1.7
1.09
1.55
1.39
1.39
1.7
1.09
1.55
1.39
1.39
1.7
1.09
1.55
1.39
1.39
1.7
1.09
1.09
1.09
1.09
1.55
1.7
1.09
1.55
1.39
1.39
1.7
1.09
1.55
1.7
1.09
1.55
1.7
1.09
1.55
1.7
1.7
1.09
1.7
1.09
1.09
1.09
1.55
1.7
1.7
1.09
1.7
1.55
1.7
1.7
1.09
1.55
1.7
1.7
1.09
1.55
1.7
1.7
1.09
1.7
1.09
1.09
1.09
1.55
1.7
1.7
1.09
1.7
1.55
1.7
1.7
1.09
1.55
1.7
1.7
1.09
1.55
1.7
1.7
1.09
1.55
1.7
1.7
1.09
1.55
1.7
1.7
1.09
1.55
1.7
1.7
1.09
1.55
1.7
1.09
1.55
1.7
1.09
1.55
1.7
1.09
1.55
1.7
1.09
1.55
1.7
1.09
1.09
1.09
1.09
1.55
1.7
1.09
1.55
1.7
1.09
1.55
1.7
1.09
1.09
1.09
1.09
1.55
1.7
1.09
1.55
1.7
1.09
1.55
1.7
1.09
1.55
1.7
1.09
1.55
1.55
1.52
1.52
1.55
1.52
1.52
1.55
1.52
1.52
1.55
1.52
1.52
1.55
1.52
1.52
1.55
1.52
1.52
1.55
1.52
1.52
1.55
1.52
1.52
1.55
1.52
1.52
1.55
1.52
1.52
1.55
1.52
1.52
1.55
1.52
1.52
1.55
1.52
1.52
1.55
1.52
1.52
1.55
1.52
1.52
1.55
1.52
1.52
1.55
1.52
1.52
1.55
1.52
1.52
1.7
1.7
1.09
1.55
1.39
1.39
1.7
1.7
1.09
1.55
1.39
1.39
1.7
1.7
1.09
1.55
1.7
1.7
1.09
1.55
1.7
1.7
1.09
1.55
1.39
1.39
1.7
1.7
1.09
1.7
1.55
1.39
1.39
1.7
1.7
1.09
1.55
1.7
1.7
1.09
1.55
1.7
1.7
1.09
1.55
1.39
1.7
1.7
1.09
1.7
1.09
1.09
1.09
1.55
1.39
1.7
1.7
1.09
1.55
1.39
1.7
1.7
1.09
1.55
1.39
1.7
1.09
1.55
1.7
1.09
1.55
1.7
1.09
1.55
1.7
1.09
1.55
1.7
1.09
1.55
1.39
1.39
1.7
1.09
1.55
1.39
1.39
1.7
1.09
1.55
1.39
1.39
1.7
1.09
1.09
1.09
1.09
1.55
1.7
1.09
1.55
1.39
1.39
1.7
1.09
1.55
1.7
1.09
1.55
1.7
1.09
1.55
1.7
1.7
1.09
1.7
1.09
1.09
1.09
1.55
1.7
1.7
1.09
1.7
1.55
1.7
1.7
1.09
1.55
1.7
1.7
1.09
1.55
1.7
1.7
1.09
1.7
1.09
1.09
1.09
1.55
1.7
1.7
1.09
1.7
1.55
1.7
1.7
1.09
1.55
1.7
1.7
1.09
1.55
1.7
1.7
1.09
1.55
1.7
1.7
1.09
1.55
1.7
1.7
1.09
1.55
1.7
1.7
1.09
1.55
1.7
1.09
1.55
1.7
1.09
1.55
1.7
1.09
1.55
1.7
1.09
1.55
1.7
1.09
1.09
1.09
1.09
1.55
1.7
1.09
1.55
1.7
1.09
1.55
1.7
1.09
1.09
1.09
1.09
1.55
1.7
1.09
1.55
1.7
1.09
1.55
1.7
1.09
1.55
1.7
1.09
1.55
1.55
1.52
1.52
1.55
1.52
1.52
1.55
1.52
1.52
1.55
1.52
1.52
1.55
1.52
1.52
1.55
1.52
1.52
1.55
1.52
1.52
1.55
1.52
1.52
1.55
1.52
1.52
1.55
1.52
1.52
1.55
1.52
1.52
1.55
1.52
1.52
1.55
1.52
1.52
1.55
1.52
1.52
1.55
1.52
1.52
1.55
1.52
1.52
1.55
1.52
1.52
1.55
1.52
1.52
1.7
1.7
1.09
1.55
1.39
1.7
1.7
1.09
1.55
1.39
1.39
1.7
1.7
1.09
1.55
1.7
1.7
1.09
1.55
1.7
1.7
1.09
1.55
1.39
1.7
1.7
1.09
1.7
1.55
1.39
1.39
1.7
1.7
1.09
1.55
1.7
1.7
1.09
1.55
1.7
1.7
1.09
1.55
1.39
1.39
1.7
1.7
1.09
1.7
1.09
1.09
1.09
1.55
1.39
1.39
1.7
1.7
1.09
1.55
1.39
1.39
1.7
1.7
1.09
1.55
1.39
1.39
1.7
1.09
1.55
1.7
1.09
1.55
1.7
1.09
1.55
1.7
1.09
1.55
1.7
1.09
1.55
1.39
1.39
1.7
1.09
1.55
1.39
1.39
1.7
1.09
1.55
1.39
1.7
1.09
1.09
1.09
1.09
1.55
1.7
1.09
1.55
1.39
1.7
1.09
1.55
1.7
1.09
1.55
1.7
1.09
1.55
1.7
1.7
1.09
1.7
1.09
1.09
1.09
1.55
1.7
1.7
1.09
1.7
1.55
1.7
1.7
1.09
1.55
1.7
1.7
1.09
1.55
1.7
1.7
1.09
1.7
1.09
1.09
1.09
1.55
1.7
1.7
1.09
1.7
1.55
1.7
1.7
1.09
1.55
1.7
1.7
1.09
1.55
1.7
1.7
1.09
1.55
1.7
1.7
1.09
1.55
1.7
1.7
1.09
1.55
1.7
1.7
1.09
1.55
1.7
1.09
1.55
1.7
1.09
1.55
1.7
1.09
1.55
1.7
1.09
1.55
1.7
1.09
1.09
1.09
1.09
1.55
1.7
1.09
1.55
1.7
1.09
1.55
1.7
1.09
1.09
1.09
1.09
1.55
1.7
1.09
1.55
1.7
1.09
1.55
1.7
1.09
1.55
1.7
1.09
1.55
1.55
1.52
1.52
1.55
1.52
1.52
1.55
1.52
1.52
1.55
1.52
1.52
1.55
1.52
1.52
1.55
1.52
1.52
1.55
1.52
1.52
1.55
1.52
1.52
1.55
1.52
1.52
1.55
1.52
1.52
1.55
1.52
1.52
1.55
1.52
1.52
1.55
1.52
1.52
1.55
1.52
1.52
1.55
1.52
1.52
1.55
1.52
1.52
1.55
1.52
1.52
1.55
1.52
1.52
1.7
1.7
1.09
1.55
1.39
1.7
1.7
1.09
1.55
1.39
1.39
1.7
1.7
1.09
1.55
1.7
1.7
1.09
1.55
1.7
1.7
1.09
1.55
1.39
1.7
1.7
1.09
1.7
1.55
1.39
1.39
1.7
1.7
1.09
1.55
1.7
1.7
1.09
1.55
1.7
1.7
1.09
1.55
1.39
1.7
1.7
1.09
1.7
1.09
1.09
1.09
1.55
1.39
1.7
1.7
1.09
1.55
1.39
1.7
1.7
1.09
1.55
1.39
1.7
1.09
1.55
1.7
1.09
1.55
1.7
1.09
1.55
1.7
1.09
1.55
1.7
1.09
1.55
1.39
1.39
1.7
1.09
1.55
1.39
1.39
1.7
1.09
1.55
1.39
1.7
1.09
1.09
1.09
1.09
1.55
1.7
1.09
1.55
1.39
1.7
1.09
1.55
1.7
1.09
1.55
1.7
1.09
1.55
1.7
1.7
1.09
1.7
1.09
1.09
1.09
1.55
1.7
1.7
1.09
1.7
1.55
1.7
1.7
1.09
1.55
1.7
1.7
1.09
1.55
1.7
1.7
1.09
1.7
1.09
1.09
1.09
1.55
1.7
1.7
1.09
1.7
1.55
1.7
1.7
1.09
1.55
1.7
1.7
1.09
1.55
1.7
1.7
1.09
1.55
1.7
1.7
1.09
1.55
1.7
1.7
1.09
1.55
1.7
1.7
1.09
1.55
1.7
1.09
1.55
1.7
1.09
1.55
1.7
1.09
1.55
1.7
1.09
1.55
1.7
1.09
1.09
1.09
1.09
1.55
1.7
1.09
1.55
1.7
1.09
1.55
1.7
1.09
1.09
1.09
1.09
1.55
1.7
1.09
1.55
1.7
1.09
1.55
1.7
1.09
1.55
1.7
1.09
1.55
1.55
1.52
1.52
1.55
1.52
1.52
1.55
1.52
1.52
1.55
1.52
1.52
1.55
1.52
1.52
1.55
1.52
1.52
1.55
1.52
1.52
1.55
1.52
1.52
1.55
1.52
1.52
1.55
1.52
1.52
1.55
1.52
1.52
1.55
1.52
1.52
1.55
1.52
1.52
1.55
1.52
1.52
1.55
1.52
1.52
1.55
1.52
1.52
1.55
1.52
1.52
1.55
1.52
1.52
1.7
1.7
1.09
1.55
1.39
1.39
1.7
1.7
1.09
1.55
1.39
1.7
1.7
1.09
1.55
1.7
1.7
1.09
1.55
1.7
1.7
1.09
1.55
1.39
1.39
1.7
1.7
1.09
1.7
1.55
1.39
1.7
1.7
1.09
1.55
1.7
1.7
1.09
1.55
1.7
1.7
1.09
1.55
1.39
1.39
1.7
1.7
1.09
1.7
1.09
1.09
1.09
1.55
1.39
1.39
1.7
1.7
1.09
1.55
1.39
1.39
1.7
1.7
1.09
1.55
1.39
1.39
1.7
1.09
1.55
1.7
1.09
1.55
1.7
1.09
1.55
1.7
1.09
1.55
1.7
1.09
1.55
1.39
1.7
1.09
1.55
1.39
1.7
1.09
1.55
1.39
1.39
1.7
1.09
1.09
1.09
1.09
1.55
1.7
1.09
1.55
1.39
1.39
1.7
1.09
1.55
1.7
1.09
1.55
1.7
1.09
1.55
1.7
1.7
1.09
1.7
1.09
1.09
1.09
1.55
1.7
1.7
1.09
1.7
1.55
1.7
1.7
1.09
1.55
1.7
1.7
1.09
1.55
1.7
1.7
1.09
1.7
1.09
1.09
1.09
1.55
1.7
1.7
1.09
1.7
1.55
1.7
1.7
1.09
1.55
1.7
1.7
1.09
1.55
1.7
1.7
1.09
1.55
1.7
1.7
1.09
1.55
1.7
1.7
1.09
1.55
1.7
1.7
1.09
1.55
1.7
1.09
1.55
1.7
1.09
1.55
1.7
1.09
1.55
1.7
1.09
1.55
1.7
1.09
1.09
1.09
1.09
1.55
1.7
1.09
1.55
1.7
1.09
1.55
1.7
1.09
1.09
1.09
1.09
1.55
1.7
1.09
1.55
1.7
1.09
1.55
1.7
1.09
1.55
1.7
1.09
1.55
1.55
1.52
1.52
1.55
1.52
1.52
1.55
1.52
1.52
1.55
1.52
1.52
1.55
1.52
1.52
1.55
1.52
1.52
1.55
1.52
1.52
1.55
1.52
1.52
1.55
1.52
1.52
1.55
1.52
1.52
1.55
1.52
1.52
1.55
1.52
1.52
1.55
1.52
1.52
1.55
1.52
1.52
1.55
1.52
1.52
1.55
1.52
1.52
1.55
1.52
1.52
1.55
1.52
1.52
1.7
1.7
1.09
1.55
1.39
1.39
1.7
1.7
1.09
1.55
1.39
1.7
1.7
1.09
1.55
1.7
1.7
1.09
1.55
1.7
1.7
1.09
1.55
1.39
1.39
1.7
1.7
1.09
1.7
1.55
1.39
1.7
1.7
1.09
1.55
1.7
1.7
1.09
1.55
1.7
1.7
1.09
1.55
1.39
1.7
1.7
1.09
1.7
1.09
1.09
1.09
1.55
1.39
1.7
1.7
1.09
1.55
1.39
1.7
1.7
1.09
1.55
1.39
1.7
1.09
1.55
1.7
1.09
1.55
1.7
1.09
1.55
1.7
1.09
1.55
1.7
1.09
1.55
1.39
1.7
1.09
1.55
1.39
1.7
1.09
1.55
1.39
1.39
1.7
1.09
1.09
1.09
1.09
1.55
1.7
1.09
1.55
1.39
1.39
1.7
1.09
1.55
1.7
1.09
1.55
1.7
1.09
1.55
1.7
1.7
1.09
1.7
1.09
1.09
1.09
1.55
1.7
1.7
1.09
1.7
1.55
1.7
1.7
1.09
1.55
1.7
1.7
1.09
1.55
1.7
1.7
1.09
1.7
1.09
1.09
1.09
1.55
1.7
1.7
1.09
1.7
1.55
1.7
1.7
1.09
1.55
1.7
1.7
1.09
1.55
1.7
1.7
1.09
1.55
1.7
1.7
1.09
1.55
1.7
1.7
1.09
1.55
1.7
1.7
1.09
1.55
1.7
1.09
1.55
1.7
1.09
1.55
1.7
1.09
1.55
1.7
1.09
1.55
1.7
1.09
1.09
1.09
1.09
1.55
1.7
1.09
1.55
1.7
1.09
1.55
1.7
1.09
1.09
1.09
1.09
1.55
1.7
1.09
1.55
1.7
1.09
1.55
1.7
1.09
1.55
1.7
1.09
1.55
1.55
1.52
1.52
1.55
1.52
1.52
1.55
1.52
1.52
1.55
1.52
1.52
1.55
1.52
1.52
1.55
1.52
1.52
1.55
1.52
1.52
1.55
1.52
1.52
1.55
1.52
1.52
1.55
1.52
1.52
1.55
1.52
1.52
1.55
1.52
1.52
1.55
1.52
1.52
1.55
1.52
1.52
1.55
1.52
1.52
1.55
1.52
1.52
1.55
1.52
1.52
1.55
1.52
1.52
1.7
1.7
1.09
1.55
1.39
1.7
1.7
1.09
1.55
1.39
1.7
1.7
1.09
1.55
1.7
1.7
1.09
1.55
1.7
1.7
1.09
1.55
1.39
1.7
1.7
1.09
1.7
1.55
1.39
1.7
1.7
1.09
1.55
1.7
1.7
1.09
1.55
1.7
1.7
1.09
1.55
1.39
1.39
1.7
1.7
1.09
1.7
1.09
1.09
1.09
1.55
1.39
1.39
1.7
1.7
1.09
1.55
1.39
1.39
1.7
1.7
1.09
1.55
1.39
1.39
1.7
1.09
1.55
1.7
1.09
1.55
1.7
1.09
1.55
1.7
1.09
1.55
1.7
1.09
1.55
1.39
1.7
1.09
1.55
1.39
1.7
1.09
1.55
1.39
1.7
1.09
1.09
1.09
1.09
1.55
1.7
1.09
1.55
1.39
1.7
1.09
1.55
1.7
1.09
1.55
1.7
1.09
1.55
1.7
1.7
1.09
1.7
1.09
1.09
1.09
1.55
1.7
1.7
1.09
1.7
1.55
1.7
1.7
1.09
1.55
1.7
1.7
1.09
1.55
1.7
1.7
1.09
1.7
1.09
1.09
1.09
1.55
1.7
1.7
1.09
1.7
1.55
1.7
1.7
1.09
1.55
1.7
1.7
1.09
1.55
1.7
1.7
1.09
1.55
1.7
1.7
1.09
1.55
1.7
1.7
1.09
1.55
1.7
1.7
1.09
1.55
1.7
1.09
1.55
1.7
1.09
1.55
1.7
1.09
1.55
1.7
1.09
1.55
1.7
1.09
1.09
1.09
1.09
1.55
1.7
1.09
1.55
1.7
1.09
1.55
1.7
1.09
1.09
1.09
1.09
1.55
1.7
1.09
1.55
1.7
1.09
1.55
1.7
1.09
1.55
1.7
1.09
1.55
1.55
1.52
1.52
1.55
1.52
1.52
1.55
1.52
1.52
1.55
1.52
1.52
1.55
1.52
1.52
1.55
1.52
1.52
1.55
1.52
1.52
1.55
1.52
1.52
1.55
1.52
1.52
1.55
1.52
1.52
1.55
1.52
1.52
1.55
1.52
1.52
1.55
1.52
1.52
1.55
1.52
1.52
1.55
1.52
1.52
1.55
1.52
1.52
1.55
1.52
1.52
1.55
1.52
1.52
1.7
1.7
1.09
1.55
1.39
1.7
1.7
1.09
1.55
1.39
1.7
1.7
1.09
1.55
1.7
1.7
1.09
1.55
1.7
1.7
1.09
1.55
1.39
1.7
1.7
1.09
1.7
1.55
1.39
1.7
1.7
1.09
1.55
1.7
1.7
1.09
1.55
1.7
1.7
1.09
1.55
1.39
1.7
1.7
1.09
1.7
1.09
1.09
1.09
1.55
1.39
1.7
1.7
1.09
1.55
1.39
1.7
1.7
1.09
1.55
1.39
1.7
1.09
1.55
1.7
1.09
1.55
1.7
1.09
1.55
1.7
1.09
1.55
1.7
1.09
1.55
1.39
1.7
1.09
1.55
1.39
1.7
1.09
1.55
1.39
1.7
1.09
1.09
1.09
1.09
1.55
1.7
1.09
1.55
1.39
1.7
1.09
1.55
1.7
1.09
1.55
1.7
1.09
1.55
1.7
1.7
1.09
1.7
1.09
1.09
1.09
1.55
1.7
1.7
1.09
1.7
1.55
1.7
1.7
1.09
1.55
1.7
1.7
1.09
1.55
1.7
1.7
1.09
1.7
1.09
1.09
1.09
1.55
1.7
1.7
1.09
1.7
1.55
1.7
1.7
1.09
1.55
1.7
1.7
1.09
1.55
1.7
1.7
1.09
1.55
1.7
1.7
1.09
1.55
1.7
1.7
1.09
1.55
1.7
1.7
1.09
1.55
1.7
1.09
1.55
1.7
1.09
1.55
1.7
1.09
1.55
1.7
1.09
1.55
1.7
1.09
1.09
1.09
1.09
1.55
1.7
1.09
1.55
1.7
1.09
1.55
1.7
1.09
1.09
1.09
1.09
1.55
1.7
1.09
1.55
1.7
1.09
1.55
1.7
1.09
1.55
1.7
1.09
1.55
1.55
1.52
1.52
1.55
1.52
1.52
1.55
1.52
1.52
1.55
1.52
1.52
1.55
1.52
1.52
1.55
1.52
1.52
1.55
1.52
1.52
1.55
1.52
1.52
1.55
1.52
1.52
1.55
1.52
1.52
1.55
1.52
1.52
1.55
1.52
1.52
1.55
1.52
1.52
1.55
1.52
1.52
1.55
1.52
1.52
1.55
1.52
1.52
1.55
1.52
1.52
1.55
1.52
1.52
VECTORS vectors float
0.3125 0 0
0.3125 0 0
0.25 0 0
0 0 0
0.4375 0 0
0.4375 0 0
0.3125 0 0
0.3125 0 0
0.25 0 0
0 0 0
0.4375 0 0
0.4375 0 0
0.3125 0 0
0.3125 0 0
0.25 0 0
0 0 0
0.3125 0 0
0.3125 0 0
0.25 0 0
0 0 0
0.3125 0 0
0.3125 0 0
0.25 0 0
0 0 0
0.4375 0 0
0.4375 0 0
0.3125 0 0
0.3125 0 0
0.25 0 0
0.3125 0 0
0 0 0
0.4375 0 0
0.4375 0 0
0.3125 0 0
0.3125 0 0
0.25 0 0
0 0 0
0.3125 0 0
0.3125 0 0
0.25 0 0
0 0 0
0.3125 0 0
0.3125 0 0
0.25 0 0
0 0 0
0.4375 0 0
0.4375 0 0
0.3125 0 0
0.3125 0 0
0.25 0 0
0.3125 0 0
0.25 0 0
0.25 0 0
0.25 0 0
0 0 0
0.4375 0 0
0.4375 0 0
0.3125 0 0
0.3125 0 0
0.25 0 0
0 0 0
0.4375 0 0
0.4375 0 0
0.3125 0 0
0.3125 0 0
0.25 0 0
0 0 0
0.4375 0 0
0.4375 0 0
0.3125 0 0
0.25 0 0
0 0 0
0.3125 0 0
0.25 0 0
0 0 0
0.3125 0 0
0.25 0 0
0 0 0
0.3125 0 0
0.25 0 0
0 0 0
0.3125 0 0
0.25 0 0
0 0 0
0.4375 0 0
0.4375 0 0
0.3125 0 0
0.25 0 0
0 0 0
0.4375 0 0
0.4375 0 0
0.3125 0 0
0.25 0 0
0 0 0
0.4375 0 0
0.4375 0 0
0.3125 0 0
0.25 0 0
0.25 0 0
0.25 0 0
0.25 0 0
0 0 0
0.3125 0 0
0.25 0 0
0 0 0
0.4375 0 0
0.4375 0 0
0.3125 0 0
0.25 0 0
0 0 0
0.3125 0 0
0.25 0 0
0 0 0
0.3125 0 0
0.25 0 0
0 0 0
0.3125 0 0
0.3125 0 0
0.25 0 0
0.3125 0 0
0.25 0 0
0.25 0 0
0.25 0 0
0 0 0
0.3125 0 0
0.3125 0 0
0.25 0 0
0.3125 0 0
0 0 0
0.3125 0 0
0.3125 0 0
0.25 0 0
0 0 0
0.3125 0 0
0.3125 0 0
0.25 0 0
0 0 0
0.3125 0 0
0.3125 0 0
0.25 0 0
0.3125 0 0
0.25 0 0
0.25 0 0
0.25 0 0
0 0 0
0.3125 0 0
0.3125 0 0
0.25 0 0
0.3125 0 0
0 0 0
0.3125 0 0
0.3125 0 0
0.25 0 0
0 0 0
0.3125 0 0
0.3125 0 0
0.25 0 0
0 0 0
0.3125 0 0
0.3125 0 0
0.25 0 0
0 0 0
0.3125 0 0
0.3125 0 0
0.25 0 0
0 0 0
0.3125 0 0
0.3125 0 0
0.25 0 0
0 0 0
0.3125 0 0
0.3125 0 0
0.25 0 0
0 0 0
0.3125 0 0
0.25 0 0
0 0 0
0.3125 0 0
0.25 0 0
0 0 0
0.3125 0 0
0.25 0 0
0 0 0
0.3125 0 0
0.25 0 0
0 0 0
0.3125 0 0
0.25 0 0
0.25 0 0
0.25 0 0
0.25 0 0
0 0 0
0.3125 0 0
0.25 0 0
0 0 0
0.3125 0 0
0.25 0 0
0 0 0
0.3125 0 0
0.25 0 0
0.25 0 0
0.25 0 0
0.25 0 0
0 0 0
0.3125 0 0
0.25 0 0
0 0 0
0.3125 0 0
0.25 0 0
0 0 0
0.3125 0 0
0.25 0 0
0 0 0
0.3125 0 0
0.25 0 0
0 0 0
0 0 0
0.03125 0 0
0.03125 0 0
0 0 0
0.03125 0 0
0.03125 0 0
0 0 0
0.03125 0 0
0.03125 0 0
0 0 0
0.03125 0 0
0.03125 0 0
0 0 0
0.03125 0 0
0.03125 0 0
0 0 0
0.03125 0 0
0.03125 0 0
0 0 0
0.03125 0 0
0.03125 0 0
0 0 0
0.03125 0 0
0.03125 0 0
0 0 0
0.03125 0 0
0.03125 0 0
0 0 0
0.03125 0 0
0.03125 0 0
0 0 0
0.03125 0 0
0.03125 0 0
0 0 0
0.03125 0 0
0.03125 0 0
0 0 0
0.03125 0 0
0.03125 0 0
0 0 0
0.03125 0 0
0.03125 0 0
0 0 0
0.03125 0 0
0.03125 0 0
0 0 0
0.03125 0 0
0.03125 0 0
0 0 0
0.03125 0 0
0.03125 0 0
0 0 0
0.03125 0 0
0.03125 0 0
0.3125 0 0
0.3125 0 0
0.25 0 0
0 0 0
0.4375 0 0
0.4375 0 0
0.3125 0 0
0.3125 0 0
0.25 0 0
0 0 0
0.4375 0 0
0.4375 0 0
0.3125 0 0
0.3125 0 0
0.25 0 0
0 0 0
0.3125 0 0
0.3125 0 0
0.25 0 0
0 0 0
0.3125 0 0
0.3125 0 0
0.25 0 0
0 0 0
0.4375 0 0
0.4375 0 0
0.3125 0 0
0.3125 0 0
0.25 0 0
0.3125 0 0
0 0 0
0.4375 0 0
0.4375 0 0
0.3125 0 0
0.3125 0 0
0.25 0 0
0 0 0
0.3125 0 0
0.3125 0 0
0.25 0 0
0 0 0
0.3125 0 0
0.3125 0 0
0.25 0 0
0 0 0
0.4375 0 0
0.3125 0 0
0.3125 0 0
0.25 0 0
0.3125 0 0
0.25 0 0
0.25 0 0
0.25 0 0
0 0 0
0.4375 0 0
0.3125 0 0
0.3125 0 0
0.25 0 0
0 0 0
0.4375 0 0
0.3125 0 0
0.3125 0 0
0.25 0 0
0 0 0
0.4375 0 0
0.3125 0 0
0.25 0 0
0 0 0
0.3125 0 0
0.25 0 0
0 0 0
0.3125 0 0
0.25 0 0
0 0 0
0.3125 0 0
0.25 0 0
0 0 0
0.3125 0 0
0.25 0 0
0 0 0
0.4375 0 0
0.4375 0 0
0.3125 0 0
0.25 0 0
0 0 0
0.4375 0 0
0.4375 0 0
0.3125 0 0
0.25 0 0
0 0 0
0.4375 0 0
0.4375 0 0
0.3125 0 0
0.25 0 0
0.25 0 0
0.25 0 0
0.25 0 0
0 0 0
0.3125 0 0
0.25 0 0
0 0 0
0.4375 0 0
0.4375 0 0
0.3125 0 0
0.25 0 0
0 0 0
0.3125 0 0
0.25 0 0
0 0 0
0.3125 0 0
0.25 0 0
0 0 0
0.3125 0 0
0.3125 0 0
0.25 0 0
0.3125 0 0
0.25 0 0
0.25 0 0
0.25 0 0
0 0 0
0.3125 0 0
0.3125 0 0
0.25 0 0
0.3125 0 0
0 0 0
0.3125 0 0
0.3125 0 0
0.25 0 0
0 0 0
0.3125 0 0
0.3125 0 0
0.25 0 0
0 0 0
0.3125 0 0
0.3125 0 0
0.25 0 0
0.3125 0 0
0.25 0 0
0.25 0 0
0.25 0 0
0 0 0
0.3125 0 0
0.3125 0 0
0.25 0 0
0.3125 0 0
0 0 0
0.3125 0 0
0.3125 0 0
0.25 0 0
0 0 0
0.3125 0 0
0.3125 0 0
0.25 0 0
0 0 0
0.3125 0 0
0.3125 0 0
0.25 0 0
0 0 0
0.3125 0 0
0.3125 0 0
0.25 0 0
0 0 0
0.3125 0 0
0.3125 0 0
0.25 0 0
0 0 0
0.3125 0 0
0.3125 0 0
0.25 0 0
0 0 0
0.3125 0 0
0.25 0 0
0 0 0
0.3125 0 0
0.25 0 0
0 0 0
0.3125 0 0
0.25 0 0
0 0 0
0.3125 0 0
0.25 0 0
0 0 0
0.3125 0 0
0.25 0 0
0.25 0 0
0.25 0 0
0.25 0 0
0 0 0
0.3125 0 0
0.25 0 0
0 0 0
0.3125 0 0
0.25 0 0
0 0 0
0.3125 0 0
0.25 0 0
0.25 0 0
0.25 0 0
0.25 0 0
0 0 0
0.3125 0 0
0.25 0 0
0 0 0
0.3125 0 0
0.25 0 0
0 0 0
0.3125 0 0
0.25 0 0
0 0 0
0.3125 0 0
0.25 0 0
0 0 0
0 0 0
0.03125 0 0
0.03125 0 0
0 0 0
0.03125 0 0
0.03125 0 0
0 0 0
0.03125 0 0
0.03125 0 0
0 0 0
0.03125 0 0
0.03125 0 0
0 0 0
0.03125 0 0
0.03125 0 0
0 0 0
0.03125 0 0
0.03125 0 0
0 0 0
0.03125 0 0
0.03125 0 0
0 0 0
0.03125 0 0
0.03125 0 0
0 0 0
0.03125 0 0
0.03125 0 0
0 0 0
0.03125 0 0
0.03125 0 0
0 0 0
0.03125 0 0
0.03125 0 0
0 0 0
0.03125 0 0
0.03125 0 0
0 0 0
0.03125 0 0
0.03125 0 0
0 0 0
0.03125 0 0
0.03125 0 0
0 0 0
0.03125 0 0
0.03125 0 0
0 0 0
0.03125 0 0
0.03125 0 0
0 0 0
0.03125 0 0
0.03125 0 0
0 0 0
0.03125 0 0
0.03125 0 0
0.3125 0 0
0.3125 0 0
0.25 0 0
0 0 0
0.4375 0 0
0.3125 0 0
0.3125 0 0
0.25 0 0
0 0 0
0.4375 0 0
0.4375 0 0
0.3125 0 0
0.3125 0 0
0.25 0 0
0 0 0
0.3125 0 0
0.3125 0 0
0.25 0 0
0 0 0
0.3125 0 0
0.3125 0 0
0.25 0 0
0 0 0
0.4375 0 0
0.3125 0 0
0.3125 0 0
0.25 0 0
0.3125 0 0
0 0 0
0.4375 0 0
0.4375 0 0
0.3125 0 0
0.3125 0 0
0.25 0 0
0 0 0
0.3125 0 0
0.3125 0 0
0.25 0 0
0 0 0
0.3125 0 0
0.3125 0 0
0.25 0 0
0 0 0
0.4375 0 0
0.4375 0 0
0.3125 0 0
0.3125 0 0
0.25 0 0
0.3125 0 0
0.25 0 0
0.25 0 0
0.25 0 0
0 0 0
0.4375 0 0
0.4375 0 0
0.3125 0 0
0.3125 0 0
0.25 0 0
0 0 0
0.4375 0 0
0.4375 0 0
0.3125 0 0
0.3125 0 0
0.25 0 0
0 0 0
0.4375 0 0
0.4375 0 0
0.3125 0 0
0.25 0 0
0 0 0
0.3125 0 0
0.25 0 0
0 0 0
0.3125 0 0
0.25 0 0
0 0 0
0.3125 0 0
0.25 0 0
0 0 0
0.3125 0 0
0.25 0 0
0 0 0
0.4375 0 0
0.4375 0 0
0.3125 0 0
0.25 0 0
0 0 0
0.4375 0 0
0.4375 0 0
0.3125 0 0
0.25 0 0
0 0 0
0.4375 0 0
0.3125 0 0
0.25 0 0
0.25 0 0
0.25 0 0
0.25 0 0
0 0 0
0.3125 0 0
0.25 0 0
0 0 0
0.4375 0 0
0.3125 0 0
0.25 0 0
0 0 0
0.3125 0 0
0.25 0 0
0 0 0
0.3125 0 0
0.25 0 0
0 0 0
0.3125 0 0
0.3125 0 0
0.25 0 0
0.3125 0 0
0.25 0 0
0.25 0 0
0.25 0 0
0 0 0
0.3125 0 0
0.3125 0 0
0.25 0 0
0.3125 0 0
0 0 0
0.3125 0 0
0.3125 0 0
0.25 0 0
0 0 0
0.3125 0 0
0.3125 0 0
0.25 0 0
0 0 0
0.3125 0 0
0.3125 0 0
0.25 0 0
0.3125 0 0
0.25 0 0
0.25 0 0
0.25 0 0
0 0 0
0.3125 0 0
0.3125 0 0
0.25 0 0
0.3125 0 0
0 0 0
0.3125 0 0
0.3125 0 0
0.25 0 0
0 0 0
0.3125 0 0
0.3125 0 0
0.25 0 0
0 0 0
0.3125 0 0
0.3125 0 0
0.25 0 0
0 0 0
0.3125 0 0
0.3125 0 0
0.25 0 0
0 0 0
0.3125 0 0
0.3125 0 0
0.25 0 0
0 0 0
0.3125 0 0
0.3125 0 0
0.25 0 0
0 0 0
0.3125 0 0
0.25 0 0
0 0 0
0.3125 0 0
0.25 0 0
0 0 0
0.3125 0 0
0.25 0 0
0 0 0
0.3125 0 0
0.25 0 0
0 0 0
0.3125 0 0
0.25 0 0
0.25 0 0
0.25 0 0
0.25 0 0
0 0 0
0.3125 0 0
0.25 0 0
0 0 0
0.3125 0 0
0.25 0 0
0 0 0
0.3125 0 0
0.25 0 0
0.25 0 0
0.25 0 0
0.25 0 0
0 0 0
0.3125 0 0
0.25 0 0
0 0 0
0.3125 0 0
0.25 0 0
0 0 0
0.3125 0 0
0.25 0 0
0 0 0
0.3125 0 0
0.25 0 0
0 0 0
0 0 0
0.03125 0 0
0.03125 0 0
0 0 0
0.03125 0 0
0.03125 0 0
0 0 0
0.03125 0 0
0.03125 0 0
0 0 0
0.03125 0 0
0.03125 0 0
0 0 0
0.03125 0 0
0.03125 0 0
0 0 0
0.03125 0 0
0.03125 0 0
0 0 0
0.03125 0 0
0.03125 0 0
0 0 0
0.03125 0 0
0.03125 0 0
0 0 0
0.03125 0 0
0.03125 0 0
0 0 0
0.03125 0 0
0.03125 0 0
0 0 0
0.03125 0 0
0.03125 0 0
0 0 0
0.03125 0 0
0.03125 0 0
0 0 0
0.03125 0 0
0.03125 0 0
0 0 0
0.03125 0 0
0.03125 0 0
0 0 0
0.03125 0 0
0.03125 0 0
0 0 0
0.03125 0 0
0.03125 0 0
0 0 0
0.03125 0 0
0.03125 0 0
0 0 0
0.03125 0 0
0.03125 0 0
0.3125 0 0
0.3125 0 0
0.25 0 0
0 0 0
0.4375 0 0
0.3125 0 0
0.3125 0 0
0.25 0 0
0 0 0
0.4375 0 0
0.4375 0 0
0.3125 0 0
0.3125 0 0
0.25 0 0
0 0 0
0.3125 0 0
0.3125 0 0
0.25 0 0
0 0 0
0.3125 0 0
0.3125 0 0
0.25 0 0
0 0 0
0.4375 0 0
0.3125 0 0
0.3125 0 0
0.25 0 0
0.3125 0 0
0 0 0
0.4375 0 0
0.4375 0 0
0.3125 0 0
0.3125 0 0
0.25 0 0
0 0 0
0.3125 0 0
0.3125 0 0
0.25 0 0
0 0 0
0.3125 0 0
0.3125 0 0
0.25 0 0
0 0 0
0.4375 0 0
0.3125 0 0
0.3125 0 0
0.25 0 0
0.3125 0 0
0.25 0 0
0.25 0 0
0.25 0 0
0 0 0
0.4375 0 0
0.3125 0 0
0.3125 0 0
0.25 0 0
0 0 0
0.4375 0 0
0.3125 0 0
0.3125 0 0
0.25 0 0
0 0 0
0.4375 0 0
0.3125 0 0
0.25 0 0
0 0 0
0.3125 0 0
0.25 0 0
0 0 0
0.3125 0 0
0.25 0 0
0 0 0
0.3125 0 0
0.25 0 0
0 0 0
0.3125 0 0
0.25 0 0
0 0 0
0.4375 0 0
0.4375 0 0
0.3125 0 0
0.25 0 0
0 0 0
0.4375 0 0
0.4375 0 0
0.3125 0 0
0.25 0 0
0 0 0
0.4375 0 0
0.3125 0 0
0.25 0 0
0.25 0 0
0.25 0 0
0.25 0 0
0 0 0
0.3125 0 0
0.25 0 0
0 0 0
0.4375 0 0
0.3125 0 0
0.25 0 0
0 0 0
0.3125 0 0
0.25 0 0
0 0 0
0.3125 0 0
0.25 0 0
0 0 0
0.3125 0 0
0.3125 0 0
0.25 0 0
0.3125 0 0
0.25 0 0
0.25 0 0
0.25 0 0
0 0 0
0.3125 0 0
0.3125 0 0
0.25 0 0
0.3125 0 0
0 0 0
0.3125 0 0
0.3125 0 0
0.25 0 0
0 0 0
0.3125 0 0
0.3125 0 0
0.25 0 0
0 0 0
0.3125 0 0
0.3125 0 0
0.25 0 0
0.3125 0 0
0.25 0 0
0.25 0 0
0.25 0 0
0 0 0
0.3125 0 0
0.3125 0 0
0.25 0 0
0.3125 0 0
0 0 0
0.3125 0 0
0.3125 0 0
0.25 0 0
0 0 0
0.3125 0 0
0.3125 0 0
0.25 0 0
0 0 0
0.3125 0 0
0.3125 0 0
0.25 0 0
0 0 0
0.3125 0 0
0.3125 0 0
0.25 0 0
0 0 0
0.3125 0 0
0.3125 0 0
0.25 0 0
0 0 0
0.3125 0 0
0.3125 0 0
0.25 0 0
0 0 0
0.3125 0 0
0.25 0 0
0 0 0
0.3125 0 0
0.25 0 0
0 0 0
0.3125 0 0
0.25 0 0
0 0 0
0.3125 0 0
0.25 0 0
0 0 0
0.3125 0 0
0.25 0 0
0.25 0 0
0.25 0 0
0.25 0 0
0 0 0
0.3125 0 0
0.25 0 0
0 0 0
0.3125 0 0
0.25 0 0
0 0 0
0.3125 0 0
0.25 0 0
0.25 0 0
0.25 0 0
0.25 0 0
0 0 0
0.3125 0 0
0.25 0 0
0 0 0
0.3125 0 0
0.25 0 0
0 0 0
0.3125 0 0
0.25 0 0
0 0 0
0.3125 0 0
0.25 0 0
0 0 0
0 0 0
0.03125 0 0
0.03125 0 0
0 0 0
0.03125 0 0
0.03125 0 0
0 0 0
0.03125 0 0
0.03125 0 0
0 0 0
0.03125 0 0
0.03125 0 0
0 0 0
0.03125 0 0
0.03125 0 0
0 0 0
0.03125 0 0
0.03125 0 0
0 0 0
0.03125 0 0
0.03125 0 0
0 0 0
0.03125 0 0
0.03125 0 0
0 0 0
0.03125 0 0
0.03125 0 0
0 0 0
0.03125 0 0
0.03125 0 0
0 0 0
0.03125 0 0
0.03125 0 0
0 0 0
0.03125 0 0
0.03125 0 0
0 0 0
0.03125 0 0
0.03125 0 0
0 0 0
0.03125 0 0
0.03125 0 0
0 0 0
0.03125 0 0
0.03125 0 0
0 0 0
0.03125 0 0
0.03125 0 0
0 0 0
0.03125 0 0
0.03125 0 0
0 0 0
0.03125 0 0
0.03125 0 0
0.3125 0 0
0.3125 0 0
0.25 0 0
0 0 0
0.4375 0 0
0.4375 0 0
0.3125 0 0
0.3125 0 0
0.25 0 0
0 0 0
0.4375 0 0
0.3125 0 0
0.3125 0 0
0.25 0 0
0 0 0
0.3125 0 0
0.3125 0 0
0.25 0 0
0 0 0
0.3125 0 0
0.3125 0 0
0.25 0 0
0 0 0
0.4375 0 0
0.4375 0 0
0.3125 0 0
0.3125 0 0
0.25 0 0
0.3125 0 0
0 0 0
0.4375 0 0
0.3125 0 0
0.3125 0 0
0.25 0 0
0 0 0
0.3125 0 0
0.3125 0 0
0.25 0 0
0 0 0
0.3125 0 0
0.3125 0 0
0.25 0 0
0 0 0
0.4375 0 0
0.4375 0 0
0.3125 0 0
0.3125 0 0
0.25 0 0
0.3125 0 0
0.25 0 0
0.25 0 0
0.25 0 0
0 0 0
0.4375 0 0
0.4375 0 0
0.3125 0 0
0.3125 0 0
0.25 0 0
0 0 0
0.4375 0 0
0.4375 0 0
0.3125 0 0
0.3125 0 0
0.25 0 0
0 0 0
0.4375 0 0
0.4375 0 0
0.3125 0 0
0.25 0 0
0 0 0
0.3125 0 0
0.25 0 0
0 0 0
0.3125 0 0
0.25 0 0
0 0 0
0.3125 0 0
0.25 0 0
0 0 0
0.3125 0 0
0.25 0 0
0 0 0
0.4375 0 0
0.3125 0 0
0.25 0 0
0 0 0
0.4375 0 0
0.3125 0 0
0.25 0 0
0 0 0
0.4375 0 0
0.4375 0 0
0.3125 0 0
0.25 0 0
0.25 0 0
0.25 0 0
0.25 0 0
0 0 0
0.3125 0 0
0.25 0 0
0 0 0
0.4375 0 0
0.4375 0 0
0.3125 0 0
0.25 0 0
0 0 0
0.3125 0 0
0.25 0 0
0 0 0
0.3125 0 0
0.25 0 0
0 0 0
0.3125 0 0
0.3125 0 0
0.25 0 0
0.3125 0 0
0.25 0 0
0.25 0 0
0.25 0 0
0 0 0
0.3125 0 0
0.3125 0 0
0.25 0 0
0.3125 0 0
0 0 0
0.3125 0 0
0.3125 0 0
0.25 0 0
0 0 0
0.3125 0 0
0.3125 0 0
0.25 0 0
0 0 0
0.3125 0 0
0.3125 0 0
0.25 0 0
0.3125 0 0
0.25 0 0
0.25 0 0
0.25 0 0
0 0 0
0.3125 0 0
0.3125 0 0
0.25 0 0
0.3125 0 0
0 0 0
0.3125 0 0
0.3125 0 0
0.25 0 0
0 0 0
0.3125 0 0
0.3125 0 0
0.25 0 0
0 0 0
0.3125 0 0
0.3125 0 0
0.25 0 0
0 0 0
0.3125 0 0
0.3125 0 0
0.25 0 0
0 0 0
0.3125 0 0
0.3125 0 0
0.25 0 0
0 0 0
0.3125 0 0
0.3125 0 0
0.25 0 0
0 0 0
0.3125 0 0
0.25 0 0
0 0 0
0.3125 0 0
0.25 0 0
0 0 0
0.3125 0 0
0.25 0 0
0 0 0
0.3125 0 0
0.25 0 0
0 0 0
0.3125 0 0
0.25 0 0
0.25 0 0
0.25 0 0
0.25 0 0
0 0 0
0.3125 0 0
0.25 0 0
0 0 0
0.3125 0 0
0.25 0 0
0 0 0
0.3125 0 0
0.25 0 0
0.25 0 0
0.25 0 0
0.25 0 0
0 0 0
0.3125 0 0
0.25 0 0
0 0 0
0.3125 0 0
0.25 0 0
0 0 0
0.3125 0 0
0.25 0 0
0 0 0
0.3125 0 0
0.25 0 0
0 0 0
0 0 0
0.03125 0 0
0.03125 0 0
0 0 0
0.03125 0 0
0.03125 0 0
0 0 0
0.03125 0 0
0.03125 0 0
0 0 0
0.03125 0 0
0.03125 0 0
0 0 0
0.03125 0 0
0.03125 0 0
0 0 0
0.03125 0 0
0.03125 0 0
0 0 0
0.03125 0 0
0.03125 0 0
0 0 0
0.03125 0 0
0.03125 0 0
0 0 0
0.03125 0 0
0.03125 0 0
0 0 0
0.03125 0 0
0.03125 0 0
0 0 0
0.03125 0 0
0.03125 0 0
0 0 0
0.03125 0 0
0.03125 0 0
0 0 0
0.03125 0 0
0.03125 0 0
0 0 0
0.03125 0 0
0.03125 0 0
0 0 0
0.03125 0 0
0.03125 0 0
0 0 0
0.03125 0 0
0.03125 0 0
0 0 0
0.03125 0 0
0.03125 0 0
0 0 0
0.03125 0 0
0.03125 0 0
0.3125 0 0
0.3125 0 0
0.25 0 0
0 0 0
0.4375 0 0
0.4375 0 0
0.3125 0 0
0.3125 0 0
0.25 0 0
0 0 0
0.4375 0 0
0.3125 0 0
0.3125 0 0
0.25 0 0
0 0 0
0.3125 0 0
0.3125 0 0
0.25 0 0
0 0 0
0.3125 0 0
0.3125 0 0
0.25 0 0
0 0 0
0.4375 0 0
0.4375 0 0
0.3125 0 0
0.3125 0 0
0.25 0 0
0.3125 0 0
0 0 0
0.4375 0 0
0.3125 0 0
0.3125 0 0
0.25 0 0
0 0 0
0.3125 0 0
0.3125 0 0
0.25 0 0
0 0 0
0.3125 0 0
0.3125 0 0
0.25 0 0
0 0 0
0.4375 0 0
0.3125 0 0
0.3125 0 0
0.25 0 0
0.3125 0 0
0.25 0 0
0.25 0 0
0.25 0 0
0 0 0
0.4375 0 0
0.3125 0 0
0.3125 0 0
0.25 0 0
0 0 0
0.4375 0 0
0.3125 0 0
0.3125 0 0
0.25 0 0
0 0 0
0.4375 0 0
0.3125 0 0
0.25 0 0
0 0 0
0.3125 0 0
0.25 0 0
0 0 0
0.3125 0 0
0.25 0 0
0 0 0
0.3125 0 0
0.25 0 0
0 0 0
0.3125 0 0
0.25 0 0
0 0 0
0.4375 0 0
0.3125 0 0
0.25 0 0
0 0 0
0.4375 0 0
0.3125 0 0
0.25 0 0
0 0 0
0.4375 0 0
0.4375 0 0
0.3125 0 0
0.25 0 0
0.25 0 0
0.25 0 0
0.25 0 0
0 0 0
0.3125 0 0
0.25 0 0
0 0 0
0.4375 0 0
0.4375 0 0
0.3125 0 0
0.25 0 0
0 0 0
0.3125 0 0
0.25 0 0
0 0 0
0.3125 0 0
0.25 0 0
0 0 0
0.3125 0 0
0.3125 0 0
0.25 0 0
0.3125 0 0
0.25 0 0
0.25 0 0
0.25 0 0
0 0 0
0.3125 0 0
0.3125 0 0
0.25 0 0
0.3125 0 0
0 0 0
0.3125 0 0
0.3125 0 0
0.25 0 0
0 0 0
0.3125 0 0
0.3125 0 0
0.25 0 0
0 0 0
0.3125 0 0
0.3125 0 0
0.25 0 0
0.3125 0 0
0.25 0 0
0.25 0 0
0.25 0 0
0 0 0
0.3125 0 0
0.3125 0 0
0.25 0 0
0.3125 0 0
0 0 0
0.3125 0 0
0.3125 0 0
0.25 0 0
0 0 0
0.3125 0 0
0.3125 0 0
0.25 0 0
0 0 0
0.3125 0 0
0.3125 0 0
0.25 0 0
0 0 0
0.3125 0 0
0.3125 0 0
0.25 0 0
0 0 0
0.3125 0 0
0.3125 0 0
0.25 0 0
0 0 0
0.3125 0 0
0.3125 0 0
0.25 0 0
0 0 0
0.3125 0 0
0.25 0 0
0 0 0
0.3125 0 0
0.25 0 0
0 0 0
0.3125 0 0
0.25 0 0
0 0 0
0.3125 0 0
0.25 0 0
0 0 0
0.3125 0 0
0.25 0 0
0.25 0 0
0.25 0 0
0.25 0 0
0 0 0
0.3125 0 0
0.25 0 0
0 0 0
0.3125 0 0
0.25 0 0
0 0 0
0.3125 0 0
0.25 0 0
0.25 0 0
0.25 0 0
0.25 0 0
0 0 0
0.3125 0 0
0.25 0 0
0 0 0
0.3125 0 0
0.25 0 0
0 0 0
0.3125 0 0
0.25 0 0
0 0 0
0.3125 0 0
0.25 0 0
0 0 0
0 0 0
0.03125 0 0
0.03125 0 0
0 0 0
0.03125 0 0
0.03125 0 0
0 0 0
0.03125 0 0
0.03125 0 0
0 0 0
0.03125 0 0
0.03125 0 0
0 0 0
0.03125 0 0
0.03125 0 0
0 0 0
0.03125 0 0
0.03125 0 0
0 0 0
0.03125 0 0
0.03125 0 0
0 0 0
0.03125 0 0
0.03125 0 0
0 0 0
0.03125 0 0
0.03125 0 0
0 0 0
0.03125 0 0
0.03125 0 0
0 0 0
0.03125 0 0
0.03125 0 0
0 0 0
0.03125 0 0
0.03125 0 0
0 0 0
0.03125 0 0
0.03125 0 0
0 0 0
0.03125 0 0
0.03125 0 0
0 0 0
0.03125 0 0
0.03125 0 0
0 0 0
0.03125 0 0
0.03125 0 0
0 0 0
0.03125 0 0
0.03125 0 0
0 0 0
0.03125 0 0
0.03125 0 0
0.3125 0 0
0.3125 0 0
0.25 0 0
0 0 0
0.4375 0 0
0.3125 0 0
0.3125 0 0
0.25 0 0
0 0 0
0.4375 0 0
0.3125 0 0
0.3125 0 0
0.25 0 0
0 0 0
0.3125 0 0
0.3125 0 0
0.25 0 0
0 0 0
0.3125 0 0
0.3125 0 0
0.25 0 0
0 0 0
0.4375 0 0
0.3125 0 0
0.3125 0 0
0.25 0 0
0.3125 0 0
0 0 0
0.4375 0 0
0.3125 0 0
0.3125 0 0
0.25 0 0
0 0 0
0.3125 0 0
0.3125 0 0
0.25 0 0
0 0 0
0.3125 0 0
0.3125 0 0
0.25 0 0
0 0 0
0.4375 0 0
0.4375 0 0
0.3125 0 0
0.3125 0 0
0.25 0 0
0.3125 0 0
0.25 0 0
0.25 0 0
0.25 0 0
0 0 0
0.4375 0 0
0.4375 0 0
0.3125 0 0
0.3125 0 0
0.25 0 0
0 0 0
0.4375 0 0
0.4375 0 0
0.3125 0 0
0.3125 0 0
0.25 0 0
0 0 0
0.4375 0 0
0.4375 0 0
0.3125 0 0
0.25 0 0
0 0 0
0.3125 0 0
0.25 0 0
0 0 0
0.3125 0 0
0.25 0 0
0 0 0
0.3125 0 0
0.25 0 0
0 0 0
0.3125 0 0
0.25 0 0
0 0 0
0.4375 0 0
0.3125 0 0
0.25 0 0
0 0 0
0.4375 0 0
0.3125 0 0
0.25 0 0
0 0 0
0.4375 0 0
0.3125 0 0
0.25 0 0
0.25 0 0
0.25 0 0
0.25 0 0
0 0 0
0.3125 0 0
0.25 0 0
0 0 0
0.4375 0 0
0.3125 0 0
0.25 0 0
0 0 0
0.3125 0 0
0.25 0 0
0 0 0
0.3125 0 0
0.25 0 0
0 0 0
0.3125 0 0
0.3125 0 0
0.25 0 0
0.3125 0 0
0.25 0 0
0.25 0 0
0.25 0 0
0 0 0
0.3125 0 0
0.3125 0 0
0.25 0 0
0.3125 0 0
0 0 0
0.3125 0 0
0.3125 0 0
0.25 0 0
0 0 0
0.3125 0 0
0.3125 0 0
0.25 0 0
0 0 0
0.3125 0 0
0.3125 0 0
0.25 0 0
0.3125 0 0
0.25 0 0
0.25 0 0
0.25 0 0
0 0 0
0.3125 0 0
0.3125 0 0
0.25 0 0
0.3125 0 0
0 0 0
0.3125 0 0
0.3125 0 0
0.25 0 0
0 0 0
0.3125 0 0
0.3125 0 0
0.25 0 0
0 0 0
0.3125 0 0
0.3125 0 0
0.25 0 0
0 0 0
0.3125 0 0
0.3125 0 0
0.25 0 0
0 0 0
0.3125 0 0
0.3125 0 0
0.25 0 0
0 0 0
0.3125 0 0
0.3125 0 0
0.25 0 0
0 0 0
0.3125 0 0
0.25 0 0
0 0 0
0.3125 0 0
0.25 0 0
0 0 0
0.3125 0 0
0.25 0 0
0 0 0
0.3125 0 0
0.25 0 0
0 0 0
0.3125 0 0
0.25 0 0
0.25 0 0
0.25 0 0
0.25 0 0
0 0 0
0.3125 0 0
0.25 0 0
0 0 0
0.3125 0 0
0.25 0 0
0 0 0
0.3125 0 0
0.25 0 0
0.25 0 0
0.25 0 0
0.25 0 0
0 0 0
0.3125 0 0
0.25 0 0
0 0 0
0.3125 0 0
0.25 0 0
0 0 0
0.3125 0 0
0.25 0 0
0 0 0
0.3125 0 0
0.25 0 0
0 0 0
0 0 0
0.03125 0 0
0.03125 0 0
0 0 0
0.03125 0 0
0.03125 0 0
0 0 0
0.03125 0 0
0.03125 0 0
0 0 0
0.03125 0 0
0.03125 0 0
0 0 0
0.03125 0 0
0.03125 0 0
0 0 0
0.03125 0 0
0.03125 0 0
0 0 0
0.03125 0 0
0.03125 0 0
0 0 0
0.03125 0 0
0.03125 0 0
0 0 0
0.03125 0 0
0.03125 0 0
0 0 0
0.03125 0 0
0.03125 0 0
0 0 0
0.03125 0 0
0.03125 0 0
0 0 0
0.03125 0 0
0.03125 0 0
0 0 0
0.03125 0 0
0.03125 0 0
0 0 0
0.03125 0 0
0.03125 0 0
0 0 0
0.03125 0 0
0.03125 0 0
0 0 0
0.03125 0 0
0.03125 0 0
0 0 0
0.03125 0 0
0.03125 0 0
0 0 0
0.03125 0 0
0.03125 0 0
0.3125 0 0
0.3125 0 0
0.25 0 0
0 0 0
0.4375 0 0
0.3125 0 0
0.3125 0 0
0.25 0 0
0 0 0
0.4375 0 0
0.3125 0 0
0.3125 0 0
0.25 0 0
0 0 0
0.3125 0 0
0.3125 0 0
0.25 0 0
0 0 0
0.3125 0 0
0.3125 0 0
0.25 0 0
0 0 0
0.4375 0 0
0.3125 0 0
0.3125 0 0
0.25 0 0
0.3125 0 0
0 0 0
0.4375 0 0
0.3125 0 0
0.3125 0 0
0.25 0 0
0 0 0
0.3125 0 0
0.3125 0 0
0.25 0 0
0 0 0
0.3125 0 0
0.3125 0 0
0.25 0 0
0 0 0
0.4375 0 0
0.3125 0 0
0.3125 0 0
0.25 0 0
0.3125 0 0
0.25 0 0
0.25 0 0
0.25 0 0
0 0 0
0.4375 0 0
0.3125 0 0
0.3125 0 0
0.25 0 0
0 0 0
0.4375 0 0
0.3125 0 0
0.3125 0 0
0.25 0 0
0 0 0
0.4375 0 0
0.3125 0 0
0.25 0 0
0 0 0
0.3125 0 0
0.25 0 0
0 0 0
0.3125 0 0
0.25 0 0
0 0 0
0.3125 0 0
0.25 0 0
0 0 0
0.3125 0 0
0.25 0 0
0 0 0
0.4375 0 0
0.3125 0 0
0.25 0 0
0 0 0
0.4375 0 0
0.3125 0 0
0.25 0 0
0 0 0
0.4375 0 0
0.3125 0 0
0.25 0 0
0.25 0 0
0.25 0 0
0.25 0 0
0 0 0
0.3125 0 0
0.25 0 0
0 0 0
0.4375 0 0
0.3125 0 0
0.25 0 0
0 0 0
0.3125 0 0
0.25 0 0
0 0 0
0.3125 0 0
0.25 0 0
0 0 0
0.3125 0 0
0.3125 0 0
0.25 0 0
0.3125 0 0
0.25 0 0
0.25 0 0
0.25 0 0
0 0 0
0.3125 0 0
0.3125 0 0
0.25 0 0
0.3125 0 0
0 0 0
0.3125 0 0
0.3125 0 0
0.25 0 0
0 0 0
0.3125 0 0
0.3125 0 0
0.25 0 0
0 0 0
0.3125 0 0
0.3125 0 0
0.25 0 0
0.3125 0 0
0.25 0 0
0.25 0 0
0.25 0 0
0 0 0
0.3125 0 0
0.3125 0 0
0.25 0 0
0.3125 0 0
0 0 0
0.3125 0 0
0.3125 0 0
0.25 0 0
0 0 0
0.3125 0 0
0.3125 0 0
0.25 0 0
0 0 0
0.3125 0 0
0.3125 0 0
0.25 0 0
0 0 0
0.3125 0 0
0.3125 0 0
0.25 0 0
0 0 0
0.3125 0 0
0.3125 0 0
0.25 0 0
0 0 0
0.3125 0 0
0.3125 0 0
0.25 0 0
0 0 0
0.3125 0 0
0.25 0 0
0 0 0
0.3125 0 0
0.25 0 0
0 0 0
0.3125 0 0
0.25 0 0
0 0 0
0.3125 0 0
0.25 0 0
0 0 0
0.3125 0 0
0.25 0 0
0.25 0 0
0.25 0 0
0.25 0 0
0 0 0
0.3125 0 0
0.25 0 0
0 0 0
0.3125 0 0
0.25 0 0
0 0 0
0.3125 0 0
0.25 0 0
0.25 0 0
0.25 0 0
0.25 0 0
0 0 0
0.3125 0 0
0.25 0 0
0 0 0
0.3125 0 0
0.25 0 0
0 0 0
0.3125 0 0
0.25 0 0
0 0 0
0.3125 0 0
0.25 0 0
0 0 0
0 0 0
0.03125 0 0
0.03125 0 0
0 0 0
0.03125 0 0
0.03125 0 0
0 0 0
0.03125 0 0
0.03125 0 0
0 0 0
0.03125 0 0
0.03125 0 0
0 0 0
0.03125 0 0
0.03125 0 0
0 0 0
0.03125 0 0
0.03125 0 0
0 0 0
0.03125 0 0
0.03125 0 0
0 0 0
0.03125 0 0
0.03125 0 0
0 0 0
0.03125 0 0
0.03125 0 0
0 0 0
0.03125 0 0
0.03125 0 0
0 0 0
0.03125 0 0
0.03125 0 0
0 0 0
0.03125 0 0
0.03125 0 0
0 0 0
0.03125 0 0
0.03125 0 0
0 0 0
0.03125 0 0
0.03125 0 0
0 0 0
0.03125 0 0
0.03125 0 0
0 0 0
0.03125 0 0
0.03125 0 0
0 0 0
0.03125 0 0
0.03125 0 0
0 0 0
0.03125 0 0
0.03125 0 0
