# vtk DataFile Version 1.0
Cube
ASCII

DATASET POLYDATA
POINTS 26 float
9.728061 9.728061 5.732506
10.491835 8.491181 6.969788
11.812204 8.231436 7.229162
9.712600 7.730500 7.730500
13.008885 8.685990 6.774948
14.267411 8.228344 7.232996
15.461000 8.720004 6.742387
7.730500 7.730500 7.730500
11.026785 11.026785 6.082357
4.434215 4.434215 4.433906
4.434215 4.434215 35.355906
4.434215 35.356215 4.433906
4.434215 35.356215 35.355906
35.356215 4.434215 4.433906
35.356215 4.434215 35.355906
35.356215 35.356215 4.433906
35.356215 35.356215 35.355906
13.001248 9.343577 6.117423
3.868095 3.868095 3.868095
3.868095 3.868095 34.790095
3.868095 34.790095 3.868095
3.868095 34.790095 34.790095
34.790095 3.868095 3.868095
34.790095 3.868095 34.790095
34.790095 34.790095 3.868095
34.790095 34.790095 34.790095
LINES 17 51
2 0 1
2 0 8
2 1 2
2 1 3
2 2 4
2 3 7
2 4 5
2 4 17
2 5 6
2 9 18
2 10 19
2 11 20
2 12 21
2 13 22
2 14 23
2 15 24
2 16 25
