# vtk DataFile Version 1.0
Cube
ASCII

DATASET POLYDATA
POINTS 12 float
9.728061 9.728061 5.732506
10.491835 8.491181 6.969788
11.812204 8.231436 7.229162
9.712600 7.730500 7.730500
13.008885 8.685990 6.774948
14.267411 8.228344 7.232996
15.461000 8.720004 6.742387
7.730500 7.730500 7.730500
11.026785 11.026785 6.082357
4.434215 4.434215 4.433906
13.001248 9.343577 6.117423
3.868095 3.868095 3.868095
POINT_DATA 12
SCALARS my_scalars float
LOOKUP_TABLE default
1.4
1.55
1.7
1.55
1.7
1.7
1.52
1.39
1.52
1.7
1.09
1.09
VECTORS vectors float
0.4375 0 0
0 0 0
0.3125 0 0
0 0 0
0.3125 0 0
0.3125 0 0
0.03125 0 0
0.4375 0 0
0.03125 0 0
0.3125 0 0
0.25 0 0
0.25 0 0
