# vtk DataFile Version 1.0
Cube
ASCII

DATASET POLYDATA
POINTS 14 float
10.474040 8.510778 7.001691
11.814320 8.261957 7.250418
9.698415 7.756250 7.756250
13.046012 8.659078 6.854881
14.324242 8.252650 7.258919
15.512500 8.767665 6.744028
7.756250 7.756250 7.756250
11.048002 11.048002 6.158462
9.775977 9.775977 5.737701
10.930107 10.930107 4.581679
10.930108 10.930108 35.606679
13.045020 9.315225 6.197275
11.496624 11.496624 4.015876
11.496624 11.496624 35.040876
LINES 13 39
2 0 1
2 0 2
2 0 8
2 1 3
2 2 6
2 3 4
2 3 11
2 4 5
2 7 8
2 7 9
2 8 9
2 9 12
2 10 13
