# vtk DataFile Version 1.0
Cube
ASCII

DATASET POLYDATA
POINTS 12 float
10.474040 8.510778 7.001691
11.814320 8.261957 7.250418
9.698415 7.756250 7.756250
13.046012 8.659078 6.854881
14.324242 8.252650 7.258919
15.512500 8.767665 6.744028
7.756250 7.756250 7.756250
11.048002 11.048002 6.158462
9.775977 9.775977 5.737701
10.930107 10.930107 4.581679
13.045020 9.315225 6.197275
11.496624 11.496624 4.015876
POINT_DATA 12
SCALARS my_scalars float
LOOKUP_TABLE default
1.55
1.7
1.55
1.7
1.7
1.52
1.39
1.52
1.39
1.7
1.09
1.09
VECTORS vectors float
0 0 0
0.3125 0 0
0 0 0
0.3125 0 0
0.3125 0 0
0.03125 0 0
0.4375 0 0
0.03125 0 0
0.4375 0 0
0.3125 0 0
0.25 0 0
0.25 0 0
