# vtk DataFile Version 1.0
Cube
ASCII

DATASET POLYDATA
POINTS 231 float
13.260661 0.392560 1.814204
13.277937 13.277937 5.403275
1.605323 0.397344 2.947595
1.577416 0.047841 4.239626
11.646567 0.329570 2.957104
11.647896 0.027907 4.291065
13.223983 12.071818 0.662658
0.047841 2.021272 0.692484
2.857157 0.546182 2.579740
3.134899 0.829240 1.737693
3.705001 0.219270 3.624517
2.853170 0.001329 4.635578
2.853170 26.579529 4.635578
3.117623 13.126973 5.511341
5.190722 0.211297 3.623220
5.936241 0.450500 2.465622
5.492385 0.624588 1.668531
7.318307 0.433225 2.479455
7.778110 0.584720 1.685822
8.038577 0.201994 3.627110
7.307676 0.013289 4.757908
7.307676 26.591489 4.757908
7.756848 13.201392 5.567535
5.910992 13.253219 4.760934
5.463149 13.048567 5.550244
10.366827 0.397344 2.573688
10.089085 0.560800 1.698790
9.517653 0.196679 3.625381
10.377458 13.216010 4.691772
10.106361 12.996740 5.554567
13.108368 10.818656 1.049100
12.927636 10.550216 1.919243
0.000000 9.965496 0.000000
0.000000 9.965496 43.226200
26.578200 9.965496 0.000000
26.578200 9.965496 43.226200
0.000000 8.477117 0.000000
0.000000 8.477117 43.226200
26.578200 8.477117 0.000000
26.578200 8.477117 43.226200
13.283784 7.719638 1.164082
0.027907 8.159507 1.984083
13.233286 6.358834 1.153707
13.157538 5.910992 1.966792
0.000000 5.618631 0.000000
0.000000 5.618631 43.226200
26.578200 5.618631 0.000000
26.578200 5.618631 43.226200
0.000000 4.147528 0.000000
0.000000 4.147528 43.226200
26.578200 4.147528 0.000000
26.578200 4.147528 43.226200
0.011960 3.274434 1.070281
26.590160 3.274434 1.070281
13.286442 3.545532 1.958147
7.891068 12.972819 5.956570
5.298364 13.036607 5.939712
13.231957 8.352199 2.354963
13.242588 5.774114 2.361447
5.355507 0.571431 1.201688
7.930935 0.411962 1.210334
13.260661 13.681660 1.814204
13.277937 -0.011163 5.403275
13.277937 26.567037 5.403275
1.605323 13.686444 2.947595
1.577416 13.336941 4.239626
11.646567 13.618670 2.957104
11.647896 13.317007 4.291065
13.223983 25.360918 0.662658
0.047841 15.310372 0.692484
2.857157 13.835282 2.579740
3.134899 14.118340 1.737693
3.705001 13.508370 3.624517
2.853170 13.290429 4.635578
3.117623 26.416073 5.511341
5.190722 13.500397 3.623220
5.936241 13.739600 2.465622
5.492385 13.913688 1.668531
7.318307 13.722325 2.479455
7.778110 13.873820 1.685822
8.038577 13.491094 3.627110
7.307676 13.302389 4.757908
7.756848 26.490492 5.567535
5.910992 26.542319 4.760934
5.463149 26.337667 5.550244
10.366827 13.686444 2.573688
10.089085 13.849900 1.698790
9.517653 13.485779 3.625381
10.377458 26.505110 4.691772
10.106361 26.285840 5.554567
13.108368 24.107756 1.049100
12.927636 23.839316 1.919243
0.000000 23.254596 0.000000
0.000000 23.254596 43.226200
26.578200 23.254596 0.000000
26.578200 23.254596 43.226200
0.000000 21.766217 0.000000
0.000000 21.766217 43.226200
26.578200 21.766217 0.000000
26.578200 21.766217 43.226200
13.283784 21.008738 1.164082
0.027907 21.448607 1.984083
13.233286 19.647934 1.153707
13.157538 19.200092 1.966792
0.000000 18.907731 0.000000
0.000000 18.907731 43.226200
26.578200 18.907731 0.000000
26.578200 18.907731 43.226200
0.000000 17.436628 0.000000
0.000000 17.436628 43.226200
26.578200 17.436628 0.000000
26.578200 17.436628 43.226200
0.011960 16.563534 1.070281
26.590160 16.563534 1.070281
13.286442 16.834632 1.958147
7.891068 26.261919 5.956570
5.298364 26.325707 5.939712
13.231957 21.641299 2.354963
13.242588 19.063214 2.361447
5.355507 13.860531 1.201688
7.930935 13.701062 1.210334
26.549761 0.392560 1.814204
-0.011163 13.277937 5.403275
26.567037 13.277937 5.403275
14.894423 0.397344 2.947595
14.866516 0.047841 4.239626
24.935667 0.329570 2.957104
24.936996 0.027907 4.291065
26.513083 12.071818 0.662658
13.336941 2.021272 0.692484
16.146256 0.546182 2.579740
16.423999 0.829240 1.737693
16.994101 0.219270 3.624517
16.142270 0.001329 4.635578
16.142270 26.579529 4.635578
16.406723 13.126973 5.511341
18.479822 0.211297 3.623220
19.225341 0.450500 2.465622
18.781485 0.624588 1.668531
20.607407 0.433225 2.479455
21.067210 0.584720 1.685822
21.327677 0.201994 3.627110
20.596776 0.013289 4.757908
20.596776 26.591489 4.757908
21.045948 13.201392 5.567535
19.200092 13.253219 4.760934
18.752249 13.048567 5.550244
23.655927 0.397344 2.573688
23.378185 0.560800 1.698790
22.806753 0.196679 3.625381
23.666558 13.216010 4.691772
23.395461 12.996740 5.554567
26.397468 10.818656 1.049100
26.216736 10.550216 1.919243
13.289100 9.965496 0.000000
13.289100 9.965496 43.226200
13.289100 8.477117 0.000000
13.289100 8.477117 43.226200
-0.005316 7.719638 1.164082
26.572884 7.719638 1.164082
13.317007 8.159507 1.984083
26.522386 6.358834 1.153707
26.446638 5.910992 1.966792
13.289100 5.618631 0.000000
13.289100 5.618631 43.226200
13.289100 4.147528 0.000000
13.289100 4.147528 43.226200
13.301060 3.274434 1.070281
-0.002658 3.545532 1.958147
26.575542 3.545532 1.958147
21.180168 12.972819 5.956570
18.587464 13.036607 5.939712
26.521057 8.352199 2.354963
26.531688 5.774114 2.361447
18.644607 0.571431 1.201688
21.220035 0.411962 1.210334
26.549761 13.681660 1.814204
-0.011163 -0.011163 5.403275
-0.011163 26.567037 5.403275
26.567037 -0.011163 5.403275
26.567037 26.567037 5.403275
14.894423 13.686444 2.947595
14.866516 13.336941 4.239626
24.935667 13.618670 2.957104
24.936996 13.317007 4.291065
26.513083 25.360918 0.662658
13.336941 15.310372 0.692484
16.146256 13.835282 2.579740
16.423999 14.118340 1.737693
16.994101 13.508370 3.624517
16.142270 13.290429 4.635578
16.406723 26.416073 5.511341
18.479822 13.500397 3.623220
19.225341 13.739600 2.465622
18.781485 13.913688 1.668531
20.607407 13.722325 2.479455
21.067210 13.873820 1.685822
21.327677 13.491094 3.627110
20.596776 13.302389 4.757908
21.045948 26.490492 5.567535
19.200092 26.542319 4.760934
18.752249 26.337667 5.550244
23.655927 13.686444 2.573688
23.378185 13.849900 1.698790
22.806753 13.485779 3.625381
23.666558 26.505110 4.691772
23.395461 26.285840 5.554567
26.397468 24.107756 1.049100
26.216736 23.839316 1.919243
13.289100 23.254596 0.000000
13.289100 23.254596 43.226200
13.289100 21.766217 0.000000
13.289100 21.766217 43.226200
-0.005316 21.008738 1.164082
26.572884 21.008738 1.164082
13.317007 21.448607 1.984083
26.522386 19.647934 1.153707
26.446638 19.200092 1.966792
13.289100 18.907731 0.000000
13.289100 18.907731 43.226200
13.289100 17.436628 0.000000
13.289100 17.436628 43.226200
13.301060 16.563534 1.070281
-0.002658 16.834632 1.958147
26.575542 16.834632 1.958147
21.180168 26.261919 5.956570
18.587464 26.325707 5.939712
26.521057 21.641299 2.354963
26.531688 19.063214 2.361447
18.644607 13.860531 1.201688
21.220035 13.701062 1.210334
POINT_DATA 231
SCALARS my_scalars float
LOOKUP_TABLE default
2
2
1.55
1.55
1.55
1.55
1.55
1.55
1.7
1.09
1.7
1.7
1.7
1.09
1.7
1.7
1.09
1.7
1.09
1.7
1.7
1.7
1.09
1.7
1.09
1.7
1.09
1.7
1.7
1.09
1.7
1.09
1.7
1.7
1.7
1.7
1.7
1.7
1.7
1.7
1.7
1.09
1.7
1.09
1.7
1.7
1.7
1.7
1.7
1.7
1.7
1.7
1.7
1.7
1.09
1.47
1.47
1.47
1.47
1.47
1.47
2
2
2
1.55
1.55
1.55
1.55
1.55
1.55
1.7
1.09
1.7
1.7
1.09
1.7
1.7
1.09
1.7
1.09
1.7
1.7
1.09
1.7
1.09
1.7
1.09
1.7
1.7
1.09
1.7
1.09
1.7
1.7
1.7
1.7
1.7
1.7
1.7
1.7
1.7
1.09
1.7
1.09
1.7
1.7
1.7
1.7
1.7
1.7
1.7
1.7
1.7
1.7
1.09
1.47
1.47
1.47
1.47
1.47
1.47
2
2
2
1.55
1.55
1.55
1.55
1.55
1.55
1.7
1.09
1.7
1.7
1.7
1.09
1.7
1.7
1.09
1.7
1.09
1.7
1.7
1.7
1.09
1.7
1.09
1.7
1.09
1.7
1.7
1.09
1.7
1.09
1.7
1.7
1.7
1.7
1.7
1.7
1.09
1.7
1.09
1.7
1.7
1.7
1.7
1.7
1.09
1.09
1.47
1.47
1.47
1.47
1.47
1.47
2
2
2
2
2
1.55
1.55
1.55
1.55
1.55
1.55
1.7
1.09
1.7
1.7
1.09
1.7
1.7
1.09
1.7
1.09
1.7
1.7
1.09
1.7
1.09
1.7
1.09
1.7
1.7
1.09
1.7
1.09
1.7
1.7
1.7
1.7
1.7
1.7
1.09
1.7
1.09
1.7
1.7
1.7
1.7
1.7
1.09
1.09
1.47
1.47
1.47
1.47
1.47
1.47
VECTORS vectors float
0.4375 0 0
0.4375 0 0
0 0 0
0 0 0
0 0 0
0 0 0
0 0 0
0 0 0
0.3125 0 0
0.25 0 0
0.3125 0 0
0.3125 0 0
0.3125 0 0
0.25 0 0
0.3125 0 0
0.3125 0 0
0.25 0 0
0.3125 0 0
0.25 0 0
0.3125 0 0
0.3125 0 0
0.3125 0 0
0.25 0 0
0.3125 0 0
0.25 0 0
0.3125 0 0
0.25 0 0
0.3125 0 0
0.3125 0 0
0.25 0 0
0.3125 0 0
0.25 0 0
0.3125 0 0
0.3125 0 0
0.3125 0 0
0.3125 0 0
0.3125 0 0
0.3125 0 0
0.3125 0 0
0.3125 0 0
0.3125 0 0
0.25 0 0
0.3125 0 0
0.25 0 0
0.3125 0 0
0.3125 0 0
0.3125 0 0
0.3125 0 0
0.3125 0 0
0.3125 0 0
0.3125 0 0
0.3125 0 0
0.3125 0 0
0.3125 0 0
0.25 0 0
0.4375 0 0
0.4375 0 0
0.4375 0 0
0.4375 0 0
0.4375 0 0
0.4375 0 0
0.4375 0 0
0.4375 0 0
0.4375 0 0
0 0 0
0 0 0
0 0 0
0 0 0
0 0 0
0 0 0
0.3125 0 0
0.25 0 0
0.3125 0 0
0.3125 0 0
0.25 0 0
0.3125 0 0
0.3125 0 0
0.25 0 0
0.3125 0 0
0.25 0 0
0.3125 0 0
0.3125 0 0
0.25 0 0
0.3125 0 0
0.25 0 0
0.3125 0 0
0.25 0 0
0.3125 0 0
0.3125 0 0
0.25 0 0
0.3125 0 0
0.25 0 0
0.3125 0 0
0.3125 0 0
0.3125 0 0
0.3125 0 0
0.3125 0 0
0.3125 0 0
0.3125 0 0
0.3125 0 0
0.3125 0 0
0.25 0 0
0.3125 0 0
0.25 0 0
0.3125 0 0
0.3125 0 0
0.3125 0 0
0.3125 0 0
0.3125 0 0
0.3125 0 0
0.3125 0 0
0.3125 0 0
0.3125 0 0
0.3125 0 0
0.25 0 0
0.4375 0 0
0.4375 0 0
0.4375 0 0
0.4375 0 0
0.4375 0 0
0.4375 0 0
0.4375 0 0
0.4375 0 0
0.4375 0 0
0 0 0
0 0 0
0 0 0
0 0 0
0 0 0
0 0 0
0.3125 0 0
0.25 0 0
0.3125 0 0
0.3125 0 0
0.3125 0 0
0.25 0 0
0.3125 0 0
0.3125 0 0
0.25 0 0
0.3125 0 0
0.25 0 0
0.3125 0 0
0.3125 0 0
0.3125 0 0
0.25 0 0
0.3125 0 0
0.25 0 0
0.3125 0 0
0.25 0 0
0.3125 0 0
0.3125 0 0
0.25 0 0
0.3125 0 0
0.25 0 0
0.3125 0 0
0.3125 0 0
0.3125 0 0
0.3125 0 0
0.3125 0 0
0.3125 0 0
0.25 0 0
0.3125 0 0
0.25 0 0
0.3125 0 0
0.3125 0 0
0.3125 0 0
0.3125 0 0
0.3125 0 0
0.25 0 0
0.25 0 0
0.4375 0 0
0.4375 0 0
0.4375 0 0
0.4375 0 0
0.4375 0 0
0.4375 0 0
0.4375 0 0
0.4375 0 0
0.4375 0 0
0.4375 0 0
0.4375 0 0
0 0 0
0 0 0
0 0 0
0 0 0
0 0 0
0 0 0
0.3125 0 0
0.25 0 0
0.3125 0 0
0.3125 0 0
0.25 0 0
0.3125 0 0
0.3125 0 0
0.25 0 0
0.3125 0 0
0.25 0 0
0.3125 0 0
0.3125 0 0
0.25 0 0
0.3125 0 0
0.25 0 0
0.3125 0 0
0.25 0 0
0.3125 0 0
0.3125 0 0
0.25 0 0
0.3125 0 0
0.25 0 0
0.3125 0 0
0.3125 0 0
0.3125 0 0
0.3125 0 0
0.3125 0 0
0.3125 0 0
0.25 0 0
0.3125 0 0
0.25 0 0
0.3125 0 0
0.3125 0 0
0.3125 0 0
0.3125 0 0
0.3125 0 0
0.25 0 0
0.25 0 0
0.4375 0 0
0.4375 0 0
0.4375 0 0
0.4375 0 0
0.4375 0 0
0.4375 0 0
