# vtk DataFile Version 1.0
Cube
ASCII

DATASET POLYDATA
POINTS 690 float
13.260661 0.392560 1.814204
13.260661 0.392560 45.040404
13.260661 26.970760 1.814204
13.260661 26.970760 45.040404
13.277937 13.277937 5.403275
13.277937 13.277937 48.629475
1.605323 0.397344 2.947595
1.605323 0.397344 46.173795
1.605323 26.975544 2.947595
1.605323 26.975544 46.173795
28.183523 0.397344 2.947595
28.183523 0.397344 46.173795
28.183523 26.975544 2.947595
28.183523 26.975544 46.173795
1.577416 0.047841 4.239626
1.577416 0.047841 47.465826
1.577416 26.626041 4.239626
1.577416 26.626041 47.465826
28.155616 0.047841 4.239626
28.155616 0.047841 47.465826
28.155616 26.626041 4.239626
28.155616 26.626041 47.465826
11.646567 0.329570 2.957104
11.646567 0.329570 46.183304
11.646567 26.907770 2.957104
11.646567 26.907770 46.183304
11.647896 0.027907 4.291065
11.647896 0.027907 47.517265
11.647896 26.606107 4.291065
11.647896 26.606107 47.517265
13.223983 12.071818 0.662658
13.223983 12.071818 43.888858
0.047841 2.021272 0.692484
0.047841 2.021272 43.918684
0.047841 28.599472 0.692484
0.047841 28.599472 43.918684
26.626041 2.021272 0.692484
26.626041 2.021272 43.918684
26.626041 28.599472 0.692484
26.626041 28.599472 43.918684
2.857157 0.546182 2.579740
2.857157 0.546182 45.805940
2.857157 27.124382 2.579740
2.857157 27.124382 45.805940
29.435356 0.546182 2.579740
29.435357 0.546182 45.805940
29.435356 27.124382 2.579740
29.435357 27.124382 45.805940
3.134899 0.829240 1.737693
3.134899 0.829240 44.963893
3.134899 27.407440 1.737693
3.134899 27.407440 44.963893
29.713099 0.829240 1.737693
29.713099 0.829240 44.963893
29.713099 27.407440 1.737693
29.713099 27.407440 44.963893
3.705001 0.219270 3.624517
3.705001 0.219270 46.850717
3.705001 26.797470 3.624517
3.705001 26.797470 46.850717
30.283201 0.219270 3.624517
30.283201 0.219270 46.850717
30.283201 26.797470 3.624517
30.283201 26.797470 46.850717
2.853170 0.001329 4.635578
2.853170 0.001329 47.861778
2.853170 26.579529 4.635578
2.853170 26.579529 47.861778
29.431370 0.001329 4.635578
29.431370 0.001329 47.861778
29.431370 26.579529 4.635578
29.431370 26.579529 47.861778
3.117623 13.126973 5.511341
3.117623 13.126973 48.737540
29.695823 13.126973 5.511341
29.695823 13.126973 48.737540
5.190722 0.211297 3.623220
5.190722 0.211297 46.849420
5.190722 26.789497 3.623220
5.190722 26.789497 46.849420
5.936241 0.450500 2.465622
5.936241 0.450500 45.691822
5.936241 27.028700 2.465622
5.936241 27.028700 45.691822
5.492385 0.624588 1.668531
5.492385 0.624588 44.894731
5.492385 27.202788 1.668531
5.492385 27.202788 44.894731
7.318307 0.433225 2.479455
7.318307 0.433225 45.705655
7.318307 27.011425 2.479455
7.318307 27.011425 45.705655
7.778110 0.584720 1.685822
7.778110 0.584720 44.912022
7.778110 27.162920 1.685822
7.778110 27.162920 44.912022
8.038577 0.201994 3.627110
8.038577 0.201994 46.853310
8.038577 26.780194 3.627110
8.038577 26.780194 46.853310
7.307676 0.013289 4.757908
7.307676 0.013289 47.984108
7.307676 26.591489 4.757908
7.307676 26.591489 47.984108
7.756848 13.201392 5.567535
7.756848 13.201392 48.793735
5.910992 13.253219 4.760934
5.910992 13.253219 47.987134
5.463149 13.048567 5.550244
5.463149 13.048567 48.776444
10.366827 0.397344 2.573688
10.366827 0.397344 45.799888
10.366827 26.975544 2.573688
10.366827 26.975544 45.799888
10.089085 0.560800 1.698790
10.089085 0.560800 44.924990
10.089085 27.139000 1.698790
10.089085 27.139000 44.924990
9.517653 0.196679 3.625381
9.517653 0.196679 46.851581
9.517653 26.774879 3.625381
9.517653 26.774879 46.851581
10.377458 13.216010 4.691772
10.377458 13.216010 47.917972
10.106361 12.996740 5.554567
10.106361 12.996740 48.780767
13.108368 10.818656 1.049100
13.108368 10.818656 44.275300
12.927636 10.550216 1.919243
12.927636 10.550216 45.145443
0.000000 9.965496 0.000000
0.000000 9.965496 43.226200
26.578200 9.965496 0.000000
26.578200 9.965496 43.226200
0.000000 8.477117 0.000000
0.000000 8.477117 43.226200
26.578200 8.477117 0.000000
26.578200 8.477117 43.226200
13.283784 7.719638 1.164082
13.283784 7.719638 44.390282
0.027907 8.159507 1.984083
0.027907 8.159507 45.210283
26.606107 8.159507 1.984083
26.606107 8.159507 45.210283
13.233286 6.358834 1.153707
13.233286 6.358834 44.379907
13.157538 5.910992 1.966792
13.157538 5.910992 45.192992
0.000000 5.618631 0.000000
0.000000 5.618631 43.226200
26.578200 5.618631 0.000000
26.578200 5.618631 43.226200
0.000000 4.147528 0.000000
0.000000 4.147528 43.226200
26.578200 4.147528 0.000000
26.578200 4.147528 43.226200
0.011960 3.274434 1.070281
0.011960 3.274434 44.296481
0.011960 29.852634 1.070281
0.011960 29.852634 44.296481
26.590160 3.274434 1.070281
26.590160 3.274434 44.296481
26.590160 29.852634 1.070281
26.590160 29.852634 44.296481
13.286442 3.545532 1.958147
13.286442 3.545532 45.184347
13.286442 30.123732 1.958147
13.286442 30.123732 45.184347
7.891068 12.972819 5.956570
7.891068 12.972819 49.182770
5.298364 13.036607 5.939712
5.298364 13.036607 49.165912
13.231957 8.352199 2.354963
13.231957 8.352199 45.581163
13.242588 5.774114 2.361447
13.242588 5.774114 45.587647
5.355507 0.571431 1.201688
5.355507 0.571431 44.427888
5.355507 27.149631 1.201688
5.355507 27.149631 44.427888
7.930935 0.411962 1.210334
7.930935 0.411962 44.436534
7.930935 26.990162 1.210334
7.930935 26.990162 44.436534
13.260661 13.681660 1.814204
13.260661 13.681660 45.040404
13.277937 -0.011163 5.403275
13.277937 -0.011163 48.629475
13.277937 26.567037 5.403275
13.277937 26.567037 48.629475
1.605323 13.686444 2.947595
1.605323 13.686444 46.173795
28.183523 13.686444 2.947595
28.183523 13.686444 46.173795
1.577416 13.336941 4.239626
1.577416 13.336941 47.465826
28.155616 13.336941 4.239626
28.155616 13.336941 47.465826
11.646567 13.618670 2.957104
11.646567 13.618670 46.183304
11.647896 13.317007 4.291065
11.647896 13.317007 47.517265
13.223983 -1.217282 0.662658
13.223983 -1.217282 43.888858
13.223983 25.360918 0.662658
13.223983 25.360918 43.888858
0.047841 15.310372 0.692484
0.047841 15.310372 43.918684
26.626041 15.310372 0.692484
26.626041 15.310372 43.918684
2.857157 13.835282 2.579740
2.857157 13.835282 45.805940
29.435356 13.835282 2.579740
29.435357 13.835282 45.805940
3.134899 14.118340 1.737693
3.134899 14.118340 44.963893
29.713099 14.118340 1.737693
29.713099 14.118340 44.963893
3.705001 13.508370 3.624517
3.705001 13.508370 46.850717
30.283201 13.508370 3.624517
30.283201 13.508370 46.850717
2.853170 13.290429 4.635578
2.853170 13.290429 47.861778
29.431370 13.290429 4.635578
29.431370 13.290429 47.861778
3.117623 -0.162127 5.511341
3.117623 -0.162127 48.737540
3.117623 26.416073 5.511341
3.117623 26.416073 48.737540
29.695823 -0.162127 5.511341
29.695823 -0.162127 48.737540
29.695823 26.416073 5.511341
29.695823 26.416073 48.737540
5.190722 13.500397 3.623220
5.190722 13.500397 46.849420
5.936241 13.739600 2.465622
5.936241 13.739600 45.691822
5.492385 13.913688 1.668531
5.492385 13.913688 44.894731
7.318307 13.722325 2.479455
7.318307 13.722325 45.705655
7.778110 13.873820 1.685822
7.778110 13.873820 44.912022
8.038577 13.491094 3.627110
8.038577 13.491094 46.853310
7.307676 13.302389 4.757908
7.307676 13.302389 47.984108
7.756848 -0.087708 5.567535
7.756848 -0.087708 48.793735
7.756848 26.490492 5.567535
7.756848 26.490492 48.793735
5.910992 -0.035881 4.760934
5.910992 -0.035881 47.987134
5.910992 26.542319 4.760934
5.910992 26.542319 47.987134
5.463149 -0.240533 5.550244
5.463149 -0.240533 48.776444
5.463149 26.337667 5.550244
5.463149 26.337667 48.776444
10.366827 13.686444 2.573688
10.366827 13.686444 45.799888
10.089085 13.849900 1.698790
10.089085 13.849900 44.924990
9.517653 13.485779 3.625381
9.517653 13.485779 46.851581
10.377458 -0.073090 4.691772
10.377458 -0.073090 47.917972
10.377458 26.505110 4.691772
10.377458 26.505110 47.917972
10.106361 -0.292360 5.554567
10.106361 -0.292360 48.780767
10.106361 26.285840 5.554567
10.106361 26.285840 48.780767
13.108368 -2.470444 1.049100
13.108368 -2.470444 44.275300
13.108368 24.107756 1.049100
13.108368 24.107756 44.275300
12.927636 -2.738884 1.919243
12.927636 -2.738884 45.145443
12.927636 23.839316 1.919243
12.927636 23.839316 45.145443
-0.000000 -3.323604 0.000000
0.000000 -3.323604 43.226200
0.000000 23.254596 0.000000
0.000000 23.254596 43.226200
26.578200 -3.323604 0.000000
26.578200 -3.323604 43.226200
26.578200 23.254596 0.000000
26.578200 23.254596 43.226200
0.000000 21.766217 0.000000
0.000000 21.766217 43.226200
26.578200 21.766217 0.000000
26.578200 21.766217 43.226200
13.283784 21.008738 1.164082
13.283784 21.008738 44.390282
0.027907 21.448607 1.984083
0.027907 21.448607 45.210283
26.606107 21.448607 1.984083
26.606107 21.448607 45.210283
13.233286 19.647934 1.153707
13.233286 19.647934 44.379907
13.157538 19.200092 1.966792
13.157538 19.200092 45.192992
0.000000 18.907731 0.000000
0.000000 18.907731 43.226200
26.578200 18.907731 0.000000
26.578200 18.907731 43.226200
0.000000 17.436628 0.000000
0.000000 17.436628 43.226200
26.578200 17.436628 0.000000
26.578200 17.436628 43.226200
0.011960 16.563534 1.070281
0.011960 16.563534 44.296481
26.590160 16.563534 1.070281
26.590160 16.563534 44.296481
13.286442 16.834632 1.958147
13.286442 16.834632 45.184347
7.891068 -0.316281 5.956570
7.891068 -0.316281 49.182770
7.891068 26.261919 5.956570
7.891068 26.261919 49.182770
5.298364 -0.252493 5.939712
5.298364 -0.252493 49.165912
5.298364 26.325707 5.939712
5.298364 26.325707 49.165912
13.231957 21.641299 2.354963
13.231957 21.641299 45.581163
13.242588 19.063214 2.361447
13.242588 19.063214 45.587647
5.355507 13.860531 1.201688
5.355507 13.860531 44.427888
7.930935 13.701062 1.210334
7.930935 13.701062 44.436534
-0.028439 0.392560 1.814204
-0.028439 0.392560 45.040404
-0.028439 26.970760 1.814204
-0.028439 26.970760 45.040404
26.549761 0.392560 1.814204
26.549761 0.392560 45.040404
26.549761 26.970760 1.814204
26.549761 26.970760 45.040404
-0.011163 13.277937 5.403275
-0.011163 13.277937 48.629475
26.567037 13.277937 5.403275
26.567037 13.277937 48.629475
14.894423 0.397344 2.947595
14.894423 0.397344 46.173795
14.894423 26.975544 2.947595
14.894423 26.975544 46.173795
14.866516 0.047841 4.239626
14.866516 0.047841 47.465826
14.866516 26.626041 4.239626
14.866516 26.626041 47.465826
-1.642533 0.329570 2.957104
-1.642533 0.329570 46.183304
-1.642533 26.907770 2.957104
-1.642533 26.907770 46.183304
24.935667 0.329570 2.957104
24.935667 0.329570 46.183304
24.935667 26.907770 2.957104
24.935667 26.907770 46.183304
-1.641204 0.027907 4.291065
-1.641204 0.027907 47.517265
-1.641204 26.606107 4.291065
-1.641204 26.606107 47.517265
24.936996 0.027907 4.291065
24.936996 0.027907 47.517265
24.936996 26.606107 4.291065
24.936996 26.606107 47.517265
-0.065117 12.071818 0.662658
-0.065117 12.071818 43.888858
26.513083 12.071818 0.662658
26.513083 12.071818 43.888858
13.336941 2.021272 0.692484
13.336941 2.021272 43.918684
13.336941 28.599472 0.692484
13.336941 28.599472 43.918684
16.146256 0.546182 2.579740
16.146257 0.546182 45.805940
16.146256 27.124382 2.579740
16.146257 27.124382 45.805940
16.423999 0.829240 1.737693
16.423999 0.829240 44.963893
16.423999 27.407440 1.737693
16.423999 27.407440 44.963893
16.994101 0.219270 3.624517
16.994101 0.219270 46.850717
16.994101 26.797470 3.624517
16.994101 26.797470 46.850717
16.142270 0.001329 4.635578
16.142270 0.001329 47.861778
16.142270 26.579529 4.635578
16.142270 26.579529 47.861778
16.406723 13.126973 5.511341
16.406723 13.126973 48.737540
18.479822 0.211297 3.623220
18.479822 0.211297 46.849420
18.479822 26.789497 3.623220
18.479822 26.789497 46.849420
19.225341 0.450500 2.465622
19.225341 0.450500 45.691822
19.225341 27.028700 2.465622
19.225341 27.028700 45.691822
18.781485 0.624588 1.668531
18.781485 0.624588 44.894731
18.781485 27.202788 1.668531
18.781485 27.202788 44.894731
20.607407 0.433225 2.479455
20.607407 0.433225 45.705655
20.607407 27.011425 2.479455
20.607407 27.011425 45.705655
21.067210 0.584720 1.685822
21.067210 0.584720 44.912022
21.067210 27.162920 1.685822
21.067210 27.162920 44.912022
21.327677 0.201994 3.627110
21.327677 0.201994 46.853310
21.327677 26.780194 3.627110
21.327677 26.780194 46.853310
20.596776 0.013289 4.757908
20.596776 0.013289 47.984108
20.596776 26.591489 4.757908
20.596776 26.591489 47.984108
21.045948 13.201392 5.567535
21.045948 13.201392 48.793735
19.200092 13.253219 4.760934
19.200092 13.253219 47.987134
18.752249 13.048567 5.550244
18.752249 13.048567 48.776444
-2.922273 0.397344 2.573688
-2.922273 0.397344 45.799888
-2.922273 26.975544 2.573688
-2.922273 26.975544 45.799888
23.655927 0.397344 2.573688
23.655927 0.397344 45.799888
23.655927 26.975544 2.573688
23.655927 26.975544 45.799888
-3.200015 0.560800 1.698790
-3.200015 0.560800 44.924990
-3.200015 27.139000 1.698790
-3.200015 27.139000 44.924990
23.378185 0.560800 1.698790
23.378185 0.560800 44.924990
23.378185 27.139000 1.698790
23.378185 27.139000 44.924990
-3.771447 0.196679 3.625381
-3.771447 0.196679 46.851581
-3.771447 26.774879 3.625381
-3.771447 26.774879 46.851581
22.806753 0.196679 3.625381
22.806753 0.196679 46.851581
22.806753 26.774879 3.625381
22.806753 26.774879 46.851581
-2.911642 13.216010 4.691772
-2.911642 13.216010 47.917972
23.666558 13.216010 4.691772
23.666558 13.216010 47.917972
-3.182739 12.996740 5.554567
-3.182739 12.996740 48.780767
23.395461 12.996740 5.554567
23.395461 12.996740 48.780767
-0.180732 10.818656 1.049100
-0.180732 10.818656 44.275300
26.397468 10.818656 1.049100
26.397468 10.818656 44.275300
-0.361464 10.550216 1.919243
-0.361464 10.550216 45.145443
26.216736 10.550216 1.919243
26.216736 10.550216 45.145443
13.289100 9.965496 0.000000
13.289100 9.965496 43.226200
13.289100 8.477117 0.000000
13.289100 8.477117 43.226200
-0.005316 7.719638 1.164082
-0.005316 7.719638 44.390282
26.572884 7.719638 1.164082
26.572884 7.719638 44.390282
13.317007 8.159507 1.984083
13.317007 8.159507 45.210283
-0.055814 6.358834 1.153707
-0.055814 6.358834 44.379907
26.522386 6.358834 1.153707
26.522386 6.358834 44.379907
-0.131562 5.910992 1.966792
-0.131562 5.910992 45.192992
26.446638 5.910992 1.966792
26.446638 5.910992 45.192992
13.289100 5.618631 0.000000
13.289100 5.618631 43.226200
13.289100 4.147528 0.000000
13.289100 4.147528 43.226200
13.301060 3.274434 1.070281
13.301060 3.274434 44.296481
13.301060 29.852634 1.070281
13.301060 29.852634 44.296481
-0.002658 3.545532 1.958147
-0.002658 3.545532 45.184347
-0.002658 30.123732 1.958147
-0.002658 30.123732 45.184347
26.575542 3.545532 1.958147
26.575542 3.545532 45.184347
26.575542 30.123732 1.958147
26.575542 30.123732 45.184347
21.180168 12.972819 5.956570
21.180168 12.972819 49.182770
18.587464 13.036607 5.939712
18.587464 13.036607 49.165912
-0.057143 8.352199 2.354963
-0.057143 8.352199 45.581163
26.521057 8.352199 2.354963
26.521057 8.352199 45.581163
-0.046512 5.774114 2.361447
-0.046512 5.774114 45.587647
26.531688 5.774114 2.361447
26.531688 5.774114 45.587647
18.644607 0.571431 1.201688
18.644607 0.571431 44.427888
18.644607 27.149631 1.201688
18.644607 27.149631 44.427888
21.220035 0.411962 1.210334
21.220035 0.411962 44.436534
21.220035 26.990162 1.210334
21.220035 26.990162 44.436534
-0.028439 13.681660 1.814204
-0.028439 13.681660 45.040404
26.549761 13.681660 1.814204
26.549761 13.681660 45.040404
-0.011163 -0.011163 5.403275
-0.011163 -0.011163 48.629475
-0.011163 26.567037 5.403275
-0.011163 26.567037 48.629475
26.567037 -0.011163 5.403275
26.567037 -0.011163 48.629475
26.567037 26.567037 5.403275
26.567037 26.567037 48.629475
14.894423 13.686444 2.947595
14.894423 13.686444 46.173795
14.866516 13.336941 4.239626
14.866516 13.336941 47.465826
-1.642533 13.618670 2.957104
-1.642533 13.618670 46.183304
24.935667 13.618670 2.957104
24.935667 13.618670 46.183304
-1.641204 13.317007 4.291065
-1.641204 13.317007 47.517265
24.936996 13.317007 4.291065
24.936996 13.317007 47.517265
-0.065117 -1.217282 0.662658
-0.065117 -1.217282 43.888858
-0.065117 25.360918 0.662658
-0.065117 25.360918 43.888858
26.513083 -1.217282 0.662658
26.513083 -1.217282 43.888858
26.513083 25.360918 0.662658
26.513083 25.360918 43.888858
13.336941 15.310372 0.692484
13.336941 15.310372 43.918684
16.146256 13.835282 2.579740
16.146257 13.835282 45.805940
16.423999 14.118340 1.737693
16.423999 14.118340 44.963893
16.994101 13.508370 3.624517
16.994101 13.508370 46.850717
16.142270 13.290429 4.635578
16.142270 13.290429 47.861778
16.406723 -0.162127 5.511341
16.406723 -0.162127 48.737540
16.406723 26.416073 5.511341
16.406723 26.416073 48.737540
18.479822 13.500397 3.623220
18.479822 13.500397 46.849420
19.225341 13.739600 2.465622
19.225341 13.739600 45.691822
18.781485 13.913688 1.668531
18.781485 13.913688 44.894731
20.607407 13.722325 2.479455
20.607407 13.722325 45.705655
21.067210 13.873820 1.685822
21.067210 13.873820 44.912022
21.327677 13.491094 3.627110
21.327677 13.491094 46.853310
20.596776 13.302389 4.757908
20.596776 13.302389 47.984108
21.045948 -0.087708 5.567535
21.045948 -0.087708 48.793735
21.045948 26.490492 5.567535
21.045948 26.490492 48.793735
19.200092 -0.035881 4.760934
19.200092 -0.035881 47.987134
19.200092 26.542319 4.760934
19.200092 26.542319 47.987134
18.752249 -0.240533 5.550244
18.752249 -0.240533 48.776444
18.752249 26.337667 5.550244
18.752249 26.337667 48.776444
-2.922273 13.686444 2.573688
-2.922273 13.686444 45.799888
23.655927 13.686444 2.573688
23.655927 13.686444 45.799888
-3.200015 13.849900 1.698790
-3.200015 13.849900 44.924990
23.378185 13.849900 1.698790
23.378185 13.849900 44.924990
-3.771447 13.485779 3.625381
-3.771447 13.485779 46.851581
22.806753 13.485779 3.625381
22.806753 13.485779 46.851581
-2.911642 -0.073090 4.691772
-2.911642 -0.073090 47.917972
-2.911642 26.505110 4.691772
-2.911642 26.505110 47.917972
23.666558 -0.073090 4.691772
23.666558 -0.073090 47.917972
23.666558 26.505110 4.691772
23.666558 26.505110 47.917972
-3.182739 -0.292360 5.554567
-3.182739 -0.292360 48.780767
-3.182739 26.285840 5.554567
-3.182739 26.285840 48.780767
23.395461 -0.292360 5.554567
23.395461 -0.292360 48.780767
23.395461 26.285840 5.554567
23.395461 26.285840 48.780767
-0.180732 -2.470444 1.049100
-0.180732 -2.470444 44.275300
-0.180732 24.107756 1.049100
-0.180732 24.107756 44.275300
26.397468 -2.470444 1.049100
26.397468 -2.470444 44.275300
26.397468 24.107756 1.049100
26.397468 24.107756 44.275300
-0.361464 -2.738884 1.919243
-0.361464 -2.738884 45.145443
-0.361464 23.839316 1.919243
-0.361464 23.839316 45.145443
26.216736 -2.738884 1.919243
26.216736 -2.738884 45.145443
26.216736 23.839316 1.919243
26.216736 23.839316 45.145443
13.289100 -3.323604 0.000000
13.289100 -3.323604 43.226200
13.289100 23.254596 0.000000
13.289100 23.254596 43.226200
13.289100 21.766217 0.000000
13.289100 21.766217 43.226200
-0.005316 21.008738 1.164082
-0.005316 21.008738 44.390282
26.572884 21.008738 1.164082
26.572884 21.008738 44.390282
13.317007 21.448607 1.984083
13.317007 21.448607 45.210283
-0.055814 19.647934 1.153707
-0.055814 19.647934 44.379907
26.522386 19.647934 1.153707
26.522386 19.647934 44.379907
-0.131562 19.200092 1.966792
-0.131562 19.200092 45.192992
26.446638 19.200092 1.966792
26.446638 19.200092 45.192992
13.289100 18.907731 0.000000
13.289100 18.907731 43.226200
13.289100 17.436628 0.000000
13.289100 17.436628 43.226200
13.301060 16.563534 1.070281
13.301060 16.563534 44.296481
-0.002658 16.834632 1.958147
-0.002658 16.834632 45.184347
26.575542 16.834632 1.958147
26.575542 16.834632 45.184347
21.180168 -0.316281 5.956570
21.180168 -0.316281 49.182770
21.180168 26.261919 5.956570
21.180168 26.261919 49.182770
18.587464 -0.252493 5.939712
18.587464 -0.252493 49.165912
18.587464 26.325707 5.939712
18.587464 26.325707 49.165912
-0.057143 21.641299 2.354963
-0.057143 21.641299 45.581163
26.521057 21.641299 2.354963
26.521057 21.641299 45.581163
-0.046512 19.063214 2.361447
-0.046512 19.063214 45.587647
26.531688 19.063214 2.361447
26.531688 19.063214 45.587647
18.644607 13.860531 1.201688
18.644607 13.860531 44.427888
21.220035 13.701062 1.210334
21.220035 13.701062 44.436534
LINES 834 2502
2 0 22
2 0 202
2 0 346
2 0 374
2 1 23
2 1 203
2 1 347
2 1 375
2 2 24
2 2 204
2 2 348
2 2 376
2 3 25
2 3 205
2 3 349
2 3 377
2 4 200
2 4 538
2 5 201
2 5 539
2 6 14
2 6 40
2 6 334
2 7 15
2 7 41
2 7 335
2 8 16
2 8 42
2 8 336
2 9 17
2 9 43
2 9 337
2 10 18
2 10 44
2 10 338
2 11 19
2 11 45
2 11 339
2 12 20
2 12 46
2 12 340
2 13 21
2 13 47
2 13 341
2 14 64
2 14 528
2 15 65
2 15 529
2 16 66
2 16 530
2 17 67
2 17 531
2 18 68
2 18 532
2 19 69
2 19 533
2 20 70
2 20 534
2 21 71
2 21 535
2 22 26
2 22 110
2 23 27
2 23 111
2 24 28
2 24 112
2 25 29
2 25 113
2 26 186
2 26 266
2 27 187
2 27 267
2 28 188
2 28 268
2 29 189
2 29 269
2 30 126
2 30 184
2 31 127
2 31 185
2 32 156
2 32 334
2 33 157
2 33 335
2 34 158
2 34 336
2 35 159
2 35 337
2 36 160
2 36 338
2 37 161
2 37 339
2 38 162
2 38 340
2 39 163
2 39 341
2 40 48
2 40 56
2 41 49
2 41 57
2 42 50
2 42 58
2 43 51
2 43 59
2 44 52
2 44 60
2 45 53
2 45 61
2 46 54
2 46 62
2 47 55
2 47 63
2 56 64
2 56 76
2 57 65
2 57 77
2 58 66
2 58 78
2 59 67
2 59 79
2 60 68
2 61 69
2 62 70
2 63 71
2 64 226
2 65 227
2 66 228
2 67 229
2 68 230
2 69 231
2 70 232
2 71 233
2 72 222
2 73 223
2 74 224
2 75 225
2 76 80
2 76 252
2 77 81
2 77 253
2 78 82
2 78 254
2 79 83
2 79 255
2 80 84
2 80 88
2 80 176
2 81 85
2 81 89
2 81 177
2 82 86
2 82 90
2 82 178
2 83 87
2 83 91
2 83 179
2 84 176
2 85 177
2 86 178
2 87 179
2 88 92
2 88 96
2 88 180
2 89 93
2 89 97
2 89 181
2 90 94
2 90 98
2 90 182
2 91 95
2 91 99
2 91 183
2 92 180
2 93 181
2 94 182
2 95 183
2 96 100
2 96 118
2 97 101
2 97 119
2 98 102
2 98 120
2 99 103
2 99 121
2 100 248
2 100 252
2 100 318
2 101 249
2 101 253
2 101 319
2 102 250
2 102 254
2 102 320
2 103 251
2 103 255
2 103 321
2 104 168
2 104 246
2 105 169
2 105 247
2 106 108
2 106 170
2 106 234
2 106 246
2 107 109
2 107 171
2 107 235
2 107 247
2 108 170
2 109 171
2 110 114
2 110 118
2 111 115
2 111 119
2 112 116
2 112 120
2 113 117
2 113 121
2 118 266
2 119 267
2 120 268
2 121 269
2 122 124
2 122 200
2 122 264
2 123 125
2 123 201
2 123 265
2 126 128
2 126 470
2 127 129
2 127 471
2 130 134
2 130 462
2 131 135
2 131 463
2 132 136
2 132 464
2 133 137
2 133 465
2 134 474
2 135 475
2 136 476
2 137 477
2 138 144
2 138 172
2 138 472
2 138 478
2 139 145
2 139 173
2 139 473
2 139 479
2 140 474
2 140 508
2 141 475
2 141 509
2 142 476
2 142 510
2 143 477
2 143 511
2 144 146
2 144 174
2 144 488
2 145 147
2 145 175
2 145 489
2 146 174
2 147 175
2 148 152
2 148 480
2 149 153
2 149 481
2 150 154
2 150 482
2 151 155
2 151 483
2 152 156
2 153 157
2 154 160
2 155 161
2 156 496
2 157 497
2 158 498
2 159 499
2 160 500
2 161 501
2 162 502
2 163 503
2 164 492
2 165 493
2 166 494
2 167 495
2 168 246
2 169 247
2 172 478
2 173 479
2 184 198
2 184 536
2 184 556
2 185 199
2 185 537
2 185 557
2 186 350
2 187 351
2 188 352
2 189 353
2 190 194
2 190 210
2 190 524
2 191 195
2 191 211
2 191 525
2 192 196
2 192 212
2 192 526
2 193 197
2 193 213
2 193 527
2 194 222
2 194 342
2 195 223
2 195 343
2 196 224
2 196 344
2 197 225
2 197 345
2 198 200
2 198 260
2 199 201
2 199 261
2 202 274
2 203 275
2 204 276
2 205 277
2 206 312
2 206 524
2 207 313
2 207 525
2 208 314
2 208 526
2 209 315
2 209 527
2 210 214
2 210 218
2 211 215
2 211 219
2 212 216
2 212 220
2 213 217
2 213 221
2 218 222
2 218 234
2 219 223
2 219 235
2 220 224
2 221 225
2 234 236
2 235 237
2 236 238
2 236 240
2 236 330
2 237 239
2 237 241
2 237 331
2 238 330
2 239 331
2 240 242
2 240 244
2 240 332
2 241 243
2 241 245
2 241 333
2 242 332
2 243 333
2 244 246
2 244 264
2 245 247
2 245 265
2 248 318
2 249 319
2 250 320
2 251 321
2 252 256
2 252 322
2 253 257
2 253 323
2 254 258
2 254 324
2 255 259
2 255 325
2 256 322
2 257 323
2 258 324
2 259 325
2 260 262
2 260 264
2 261 263
2 261 265
2 266 270
2 267 271
2 268 272
2 269 273
2 274 278
2 274 640
2 275 279
2 275 641
2 276 280
2 276 642
2 277 281
2 277 643
2 282 624
2 283 625
2 284 290
2 284 626
2 285 291
2 285 627
2 286 628
2 287 629
2 288 292
2 288 630
2 289 293
2 289 631
2 290 646
2 291 647
2 292 648
2 293 649
2 294 300
2 294 326
2 294 644
2 294 650
2 295 301
2 295 327
2 295 645
2 295 651
2 296 646
2 296 678
2 297 647
2 297 679
2 298 648
2 298 680
2 299 649
2 299 681
2 300 302
2 300 328
2 300 660
2 301 303
2 301 329
2 301 661
2 302 328
2 303 329
2 304 308
2 304 652
2 305 309
2 305 653
2 306 310
2 306 654
2 307 311
2 307 655
2 308 312
2 309 313
2 310 314
2 311 315
2 312 666
2 313 667
2 314 668
2 315 669
2 316 664
2 317 665
2 326 650
2 327 651
2 334 354
2 334 548
2 335 355
2 335 549
2 336 356
2 336 550
2 337 357
2 337 551
2 338 358
2 338 552
2 339 359
2 339 553
2 340 360
2 340 554
2 341 361
2 341 555
2 342 544
2 343 545
2 344 546
2 345 547
2 346 350
2 346 378
2 347 351
2 347 379
2 348 352
2 348 380
2 349 353
2 349 381
2 350 390
2 351 391
2 352 392
2 353 393
2 354 362
2 354 430
2 355 363
2 355 431
2 356 364
2 356 432
2 357 365
2 357 433
2 358 366
2 358 434
2 359 367
2 359 435
2 360 368
2 360 436
2 361 369
2 361 437
2 362 528
2 362 608
2 363 529
2 363 609
2 364 530
2 364 610
2 365 531
2 365 611
2 366 532
2 366 612
2 367 533
2 367 613
2 368 534
2 368 614
2 369 535
2 369 615
2 370 462
2 370 524
2 371 463
2 371 525
2 372 464
2 372 526
2 373 465
2 373 527
2 374 492
2 375 493
2 376 494
2 377 495
2 378 382
2 378 386
2 379 383
2 379 387
2 380 384
2 380 388
2 381 385
2 381 389
2 386 390
2 386 396
2 387 391
2 387 397
2 388 392
2 388 398
2 389 393
2 389 399
2 390 566
2 391 567
2 392 568
2 393 569
2 394 564
2 395 565
2 396 400
2 396 588
2 397 401
2 397 589
2 398 402
2 398 590
2 399 403
2 399 591
2 400 404
2 400 408
2 400 516
2 401 405
2 401 409
2 401 517
2 402 406
2 402 410
2 402 518
2 403 407
2 403 411
2 403 519
2 404 516
2 405 517
2 406 518
2 407 519
2 408 412
2 408 416
2 408 520
2 409 413
2 409 417
2 409 521
2 410 414
2 410 418
2 410 522
2 411 415
2 411 419
2 411 523
2 412 520
2 413 521
2 414 522
2 415 523
2 416 420
2 416 450
2 417 421
2 417 451
2 418 422
2 418 452
2 419 423
2 419 453
2 420 584
2 420 588
2 420 670
2 421 585
2 421 589
2 421 671
2 422 586
2 422 590
2 422 672
2 423 587
2 423 591
2 423 673
2 424 504
2 424 582
2 425 505
2 425 583
2 426 428
2 426 506
2 426 570
2 426 582
2 427 429
2 427 507
2 427 571
2 427 583
2 428 506
2 429 507
2 430 438
2 430 446
2 431 439
2 431 447
2 432 440
2 432 448
2 433 441
2 433 449
2 434 442
2 434 450
2 435 443
2 435 451
2 436 444
2 436 452
2 437 445
2 437 453
2 446 608
2 447 609
2 448 610
2 449 611
2 450 612
2 451 613
2 452 614
2 453 615
2 454 458
2 454 544
2 454 604
2 455 459
2 455 545
2 455 605
2 456 460
2 456 546
2 456 606
2 457 461
2 457 547
2 457 607
2 462 466
2 463 467
2 464 468
2 465 469
2 470 472
2 471 473
2 474 480
2 474 508
2 475 481
2 475 509
2 476 482
2 476 510
2 477 483
2 477 511
2 480 484
2 480 512
2 481 485
2 481 513
2 482 486
2 482 514
2 483 487
2 483 515
2 484 512
2 485 513
2 486 514
2 487 515
2 488 490
2 489 491
2 490 492
2 491 493
2 504 582
2 505 583
2 524 540
2 525 541
2 526 542
2 527 543
2 536 538
2 536 558
2 537 539
2 537 559
2 538 564
2 539 565
2 540 544
2 540 596
2 541 545
2 541 597
2 542 546
2 542 598
2 543 547
2 543 599
2 548 624
2 549 625
2 550 626
2 551 627
2 552 628
2 553 629
2 554 630
2 555 631
2 556 664
2 557 665
2 558 560
2 558 562
2 559 561
2 559 563
2 562 564
2 562 570
2 563 565
2 563 571
2 570 572
2 571 573
2 572 574
2 572 576
2 572 686
2 573 575
2 573 577
2 573 687
2 574 686
2 575 687
2 576 578
2 576 580
2 576 688
2 577 579
2 577 581
2 577 689
2 578 688
2 579 689
2 580 582
2 580 606
2 581 583
2 581 607
2 584 670
2 585 671
2 586 672
2 587 673
2 588 592
2 588 674
2 589 593
2 589 675
2 590 594
2 590 676
2 591 595
2 591 677
2 592 674
2 593 675
2 594 676
2 595 677
2 596 600
2 596 604
2 597 601
2 597 605
2 598 602
2 598 606
2 599 603
2 599 607
2 608 616
2 609 617
2 610 618
2 611 619
2 612 620
2 613 621
2 614 622
2 615 623
2 624 632
2 625 633
2 626 634
2 627 635
2 628 636
2 629 637
2 630 638
2 631 639
2 642 644
2 643 645
2 646 652
2 646 678
2 647 653
2 647 679
2 648 654
2 648 680
2 649 655
2 649 681
2 652 656
2 652 682
2 653 657
2 653 683
2 654 658
2 654 684
2 655 659
2 655 685
2 656 682
2 657 683
2 658 684
2 659 685
2 660 662
2 661 663
2 662 664
2 663 665
