# vtk DataFile Version 1.0
Cube
ASCII

DATASET POLYDATA
POINTS 324 float
13.122698 13.122698 5.381325
11.511357 13.058467 4.232017
11.511357 13.058467 32.932417
1.474917 0.086260 2.918831
1.474917 0.086260 31.619231
1.474917 26.627860 2.918831
1.474917 26.627860 31.619231
28.016517 0.086260 2.918831
28.016517 0.086260 31.619231
28.016517 26.627860 2.918831
28.016517 26.627860 31.619231
10.245456 12.941684 4.612154
9.969025 12.668306 5.478906
3.604349 0.000000 3.587550
3.604349 0.000000 32.287950
3.604349 26.541600 3.587550
3.604349 26.541600 32.287950
30.145949 0.000000 3.587550
30.145949 0.000000 32.287950
30.145949 26.541600 3.587550
30.145949 26.541600 32.287950
9.383783 0.000000 3.587550
9.383783 0.000000 32.287950
9.383783 26.541600 3.587550
9.383783 26.541600 32.287950
2.748383 0.134035 2.521330
2.748383 0.134035 31.221730
2.748383 26.675635 2.521330
2.748383 26.675635 31.221730
29.289983 0.134035 2.521330
29.289983 0.134035 31.221730
29.289983 26.675635 2.521330
29.289983 26.675635 31.221730
3.025742 0.246837 1.620138
3.025742 0.246837 30.320538
3.025742 26.788437 1.620138
3.025742 26.788437 30.320538
29.567342 0.246837 1.620138
29.567342 0.246837 30.320538
29.567342 26.788437 1.620138
29.567342 26.788437 30.320538
7.902761 0.000000 3.587550
7.902761 0.000000 32.287950
7.902761 26.541600 3.587550
7.902761 26.541600 32.287950
5.094660 0.000000 3.587550
5.094660 0.000000 32.287950
5.094660 26.541600 3.587550
5.094660 26.541600 32.287950
5.808629 0.299920 2.455319
5.808629 0.299920 31.155719
5.808629 26.841520 2.455319
5.808629 26.841520 31.155719
5.344151 0.525524 1.658883
5.344151 0.525524 30.359283
5.344151 27.067124 1.658883
5.344151 27.067124 30.359283
7.180830 0.280014 2.451014
7.180830 0.280014 31.151414
7.180830 26.821614 2.451014
7.180830 26.821614 31.151414
7.642654 0.464478 1.643098
7.642654 0.464478 30.343498
7.642654 27.006078 1.643098
7.642654 27.006078 30.343498
13.122698 13.122698 19.731525
11.511357 13.058467 18.582217
1.474917 0.086260 17.269031
1.474917 26.627860 17.269031
28.016517 0.086260 17.269031
28.016517 26.627860 17.269031
10.245456 12.941684 18.962354
9.969025 12.668306 19.829106
3.604349 0.000000 17.937750
3.604349 26.541600 17.937750
30.145949 0.000000 17.937750
30.145949 26.541600 17.937750
9.383783 0.000000 17.937750
9.383783 26.541600 17.937750
2.748383 0.134035 16.871530
2.748383 26.675635 16.871530
29.289983 0.134035 16.871530
29.289983 26.675635 16.871530
3.025742 0.246837 15.970338
3.025742 26.788437 15.970338
29.567342 0.246837 15.970338
29.567342 26.788437 15.970338
7.902761 0.000000 17.937750
7.902761 26.541600 17.937750
5.094660 0.000000 17.937750
5.094660 26.541600 17.937750
5.808629 0.299920 16.805519
5.808629 26.841520 16.805519
5.344151 0.525524 16.009083
5.344151 27.067124 16.009083
7.180830 0.280014 16.801214
7.180830 26.821614 16.801214
7.642654 0.464478 15.993298
7.642654 27.006078 15.993298
13.122698 -0.148102 5.381325
13.122698 26.393498 5.381325
11.511357 -0.212333 4.232017
11.511357 -0.212333 32.932417
11.511357 26.329267 4.232017
11.511357 26.329267 32.932417
1.474917 13.357060 2.918831
1.474917 13.357060 31.619231
28.016517 13.357060 2.918831
28.016517 13.357060 31.619231
10.245456 -0.329116 4.612154
10.245456 26.212484 4.612154
9.969025 -0.602494 5.478906
9.969025 25.939106 5.478906
3.604349 13.270800 3.587550
3.604349 13.270800 32.287950
30.145949 13.270800 3.587550
30.145949 13.270800 32.287950
9.383783 13.270800 3.587550
9.383783 13.270800 32.287950
2.748383 13.404835 2.521330
2.748383 13.404835 31.221730
29.289983 13.404835 2.521330
29.289983 13.404835 31.221730
3.025742 13.517637 1.620138
3.025742 13.517637 30.320538
29.567342 13.517637 1.620138
29.567342 13.517637 30.320538
7.902761 13.270800 3.587550
7.902761 13.270800 32.287950
5.094660 13.270800 3.587550
5.094660 13.270800 32.287950
5.808629 13.570720 2.455319
5.808629 13.570720 31.155719
5.344151 13.796324 1.658883
5.344151 13.796324 30.359283
7.180830 13.550814 2.451014
7.180830 13.550814 31.151414
7.642654 13.735278 1.643098
7.642654 13.735278 30.343498
13.122698 -0.148102 19.731525
13.122698 26.393498 19.731525
11.511357 -0.212333 18.582217
11.511357 26.329267 18.582217
1.474917 13.357060 17.269031
28.016517 13.357060 17.269031
10.245456 -0.329116 18.962354
10.245456 26.212484 18.962354
9.969025 -0.602494 19.829106
9.969025 25.939106 19.829106
3.604349 13.270800 17.937750
30.145949 13.270800 17.937750
9.383783 13.270800 17.937750
2.748383 13.404835 16.871530
29.289983 13.404835 16.871530
3.025742 13.517637 15.970338
29.567342 13.517637 15.970338
7.902761 13.270800 17.937750
5.094660 13.270800 17.937750
5.808629 13.570720 16.805519
5.344151 13.796324 16.009083
7.180830 13.550814 16.801214
7.642654 13.735278 15.993298
-0.148102 13.122698 5.381325
26.393498 13.122698 5.381325
-1.759443 13.058467 4.232017
-1.759443 13.058467 32.932417
24.782157 13.058467 4.232017
24.782157 13.058467 32.932417
14.745717 0.086260 2.918831
14.745717 0.086260 31.619231
14.745717 26.627860 2.918831
14.745717 26.627860 31.619231
-3.025344 12.941684 4.612154
23.516256 12.941684 4.612154
-3.301775 12.668306 5.478906
23.239825 12.668306 5.478906
16.875149 0.000000 3.587550
16.875149 0.000000 32.287950
16.875149 26.541600 3.587550
16.875149 26.541600 32.287950
-3.887017 0.000000 3.587550
-3.887017 0.000000 32.287950
-3.887017 26.541600 3.587550
-3.887017 26.541600 32.287950
22.654583 0.000000 3.587550
22.654583 0.000000 32.287950
22.654583 26.541600 3.587550
22.654583 26.541600 32.287950
16.019183 0.134035 2.521330
16.019183 0.134035 31.221730
16.019183 26.675635 2.521330
16.019183 26.675635 31.221730
16.296542 0.246837 1.620138
16.296542 0.246837 30.320538
16.296542 26.788437 1.620138
16.296542 26.788437 30.320538
21.173561 0.000000 3.587550
21.173561 0.000000 32.287950
21.173561 26.541600 3.587550
21.173561 26.541600 32.287950
18.365460 0.000000 3.587550
18.365460 0.000000 32.287950
18.365460 26.541600 3.587550
18.365460 26.541600 32.287950
19.079429 0.299920 2.455319
19.079429 0.299920 31.155719
19.079429 26.841520 2.455319
19.079429 26.841520 31.155719
18.614951 0.525524 1.658883
18.614951 0.525524 30.359283
18.614951 27.067124 1.658883
18.614951 27.067124 30.359283
20.451630 0.280014 2.451014
20.451630 0.280014 31.151414
20.451630 26.821614 2.451014
20.451630 26.821614 31.151414
20.913454 0.464478 1.643098
20.913454 0.464478 30.343498
20.913454 27.006078 1.643098
20.913454 27.006078 30.343498
-0.148102 13.122698 19.731525
26.393498 13.122698 19.731525
-1.759443 13.058467 18.582217
24.782157 13.058467 18.582217
14.745717 0.086260 17.269031
14.745717 26.627860 17.269031
-3.025344 12.941684 18.962354
23.516256 12.941684 18.962354
-3.301775 12.668306 19.829106
23.239825 12.668306 19.829106
16.875149 0.000000 17.937750
16.875149 26.541600 17.937750
-3.887017 0.000000 17.937750
-3.887017 26.541600 17.937750
22.654583 0.000000 17.937750
22.654583 26.541600 17.937750
16.019183 0.134035 16.871530
16.019183 26.675635 16.871530
16.296542 0.246837 15.970338
16.296542 26.788437 15.970338
21.173561 0.000000 17.937750
21.173561 26.541600 17.937750
18.365460 0.000000 17.937750
18.365460 26.541600 17.937750
19.079429 0.299920 16.805519
19.079429 26.841520 16.805519
18.614951 0.525524 16.009083
18.614951 27.067124 16.009083
20.451630 0.280014 16.801214
20.451630 26.821614 16.801214
20.913454 0.464478 15.993298
20.913454 27.006078 15.993298
-0.148102 -0.148102 5.381325
-0.148102 26.393498 5.381325
26.393498 -0.148102 5.381325
26.393498 26.393498 5.381325
-1.759443 -0.212333 4.232017
-1.759443 -0.212333 32.932417
-1.759443 26.329267 4.232017
-1.759443 26.329267 32.932417
24.782157 -0.212333 4.232017
24.782157 -0.212333 32.932417
24.782157 26.329267 4.232017
24.782157 26.329267 32.932417
14.745717 13.357060 2.918831
14.745717 13.357060 31.619231
-3.025344 -0.329116 4.612154
-3.025344 26.212484 4.612154
23.516256 -0.329116 4.612154
23.516256 26.212484 4.612154
-3.301775 -0.602494 5.478906
-3.301775 25.939106 5.478906
23.239825 -0.602494 5.478906
23.239825 25.939106 5.478906
16.875149 13.270800 3.587550
16.875149 13.270800 32.287950
-3.887017 13.270800 3.587550
-3.887017 13.270800 32.287950
22.654583 13.270800 3.587550
22.654583 13.270800 32.287950
16.019183 13.404835 2.521330
16.019183 13.404835 31.221730
16.296542 13.517637 1.620138
16.296542 13.517637 30.320538
21.173561 13.270800 3.587550
21.173561 13.270800 32.287950
18.365460 13.270800 3.587550
18.365460 13.270800 32.287950
19.079429 13.570720 2.455319
19.079429 13.570720 31.155719
18.614951 13.796324 1.658883
18.614951 13.796324 30.359283
20.451630 13.550814 2.451014
20.451630 13.550814 31.151414
20.913454 13.735278 1.643098
20.913454 13.735278 30.343498
-0.148102 -0.148102 19.731525
-0.148102 26.393498 19.731525
26.393498 -0.148102 19.731525
26.393498 26.393498 19.731525
-1.759443 -0.212333 18.582217
-1.759443 26.329267 18.582217
24.782157 -0.212333 18.582217
24.782157 26.329267 18.582217
14.745717 13.357060 17.269031
-3.025344 -0.329116 18.962354
-3.025344 26.212484 18.962354
23.516256 -0.329116 18.962354
23.516256 26.212484 18.962354
-3.301775 -0.602494 19.829106
-3.301775 25.939106 19.829106
23.239825 -0.602494 19.829106
23.239825 25.939106 19.829106
16.875149 13.270800 17.937750
-3.887017 13.270800 17.937750
22.654583 13.270800 17.937750
16.019183 13.404835 16.871530
16.296542 13.517637 15.970338
21.173561 13.270800 17.937750
18.365460 13.270800 17.937750
19.079429 13.570720 16.805519
18.614951 13.796324 16.009083
20.451630 13.550814 16.801214
20.913454 13.735278 15.993298
LINES 279 837
2 0 1
2 1 11
2 3 25
2 4 26
2 5 27
2 6 28
2 7 29
2 8 30
2 9 31
2 10 32
2 11 12
2 11 117
2 13 25
2 13 45
2 14 26
2 14 46
2 15 27
2 15 47
2 16 28
2 16 48
2 17 29
2 18 30
2 19 31
2 20 32
2 21 41
2 21 109
2 22 42
2 23 43
2 23 110
2 24 44
2 25 33
2 26 34
2 27 35
2 28 36
2 29 37
2 30 38
2 31 39
2 32 40
2 41 57
2 42 58
2 43 59
2 44 60
2 45 49
2 46 50
2 47 51
2 48 52
2 49 53
2 49 57
2 50 54
2 50 58
2 51 55
2 51 59
2 52 56
2 52 60
2 57 61
2 58 62
2 59 63
2 60 64
2 65 66
2 66 71
2 67 79
2 68 80
2 69 81
2 70 82
2 71 72
2 71 151
2 73 79
2 73 89
2 74 80
2 74 90
2 75 81
2 76 82
2 77 87
2 77 145
2 78 88
2 78 146
2 79 83
2 80 84
2 81 85
2 82 86
2 87 95
2 88 96
2 89 91
2 90 92
2 91 93
2 91 95
2 92 94
2 92 96
2 95 97
2 96 98
2 99 101
2 100 103
2 101 109
2 103 110
2 105 119
2 106 120
2 107 121
2 108 122
2 109 111
2 110 112
2 113 119
2 113 129
2 114 120
2 114 130
2 115 121
2 116 122
2 117 127
2 118 128
2 119 123
2 120 124
2 121 125
2 122 126
2 127 135
2 128 136
2 129 131
2 130 132
2 131 133
2 131 135
2 132 134
2 132 136
2 135 137
2 136 138
2 139 141
2 140 142
2 141 145
2 142 146
2 143 152
2 144 153
2 145 147
2 146 148
2 149 152
2 149 157
2 150 153
2 151 156
2 152 154
2 153 155
2 156 160
2 157 158
2 158 159
2 158 160
2 160 161
2 162 164
2 163 166
2 164 172
2 166 173
2 168 188
2 169 189
2 170 190
2 171 191
2 172 174
2 172 276
2 173 175
2 173 278
2 176 188
2 176 200
2 177 189
2 177 201
2 178 190
2 178 202
2 179 191
2 179 203
2 180 266
2 182 267
2 184 196
2 184 268
2 185 197
2 186 198
2 186 269
2 187 199
2 188 192
2 189 193
2 190 194
2 191 195
2 196 212
2 197 213
2 198 214
2 199 215
2 200 204
2 201 205
2 202 206
2 203 207
2 204 208
2 204 212
2 205 209
2 205 213
2 206 210
2 206 214
2 207 211
2 207 215
2 212 216
2 213 217
2 214 218
2 215 219
2 220 222
2 221 223
2 222 226
2 223 227
2 224 236
2 225 237
2 226 228
2 226 314
2 227 229
2 227 315
2 230 236
2 230 242
2 231 237
2 231 243
2 232 305
2 233 306
2 234 240
2 234 307
2 235 241
2 235 308
2 236 238
2 237 239
2 240 248
2 241 249
2 242 244
2 243 245
2 244 246
2 244 248
2 245 247
2 245 249
2 248 250
2 249 251
2 252 256
2 253 258
2 254 260
2 255 262
2 256 266
2 258 267
2 260 268
2 262 269
2 264 280
2 265 281
2 266 270
2 267 271
2 268 272
2 269 273
2 274 280
2 274 286
2 275 281
2 275 287
2 278 284
2 279 285
2 280 282
2 281 283
2 284 292
2 285 293
2 286 288
2 287 289
2 288 290
2 288 292
2 289 291
2 289 293
2 292 294
2 293 295
2 296 300
2 297 301
2 298 302
2 299 303
2 300 305
2 301 306
2 302 307
2 303 308
2 304 316
2 305 309
2 306 310
2 307 311
2 308 312
2 313 316
2 313 319
2 315 318
2 316 317
2 318 322
2 319 320
2 320 321
2 320 322
2 322 323
