# vtk DataFile Version 1.0
Cube
ASCII

DATASET POLYDATA
POINTS 136 float
13.122698 13.122698 5.381325
11.511357 13.058467 4.232017
1.474917 0.086260 2.918831
10.245456 12.941684 4.612154
9.969025 12.668306 5.478906
3.604349 0.000000 3.587550
3.604349 26.541600 3.587550
9.383783 0.000000 3.587550
9.383783 26.541600 3.587550
2.748383 0.134035 2.521330
3.025742 0.246837 1.620138
7.902761 0.000000 3.587550
7.902761 26.541600 3.587550
5.094660 0.000000 3.587550
5.094660 26.541600 3.587550
5.808629 0.299920 2.455319
5.344151 0.525524 1.658883
7.180830 0.280014 2.451014
7.642654 0.464478 1.643098
13.122698 13.122698 19.731525
11.511357 13.058467 18.582217
1.474917 0.086260 17.269031
10.245456 12.941684 18.962354
9.969025 12.668306 19.829106
3.604349 0.000000 17.937750
3.604349 26.541600 17.937750
9.383783 0.000000 17.937750
9.383783 26.541600 17.937750
2.748383 0.134035 16.871530
3.025742 0.246837 15.970338
7.902761 0.000000 17.937750
7.902761 26.541600 17.937750
5.094660 0.000000 17.937750
5.094660 26.541600 17.937750
5.808629 0.299920 16.805519
5.344151 0.525524 16.009083
7.180830 0.280014 16.801214
7.642654 0.464478 15.993298
13.122698 26.393498 5.381325
11.511357 26.329267 4.232017
1.474917 13.357060 2.918831
10.245456 26.212484 4.612154
9.969025 25.939106 5.478906
3.604349 13.270800 3.587550
9.383783 13.270800 3.587550
2.748383 13.404835 2.521330
3.025742 13.517637 1.620138
7.902761 13.270800 3.587550
5.094660 13.270800 3.587550
5.808629 13.570720 2.455319
5.344151 13.796324 1.658883
7.180830 13.550814 2.451014
7.642654 13.735278 1.643098
13.122698 26.393498 19.731525
11.511357 26.329267 18.582217
1.474917 13.357060 17.269031
10.245456 26.212484 18.962354
9.969025 25.939106 19.829106
3.604349 13.270800 17.937750
9.383783 13.270800 17.937750
2.748383 13.404835 16.871530
3.025742 13.517637 15.970338
7.902761 13.270800 17.937750
5.094660 13.270800 17.937750
5.808629 13.570720 16.805519
5.344151 13.796324 16.009083
7.180830 13.550814 16.801214
7.642654 13.735278 15.993298
26.393498 13.122698 5.381325
24.782157 13.058467 4.232017
14.745717 0.086260 2.918831
23.516256 12.941684 4.612154
23.239825 12.668306 5.478906
16.875149 0.000000 3.587550
16.875149 26.541600 3.587550
22.654583 0.000000 3.587550
22.654583 26.541600 3.587550
16.019183 0.134035 2.521330
16.296542 0.246837 1.620138
21.173561 0.000000 3.587550
21.173561 26.541600 3.587550
18.365460 0.000000 3.587550
18.365460 26.541600 3.587550
19.079429 0.299920 2.455319
18.614951 0.525524 1.658883
20.451630 0.280014 2.451014
20.913454 0.464478 1.643098
26.393498 13.122698 19.731525
24.782157 13.058467 18.582217
14.745717 0.086260 17.269031
23.516256 12.941684 18.962354
23.239825 12.668306 19.829106
16.875149 0.000000 17.937750
16.875149 26.541600 17.937750
22.654583 0.000000 17.937750
22.654583 26.541600 17.937750
16.019183 0.134035 16.871530
16.296542 0.246837 15.970338
21.173561 0.000000 17.937750
21.173561 26.541600 17.937750
18.365460 0.000000 17.937750
18.365460 26.541600 17.937750
19.079429 0.299920 16.805519
18.614951 0.525524 16.009083
20.451630 0.280014 16.801214
20.913454 0.464478 15.993298
26.393498 26.393498 5.381325
24.782157 26.329267 4.232017
14.745717 13.357060 2.918831
23.516256 26.212484 4.612154
23.239825 25.939106 5.478906
16.875149 13.270800 3.587550
22.654583 13.270800 3.587550
16.019183 13.404835 2.521330
16.296542 13.517637 1.620138
21.173561 13.270800 3.587550
18.365460 13.270800 3.587550
19.079429 13.570720 2.455319
18.614951 13.796324 1.658883
20.451630 13.550814 2.451014
20.913454 13.735278 1.643098
26.393498 26.393498 19.731525
24.782157 26.329267 18.582217
14.745717 13.357060 17.269031
23.516256 26.212484 18.962354
23.239825 25.939106 19.829106
16.875149 13.270800 17.937750
22.654583 13.270800 17.937750
16.019183 13.404835 16.871530
16.296542 13.517637 15.970338
21.173561 13.270800 17.937750
18.365460 13.270800 17.937750
19.079429 13.570720 16.805519
18.614951 13.796324 16.009083
20.451630 13.550814 16.801214
20.913454 13.735278 15.993298
POINT_DATA 136
SCALARS my_scalars float
LOOKUP_TABLE default
2
1.55
1.55
1.7
1.09
1.7
1.7
1.7
1.7
1.7
1.09
1.7
1.7
1.7
1.7
1.7
1.09
1.7
1.09
2
1.55
1.55
1.7
1.09
1.7
1.7
1.7
1.7
1.7
1.09
1.7
1.7
1.7
1.7
1.7
1.09
1.7
1.09
2
1.55
1.55
1.7
1.09
1.7
1.7
1.7
1.09
1.7
1.7
1.7
1.09
1.7
1.09
2
1.55
1.55
1.7
1.09
1.7
1.7
1.7
1.09
1.7
1.7
1.7
1.09
1.7
1.09
2
1.55
1.55
1.7
1.09
1.7
1.7
1.7
1.7
1.7
1.09
1.7
1.7
1.7
1.7
1.7
1.09
1.7
1.09
2
1.55
1.55
1.7
1.09
1.7
1.7
1.7
1.7
1.7
1.09
1.7
1.7
1.7
1.7
1.7
1.09
1.7
1.09
2
1.55
1.55
1.7
1.09
1.7
1.7
1.7
1.09
1.7
1.7
1.7
1.09
1.7
1.09
2
1.55
1.55
1.7
1.09
1.7
1.7
1.7
1.09
1.7
1.7
1.7
1.09
1.7
1.09
VECTORS vectors float
0.4375 0 0
0 0 0
0 0 0
0.3125 0 0
0.25 0 0
0.3125 0 0
0.3125 0 0
0.3125 0 0
0.3125 0 0
0.3125 0 0
0.25 0 0
0.3125 0 0
0.3125 0 0
0.3125 0 0
0.3125 0 0
0.3125 0 0
0.25 0 0
0.3125 0 0
0.25 0 0
0.4375 0 0
0 0 0
0 0 0
0.3125 0 0
0.25 0 0
0.3125 0 0
0.3125 0 0
0.3125 0 0
0.3125 0 0
0.3125 0 0
0.25 0 0
0.3125 0 0
0.3125 0 0
0.3125 0 0
0.3125 0 0
0.3125 0 0
0.25 0 0
0.3125 0 0
0.25 0 0
0.4375 0 0
0 0 0
0 0 0
0.3125 0 0
0.25 0 0
0.3125 0 0
0.3125 0 0
0.3125 0 0
0.25 0 0
0.3125 0 0
0.3125 0 0
0.3125 0 0
0.25 0 0
0.3125 0 0
0.25 0 0
0.4375 0 0
0 0 0
0 0 0
0.3125 0 0
0.25 0 0
0.3125 0 0
0.3125 0 0
0.3125 0 0
0.25 0 0
0.3125 0 0
0.3125 0 0
0.3125 0 0
0.25 0 0
0.3125 0 0
0.25 0 0
0.4375 0 0
0 0 0
0 0 0
0.3125 0 0
0.25 0 0
0.3125 0 0
0.3125 0 0
0.3125 0 0
0.3125 0 0
0.3125 0 0
0.25 0 0
0.3125 0 0
0.3125 0 0
0.3125 0 0
0.3125 0 0
0.3125 0 0
0.25 0 0
0.3125 0 0
0.25 0 0
0.4375 0 0
0 0 0
0 0 0
0.3125 0 0
0.25 0 0
0.3125 0 0
0.3125 0 0
0.3125 0 0
0.3125 0 0
0.3125 0 0
0.25 0 0
0.3125 0 0
0.3125 0 0
0.3125 0 0
0.3125 0 0
0.3125 0 0
0.25 0 0
0.3125 0 0
0.25 0 0
0.4375 0 0
0 0 0
0 0 0
0.3125 0 0
0.25 0 0
0.3125 0 0
0.3125 0 0
0.3125 0 0
0.25 0 0
0.3125 0 0
0.3125 0 0
0.3125 0 0
0.25 0 0
0.3125 0 0
0.25 0 0
0.4375 0 0
0 0 0
0 0 0
0.3125 0 0
0.25 0 0
0.3125 0 0
0.3125 0 0
0.3125 0 0
0.25 0 0
0.3125 0 0
0.3125 0 0
0.3125 0 0
0.25 0 0
0.3125 0 0
0.25 0 0
