# vtk DataFile Version 1.0
Cube
ASCII

DATASET POLYDATA
POINTS 280 float
6.735552 6.795672 9.091982
6.436678 5.190484 6.635725
6.459239 8.339811 6.536270
6.643713 8.406168 7.900857
6.327851 3.888549 6.242291
6.327851 30.431550 6.242291
6.096927 3.619138 5.382294
6.096927 30.162138 5.382294
6.480473 9.604585 6.117972
6.441986 9.859397 5.224336
6.725996 5.158632 7.937422
6.598590 3.029883 7.267560
6.598590 29.572883 7.267560
6.759175 3.900494 8.360107
6.759175 30.443494 8.360107
6.870656 3.636391 9.243506
6.870656 30.179391 9.243506
6.568065 10.499084 7.187118
6.854730 12.704807 8.434699
7.118833 12.257557 9.205479
6.570720 11.980183 7.257322
6.353067 12.719406 6.135523
6.215043 0.826814 6.157462
6.215043 27.369814 6.157462
5.952268 1.286008 5.392532
5.952268 27.829008 5.392532
6.477819 1.528877 7.362628
6.477819 28.071877 7.362628
6.735286 0.821506 8.436161
6.735286 27.364506 8.436161
6.719360 9.674924 8.273815
6.853403 9.964242 9.146975
7.101580 1.404125 9.585749
7.101580 27.947125 9.585749
6.119489 12.158021 4.949371
6.735552 6.795672 23.717782
6.436678 5.190484 21.261525
6.459239 8.339811 21.162070
6.643713 8.406168 22.526657
6.327851 3.888550 20.868091
6.327851 30.431550 20.868091
6.096927 3.619138 20.008094
6.096927 30.162138 20.008094
6.480473 9.604585 20.743772
6.441986 9.859397 19.850136
6.725996 5.158632 22.563222
6.598590 3.029883 21.893360
6.598590 29.572883 21.893360
6.759175 3.900494 22.985907
6.759175 30.443494 22.985907
6.870656 3.636391 23.869306
6.870656 30.179391 23.869306
6.568065 10.499084 21.812918
6.854730 12.704807 23.060499
7.118833 12.257557 23.831279
6.570720 11.980183 21.883122
6.353067 12.719406 20.761323
6.215043 0.826814 20.783262
6.215043 27.369814 20.783262
5.952268 1.286008 20.018332
5.952268 27.829008 20.018332
6.477819 1.528877 21.988428
6.477819 28.071877 21.988428
6.735286 0.821506 23.061961
6.735286 27.364506 23.061961
6.719360 9.674924 22.899615
6.853403 9.964242 23.772775
7.101580 1.404125 24.211549
7.101580 27.947125 24.211549
6.119489 12.158021 19.575171
6.735552 20.067172 9.091982
6.436678 18.461984 6.635725
6.459239 21.611311 6.536270
6.643713 21.677668 7.900857
6.327851 17.160050 6.242291
6.096927 16.890638 5.382294
6.480473 -3.666915 6.117972
6.480473 22.876085 6.117972
6.441986 -3.412103 5.224336
6.441986 23.130897 5.224336
6.725996 18.430132 7.937422
6.598590 16.301383 7.267560
6.759175 17.171994 8.360107
6.870656 16.907891 9.243506
6.568065 -2.772416 7.187118
6.568065 23.770584 7.187118
6.854730 -0.566693 8.434699
6.854730 25.976307 8.434699
7.118833 -1.013943 9.205479
7.118833 25.529057 9.205479
6.570720 -1.291317 7.257322
6.570720 25.251683 7.257322
6.353067 -0.552094 6.135523
6.353067 25.990906 6.135523
6.215043 14.098314 6.157462
5.952268 14.557508 5.392532
6.477819 14.800377 7.362628
6.735286 14.093006 8.436161
6.719360 -3.596576 8.273815
6.719360 22.946424 8.273815
6.853403 -3.307258 9.146975
6.853403 23.235742 9.146975
7.101580 14.675625 9.585749
6.119489 -1.113479 4.949371
6.119489 25.429521 4.949371
6.735552 20.067172 23.717782
6.436678 18.461984 21.261525
6.459239 21.611311 21.162070
6.643713 21.677668 22.526657
6.327851 17.160050 20.868091
6.096927 16.890638 20.008094
6.480473 -3.666915 20.743772
6.480473 22.876085 20.743772
6.441986 -3.412103 19.850136
6.441986 23.130897 19.850136
6.725996 18.430132 22.563222
6.598590 16.301383 21.893360
6.759175 17.171994 22.985907
6.870656 16.907891 23.869306
6.568065 -2.772416 21.812918
6.568065 23.770584 21.812918
6.854730 -0.566693 23.060499
6.854730 25.976307 23.060499
7.118833 -1.013943 23.831279
7.118833 25.529057 23.831279
6.570720 -1.291317 21.883122
6.570720 25.251683 21.883122
6.353067 -0.552094 20.761323
6.353067 25.990906 20.761323
6.215043 14.098314 20.783262
5.952268 14.557508 20.018332
6.477819 14.800377 21.988428
6.735286 14.093006 23.061961
6.719360 -3.596576 22.899615
6.719360 22.946424 22.899615
6.853403 -3.307258 23.772775
6.853403 23.235742 23.772775
7.101580 14.675625 24.211549
6.119489 -1.113479 19.575171
6.119489 25.429521 19.575171
20.007052 6.795672 9.091982
19.708178 5.190484 6.635725
19.730739 8.339811 6.536270
19.915213 8.406168 7.900857
19.599351 3.888549 6.242291
19.599351 30.431550 6.242291
19.368427 3.619138 5.382294
19.368427 30.162138 5.382294
19.751973 9.604585 6.117972
19.713486 9.859397 5.224336
19.997496 5.158632 7.937422
19.870090 3.029883 7.267560
19.870090 29.572883 7.267560
20.030675 3.900494 8.360107
20.030675 30.443494 8.360107
20.142156 3.636391 9.243506
20.142156 30.179391 9.243506
19.839565 10.499084 7.187118
20.126230 12.704807 8.434699
20.390333 12.257557 9.205479
19.842220 11.980183 7.257322
19.624567 12.719406 6.135523
19.486543 0.826814 6.157462
19.486543 27.369814 6.157462
19.223768 1.286008 5.392532
19.223768 27.829008 5.392532
19.749319 1.528877 7.362628
19.749319 28.071877 7.362628
20.006786 0.821506 8.436161
20.006786 27.364506 8.436161
19.990860 9.674924 8.273815
20.124903 9.964242 9.146975
20.373080 1.404125 9.585749
20.373080 27.947125 9.585749
19.390989 12.158021 4.949371
20.007052 6.795672 23.717782
19.708178 5.190484 21.261525
19.730739 8.339811 21.162070
19.915213 8.406168 22.526657
19.599351 3.888550 20.868091
19.599351 30.431550 20.868091
19.368427 3.619138 20.008094
19.368427 30.162138 20.008094
19.751973 9.604585 20.743772
19.713486 9.859397 19.850136
19.997496 5.158632 22.563222
19.870090 3.029883 21.893360
19.870090 29.572883 21.893360
20.030675 3.900494 22.985907
20.030675 30.443494 22.985907
20.142156 3.636391 23.869306
20.142156 30.179391 23.869306
19.839565 10.499084 21.812918
20.126230 12.704807 23.060499
20.390333 12.257557 23.831279
19.842220 11.980183 21.883122
19.624567 12.719406 20.761323
19.486543 0.826814 20.783262
19.486543 27.369814 20.783262
19.223768 1.286008 20.018332
19.223768 27.829008 20.018332
19.749319 1.528877 21.988428
19.749319 28.071877 21.988428
20.006786 0.821506 23.061961
20.006786 27.364506 23.061961
19.990860 9.674924 22.899615
20.124903 9.964242 23.772775
20.373080 1.404125 24.211549
20.373080 27.947125 24.211549
19.390989 12.158021 19.575171
20.007052 20.067172 9.091982
19.708178 18.461984 6.635725
19.730739 21.611311 6.536270
19.915213 21.677668 7.900857
19.599351 17.160050 6.242291
19.368427 16.890638 5.382294
19.751973 -3.666915 6.117972
19.751973 22.876085 6.117972
19.713486 -3.412103 5.224336
19.713486 23.130897 5.224336
19.997496 18.430132 7.937422
19.870090 16.301383 7.267560
20.030675 17.171994 8.360107
20.142156 16.907891 9.243506
19.839565 -2.772416 7.187118
19.839565 23.770584 7.187118
20.126230 -0.566693 8.434699
20.126230 25.976307 8.434699
20.390333 -1.013943 9.205479
20.390333 25.529057 9.205479
19.842220 -1.291317 7.257322
19.842220 25.251683 7.257322
19.624567 -0.552094 6.135523
19.624567 25.990906 6.135523
19.486543 14.098314 6.157462
19.223768 14.557508 5.392532
19.749319 14.800377 7.362628
20.006786 14.093006 8.436161
19.990860 -3.596576 8.273815
19.990860 22.946424 8.273815
20.124903 -3.307258 9.146975
20.124903 23.235742 9.146975
20.373080 14.675625 9.585749
19.390989 -1.113479 4.949371
19.390989 25.429521 4.949371
20.007052 20.067172 23.717782
19.708178 18.461984 21.261525
19.730739 21.611311 21.162070
19.915213 21.677668 22.526657
19.599351 17.160050 20.868091
19.368427 16.890638 20.008094
19.751973 -3.666915 20.743772
19.751973 22.876085 20.743772
19.713486 -3.412103 19.850136
19.713486 23.130897 19.850136
19.997496 18.430132 22.563222
19.870090 16.301383 21.893360
20.030675 17.171994 22.985907
20.142156 16.907891 23.869306
19.839565 -2.772416 21.812918
19.839565 23.770584 21.812918
20.126230 -0.566693 23.060499
20.126230 25.976307 23.060499
20.390333 -1.013943 23.831279
20.390333 25.529057 23.831279
19.842220 -1.291317 21.883122
19.842220 25.251683 21.883122
19.624567 -0.552094 20.761323
19.624567 25.990906 20.761323
19.486543 14.098314 20.783262
19.223768 14.557508 20.018332
19.749319 14.800377 21.988428
20.006786 14.093006 23.061961
19.990860 -3.596576 22.899615
19.990860 22.946424 22.899615
20.124903 -3.307258 23.772775
20.124903 23.235742 23.772775
20.373080 14.675625 24.211549
19.390989 -1.113479 19.575171
19.390989 25.429521 19.575171
LINES 304 912
2 0 3
2 0 10
2 1 4
2 1 10
2 2 3
2 2 8
2 3 30
2 4 6
2 4 11
2 5 7
2 5 12
2 8 9
2 8 17
2 10 13
2 11 13
2 11 26
2 12 14
2 12 27
2 13 15
2 14 16
2 17 20
2 17 30
2 18 19
2 18 20
2 18 97
2 20 21
2 21 34
2 21 94
2 22 24
2 22 26
2 22 92
2 23 25
2 23 27
2 23 93
2 26 28
2 27 29
2 28 32
2 28 86
2 29 33
2 29 87
2 30 31
2 35 38
2 35 45
2 36 39
2 36 45
2 37 38
2 37 43
2 38 65
2 39 41
2 39 46
2 40 42
2 40 47
2 43 44
2 43 52
2 45 48
2 46 48
2 46 61
2 47 49
2 47 62
2 48 50
2 49 51
2 52 55
2 52 65
2 53 54
2 53 55
2 53 132
2 55 56
2 56 69
2 56 129
2 57 59
2 57 61
2 57 127
2 58 60
2 58 62
2 58 128
2 61 63
2 62 64
2 63 67
2 63 121
2 64 68
2 64 122
2 65 66
2 70 73
2 70 80
2 71 74
2 71 80
2 72 73
2 72 77
2 73 99
2 74 75
2 74 81
2 76 78
2 76 84
2 77 79
2 77 85
2 80 82
2 81 82
2 81 96
2 82 83
2 84 90
2 84 98
2 85 91
2 85 99
2 86 88
2 86 90
2 87 89
2 87 91
2 90 92
2 91 93
2 92 103
2 93 104
2 94 95
2 94 96
2 96 97
2 97 102
2 98 100
2 99 101
2 105 108
2 105 115
2 106 109
2 106 115
2 107 108
2 107 112
2 108 134
2 109 110
2 109 116
2 111 113
2 111 119
2 112 114
2 112 120
2 115 117
2 116 117
2 116 131
2 117 118
2 119 125
2 119 133
2 120 126
2 120 134
2 121 123
2 121 125
2 122 124
2 122 126
2 125 127
2 126 128
2 127 138
2 128 139
2 129 130
2 129 131
2 131 132
2 132 137
2 133 135
2 134 136
2 140 143
2 140 150
2 141 144
2 141 150
2 142 143
2 142 148
2 143 170
2 144 146
2 144 151
2 145 147
2 145 152
2 148 149
2 148 157
2 150 153
2 151 153
2 151 166
2 152 154
2 152 167
2 153 155
2 154 156
2 157 160
2 157 170
2 158 159
2 158 160
2 158 237
2 160 161
2 161 174
2 161 234
2 162 164
2 162 166
2 162 232
2 163 165
2 163 167
2 163 233
2 166 168
2 167 169
2 168 172
2 168 226
2 169 173
2 169 227
2 170 171
2 175 178
2 175 185
2 176 179
2 176 185
2 177 178
2 177 183
2 178 205
2 179 181
2 179 186
2 180 182
2 180 187
2 183 184
2 183 192
2 185 188
2 186 188
2 186 201
2 187 189
2 187 202
2 188 190
2 189 191
2 192 195
2 192 205
2 193 194
2 193 195
2 193 272
2 195 196
2 196 209
2 196 269
2 197 199
2 197 201
2 197 267
2 198 200
2 198 202
2 198 268
2 201 203
2 202 204
2 203 207
2 203 261
2 204 208
2 204 262
2 205 206
2 210 213
2 210 220
2 211 214
2 211 220
2 212 213
2 212 217
2 213 239
2 214 215
2 214 221
2 216 218
2 216 224
2 217 219
2 217 225
2 220 222
2 221 222
2 221 236
2 222 223
2 224 230
2 224 238
2 225 231
2 225 239
2 226 228
2 226 230
2 227 229
2 227 231
2 230 232
2 231 233
2 232 243
2 233 244
2 234 235
2 234 236
2 236 237
2 237 242
2 238 240
2 239 241
2 245 248
2 245 255
2 246 249
2 246 255
2 247 248
2 247 252
2 248 274
2 249 250
2 249 256
2 251 253
2 251 259
2 252 254
2 252 260
2 255 257
2 256 257
2 256 271
2 257 258
2 259 265
2 259 273
2 260 266
2 260 274
2 261 263
2 261 265
2 262 264
2 262 266
2 265 267
2 266 268
2 267 278
2 268 279
2 269 270
2 269 271
2 271 272
2 272 277
2 273 275
2 274 276
