# vtk DataFile Version 1.0
Cube
ASCII

DATASET POLYDATA
POINTS 200 float
6.735552 6.795672 9.091982
6.436678 5.190484 6.635725
6.459239 8.339811 6.536270
6.643713 8.406168 7.900857
6.327851 3.888549 6.242291
6.096927 3.619138 5.382294
6.480473 9.604585 6.117972
6.441986 9.859397 5.224336
6.725996 5.158632 7.937422
6.598590 3.029883 7.267560
6.759175 3.900494 8.360107
6.870656 3.636391 9.243506
6.568065 10.499084 7.187118
6.854730 12.704807 8.434699
7.118833 12.257557 9.205479
6.570720 11.980183 7.257322
6.353067 12.719406 6.135523
6.215043 0.826814 6.157462
5.952268 1.286008 5.392532
6.477819 1.528877 7.362628
6.735286 0.821506 8.436161
6.719360 9.674924 8.273815
6.853403 9.964242 9.146975
7.101580 1.404125 9.585749
6.119489 12.158021 4.949371
6.735552 6.795672 23.717782
6.436678 5.190484 21.261525
6.459239 8.339811 21.162070
6.643713 8.406168 22.526657
6.327851 3.888550 20.868091
6.096927 3.619138 20.008094
6.480473 9.604585 20.743772
6.441986 9.859397 19.850136
6.725996 5.158632 22.563222
6.598590 3.029883 21.893360
6.759175 3.900494 22.985907
6.870656 3.636391 23.869306
6.568065 10.499084 21.812918
6.854730 12.704807 23.060499
7.118833 12.257557 23.831279
6.570720 11.980183 21.883122
6.353067 12.719406 20.761323
6.215043 0.826814 20.783262
5.952268 1.286008 20.018332
6.477819 1.528877 21.988428
6.735286 0.821506 23.061961
6.719360 9.674924 22.899615
6.853403 9.964242 23.772775
7.101580 1.404125 24.211549
6.119489 12.158021 19.575171
6.735552 20.067172 9.091982
6.436678 18.461984 6.635725
6.459239 21.611311 6.536270
6.643713 21.677668 7.900857
6.327851 17.160050 6.242291
6.096927 16.890638 5.382294
6.480473 22.876085 6.117972
6.441986 23.130897 5.224336
6.725996 18.430132 7.937422
6.598590 16.301383 7.267560
6.759175 17.171994 8.360107
6.870656 16.907891 9.243506
6.568065 23.770584 7.187118
6.854730 25.976307 8.434699
7.118833 25.529057 9.205479
6.570720 25.251683 7.257322
6.353067 25.990906 6.135523
6.215043 14.098314 6.157462
5.952268 14.557508 5.392532
6.477819 14.800377 7.362628
6.735286 14.093006 8.436161
6.719360 22.946424 8.273815
6.853403 23.235742 9.146975
7.101580 14.675625 9.585749
6.119489 25.429521 4.949371
6.735552 20.067172 23.717782
6.436678 18.461984 21.261525
6.459239 21.611311 21.162070
6.643713 21.677668 22.526657
6.327851 17.160050 20.868091
6.096927 16.890638 20.008094
6.480473 22.876085 20.743772
6.441986 23.130897 19.850136
6.725996 18.430132 22.563222
6.598590 16.301383 21.893360
6.759175 17.171994 22.985907
6.870656 16.907891 23.869306
6.568065 23.770584 21.812918
6.854730 25.976307 23.060499
7.118833 25.529057 23.831279
6.570720 25.251683 21.883122
6.353067 25.990906 20.761323
6.215043 14.098314 20.783262
5.952268 14.557508 20.018332
6.477819 14.800377 21.988428
6.735286 14.093006 23.061961
6.719360 22.946424 22.899615
6.853403 23.235742 23.772775
7.101580 14.675625 24.211549
6.119489 25.429521 19.575171
20.007052 6.795672 9.091982
19.708178 5.190484 6.635725
19.730739 8.339811 6.536270
19.915213 8.406168 7.900857
19.599351 3.888549 6.242291
19.368427 3.619138 5.382294
19.751973 9.604585 6.117972
19.713486 9.859397 5.224336
19.997496 5.158632 7.937422
19.870090 3.029883 7.267560
20.030675 3.900494 8.360107
20.142156 3.636391 9.243506
19.839565 10.499084 7.187118
20.126230 12.704807 8.434699
20.390333 12.257557 9.205479
19.842220 11.980183 7.257322
19.624567 12.719406 6.135523
19.486543 0.826814 6.157462
19.223768 1.286008 5.392532
19.749319 1.528877 7.362628
20.006786 0.821506 8.436161
19.990860 9.674924 8.273815
20.124903 9.964242 9.146975
20.373080 1.404125 9.585749
19.390989 12.158021 4.949371
20.007052 6.795672 23.717782
19.708178 5.190484 21.261525
19.730739 8.339811 21.162070
19.915213 8.406168 22.526657
19.599351 3.888550 20.868091
19.368427 3.619138 20.008094
19.751973 9.604585 20.743772
19.713486 9.859397 19.850136
19.997496 5.158632 22.563222
19.870090 3.029883 21.893360
20.030675 3.900494 22.985907
20.142156 3.636391 23.869306
19.839565 10.499084 21.812918
20.126230 12.704807 23.060499
20.390333 12.257557 23.831279
19.842220 11.980183 21.883122
19.624567 12.719406 20.761323
19.486543 0.826814 20.783262
19.223768 1.286008 20.018332
19.749319 1.528877 21.988428
20.006786 0.821506 23.061961
19.990860 9.674924 22.899615
20.124903 9.964242 23.772775
20.373080 1.404125 24.211549
19.390989 12.158021 19.575171
20.007052 20.067172 9.091982
19.708178 18.461984 6.635725
19.730739 21.611311 6.536270
19.915213 21.677668 7.900857
19.599351 17.160050 6.242291
19.368427 16.890638 5.382294
19.751973 22.876085 6.117972
19.713486 23.130897 5.224336
19.997496 18.430132 7.937422
19.870090 16.301383 7.267560
20.030675 17.171994 8.360107
20.142156 16.907891 9.243506
19.839565 23.770584 7.187118
20.126230 25.976307 8.434699
20.390333 25.529057 9.205479
19.842220 25.251683 7.257322
19.624567 25.990906 6.135523
19.486543 14.098314 6.157462
19.223768 14.557508 5.392532
19.749319 14.800377 7.362628
20.006786 14.093006 8.436161
19.990860 22.946424 8.273815
20.124903 23.235742 9.146975
20.373080 14.675625 9.585749
19.390989 25.429521 4.949371
20.007052 20.067172 23.717782
19.708178 18.461984 21.261525
19.730739 21.611311 21.162070
19.915213 21.677668 22.526657
19.599351 17.160050 20.868091
19.368427 16.890638 20.008094
19.751973 22.876085 20.743772
19.713486 23.130897 19.850136
19.997496 18.430132 22.563222
19.870090 16.301383 21.893360
20.030675 17.171994 22.985907
20.142156 16.907891 23.869306
19.839565 23.770584 21.812918
20.126230 25.976307 23.060499
20.390333 25.529057 23.831279
19.842220 25.251683 21.883122
19.624567 25.990906 20.761323
19.486543 14.098314 20.783262
19.223768 14.557508 20.018332
19.749319 14.800377 21.988428
20.006786 14.093006 23.061961
19.990860 22.946424 22.899615
20.124903 23.235742 23.772775
20.373080 14.675625 24.211549
19.390989 25.429521 19.575171
POINT_DATA 200
SCALARS my_scalars float
LOOKUP_TABLE default
2
1.55
1.55
1.55
1.7
1.09
1.7
1.09
1.55
1.7
1.7
1.09
1.7
1.7
1.09
1.7
1.7
1.7
1.09
1.7
1.7
1.7
1.09
1.47
1.47
2
1.55
1.55
1.55
1.7
1.09
1.7
1.09
1.55
1.7
1.7
1.09
1.7
1.7
1.09
1.7
1.7
1.7
1.09
1.7
1.7
1.7
1.09
1.47
1.47
2
1.55
1.55
1.55
1.7
1.09
1.7
1.09
1.55
1.7
1.7
1.09
1.7
1.7
1.09
1.7
1.7
1.7
1.09
1.7
1.7
1.7
1.09
1.47
1.47
2
1.55
1.55
1.55
1.7
1.09
1.7
1.09
1.55
1.7
1.7
1.09
1.7
1.7
1.09
1.7
1.7
1.7
1.09
1.7
1.7
1.7
1.09
1.47
1.47
2
1.55
1.55
1.55
1.7
1.09
1.7
1.09
1.55
1.7
1.7
1.09
1.7
1.7
1.09
1.7
1.7
1.7
1.09
1.7
1.7
1.7
1.09
1.47
1.47
2
1.55
1.55
1.55
1.7
1.09
1.7
1.09
1.55
1.7
1.7
1.09
1.7
1.7
1.09
1.7
1.7
1.7
1.09
1.7
1.7
1.7
1.09
1.47
1.47
2
1.55
1.55
1.55
1.7
1.09
1.7
1.09
1.55
1.7
1.7
1.09
1.7
1.7
1.09
1.7
1.7
1.7
1.09
1.7
1.7
1.7
1.09
1.47
1.47
2
1.55
1.55
1.55
1.7
1.09
1.7
1.09
1.55
1.7
1.7
1.09
1.7
1.7
1.09
1.7
1.7
1.7
1.09
1.7
1.7
1.7
1.09
1.47
1.47
VECTORS vectors float
0.4375 0 0
0 0 0
0 0 0
0 0 0
0.3125 0 0
0.25 0 0
0.3125 0 0
0.25 0 0
0 0 0
0.3125 0 0
0.3125 0 0
0.25 0 0
0.3125 0 0
0.3125 0 0
0.25 0 0
0.3125 0 0
0.3125 0 0
0.3125 0 0
0.25 0 0
0.3125 0 0
0.3125 0 0
0.3125 0 0
0.25 0 0
0.4375 0 0
0.4375 0 0
0.4375 0 0
0 0 0
0 0 0
0 0 0
0.3125 0 0
0.25 0 0
0.3125 0 0
0.25 0 0
0 0 0
0.3125 0 0
0.3125 0 0
0.25 0 0
0.3125 0 0
0.3125 0 0
0.25 0 0
0.3125 0 0
0.3125 0 0
0.3125 0 0
0.25 0 0
0.3125 0 0
0.3125 0 0
0.3125 0 0
0.25 0 0
0.4375 0 0
0.4375 0 0
0.4375 0 0
0 0 0
0 0 0
0 0 0
0.3125 0 0
0.25 0 0
0.3125 0 0
0.25 0 0
0 0 0
0.3125 0 0
0.3125 0 0
0.25 0 0
0.3125 0 0
0.3125 0 0
0.25 0 0
0.3125 0 0
0.3125 0 0
0.3125 0 0
0.25 0 0
0.3125 0 0
0.3125 0 0
0.3125 0 0
0.25 0 0
0.4375 0 0
0.4375 0 0
0.4375 0 0
0 0 0
0 0 0
0 0 0
0.3125 0 0
0.25 0 0
0.3125 0 0
0.25 0 0
0 0 0
0.3125 0 0
0.3125 0 0
0.25 0 0
0.3125 0 0
0.3125 0 0
0.25 0 0
0.3125 0 0
0.3125 0 0
0.3125 0 0
0.25 0 0
0.3125 0 0
0.3125 0 0
0.3125 0 0
0.25 0 0
0.4375 0 0
0.4375 0 0
0.4375 0 0
0 0 0
0 0 0
0 0 0
0.3125 0 0
0.25 0 0
0.3125 0 0
0.25 0 0
0 0 0
0.3125 0 0
0.3125 0 0
0.25 0 0
0.3125 0 0
0.3125 0 0
0.25 0 0
0.3125 0 0
0.3125 0 0
0.3125 0 0
0.25 0 0
0.3125 0 0
0.3125 0 0
0.3125 0 0
0.25 0 0
0.4375 0 0
0.4375 0 0
0.4375 0 0
0 0 0
0 0 0
0 0 0
0.3125 0 0
0.25 0 0
0.3125 0 0
0.25 0 0
0 0 0
0.3125 0 0
0.3125 0 0
0.25 0 0
0.3125 0 0
0.3125 0 0
0.25 0 0
0.3125 0 0
0.3125 0 0
0.3125 0 0
0.25 0 0
0.3125 0 0
0.3125 0 0
0.3125 0 0
0.25 0 0
0.4375 0 0
0.4375 0 0
0.4375 0 0
0 0 0
0 0 0
0 0 0
0.3125 0 0
0.25 0 0
0.3125 0 0
0.25 0 0
0 0 0
0.3125 0 0
0.3125 0 0
0.25 0 0
0.3125 0 0
0.3125 0 0
0.25 0 0
0.3125 0 0
0.3125 0 0
0.3125 0 0
0.25 0 0
0.3125 0 0
0.3125 0 0
0.3125 0 0
0.25 0 0
0.4375 0 0
0.4375 0 0
0.4375 0 0
0 0 0
0 0 0
0 0 0
0.3125 0 0
0.25 0 0
0.3125 0 0
0.25 0 0
0 0 0
0.3125 0 0
0.3125 0 0
0.25 0 0
0.3125 0 0
0.3125 0 0
0.25 0 0
0.3125 0 0
0.3125 0 0
0.3125 0 0
0.25 0 0
0.3125 0 0
0.3125 0 0
0.3125 0 0
0.25 0 0
0.4375 0 0
0.4375 0 0
