# vtk DataFile Version 1.0
Cube
ASCII

DATASET POLYDATA
POINTS 1616 float
4.035294 12.490743 3.469523
4.873010 7.633232 1.305654
3.553113 7.152630 1.201093
3.305805 5.764770 1.220104
4.379644 4.857511 1.342318
5.700518 5.340565 1.446200
5.946849 6.728425 1.427868
5.102777 9.128982 1.537861
4.193016 10.119610 1.332813
-0.776890 9.700310 1.986658
27.334710 9.700310 1.986658
4.126646 3.369117 1.106717
2.922597 2.741392 1.178687
5.065362 2.437338 0.789639
2.268909 5.438671 1.137386
-0.065403 7.110185 1.501570
3.156609 10.008067 1.094095
0.199105 9.189965 2.083785
1.936164 3.255317 1.407459
6.097685 2.637915 0.685472
-0.321946 4.494608 1.560267
2.524173 8.018204 1.084311
4.734782 11.284334 1.772784
6.060780 11.046485 2.031470
3.095365 1.451614 0.782849
4.446379 1.230929 0.693226
-1.108976 0.230493 6.714987
0.787696 19.893482 2.089183
2.107593 19.412880 2.193744
2.354901 18.025020 2.174732
1.281062 17.117761 2.052518
-0.039812 17.600815 1.948636
-0.286143 18.988675 1.966968
0.557929 21.389232 1.856976
1.467690 22.379860 2.062024
6.437596 21.960560 1.408178
1.534060 15.629367 2.288120
2.738109 15.001642 2.216149
0.595344 14.697588 2.605198
3.391797 17.698921 2.257451
5.726109 19.370435 1.893267
2.504097 22.268317 2.300742
5.461601 21.450215 1.311052
3.724542 15.515567 1.987378
-0.436979 14.898165 2.709365
5.982652 16.754858 1.834570
3.136533 20.278454 2.310526
0.925924 23.544584 1.622053
-0.400074 23.306735 1.363366
2.565341 13.711864 2.611987
1.214327 13.491179 2.701611
0.258218 12.029757 3.320150
-0.579498 16.887268 5.484019
0.740399 17.367870 5.588580
0.987707 18.755730 5.569569
-0.086132 19.662989 5.447355
-1.407006 19.179935 5.343473
-1.653337 17.792075 5.361805
-0.809265 15.391518 5.251812
0.100496 14.400890 5.456861
5.070402 14.820190 4.803015
0.166866 21.151383 5.682957
1.370915 21.779108 5.610986
-0.771850 22.083162 6.000034
2.024603 19.081829 5.652288
4.358915 17.410315 5.288103
1.136903 14.512433 5.695579
4.094407 15.330535 4.705889
2.357348 21.265183 5.382215
-1.804173 21.882585 6.104202
4.615458 20.025892 5.229407
1.769340 16.502296 5.705363
-0.441270 13.236166 5.016890
-1.767268 13.474015 4.758203
1.198147 23.068886 6.006824
-0.152867 23.289571 6.096448
5.402488 24.290007 0.074686
3.505816 4.627018 4.700491
2.185919 5.107620 4.595930
1.938611 6.495480 4.614941
3.012450 7.402739 4.737155
4.333324 6.919685 4.841037
4.579655 5.531825 4.822705
3.735583 3.131268 4.932698
2.825822 2.140640 4.727650
-2.144084 2.559940 5.381495
25.967516 2.559940 5.381495
2.759453 8.891133 4.501554
1.555403 9.518858 4.573524
3.698168 9.822912 4.184476
0.901715 6.821579 4.532222
-1.432597 5.150065 4.896407
1.789415 2.252183 4.488932
-1.168089 3.070285 5.478622
0.568970 9.004933 4.802295
4.730491 9.622335 4.080309
-1.689140 7.765642 4.955104
1.156979 4.242046 4.479148
3.367588 0.975916 5.167621
4.693586 1.213765 5.426307
1.728171 10.808636 4.177686
3.079185 11.029321 4.088062
1.300906 12.490743 10.259197
2.138622 7.633232 8.095328
0.818725 7.152630 7.990767
0.571417 5.764770 8.009778
1.645256 4.857511 8.131992
2.966130 5.340565 8.235874
3.212461 6.728425 8.217542
2.368389 9.128982 8.327535
1.458628 10.119610 8.122486
-3.511278 9.700310 8.776332
24.600322 9.700310 8.776332
1.392259 3.369117 7.896390
0.188209 2.741392 7.968361
2.330974 2.437338 7.579313
-0.465479 5.438671 7.927059
-2.799791 7.110185 8.291244
0.422221 10.008067 7.883768
-2.535283 9.189965 8.873458
-0.798224 3.255317 8.197132
3.363297 2.637915 7.475145
-3.056334 4.494608 8.349940
-0.210215 8.018204 7.873984
2.000394 11.284334 8.562457
3.326392 11.046485 8.821144
0.360977 1.451614 7.572523
1.711991 1.230929 7.482899
-3.843364 0.230493 13.504661
-1.946692 19.893482 8.878856
-0.626795 19.412880 8.983417
-0.379487 18.025020 8.964406
-1.453326 17.117761 8.842192
-2.774200 17.600815 8.738310
-3.020531 18.988675 8.756642
-2.176459 21.389232 8.646649
-1.266698 22.379860 8.851697
3.703208 21.960560 8.197852
-1.200328 15.629367 9.077793
0.003721 15.001642 9.005823
-2.139044 14.697588 9.394871
0.657409 17.698921 9.047125
2.991721 19.370435 8.682940
-0.230291 22.268317 9.090415
2.727213 21.450215 8.100726
0.990154 15.515567 8.777052
-3.171367 14.898165 9.499038
3.248264 16.754858 8.624243
0.402146 20.278454 9.100199
-1.808464 23.544584 8.411727
-3.134462 23.306735 8.153040
-0.169047 13.711864 9.401661
-1.520061 13.491179 9.491285
-2.476170 12.029757 10.109824
-3.313886 16.887268 12.273693
-1.993989 17.367870 12.378254
-1.746681 18.755730 12.359243
-2.820520 19.662989 12.237029
-4.141394 19.179935 12.133147
-4.387725 17.792075 12.151479
-3.543653 15.391518 12.041486
-2.633892 14.400890 12.246534
2.336014 14.820190 11.592689
-2.567522 21.151383 12.472630
-1.363473 21.779108 12.400660
-3.506238 22.083162 12.789708
-0.709785 19.081829 12.441961
1.624527 17.410315 12.077777
-1.597485 14.512433 12.485252
1.360019 15.330535 11.495562
-0.377040 21.265183 12.171888
-4.538561 21.882585 12.893875
1.881070 20.025892 12.019080
-0.965048 16.502296 12.495036
-3.175658 13.236166 11.806563
-4.501656 13.474015 11.547877
-1.536241 23.068886 12.796498
-2.887255 23.289571 12.886121
2.668100 24.290007 6.864360
0.771428 4.627018 11.490164
-0.548469 5.107620 11.385604
-0.795777 6.495480 11.404615
0.278062 7.402739 11.526829
1.598936 6.919685 11.630711
1.845267 5.531825 11.612379
1.001195 3.131268 11.722371
0.091434 2.140640 11.517323
-4.878472 2.559940 12.171169
23.233128 2.559940 12.171169
0.025065 8.891133 11.291227
-1.178985 9.518858 11.363198
0.963780 9.822912 10.974149
-1.832673 6.821579 11.321896
-4.166985 5.150065 11.686081
-0.944973 2.252183 11.278605
-3.902477 3.070285 12.268295
-2.165418 9.004933 11.591969
1.996103 9.622335 10.869982
-4.423528 7.765642 11.744777
-1.577409 4.242047 11.268821
0.633200 0.975916 11.957294
1.959198 1.213765 12.215981
-1.006217 10.808636 10.967360
0.344797 11.029321 10.877736
-1.433482 12.490743 17.048870
-0.595766 7.633232 14.885001
-1.915663 7.152630 14.780440
-2.162971 5.764770 14.799451
-1.089132 4.857511 14.921665
0.231742 5.340565 15.025547
0.478073 6.728425 15.007215
-0.365999 9.128982 15.117208
-1.275760 10.119610 14.912160
-6.245666 9.700310 15.566006
21.865934 9.700310 15.566006
-1.342129 3.369117 14.686064
-2.546179 2.741392 14.758034
-0.403414 2.437338 14.368986
-3.199867 5.438671 14.716733
-5.534179 7.110185 15.080917
-2.312167 10.008067 14.673442
-5.269671 9.189965 15.663132
-3.532612 3.255317 14.986806
0.628909 2.637915 14.264819
-5.790722 4.494608 15.139614
-2.944603 8.018204 14.663658
-0.733994 11.284334 15.352131
0.592004 11.046485 15.610817
-2.373411 1.451614 14.362196
-1.022397 1.230929 14.272573
-6.577752 0.230493 20.294334
-4.681080 19.893482 15.668530
-3.361183 19.412880 15.773091
-3.113875 18.025020 15.754079
-4.187714 17.117761 15.631865
-5.508588 17.600815 15.527983
-5.754919 18.988675 15.546315
-4.910847 21.389232 15.436323
-4.001086 22.379860 15.641371
0.968820 21.960560 14.987525
-3.934716 15.629367 15.867467
-2.730667 15.001642 15.795496
-4.873432 14.697588 16.184545
-2.076979 17.698921 15.836798
0.257333 19.370435 15.472614
-2.964679 22.268317 15.880089
-0.007175 21.450215 14.890399
-1.744234 15.515567 15.566725
-5.905755 14.898165 16.288712
0.513876 16.754858 15.413917
-2.332242 20.278453 15.889873
-4.542852 23.544584 15.201400
-5.868850 23.306735 14.942713
-2.903435 13.711864 16.191334
-4.254449 13.491179 16.280958
-5.210558 12.029757 16.899497
-6.048274 16.887268 19.063366
-4.728376 17.367870 19.167927
-4.481069 18.755730 19.148916
-5.554908 19.662989 19.026702
-6.875782 19.179935 18.922820
-7.122113 17.792075 18.941152
-6.278041 15.391518 18.831160
-5.368280 14.400890 19.036208
-0.398374 14.820190 18.382362
-5.301910 21.151383 19.262304
-4.097861 21.779108 19.190333
-6.240626 22.083162 19.579382
-3.444173 19.081829 19.231635
-1.109861 17.410315 18.867450
-4.331873 14.512433 19.274926
-1.374369 15.330535 18.285236
-3.111428 21.265183 18.961562
-7.272949 21.882585 19.683549
-0.853318 20.025892 18.808754
-3.699436 16.502296 19.284710
-5.910046 13.236166 18.596237
-7.236044 13.474015 18.337550
-4.270629 23.068886 19.586171
-5.621643 23.289571 19.675795
-0.066288 24.290007 13.654033
-1.962960 4.627018 18.279838
-3.282857 5.107620 18.175277
-3.530165 6.495480 18.194288
-2.456326 7.402739 18.316502
-1.135452 6.919685 18.420384
-0.889121 5.531825 18.402052
-1.733193 3.131268 18.512045
-2.642954 2.140640 18.306997
-7.612860 2.559940 18.960842
20.498740 2.559940 18.960842
-2.709323 8.891133 18.080901
-3.913373 9.518858 18.152871
-1.770608 9.822912 17.763823
-4.567061 6.821579 18.111570
-6.901373 5.150065 18.475754
-3.679361 2.252183 18.068279
-6.636865 3.070285 19.057969
-4.899806 9.004933 18.381642
-0.738285 9.622335 17.659656
-7.157916 7.765642 18.534451
-4.311797 4.242047 18.058495
-2.101188 0.975916 18.746968
-0.775190 1.213765 19.005654
-3.740605 10.808636 17.757033
-2.389591 11.029321 17.667409
-4.167870 12.490743 23.838544
-3.330154 7.633232 21.674675
-4.650051 7.152630 21.570114
-4.897359 5.764770 21.589125
-3.823520 4.857511 21.711339
-2.502646 5.340565 21.815221
-2.256315 6.728425 21.796889
-3.100387 9.128982 21.906882
-4.010148 10.119610 21.701833
-8.980054 9.700310 22.355679
19.131546 9.700310 22.355679
-4.076517 3.369117 21.475737
-5.280567 2.741392 21.547708
-3.137802 2.437338 21.158660
-5.934255 5.438671 21.506406
-8.268567 7.110185 21.870591
-5.046555 10.008067 21.463115
-8.004059 9.189965 22.452805
-6.267000 3.255317 21.776479
-2.105479 2.637915 21.054492
-8.525110 4.494608 21.929288
-5.678991 8.018204 21.453331
-3.468382 11.284334 22.141804
-2.142384 11.046485 22.400491
-5.107799 1.451614 21.151870
-3.756785 1.230929 21.062246
-9.312140 0.230493 27.084008
-7.415468 19.893482 22.458203
-6.095570 19.412880 22.562764
-5.848263 18.025020 22.543753
-6.922102 17.117761 22.421539
-8.242976 17.600815 22.317657
-8.489307 18.988675 22.335989
-7.645235 21.389232 22.225996
-6.735474 22.379860 22.431044
-1.765568 21.960560 21.777199
-6.669104 15.629367 22.657141
-5.465055 15.001642 22.585170
-7.607820 14.697588 22.974218
-4.811367 17.698921 22.626472
-2.477055 19.370435 22.262287
-5.699067 22.268317 22.669763
-2.741563 21.450215 21.680073
-4.478622 15.515567 22.356399
-8.640143 14.898165 23.078385
-2.220512 16.754858 22.203590
-5.066630 20.278454 22.679546
-7.277240 23.544584 21.991074
-8.603238 23.306735 21.732387
-5.637823 13.711864 22.981008
-6.988837 13.491179 23.070632
-7.944946 12.029757 23.689171
-8.782662 16.887268 25.853040
-7.462764 17.367870 25.957601
-7.215457 18.755730 25.938590
-8.289296 19.662989 25.816376
-9.610170 19.179935 25.712494
-9.856501 17.792075 25.730826
-9.012429 15.391518 25.620833
-8.102668 14.400890 25.825881
-3.132762 14.820190 25.172036
-8.036298 21.151383 26.051977
-6.832249 21.779108 25.980007
-8.975014 22.083162 26.369055
-6.178561 19.081829 26.021308
-3.844249 17.410315 25.657124
-7.066261 14.512433 26.064599
-4.108757 15.330535 25.074909
-5.845816 21.265183 25.751235
-10.007337 21.882585 26.473222
-3.587706 20.025892 25.598427
-6.433824 16.502297 26.074383
-8.644434 13.236166 25.385910
-9.970432 13.474015 25.127224
-7.005017 23.068886 26.375845
-8.356031 23.289571 26.465468
-2.800676 24.290007 20.443707
-4.697348 4.627018 25.069512
-6.017245 5.107620 24.964951
-6.264553 6.495480 24.983962
-5.190714 7.402739 25.106176
-3.869840 6.919685 25.210058
-3.623509 5.531825 25.191726
-4.467581 3.131268 25.301718
-5.377342 2.140640 25.096670
-10.347248 2.559940 25.750516
17.764352 2.559940 25.750516
-5.443711 8.891133 24.870574
-6.647761 9.518858 24.942545
-4.504996 9.822912 24.553496
-7.301449 6.821579 24.901243
-9.635760 5.150065 25.265428
-6.413749 2.252183 24.857952
-9.371253 3.070285 25.847642
-7.634194 9.004933 25.171316
-3.472673 9.622335 24.449329
-9.892304 7.765642 25.324124
-7.046185 4.242047 24.848168
-4.835576 0.975916 25.536641
-3.509578 1.213765 25.795328
-6.474993 10.808636 24.546707
-5.123979 11.029321 24.457083
11.063194 12.490743 3.469523
11.900910 7.633232 1.305654
10.581013 7.152630 1.201093
10.333705 5.764770 1.220104
11.407544 4.857511 1.342318
12.728418 5.340565 1.446200
12.974749 6.728425 1.427868
12.130677 9.128982 1.537861
11.220916 10.119610 1.332813
6.251010 9.700310 1.986658
11.154546 3.369117 1.106717
9.950497 2.741392 1.178687
12.093262 2.437338 0.789639
9.296809 5.438671 1.137386
6.962497 7.110185 1.501570
10.184509 10.008067 1.094095
7.227005 9.189965 2.083785
8.964064 3.255317 1.407459
13.125585 2.637915 0.685472
6.705954 4.494608 1.560267
9.552073 8.018204 1.084311
11.762682 11.284334 1.772784
13.088680 11.046485 2.031470
10.123265 1.451614 0.782849
11.474279 1.230929 0.693226
5.918924 0.230493 6.714987
7.815596 19.893482 2.089183
9.135493 19.412880 2.193744
9.382801 18.025020 2.174732
8.308962 17.117761 2.052518
6.988088 17.600815 1.948636
6.741757 18.988675 1.966968
7.585829 21.389232 1.856976
8.495590 22.379860 2.062024
13.465496 21.960560 1.408178
8.561960 15.629367 2.288120
9.766009 15.001642 2.216149
7.623244 14.697588 2.605198
10.419697 17.698921 2.257451
12.754009 19.370435 1.893267
9.531997 22.268317 2.300742
12.489501 21.450215 1.311052
10.752442 15.515567 1.987378
6.590921 14.898165 2.709365
13.010552 16.754858 1.834570
10.164433 20.278454 2.310526
7.953824 23.544584 1.622053
6.627826 23.306735 1.363366
9.593241 13.711864 2.611987
8.242227 13.491179 2.701611
7.286118 12.029757 3.320150
6.448402 16.887268 5.484019
7.768299 17.367870 5.588580
8.015607 18.755730 5.569569
6.941768 19.662989 5.447355
5.620894 19.179935 5.343473
5.374563 17.792075 5.361805
6.218635 15.391518 5.251812
7.128396 14.400890 5.456861
12.098302 14.820190 4.803015
7.194766 21.151383 5.682957
8.398815 21.779108 5.610986
6.256050 22.083162 6.000034
9.052503 19.081829 5.652288
11.386815 17.410315 5.288103
8.164803 14.512433 5.695579
11.122307 15.330535 4.705889
9.385248 21.265183 5.382215
5.223727 21.882585 6.104202
11.643358 20.025892 5.229407
8.797240 16.502296 5.705363
6.586630 13.236166 5.016890
5.260632 13.474015 4.758203
8.226047 23.068886 6.006824
6.875033 23.289571 6.096448
12.430388 24.290007 0.074686
10.533716 4.627018 4.700491
9.213819 5.107620 4.595930
8.966511 6.495480 4.614941
10.040350 7.402739 4.737155
11.361224 6.919685 4.841037
11.607555 5.531825 4.822705
10.763483 3.131268 4.932698
9.853722 2.140640 4.727650
4.883816 2.559940 5.381495
9.787353 8.891133 4.501554
8.583303 9.518858 4.573524
10.726068 9.822912 4.184476
7.929615 6.821579 4.532222
5.595303 5.150065 4.896407
8.817315 2.252183 4.488932
5.859811 3.070285 5.478622
7.596870 9.004933 4.802295
11.758391 9.622335 4.080309
5.338760 7.765642 4.955104
8.184879 4.242046 4.479148
10.395488 0.975916 5.167621
11.721486 1.213765 5.426307
8.756071 10.808636 4.177686
10.107085 11.029321 4.088062
8.328806 12.490743 10.259197
9.166522 7.633232 8.095328
7.846625 7.152630 7.990767
7.599317 5.764770 8.009778
8.673156 4.857511 8.131992
9.994030 5.340565 8.235874
10.240361 6.728425 8.217542
9.396289 9.128982 8.327535
8.486528 10.119610 8.122486
3.516622 9.700310 8.776332
8.420159 3.369117 7.896390
7.216109 2.741392 7.968361
9.358874 2.437338 7.579313
6.562421 5.438671 7.927059
4.228109 7.110185 8.291244
7.450121 10.008067 7.883768
4.492617 9.189965 8.873458
6.229676 3.255317 8.197132
10.391197 2.637915 7.475145
3.971566 4.494608 8.349940
6.817685 8.018204 7.873984
9.028294 11.284334 8.562457
10.354292 11.046485 8.821144
7.388877 1.451614 7.572523
8.739891 1.230929 7.482899
3.184536 0.230493 13.504661
5.081208 19.893482 8.878856
6.401105 19.412880 8.983417
6.648413 18.025020 8.964406
5.574574 17.117761 8.842192
4.253700 17.600815 8.738310
4.007369 18.988675 8.756642
4.851441 21.389232 8.646649
5.761202 22.379860 8.851697
10.731108 21.960560 8.197852
5.827572 15.629367 9.077793
7.031621 15.001642 9.005823
4.888856 14.697588 9.394871
7.685309 17.698921 9.047125
10.019621 19.370435 8.682940
6.797609 22.268317 9.090415
9.755113 21.450215 8.100726
8.018054 15.515567 8.777052
3.856533 14.898165 9.499038
10.276164 16.754858 8.624243
7.430046 20.278454 9.100199
5.219436 23.544584 8.411727
3.893438 23.306735 8.153040
6.858853 13.711864 9.401661
5.507839 13.491179 9.491285
4.551730 12.029757 10.109824
3.714014 16.887268 12.273693
5.033911 17.367870 12.378254
5.281219 18.755730 12.359243
4.207380 19.662989 12.237029
2.886506 19.179935 12.133147
2.640175 17.792075 12.151479
3.484247 15.391518 12.041486
4.394008 14.400890 12.246534
9.363914 14.820190 11.592689
4.460378 21.151383 12.472630
5.664427 21.779108 12.400660
3.521662 22.083162 12.789708
6.318115 19.081829 12.441961
8.652427 17.410315 12.077777
5.430415 14.512433 12.485252
8.387919 15.330535 11.495562
6.650860 21.265183 12.171888
2.489339 21.882585 12.893875
8.908970 20.025892 12.019080
6.062852 16.502296 12.495036
3.852242 13.236166 11.806563
2.526244 13.474015 11.547877
5.491659 23.068886 12.796498
4.140645 23.289571 12.886121
9.696000 24.290007 6.864360
7.799328 4.627018 11.490164
6.479431 5.107620 11.385604
6.232123 6.495480 11.404615
7.305962 7.402739 11.526829
8.626836 6.919685 11.630711
8.873167 5.531825 11.612379
8.029095 3.131268 11.722371
7.119334 2.140640 11.517323
2.149428 2.559940 12.171169
7.052965 8.891133 11.291227
5.848915 9.518858 11.363198
7.991680 9.822912 10.974149
5.195227 6.821579 11.321896
2.860915 5.150065 11.686081
6.082927 2.252183 11.278605
3.125423 3.070285 12.268295
4.862482 9.004933 11.591969
9.024003 9.622335 10.869982
2.604372 7.765642 11.744777
5.450491 4.242047 11.268821
7.661100 0.975916 11.957294
8.987098 1.213765 12.215981
6.021683 10.808636 10.967360
7.372697 11.029321 10.877736
5.594418 12.490743 17.048870
6.432134 7.633232 14.885001
5.112237 7.152630 14.780440
4.864929 5.764770 14.799451
5.938768 4.857511 14.921665
7.259642 5.340565 15.025547
7.505973 6.728425 15.007215
6.661901 9.128982 15.117208
5.752140 10.119610 14.912160
0.782234 9.700310 15.566006
5.685771 3.369117 14.686064
4.481721 2.741392 14.758034
6.624486 2.437338 14.368986
3.828033 5.438671 14.716733
1.493721 7.110185 15.080917
4.715733 10.008067 14.673442
1.758229 9.189965 15.663132
3.495288 3.255317 14.986806
7.656809 2.637915 14.264819
1.237178 4.494608 15.139614
4.083297 8.018204 14.663658
6.293906 11.284334 15.352131
7.619904 11.046485 15.610817
4.654489 1.451614 14.362196
6.005503 1.230929 14.272573
0.450148 0.230493 20.294334
2.346820 19.893482 15.668530
3.666717 19.412880 15.773091
3.914025 18.025020 15.754079
2.840186 17.117761 15.631865
1.519312 17.600815 15.527983
1.272981 18.988675 15.546315
2.117053 21.389232 15.436323
3.026814 22.379860 15.641371
7.996720 21.960560 14.987525
3.093184 15.629367 15.867467
4.297233 15.001642 15.795496
2.154468 14.697588 16.184545
4.950921 17.698921 15.836798
7.285233 19.370435 15.472614
4.063221 22.268317 15.880089
7.020725 21.450215 14.890399
5.283666 15.515567 15.566725
1.122145 14.898165 16.288712
7.541776 16.754858 15.413917
4.695658 20.278453 15.889873
2.485048 23.544584 15.201400
1.159050 23.306735 14.942713
4.124465 13.711864 16.191334
2.773451 13.491179 16.280958
1.817342 12.029757 16.899497
0.979626 16.887268 19.063366
2.299524 17.367870 19.167927
2.546831 18.755730 19.148916
1.472992 19.662989 19.026702
0.152118 19.179935 18.922820
-0.094213 17.792075 18.941152
0.749859 15.391518 18.831160
1.659620 14.400890 19.036208
6.629526 14.820190 18.382362
1.725990 21.151383 19.262304
2.930039 21.779108 19.190333
0.787274 22.083162 19.579382
3.583727 19.081829 19.231635
5.918039 17.410315 18.867450
2.696027 14.512433 19.274926
5.653531 15.330535 18.285236
3.916472 21.265183 18.961562
-0.245049 21.882585 19.683549
6.174582 20.025892 18.808754
3.328464 16.502296 19.284710
1.117854 13.236166 18.596237
-0.208144 13.474015 18.337550
2.757271 23.068886 19.586171
1.406257 23.289571 19.675795
6.961612 24.290007 13.654033
5.064940 4.627018 18.279838
3.745043 5.107620 18.175277
3.497735 6.495480 18.194288
4.571574 7.402739 18.316502
5.892448 6.919685 18.420384
6.138779 5.531825 18.402052
5.294707 3.131268 18.512045
4.384946 2.140640 18.306997
-0.584960 2.559940 18.960842
4.318577 8.891133 18.080901
3.114527 9.518858 18.152871
5.257292 9.822912 17.763823
2.460839 6.821579 18.111570
0.126527 5.150065 18.475754
3.348539 2.252183 18.068279
0.391035 3.070285 19.057969
2.128094 9.004933 18.381642
6.289615 9.622335 17.659656
-0.130016 7.765642 18.534451
2.716103 4.242047 18.058495
4.926712 0.975916 18.746968
6.252710 1.213765 19.005654
3.287295 10.808636 17.757033
4.638309 11.029321 17.667409
2.860030 12.490743 23.838544
3.697746 7.633232 21.674675
2.377849 7.152630 21.570114
2.130541 5.764770 21.589125
3.204380 4.857511 21.711339
4.525254 5.340565 21.815221
4.771585 6.728425 21.796889
3.927513 9.128982 21.906882
3.017752 10.119610 21.701833
-1.952154 9.700310 22.355679
2.951383 3.369117 21.475737
1.747333 2.741392 21.547708
3.890098 2.437338 21.158660
1.093645 5.438671 21.506406
-1.240667 7.110185 21.870591
1.981345 10.008067 21.463115
-0.976159 9.189965 22.452805
0.760900 3.255317 21.776479
4.922421 2.637915 21.054492
-1.497210 4.494608 21.929288
1.348909 8.018204 21.453331
3.559518 11.284334 22.141804
4.885516 11.046485 22.400491
1.920101 1.451614 21.151870
3.271115 1.230929 21.062246
-2.284240 0.230493 27.084008
-0.387568 19.893482 22.458203
0.932330 19.412880 22.562764
1.179637 18.025020 22.543753
0.105798 17.117761 22.421539
-1.215076 17.600815 22.317657
-1.461407 18.988675 22.335989
-0.617335 21.389232 22.225996
0.292426 22.379860 22.431044
5.262332 21.960560 21.777199
0.358796 15.629367 22.657141
1.562845 15.001642 22.585170
-0.579920 14.697588 22.974218
2.216533 17.698921 22.626472
4.550845 19.370435 22.262287
1.328833 22.268317 22.669763
4.286337 21.450215 21.680073
2.549278 15.515567 22.356399
-1.612243 14.898165 23.078385
4.807388 16.754858 22.203590
1.961270 20.278454 22.679546
-0.249340 23.544584 21.991074
-1.575338 23.306735 21.732387
1.390077 13.711864 22.981008
0.039063 13.491179 23.070632
-0.917046 12.029757 23.689171
-1.754762 16.887268 25.853040
-0.434864 17.367870 25.957601
-0.187557 18.755730 25.938590
-1.261396 19.662989 25.816376
-2.582270 19.179935 25.712494
-2.828601 17.792075 25.730826
-1.984529 15.391518 25.620833
-1.074768 14.400890 25.825881
3.895138 14.820190 25.172036
-1.008398 21.151383 26.051977
0.195651 21.779108 25.980007
-1.947114 22.083162 26.369055
0.849339 19.081829 26.021308
3.183651 17.410315 25.657124
-0.038361 14.512433 26.064599
2.919143 15.330535 25.074909
1.182084 21.265183 25.751235
-2.979437 21.882585 26.473222
3.440194 20.025892 25.598427
0.594076 16.502297 26.074383
-1.616534 13.236166 25.385910
-2.942532 13.474015 25.127224
0.022883 23.068886 26.375845
-1.328131 23.289571 26.465468
4.227224 24.290007 20.443707
2.330552 4.627018 25.069512
1.010655 5.107620 24.964951
0.763347 6.495480 24.983962
1.837186 7.402739 25.106176
3.158060 6.919685 25.210058
3.404391 5.531825 25.191726
2.560319 3.131268 25.301718
1.650558 2.140640 25.096670
-3.319348 2.559940 25.750516
1.584189 8.891133 24.870574
0.380139 9.518858 24.942545
2.522904 9.822912 24.553496
-0.273549 6.821579 24.901243
-2.607860 5.150065 25.265428
0.614151 2.252183 24.857952
-2.343353 3.070285 25.847642
-0.606294 9.004933 25.171316
3.555227 9.622335 24.449329
-2.864404 7.765642 25.324124
-0.018285 4.242047 24.848168
2.192324 0.975916 25.536641
3.518322 1.213765 25.795328
0.552907 10.808636 24.546707
1.903921 11.029321 24.457083
18.091094 12.490743 3.469523
18.928810 7.633232 1.305654
17.608913 7.152630 1.201093
17.361605 5.764770 1.220104
18.435444 4.857511 1.342318
19.756318 5.340565 1.446200
20.002649 6.728425 1.427868
19.158577 9.128982 1.537861
18.248816 10.119610 1.332813
13.278910 9.700310 1.986658
18.182446 3.369117 1.106717
16.978397 2.741392 1.178687
19.121162 2.437338 0.789639
16.324709 5.438671 1.137386
13.990397 7.110185 1.501570
17.212409 10.008067 1.094095
14.254905 9.189965 2.083785
15.991964 3.255317 1.407459
20.153485 2.637915 0.685472
13.733854 4.494608 1.560267
16.579973 8.018204 1.084311
18.790582 11.284334 1.772784
20.116580 11.046485 2.031470
17.151165 1.451614 0.782849
18.502179 1.230929 0.693226
12.946824 0.230493 6.714987
14.843496 19.893482 2.089183
16.163393 19.412880 2.193744
16.410701 18.025020 2.174732
15.336862 17.117761 2.052518
14.015988 17.600815 1.948636
13.769657 18.988675 1.966968
14.613729 21.389232 1.856976
15.523490 22.379860 2.062024
20.493396 21.960560 1.408178
15.589860 15.629367 2.288120
16.793909 15.001642 2.216149
14.651144 14.697588 2.605198
17.447597 17.698921 2.257451
19.781909 19.370435 1.893267
16.559897 22.268317 2.300742
19.517401 21.450215 1.311052
17.780342 15.515567 1.987378
13.618821 14.898165 2.709365
20.038452 16.754858 1.834570
17.192333 20.278454 2.310526
14.981724 23.544584 1.622053
13.655726 23.306735 1.363366
16.621141 13.711864 2.611987
15.270127 13.491179 2.701611
14.314018 12.029757 3.320150
13.476302 16.887268 5.484019
14.796199 17.367870 5.588580
15.043507 18.755730 5.569569
13.969668 19.662989 5.447355
12.648794 19.179935 5.343473
12.402463 17.792075 5.361805
13.246535 15.391518 5.251812
14.156296 14.400890 5.456861
19.126202 14.820190 4.803015
14.222666 21.151383 5.682957
15.426715 21.779108 5.610986
13.283950 22.083162 6.000034
16.080403 19.081829 5.652288
18.414715 17.410315 5.288103
15.192703 14.512433 5.695579
18.150207 15.330535 4.705889
16.413148 21.265183 5.382215
12.251627 21.882585 6.104202
18.671258 20.025892 5.229407
15.825140 16.502296 5.705363
13.614530 13.236166 5.016890
12.288532 13.474015 4.758203
15.253947 23.068886 6.006824
13.902933 23.289571 6.096448
19.458288 24.290007 0.074686
17.561616 4.627018 4.700491
16.241719 5.107620 4.595930
15.994411 6.495480 4.614941
17.068250 7.402739 4.737155
18.389124 6.919685 4.841037
18.635455 5.531825 4.822705
17.791383 3.131268 4.932698
16.881622 2.140640 4.727650
11.911716 2.559940 5.381495
16.815253 8.891133 4.501554
15.611203 9.518858 4.573524
17.753968 9.822912 4.184476
14.957515 6.821579 4.532222
12.623203 5.150065 4.896407
15.845215 2.252183 4.488932
12.887711 3.070285 5.478622
14.624770 9.004933 4.802295
18.786291 9.622335 4.080309
12.366660 7.765642 4.955104
15.212779 4.242046 4.479148
17.423388 0.975916 5.167621
18.749386 1.213765 5.426307
15.783971 10.808636 4.177686
17.134985 11.029321 4.088062
15.356706 12.490743 10.259197
16.194422 7.633232 8.095328
14.874525 7.152630 7.990767
14.627217 5.764770 8.009778
15.701056 4.857511 8.131992
17.021930 5.340565 8.235874
17.268261 6.728425 8.217542
16.424189 9.128982 8.327535
15.514428 10.119610 8.122486
10.544522 9.700310 8.776332
15.448059 3.369117 7.896390
14.244009 2.741392 7.968361
16.386774 2.437338 7.579313
13.590321 5.438671 7.927059
11.256009 7.110185 8.291244
14.478021 10.008067 7.883768
11.520517 9.189965 8.873458
13.257576 3.255317 8.197132
17.419097 2.637915 7.475145
10.999466 4.494608 8.349940
13.845585 8.018204 7.873984
16.056194 11.284334 8.562457
17.382192 11.046485 8.821144
14.416777 1.451614 7.572523
15.767791 1.230929 7.482899
10.212436 0.230493 13.504661
12.109108 19.893482 8.878856
13.429005 19.412880 8.983417
13.676313 18.025020 8.964406
12.602474 17.117761 8.842192
11.281600 17.600815 8.738310
11.035269 18.988675 8.756642
11.879341 21.389232 8.646649
12.789102 22.379860 8.851697
17.759008 21.960560 8.197852
12.855472 15.629367 9.077793
14.059521 15.001642 9.005823
11.916756 14.697588 9.394871
14.713209 17.698921 9.047125
17.047521 19.370435 8.682940
13.825509 22.268317 9.090415
16.783013 21.450215 8.100726
15.045954 15.515567 8.777052
10.884433 14.898165 9.499038
17.304064 16.754858 8.624243
14.457946 20.278454 9.100199
12.247336 23.544584 8.411727
10.921338 23.306735 8.153040
13.886753 13.711864 9.401661
12.535739 13.491179 9.491285
11.579630 12.029757 10.109824
10.741914 16.887268 12.273693
12.061811 17.367870 12.378254
12.309119 18.755730 12.359243
11.235280 19.662989 12.237029
9.914406 19.179935 12.133147
9.668075 17.792075 12.151479
10.512147 15.391518 12.041486
11.421908 14.400890 12.246534
16.391814 14.820190 11.592689
11.488278 21.151383 12.472630
12.692327 21.779108 12.400660
10.549562 22.083162 12.789708
13.346015 19.081829 12.441961
15.680327 17.410315 12.077777
12.458315 14.512433 12.485252
15.415819 15.330535 11.495562
13.678760 21.265183 12.171888
9.517239 21.882585 12.893875
15.936870 20.025892 12.019080
13.090752 16.502296 12.495036
10.880142 13.236166 11.806563
9.554144 13.474015 11.547877
12.519559 23.068886 12.796498
11.168545 23.289571 12.886121
16.723900 24.290007 6.864360
14.827228 4.627018 11.490164
13.507331 5.107620 11.385604
13.260023 6.495480 11.404615
14.333862 7.402739 11.526829
15.654736 6.919685 11.630711
15.901067 5.531825 11.612379
15.056995 3.131268 11.722371
14.147234 2.140640 11.517323
9.177328 2.559940 12.171169
14.080865 8.891133 11.291227
12.876815 9.518858 11.363198
15.019580 9.822912 10.974149
12.223127 6.821579 11.321896
9.888815 5.150065 11.686081
13.110827 2.252183 11.278605
10.153323 3.070285 12.268295
11.890382 9.004933 11.591969
16.051903 9.622335 10.869982
9.632272 7.765642 11.744777
12.478391 4.242047 11.268821
14.689000 0.975916 11.957294
16.014998 1.213765 12.215981
13.049583 10.808636 10.967360
14.400597 11.029321 10.877736
12.622318 12.490743 17.048870
13.460034 7.633232 14.885001
12.140137 7.152630 14.780440
11.892829 5.764770 14.799451
12.966668 4.857511 14.921665
14.287542 5.340565 15.025547
14.533873 6.728425 15.007215
13.689801 9.128982 15.117208
12.780040 10.119610 14.912160
7.810134 9.700310 15.566006
12.713671 3.369117 14.686064
11.509621 2.741392 14.758034
13.652386 2.437338 14.368986
10.855933 5.438671 14.716733
8.521621 7.110185 15.080917
11.743633 10.008067 14.673442
8.786129 9.189965 15.663132
10.523188 3.255317 14.986806
14.684709 2.637915 14.264819
8.265078 4.494608 15.139614
11.111197 8.018204 14.663658
13.321806 11.284334 15.352131
14.647804 11.046485 15.610817
11.682389 1.451614 14.362196
13.033403 1.230929 14.272573
7.478048 0.230493 20.294334
9.374720 19.893482 15.668530
10.694617 19.412880 15.773091
10.941925 18.025020 15.754079
9.868086 17.117761 15.631865
8.547212 17.600815 15.527983
8.300881 18.988675 15.546315
9.144953 21.389232 15.436323
10.054714 22.379860 15.641371
15.024620 21.960560 14.987525
10.121084 15.629367 15.867467
11.325133 15.001642 15.795496
9.182368 14.697588 16.184545
11.978821 17.698921 15.836798
14.313133 19.370435 15.472614
11.091121 22.268317 15.880089
14.048625 21.450215 14.890399
12.311566 15.515567 15.566725
8.150045 14.898165 16.288712
14.569676 16.754858 15.413917
11.723558 20.278453 15.889873
9.512948 23.544584 15.201400
8.186950 23.306735 14.942713
11.152365 13.711864 16.191334
9.801351 13.491179 16.280958
8.845242 12.029757 16.899497
8.007526 16.887268 19.063366
9.327424 17.367870 19.167927
9.574731 18.755730 19.148916
8.500892 19.662989 19.026702
7.180018 19.179935 18.922820
6.933687 17.792075 18.941152
7.777759 15.391518 18.831160
8.687520 14.400890 19.036208
13.657426 14.820190 18.382362
8.753890 21.151383 19.262304
9.957939 21.779108 19.190333
7.815174 22.083162 19.579382
10.611627 19.081829 19.231635
12.945939 17.410315 18.867450
9.723927 14.512433 19.274926
12.681431 15.330535 18.285236
10.944372 21.265183 18.961562
6.782851 21.882585 19.683549
13.202482 20.025892 18.808754
10.356364 16.502296 19.284710
8.145754 13.236166 18.596237
6.819756 13.474015 18.337550
9.785171 23.068886 19.586171
8.434157 23.289571 19.675795
13.989512 24.290007 13.654033
12.092840 4.627018 18.279838
10.772943 5.107620 18.175277
10.525635 6.495480 18.194288
11.599474 7.402739 18.316502
12.920348 6.919685 18.420384
13.166679 5.531825 18.402052
12.322607 3.131268 18.512045
11.412846 2.140640 18.306997
6.442940 2.559940 18.960842
11.346477 8.891133 18.080901
10.142427 9.518858 18.152871
12.285192 9.822912 17.763823
9.488739 6.821579 18.111570
7.154427 5.150065 18.475754
10.376439 2.252183 18.068279
7.418935 3.070285 19.057969
9.155994 9.004933 18.381642
13.317515 9.622335 17.659656
6.897884 7.765642 18.534451
9.744003 4.242047 18.058495
11.954612 0.975916 18.746968
13.280610 1.213765 19.005654
10.315195 10.808636 17.757033
11.666209 11.029321 17.667409
9.887930 12.490743 23.838544
10.725646 7.633232 21.674675
9.405749 7.152630 21.570114
9.158441 5.764770 21.589125
10.232280 4.857511 21.711339
11.553154 5.340565 21.815221
11.799485 6.728425 21.796889
10.955413 9.128982 21.906882
10.045652 10.119610 21.701833
5.075746 9.700310 22.355679
9.979283 3.369117 21.475737
8.775233 2.741392 21.547708
10.917998 2.437338 21.158660
8.121545 5.438671 21.506406
5.787233 7.110185 21.870591
9.009245 10.008067 21.463115
6.051741 9.189965 22.452805
7.788800 3.255317 21.776479
11.950321 2.637915 21.054492
5.530690 4.494608 21.929288
8.376809 8.018204 21.453331
10.587418 11.284334 22.141804
11.913416 11.046485 22.400491
8.948001 1.451614 21.151870
10.299015 1.230929 21.062246
4.743660 0.230493 27.084008
6.640332 19.893482 22.458203
7.960230 19.412880 22.562764
8.207537 18.025020 22.543753
7.133698 17.117761 22.421539
5.812824 17.600815 22.317657
5.566493 18.988675 22.335989
6.410565 21.389232 22.225996
7.320326 22.379860 22.431044
12.290232 21.960560 21.777199
7.386696 15.629367 22.657141
8.590745 15.001642 22.585170
6.447980 14.697588 22.974218
9.244433 17.698921 22.626472
11.578745 19.370435 22.262287
8.356733 22.268317 22.669763
11.314237 21.450215 21.680073
9.577178 15.515567 22.356399
5.415657 14.898165 23.078385
11.835288 16.754858 22.203590
8.989170 20.278454 22.679546
6.778560 23.544584 21.991074
5.452562 23.306735 21.732387
8.417977 13.711864 22.981008
7.066963 13.491179 23.070632
6.110854 12.029757 23.689171
5.273138 16.887268 25.853040
6.593036 17.367870 25.957601
6.840343 18.755730 25.938590
5.766504 19.662989 25.816376
4.445630 19.179935 25.712494
4.199299 17.792075 25.730826
5.043371 15.391518 25.620833
5.953132 14.400890 25.825881
10.923038 14.820190 25.172036
6.019502 21.151383 26.051977
7.223551 21.779108 25.980007
5.080786 22.083162 26.369055
7.877239 19.081829 26.021308
10.211551 17.410315 25.657124
6.989539 14.512433 26.064599
9.947043 15.330535 25.074909
8.209984 21.265183 25.751235
4.048463 21.882585 26.473222
10.468094 20.025892 25.598427
7.621976 16.502297 26.074383
5.411366 13.236166 25.385910
4.085368 13.474015 25.127224
7.050783 23.068886 26.375845
5.699769 23.289571 26.465468
11.255124 24.290007 20.443707
9.358452 4.627018 25.069512
8.038555 5.107620 24.964951
7.791247 6.495480 24.983962
8.865086 7.402739 25.106176
10.185960 6.919685 25.210058
10.432291 5.531825 25.191726
9.588219 3.131268 25.301718
8.678458 2.140640 25.096670
3.708552 2.559940 25.750516
8.612089 8.891133 24.870574
7.408039 9.518858 24.942545
9.550804 9.822912 24.553496
6.754351 6.821579 24.901243
4.420040 5.150065 25.265428
7.642051 2.252183 24.857952
4.684547 3.070285 25.847642
6.421606 9.004933 25.171316
10.583127 9.622335 24.449329
4.163496 7.765642 25.324124
7.009615 4.242047 24.848168
9.220224 0.975916 25.536641
10.546222 1.213765 25.795328
7.580807 10.808636 24.546707
8.931821 11.029321 24.457083
25.118994 12.490743 3.469523
25.956710 7.633232 1.305654
24.636813 7.152630 1.201093
24.389505 5.764770 1.220104
25.463344 4.857511 1.342318
26.784218 5.340565 1.446200
27.030549 6.728425 1.427868
26.186477 9.128982 1.537861
25.276716 10.119610 1.332813
20.306810 9.700310 1.986658
25.210346 3.369117 1.106717
24.006297 2.741392 1.178687
26.149062 2.437338 0.789639
23.352609 5.438671 1.137386
21.018297 7.110185 1.501570
24.240309 10.008067 1.094095
21.282805 9.189965 2.083785
23.019864 3.255317 1.407459
27.181385 2.637915 0.685472
20.761754 4.494608 1.560267
23.607873 8.018204 1.084311
25.818482 11.284334 1.772784
27.144480 11.046485 2.031470
24.179065 1.451614 0.782849
25.530079 1.230929 0.693226
19.974724 0.230493 6.714987
21.871396 19.893482 2.089183
23.191293 19.412880 2.193744
23.438601 18.025020 2.174732
22.364762 17.117761 2.052518
21.043888 17.600815 1.948636
20.797557 18.988675 1.966968
21.641629 21.389232 1.856976
22.551390 22.379860 2.062024
-0.590304 21.960560 1.408178
27.521296 21.960560 1.408178
22.617760 15.629367 2.288120
23.821809 15.001642 2.216149
21.679044 14.697588 2.605198
24.475497 17.698921 2.257451
26.809809 19.370435 1.893267
23.587797 22.268317 2.300742
26.545301 21.450215 1.311052
24.808242 15.515567 1.987378
20.646721 14.898165 2.709365
27.066352 16.754858 1.834570
24.220233 20.278454 2.310526
22.009624 23.544584 1.622053
20.683626 23.306735 1.363366
23.649041 13.711864 2.611987
22.298027 13.491179 2.701611
21.341918 12.029757 3.320150
20.504202 16.887268 5.484019
21.824099 17.367870 5.588580
22.071407 18.755730 5.569569
20.997568 19.662989 5.447355
19.676694 19.179935 5.343473
19.430363 17.792075 5.361805
20.274435 15.391518 5.251812
21.184196 14.400890 5.456861
-1.957498 14.820190 4.803015
26.154102 14.820190 4.803015
21.250566 21.151383 5.682957
22.454615 21.779108 5.610986
20.311850 22.083162 6.000034
23.108303 19.081829 5.652288
25.442615 17.410315 5.288103
22.220603 14.512433 5.695579
25.178107 15.330535 4.705889
23.441048 21.265183 5.382215
19.279527 21.882585 6.104202
25.699158 20.025892 5.229407
22.853040 16.502296 5.705363
20.642430 13.236166 5.016890
19.316432 13.474015 4.758203
22.281847 23.068886 6.006824
20.930833 23.289571 6.096448
26.486188 24.290007 0.074686
24.589516 4.627018 4.700491
23.269619 5.107620 4.595930
23.022311 6.495480 4.614941
24.096150 7.402739 4.737155
25.417024 6.919685 4.841037
25.663355 5.531825 4.822705
24.819283 3.131268 4.932698
23.909522 2.140640 4.727650
18.939616 2.559940 5.381495
23.843153 8.891133 4.501554
22.639103 9.518858 4.573524
24.781868 9.822912 4.184476
21.985415 6.821579 4.532222
19.651103 5.150065 4.896407
22.873115 2.252183 4.488932
19.915611 3.070285 5.478622
21.652670 9.004933 4.802295
25.814191 9.622335 4.080309
19.394560 7.765642 4.955104
22.240679 4.242046 4.479148
24.451288 0.975916 5.167621
25.777286 1.213765 5.426307
22.811871 10.808636 4.177686
24.162885 11.029321 4.088062
22.384606 12.490743 10.259197
23.222322 7.633232 8.095328
21.902425 7.152630 7.990767
21.655117 5.764770 8.009778
22.728956 4.857511 8.131992
24.049830 5.340565 8.235874
24.296161 6.728425 8.217542
23.452089 9.128982 8.327535
22.542328 10.119610 8.122486
17.572422 9.700310 8.776332
22.475959 3.369117 7.896390
21.271909 2.741392 7.968361
23.414674 2.437338 7.579313
20.618221 5.438671 7.927059
18.283909 7.110185 8.291244
21.505921 10.008067 7.883768
18.548417 9.189965 8.873458
20.285476 3.255317 8.197132
24.446997 2.637915 7.475145
18.027366 4.494608 8.349940
20.873485 8.018204 7.873984
23.084094 11.284334 8.562457
24.410092 11.046485 8.821144
21.444677 1.451614 7.572523
22.795691 1.230929 7.482899
17.240336 0.230493 13.504661
19.137008 19.893482 8.878856
20.456905 19.412880 8.983417
20.704213 18.025020 8.964406
19.630374 17.117761 8.842192
18.309500 17.600815 8.738310
18.063169 18.988675 8.756642
18.907241 21.389232 8.646649
19.817002 22.379860 8.851697
-3.324692 21.960560 8.197852
24.786908 21.960560 8.197852
19.883372 15.629367 9.077793
21.087421 15.001642 9.005823
18.944656 14.697588 9.394871
21.741109 17.698921 9.047125
24.075421 19.370435 8.682940
20.853409 22.268317 9.090415
23.810913 21.450215 8.100726
22.073854 15.515567 8.777052
17.912333 14.898165 9.499038
24.331964 16.754858 8.624243
21.485846 20.278454 9.100199
19.275236 23.544584 8.411727
17.949238 23.306735 8.153040
20.914653 13.711864 9.401661
19.563639 13.491179 9.491285
18.607530 12.029757 10.109824
17.769814 16.887268 12.273693
19.089711 17.367870 12.378254
19.337019 18.755730 12.359243
18.263180 19.662989 12.237029
16.942306 19.179935 12.133147
16.695975 17.792075 12.151479
17.540047 15.391518 12.041486
18.449808 14.400890 12.246534
-4.691886 14.820190 11.592689
23.419714 14.820190 11.592689
18.516178 21.151383 12.472630
19.720227 21.779108 12.400660
17.577462 22.083162 12.789708
20.373915 19.081829 12.441961
22.708227 17.410315 12.077777
19.486215 14.512433 12.485252
22.443719 15.330535 11.495562
20.706660 21.265183 12.171888
16.545139 21.882585 12.893875
22.964770 20.025892 12.019080
20.118652 16.502296 12.495036
17.908042 13.236166 11.806563
16.582044 13.474015 11.547877
19.547459 23.068886 12.796498
18.196445 23.289571 12.886121
23.751800 24.290007 6.864360
21.855128 4.627018 11.490164
20.535231 5.107620 11.385604
20.287923 6.495480 11.404615
21.361762 7.402739 11.526829
22.682636 6.919685 11.630711
22.928967 5.531825 11.612379
22.084895 3.131268 11.722371
21.175134 2.140640 11.517323
16.205228 2.559940 12.171169
21.108765 8.891133 11.291227
19.904715 9.518858 11.363198
22.047480 9.822912 10.974149
19.251027 6.821579 11.321896
16.916715 5.150065 11.686081
20.138727 2.252183 11.278605
17.181223 3.070285 12.268295
18.918282 9.004933 11.591969
23.079803 9.622335 10.869982
16.660172 7.765642 11.744777
19.506291 4.242047 11.268821
21.716900 0.975916 11.957294
23.042898 1.213765 12.215981
20.077483 10.808636 10.967360
21.428497 11.029321 10.877736
19.650218 12.490743 17.048870
20.487934 7.633232 14.885001
19.168037 7.152630 14.780440
18.920729 5.764770 14.799451
19.994568 4.857511 14.921665
21.315442 5.340565 15.025547
21.561773 6.728425 15.007215
20.717701 9.128982 15.117208
19.807940 10.119610 14.912160
14.838034 9.700310 15.566006
19.741571 3.369117 14.686064
18.537521 2.741392 14.758034
20.680286 2.437338 14.368986
17.883833 5.438671 14.716733
15.549521 7.110185 15.080917
18.771533 10.008067 14.673442
15.814029 9.189965 15.663132
17.551088 3.255317 14.986806
21.712609 2.637915 14.264819
15.292978 4.494608 15.139614
18.139097 8.018204 14.663658
20.349706 11.284334 15.352131
21.675704 11.046485 15.610817
18.710289 1.451614 14.362196
20.061303 1.230929 14.272573
14.505948 0.230493 20.294334
16.402620 19.893482 15.668530
17.722517 19.412880 15.773091
17.969825 18.025020 15.754079
16.895986 17.117761 15.631865
15.575112 17.600815 15.527983
15.328781 18.988675 15.546315
16.172853 21.389232 15.436323
17.082614 22.379860 15.641371
-6.059080 21.960560 14.987525
22.052520 21.960560 14.987525
17.148984 15.629367 15.867467
18.353033 15.001642 15.795496
16.210268 14.697588 16.184545
19.006721 17.698921 15.836798
21.341033 19.370435 15.472614
18.119021 22.268317 15.880089
21.076525 21.450215 14.890399
19.339466 15.515567 15.566725
15.177945 14.898165 16.288712
21.597576 16.754858 15.413917
18.751458 20.278453 15.889873
16.540848 23.544584 15.201400
15.214850 23.306735 14.942713
18.180265 13.711864 16.191334
16.829251 13.491179 16.280958
15.873142 12.029757 16.899497
15.035426 16.887268 19.063366
16.355324 17.367870 19.167927
16.602631 18.755730 19.148916
15.528792 19.662989 19.026702
14.207918 19.179935 18.922820
13.961587 17.792075 18.941152
14.805659 15.391518 18.831160
15.715420 14.400890 19.036208
-7.426274 14.820190 18.382362
20.685326 14.820190 18.382362
15.781790 21.151383 19.262304
16.985839 21.779108 19.190333
14.843074 22.083162 19.579382
17.639527 19.081829 19.231635
19.973839 17.410315 18.867450
16.751827 14.512433 19.274926
19.709331 15.330535 18.285236
17.972272 21.265183 18.961562
13.810751 21.882585 19.683549
20.230382 20.025892 18.808754
17.384264 16.502296 19.284710
15.173654 13.236166 18.596237
13.847656 13.474015 18.337550
16.813071 23.068886 19.586171
15.462057 23.289571 19.675795
21.017412 24.290007 13.654033
19.120740 4.627018 18.279838
17.800843 5.107620 18.175277
17.553535 6.495480 18.194288
18.627374 7.402739 18.316502
19.948248 6.919685 18.420384
20.194579 5.531825 18.402052
19.350507 3.131268 18.512045
18.440746 2.140640 18.306997
13.470840 2.559940 18.960842
18.374377 8.891133 18.080901
17.170327 9.518858 18.152871
19.313092 9.822912 17.763823
16.516639 6.821579 18.111570
14.182327 5.150065 18.475754
17.404339 2.252183 18.068279
14.446835 3.070285 19.057969
16.183894 9.004933 18.381642
20.345415 9.622335 17.659656
13.925784 7.765642 18.534451
16.771903 4.242047 18.058495
18.982512 0.975916 18.746968
20.308510 1.213765 19.005654
17.343095 10.808636 17.757033
18.694109 11.029321 17.667409
16.915830 12.490743 23.838544
17.753546 7.633232 21.674675
16.433649 7.152630 21.570114
16.186341 5.764770 21.589125
17.260180 4.857511 21.711339
18.581054 5.340565 21.815221
18.827385 6.728425 21.796889
17.983313 9.128982 21.906882
17.073552 10.119610 21.701833
12.103646 9.700310 22.355679
17.007183 3.369117 21.475737
15.803133 2.741392 21.547708
17.945898 2.437338 21.158660
15.149445 5.438671 21.506406
12.815133 7.110185 21.870591
16.037145 10.008067 21.463115
13.079641 9.189965 22.452805
14.816700 3.255317 21.776479
18.978221 2.637915 21.054492
12.558590 4.494608 21.929288
15.404709 8.018204 21.453331
17.615318 11.284334 22.141804
18.941316 11.046485 22.400491
15.975901 1.451614 21.151870
17.326915 1.230929 21.062246
11.771560 0.230493 27.084008
13.668232 19.893482 22.458203
14.988130 19.412880 22.562764
15.235437 18.025020 22.543753
14.161598 17.117761 22.421539
12.840724 17.600815 22.317657
12.594393 18.988675 22.335989
13.438465 21.389232 22.225996
14.348226 22.379860 22.431044
-8.793468 21.960560 21.777199
19.318132 21.960560 21.777199
14.414596 15.629367 22.657141
15.618645 15.001642 22.585170
13.475880 14.697588 22.974218
16.272333 17.698921 22.626472
18.606645 19.370435 22.262287
15.384633 22.268317 22.669763
18.342137 21.450215 21.680073
16.605078 15.515567 22.356399
12.443557 14.898165 23.078385
18.863188 16.754858 22.203590
16.017070 20.278454 22.679546
13.806460 23.544584 21.991074
12.480462 23.306735 21.732387
15.445877 13.711864 22.981008
14.094863 13.491179 23.070632
13.138754 12.029757 23.689171
12.301038 16.887268 25.853040
13.620936 17.367870 25.957601
13.868243 18.755730 25.938590
12.794404 19.662989 25.816376
11.473530 19.179935 25.712494
11.227199 17.792075 25.730826
12.071271 15.391518 25.620833
12.981032 14.400890 25.825881
-10.160662 14.820190 25.172036
17.950938 14.820190 25.172036
13.047402 21.151383 26.051977
14.251451 21.779108 25.980007
12.108686 22.083162 26.369055
14.905139 19.081829 26.021308
17.239451 17.410315 25.657124
14.017439 14.512433 26.064599
16.974943 15.330535 25.074909
15.237884 21.265183 25.751235
11.076363 21.882585 26.473222
17.495994 20.025892 25.598427
14.649876 16.502297 26.074383
12.439266 13.236166 25.385910
11.113268 13.474015 25.127224
14.078683 23.068886 26.375845
12.727669 23.289571 26.465468
18.283024 24.290007 20.443707
16.386352 4.627018 25.069512
15.066455 5.107620 24.964951
14.819147 6.495480 24.983962
15.892986 7.402739 25.106176
17.213860 6.919685 25.210058
17.460191 5.531825 25.191726
16.616119 3.131268 25.301718
15.706358 2.140640 25.096670
10.736452 2.559940 25.750516
15.639989 8.891133 24.870574
14.435939 9.518858 24.942545
16.578704 9.822912 24.553496
13.782251 6.821579 24.901243
11.447940 5.150065 25.265428
14.669951 2.252183 24.857952
11.712447 3.070285 25.847642
13.449506 9.004933 25.171316
17.611027 9.622335 24.449329
11.191396 7.765642 25.324124
14.037515 4.242047 24.848168
16.248124 0.975916 25.536641
17.574122 1.213765 25.795328
14.608707 10.808636 24.546707
15.959721 11.029321 24.457083
POINT_DATA 1616
SCALARS my_scalars float
LOOKUP_TABLE default
2
1.7
1.7
1.7
1.7
1.7
1.7
1.7
1.7
1.7
1.7
1.7
1.7
1.7
1.09
1.09
1.09
1.09
1.09
1.09
1.47
1.47
1.55
1.55
1.55
1.55
2
1.7
1.7
1.7
1.7
1.7
1.7
1.7
1.7
1.7
1.7
1.7
1.7
1.09
1.09
1.09
1.09
1.09
1.09
1.47
1.47
1.55
1.55
1.55
1.55
2
1.7
1.7
1.7
1.7
1.7
1.7
1.7
1.7
1.7
1.7
1.7
1.7
1.09
1.09
1.09
1.09
1.09
1.09
1.47
1.47
1.55
1.55
1.55
1.55
2
1.7
1.7
1.7
1.7
1.7
1.7
1.7
1.7
1.7
1.7
1.7
1.7
1.7
1.09
1.09
1.09
1.09
1.09
1.09
1.47
1.47
1.55
1.55
1.55
1.55
2
1.7
1.7
1.7
1.7
1.7
1.7
1.7
1.7
1.7
1.7
1.7
1.7
1.7
1.09
1.09
1.09
1.09
1.09
1.09
1.47
1.47
1.55
1.55
1.55
1.55
2
1.7
1.7
1.7
1.7
1.7
1.7
1.7
1.7
1.7
1.7
1.7
1.7
1.09
1.09
1.09
1.09
1.09
1.09
1.47
1.47
1.55
1.55
1.55
1.55
2
1.7
1.7
1.7
1.7
1.7
1.7
1.7
1.7
1.7
1.7
1.7
1.7
1.09
1.09
1.09
1.09
1.09
1.09
1.47
1.47
1.55
1.55
1.55
1.55
2
1.7
1.7
1.7
1.7
1.7
1.7
1.7
1.7
1.7
1.7
1.7
1.7
1.7
1.09
1.09
1.09
1.09
1.09
1.09
1.47
1.47
1.55
1.55
1.55
1.55
2
1.7
1.7
1.7
1.7
1.7
1.7
1.7
1.7
1.7
1.7
1.7
1.7
1.7
1.09
1.09
1.09
1.09
1.09
1.09
1.47
1.47
1.55
1.55
1.55
1.55
2
1.7
1.7
1.7
1.7
1.7
1.7
1.7
1.7
1.7
1.7
1.7
1.7
1.09
1.09
1.09
1.09
1.09
1.09
1.47
1.47
1.55
1.55
1.55
1.55
2
1.7
1.7
1.7
1.7
1.7
1.7
1.7
1.7
1.7
1.7
1.7
1.7
1.09
1.09
1.09
1.09
1.09
1.09
1.47
1.47
1.55
1.55
1.55
1.55
2
1.7
1.7
1.7
1.7
1.7
1.7
1.7
1.7
1.7
1.7
1.7
1.7
1.7
1.09
1.09
1.09
1.09
1.09
1.09
1.47
1.47
1.55
1.55
1.55
1.55
2
1.7
1.7
1.7
1.7
1.7
1.7
1.7
1.7
1.7
1.7
1.7
1.7
1.7
1.09
1.09
1.09
1.09
1.09
1.09
1.47
1.47
1.55
1.55
1.55
1.55
2
1.7
1.7
1.7
1.7
1.7
1.7
1.7
1.7
1.7
1.7
1.7
1.7
1.09
1.09
1.09
1.09
1.09
1.09
1.47
1.47
1.55
1.55
1.55
1.55
2
1.7
1.7
1.7
1.7
1.7
1.7
1.7
1.7
1.7
1.7
1.7
1.7
1.09
1.09
1.09
1.09
1.09
1.09
1.47
1.47
1.55
1.55
1.55
1.55
2
1.7
1.7
1.7
1.7
1.7
1.7
1.7
1.7
1.7
1.7
1.7
1.7
1.7
1.09
1.09
1.09
1.09
1.09
1.09
1.47
1.47
1.55
1.55
1.55
1.55
2
1.7
1.7
1.7
1.7
1.7
1.7
1.7
1.7
1.7
1.7
1.7
1.7
1.09
1.09
1.09
1.09
1.09
1.09
1.47
1.47
1.55
1.55
1.55
1.55
2
1.7
1.7
1.7
1.7
1.7
1.7
1.7
1.7
1.7
1.7
1.7
1.7
1.09
1.09
1.09
1.09
1.09
1.09
1.47
1.47
1.55
1.55
1.55
1.55
2
1.7
1.7
1.7
1.7
1.7
1.7
1.7
1.7
1.7
1.7
1.7
1.7
1.09
1.09
1.09
1.09
1.09
1.09
1.47
1.47
1.55
1.55
1.55
1.55
2
1.7
1.7
1.7
1.7
1.7
1.7
1.7
1.7
1.7
1.7
1.7
1.7
1.09
1.09
1.09
1.09
1.09
1.09
1.47
1.47
1.55
1.55
1.55
1.55
2
1.7
1.7
1.7
1.7
1.7
1.7
1.7
1.7
1.7
1.7
1.7
1.7
1.09
1.09
1.09
1.09
1.09
1.09
1.47
1.47
1.55
1.55
1.55
1.55
2
1.7
1.7
1.7
1.7
1.7
1.7
1.7
1.7
1.7
1.7
1.7
1.7
1.09
1.09
1.09
1.09
1.09
1.09
1.47
1.47
1.55
1.55
1.55
1.55
2
1.7
1.7
1.7
1.7
1.7
1.7
1.7
1.7
1.7
1.7
1.7
1.7
1.09
1.09
1.09
1.09
1.09
1.09
1.47
1.47
1.55
1.55
1.55
1.55
2
1.7
1.7
1.7
1.7
1.7
1.7
1.7
1.7
1.7
1.7
1.7
1.7
1.09
1.09
1.09
1.09
1.09
1.09
1.47
1.47
1.55
1.55
1.55
1.55
2
1.7
1.7
1.7
1.7
1.7
1.7
1.7
1.7
1.7
1.7
1.7
1.7
1.09
1.09
1.09
1.09
1.09
1.09
1.47
1.47
1.55
1.55
1.55
1.55
2
1.7
1.7
1.7
1.7
1.7
1.7
1.7
1.7
1.7
1.7
1.7
1.7
1.09
1.09
1.09
1.09
1.09
1.09
1.47
1.47
1.55
1.55
1.55
1.55
2
1.7
1.7
1.7
1.7
1.7
1.7
1.7
1.7
1.7
1.7
1.7
1.7
1.09
1.09
1.09
1.09
1.09
1.09
1.47
1.47
1.55
1.55
1.55
1.55
2
1.7
1.7
1.7
1.7
1.7
1.7
1.7
1.7
1.7
1.7
1.7
1.7
1.09
1.09
1.09
1.09
1.09
1.09
1.47
1.47
1.55
1.55
1.55
1.55
2
1.7
1.7
1.7
1.7
1.7
1.7
1.7
1.7
1.7
1.7
1.7
1.7
1.09
1.09
1.09
1.09
1.09
1.09
1.47
1.47
1.55
1.55
1.55
1.55
2
1.7
1.7
1.7
1.7
1.7
1.7
1.7
1.7
1.7
1.7
1.7
1.7
1.09
1.09
1.09
1.09
1.09
1.09
1.47
1.47
1.55
1.55
1.55
1.55
2
1.7
1.7
1.7
1.7
1.7
1.7
1.7
1.7
1.7
1.7
1.7
1.7
1.09
1.09
1.09
1.09
1.09
1.09
1.47
1.47
1.55
1.55
1.55
1.55
2
1.7
1.7
1.7
1.7
1.7
1.7
1.7
1.7
1.7
1.7
1.7
1.7
1.09
1.09
1.09
1.09
1.09
1.09
1.47
1.47
1.55
1.55
1.55
1.55
2
1.7
1.7
1.7
1.7
1.7
1.7
1.7
1.7
1.7
1.7
1.7
1.7
1.09
1.09
1.09
1.09
1.09
1.09
1.47
1.47
1.55
1.55
1.55
1.55
2
1.7
1.7
1.7
1.7
1.7
1.7
1.7
1.7
1.7
1.7
1.7
1.7
1.09
1.09
1.09
1.09
1.09
1.09
1.47
1.47
1.55
1.55
1.55
1.55
2
1.7
1.7
1.7
1.7
1.7
1.7
1.7
1.7
1.7
1.7
1.7
1.7
1.09
1.09
1.09
1.09
1.09
1.09
1.47
1.47
1.55
1.55
1.55
1.55
2
1.7
1.7
1.7
1.7
1.7
1.7
1.7
1.7
1.7
1.7
1.7
1.7
1.09
1.09
1.09
1.09
1.09
1.09
1.47
1.47
1.55
1.55
1.55
1.55
2
1.7
1.7
1.7
1.7
1.7
1.7
1.7
1.7
1.7
1.7
1.7
1.7
1.09
1.09
1.09
1.09
1.09
1.09
1.47
1.47
1.55
1.55
1.55
1.55
2
1.7
1.7
1.7
1.7
1.7
1.7
1.7
1.7
1.7
1.7
1.7
1.7
1.09
1.09
1.09
1.09
1.09
1.09
1.47
1.47
1.55
1.55
1.55
1.55
2
1.7
1.7
1.7
1.7
1.7
1.7
1.7
1.7
1.7
1.7
1.7
1.7
1.09
1.09
1.09
1.09
1.09
1.09
1.47
1.47
1.55
1.55
1.55
1.55
2
1.7
1.7
1.7
1.7
1.7
1.7
1.7
1.7
1.7
1.7
1.7
1.7
1.09
1.09
1.09
1.09
1.09
1.09
1.47
1.47
1.55
1.55
1.55
1.55
2
1.7
1.7
1.7
1.7
1.7
1.7
1.7
1.7
1.7
1.7
1.7
1.7
1.09
1.09
1.09
1.09
1.09
1.09
1.47
1.47
1.55
1.55
1.55
1.55
2
1.7
1.7
1.7
1.7
1.7
1.7
1.7
1.7
1.7
1.7
1.7
1.7
1.09
1.09
1.09
1.09
1.09
1.09
1.47
1.47
1.55
1.55
1.55
1.55
2
1.7
1.7
1.7
1.7
1.7
1.7
1.7
1.7
1.7
1.7
1.7
1.7
1.09
1.09
1.09
1.09
1.09
1.09
1.47
1.47
1.55
1.55
1.55
1.55
2
1.7
1.7
1.7
1.7
1.7
1.7
1.7
1.7
1.7
1.7
1.7
1.7
1.09
1.09
1.09
1.09
1.09
1.09
1.47
1.47
1.55
1.55
1.55
1.55
2
1.7
1.7
1.7
1.7
1.7
1.7
1.7
1.7
1.7
1.7
1.7
1.7
1.09
1.09
1.09
1.09
1.09
1.09
1.47
1.47
1.55
1.55
1.55
1.55
2
1.7
1.7
1.7
1.7
1.7
1.7
1.7
1.7
1.7
1.7
1.7
1.7
1.09
1.09
1.09
1.09
1.09
1.09
1.47
1.47
1.55
1.55
1.55
1.55
2
1.7
1.7
1.7
1.7
1.7
1.7
1.7
1.7
1.7
1.7
1.7
1.7
1.09
1.09
1.09
1.09
1.09
1.09
1.47
1.47
1.55
1.55
1.55
1.55
2
1.7
1.7
1.7
1.7
1.7
1.7
1.7
1.7
1.7
1.7
1.7
1.7
1.09
1.09
1.09
1.09
1.09
1.09
1.47
1.47
1.55
1.55
1.55
1.55
2
1.7
1.7
1.7
1.7
1.7
1.7
1.7
1.7
1.7
1.7
1.7
1.7
1.09
1.09
1.09
1.09
1.09
1.09
1.47
1.47
1.55
1.55
1.55
1.55
2
1.7
1.7
1.7
1.7
1.7
1.7
1.7
1.7
1.7
1.7
1.7
1.7
1.7
1.09
1.09
1.09
1.09
1.09
1.09
1.47
1.47
1.55
1.55
1.55
1.55
2
1.7
1.7
1.7
1.7
1.7
1.7
1.7
1.7
1.7
1.7
1.7
1.7
1.7
1.09
1.09
1.09
1.09
1.09
1.09
1.47
1.47
1.55
1.55
1.55
1.55
2
1.7
1.7
1.7
1.7
1.7
1.7
1.7
1.7
1.7
1.7
1.7
1.7
1.09
1.09
1.09
1.09
1.09
1.09
1.47
1.47
1.55
1.55
1.55
1.55
2
1.7
1.7
1.7
1.7
1.7
1.7
1.7
1.7
1.7
1.7
1.7
1.7
1.09
1.09
1.09
1.09
1.09
1.09
1.47
1.47
1.55
1.55
1.55
1.55
2
1.7
1.7
1.7
1.7
1.7
1.7
1.7
1.7
1.7
1.7
1.7
1.7
1.7
1.09
1.09
1.09
1.09
1.09
1.09
1.47
1.47
1.55
1.55
1.55
1.55
2
1.7
1.7
1.7
1.7
1.7
1.7
1.7
1.7
1.7
1.7
1.7
1.7
1.7
1.09
1.09
1.09
1.09
1.09
1.09
1.47
1.47
1.55
1.55
1.55
1.55
2
1.7
1.7
1.7
1.7
1.7
1.7
1.7
1.7
1.7
1.7
1.7
1.7
1.09
1.09
1.09
1.09
1.09
1.09
1.47
1.47
1.55
1.55
1.55
1.55
2
1.7
1.7
1.7
1.7
1.7
1.7
1.7
1.7
1.7
1.7
1.7
1.7
1.09
1.09
1.09
1.09
1.09
1.09
1.47
1.47
1.55
1.55
1.55
1.55
2
1.7
1.7
1.7
1.7
1.7
1.7
1.7
1.7
1.7
1.7
1.7
1.7
1.7
1.09
1.09
1.09
1.09
1.09
1.09
1.47
1.47
1.55
1.55
1.55
1.55
2
1.7
1.7
1.7
1.7
1.7
1.7
1.7
1.7
1.7
1.7
1.7
1.7
1.7
1.09
1.09
1.09
1.09
1.09
1.09
1.47
1.47
1.55
1.55
1.55
1.55
2
1.7
1.7
1.7
1.7
1.7
1.7
1.7
1.7
1.7
1.7
1.7
1.7
1.09
1.09
1.09
1.09
1.09
1.09
1.47
1.47
1.55
1.55
1.55
1.55
2
1.7
1.7
1.7
1.7
1.7
1.7
1.7
1.7
1.7
1.7
1.7
1.7
1.09
1.09
1.09
1.09
1.09
1.09
1.47
1.47
1.55
1.55
1.55
1.55
2
1.7
1.7
1.7
1.7
1.7
1.7
1.7
1.7
1.7
1.7
1.7
1.7
1.7
1.09
1.09
1.09
1.09
1.09
1.09
1.47
1.47
1.55
1.55
1.55
1.55
2
1.7
1.7
1.7
1.7
1.7
1.7
1.7
1.7
1.7
1.7
1.7
1.7
1.7
1.09
1.09
1.09
1.09
1.09
1.09
1.47
1.47
1.55
1.55
1.55
1.55
2
1.7
1.7
1.7
1.7
1.7
1.7
1.7
1.7
1.7
1.7
1.7
1.7
1.09
1.09
1.09
1.09
1.09
1.09
1.47
1.47
1.55
1.55
1.55
1.55
VECTORS vectors float
0.4375 0 0
0.3125 0 0
0.3125 0 0
0.3125 0 0
0.3125 0 0
0.3125 0 0
0.3125 0 0
0.3125 0 0
0.3125 0 0
0.3125 0 0
0.3125 0 0
0.3125 0 0
0.3125 0 0
0.3125 0 0
0.25 0 0
0.25 0 0
0.25 0 0
0.25 0 0
0.25 0 0
0.25 0 0
0.4375 0 0
0.4375 0 0
0 0 0
0 0 0
0 0 0
0 0 0
0.4375 0 0
0.3125 0 0
0.3125 0 0
0.3125 0 0
0.3125 0 0
0.3125 0 0
0.3125 0 0
0.3125 0 0
0.3125 0 0
0.3125 0 0
0.3125 0 0
0.3125 0 0
0.3125 0 0
0.25 0 0
0.25 0 0
0.25 0 0
0.25 0 0
0.25 0 0
0.25 0 0
0.4375 0 0
0.4375 0 0
0 0 0
0 0 0
0 0 0
0 0 0
0.4375 0 0
0.3125 0 0
0.3125 0 0
0.3125 0 0
0.3125 0 0
0.3125 0 0
0.3125 0 0
0.3125 0 0
0.3125 0 0
0.3125 0 0
0.3125 0 0
0.3125 0 0
0.3125 0 0
0.25 0 0
0.25 0 0
0.25 0 0
0.25 0 0
0.25 0 0
0.25 0 0
0.4375 0 0
0.4375 0 0
0 0 0
0 0 0
0 0 0
0 0 0
0.4375 0 0
0.3125 0 0
0.3125 0 0
0.3125 0 0
0.3125 0 0
0.3125 0 0
0.3125 0 0
0.3125 0 0
0.3125 0 0
0.3125 0 0
0.3125 0 0
0.3125 0 0
0.3125 0 0
0.3125 0 0
0.25 0 0
0.25 0 0
0.25 0 0
0.25 0 0
0.25 0 0
0.25 0 0
0.4375 0 0
0.4375 0 0
0 0 0
0 0 0
0 0 0
0 0 0
0.4375 0 0
0.3125 0 0
0.3125 0 0
0.3125 0 0
0.3125 0 0
0.3125 0 0
0.3125 0 0
0.3125 0 0
0.3125 0 0
0.3125 0 0
0.3125 0 0
0.3125 0 0
0.3125 0 0
0.3125 0 0
0.25 0 0
0.25 0 0
0.25 0 0
0.25 0 0
0.25 0 0
0.25 0 0
0.4375 0 0
0.4375 0 0
0 0 0
0 0 0
0 0 0
0 0 0
0.4375 0 0
0.3125 0 0
0.3125 0 0
0.3125 0 0
0.3125 0 0
0.3125 0 0
0.3125 0 0
0.3125 0 0
0.3125 0 0
0.3125 0 0
0.3125 0 0
0.3125 0 0
0.3125 0 0
0.25 0 0
0.25 0 0
0.25 0 0
0.25 0 0
0.25 0 0
0.25 0 0
0.4375 0 0
0.4375 0 0
0 0 0
0 0 0
0 0 0
0 0 0
0.4375 0 0
0.3125 0 0
0.3125 0 0
0.3125 0 0
0.3125 0 0
0.3125 0 0
0.3125 0 0
0.3125 0 0
0.3125 0 0
0.3125 0 0
0.3125 0 0
0.3125 0 0
0.3125 0 0
0.25 0 0
0.25 0 0
0.25 0 0
0.25 0 0
0.25 0 0
0.25 0 0
0.4375 0 0
0.4375 0 0
0 0 0
0 0 0
0 0 0
0 0 0
0.4375 0 0
0.3125 0 0
0.3125 0 0
0.3125 0 0
0.3125 0 0
0.3125 0 0
0.3125 0 0
0.3125 0 0
0.3125 0 0
0.3125 0 0
0.3125 0 0
0.3125 0 0
0.3125 0 0
0.3125 0 0
0.25 0 0
0.25 0 0
0.25 0 0
0.25 0 0
0.25 0 0
0.25 0 0
0.4375 0 0
0.4375 0 0
0 0 0
0 0 0
0 0 0
0 0 0
0.4375 0 0
0.3125 0 0
0.3125 0 0
0.3125 0 0
0.3125 0 0
0.3125 0 0
0.3125 0 0
0.3125 0 0
0.3125 0 0
0.3125 0 0
0.3125 0 0
0.3125 0 0
0.3125 0 0
0.3125 0 0
0.25 0 0
0.25 0 0
0.25 0 0
0.25 0 0
0.25 0 0
0.25 0 0
0.4375 0 0
0.4375 0 0
0 0 0
0 0 0
0 0 0
0 0 0
0.4375 0 0
0.3125 0 0
0.3125 0 0
0.3125 0 0
0.3125 0 0
0.3125 0 0
0.3125 0 0
0.3125 0 0
0.3125 0 0
0.3125 0 0
0.3125 0 0
0.3125 0 0
0.3125 0 0
0.25 0 0
0.25 0 0
0.25 0 0
0.25 0 0
0.25 0 0
0.25 0 0
0.4375 0 0
0.4375 0 0
0 0 0
0 0 0
0 0 0
0 0 0
0.4375 0 0
0.3125 0 0
0.3125 0 0
0.3125 0 0
0.3125 0 0
0.3125 0 0
0.3125 0 0
0.3125 0 0
0.3125 0 0
0.3125 0 0
0.3125 0 0
0.3125 0 0
0.3125 0 0
0.25 0 0
0.25 0 0
0.25 0 0
0.25 0 0
0.25 0 0
0.25 0 0
0.4375 0 0
0.4375 0 0
0 0 0
0 0 0
0 0 0
0 0 0
0.4375 0 0
0.3125 0 0
0.3125 0 0
0.3125 0 0
0.3125 0 0
0.3125 0 0
0.3125 0 0
0.3125 0 0
0.3125 0 0
0.3125 0 0
0.3125 0 0
0.3125 0 0
0.3125 0 0
0.3125 0 0
0.25 0 0
0.25 0 0
0.25 0 0
0.25 0 0
0.25 0 0
0.25 0 0
0.4375 0 0
0.4375 0 0
0 0 0
0 0 0
0 0 0
0 0 0
0.4375 0 0
0.3125 0 0
0.3125 0 0
0.3125 0 0
0.3125 0 0
0.3125 0 0
0.3125 0 0
0.3125 0 0
0.3125 0 0
0.3125 0 0
0.3125 0 0
0.3125 0 0
0.3125 0 0
0.3125 0 0
0.25 0 0
0.25 0 0
0.25 0 0
0.25 0 0
0.25 0 0
0.25 0 0
0.4375 0 0
0.4375 0 0
0 0 0
0 0 0
0 0 0
0 0 0
0.4375 0 0
0.3125 0 0
0.3125 0 0
0.3125 0 0
0.3125 0 0
0.3125 0 0
0.3125 0 0
0.3125 0 0
0.3125 0 0
0.3125 0 0
0.3125 0 0
0.3125 0 0
0.3125 0 0
0.25 0 0
0.25 0 0
0.25 0 0
0.25 0 0
0.25 0 0
0.25 0 0
0.4375 0 0
0.4375 0 0
0 0 0
0 0 0
0 0 0
0 0 0
0.4375 0 0
0.3125 0 0
0.3125 0 0
0.3125 0 0
0.3125 0 0
0.3125 0 0
0.3125 0 0
0.3125 0 0
0.3125 0 0
0.3125 0 0
0.3125 0 0
0.3125 0 0
0.3125 0 0
0.25 0 0
0.25 0 0
0.25 0 0
0.25 0 0
0.25 0 0
0.25 0 0
0.4375 0 0
0.4375 0 0
0 0 0
0 0 0
0 0 0
0 0 0
0.4375 0 0
0.3125 0 0
0.3125 0 0
0.3125 0 0
0.3125 0 0
0.3125 0 0
0.3125 0 0
0.3125 0 0
0.3125 0 0
0.3125 0 0
0.3125 0 0
0.3125 0 0
0.3125 0 0
0.3125 0 0
0.25 0 0
0.25 0 0
0.25 0 0
0.25 0 0
0.25 0 0
0.25 0 0
0.4375 0 0
0.4375 0 0
0 0 0
0 0 0
0 0 0
0 0 0
0.4375 0 0
0.3125 0 0
0.3125 0 0
0.3125 0 0
0.3125 0 0
0.3125 0 0
0.3125 0 0
0.3125 0 0
0.3125 0 0
0.3125 0 0
0.3125 0 0
0.3125 0 0
0.3125 0 0
0.25 0 0
0.25 0 0
0.25 0 0
0.25 0 0
0.25 0 0
0.25 0 0
0.4375 0 0
0.4375 0 0
0 0 0
0 0 0
0 0 0
0 0 0
0.4375 0 0
0.3125 0 0
0.3125 0 0
0.3125 0 0
0.3125 0 0
0.3125 0 0
0.3125 0 0
0.3125 0 0
0.3125 0 0
0.3125 0 0
0.3125 0 0
0.3125 0 0
0.3125 0 0
0.25 0 0
0.25 0 0
0.25 0 0
0.25 0 0
0.25 0 0
0.25 0 0
0.4375 0 0
0.4375 0 0
0 0 0
0 0 0
0 0 0
0 0 0
0.4375 0 0
0.3125 0 0
0.3125 0 0
0.3125 0 0
0.3125 0 0
0.3125 0 0
0.3125 0 0
0.3125 0 0
0.3125 0 0
0.3125 0 0
0.3125 0 0
0.3125 0 0
0.3125 0 0
0.25 0 0
0.25 0 0
0.25 0 0
0.25 0 0
0.25 0 0
0.25 0 0
0.4375 0 0
0.4375 0 0
0 0 0
0 0 0
0 0 0
0 0 0
0.4375 0 0
0.3125 0 0
0.3125 0 0
0.3125 0 0
0.3125 0 0
0.3125 0 0
0.3125 0 0
0.3125 0 0
0.3125 0 0
0.3125 0 0
0.3125 0 0
0.3125 0 0
0.3125 0 0
0.25 0 0
0.25 0 0
0.25 0 0
0.25 0 0
0.25 0 0
0.25 0 0
0.4375 0 0
0.4375 0 0
0 0 0
0 0 0
0 0 0
0 0 0
0.4375 0 0
0.3125 0 0
0.3125 0 0
0.3125 0 0
0.3125 0 0
0.3125 0 0
0.3125 0 0
0.3125 0 0
0.3125 0 0
0.3125 0 0
0.3125 0 0
0.3125 0 0
0.3125 0 0
0.25 0 0
0.25 0 0
0.25 0 0
0.25 0 0
0.25 0 0
0.25 0 0
0.4375 0 0
0.4375 0 0
0 0 0
0 0 0
0 0 0
0 0 0
0.4375 0 0
0.3125 0 0
0.3125 0 0
0.3125 0 0
0.3125 0 0
0.3125 0 0
0.3125 0 0
0.3125 0 0
0.3125 0 0
0.3125 0 0
0.3125 0 0
0.3125 0 0
0.3125 0 0
0.25 0 0
0.25 0 0
0.25 0 0
0.25 0 0
0.25 0 0
0.25 0 0
0.4375 0 0
0.4375 0 0
0 0 0
0 0 0
0 0 0
0 0 0
0.4375 0 0
0.3125 0 0
0.3125 0 0
0.3125 0 0
0.3125 0 0
0.3125 0 0
0.3125 0 0
0.3125 0 0
0.3125 0 0
0.3125 0 0
0.3125 0 0
0.3125 0 0
0.3125 0 0
0.25 0 0
0.25 0 0
0.25 0 0
0.25 0 0
0.25 0 0
0.25 0 0
0.4375 0 0
0.4375 0 0
0 0 0
0 0 0
0 0 0
0 0 0
0.4375 0 0
0.3125 0 0
0.3125 0 0
0.3125 0 0
0.3125 0 0
0.3125 0 0
0.3125 0 0
0.3125 0 0
0.3125 0 0
0.3125 0 0
0.3125 0 0
0.3125 0 0
0.3125 0 0
0.25 0 0
0.25 0 0
0.25 0 0
0.25 0 0
0.25 0 0
0.25 0 0
0.4375 0 0
0.4375 0 0
0 0 0
0 0 0
0 0 0
0 0 0
0.4375 0 0
0.3125 0 0
0.3125 0 0
0.3125 0 0
0.3125 0 0
0.3125 0 0
0.3125 0 0
0.3125 0 0
0.3125 0 0
0.3125 0 0
0.3125 0 0
0.3125 0 0
0.3125 0 0
0.25 0 0
0.25 0 0
0.25 0 0
0.25 0 0
0.25 0 0
0.25 0 0
0.4375 0 0
0.4375 0 0
0 0 0
0 0 0
0 0 0
0 0 0
0.4375 0 0
0.3125 0 0
0.3125 0 0
0.3125 0 0
0.3125 0 0
0.3125 0 0
0.3125 0 0
0.3125 0 0
0.3125 0 0
0.3125 0 0
0.3125 0 0
0.3125 0 0
0.3125 0 0
0.25 0 0
0.25 0 0
0.25 0 0
0.25 0 0
0.25 0 0
0.25 0 0
0.4375 0 0
0.4375 0 0
0 0 0
0 0 0
0 0 0
0 0 0
0.4375 0 0
0.3125 0 0
0.3125 0 0
0.3125 0 0
0.3125 0 0
0.3125 0 0
0.3125 0 0
0.3125 0 0
0.3125 0 0
0.3125 0 0
0.3125 0 0
0.3125 0 0
0.3125 0 0
0.25 0 0
0.25 0 0
0.25 0 0
0.25 0 0
0.25 0 0
0.25 0 0
0.4375 0 0
0.4375 0 0
0 0 0
0 0 0
0 0 0
0 0 0
0.4375 0 0
0.3125 0 0
0.3125 0 0
0.3125 0 0
0.3125 0 0
0.3125 0 0
0.3125 0 0
0.3125 0 0
0.3125 0 0
0.3125 0 0
0.3125 0 0
0.3125 0 0
0.3125 0 0
0.25 0 0
0.25 0 0
0.25 0 0
0.25 0 0
0.25 0 0
0.25 0 0
0.4375 0 0
0.4375 0 0
0 0 0
0 0 0
0 0 0
0 0 0
0.4375 0 0
0.3125 0 0
0.3125 0 0
0.3125 0 0
0.3125 0 0
0.3125 0 0
0.3125 0 0
0.3125 0 0
0.3125 0 0
0.3125 0 0
0.3125 0 0
0.3125 0 0
0.3125 0 0
0.25 0 0
0.25 0 0
0.25 0 0
0.25 0 0
0.25 0 0
0.25 0 0
0.4375 0 0
0.4375 0 0
0 0 0
0 0 0
0 0 0
0 0 0
0.4375 0 0
0.3125 0 0
0.3125 0 0
0.3125 0 0
0.3125 0 0
0.3125 0 0
0.3125 0 0
0.3125 0 0
0.3125 0 0
0.3125 0 0
0.3125 0 0
0.3125 0 0
0.3125 0 0
0.25 0 0
0.25 0 0
0.25 0 0
0.25 0 0
0.25 0 0
0.25 0 0
0.4375 0 0
0.4375 0 0
0 0 0
0 0 0
0 0 0
0 0 0
0.4375 0 0
0.3125 0 0
0.3125 0 0
0.3125 0 0
0.3125 0 0
0.3125 0 0
0.3125 0 0
0.3125 0 0
0.3125 0 0
0.3125 0 0
0.3125 0 0
0.3125 0 0
0.3125 0 0
0.25 0 0
0.25 0 0
0.25 0 0
0.25 0 0
0.25 0 0
0.25 0 0
0.4375 0 0
0.4375 0 0
0 0 0
0 0 0
0 0 0
0 0 0
0.4375 0 0
0.3125 0 0
0.3125 0 0
0.3125 0 0
0.3125 0 0
0.3125 0 0
0.3125 0 0
0.3125 0 0
0.3125 0 0
0.3125 0 0
0.3125 0 0
0.3125 0 0
0.3125 0 0
0.25 0 0
0.25 0 0
0.25 0 0
0.25 0 0
0.25 0 0
0.25 0 0
0.4375 0 0
0.4375 0 0
0 0 0
0 0 0
0 0 0
0 0 0
0.4375 0 0
0.3125 0 0
0.3125 0 0
0.3125 0 0
0.3125 0 0
0.3125 0 0
0.3125 0 0
0.3125 0 0
0.3125 0 0
0.3125 0 0
0.3125 0 0
0.3125 0 0
0.3125 0 0
0.25 0 0
0.25 0 0
0.25 0 0
0.25 0 0
0.25 0 0
0.25 0 0
0.4375 0 0
0.4375 0 0
0 0 0
0 0 0
0 0 0
0 0 0
0.4375 0 0
0.3125 0 0
0.3125 0 0
0.3125 0 0
0.3125 0 0
0.3125 0 0
0.3125 0 0
0.3125 0 0
0.3125 0 0
0.3125 0 0
0.3125 0 0
0.3125 0 0
0.3125 0 0
0.25 0 0
0.25 0 0
0.25 0 0
0.25 0 0
0.25 0 0
0.25 0 0
0.4375 0 0
0.4375 0 0
0 0 0
0 0 0
0 0 0
0 0 0
0.4375 0 0
0.3125 0 0
0.3125 0 0
0.3125 0 0
0.3125 0 0
0.3125 0 0
0.3125 0 0
0.3125 0 0
0.3125 0 0
0.3125 0 0
0.3125 0 0
0.3125 0 0
0.3125 0 0
0.25 0 0
0.25 0 0
0.25 0 0
0.25 0 0
0.25 0 0
0.25 0 0
0.4375 0 0
0.4375 0 0
0 0 0
0 0 0
0 0 0
0 0 0
0.4375 0 0
0.3125 0 0
0.3125 0 0
0.3125 0 0
0.3125 0 0
0.3125 0 0
0.3125 0 0
0.3125 0 0
0.3125 0 0
0.3125 0 0
0.3125 0 0
0.3125 0 0
0.3125 0 0
0.25 0 0
0.25 0 0
0.25 0 0
0.25 0 0
0.25 0 0
0.25 0 0
0.4375 0 0
0.4375 0 0
0 0 0
0 0 0
0 0 0
0 0 0
0.4375 0 0
0.3125 0 0
0.3125 0 0
0.3125 0 0
0.3125 0 0
0.3125 0 0
0.3125 0 0
0.3125 0 0
0.3125 0 0
0.3125 0 0
0.3125 0 0
0.3125 0 0
0.3125 0 0
0.25 0 0
0.25 0 0
0.25 0 0
0.25 0 0
0.25 0 0
0.25 0 0
0.4375 0 0
0.4375 0 0
0 0 0
0 0 0
0 0 0
0 0 0
0.4375 0 0
0.3125 0 0
0.3125 0 0
0.3125 0 0
0.3125 0 0
0.3125 0 0
0.3125 0 0
0.3125 0 0
0.3125 0 0
0.3125 0 0
0.3125 0 0
0.3125 0 0
0.3125 0 0
0.25 0 0
0.25 0 0
0.25 0 0
0.25 0 0
0.25 0 0
0.25 0 0
0.4375 0 0
0.4375 0 0
0 0 0
0 0 0
0 0 0
0 0 0
0.4375 0 0
0.3125 0 0
0.3125 0 0
0.3125 0 0
0.3125 0 0
0.3125 0 0
0.3125 0 0
0.3125 0 0
0.3125 0 0
0.3125 0 0
0.3125 0 0
0.3125 0 0
0.3125 0 0
0.25 0 0
0.25 0 0
0.25 0 0
0.25 0 0
0.25 0 0
0.25 0 0
0.4375 0 0
0.4375 0 0
0 0 0
0 0 0
0 0 0
0 0 0
0.4375 0 0
0.3125 0 0
0.3125 0 0
0.3125 0 0
0.3125 0 0
0.3125 0 0
0.3125 0 0
0.3125 0 0
0.3125 0 0
0.3125 0 0
0.3125 0 0
0.3125 0 0
0.3125 0 0
0.25 0 0
0.25 0 0
0.25 0 0
0.25 0 0
0.25 0 0
0.25 0 0
0.4375 0 0
0.4375 0 0
0 0 0
0 0 0
0 0 0
0 0 0
0.4375 0 0
0.3125 0 0
0.3125 0 0
0.3125 0 0
0.3125 0 0
0.3125 0 0
0.3125 0 0
0.3125 0 0
0.3125 0 0
0.3125 0 0
0.3125 0 0
0.3125 0 0
0.3125 0 0
0.25 0 0
0.25 0 0
0.25 0 0
0.25 0 0
0.25 0 0
0.25 0 0
0.4375 0 0
0.4375 0 0
0 0 0
0 0 0
0 0 0
0 0 0
0.4375 0 0
0.3125 0 0
0.3125 0 0
0.3125 0 0
0.3125 0 0
0.3125 0 0
0.3125 0 0
0.3125 0 0
0.3125 0 0
0.3125 0 0
0.3125 0 0
0.3125 0 0
0.3125 0 0
0.25 0 0
0.25 0 0
0.25 0 0
0.25 0 0
0.25 0 0
0.25 0 0
0.4375 0 0
0.4375 0 0
0 0 0
0 0 0
0 0 0
0 0 0
0.4375 0 0
0.3125 0 0
0.3125 0 0
0.3125 0 0
0.3125 0 0
0.3125 0 0
0.3125 0 0
0.3125 0 0
0.3125 0 0
0.3125 0 0
0.3125 0 0
0.3125 0 0
0.3125 0 0
0.25 0 0
0.25 0 0
0.25 0 0
0.25 0 0
0.25 0 0
0.25 0 0
0.4375 0 0
0.4375 0 0
0 0 0
0 0 0
0 0 0
0 0 0
0.4375 0 0
0.3125 0 0
0.3125 0 0
0.3125 0 0
0.3125 0 0
0.3125 0 0
0.3125 0 0
0.3125 0 0
0.3125 0 0
0.3125 0 0
0.3125 0 0
0.3125 0 0
0.3125 0 0
0.25 0 0
0.25 0 0
0.25 0 0
0.25 0 0
0.25 0 0
0.25 0 0
0.4375 0 0
0.4375 0 0
0 0 0
0 0 0
0 0 0
0 0 0
0.4375 0 0
0.3125 0 0
0.3125 0 0
0.3125 0 0
0.3125 0 0
0.3125 0 0
0.3125 0 0
0.3125 0 0
0.3125 0 0
0.3125 0 0
0.3125 0 0
0.3125 0 0
0.3125 0 0
0.25 0 0
0.25 0 0
0.25 0 0
0.25 0 0
0.25 0 0
0.25 0 0
0.4375 0 0
0.4375 0 0
0 0 0
0 0 0
0 0 0
0 0 0
0.4375 0 0
0.3125 0 0
0.3125 0 0
0.3125 0 0
0.3125 0 0
0.3125 0 0
0.3125 0 0
0.3125 0 0
0.3125 0 0
0.3125 0 0
0.3125 0 0
0.3125 0 0
0.3125 0 0
0.25 0 0
0.25 0 0
0.25 0 0
0.25 0 0
0.25 0 0
0.25 0 0
0.4375 0 0
0.4375 0 0
0 0 0
0 0 0
0 0 0
0 0 0
0.4375 0 0
0.3125 0 0
0.3125 0 0
0.3125 0 0
0.3125 0 0
0.3125 0 0
0.3125 0 0
0.3125 0 0
0.3125 0 0
0.3125 0 0
0.3125 0 0
0.3125 0 0
0.3125 0 0
0.25 0 0
0.25 0 0
0.25 0 0
0.25 0 0
0.25 0 0
0.25 0 0
0.4375 0 0
0.4375 0 0
0 0 0
0 0 0
0 0 0
0 0 0
0.4375 0 0
0.3125 0 0
0.3125 0 0
0.3125 0 0
0.3125 0 0
0.3125 0 0
0.3125 0 0
0.3125 0 0
0.3125 0 0
0.3125 0 0
0.3125 0 0
0.3125 0 0
0.3125 0 0
0.25 0 0
0.25 0 0
0.25 0 0
0.25 0 0
0.25 0 0
0.25 0 0
0.4375 0 0
0.4375 0 0
0 0 0
0 0 0
0 0 0
0 0 0
0.4375 0 0
0.3125 0 0
0.3125 0 0
0.3125 0 0
0.3125 0 0
0.3125 0 0
0.3125 0 0
0.3125 0 0
0.3125 0 0
0.3125 0 0
0.3125 0 0
0.3125 0 0
0.3125 0 0
0.25 0 0
0.25 0 0
0.25 0 0
0.25 0 0
0.25 0 0
0.25 0 0
0.4375 0 0
0.4375 0 0
0 0 0
0 0 0
0 0 0
0 0 0
0.4375 0 0
0.3125 0 0
0.3125 0 0
0.3125 0 0
0.3125 0 0
0.3125 0 0
0.3125 0 0
0.3125 0 0
0.3125 0 0
0.3125 0 0
0.3125 0 0
0.3125 0 0
0.3125 0 0
0.3125 0 0
0.25 0 0
0.25 0 0
0.25 0 0
0.25 0 0
0.25 0 0
0.25 0 0
0.4375 0 0
0.4375 0 0
0 0 0
0 0 0
0 0 0
0 0 0
0.4375 0 0
0.3125 0 0
0.3125 0 0
0.3125 0 0
0.3125 0 0
0.3125 0 0
0.3125 0 0
0.3125 0 0
0.3125 0 0
0.3125 0 0
0.3125 0 0
0.3125 0 0
0.3125 0 0
0.3125 0 0
0.25 0 0
0.25 0 0
0.25 0 0
0.25 0 0
0.25 0 0
0.25 0 0
0.4375 0 0
0.4375 0 0
0 0 0
0 0 0
0 0 0
0 0 0
0.4375 0 0
0.3125 0 0
0.3125 0 0
0.3125 0 0
0.3125 0 0
0.3125 0 0
0.3125 0 0
0.3125 0 0
0.3125 0 0
0.3125 0 0
0.3125 0 0
0.3125 0 0
0.3125 0 0
0.25 0 0
0.25 0 0
0.25 0 0
0.25 0 0
0.25 0 0
0.25 0 0
0.4375 0 0
0.4375 0 0
0 0 0
0 0 0
0 0 0
0 0 0
0.4375 0 0
0.3125 0 0
0.3125 0 0
0.3125 0 0
0.3125 0 0
0.3125 0 0
0.3125 0 0
0.3125 0 0
0.3125 0 0
0.3125 0 0
0.3125 0 0
0.3125 0 0
0.3125 0 0
0.25 0 0
0.25 0 0
0.25 0 0
0.25 0 0
0.25 0 0
0.25 0 0
0.4375 0 0
0.4375 0 0
0 0 0
0 0 0
0 0 0
0 0 0
0.4375 0 0
0.3125 0 0
0.3125 0 0
0.3125 0 0
0.3125 0 0
0.3125 0 0
0.3125 0 0
0.3125 0 0
0.3125 0 0
0.3125 0 0
0.3125 0 0
0.3125 0 0
0.3125 0 0
0.3125 0 0
0.25 0 0
0.25 0 0
0.25 0 0
0.25 0 0
0.25 0 0
0.25 0 0
0.4375 0 0
0.4375 0 0
0 0 0
0 0 0
0 0 0
0 0 0
0.4375 0 0
0.3125 0 0
0.3125 0 0
0.3125 0 0
0.3125 0 0
0.3125 0 0
0.3125 0 0
0.3125 0 0
0.3125 0 0
0.3125 0 0
0.3125 0 0
0.3125 0 0
0.3125 0 0
0.3125 0 0
0.25 0 0
0.25 0 0
0.25 0 0
0.25 0 0
0.25 0 0
0.25 0 0
0.4375 0 0
0.4375 0 0
0 0 0
0 0 0
0 0 0
0 0 0
0.4375 0 0
0.3125 0 0
0.3125 0 0
0.3125 0 0
0.3125 0 0
0.3125 0 0
0.3125 0 0
0.3125 0 0
0.3125 0 0
0.3125 0 0
0.3125 0 0
0.3125 0 0
0.3125 0 0
0.25 0 0
0.25 0 0
0.25 0 0
0.25 0 0
0.25 0 0
0.25 0 0
0.4375 0 0
0.4375 0 0
0 0 0
0 0 0
0 0 0
0 0 0
0.4375 0 0
0.3125 0 0
0.3125 0 0
0.3125 0 0
0.3125 0 0
0.3125 0 0
0.3125 0 0
0.3125 0 0
0.3125 0 0
0.3125 0 0
0.3125 0 0
0.3125 0 0
0.3125 0 0
0.25 0 0
0.25 0 0
0.25 0 0
0.25 0 0
0.25 0 0
0.25 0 0
0.4375 0 0
0.4375 0 0
0 0 0
0 0 0
0 0 0
0 0 0
0.4375 0 0
0.3125 0 0
0.3125 0 0
0.3125 0 0
0.3125 0 0
0.3125 0 0
0.3125 0 0
0.3125 0 0
0.3125 0 0
0.3125 0 0
0.3125 0 0
0.3125 0 0
0.3125 0 0
0.3125 0 0
0.25 0 0
0.25 0 0
0.25 0 0
0.25 0 0
0.25 0 0
0.25 0 0
0.4375 0 0
0.4375 0 0
0 0 0
0 0 0
0 0 0
0 0 0
0.4375 0 0
0.3125 0 0
0.3125 0 0
0.3125 0 0
0.3125 0 0
0.3125 0 0
0.3125 0 0
0.3125 0 0
0.3125 0 0
0.3125 0 0
0.3125 0 0
0.3125 0 0
0.3125 0 0
0.3125 0 0
0.25 0 0
0.25 0 0
0.25 0 0
0.25 0 0
0.25 0 0
0.25 0 0
0.4375 0 0
0.4375 0 0
0 0 0
0 0 0
0 0 0
0 0 0
0.4375 0 0
0.3125 0 0
0.3125 0 0
0.3125 0 0
0.3125 0 0
0.3125 0 0
0.3125 0 0
0.3125 0 0
0.3125 0 0
0.3125 0 0
0.3125 0 0
0.3125 0 0
0.3125 0 0
0.25 0 0
0.25 0 0
0.25 0 0
0.25 0 0
0.25 0 0
0.25 0 0
0.4375 0 0
0.4375 0 0
0 0 0
0 0 0
0 0 0
0 0 0
0.4375 0 0
0.3125 0 0
0.3125 0 0
0.3125 0 0
0.3125 0 0
0.3125 0 0
0.3125 0 0
0.3125 0 0
0.3125 0 0
0.3125 0 0
0.3125 0 0
0.3125 0 0
0.3125 0 0
0.25 0 0
0.25 0 0
0.25 0 0
0.25 0 0
0.25 0 0
0.25 0 0
0.4375 0 0
0.4375 0 0
0 0 0
0 0 0
0 0 0
0 0 0
0.4375 0 0
0.3125 0 0
0.3125 0 0
0.3125 0 0
0.3125 0 0
0.3125 0 0
0.3125 0 0
0.3125 0 0
0.3125 0 0
0.3125 0 0
0.3125 0 0
0.3125 0 0
0.3125 0 0
0.3125 0 0
0.25 0 0
0.25 0 0
0.25 0 0
0.25 0 0
0.25 0 0
0.25 0 0
0.4375 0 0
0.4375 0 0
0 0 0
0 0 0
0 0 0
0 0 0
0.4375 0 0
0.3125 0 0
0.3125 0 0
0.3125 0 0
0.3125 0 0
0.3125 0 0
0.3125 0 0
0.3125 0 0
0.3125 0 0
0.3125 0 0
0.3125 0 0
0.3125 0 0
0.3125 0 0
0.3125 0 0
0.25 0 0
0.25 0 0
0.25 0 0
0.25 0 0
0.25 0 0
0.25 0 0
0.4375 0 0
0.4375 0 0
0 0 0
0 0 0
0 0 0
0 0 0
0.4375 0 0
0.3125 0 0
0.3125 0 0
0.3125 0 0
0.3125 0 0
0.3125 0 0
0.3125 0 0
0.3125 0 0
0.3125 0 0
0.3125 0 0
0.3125 0 0
0.3125 0 0
0.3125 0 0
0.25 0 0
0.25 0 0
0.25 0 0
0.25 0 0
0.25 0 0
0.25 0 0
0.4375 0 0
0.4375 0 0
0 0 0
0 0 0
0 0 0
0 0 0
