# vtk DataFile Version 1.0
Cube
ASCII

DATASET POLYDATA
POINTS 1512 float
12.317530 0.305846 1.782361
9.975279 1.765331 2.801871
9.583093 1.017457 4.833762
9.008057 1.591406 3.742958
7.564349 1.965343 3.600369
6.909905 2.634952 4.648397
7.696745 3.156724 5.810496
5.525201 2.826268 4.598491
11.144969 1.295735 3.308061
10.904186 0.834836 4.562843
9.835930 2.204385 1.815092
9.076070 0.751172 5.760012
8.432259 3.877597 5.456526
7.023762 3.641512 6.516190
8.206492 2.330567 6.303989
5.037071 3.340545 5.425035
14.659781 1.765331 0.762850
15.041888 1.017457 5.860402
15.616924 1.591406 6.951207
17.060633 1.965343 7.093796
17.715077 2.634952 6.045768
16.928237 3.156724 4.883668
19.099780 2.826268 6.095674
13.490092 1.295735 0.256660
13.720796 0.834836 6.131321
14.799130 2.204385 1.749629
15.548911 0.751172 4.934152
16.192722 3.877597 5.237638
17.601219 3.641512 4.177975
16.418490 2.330567 4.390175
19.587911 3.340545 5.269129
12.312491 8.390364 5.347082
14.654742 6.930879 4.327572
15.046928 7.678753 2.295681
15.621964 7.104804 3.386485
17.065672 6.730867 3.529074
17.720116 6.061258 2.481046
16.933276 5.539486 1.318947
19.104819 5.869942 2.530952
13.485052 7.400475 3.821381
13.725835 7.861374 2.566599
14.794091 6.491825 5.314351
15.553951 7.945038 1.369431
16.197762 4.818613 1.672917
17.606259 5.054698 0.613253
16.423529 6.365643 0.825454
19.592950 5.355665 1.704407
9.970240 6.930879 6.366592
9.588133 7.678753 1.269041
9.013097 7.104804 0.178236
7.569388 6.730867 0.035647
6.914944 6.061258 1.083675
7.701784 5.539486 2.245775
5.530241 5.869942 1.033769
11.139929 7.400475 6.872783
10.909225 7.861374 0.998122
9.830891 6.491825 5.379813
9.081110 7.945038 2.195291
8.437299 4.818613 1.891805
7.028802 5.054698 2.951468
8.211531 6.365643 2.739267
5.042110 5.355665 1.860314
-0.002520 4.653951 1.782361
24.637580 4.653951 1.782361
22.295329 6.113436 2.801871
21.903143 5.365562 4.833762
21.328107 5.939511 3.742958
19.884399 6.313448 3.600369
19.229955 6.983057 4.648397
20.016795 7.504829 5.810496
17.845251 7.174373 4.598491
23.465019 5.643840 3.308061
23.224236 5.182941 4.562843
22.155980 6.552490 1.815092
21.396120 5.099277 5.760012
20.752309 8.225702 5.456526
19.343812 7.989617 6.516190
20.526542 6.678672 6.303989
17.357121 7.688650 5.425035
2.339731 6.113436 0.762850
2.721838 5.365562 5.860402
3.296874 5.939511 6.951207
4.740583 6.313448 7.093796
5.395027 6.983057 6.045768
4.608187 7.504829 4.883668
6.779730 7.174373 6.095674
1.170042 5.643840 0.256660
1.400746 5.182941 6.131321
2.479080 6.552490 1.749629
3.228861 5.099277 4.934152
3.872672 8.225702 5.237638
5.281169 7.989617 4.177975
4.098440 6.678672 4.390175
7.267861 7.688650 5.269129
-0.007559 4.042259 5.347082
24.632541 4.042259 5.347082
2.334692 2.582774 4.327572
2.726878 3.330648 2.295681
3.301914 2.756699 3.386485
4.745622 2.382762 3.529074
5.400066 1.713153 2.481046
4.613226 1.191381 1.318947
6.784769 1.521837 2.530952
1.165002 3.052370 3.821381
1.405785 3.513269 2.566599
2.474041 2.143720 5.314351
3.233901 3.596933 1.369431
3.877712 0.470508 1.672917
5.286209 0.706593 0.613253
4.103479 2.017538 0.825454
7.272900 1.007560 1.704407
22.290290 2.582774 6.366592
21.908183 3.330648 1.269041
21.333147 2.756699 0.178236
19.889438 2.382762 0.035647
19.234994 1.713153 1.083675
20.021834 1.191381 2.245775
17.850291 1.521837 1.033769
23.459979 3.052370 6.872783
23.229275 3.513269 0.998122
22.150941 2.143720 5.379813
21.401160 3.596933 2.195291
20.757349 0.470508 1.891805
19.348852 0.706593 2.951468
20.531581 2.017538 2.739267
17.362160 1.007560 1.860314
12.307451 0.305846 8.911804
9.965200 1.765331 9.931314
9.573014 1.017457 11.963205
8.997978 1.591406 10.872400
7.554270 1.965343 10.729812
6.899826 2.634952 11.777840
7.686666 3.156724 12.939939
5.515122 2.826268 11.727934
11.134890 1.295735 10.437504
10.894107 0.834836 11.692286
9.825851 2.204385 8.944535
9.065991 0.751172 12.889455
8.422180 3.877597 12.585969
7.013683 3.641512 13.645632
8.196413 2.330567 13.433432
5.026992 3.340545 12.554478
14.649702 1.765331 7.892293
15.031809 1.017457 12.989845
15.606845 1.591406 14.080650
17.050554 1.965343 14.223239
17.704998 2.634952 13.175210
16.918158 3.156724 12.013111
19.089701 2.826268 13.225117
13.480013 1.295735 7.386103
13.710717 0.834836 13.260764
14.789051 2.204385 8.879072
15.538832 0.751172 12.063595
16.182643 3.877597 12.367081
17.591140 3.641512 11.307418
16.408411 2.330567 11.519618
19.577832 3.340545 12.398572
12.302412 8.390364 12.476525
14.644663 6.930879 11.457015
15.036849 7.678753 9.425123
15.611885 7.104804 10.515928
17.055593 6.730867 10.658517
17.710037 6.061258 9.610489
16.923197 5.539486 8.448390
19.094740 5.869942 9.660395
13.474973 7.400475 10.950824
13.715756 7.861374 9.696042
14.784012 6.491825 12.443794
15.543871 7.945038 8.498873
16.187682 4.818613 8.802360
17.596180 5.054698 7.742696
16.413450 6.365643 7.954897
19.582871 5.355665 8.833850
9.960161 6.930879 13.496035
9.578054 7.678753 8.398484
9.003018 7.104804 7.307679
7.559309 6.730867 7.165090
6.904865 6.061258 8.213118
7.691705 5.539486 9.375217
5.520162 5.869942 8.163212
11.129850 7.400475 14.002226
10.899146 7.861374 8.127565
9.820812 6.491825 12.509256
9.071031 7.945038 9.324734
8.427220 4.818613 9.021248
7.018723 5.054698 10.080911
8.201452 6.365643 9.868710
5.032031 5.355665 8.989757
-0.012599 4.653951 8.911804
24.627501 4.653951 8.911804
22.285250 6.113436 9.931314
21.893064 5.365562 11.963205
21.318028 5.939511 10.872400
19.874320 6.313448 10.729812
19.219876 6.983057 11.777840
20.006716 7.504829 12.939939
17.835172 7.174373 11.727934
23.454940 5.643840 10.437504
23.214157 5.182941 11.692286
22.145901 6.552490 8.944535
21.386041 5.099277 12.889455
20.742230 8.225702 12.585969
19.333733 7.989617 13.645632
20.516463 6.678672 13.433432
17.347042 7.688650 12.554478
2.329652 6.113436 7.892293
2.711759 5.365562 12.989845
3.286795 5.939511 14.080650
4.730504 6.313448 14.223239
5.384948 6.983057 13.175210
4.598108 7.504829 12.013111
6.769651 7.174373 13.225117
1.159963 5.643840 7.386103
1.390667 5.182941 13.260764
2.469001 6.552490 8.879072
3.218782 5.099277 12.063595
3.862593 8.225702 12.367081
5.271090 7.989617 11.307418
4.088361 6.678672 11.519618
7.257782 7.688650 12.398572
-0.017638 4.042259 12.476525
24.622462 4.042259 12.476525
2.324613 2.582774 11.457015
2.716799 3.330648 9.425123
3.291835 2.756699 10.515928
4.735543 2.382762 10.658517
5.389987 1.713153 9.610489
4.603147 1.191381 8.448390
6.774690 1.521837 9.660395
1.154923 3.052370 10.950824
1.395706 3.513269 9.696042
2.463962 2.143720 12.443794
3.223821 3.596933 8.498873
3.867632 0.470508 8.802360
5.276130 0.706593 7.742696
4.093400 2.017538 7.954897
7.262821 1.007560 8.833850
22.280211 2.582774 13.496035
21.898104 3.330648 8.398484
21.323068 2.756699 7.307679
19.879359 2.382762 7.165090
19.224915 1.713153 8.213118
20.011755 1.191381 9.375217
17.840212 1.521837 8.163212
23.449900 3.052370 14.002226
23.219196 3.513269 8.127565
22.140862 2.143720 12.509256
21.391081 3.596933 9.324734
20.747270 0.470508 9.021248
19.338773 0.706593 10.080911
20.521502 2.017538 9.868710
17.352081 1.007560 8.989757
12.297372 0.305846 16.041246
9.955121 1.765331 17.060757
9.562935 1.017457 19.092648
8.987899 1.591406 18.001843
7.544191 1.965343 17.859254
6.889747 2.634952 18.907283
7.676587 3.156724 20.069382
5.505043 2.826268 18.857376
11.124811 1.295735 17.566947
10.884028 0.834836 18.821729
9.815772 2.204385 16.073978
9.055912 0.751172 20.018898
8.412101 3.877597 19.715412
7.003604 3.641512 20.775075
8.186333 2.330567 20.562875
5.016913 3.340545 19.683921
14.639623 1.765331 15.021736
15.021730 1.017457 20.119288
15.596766 1.591406 21.210093
17.040475 1.965343 21.352681
17.694919 2.634952 20.304653
16.908079 3.156724 19.142554
19.079622 2.826268 20.354559
13.469934 1.295735 14.515546
13.700638 0.834836 20.390207
14.778972 2.204385 16.008515
15.528753 0.751172 19.193038
16.172564 3.877597 19.496524
17.581061 3.641512 18.436860
16.398332 2.330567 18.649061
19.567753 3.340545 19.528015
12.292333 8.390364 19.605968
14.634583 6.930879 18.586458
15.026770 7.678753 16.554566
15.601806 7.104804 17.645371
17.045514 6.730867 17.787960
17.699958 6.061258 16.739932
16.913118 5.539486 15.577833
19.084661 5.869942 16.789838
13.464894 7.400475 18.080267
13.705677 7.861374 16.825485
14.773933 6.491825 19.573237
15.533792 7.945038 15.628316
16.177603 4.818613 15.931802
17.586101 5.054698 14.872139
16.403371 6.365643 15.084340
19.572792 5.355665 15.963293
9.950082 6.930879 20.625478
9.567975 7.678753 15.527927
8.992939 7.104804 14.437122
7.549230 6.730867 14.294533
6.894786 6.061258 15.342561
7.681626 5.539486 16.504660
5.510083 5.869942 15.292655
11.119771 7.400475 21.131669
10.889067 7.861374 15.257008
9.810733 6.491825 19.638699
9.060952 7.945038 16.454177
8.417141 4.818613 16.150691
7.008644 5.054698 17.210354
8.191373 6.365643 16.998153
5.021952 5.355665 16.119200
-0.022678 4.653951 16.041246
24.617422 4.653951 16.041246
22.275171 6.113436 17.060757
21.882985 5.365562 19.092648
21.307949 5.939511 18.001843
19.864241 6.313448 17.859254
19.209797 6.983057 18.907283
19.996637 7.504829 20.069382
17.825093 7.174373 18.857376
23.444861 5.643840 17.566947
23.204078 5.182941 18.821729
22.135822 6.552490 16.073978
21.375962 5.099277 20.018898
20.732151 8.225702 19.715412
19.323654 7.989617 20.775075
20.506383 6.678672 20.562875
17.336963 7.688650 19.683921
2.319573 6.113436 15.021736
2.701680 5.365562 20.119288
3.276716 5.939511 21.210093
4.720425 6.313448 21.352681
5.374869 6.983057 20.304653
4.588029 7.504829 19.142554
6.759572 7.174373 20.354559
1.149884 5.643840 14.515546
1.380588 5.182941 20.390207
2.458922 6.552490 16.008515
3.208703 5.099277 19.193038
3.852514 8.225702 19.496524
5.261011 7.989617 18.436860
4.078282 6.678672 18.649061
7.247703 7.688650 19.528015
-0.027717 4.042259 19.605968
24.612383 4.042259 19.605968
2.314533 2.582774 18.586458
2.706720 3.330648 16.554566
3.281756 2.756699 17.645371
4.725464 2.382762 17.787960
5.379908 1.713153 16.739932
4.593068 1.191381 15.577833
6.764611 1.521837 16.789838
1.144844 3.052370 18.080267
1.385627 3.513269 16.825485
2.453883 2.143720 19.573237
3.213742 3.596933 15.628316
3.857553 0.470508 15.931802
5.266051 0.706593 14.872139
4.083321 2.017538 15.084340
7.252742 1.007560 15.963293
22.270132 2.582774 20.625478
21.888025 3.330648 15.527927
21.312989 2.756699 14.437122
19.869280 2.382762 14.294533
19.214836 1.713153 15.342561
20.001676 1.191381 16.504660
17.830133 1.521837 15.292655
23.439821 3.052370 21.131669
23.209117 3.513269 15.257008
22.130783 2.143720 19.638699
21.381002 3.596933 16.454177
20.737191 0.470508 16.150691
19.328694 0.706593 17.210354
20.511423 2.017538 16.998153
17.342002 1.007560 16.119200
12.287293 0.305846 23.170689
9.945042 1.765331 24.190200
9.552856 1.017457 26.222091
8.977820 1.591406 25.131286
7.534112 1.965343 24.988697
6.879667 2.634952 26.036725
7.666508 3.156724 27.198825
5.494964 2.826268 25.986819
11.114732 1.295735 24.696390
10.873949 0.834836 25.951172
9.805693 2.204385 23.203421
9.045833 0.751172 27.148341
8.402022 3.877597 26.844855
6.993525 3.641512 27.904518
8.176254 2.330567 27.692317
5.006834 3.340545 26.813364
14.629544 1.765331 22.151179
15.011651 1.017457 27.248731
15.586687 1.591406 28.339535
17.030396 1.965343 28.482124
17.684840 2.634952 27.434096
16.898000 3.156724 26.271997
19.069543 2.826268 27.484002
13.459855 1.295735 21.644989
13.690559 0.834836 27.519649
14.768893 2.204385 23.137958
15.518674 0.751172 26.322481
16.162485 3.877597 26.625967
17.570982 3.641512 25.566303
16.388253 2.330567 25.778504
19.557674 3.340545 26.657457
12.282254 8.390364 26.735411
14.624504 6.930879 25.715900
15.016691 7.678753 23.684009
15.591727 7.104804 24.774814
17.035435 6.730867 24.917403
17.689879 6.061258 23.869375
16.903039 5.539486 22.707276
19.074582 5.869942 23.919281
13.454815 7.400475 25.209710
13.695598 7.861374 23.954928
14.763854 6.491825 26.702680
15.523713 7.945038 22.757759
16.167524 4.818613 23.061245
17.576022 5.054698 22.001582
16.393292 6.365643 22.213783
19.562713 5.355665 23.092736
9.940003 6.930879 27.754921
9.557896 7.678753 22.657369
8.982860 7.104804 21.566565
7.539151 6.730867 21.423976
6.884707 6.061258 22.472004
7.671547 5.539486 23.634103
5.500004 5.869942 22.422098
11.109692 7.400475 28.261112
10.878988 7.861374 22.386451
9.800654 6.491825 26.768142
9.050873 7.945038 23.583620
8.407062 4.818613 23.280133
6.998565 5.054698 24.339797
8.181294 6.365643 24.127596
5.011873 5.355665 23.248643
-0.032757 4.653951 23.170689
24.607343 4.653951 23.170689
22.265092 6.113436 24.190200
21.872906 5.365562 26.222091
21.297870 5.939511 25.131286
19.854162 6.313448 24.988697
19.199717 6.983057 26.036725
19.986558 7.504829 27.198825
17.815014 7.174373 25.986819
23.434782 5.643840 24.696390
23.193999 5.182941 25.951172
22.125743 6.552490 23.203421
21.365883 5.099277 27.148341
20.722072 8.225702 26.844855
19.313575 7.989617 27.904518
20.496304 6.678672 27.692317
17.326884 7.688650 26.813364
2.309494 6.113436 22.151179
2.691601 5.365562 27.248731
3.266637 5.939511 28.339535
4.710346 6.313448 28.482124
5.364790 6.983057 27.434096
4.577950 7.504829 26.271997
6.749493 7.174373 27.484002
1.139805 5.643840 21.644989
1.370509 5.182941 27.519649
2.448843 6.552490 23.137958
3.198624 5.099277 26.322481
3.842435 8.225702 26.625967
5.250932 7.989617 25.566303
4.068203 6.678672 25.778504
7.237624 7.688650 26.657457
-0.037796 4.042259 26.735411
24.602304 4.042259 26.735411
2.304454 2.582774 25.715900
2.696641 3.330648 23.684009
3.271677 2.756699 24.774814
4.715385 2.382762 24.917403
5.369829 1.713153 23.869375
4.582989 1.191381 22.707276
6.754532 1.521837 23.919281
1.134765 3.052370 25.209710
1.375548 3.513269 23.954928
2.443804 2.143720 26.702680
3.203663 3.596933 22.757759
3.847474 0.470508 23.061245
5.255972 0.706593 22.001582
4.073242 2.017538 22.213783
7.242663 1.007560 23.092736
22.260053 2.582774 27.754921
21.877946 3.330648 22.657369
21.302910 2.756699 21.566565
19.859201 2.382762 21.423976
19.204757 1.713153 22.472004
19.991597 1.191381 23.634103
17.820054 1.521837 22.422098
23.429742 3.052370 28.261112
23.199038 3.513269 22.386451
22.120704 2.143720 26.768142
21.370923 3.596933 23.583620
20.727112 0.470508 23.280133
19.318615 0.706593 24.339797
20.501344 2.017538 24.127596
17.331923 1.007560 23.248643
12.317530 9.002056 1.782361
9.975279 10.461541 2.801871
9.583093 9.713667 4.833762
9.008057 10.287616 3.742958
7.564349 10.661553 3.600369
6.909905 11.331162 4.648397
7.696745 11.852934 5.810496
5.525201 11.522478 4.598491
11.144969 9.991945 3.308061
10.904186 9.531046 4.562843
9.835930 10.900595 1.815092
9.076070 9.447382 5.760012
8.432259 12.573807 5.456526
7.023762 12.337722 6.516190
8.206492 11.026777 6.303989
5.037071 12.036755 5.425035
14.659781 10.461541 0.762850
15.041888 9.713667 5.860402
15.616924 10.287616 6.951207
17.060633 10.661553 7.093796
17.715077 11.331162 6.045768
16.928237 11.852934 4.883668
19.099780 11.522478 6.095674
13.490092 9.991945 0.256660
13.720796 9.531046 6.131321
14.799130 10.900595 1.749629
15.548911 9.447382 4.934152
16.192722 12.573807 5.237638
17.601219 12.337722 4.177975
16.418490 11.026777 4.390175
19.587911 12.036755 5.269129
12.312491 17.086574 5.347082
14.654742 15.627089 4.327572
15.046928 16.374963 2.295681
15.621964 15.801014 3.386485
17.065672 15.427077 3.529074
17.720116 14.757468 2.481046
16.933276 14.235696 1.318947
19.104819 14.566152 2.530952
13.485052 16.096685 3.821381
13.725835 16.557584 2.566599
14.794091 15.188035 5.314351
15.553951 16.641248 1.369431
16.197762 13.514823 1.672917
17.606259 13.750908 0.613253
16.423529 15.061853 0.825454
19.592950 14.051875 1.704407
9.970240 15.627089 6.366592
9.588133 16.374963 1.269041
9.013097 15.801014 0.178236
7.569388 15.427077 0.035647
6.914944 14.757468 1.083675
7.701784 14.235696 2.245775
5.530241 14.566152 1.033769
11.139929 16.096685 6.872783
10.909225 16.557584 0.998122
9.830891 15.188035 5.379813
9.081110 16.641248 2.195291
8.437299 13.514823 1.891805
7.028802 13.750908 2.951468
8.211531 15.061853 2.739267
5.042110 14.051875 1.860314
-0.002520 13.350161 1.782361
24.637580 13.350161 1.782361
22.295329 14.809646 2.801871
21.903143 14.061772 4.833762
21.328107 14.635721 3.742958
19.884399 15.009658 3.600369
19.229955 15.679267 4.648397
20.016795 16.201039 5.810496
17.845251 15.870583 4.598491
23.465019 14.340050 3.308061
23.224236 13.879151 4.562843
22.155980 15.248700 1.815092
21.396120 13.795487 5.760012
20.752309 16.921912 5.456526
19.343812 16.685827 6.516190
20.526542 15.374882 6.303989
17.357121 16.384860 5.425035
2.339731 14.809646 0.762850
2.721838 14.061772 5.860402
3.296874 14.635721 6.951207
4.740583 15.009658 7.093796
5.395027 15.679267 6.045768
4.608187 16.201039 4.883668
6.779730 15.870583 6.095674
1.170042 14.340050 0.256660
1.400746 13.879151 6.131321
2.479080 15.248700 1.749629
3.228861 13.795487 4.934152
3.872672 16.921912 5.237638
5.281169 16.685827 4.177975
4.098440 15.374882 4.390175
7.267861 16.384860 5.269129
-0.007559 12.738469 5.347082
24.632541 12.738469 5.347082
2.334692 11.278984 4.327572
2.726878 12.026858 2.295681
3.301914 11.452909 3.386485
4.745622 11.078972 3.529074
5.400066 10.409363 2.481046
4.613226 9.887591 1.318947
6.784769 10.218047 2.530952
1.165002 11.748580 3.821381
1.405785 12.209479 2.566599
2.474041 10.839930 5.314351
3.233901 12.293143 1.369431
3.877712 9.166718 1.672917
5.286209 9.402803 0.613253
4.103479 10.713748 0.825454
7.272900 9.703770 1.704407
22.290290 11.278984 6.366592
21.908183 12.026858 1.269041
21.333147 11.452909 0.178236
19.889438 11.078972 0.035647
19.234994 10.409363 1.083675
20.021834 9.887591 2.245775
17.850291 10.218047 1.033769
23.459979 11.748580 6.872783
23.229275 12.209479 0.998122
22.150941 10.839930 5.379813
21.401160 12.293143 2.195291
20.757349 9.166718 1.891805
19.348852 9.402803 2.951468
20.531581 10.713748 2.739267
17.362160 9.703770 1.860314
12.307451 9.002056 8.911804
9.965200 10.461541 9.931314
9.573014 9.713667 11.963205
8.997978 10.287616 10.872400
7.554270 10.661553 10.729812
6.899826 11.331162 11.777840
7.686666 11.852934 12.939939
5.515122 11.522478 11.727934
11.134890 9.991945 10.437504
10.894107 9.531046 11.692286
9.825851 10.900595 8.944535
9.065991 9.447382 12.889455
8.422180 12.573807 12.585969
7.013683 12.337722 13.645632
8.196413 11.026777 13.433432
5.026992 12.036755 12.554478
14.649702 10.461541 7.892293
15.031809 9.713667 12.989845
15.606845 10.287616 14.080650
17.050554 10.661553 14.223239
17.704998 11.331162 13.175210
16.918158 11.852934 12.013111
19.089701 11.522478 13.225117
13.480013 9.991945 7.386103
13.710717 9.531046 13.260764
14.789051 10.900595 8.879072
15.538832 9.447382 12.063595
16.182643 12.573807 12.367081
17.591140 12.337722 11.307418
16.408411 11.026777 11.519618
19.577832 12.036755 12.398572
12.302412 17.086574 12.476525
14.644663 15.627089 11.457015
15.036849 16.374963 9.425123
15.611885 15.801014 10.515928
17.055593 15.427077 10.658517
17.710037 14.757468 9.610489
16.923197 14.235696 8.448390
19.094740 14.566152 9.660395
13.474973 16.096685 10.950824
13.715756 16.557584 9.696042
14.784012 15.188035 12.443794
15.543871 16.641248 8.498873
16.187682 13.514823 8.802360
17.596180 13.750908 7.742696
16.413450 15.061853 7.954897
19.582871 14.051875 8.833850
9.960161 15.627089 13.496035
9.578054 16.374963 8.398484
9.003018 15.801014 7.307679
7.559309 15.427077 7.165090
6.904865 14.757468 8.213118
7.691705 14.235696 9.375217
5.520162 14.566152 8.163212
11.129850 16.096685 14.002226
10.899146 16.557584 8.127565
9.820812 15.188035 12.509256
9.071031 16.641248 9.324734
8.427220 13.514823 9.021248
7.018723 13.750908 10.080911
8.201452 15.061853 9.868710
5.032031 14.051875 8.989757
-0.012599 13.350161 8.911804
24.627501 13.350161 8.911804
22.285250 14.809646 9.931314
21.893064 14.061772 11.963205
21.318028 14.635721 10.872400
19.874320 15.009658 10.729812
19.219876 15.679267 11.777840
20.006716 16.201039 12.939939
17.835172 15.870583 11.727934
23.454940 14.340050 10.437504
23.214157 13.879151 11.692286
22.145901 15.248700 8.944535
21.386041 13.795487 12.889455
20.742230 16.921912 12.585969
19.333733 16.685827 13.645632
20.516463 15.374882 13.433432
17.347042 16.384860 12.554478
2.329652 14.809646 7.892293
2.711759 14.061772 12.989845
3.286795 14.635721 14.080650
4.730504 15.009658 14.223239
5.384948 15.679267 13.175210
4.598108 16.201039 12.013111
6.769651 15.870583 13.225117
1.159963 14.340050 7.386103
1.390667 13.879151 13.260764
2.469001 15.248700 8.879072
3.218782 13.795487 12.063595
3.862593 16.921912 12.367081
5.271090 16.685827 11.307418
4.088361 15.374882 11.519618
7.257782 16.384860 12.398572
-0.017638 12.738469 12.476525
24.622462 12.738469 12.476525
2.324613 11.278984 11.457015
2.716799 12.026858 9.425123
3.291835 11.452909 10.515928
4.735543 11.078972 10.658517
5.389987 10.409363 9.610489
4.603147 9.887591 8.448390
6.774690 10.218047 9.660395
1.154923 11.748580 10.950824
1.395706 12.209479 9.696042
2.463962 10.839930 12.443794
3.223821 12.293143 8.498873
3.867632 9.166718 8.802360
5.276130 9.402803 7.742696
4.093400 10.713748 7.954897
7.262821 9.703770 8.833850
22.280211 11.278984 13.496035
21.898104 12.026858 8.398484
21.323068 11.452909 7.307679
19.879359 11.078972 7.165090
19.224915 10.409363 8.213118
20.011755 9.887591 9.375217
17.840212 10.218047 8.163212
23.449900 11.748580 14.002226
23.219196 12.209479 8.127565
22.140862 10.839930 12.509256
21.391081 12.293143 9.324734
20.747270 9.166718 9.021248
19.338773 9.402803 10.080911
20.521502 10.713748 9.868710
17.352081 9.703770 8.989757
12.297372 9.002056 16.041246
9.955121 10.461541 17.060757
9.562935 9.713667 19.092648
8.987899 10.287616 18.001843
7.544191 10.661553 17.859254
6.889747 11.331162 18.907283
7.676587 11.852934 20.069382
5.505043 11.522478 18.857376
11.124811 9.991945 17.566947
10.884028 9.531046 18.821729
9.815772 10.900595 16.073978
9.055912 9.447382 20.018898
8.412101 12.573807 19.715412
7.003604 12.337722 20.775075
8.186333 11.026777 20.562875
5.016913 12.036755 19.683921
14.639623 10.461541 15.021736
15.021730 9.713667 20.119288
15.596766 10.287616 21.210093
17.040475 10.661553 21.352681
17.694919 11.331162 20.304653
16.908079 11.852934 19.142554
19.079622 11.522478 20.354559
13.469934 9.991945 14.515546
13.700638 9.531046 20.390207
14.778972 10.900595 16.008515
15.528753 9.447382 19.193038
16.172564 12.573807 19.496524
17.581061 12.337722 18.436860
16.398332 11.026777 18.649061
19.567753 12.036755 19.528015
12.292333 17.086574 19.605968
14.634583 15.627089 18.586458
15.026770 16.374963 16.554566
15.601806 15.801014 17.645371
17.045514 15.427077 17.787960
17.699958 14.757468 16.739932
16.913118 14.235696 15.577833
19.084661 14.566152 16.789838
13.464894 16.096685 18.080267
13.705677 16.557584 16.825485
14.773933 15.188035 19.573237
15.533792 16.641248 15.628316
16.177603 13.514823 15.931802
17.586101 13.750908 14.872139
16.403371 15.061853 15.084340
19.572792 14.051875 15.963293
9.950082 15.627089 20.625478
9.567975 16.374963 15.527927
8.992939 15.801014 14.437122
7.549230 15.427077 14.294533
6.894786 14.757468 15.342561
7.681626 14.235696 16.504660
5.510083 14.566152 15.292655
11.119771 16.096685 21.131669
10.889067 16.557584 15.257008
9.810733 15.188035 19.638699
9.060952 16.641248 16.454177
8.417141 13.514823 16.150691
7.008644 13.750908 17.210354
8.191373 15.061853 16.998153
5.021952 14.051875 16.119200
-0.022678 13.350161 16.041246
24.617422 13.350161 16.041246
22.275171 14.809646 17.060757
21.882985 14.061772 19.092648
21.307949 14.635721 18.001843
19.864241 15.009658 17.859254
19.209797 15.679267 18.907283
19.996637 16.201039 20.069382
17.825093 15.870583 18.857376
23.444861 14.340050 17.566947
23.204078 13.879151 18.821729
22.135822 15.248700 16.073978
21.375962 13.795487 20.018898
20.732151 16.921912 19.715412
19.323654 16.685827 20.775075
20.506383 15.374882 20.562875
17.336963 16.384860 19.683921
2.319573 14.809646 15.021736
2.701680 14.061772 20.119288
3.276716 14.635721 21.210093
4.720425 15.009658 21.352681
5.374869 15.679267 20.304653
4.588029 16.201039 19.142554
6.759572 15.870583 20.354559
1.149884 14.340050 14.515546
1.380588 13.879151 20.390207
2.458922 15.248700 16.008515
3.208703 13.795487 19.193038
3.852514 16.921912 19.496524
5.261011 16.685827 18.436860
4.078282 15.374882 18.649061
7.247703 16.384860 19.528015
-0.027717 12.738469 19.605968
24.612383 12.738469 19.605968
2.314533 11.278984 18.586458
2.706720 12.026858 16.554566
3.281756 11.452909 17.645371
4.725464 11.078972 17.787960
5.379908 10.409363 16.739932
4.593068 9.887591 15.577833
6.764611 10.218047 16.789838
1.144844 11.748580 18.080267
1.385627 12.209479 16.825485
2.453883 10.839930 19.573237
3.213742 12.293143 15.628316
3.857553 9.166718 15.931802
5.266051 9.402803 14.872139
4.083321 10.713748 15.084340
7.252742 9.703770 15.963293
22.270132 11.278984 20.625478
21.888025 12.026858 15.527927
21.312989 11.452909 14.437122
19.869280 11.078972 14.294533
19.214836 10.409363 15.342561
20.001676 9.887591 16.504660
17.830133 10.218047 15.292655
23.439821 11.748580 21.131669
23.209117 12.209479 15.257008
22.130783 10.839930 19.638699
21.381002 12.293143 16.454177
20.737191 9.166718 16.150691
19.328694 9.402803 17.210354
20.511423 10.713748 16.998153
17.342002 9.703770 16.119200
12.287293 9.002056 23.170689
9.945042 10.461541 24.190200
9.552856 9.713667 26.222091
8.977820 10.287616 25.131286
7.534112 10.661553 24.988697
6.879667 11.331162 26.036725
7.666508 11.852934 27.198825
5.494964 11.522478 25.986819
11.114732 9.991945 24.696390
10.873949 9.531046 25.951172
9.805693 10.900595 23.203421
9.045833 9.447382 27.148341
8.402022 12.573807 26.844855
6.993525 12.337722 27.904518
8.176254 11.026777 27.692317
5.006834 12.036755 26.813364
14.629544 10.461541 22.151179
15.011651 9.713667 27.248731
15.586687 10.287616 28.339535
17.030396 10.661553 28.482124
17.684840 11.331162 27.434096
16.898000 11.852934 26.271997
19.069543 11.522478 27.484002
13.459855 9.991945 21.644989
13.690559 9.531046 27.519649
14.768893 10.900595 23.137958
15.518674 9.447382 26.322481
16.162485 12.573807 26.625967
17.570982 12.337722 25.566303
16.388253 11.026777 25.778504
19.557674 12.036755 26.657457
12.282254 17.086574 26.735411
14.624504 15.627089 25.715900
15.016691 16.374963 23.684009
15.591727 15.801014 24.774814
17.035435 15.427077 24.917403
17.689879 14.757468 23.869375
16.903039 14.235696 22.707276
19.074582 14.566152 23.919281
13.454815 16.096685 25.209710
13.695598 16.557584 23.954928
14.763854 15.188035 26.702680
15.523713 16.641248 22.757759
16.167524 13.514823 23.061245
17.576022 13.750908 22.001582
16.393292 15.061853 22.213783
19.562713 14.051875 23.092736
9.940003 15.627089 27.754921
9.557896 16.374963 22.657369
8.982860 15.801014 21.566565
7.539151 15.427077 21.423976
6.884707 14.757468 22.472004
7.671547 14.235696 23.634103
5.500004 14.566152 22.422098
11.109692 16.096685 28.261112
10.878988 16.557584 22.386451
9.800654 15.188035 26.768142
9.050873 16.641248 23.583620
8.407062 13.514823 23.280133
6.998565 13.750908 24.339797
8.181294 15.061853 24.127596
5.011873 14.051875 23.248643
-0.032757 13.350161 23.170689
24.607343 13.350161 23.170689
22.265092 14.809646 24.190200
21.872906 14.061772 26.222091
21.297870 14.635721 25.131286
19.854162 15.009658 24.988697
19.199717 15.679267 26.036725
19.986558 16.201039 27.198825
17.815014 15.870583 25.986819
23.434782 14.340050 24.696390
23.193999 13.879151 25.951172
22.125743 15.248700 23.203421
21.365883 13.795487 27.148341
20.722072 16.921912 26.844855
19.313575 16.685827 27.904518
20.496304 15.374882 27.692317
17.326884 16.384860 26.813364
2.309494 14.809646 22.151179
2.691601 14.061772 27.248731
3.266637 14.635721 28.339535
4.710346 15.009658 28.482124
5.364790 15.679267 27.434096
4.577950 16.201039 26.271997
6.749493 15.870583 27.484002
1.139805 14.340050 21.644989
1.370509 13.879151 27.519649
2.448843 15.248700 23.137958
3.198624 13.795487 26.322481
3.842435 16.921912 26.625967
5.250932 16.685827 25.566303
4.068203 15.374882 25.778504
7.237624 16.384860 26.657457
-0.037796 12.738469 26.735411
24.602304 12.738469 26.735411
2.304454 11.278984 25.715900
2.696641 12.026858 23.684009
3.271677 11.452909 24.774814
4.715385 11.078972 24.917403
5.369829 10.409363 23.869375
4.582989 9.887591 22.707276
6.754532 10.218047 23.919281
1.134765 11.748580 25.209710
1.375548 12.209479 23.954928
2.443804 10.839930 26.702680
3.203663 12.293143 22.757759
3.847474 9.166718 23.061245
5.255972 9.402803 22.001582
4.073242 10.713748 22.213783
7.242663 9.703770 23.092736
22.260053 11.278984 27.754921
21.877946 12.026858 22.657369
21.302910 11.452909 21.566565
19.859201 11.078972 21.423976
19.204757 10.409363 22.472004
19.991597 9.887591 23.634103
17.820054 10.218047 22.422098
23.429742 11.748580 28.261112
23.199038 12.209479 22.386451
22.120704 10.839930 26.768142
21.370923 12.293143 23.583620
20.727112 9.166718 23.280133
19.318615 9.402803 24.339797
20.501344 10.713748 24.127596
17.331923 9.703770 23.248643
12.317530 17.698266 1.782361
9.975279 19.157751 2.801871
9.583093 18.409877 4.833762
9.008057 18.983826 3.742958
7.564349 19.357763 3.600369
6.909905 20.027372 4.648397
7.696745 20.549144 5.810496
5.525201 20.218688 4.598491
11.144969 18.688155 3.308061
10.904186 18.227256 4.562843
9.835930 19.596805 1.815092
9.076070 18.143592 5.760012
8.432259 21.270017 5.456526
7.023762 21.033932 6.516190
8.206492 19.722987 6.303989
5.037071 20.732965 5.425035
14.659781 19.157751 0.762850
15.041888 18.409877 5.860402
15.616924 18.983826 6.951207
17.060633 19.357763 7.093796
17.715077 20.027372 6.045768
16.928237 20.549144 4.883668
19.099780 20.218688 6.095674
13.490092 18.688155 0.256660
13.720796 18.227256 6.131321
14.799130 19.596805 1.749629
15.548911 18.143592 4.934152
16.192722 21.270017 5.237638
17.601219 21.033932 4.177975
16.418490 19.722987 4.390175
19.587911 20.732965 5.269129
12.312491 25.782784 5.347082
14.654742 24.323299 4.327572
15.046928 25.071173 2.295681
15.621964 24.497224 3.386485
17.065672 24.123287 3.529074
17.720116 23.453678 2.481046
16.933276 22.931906 1.318947
19.104819 23.262362 2.530952
13.485052 24.792895 3.821381
13.725835 25.253794 2.566599
14.794091 23.884245 5.314351
15.553951 25.337458 1.369431
16.197762 22.211033 1.672917
17.606259 22.447118 0.613253
16.423529 23.758063 0.825454
19.592950 22.748085 1.704407
9.970240 24.323299 6.366592
9.588133 25.071173 1.269041
9.013097 24.497224 0.178236
7.569388 24.123287 0.035647
6.914944 23.453678 1.083675
7.701784 22.931906 2.245775
5.530241 23.262362 1.033769
11.139929 24.792895 6.872783
10.909225 25.253794 0.998122
9.830891 23.884245 5.379813
9.081110 25.337458 2.195291
8.437299 22.211033 1.891805
7.028802 22.447118 2.951468
8.211531 23.758063 2.739267
5.042110 22.748085 1.860314
-0.002520 22.046371 1.782361
24.637580 22.046371 1.782361
22.295329 23.505856 2.801871
21.903143 22.757982 4.833762
21.328107 23.331931 3.742958
19.884399 23.705868 3.600369
19.229955 24.375477 4.648397
20.016795 24.897249 5.810496
17.845251 24.566793 4.598491
23.465019 23.036260 3.308061
23.224236 22.575361 4.562843
22.155980 23.944910 1.815092
21.396120 22.491697 5.760012
20.752309 25.618122 5.456526
19.343812 25.382037 6.516190
20.526542 24.071092 6.303989
17.357121 25.081070 5.425035
2.339731 23.505856 0.762850
2.721838 22.757982 5.860402
3.296874 23.331931 6.951207
4.740583 23.705868 7.093796
5.395027 24.375477 6.045768
4.608187 24.897249 4.883668
6.779730 24.566793 6.095674
1.170042 23.036260 0.256660
1.400746 22.575361 6.131321
2.479080 23.944910 1.749629
3.228861 22.491697 4.934152
3.872672 25.618122 5.237638
5.281169 25.382037 4.177975
4.098440 24.071092 4.390175
7.267861 25.081070 5.269129
-0.007559 21.434679 5.347082
24.632541 21.434679 5.347082
2.334692 19.975194 4.327572
2.726878 20.723068 2.295681
3.301914 20.149119 3.386485
4.745622 19.775182 3.529074
5.400066 19.105573 2.481046
4.613226 18.583801 1.318947
6.784769 18.914257 2.530952
1.165002 20.444790 3.821381
1.405785 20.905689 2.566599
2.474041 19.536140 5.314351
3.233901 20.989353 1.369431
3.877712 17.862928 1.672917
5.286209 18.099013 0.613253
4.103479 19.409958 0.825454
7.272900 18.399980 1.704407
22.290290 19.975194 6.366592
21.908183 20.723068 1.269041
21.333147 20.149119 0.178236
19.889438 19.775182 0.035647
19.234994 19.105573 1.083675
20.021834 18.583801 2.245775
17.850291 18.914257 1.033769
23.459979 20.444790 6.872783
23.229275 20.905689 0.998122
22.150941 19.536140 5.379813
21.401160 20.989353 2.195291
20.757349 17.862928 1.891805
19.348852 18.099013 2.951468
20.531581 19.409958 2.739267
17.362160 18.399980 1.860314
12.307451 17.698266 8.911804
9.965200 19.157751 9.931314
9.573014 18.409877 11.963205
8.997978 18.983826 10.872400
7.554270 19.357763 10.729812
6.899826 20.027372 11.777840
7.686666 20.549144 12.939939
5.515122 20.218688 11.727934
11.134890 18.688155 10.437504
10.894107 18.227256 11.692286
9.825851 19.596805 8.944535
9.065991 18.143592 12.889455
8.422180 21.270017 12.585969
7.013683 21.033932 13.645632
8.196413 19.722987 13.433432
5.026992 20.732965 12.554478
14.649702 19.157751 7.892293
15.031809 18.409877 12.989845
15.606845 18.983826 14.080650
17.050554 19.357763 14.223239
17.704998 20.027372 13.175210
16.918158 20.549144 12.013111
19.089701 20.218688 13.225117
13.480013 18.688155 7.386103
13.710717 18.227256 13.260764
14.789051 19.596805 8.879072
15.538832 18.143592 12.063595
16.182643 21.270017 12.367081
17.591140 21.033932 11.307418
16.408411 19.722987 11.519618
19.577832 20.732965 12.398572
12.302412 25.782784 12.476525
14.644663 24.323299 11.457015
15.036849 25.071173 9.425123
15.611885 24.497224 10.515928
17.055593 24.123287 10.658517
17.710037 23.453678 9.610489
16.923197 22.931906 8.448390
19.094740 23.262362 9.660395
13.474973 24.792895 10.950824
13.715756 25.253794 9.696042
14.784012 23.884245 12.443794
15.543871 25.337458 8.498873
16.187682 22.211033 8.802360
17.596180 22.447118 7.742696
16.413450 23.758063 7.954897
19.582871 22.748085 8.833850
9.960161 24.323299 13.496035
9.578054 25.071173 8.398484
9.003018 24.497224 7.307679
7.559309 24.123287 7.165090
6.904865 23.453678 8.213118
7.691705 22.931906 9.375217
5.520162 23.262362 8.163212
11.129850 24.792895 14.002226
10.899146 25.253794 8.127565
9.820812 23.884245 12.509256
9.071031 25.337458 9.324734
8.427220 22.211033 9.021248
7.018723 22.447118 10.080911
8.201452 23.758063 9.868710
5.032031 22.748085 8.989757
-0.012599 22.046371 8.911804
24.627501 22.046371 8.911804
22.285250 23.505856 9.931314
21.893064 22.757982 11.963205
21.318028 23.331931 10.872400
19.874320 23.705868 10.729812
19.219876 24.375477 11.777840
20.006716 24.897249 12.939939
17.835172 24.566793 11.727934
23.454940 23.036260 10.437504
23.214157 22.575361 11.692286
22.145901 23.944910 8.944535
21.386041 22.491697 12.889455
20.742230 25.618122 12.585969
19.333733 25.382037 13.645632
20.516463 24.071092 13.433432
17.347042 25.081070 12.554478
2.329652 23.505856 7.892293
2.711759 22.757982 12.989845
3.286795 23.331931 14.080650
4.730504 23.705868 14.223239
5.384948 24.375477 13.175210
4.598108 24.897249 12.013111
6.769651 24.566793 13.225117
1.159963 23.036260 7.386103
1.390667 22.575361 13.260764
2.469001 23.944910 8.879072
3.218782 22.491697 12.063595
3.862593 25.618122 12.367081
5.271090 25.382037 11.307418
4.088361 24.071092 11.519618
7.257782 25.081070 12.398572
-0.017638 21.434679 12.476525
24.622462 21.434679 12.476525
2.324613 19.975194 11.457015
2.716799 20.723068 9.425123
3.291835 20.149119 10.515928
4.735543 19.775182 10.658517
5.389987 19.105573 9.610489
4.603147 18.583801 8.448390
6.774690 18.914257 9.660395
1.154923 20.444790 10.950824
1.395706 20.905689 9.696042
2.463962 19.536140 12.443794
3.223821 20.989353 8.498873
3.867632 17.862928 8.802360
5.276130 18.099013 7.742696
4.093400 19.409958 7.954897
7.262821 18.399980 8.833850
22.280211 19.975194 13.496035
21.898104 20.723068 8.398484
21.323068 20.149119 7.307679
19.879359 19.775182 7.165090
19.224915 19.105573 8.213118
20.011755 18.583801 9.375217
17.840212 18.914257 8.163212
23.449900 20.444790 14.002226
23.219196 20.905689 8.127565
22.140862 19.536140 12.509256
21.391081 20.989353 9.324734
20.747270 17.862928 9.021248
19.338773 18.099013 10.080911
20.521502 19.409958 9.868710
17.352081 18.399980 8.989757
12.297372 17.698266 16.041246
9.955121 19.157751 17.060757
9.562935 18.409877 19.092648
8.987899 18.983826 18.001843
7.544191 19.357763 17.859254
6.889747 20.027372 18.907283
7.676587 20.549144 20.069382
5.505043 20.218688 18.857376
11.124811 18.688155 17.566947
10.884028 18.227256 18.821729
9.815772 19.596805 16.073978
9.055912 18.143592 20.018898
8.412101 21.270017 19.715412
7.003604 21.033932 20.775075
8.186333 19.722987 20.562875
5.016913 20.732965 19.683921
14.639623 19.157751 15.021736
15.021730 18.409877 20.119288
15.596766 18.983826 21.210093
17.040475 19.357763 21.352681
17.694919 20.027372 20.304653
16.908079 20.549144 19.142554
19.079622 20.218688 20.354559
13.469934 18.688155 14.515546
13.700638 18.227256 20.390207
14.778972 19.596805 16.008515
15.528753 18.143592 19.193038
16.172564 21.270017 19.496524
17.581061 21.033932 18.436860
16.398332 19.722987 18.649061
19.567753 20.732965 19.528015
12.292333 25.782784 19.605968
14.634583 24.323299 18.586458
15.026770 25.071173 16.554566
15.601806 24.497224 17.645371
17.045514 24.123287 17.787960
17.699958 23.453678 16.739932
16.913118 22.931906 15.577833
19.084661 23.262362 16.789838
13.464894 24.792895 18.080267
13.705677 25.253794 16.825485
14.773933 23.884245 19.573237
15.533792 25.337458 15.628316
16.177603 22.211033 15.931802
17.586101 22.447118 14.872139
16.403371 23.758063 15.084340
19.572792 22.748085 15.963293
9.950082 24.323299 20.625478
9.567975 25.071173 15.527927
8.992939 24.497224 14.437122
7.549230 24.123287 14.294533
6.894786 23.453678 15.342561
7.681626 22.931906 16.504660
5.510083 23.262362 15.292655
11.119771 24.792895 21.131669
10.889067 25.253794 15.257008
9.810733 23.884245 19.638699
9.060952 25.337458 16.454177
8.417141 22.211033 16.150691
7.008644 22.447118 17.210354
8.191373 23.758063 16.998153
5.021952 22.748085 16.119200
-0.022678 22.046371 16.041246
24.617422 22.046371 16.041246
22.275171 23.505856 17.060757
21.882985 22.757982 19.092648
21.307949 23.331931 18.001843
19.864241 23.705868 17.859254
19.209797 24.375477 18.907283
19.996637 24.897249 20.069382
17.825093 24.566793 18.857376
23.444861 23.036260 17.566947
23.204078 22.575361 18.821729
22.135822 23.944910 16.073978
21.375962 22.491697 20.018898
20.732151 25.618122 19.715412
19.323654 25.382037 20.775075
20.506383 24.071092 20.562875
17.336963 25.081070 19.683921
2.319573 23.505856 15.021736
2.701680 22.757982 20.119288
3.276716 23.331931 21.210093
4.720425 23.705868 21.352681
5.374869 24.375477 20.304653
4.588029 24.897249 19.142554
6.759572 24.566793 20.354559
1.149884 23.036260 14.515546
1.380588 22.575361 20.390207
2.458922 23.944910 16.008515
3.208703 22.491697 19.193038
3.852514 25.618122 19.496524
5.261011 25.382037 18.436860
4.078282 24.071092 18.649061
7.247703 25.081070 19.528015
-0.027717 21.434679 19.605968
24.612383 21.434679 19.605968
2.314533 19.975194 18.586458
2.706720 20.723068 16.554566
3.281756 20.149119 17.645371
4.725464 19.775182 17.787960
5.379908 19.105573 16.739932
4.593068 18.583801 15.577833
6.764611 18.914257 16.789838
1.144844 20.444790 18.080267
1.385627 20.905689 16.825485
2.453883 19.536140 19.573237
3.213742 20.989353 15.628316
3.857553 17.862928 15.931802
5.266051 18.099013 14.872139
4.083321 19.409958 15.084340
7.252742 18.399980 15.963293
22.270132 19.975194 20.625478
21.888025 20.723068 15.527927
21.312989 20.149119 14.437122
19.869280 19.775182 14.294533
19.214836 19.105573 15.342561
20.001676 18.583801 16.504660
17.830133 18.914257 15.292655
23.439821 20.444790 21.131669
23.209117 20.905689 15.257008
22.130783 19.536140 19.638699
21.381002 20.989353 16.454177
20.737191 17.862928 16.150691
19.328694 18.099013 17.210354
20.511423 19.409958 16.998153
17.342002 18.399980 16.119200
12.287293 17.698266 23.170689
9.945042 19.157751 24.190200
9.552856 18.409877 26.222091
8.977820 18.983826 25.131286
7.534112 19.357763 24.988697
6.879667 20.027372 26.036725
7.666508 20.549144 27.198825
5.494964 20.218688 25.986819
11.114732 18.688155 24.696390
10.873949 18.227256 25.951172
9.805693 19.596805 23.203421
9.045833 18.143592 27.148341
8.402022 21.270017 26.844855
6.993525 21.033932 27.904518
8.176254 19.722987 27.692317
5.006834 20.732965 26.813364
14.629544 19.157751 22.151179
15.011651 18.409877 27.248731
15.586687 18.983826 28.339535
17.030396 19.357763 28.482124
17.684840 20.027372 27.434096
16.898000 20.549144 26.271997
19.069543 20.218688 27.484002
13.459855 18.688155 21.644989
13.690559 18.227256 27.519649
14.768893 19.596805 23.137958
15.518674 18.143592 26.322481
16.162485 21.270017 26.625967
17.570982 21.033932 25.566303
16.388253 19.722987 25.778504
19.557674 20.732965 26.657457
12.282254 25.782784 26.735411
14.624504 24.323299 25.715900
15.016691 25.071173 23.684009
15.591727 24.497224 24.774814
17.035435 24.123287 24.917403
17.689879 23.453678 23.869375
16.903039 22.931906 22.707276
19.074582 23.262362 23.919281
13.454815 24.792895 25.209710
13.695598 25.253794 23.954928
14.763854 23.884245 26.702680
15.523713 25.337458 22.757759
16.167524 22.211033 23.061245
17.576022 22.447118 22.001582
16.393292 23.758063 22.213783
19.562713 22.748085 23.092736
9.940003 24.323299 27.754921
9.557896 25.071173 22.657369
8.982860 24.497224 21.566565
7.539151 24.123287 21.423976
6.884707 23.453678 22.472004
7.671547 22.931906 23.634103
5.500004 23.262362 22.422098
11.109692 24.792895 28.261112
10.878988 25.253794 22.386451
9.800654 23.884245 26.768142
9.050873 25.337458 23.583620
8.407062 22.211033 23.280133
6.998565 22.447118 24.339797
8.181294 23.758063 24.127596
5.011873 22.748085 23.248643
-0.032757 22.046371 23.170689
24.607343 22.046371 23.170689
22.265092 23.505856 24.190200
21.872906 22.757982 26.222091
21.297870 23.331931 25.131286
19.854162 23.705868 24.988697
19.199717 24.375477 26.036725
19.986558 24.897249 27.198825
17.815014 24.566793 25.986819
23.434782 23.036260 24.696390
23.193999 22.575361 25.951172
22.125743 23.944910 23.203421
21.365883 22.491697 27.148341
20.722072 25.618122 26.844855
19.313575 25.382037 27.904518
20.496304 24.071092 27.692317
17.326884 25.081070 26.813364
2.309494 23.505856 22.151179
2.691601 22.757982 27.248731
3.266637 23.331931 28.339535
4.710346 23.705868 28.482124
5.364790 24.375477 27.434096
4.577950 24.897249 26.271997
6.749493 24.566793 27.484002
1.139805 23.036260 21.644989
1.370509 22.575361 27.519649
2.448843 23.944910 23.137958
3.198624 22.491697 26.322481
3.842435 25.618122 26.625967
5.250932 25.382037 25.566303
4.068203 24.071092 25.778504
7.237624 25.081070 26.657457
-0.037796 21.434679 26.735411
24.602304 21.434679 26.735411
2.304454 19.975194 25.715900
2.696641 20.723068 23.684009
3.271677 20.149119 24.774814
4.715385 19.775182 24.917403
5.369829 19.105573 23.869375
4.582989 18.583801 22.707276
6.754532 18.914257 23.919281
1.134765 20.444790 25.209710
1.375548 20.905689 23.954928
2.443804 19.536140 26.702680
3.203663 20.989353 22.757759
3.847474 17.862928 23.061245
5.255972 18.099013 22.001582
4.073242 19.409958 22.213783
7.242663 18.399980 23.092736
22.260053 19.975194 27.754921
21.877946 20.723068 22.657369
21.302910 20.149119 21.566565
19.859201 19.775182 21.423976
19.204757 19.105573 22.472004
19.991597 18.583801 23.634103
17.820054 18.914257 22.422098
23.429742 20.444790 28.261112
23.199038 20.905689 22.386451
22.120704 19.536140 26.768142
21.370923 20.989353 23.583620
20.727112 17.862928 23.280133
19.318615 18.099013 24.339797
20.501344 19.409958 24.127596
17.331923 18.399980 23.248643
POINT_DATA 1512
SCALARS my_scalars float
LOOKUP_TABLE default
2
1.7
1.7
1.7
1.7
1.7
1.7
1.7
1.55
1.55
1.09
1.09
1.09
1.09
1.09
1.09
1.7
1.7
1.7
1.7
1.7
1.7
1.7
1.55
1.55
1.09
1.09
1.09
1.09
1.09
1.09
2
1.7
1.7
1.7
1.7
1.7
1.7
1.7
1.55
1.55
1.09
1.09
1.09
1.09
1.09
1.09
1.7
1.7
1.7
1.7
1.7
1.7
1.7
1.55
1.55
1.09
1.09
1.09
1.09
1.09
1.09
2
2
1.7
1.7
1.7
1.7
1.7
1.7
1.7
1.55
1.55
1.09
1.09
1.09
1.09
1.09
1.09
1.7
1.7
1.7
1.7
1.7
1.7
1.7
1.55
1.55
1.09
1.09
1.09
1.09
1.09
1.09
2
2
1.7
1.7
1.7
1.7
1.7
1.7
1.7
1.55
1.55
1.09
1.09
1.09
1.09
1.09
1.09
1.7
1.7
1.7
1.7
1.7
1.7
1.7
1.55
1.55
1.09
1.09
1.09
1.09
1.09
1.09
2
1.7
1.7
1.7
1.7
1.7
1.7
1.7
1.55
1.55
1.09
1.09
1.09
1.09
1.09
1.09
1.7
1.7
1.7
1.7
1.7
1.7
1.7
1.55
1.55
1.09
1.09
1.09
1.09
1.09
1.09
2
1.7
1.7
1.7
1.7
1.7
1.7
1.7
1.55
1.55
1.09
1.09
1.09
1.09
1.09
1.09
1.7
1.7
1.7
1.7
1.7
1.7
1.7
1.55
1.55
1.09
1.09
1.09
1.09
1.09
1.09
2
2
1.7
1.7
1.7
1.7
1.7
1.7
1.7
1.55
1.55
1.09
1.09
1.09
1.09
1.09
1.09
1.7
1.7
1.7
1.7
1.7
1.7
1.7
1.55
1.55
1.09
1.09
1.09
1.09
1.09
1.09
2
2
1.7
1.7
1.7
1.7
1.7
1.7
1.7
1.55
1.55
1.09
1.09
1.09
1.09
1.09
1.09
1.7
1.7
1.7
1.7
1.7
1.7
1.7
1.55
1.55
1.09
1.09
1.09
1.09
1.09
1.09
2
1.7
1.7
1.7
1.7
1.7
1.7
1.7
1.55
1.55
1.09
1.09
1.09
1.09
1.09
1.09
1.7
1.7
1.7
1.7
1.7
1.7
1.7
1.55
1.55
1.09
1.09
1.09
1.09
1.09
1.09
2
1.7
1.7
1.7
1.7
1.7
1.7
1.7
1.55
1.55
1.09
1.09
1.09
1.09
1.09
1.09
1.7
1.7
1.7
1.7
1.7
1.7
1.7
1.55
1.55
1.09
1.09
1.09
1.09
1.09
1.09
2
2
1.7
1.7
1.7
1.7
1.7
1.7
1.7
1.55
1.55
1.09
1.09
1.09
1.09
1.09
1.09
1.7
1.7
1.7
1.7
1.7
1.7
1.7
1.55
1.55
1.09
1.09
1.09
1.09
1.09
1.09
2
2
1.7
1.7
1.7
1.7
1.7
1.7
1.7
1.55
1.55
1.09
1.09
1.09
1.09
1.09
1.09
1.7
1.7
1.7
1.7
1.7
1.7
1.7
1.55
1.55
1.09
1.09
1.09
1.09
1.09
1.09
2
1.7
1.7
1.7
1.7
1.7
1.7
1.7
1.55
1.55
1.09
1.09
1.09
1.09
1.09
1.09
1.7
1.7
1.7
1.7
1.7
1.7
1.7
1.55
1.55
1.09
1.09
1.09
1.09
1.09
1.09
2
1.7
1.7
1.7
1.7
1.7
1.7
1.7
1.55
1.55
1.09
1.09
1.09
1.09
1.09
1.09
1.7
1.7
1.7
1.7
1.7
1.7
1.7
1.55
1.55
1.09
1.09
1.09
1.09
1.09
1.09
2
2
1.7
1.7
1.7
1.7
1.7
1.7
1.7
1.55
1.55
1.09
1.09
1.09
1.09
1.09
1.09
1.7
1.7
1.7
1.7
1.7
1.7
1.7
1.55
1.55
1.09
1.09
1.09
1.09
1.09
1.09
2
2
1.7
1.7
1.7
1.7
1.7
1.7
1.7
1.55
1.55
1.09
1.09
1.09
1.09
1.09
1.09
1.7
1.7
1.7
1.7
1.7
1.7
1.7
1.55
1.55
1.09
1.09
1.09
1.09
1.09
1.09
2
1.7
1.7
1.7
1.7
1.7
1.7
1.7
1.55
1.55
1.09
1.09
1.09
1.09
1.09
1.09
1.7
1.7
1.7
1.7
1.7
1.7
1.7
1.55
1.55
1.09
1.09
1.09
1.09
1.09
1.09
2
1.7
1.7
1.7
1.7
1.7
1.7
1.7
1.55
1.55
1.09
1.09
1.09
1.09
1.09
1.09
1.7
1.7
1.7
1.7
1.7
1.7
1.7
1.55
1.55
1.09
1.09
1.09
1.09
1.09
1.09
2
2
1.7
1.7
1.7
1.7
1.7
1.7
1.7
1.55
1.55
1.09
1.09
1.09
1.09
1.09
1.09
1.7
1.7
1.7
1.7
1.7
1.7
1.7
1.55
1.55
1.09
1.09
1.09
1.09
1.09
1.09
2
2
1.7
1.7
1.7
1.7
1.7
1.7
1.7
1.55
1.55
1.09
1.09
1.09
1.09
1.09
1.09
1.7
1.7
1.7
1.7
1.7
1.7
1.7
1.55
1.55
1.09
1.09
1.09
1.09
1.09
1.09
2
1.7
1.7
1.7
1.7
1.7
1.7
1.7
1.55
1.55
1.09
1.09
1.09
1.09
1.09
1.09
1.7
1.7
1.7
1.7
1.7
1.7
1.7
1.55
1.55
1.09
1.09
1.09
1.09
1.09
1.09
2
1.7
1.7
1.7
1.7
1.7
1.7
1.7
1.55
1.55
1.09
1.09
1.09
1.09
1.09
1.09
1.7
1.7
1.7
1.7
1.7
1.7
1.7
1.55
1.55
1.09
1.09
1.09
1.09
1.09
1.09
2
2
1.7
1.7
1.7
1.7
1.7
1.7
1.7
1.55
1.55
1.09
1.09
1.09
1.09
1.09
1.09
1.7
1.7
1.7
1.7
1.7
1.7
1.7
1.55
1.55
1.09
1.09
1.09
1.09
1.09
1.09
2
2
1.7
1.7
1.7
1.7
1.7
1.7
1.7
1.55
1.55
1.09
1.09
1.09
1.09
1.09
1.09
1.7
1.7
1.7
1.7
1.7
1.7
1.7
1.55
1.55
1.09
1.09
1.09
1.09
1.09
1.09
2
1.7
1.7
1.7
1.7
1.7
1.7
1.7
1.55
1.55
1.09
1.09
1.09
1.09
1.09
1.09
1.7
1.7
1.7
1.7
1.7
1.7
1.7
1.55
1.55
1.09
1.09
1.09
1.09
1.09
1.09
2
1.7
1.7
1.7
1.7
1.7
1.7
1.7
1.55
1.55
1.09
1.09
1.09
1.09
1.09
1.09
1.7
1.7
1.7
1.7
1.7
1.7
1.7
1.55
1.55
1.09
1.09
1.09
1.09
1.09
1.09
2
2
1.7
1.7
1.7
1.7
1.7
1.7
1.7
1.55
1.55
1.09
1.09
1.09
1.09
1.09
1.09
1.7
1.7
1.7
1.7
1.7
1.7
1.7
1.55
1.55
1.09
1.09
1.09
1.09
1.09
1.09
2
2
1.7
1.7
1.7
1.7
1.7
1.7
1.7
1.55
1.55
1.09
1.09
1.09
1.09
1.09
1.09
1.7
1.7
1.7
1.7
1.7
1.7
1.7
1.55
1.55
1.09
1.09
1.09
1.09
1.09
1.09
2
1.7
1.7
1.7
1.7
1.7
1.7
1.7
1.55
1.55
1.09
1.09
1.09
1.09
1.09
1.09
1.7
1.7
1.7
1.7
1.7
1.7
1.7
1.55
1.55
1.09
1.09
1.09
1.09
1.09
1.09
2
1.7
1.7
1.7
1.7
1.7
1.7
1.7
1.55
1.55
1.09
1.09
1.09
1.09
1.09
1.09
1.7
1.7
1.7
1.7
1.7
1.7
1.7
1.55
1.55
1.09
1.09
1.09
1.09
1.09
1.09
2
2
1.7
1.7
1.7
1.7
1.7
1.7
1.7
1.55
1.55
1.09
1.09
1.09
1.09
1.09
1.09
1.7
1.7
1.7
1.7
1.7
1.7
1.7
1.55
1.55
1.09
1.09
1.09
1.09
1.09
1.09
2
2
1.7
1.7
1.7
1.7
1.7
1.7
1.7
1.55
1.55
1.09
1.09
1.09
1.09
1.09
1.09
1.7
1.7
1.7
1.7
1.7
1.7
1.7
1.55
1.55
1.09
1.09
1.09
1.09
1.09
1.09
2
1.7
1.7
1.7
1.7
1.7
1.7
1.7
1.55
1.55
1.09
1.09
1.09
1.09
1.09
1.09
1.7
1.7
1.7
1.7
1.7
1.7
1.7
1.55
1.55
1.09
1.09
1.09
1.09
1.09
1.09
2
1.7
1.7
1.7
1.7
1.7
1.7
1.7
1.55
1.55
1.09
1.09
1.09
1.09
1.09
1.09
1.7
1.7
1.7
1.7
1.7
1.7
1.7
1.55
1.55
1.09
1.09
1.09
1.09
1.09
1.09
2
2
1.7
1.7
1.7
1.7
1.7
1.7
1.7
1.55
1.55
1.09
1.09
1.09
1.09
1.09
1.09
1.7
1.7
1.7
1.7
1.7
1.7
1.7
1.55
1.55
1.09
1.09
1.09
1.09
1.09
1.09
2
2
1.7
1.7
1.7
1.7
1.7
1.7
1.7
1.55
1.55
1.09
1.09
1.09
1.09
1.09
1.09
1.7
1.7
1.7
1.7
1.7
1.7
1.7
1.55
1.55
1.09
1.09
1.09
1.09
1.09
1.09
2
1.7
1.7
1.7
1.7
1.7
1.7
1.7
1.55
1.55
1.09
1.09
1.09
1.09
1.09
1.09
1.7
1.7
1.7
1.7
1.7
1.7
1.7
1.55
1.55
1.09
1.09
1.09
1.09
1.09
1.09
2
1.7
1.7
1.7
1.7
1.7
1.7
1.7
1.55
1.55
1.09
1.09
1.09
1.09
1.09
1.09
1.7
1.7
1.7
1.7
1.7
1.7
1.7
1.55
1.55
1.09
1.09
1.09
1.09
1.09
1.09
2
2
1.7
1.7
1.7
1.7
1.7
1.7
1.7
1.55
1.55
1.09
1.09
1.09
1.09
1.09
1.09
1.7
1.7
1.7
1.7
1.7
1.7
1.7
1.55
1.55
1.09
1.09
1.09
1.09
1.09
1.09
2
2
1.7
1.7
1.7
1.7
1.7
1.7
1.7
1.55
1.55
1.09
1.09
1.09
1.09
1.09
1.09
1.7
1.7
1.7
1.7
1.7
1.7
1.7
1.55
1.55
1.09
1.09
1.09
1.09
1.09
1.09
2
1.7
1.7
1.7
1.7
1.7
1.7
1.7
1.55
1.55
1.09
1.09
1.09
1.09
1.09
1.09
1.7
1.7
1.7
1.7
1.7
1.7
1.7
1.55
1.55
1.09
1.09
1.09
1.09
1.09
1.09
2
1.7
1.7
1.7
1.7
1.7
1.7
1.7
1.55
1.55
1.09
1.09
1.09
1.09
1.09
1.09
1.7
1.7
1.7
1.7
1.7
1.7
1.7
1.55
1.55
1.09
1.09
1.09
1.09
1.09
1.09
2
2
1.7
1.7
1.7
1.7
1.7
1.7
1.7
1.55
1.55
1.09
1.09
1.09
1.09
1.09
1.09
1.7
1.7
1.7
1.7
1.7
1.7
1.7
1.55
1.55
1.09
1.09
1.09
1.09
1.09
1.09
2
2
1.7
1.7
1.7
1.7
1.7
1.7
1.7
1.55
1.55
1.09
1.09
1.09
1.09
1.09
1.09
1.7
1.7
1.7
1.7
1.7
1.7
1.7
1.55
1.55
1.09
1.09
1.09
1.09
1.09
1.09
2
1.7
1.7
1.7
1.7
1.7
1.7
1.7
1.55
1.55
1.09
1.09
1.09
1.09
1.09
1.09
1.7
1.7
1.7
1.7
1.7
1.7
1.7
1.55
1.55
1.09
1.09
1.09
1.09
1.09
1.09
2
1.7
1.7
1.7
1.7
1.7
1.7
1.7
1.55
1.55
1.09
1.09
1.09
1.09
1.09
1.09
1.7
1.7
1.7
1.7
1.7
1.7
1.7
1.55
1.55
1.09
1.09
1.09
1.09
1.09
1.09
2
2
1.7
1.7
1.7
1.7
1.7
1.7
1.7
1.55
1.55
1.09
1.09
1.09
1.09
1.09
1.09
1.7
1.7
1.7
1.7
1.7
1.7
1.7
1.55
1.55
1.09
1.09
1.09
1.09
1.09
1.09
2
2
1.7
1.7
1.7
1.7
1.7
1.7
1.7
1.55
1.55
1.09
1.09
1.09
1.09
1.09
1.09
1.7
1.7
1.7
1.7
1.7
1.7
1.7
1.55
1.55
1.09
1.09
1.09
1.09
1.09
1.09
VECTORS vectors float
0.4375 0 0
0.3125 0 0
0.3125 0 0
0.3125 0 0
0.3125 0 0
0.3125 0 0
0.3125 0 0
0.3125 0 0
0 0 0
0 0 0
0.25 0 0
0.25 0 0
0.25 0 0
0.25 0 0
0.25 0 0
0.25 0 0
0.3125 0 0
0.3125 0 0
0.3125 0 0
0.3125 0 0
0.3125 0 0
0.3125 0 0
0.3125 0 0
0 0 0
0 0 0
0.25 0 0
0.25 0 0
0.25 0 0
0.25 0 0
0.25 0 0
0.25 0 0
0.4375 0 0
0.3125 0 0
0.3125 0 0
0.3125 0 0
0.3125 0 0
0.3125 0 0
0.3125 0 0
0.3125 0 0
0 0 0
0 0 0
0.25 0 0
0.25 0 0
0.25 0 0
0.25 0 0
0.25 0 0
0.25 0 0
0.3125 0 0
0.3125 0 0
0.3125 0 0
0.3125 0 0
0.3125 0 0
0.3125 0 0
0.3125 0 0
0 0 0
0 0 0
0.25 0 0
0.25 0 0
0.25 0 0
0.25 0 0
0.25 0 0
0.25 0 0
0.4375 0 0
0.4375 0 0
0.3125 0 0
0.3125 0 0
0.3125 0 0
0.3125 0 0
0.3125 0 0
0.3125 0 0
0.3125 0 0
0 0 0
0 0 0
0.25 0 0
0.25 0 0
0.25 0 0
0.25 0 0
0.25 0 0
0.25 0 0
0.3125 0 0
0.3125 0 0
0.3125 0 0
0.3125 0 0
0.3125 0 0
0.3125 0 0
0.3125 0 0
0 0 0
0 0 0
0.25 0 0
0.25 0 0
0.25 0 0
0.25 0 0
0.25 0 0
0.25 0 0
0.4375 0 0
0.4375 0 0
0.3125 0 0
0.3125 0 0
0.3125 0 0
0.3125 0 0
0.3125 0 0
0.3125 0 0
0.3125 0 0
0 0 0
0 0 0
0.25 0 0
0.25 0 0
0.25 0 0
0.25 0 0
0.25 0 0
0.25 0 0
0.3125 0 0
0.3125 0 0
0.3125 0 0
0.3125 0 0
0.3125 0 0
0.3125 0 0
0.3125 0 0
0 0 0
0 0 0
0.25 0 0
0.25 0 0
0.25 0 0
0.25 0 0
0.25 0 0
0.25 0 0
0.4375 0 0
0.3125 0 0
0.3125 0 0
0.3125 0 0
0.3125 0 0
0.3125 0 0
0.3125 0 0
0.3125 0 0
0 0 0
0 0 0
0.25 0 0
0.25 0 0
0.25 0 0
0.25 0 0
0.25 0 0
0.25 0 0
0.3125 0 0
0.3125 0 0
0.3125 0 0
0.3125 0 0
0.3125 0 0
0.3125 0 0
0.3125 0 0
0 0 0
0 0 0
0.25 0 0
0.25 0 0
0.25 0 0
0.25 0 0
0.25 0 0
0.25 0 0
0.4375 0 0
0.3125 0 0
0.3125 0 0
0.3125 0 0
0.3125 0 0
0.3125 0 0
0.3125 0 0
0.3125 0 0
0 0 0
0 0 0
0.25 0 0
0.25 0 0
0.25 0 0
0.25 0 0
0.25 0 0
0.25 0 0
0.3125 0 0
0.3125 0 0
0.3125 0 0
0.3125 0 0
0.3125 0 0
0.3125 0 0
0.3125 0 0
0 0 0
0 0 0
0.25 0 0
0.25 0 0
0.25 0 0
0.25 0 0
0.25 0 0
0.25 0 0
0.4375 0 0
0.4375 0 0
0.3125 0 0
0.3125 0 0
0.3125 0 0
0.3125 0 0
0.3125 0 0
0.3125 0 0
0.3125 0 0
0 0 0
0 0 0
0.25 0 0
0.25 0 0
0.25 0 0
0.25 0 0
0.25 0 0
0.25 0 0
0.3125 0 0
0.3125 0 0
0.3125 0 0
0.3125 0 0
0.3125 0 0
0.3125 0 0
0.3125 0 0
0 0 0
0 0 0
0.25 0 0
0.25 0 0
0.25 0 0
0.25 0 0
0.25 0 0
0.25 0 0
0.4375 0 0
0.4375 0 0
0.3125 0 0
0.3125 0 0
0.3125 0 0
0.3125 0 0
0.3125 0 0
0.3125 0 0
0.3125 0 0
0 0 0
0 0 0
0.25 0 0
0.25 0 0
0.25 0 0
0.25 0 0
0.25 0 0
0.25 0 0
0.3125 0 0
0.3125 0 0
0.3125 0 0
0.3125 0 0
0.3125 0 0
0.3125 0 0
0.3125 0 0
0 0 0
0 0 0
0.25 0 0
0.25 0 0
0.25 0 0
0.25 0 0
0.25 0 0
0.25 0 0
0.4375 0 0
0.3125 0 0
0.3125 0 0
0.3125 0 0
0.3125 0 0
0.3125 0 0
0.3125 0 0
0.3125 0 0
0 0 0
0 0 0
0.25 0 0
0.25 0 0
0.25 0 0
0.25 0 0
0.25 0 0
0.25 0 0
0.3125 0 0
0.3125 0 0
0.3125 0 0
0.3125 0 0
0.3125 0 0
0.3125 0 0
0.3125 0 0
0 0 0
0 0 0
0.25 0 0
0.25 0 0
0.25 0 0
0.25 0 0
0.25 0 0
0.25 0 0
0.4375 0 0
0.3125 0 0
0.3125 0 0
0.3125 0 0
0.3125 0 0
0.3125 0 0
0.3125 0 0
0.3125 0 0
0 0 0
0 0 0
0.25 0 0
0.25 0 0
0.25 0 0
0.25 0 0
0.25 0 0
0.25 0 0
0.3125 0 0
0.3125 0 0
0.3125 0 0
0.3125 0 0
0.3125 0 0
0.3125 0 0
0.3125 0 0
0 0 0
0 0 0
0.25 0 0
0.25 0 0
0.25 0 0
0.25 0 0
0.25 0 0
0.25 0 0
0.4375 0 0
0.4375 0 0
0.3125 0 0
0.3125 0 0
0.3125 0 0
0.3125 0 0
0.3125 0 0
0.3125 0 0
0.3125 0 0
0 0 0
0 0 0
0.25 0 0
0.25 0 0
0.25 0 0
0.25 0 0
0.25 0 0
0.25 0 0
0.3125 0 0
0.3125 0 0
0.3125 0 0
0.3125 0 0
0.3125 0 0
0.3125 0 0
0.3125 0 0
0 0 0
0 0 0
0.25 0 0
0.25 0 0
0.25 0 0
0.25 0 0
0.25 0 0
0.25 0 0
0.4375 0 0
0.4375 0 0
0.3125 0 0
0.3125 0 0
0.3125 0 0
0.3125 0 0
0.3125 0 0
0.3125 0 0
0.3125 0 0
0 0 0
0 0 0
0.25 0 0
0.25 0 0
0.25 0 0
0.25 0 0
0.25 0 0
0.25 0 0
0.3125 0 0
0.3125 0 0
0.3125 0 0
0.3125 0 0
0.3125 0 0
0.3125 0 0
0.3125 0 0
0 0 0
0 0 0
0.25 0 0
0.25 0 0
0.25 0 0
0.25 0 0
0.25 0 0
0.25 0 0
0.4375 0 0
0.3125 0 0
0.3125 0 0
0.3125 0 0
0.3125 0 0
0.3125 0 0
0.3125 0 0
0.3125 0 0
0 0 0
0 0 0
0.25 0 0
0.25 0 0
0.25 0 0
0.25 0 0
0.25 0 0
0.25 0 0
0.3125 0 0
0.3125 0 0
0.3125 0 0
0.3125 0 0
0.3125 0 0
0.3125 0 0
0.3125 0 0
0 0 0
0 0 0
0.25 0 0
0.25 0 0
0.25 0 0
0.25 0 0
0.25 0 0
0.25 0 0
0.4375 0 0
0.3125 0 0
0.3125 0 0
0.3125 0 0
0.3125 0 0
0.3125 0 0
0.3125 0 0
0.3125 0 0
0 0 0
0 0 0
0.25 0 0
0.25 0 0
0.25 0 0
0.25 0 0
0.25 0 0
0.25 0 0
0.3125 0 0
0.3125 0 0
0.3125 0 0
0.3125 0 0
0.3125 0 0
0.3125 0 0
0.3125 0 0
0 0 0
0 0 0
0.25 0 0
0.25 0 0
0.25 0 0
0.25 0 0
0.25 0 0
0.25 0 0
0.4375 0 0
0.4375 0 0
0.3125 0 0
0.3125 0 0
0.3125 0 0
0.3125 0 0
0.3125 0 0
0.3125 0 0
0.3125 0 0
0 0 0
0 0 0
0.25 0 0
0.25 0 0
0.25 0 0
0.25 0 0
0.25 0 0
0.25 0 0
0.3125 0 0
0.3125 0 0
0.3125 0 0
0.3125 0 0
0.3125 0 0
0.3125 0 0
0.3125 0 0
0 0 0
0 0 0
0.25 0 0
0.25 0 0
0.25 0 0
0.25 0 0
0.25 0 0
0.25 0 0
0.4375 0 0
0.4375 0 0
0.3125 0 0
0.3125 0 0
0.3125 0 0
0.3125 0 0
0.3125 0 0
0.3125 0 0
0.3125 0 0
0 0 0
0 0 0
0.25 0 0
0.25 0 0
0.25 0 0
0.25 0 0
0.25 0 0
0.25 0 0
0.3125 0 0
0.3125 0 0
0.3125 0 0
0.3125 0 0
0.3125 0 0
0.3125 0 0
0.3125 0 0
0 0 0
0 0 0
0.25 0 0
0.25 0 0
0.25 0 0
0.25 0 0
0.25 0 0
0.25 0 0
0.4375 0 0
0.3125 0 0
0.3125 0 0
0.3125 0 0
0.3125 0 0
0.3125 0 0
0.3125 0 0
0.3125 0 0
0 0 0
0 0 0
0.25 0 0
0.25 0 0
0.25 0 0
0.25 0 0
0.25 0 0
0.25 0 0
0.3125 0 0
0.3125 0 0
0.3125 0 0
0.3125 0 0
0.3125 0 0
0.3125 0 0
0.3125 0 0
0 0 0
0 0 0
0.25 0 0
0.25 0 0
0.25 0 0
0.25 0 0
0.25 0 0
0.25 0 0
0.4375 0 0
0.3125 0 0
0.3125 0 0
0.3125 0 0
0.3125 0 0
0.3125 0 0
0.3125 0 0
0.3125 0 0
0 0 0
0 0 0
0.25 0 0
0.25 0 0
0.25 0 0
0.25 0 0
0.25 0 0
0.25 0 0
0.3125 0 0
0.3125 0 0
0.3125 0 0
0.3125 0 0
0.3125 0 0
0.3125 0 0
0.3125 0 0
0 0 0
0 0 0
0.25 0 0
0.25 0 0
0.25 0 0
0.25 0 0
0.25 0 0
0.25 0 0
0.4375 0 0
0.4375 0 0
0.3125 0 0
0.3125 0 0
0.3125 0 0
0.3125 0 0
0.3125 0 0
0.3125 0 0
0.3125 0 0
0 0 0
0 0 0
0.25 0 0
0.25 0 0
0.25 0 0
0.25 0 0
0.25 0 0
0.25 0 0
0.3125 0 0
0.3125 0 0
0.3125 0 0
0.3125 0 0
0.3125 0 0
0.3125 0 0
0.3125 0 0
0 0 0
0 0 0
0.25 0 0
0.25 0 0
0.25 0 0
0.25 0 0
0.25 0 0
0.25 0 0
0.4375 0 0
0.4375 0 0
0.3125 0 0
0.3125 0 0
0.3125 0 0
0.3125 0 0
0.3125 0 0
0.3125 0 0
0.3125 0 0
0 0 0
0 0 0
0.25 0 0
0.25 0 0
0.25 0 0
0.25 0 0
0.25 0 0
0.25 0 0
0.3125 0 0
0.3125 0 0
0.3125 0 0
0.3125 0 0
0.3125 0 0
0.3125 0 0
0.3125 0 0
0 0 0
0 0 0
0.25 0 0
0.25 0 0
0.25 0 0
0.25 0 0
0.25 0 0
0.25 0 0
0.4375 0 0
0.3125 0 0
0.3125 0 0
0.3125 0 0
0.3125 0 0
0.3125 0 0
0.3125 0 0
0.3125 0 0
0 0 0
0 0 0
0.25 0 0
0.25 0 0
0.25 0 0
0.25 0 0
0.25 0 0
0.25 0 0
0.3125 0 0
0.3125 0 0
0.3125 0 0
0.3125 0 0
0.3125 0 0
0.3125 0 0
0.3125 0 0
0 0 0
0 0 0
0.25 0 0
0.25 0 0
0.25 0 0
0.25 0 0
0.25 0 0
0.25 0 0
0.4375 0 0
0.3125 0 0
0.3125 0 0
0.3125 0 0
0.3125 0 0
0.3125 0 0
0.3125 0 0
0.3125 0 0
0 0 0
0 0 0
0.25 0 0
0.25 0 0
0.25 0 0
0.25 0 0
0.25 0 0
0.25 0 0
0.3125 0 0
0.3125 0 0
0.3125 0 0
0.3125 0 0
0.3125 0 0
0.3125 0 0
0.3125 0 0
0 0 0
0 0 0
0.25 0 0
0.25 0 0
0.25 0 0
0.25 0 0
0.25 0 0
0.25 0 0
0.4375 0 0
0.4375 0 0
0.3125 0 0
0.3125 0 0
0.3125 0 0
0.3125 0 0
0.3125 0 0
0.3125 0 0
0.3125 0 0
0 0 0
0 0 0
0.25 0 0
0.25 0 0
0.25 0 0
0.25 0 0
0.25 0 0
0.25 0 0
0.3125 0 0
0.3125 0 0
0.3125 0 0
0.3125 0 0
0.3125 0 0
0.3125 0 0
0.3125 0 0
0 0 0
0 0 0
0.25 0 0
0.25 0 0
0.25 0 0
0.25 0 0
0.25 0 0
0.25 0 0
0.4375 0 0
0.4375 0 0
0.3125 0 0
0.3125 0 0
0.3125 0 0
0.3125 0 0
0.3125 0 0
0.3125 0 0
0.3125 0 0
0 0 0
0 0 0
0.25 0 0
0.25 0 0
0.25 0 0
0.25 0 0
0.25 0 0
0.25 0 0
0.3125 0 0
0.3125 0 0
0.3125 0 0
0.3125 0 0
0.3125 0 0
0.3125 0 0
0.3125 0 0
0 0 0
0 0 0
0.25 0 0
0.25 0 0
0.25 0 0
0.25 0 0
0.25 0 0
0.25 0 0
0.4375 0 0
0.3125 0 0
0.3125 0 0
0.3125 0 0
0.3125 0 0
0.3125 0 0
0.3125 0 0
0.3125 0 0
0 0 0
0 0 0
0.25 0 0
0.25 0 0
0.25 0 0
0.25 0 0
0.25 0 0
0.25 0 0
0.3125 0 0
0.3125 0 0
0.3125 0 0
0.3125 0 0
0.3125 0 0
0.3125 0 0
0.3125 0 0
0 0 0
0 0 0
0.25 0 0
0.25 0 0
0.25 0 0
0.25 0 0
0.25 0 0
0.25 0 0
0.4375 0 0
0.3125 0 0
0.3125 0 0
0.3125 0 0
0.3125 0 0
0.3125 0 0
0.3125 0 0
0.3125 0 0
0 0 0
0 0 0
0.25 0 0
0.25 0 0
0.25 0 0
0.25 0 0
0.25 0 0
0.25 0 0
0.3125 0 0
0.3125 0 0
0.3125 0 0
0.3125 0 0
0.3125 0 0
0.3125 0 0
0.3125 0 0
0 0 0
0 0 0
0.25 0 0
0.25 0 0
0.25 0 0
0.25 0 0
0.25 0 0
0.25 0 0
0.4375 0 0
0.4375 0 0
0.3125 0 0
0.3125 0 0
0.3125 0 0
0.3125 0 0
0.3125 0 0
0.3125 0 0
0.3125 0 0
0 0 0
0 0 0
0.25 0 0
0.25 0 0
0.25 0 0
0.25 0 0
0.25 0 0
0.25 0 0
0.3125 0 0
0.3125 0 0
0.3125 0 0
0.3125 0 0
0.3125 0 0
0.3125 0 0
0.3125 0 0
0 0 0
0 0 0
0.25 0 0
0.25 0 0
0.25 0 0
0.25 0 0
0.25 0 0
0.25 0 0
0.4375 0 0
0.4375 0 0
0.3125 0 0
0.3125 0 0
0.3125 0 0
0.3125 0 0
0.3125 0 0
0.3125 0 0
0.3125 0 0
0 0 0
0 0 0
0.25 0 0
0.25 0 0
0.25 0 0
0.25 0 0
0.25 0 0
0.25 0 0
0.3125 0 0
0.3125 0 0
0.3125 0 0
0.3125 0 0
0.3125 0 0
0.3125 0 0
0.3125 0 0
0 0 0
0 0 0
0.25 0 0
0.25 0 0
0.25 0 0
0.25 0 0
0.25 0 0
0.25 0 0
0.4375 0 0
0.3125 0 0
0.3125 0 0
0.3125 0 0
0.3125 0 0
0.3125 0 0
0.3125 0 0
0.3125 0 0
0 0 0
0 0 0
0.25 0 0
0.25 0 0
0.25 0 0
0.25 0 0
0.25 0 0
0.25 0 0
0.3125 0 0
0.3125 0 0
0.3125 0 0
0.3125 0 0
0.3125 0 0
0.3125 0 0
0.3125 0 0
0 0 0
0 0 0
0.25 0 0
0.25 0 0
0.25 0 0
0.25 0 0
0.25 0 0
0.25 0 0
0.4375 0 0
0.3125 0 0
0.3125 0 0
0.3125 0 0
0.3125 0 0
0.3125 0 0
0.3125 0 0
0.3125 0 0
0 0 0
0 0 0
0.25 0 0
0.25 0 0
0.25 0 0
0.25 0 0
0.25 0 0
0.25 0 0
0.3125 0 0
0.3125 0 0
0.3125 0 0
0.3125 0 0
0.3125 0 0
0.3125 0 0
0.3125 0 0
0 0 0
0 0 0
0.25 0 0
0.25 0 0
0.25 0 0
0.25 0 0
0.25 0 0
0.25 0 0
0.4375 0 0
0.4375 0 0
0.3125 0 0
0.3125 0 0
0.3125 0 0
0.3125 0 0
0.3125 0 0
0.3125 0 0
0.3125 0 0
0 0 0
0 0 0
0.25 0 0
0.25 0 0
0.25 0 0
0.25 0 0
0.25 0 0
0.25 0 0
0.3125 0 0
0.3125 0 0
0.3125 0 0
0.3125 0 0
0.3125 0 0
0.3125 0 0
0.3125 0 0
0 0 0
0 0 0
0.25 0 0
0.25 0 0
0.25 0 0
0.25 0 0
0.25 0 0
0.25 0 0
0.4375 0 0
0.4375 0 0
0.3125 0 0
0.3125 0 0
0.3125 0 0
0.3125 0 0
0.3125 0 0
0.3125 0 0
0.3125 0 0
0 0 0
0 0 0
0.25 0 0
0.25 0 0
0.25 0 0
0.25 0 0
0.25 0 0
0.25 0 0
0.3125 0 0
0.3125 0 0
0.3125 0 0
0.3125 0 0
0.3125 0 0
0.3125 0 0
0.3125 0 0
0 0 0
0 0 0
0.25 0 0
0.25 0 0
0.25 0 0
0.25 0 0
0.25 0 0
0.25 0 0
0.4375 0 0
0.3125 0 0
0.3125 0 0
0.3125 0 0
0.3125 0 0
0.3125 0 0
0.3125 0 0
0.3125 0 0
0 0 0
0 0 0
0.25 0 0
0.25 0 0
0.25 0 0
0.25 0 0
0.25 0 0
0.25 0 0
0.3125 0 0
0.3125 0 0
0.3125 0 0
0.3125 0 0
0.3125 0 0
0.3125 0 0
0.3125 0 0
0 0 0
0 0 0
0.25 0 0
0.25 0 0
0.25 0 0
0.25 0 0
0.25 0 0
0.25 0 0
0.4375 0 0
0.3125 0 0
0.3125 0 0
0.3125 0 0
0.3125 0 0
0.3125 0 0
0.3125 0 0
0.3125 0 0
0 0 0
0 0 0
0.25 0 0
0.25 0 0
0.25 0 0
0.25 0 0
0.25 0 0
0.25 0 0
0.3125 0 0
0.3125 0 0
0.3125 0 0
0.3125 0 0
0.3125 0 0
0.3125 0 0
0.3125 0 0
0 0 0
0 0 0
0.25 0 0
0.25 0 0
0.25 0 0
0.25 0 0
0.25 0 0
0.25 0 0
0.4375 0 0
0.4375 0 0
0.3125 0 0
0.3125 0 0
0.3125 0 0
0.3125 0 0
0.3125 0 0
0.3125 0 0
0.3125 0 0
0 0 0
0 0 0
0.25 0 0
0.25 0 0
0.25 0 0
0.25 0 0
0.25 0 0
0.25 0 0
0.3125 0 0
0.3125 0 0
0.3125 0 0
0.3125 0 0
0.3125 0 0
0.3125 0 0
0.3125 0 0
0 0 0
0 0 0
0.25 0 0
0.25 0 0
0.25 0 0
0.25 0 0
0.25 0 0
0.25 0 0
0.4375 0 0
0.4375 0 0
0.3125 0 0
0.3125 0 0
0.3125 0 0
0.3125 0 0
0.3125 0 0
0.3125 0 0
0.3125 0 0
0 0 0
0 0 0
0.25 0 0
0.25 0 0
0.25 0 0
0.25 0 0
0.25 0 0
0.25 0 0
0.3125 0 0
0.3125 0 0
0.3125 0 0
0.3125 0 0
0.3125 0 0
0.3125 0 0
0.3125 0 0
0 0 0
0 0 0
0.25 0 0
0.25 0 0
0.25 0 0
0.25 0 0
0.25 0 0
0.25 0 0
0.4375 0 0
0.3125 0 0
0.3125 0 0
0.3125 0 0
0.3125 0 0
0.3125 0 0
0.3125 0 0
0.3125 0 0
0 0 0
0 0 0
0.25 0 0
0.25 0 0
0.25 0 0
0.25 0 0
0.25 0 0
0.25 0 0
0.3125 0 0
0.3125 0 0
0.3125 0 0
0.3125 0 0
0.3125 0 0
0.3125 0 0
0.3125 0 0
0 0 0
0 0 0
0.25 0 0
0.25 0 0
0.25 0 0
0.25 0 0
0.25 0 0
0.25 0 0
0.4375 0 0
0.3125 0 0
0.3125 0 0
0.3125 0 0
0.3125 0 0
0.3125 0 0
0.3125 0 0
0.3125 0 0
0 0 0
0 0 0
0.25 0 0
0.25 0 0
0.25 0 0
0.25 0 0
0.25 0 0
0.25 0 0
0.3125 0 0
0.3125 0 0
0.3125 0 0
0.3125 0 0
0.3125 0 0
0.3125 0 0
0.3125 0 0
0 0 0
0 0 0
0.25 0 0
0.25 0 0
0.25 0 0
0.25 0 0
0.25 0 0
0.25 0 0
0.4375 0 0
0.4375 0 0
0.3125 0 0
0.3125 0 0
0.3125 0 0
0.3125 0 0
0.3125 0 0
0.3125 0 0
0.3125 0 0
0 0 0
0 0 0
0.25 0 0
0.25 0 0
0.25 0 0
0.25 0 0
0.25 0 0
0.25 0 0
0.3125 0 0
0.3125 0 0
0.3125 0 0
0.3125 0 0
0.3125 0 0
0.3125 0 0
0.3125 0 0
0 0 0
0 0 0
0.25 0 0
0.25 0 0
0.25 0 0
0.25 0 0
0.25 0 0
0.25 0 0
0.4375 0 0
0.4375 0 0
0.3125 0 0
0.3125 0 0
0.3125 0 0
0.3125 0 0
0.3125 0 0
0.3125 0 0
0.3125 0 0
0 0 0
0 0 0
0.25 0 0
0.25 0 0
0.25 0 0
0.25 0 0
0.25 0 0
0.25 0 0
0.3125 0 0
0.3125 0 0
0.3125 0 0
0.3125 0 0
0.3125 0 0
0.3125 0 0
0.3125 0 0
0 0 0
0 0 0
0.25 0 0
0.25 0 0
0.25 0 0
0.25 0 0
0.25 0 0
0.25 0 0
0.4375 0 0
0.3125 0 0
0.3125 0 0
0.3125 0 0
0.3125 0 0
0.3125 0 0
0.3125 0 0
0.3125 0 0
0 0 0
0 0 0
0.25 0 0
0.25 0 0
0.25 0 0
0.25 0 0
0.25 0 0
0.25 0 0
0.3125 0 0
0.3125 0 0
0.3125 0 0
0.3125 0 0
0.3125 0 0
0.3125 0 0
0.3125 0 0
0 0 0
0 0 0
0.25 0 0
0.25 0 0
0.25 0 0
0.25 0 0
0.25 0 0
0.25 0 0
0.4375 0 0
0.3125 0 0
0.3125 0 0
0.3125 0 0
0.3125 0 0
0.3125 0 0
0.3125 0 0
0.3125 0 0
0 0 0
0 0 0
0.25 0 0
0.25 0 0
0.25 0 0
0.25 0 0
0.25 0 0
0.25 0 0
0.3125 0 0
0.3125 0 0
0.3125 0 0
0.3125 0 0
0.3125 0 0
0.3125 0 0
0.3125 0 0
0 0 0
0 0 0
0.25 0 0
0.25 0 0
0.25 0 0
0.25 0 0
0.25 0 0
0.25 0 0
0.4375 0 0
0.4375 0 0
0.3125 0 0
0.3125 0 0
0.3125 0 0
0.3125 0 0
0.3125 0 0
0.3125 0 0
0.3125 0 0
0 0 0
0 0 0
0.25 0 0
0.25 0 0
0.25 0 0
0.25 0 0
0.25 0 0
0.25 0 0
0.3125 0 0
0.3125 0 0
0.3125 0 0
0.3125 0 0
0.3125 0 0
0.3125 0 0
0.3125 0 0
0 0 0
0 0 0
0.25 0 0
0.25 0 0
0.25 0 0
0.25 0 0
0.25 0 0
0.25 0 0
0.4375 0 0
0.4375 0 0
0.3125 0 0
0.3125 0 0
0.3125 0 0
0.3125 0 0
0.3125 0 0
0.3125 0 0
0.3125 0 0
0 0 0
0 0 0
0.25 0 0
0.25 0 0
0.25 0 0
0.25 0 0
0.25 0 0
0.25 0 0
0.3125 0 0
0.3125 0 0
0.3125 0 0
0.3125 0 0
0.3125 0 0
0.3125 0 0
0.3125 0 0
0 0 0
0 0 0
0.25 0 0
0.25 0 0
0.25 0 0
0.25 0 0
0.25 0 0
0.25 0 0
0.4375 0 0
0.3125 0 0
0.3125 0 0
0.3125 0 0
0.3125 0 0
0.3125 0 0
0.3125 0 0
0.3125 0 0
0 0 0
0 0 0
0.25 0 0
0.25 0 0
0.25 0 0
0.25 0 0
0.25 0 0
0.25 0 0
0.3125 0 0
0.3125 0 0
0.3125 0 0
0.3125 0 0
0.3125 0 0
0.3125 0 0
0.3125 0 0
0 0 0
0 0 0
0.25 0 0
0.25 0 0
0.25 0 0
0.25 0 0
0.25 0 0
0.25 0 0
0.4375 0 0
0.3125 0 0
0.3125 0 0
0.3125 0 0
0.3125 0 0
0.3125 0 0
0.3125 0 0
0.3125 0 0
0 0 0
0 0 0
0.25 0 0
0.25 0 0
0.25 0 0
0.25 0 0
0.25 0 0
0.25 0 0
0.3125 0 0
0.3125 0 0
0.3125 0 0
0.3125 0 0
0.3125 0 0
0.3125 0 0
0.3125 0 0
0 0 0
0 0 0
0.25 0 0
0.25 0 0
0.25 0 0
0.25 0 0
0.25 0 0
0.25 0 0
0.4375 0 0
0.4375 0 0
0.3125 0 0
0.3125 0 0
0.3125 0 0
0.3125 0 0
0.3125 0 0
0.3125 0 0
0.3125 0 0
0 0 0
0 0 0
0.25 0 0
0.25 0 0
0.25 0 0
0.25 0 0
0.25 0 0
0.25 0 0
0.3125 0 0
0.3125 0 0
0.3125 0 0
0.3125 0 0
0.3125 0 0
0.3125 0 0
0.3125 0 0
0 0 0
0 0 0
0.25 0 0
0.25 0 0
0.25 0 0
0.25 0 0
0.25 0 0
0.25 0 0
0.4375 0 0
0.4375 0 0
0.3125 0 0
0.3125 0 0
0.3125 0 0
0.3125 0 0
0.3125 0 0
0.3125 0 0
0.3125 0 0
0 0 0
0 0 0
0.25 0 0
0.25 0 0
0.25 0 0
0.25 0 0
0.25 0 0
0.25 0 0
0.3125 0 0
0.3125 0 0
0.3125 0 0
0.3125 0 0
0.3125 0 0
0.3125 0 0
0.3125 0 0
0 0 0
0 0 0
0.25 0 0
0.25 0 0
0.25 0 0
0.25 0 0
0.25 0 0
0.25 0 0
