# vtk DataFile Version 1.0
Cube
ASCII

DATASET POLYDATA
POINTS 144 float
8.557750 4.278875 0.000000
8.557750 4.278875 34.231000
10.077606 5.478672 0.528869
10.813573 6.301927 16.916960
10.467840 5.740539 1.829647
10.071000 5.257437 2.706560
10.700611 6.414889 15.410796
11.407036 7.152276 15.049693
10.920408 5.454453 14.959050
9.695691 6.716619 15.145147
8.557750 8.557750 0.000000
8.557750 8.557750 34.231000
8.557750 8.557750 13.093358
13.367206 3.748295 1.044045
8.557750 8.557750 16.328187
13.367206 3.748295 0.359426
14.000479 3.115021 14.000479
8.557750 7.667744 13.213166
13.418552 3.696948 13.418552
8.557750 4.278875 17.115500
10.077606 5.478672 17.644369
10.813573 6.301927 34.032460
10.467840 5.740539 18.945147
10.071000 5.257437 19.822060
10.700611 6.414889 32.526296
11.407036 7.152276 32.165193
10.920408 5.454453 32.074550
9.695691 6.716619 32.260647
8.557750 8.557750 17.115500
8.557750 8.557750 30.208858
13.367206 3.748295 18.159546
8.557750 8.557750 33.443687
13.367206 3.748295 17.474925
14.000479 3.115021 31.115979
8.557750 7.667744 30.328666
13.418552 3.696948 30.534052
8.557750 21.394375 0.000000
8.557750 21.394375 34.231000
10.077606 22.594172 0.528869
10.813573 23.417427 16.916960
10.467840 22.856039 1.829647
10.071000 22.372937 2.706560
10.700611 23.530389 15.410796
11.407036 24.267776 15.049693
10.920408 22.569953 14.959050
9.695691 23.832119 15.145147
8.557750 25.673250 0.000000
8.557750 25.673250 34.231000
8.557750 25.673250 13.093358
13.367206 20.863795 1.044045
8.557750 25.673250 16.328187
13.367206 20.863795 0.359426
14.000479 20.230521 14.000479
8.557750 24.783244 13.213166
13.418552 20.812448 13.418552
8.557750 21.394375 17.115500
10.077606 22.594172 17.644369
10.813573 23.417427 34.032460
10.467840 22.856039 18.945147
10.071000 22.372937 19.822060
10.700611 23.530389 32.526296
11.407036 24.267776 32.165193
10.920408 22.569953 32.074550
9.695691 23.832119 32.260647
8.557750 25.673250 17.115500
8.557750 25.673250 30.208858
13.367206 20.863795 18.159546
8.557750 25.673250 33.443687
13.367206 20.863795 17.474925
14.000479 20.230521 31.115979
8.557750 24.783244 30.328666
13.418552 20.812448 30.534052
25.673250 4.278875 0.000000
25.673250 4.278875 34.231000
27.193106 5.478672 0.528869
27.929073 6.301927 16.916960
27.583340 5.740539 1.829647
27.186500 5.257437 2.706560
27.816111 6.414889 15.410796
28.522536 7.152276 15.049693
28.035908 5.454453 14.959050
26.811191 6.716619 15.145147
25.673250 8.557750 0.000000
25.673250 8.557750 34.231000
25.673250 8.557750 13.093358
30.482706 3.748295 1.044045
25.673250 8.557750 16.328187
30.482706 3.748295 0.359426
31.115979 3.115021 14.000479
25.673250 7.667744 13.213166
30.534052 3.696948 13.418552
25.673250 4.278875 17.115500
27.193106 5.478672 17.644369
27.929073 6.301927 34.032460
27.583340 5.740539 18.945147
27.186500 5.257437 19.822060
27.816111 6.414889 32.526296
28.522536 7.152276 32.165193
28.035908 5.454453 32.074550
26.811191 6.716619 32.260647
25.673250 8.557750 17.115500
25.673250 8.557750 30.208858
30.482706 3.748295 18.159546
25.673250 8.557750 33.443687
30.482706 3.748295 17.474925
31.115979 3.115021 31.115979
25.673250 7.667744 30.328666
30.534052 3.696948 30.534052
25.673250 21.394375 0.000000
25.673250 21.394375 34.231000
27.193106 22.594172 0.528869
27.929073 23.417427 16.916960
27.583340 22.856039 1.829647
27.186500 22.372937 2.706560
27.816111 23.530389 15.410796
28.522536 24.267776 15.049693
28.035908 22.569953 14.959050
26.811191 23.832119 15.145147
25.673250 25.673250 0.000000
25.673250 25.673250 34.231000
25.673250 25.673250 13.093358
30.482706 20.863795 1.044045
25.673250 25.673250 16.328187
30.482706 20.863795 0.359426
31.115979 20.230521 14.000479
25.673250 24.783244 13.213166
30.534052 20.812448 13.418552
25.673250 21.394375 17.115500
27.193106 22.594172 17.644369
27.929073 23.417427 34.032460
27.583340 22.856039 18.945147
27.186500 22.372937 19.822060
27.816111 23.530389 32.526296
28.522536 24.267776 32.165193
28.035908 22.569953 32.074550
26.811191 23.832119 32.260647
25.673250 25.673250 17.115500
25.673250 25.673250 30.208858
30.482706 20.863795 18.159546
25.673250 25.673250 33.443687
30.482706 20.863795 17.474925
31.115979 20.230521 31.115979
25.673250 24.783244 30.328666
30.534052 20.812448 30.534052
POINT_DATA 144
SCALARS my_scalars float
LOOKUP_TABLE default
2
2
1.55
1.7
1.7
1.09
1.7
1.09
1.09
1.09
1.55
1.55
1.55
1.55
1.55
1.55
1.55
1.55
1.55
2
1.55
1.7
1.7
1.09
1.7
1.09
1.09
1.09
1.55
1.55
1.55
1.55
1.55
1.55
1.55
1.55
2
2
1.55
1.7
1.7
1.09
1.7
1.09
1.09
1.09
1.55
1.55
1.55
1.55
1.55
1.55
1.55
1.55
1.55
2
1.55
1.7
1.7
1.09
1.7
1.09
1.09
1.09
1.55
1.55
1.55
1.55
1.55
1.55
1.55
1.55
2
2
1.55
1.7
1.7
1.09
1.7
1.09
1.09
1.09
1.55
1.55
1.55
1.55
1.55
1.55
1.55
1.55
1.55
2
1.55
1.7
1.7
1.09
1.7
1.09
1.09
1.09
1.55
1.55
1.55
1.55
1.55
1.55
1.55
1.55
2
2
1.55
1.7
1.7
1.09
1.7
1.09
1.09
1.09
1.55
1.55
1.55
1.55
1.55
1.55
1.55
1.55
1.55
2
1.55
1.7
1.7
1.09
1.7
1.09
1.09
1.09
1.55
1.55
1.55
1.55
1.55
1.55
1.55
1.55
VECTORS vectors float
0.4375 0 0
0.4375 0 0
0 0 0
0.3125 0 0
0.3125 0 0
0.25 0 0
0.3125 0 0
0.25 0 0
0.25 0 0
0.25 0 0
0 0 0
0 0 0
0 0 0
0 0 0
0 0 0
0 0 0
0 0 0
0 0 0
0 0 0
0.4375 0 0
0 0 0
0.3125 0 0
0.3125 0 0
0.25 0 0
0.3125 0 0
0.25 0 0
0.25 0 0
0.25 0 0
0 0 0
0 0 0
0 0 0
0 0 0
0 0 0
0 0 0
0 0 0
0 0 0
0.4375 0 0
0.4375 0 0
0 0 0
0.3125 0 0
0.3125 0 0
0.25 0 0
0.3125 0 0
0.25 0 0
0.25 0 0
0.25 0 0
0 0 0
0 0 0
0 0 0
0 0 0
0 0 0
0 0 0
0 0 0
0 0 0
0 0 0
0.4375 0 0
0 0 0
0.3125 0 0
0.3125 0 0
0.25 0 0
0.3125 0 0
0.25 0 0
0.25 0 0
0.25 0 0
0 0 0
0 0 0
0 0 0
0 0 0
0 0 0
0 0 0
0 0 0
0 0 0
0.4375 0 0
0.4375 0 0
0 0 0
0.3125 0 0
0.3125 0 0
0.25 0 0
0.3125 0 0
0.25 0 0
0.25 0 0
0.25 0 0
0 0 0
0 0 0
0 0 0
0 0 0
0 0 0
0 0 0
0 0 0
0 0 0
0 0 0
0.4375 0 0
0 0 0
0.3125 0 0
0.3125 0 0
0.25 0 0
0.3125 0 0
0.25 0 0
0.25 0 0
0.25 0 0
0 0 0
0 0 0
0 0 0
0 0 0
0 0 0
0 0 0
0 0 0
0 0 0
0.4375 0 0
0.4375 0 0
0 0 0
0.3125 0 0
0.3125 0 0
0.25 0 0
0.3125 0 0
0.25 0 0
0.25 0 0
0.25 0 0
0 0 0
0 0 0
0 0 0
0 0 0
0 0 0
0 0 0
0 0 0
0 0 0
0 0 0
0.4375 0 0
0 0 0
0.3125 0 0
0.3125 0 0
0.25 0 0
0.3125 0 0
0.25 0 0
0.25 0 0
0.25 0 0
0 0 0
0 0 0
0 0 0
0 0 0
0 0 0
0 0 0
0 0 0
0 0 0
