# vtk DataFile Version 1.0
Cube
ASCII

DATASET POLYDATA
POINTS 270 float
8.557750 4.278875 0.000000
8.557750 4.278875 34.231000
8.557750 38.509875 0.000000
8.557750 38.509875 34.231000
10.077606 5.478672 0.528869
10.077606 5.478672 34.759869
10.813573 6.301927 16.916960
10.467840 5.740539 1.829647
10.467840 5.740539 36.060647
10.071000 5.257437 2.706560
10.071000 5.257437 36.937560
10.700611 6.414889 15.410796
11.407036 7.152276 15.049693
10.920408 5.454453 14.959050
9.695691 6.716619 15.145147
8.557750 8.557750 0.000000
8.557750 8.557750 34.231000
8.557750 8.557750 13.093358
13.367206 3.748295 1.044045
13.367206 3.748295 35.275045
13.367206 37.979295 1.044045
13.367206 37.979295 35.275045
8.557750 8.557750 16.328187
13.367206 3.748295 0.359426
13.367206 3.748295 34.590426
13.367206 37.979295 0.359426
13.367206 37.979295 34.590426
14.000479 3.115021 14.000479
14.000479 37.346021 14.000479
8.557750 7.667744 13.213166
13.418552 3.696948 13.418552
13.418552 37.927948 13.418552
8.557750 4.278875 17.115500
8.557750 38.509875 17.115500
10.077606 5.478672 17.644369
10.813573 6.301927 -0.198540
10.813573 6.301927 34.032460
10.467840 5.740539 18.945147
10.071000 5.257437 19.822060
10.700611 6.414889 -1.704704
10.700611 6.414889 32.526296
11.407036 7.152276 -2.065807
11.407036 7.152276 32.165193
10.920408 5.454453 -2.156450
10.920408 5.454453 32.074550
9.695691 6.716619 -1.970353
9.695691 6.716619 32.260647
8.557750 8.557750 17.115500
8.557750 8.557750 -4.022142
8.557750 8.557750 30.208858
13.367206 3.748295 18.159546
13.367206 37.979295 18.159546
8.557750 8.557750 -0.787313
8.557750 8.557750 33.443687
13.367206 3.748295 17.474925
13.367206 37.979295 17.474925
14.000479 3.115021 -3.115021
14.000479 3.115021 31.115979
14.000479 37.346021 -3.115021
14.000479 37.346021 31.115979
8.557750 7.667744 -3.902334
8.557750 7.667744 30.328666
13.418552 3.696948 -3.696948
13.418552 3.696948 30.534052
13.418552 37.927948 -3.696948
13.418552 37.927948 30.534052
8.557750 21.394375 0.000000
8.557750 21.394375 34.231000
10.077606 22.594172 0.528869
10.077606 22.594172 34.759869
10.813573 23.417427 16.916960
10.467840 22.856039 1.829647
10.467840 22.856039 36.060647
10.071000 22.372937 2.706560
10.071000 22.372937 36.937560
10.700611 23.530389 15.410796
11.407036 24.267776 15.049693
10.920408 22.569953 14.959050
9.695691 23.832119 15.145147
8.557750 25.673250 0.000000
8.557750 25.673250 34.231000
8.557750 25.673250 13.093358
13.367206 20.863795 1.044045
13.367206 20.863795 35.275045
8.557750 25.673250 16.328187
13.367206 20.863795 0.359426
13.367206 20.863795 34.590426
14.000479 20.230521 14.000479
8.557750 24.783244 13.213166
13.418552 20.812448 13.418552
8.557750 21.394375 17.115500
10.077606 22.594172 17.644369
10.813573 23.417427 -0.198540
10.813573 23.417427 34.032460
10.467840 22.856039 18.945147
10.071000 22.372937 19.822060
10.700611 23.530389 -1.704704
10.700611 23.530389 32.526296
11.407036 24.267776 -2.065807
11.407036 24.267776 32.165193
10.920408 22.569953 -2.156450
10.920408 22.569953 32.074550
9.695691 23.832119 -1.970353
9.695691 23.832119 32.260647
8.557750 25.673250 17.115500
8.557750 25.673250 -4.022142
8.557750 25.673250 30.208858
13.367206 20.863795 18.159546
8.557750 25.673250 -0.787313
8.557750 25.673250 33.443687
13.367206 20.863795 17.474925
14.000479 20.230521 -3.115021
14.000479 20.230521 31.115979
8.557750 24.783244 -3.902334
8.557750 24.783244 30.328666
13.418552 20.812448 -3.696948
13.418552 20.812448 30.534052
25.673250 4.278875 0.000000
25.673250 4.278875 34.231000
25.673250 38.509875 0.000000
25.673250 38.509875 34.231000
27.193106 5.478672 0.528869
27.193106 5.478672 34.759869
27.929073 6.301927 16.916960
27.583340 5.740539 1.829647
27.583340 5.740539 36.060647
27.186500 5.257437 2.706560
27.186500 5.257437 36.937560
27.816111 6.414889 15.410796
28.522536 7.152276 15.049693
28.035908 5.454453 14.959050
26.811191 6.716619 15.145147
25.673250 8.557750 0.000000
25.673250 8.557750 34.231000
25.673250 8.557750 13.093358
-3.748294 3.748295 1.044045
-3.748294 3.748295 35.275045
-3.748294 37.979295 1.044045
-3.748294 37.979295 35.275045
30.482706 3.748295 1.044045
30.482706 3.748295 35.275045
30.482706 37.979295 1.044045
30.482706 37.979295 35.275045
25.673250 8.557750 16.328187
-3.748294 3.748295 0.359426
-3.748294 3.748295 34.590426
-3.748294 37.979295 0.359426
-3.748294 37.979295 34.590426
30.482706 3.748295 0.359426
30.482706 3.748295 34.590426
30.482706 37.979295 0.359426
30.482706 37.979295 34.590426
-3.115021 3.115021 14.000479
-3.115021 37.346021 14.000479
31.115979 3.115021 14.000479
31.115979 37.346021 14.000479
25.673250 7.667744 13.213166
-3.696948 3.696948 13.418552
-3.696948 37.927948 13.418552
30.534052 3.696948 13.418552
30.534052 37.927948 13.418552
25.673250 4.278875 17.115500
25.673250 38.509875 17.115500
27.193106 5.478672 17.644369
27.929073 6.301927 -0.198540
27.929073 6.301927 34.032460
27.583340 5.740539 18.945147
27.186500 5.257437 19.822060
27.816111 6.414889 -1.704704
27.816111 6.414889 32.526296
28.522536 7.152276 -2.065807
28.522536 7.152276 32.165193
28.035908 5.454453 -2.156450
28.035908 5.454453 32.074550
26.811191 6.716619 -1.970353
26.811191 6.716619 32.260647
25.673250 8.557750 17.115500
25.673250 8.557750 -4.022142
25.673250 8.557750 30.208858
-3.748294 3.748295 18.159546
-3.748294 37.979295 18.159546
30.482706 3.748295 18.159546
30.482706 37.979295 18.159546
25.673250 8.557750 -0.787313
25.673250 8.557750 33.443687
-3.748294 3.748295 17.474925
-3.748294 37.979295 17.474925
30.482706 3.748295 17.474925
30.482706 37.979295 17.474925
-3.115021 3.115021 -3.115021
-3.115021 3.115021 31.115979
-3.115021 37.346021 -3.115021
-3.115021 37.346021 31.115979
31.115979 3.115021 -3.115021
31.115979 3.115021 31.115979
31.115979 37.346021 -3.115021
31.115979 37.346021 31.115979
25.673250 7.667744 -3.902334
25.673250 7.667744 30.328666
-3.696948 3.696948 -3.696948
-3.696948 3.696948 30.534052
-3.696948 37.927948 -3.696948
-3.696948 37.927948 30.534052
30.534052 3.696948 -3.696948
30.534052 3.696948 30.534052
30.534052 37.927948 -3.696948
30.534052 37.927948 30.534052
25.673250 21.394375 0.000000
25.673250 21.394375 34.231000
27.193106 22.594172 0.528869
27.193106 22.594172 34.759869
27.929073 23.417427 16.916960
27.583340 22.856039 1.829647
27.583340 22.856039 36.060647
27.186500 22.372937 2.706560
27.186500 22.372937 36.937560
27.816111 23.530389 15.410796
28.522536 24.267776 15.049693
28.035908 22.569953 14.959050
26.811191 23.832119 15.145147
25.673250 25.673250 0.000000
25.673250 25.673250 34.231000
25.673250 25.673250 13.093358
-3.748294 20.863795 1.044045
-3.748294 20.863795 35.275045
30.482706 20.863795 1.044045
30.482706 20.863795 35.275045
25.673250 25.673250 16.328187
-3.748294 20.863795 0.359426
-3.748294 20.863795 34.590426
30.482706 20.863795 0.359426
30.482706 20.863795 34.590426
-3.115021 20.230521 14.000479
31.115979 20.230521 14.000479
25.673250 24.783244 13.213166
-3.696948 20.812448 13.418552
30.534052 20.812448 13.418552
25.673250 21.394375 17.115500
27.193106 22.594172 17.644369
27.929073 23.417427 -0.198540
27.929073 23.417427 34.032460
27.583340 22.856039 18.945147
27.186500 22.372937 19.822060
27.816111 23.530389 -1.704704
27.816111 23.530389 32.526296
28.522536 24.267776 -2.065807
28.522536 24.267776 32.165193
28.035908 22.569953 -2.156450
28.035908 22.569953 32.074550
26.811191 23.832119 -1.970353
26.811191 23.832119 32.260647
25.673250 25.673250 17.115500
25.673250 25.673250 -4.022142
25.673250 25.673250 30.208858
-3.748294 20.863795 18.159546
30.482706 20.863795 18.159546
25.673250 25.673250 -0.787313
25.673250 25.673250 33.443687
-3.748294 20.863795 17.474925
30.482706 20.863795 17.474925
-3.115021 20.230521 -3.115021
-3.115021 20.230521 31.115979
31.115979 20.230521 -3.115021
31.115979 20.230521 31.115979
25.673250 24.783244 -3.902334
25.673250 24.783244 30.328666
-3.696948 20.812448 -3.696948
-3.696948 20.812448 30.534052
30.534052 20.812448 -3.696948
30.534052 20.812448 30.534052
LINES 174 522
2 0 4
2 1 5
2 4 7
2 4 35
2 5 8
2 5 36
2 6 11
2 6 34
2 7 9
2 8 10
2 11 12
2 11 13
2 11 14
2 15 52
2 16 53
2 17 29
2 18 23
2 19 24
2 20 25
2 21 26
2 22 47
2 27 30
2 28 31
2 32 34
2 34 37
2 35 39
2 36 40
2 37 38
2 39 41
2 39 43
2 39 45
2 40 42
2 40 44
2 40 46
2 48 60
2 49 61
2 50 54
2 51 55
2 56 62
2 57 63
2 58 64
2 59 65
2 66 68
2 67 69
2 68 71
2 68 92
2 69 72
2 69 93
2 70 75
2 70 91
2 71 73
2 72 74
2 75 76
2 75 77
2 75 78
2 79 108
2 80 109
2 81 88
2 82 85
2 83 86
2 84 104
2 87 89
2 90 91
2 91 94
2 92 96
2 93 97
2 94 95
2 96 98
2 96 100
2 96 102
2 97 99
2 97 101
2 97 103
2 105 113
2 106 114
2 107 110
2 111 115
2 112 116
2 117 121
2 118 122
2 121 124
2 121 164
2 122 125
2 122 165
2 123 128
2 123 163
2 124 126
2 125 127
2 128 129
2 128 130
2 128 131
2 132 183
2 133 184
2 134 156
2 135 144
2 136 145
2 137 146
2 138 147
2 139 148
2 140 149
2 141 150
2 142 151
2 143 176
2 152 157
2 153 158
2 154 159
2 155 160
2 161 163
2 163 166
2 164 168
2 165 169
2 166 167
2 168 170
2 168 172
2 168 174
2 169 171
2 169 173
2 169 175
2 177 197
2 178 198
2 179 185
2 180 186
2 181 187
2 182 188
2 189 199
2 190 200
2 191 201
2 192 202
2 193 203
2 194 204
2 195 205
2 196 206
2 207 209
2 208 210
2 209 212
2 209 239
2 210 213
2 210 240
2 211 216
2 211 238
2 212 214
2 213 215
2 216 217
2 216 218
2 216 219
2 220 256
2 221 257
2 222 234
2 223 228
2 224 229
2 225 230
2 226 231
2 227 251
2 232 235
2 233 236
2 237 238
2 238 241
2 239 243
2 240 244
2 241 242
2 243 245
2 243 247
2 243 249
2 244 246
2 244 248
2 244 250
2 252 264
2 253 265
2 254 258
2 255 259
2 260 266
2 261 267
2 262 268
2 263 269
