# vtk DataFile Version 1.0
Cube
ASCII

DATASET POLYDATA
POINTS 342 float
7.946208 1.278634 8.080181
16.470839 5.110672 4.998616
16.037378 5.301600 8.464798
17.458793 6.670895 5.985798
15.351380 4.332051 6.569726
9.429699 2.730860 8.320432
13.742601 4.791428 9.692986
10.852042 2.097009 6.702241
15.152469 4.648977 7.772057
11.626962 3.442010 8.419549
13.904047 4.291193 8.418472
12.896412 3.618693 7.762361
13.033077 3.282542 6.905862
11.484393 3.975372 9.674671
10.678792 3.897300 10.131901
12.585532 4.648977 10.268295
14.525135 5.009322 0.344744
10.538874 2.713191 7.737582
17.198601 7.409652 5.429882
5.891818 1.278634 18.853757
14.416449 5.110672 15.772191
13.982988 5.301600 19.238373
15.404403 6.670895 16.759374
13.296991 4.332051 17.343302
7.375309 2.730860 19.094008
11.688211 4.791428 20.466561
8.797652 2.097009 17.475817
13.098079 4.648977 18.545633
9.572572 3.442010 19.193124
11.849657 4.291193 19.192047
10.842022 3.618693 18.535936
10.978687 3.282542 17.679437
9.430003 3.975372 20.448246
8.624402 3.897300 20.905477
10.531142 4.648977 21.041870
12.470745 5.009322 11.118319
8.484484 2.713191 18.511157
15.144212 7.409652 16.203457
3.837428 1.278634 29.627332
12.362059 5.110672 26.545766
11.928598 5.301600 30.011949
13.350013 6.670895 27.532949
11.242601 4.332051 28.116877
5.320919 2.730860 29.867583
9.633821 4.791428 31.240136
6.743262 2.097009 28.249392
11.043689 4.648977 29.319208
7.518182 3.442010 29.966700
9.795268 4.291193 29.965622
8.787632 3.618693 29.309512
8.924298 3.282542 28.453012
7.375613 3.975372 31.221821
6.570012 3.897300 31.679052
8.476752 4.648977 31.815445
10.416355 5.009322 21.891894
6.430094 2.713191 29.284732
13.089822 7.409652 26.977033
7.946208 12.321334 8.080181
16.470839 16.153372 4.998616
16.037378 16.344300 8.464798
17.458793 17.713595 5.985798
15.351380 15.374751 6.569726
9.429699 13.773560 8.320432
13.742601 15.834128 9.692986
10.852042 13.139709 6.702241
15.152469 15.691677 7.772057
11.626962 14.484710 8.419549
13.904047 15.333893 8.418472
12.896412 14.661393 7.762361
13.033077 14.325242 6.905862
11.484393 15.018072 9.674671
10.678792 14.940000 10.131901
12.585532 15.691677 10.268295
14.525135 16.052022 0.344744
10.538874 13.755891 7.737582
17.198601 18.452352 5.429882
5.891818 12.321334 18.853757
14.416449 16.153372 15.772191
13.982988 16.344300 19.238373
15.404403 17.713595 16.759374
13.296991 15.374751 17.343302
7.375309 13.773560 19.094008
11.688211 15.834128 20.466561
8.797652 13.139709 17.475817
13.098079 15.691677 18.545633
9.572572 14.484710 19.193124
11.849657 15.333893 19.192047
10.842022 14.661393 18.535936
10.978687 14.325242 17.679437
9.430003 15.018072 20.448246
8.624402 14.940000 20.905477
10.531142 15.691677 21.041870
12.470745 16.052022 11.118319
8.484484 13.755891 18.511157
15.144212 18.452352 16.203457
3.837428 12.321334 29.627332
12.362059 16.153372 26.545766
11.928598 16.344300 30.011949
13.350013 17.713595 27.532949
11.242601 15.374751 28.116877
5.320919 13.773560 29.867583
9.633821 15.834128 31.240136
6.743262 13.139709 28.249392
11.043689 15.691677 29.319208
7.518182 14.484710 29.966700
9.795268 15.333893 29.965622
8.787632 14.661393 29.309512
8.924298 14.325242 28.453012
7.375613 15.018072 31.221821
6.570012 14.940000 31.679052
8.476752 15.691677 31.815445
10.416355 16.052022 21.891894
6.430094 13.755891 29.284732
13.089822 18.452352 26.977033
7.946208 23.364034 8.080181
16.470839 27.196072 4.998616
16.037378 27.387000 8.464798
17.458793 28.756295 5.985798
15.351380 26.417451 6.569726
9.429699 24.816260 8.320432
13.742601 26.876828 9.692986
10.852042 24.182409 6.702241
15.152469 26.734377 7.772057
11.626962 25.527410 8.419549
13.904047 26.376593 8.418472
12.896412 25.704093 7.762361
13.033077 25.367942 6.905862
11.484393 26.060772 9.674671
10.678792 25.982700 10.131901
12.585532 26.734377 10.268295
14.525135 27.094722 0.344744
10.538874 24.798591 7.737582
17.198601 29.495052 5.429882
5.891818 23.364034 18.853757
14.416449 27.196072 15.772191
13.982988 27.387000 19.238373
15.404403 28.756295 16.759374
13.296991 26.417451 17.343302
7.375309 24.816260 19.094008
11.688211 26.876828 20.466561
8.797652 24.182409 17.475817
13.098079 26.734377 18.545633
9.572572 25.527410 19.193124
11.849657 26.376593 19.192047
10.842022 25.704093 18.535936
10.978687 25.367942 17.679437
9.430003 26.060772 20.448246
8.624402 25.982700 20.905477
10.531142 26.734377 21.041870
12.470745 27.094722 11.118319
8.484484 24.798591 18.511157
15.144212 29.495052 16.203457
3.837428 23.364034 29.627332
12.362059 27.196072 26.545766
11.928598 27.387000 30.011949
13.350013 28.756295 27.532949
11.242601 26.417451 28.116877
5.320919 24.816260 29.867583
9.633821 26.876828 31.240136
6.743262 24.182409 28.249392
11.043689 26.734377 29.319208
7.518182 25.527410 29.966700
9.795268 26.376593 29.965622
8.787632 25.704093 29.309512
8.924298 25.367942 28.453012
7.375613 26.060772 31.221821
6.570012 25.982700 31.679052
8.476752 26.734377 31.815445
10.416355 27.094722 21.891894
6.430094 24.798591 29.284732
13.089822 29.495052 26.977033
26.920208 1.278634 8.080181
35.444839 5.110672 4.998616
35.011378 5.301600 8.464798
36.432793 6.670895 5.985798
34.325380 4.332051 6.569726
28.403699 2.730860 8.320432
32.716601 4.791428 9.692986
29.826042 2.097009 6.702241
34.126469 4.648977 7.772057
30.600962 3.442010 8.419549
32.878047 4.291193 8.418472
31.870412 3.618693 7.762361
32.007077 3.282542 6.905862
30.458393 3.975372 9.674671
29.652792 3.897300 10.131901
31.559532 4.648977 10.268295
33.499135 5.009322 0.344744
29.512874 2.713191 7.737582
36.172601 7.409652 5.429882
24.865818 1.278634 18.853757
33.390449 5.110672 15.772191
32.956988 5.301600 19.238373
34.378403 6.670895 16.759374
32.270991 4.332051 17.343302
26.349309 2.730860 19.094008
30.662211 4.791428 20.466561
27.771652 2.097009 17.475817
32.072079 4.648977 18.545633
28.546572 3.442010 19.193124
30.823657 4.291193 19.192047
29.816022 3.618693 18.535936
29.952687 3.282542 17.679437
28.404003 3.975372 20.448246
27.598402 3.897300 20.905477
29.505142 4.648977 21.041870
31.444745 5.009322 11.118319
27.458484 2.713191 18.511157
34.118212 7.409652 16.203457
22.811428 1.278634 29.627332
31.336059 5.110672 26.545766
30.902598 5.301600 30.011949
32.324013 6.670895 27.532949
30.216601 4.332051 28.116877
24.294919 2.730860 29.867583
28.607821 4.791428 31.240136
25.717262 2.097009 28.249392
30.017689 4.648977 29.319208
26.492182 3.442010 29.966700
28.769268 4.291193 29.965622
27.761632 3.618693 29.309512
27.898298 3.282542 28.453012
26.349613 3.975372 31.221821
25.544012 3.897300 31.679052
27.450752 4.648977 31.815445
29.390355 5.009322 21.891894
25.404094 2.713191 29.284732
32.063822 7.409652 26.977033
26.920208 12.321334 8.080181
35.444839 16.153372 4.998616
35.011378 16.344300 8.464798
36.432793 17.713595 5.985798
34.325380 15.374751 6.569726
28.403699 13.773560 8.320432
32.716601 15.834128 9.692986
29.826042 13.139709 6.702241
34.126469 15.691677 7.772057
30.600962 14.484710 8.419549
32.878047 15.333893 8.418472
31.870412 14.661393 7.762361
32.007077 14.325242 6.905862
30.458393 15.018072 9.674671
29.652792 14.940000 10.131901
31.559532 15.691677 10.268295
33.499135 16.052022 0.344744
29.512874 13.755891 7.737582
36.172601 18.452352 5.429882
24.865818 12.321334 18.853757
33.390449 16.153372 15.772191
32.956988 16.344300 19.238373
34.378403 17.713595 16.759374
32.270991 15.374751 17.343302
26.349309 13.773560 19.094008
30.662211 15.834128 20.466561
27.771652 13.139709 17.475817
32.072079 15.691677 18.545633
28.546572 14.484710 19.193124
30.823657 15.333893 19.192047
29.816022 14.661393 18.535936
29.952687 14.325242 17.679437
28.404003 15.018072 20.448246
27.598402 14.940000 20.905477
29.505142 15.691677 21.041870
31.444745 16.052022 11.118319
27.458484 13.755891 18.511157
34.118212 18.452352 16.203457
22.811428 12.321334 29.627332
31.336059 16.153372 26.545766
30.902598 16.344300 30.011949
32.324013 17.713595 27.532949
30.216601 15.374751 28.116877
24.294919 13.773560 29.867583
28.607821 15.834128 31.240136
25.717262 13.139709 28.249392
30.017689 15.691677 29.319208
26.492182 14.484710 29.966700
28.769268 15.333893 29.965622
27.761632 14.661393 29.309512
27.898298 14.325242 28.453012
26.349613 15.018072 31.221821
25.544012 14.940000 31.679052
27.450752 15.691677 31.815445
29.390355 16.052022 21.891894
25.404094 13.755891 29.284732
32.063822 18.452352 26.977033
26.920208 23.364034 8.080181
35.444839 27.196072 4.998616
35.011378 27.387000 8.464798
36.432793 28.756295 5.985798
34.325380 26.417451 6.569726
28.403699 24.816260 8.320432
32.716601 26.876828 9.692986
29.826042 24.182409 6.702241
34.126469 26.734377 7.772057
30.600962 25.527410 8.419549
32.878047 26.376593 8.418472
31.870412 25.704093 7.762361
32.007077 25.367942 6.905862
30.458393 26.060772 9.674671
29.652792 25.982700 10.131901
31.559532 26.734377 10.268295
33.499135 27.094722 0.344744
29.512874 24.798591 7.737582
36.172601 29.495052 5.429882
24.865818 23.364034 18.853757
33.390449 27.196072 15.772191
32.956988 27.387000 19.238373
34.378403 28.756295 16.759374
32.270991 26.417451 17.343302
26.349309 24.816260 19.094008
30.662211 26.876828 20.466561
27.771652 24.182409 17.475817
32.072079 26.734377 18.545633
28.546572 25.527410 19.193124
30.823657 26.376593 19.192047
29.816022 25.704093 18.535936
29.952687 25.367942 17.679437
28.404003 26.060772 20.448246
27.598402 25.982700 20.905477
29.505142 26.734377 21.041870
31.444745 27.094722 11.118319
27.458484 24.798591 18.511157
34.118212 29.495052 16.203457
22.811428 23.364034 29.627332
31.336059 27.196072 26.545766
30.902598 27.387000 30.011949
32.324013 28.756295 27.532949
30.216601 26.417451 28.116877
24.294919 24.816260 29.867583
28.607821 26.876828 31.240136
25.717262 24.182409 28.249392
30.017689 26.734377 29.319208
26.492182 25.527410 29.966700
28.769268 26.376593 29.965622
27.761632 25.704093 29.309512
27.898298 25.367942 28.453012
26.349613 26.060772 31.221821
25.544012 25.982700 31.679052
27.450752 26.734377 31.815445
29.390355 27.094722 21.891894
25.404094 24.798591 29.284732
32.063822 29.495052 26.977033
POINT_DATA 342
SCALARS my_scalars float
LOOKUP_TABLE default
2
2
1.52
1.52
1.52
1.52
1.55
1.52
1.7
1.7
1.7
1.7
1.09
1.7
1.09
1.7
1.09
1.7
1.09
2
2
1.52
1.52
1.52
1.52
1.55
1.52
1.7
1.7
1.7
1.7
1.09
1.7
1.09
1.7
1.09
1.7
1.09
2
2
1.52
1.52
1.52
1.52
1.55
1.52
1.7
1.7
1.7
1.7
1.09
1.7
1.09
1.7
1.09
1.7
1.09
2
2
1.52
1.52
1.52
1.52
1.55
1.52
1.7
1.7
1.7
1.7
1.09
1.7
1.09
1.7
1.09
1.7
1.09
2
2
1.52
1.52
1.52
1.52
1.55
1.52
1.7
1.7
1.7
1.7
1.09
1.7
1.09
1.7
1.09
1.7
1.09
2
2
1.52
1.52
1.52
1.52
1.55
1.52
1.7
1.7
1.7
1.7
1.09
1.7
1.09
1.7
1.09
1.7
1.09
2
2
1.52
1.52
1.52
1.52
1.55
1.52
1.7
1.7
1.7
1.7
1.09
1.7
1.09
1.7
1.09
1.7
1.09
2
2
1.52
1.52
1.52
1.52
1.55
1.52
1.7
1.7
1.7
1.7
1.09
1.7
1.09
1.7
1.09
1.7
1.09
2
2
1.52
1.52
1.52
1.52
1.55
1.52
1.7
1.7
1.7
1.7
1.09
1.7
1.09
1.7
1.09
1.7
1.09
2
2
1.52
1.52
1.52
1.52
1.55
1.52
1.7
1.7
1.7
1.7
1.09
1.7
1.09
1.7
1.09
1.7
1.09
2
2
1.52
1.52
1.52
1.52
1.55
1.52
1.7
1.7
1.7
1.7
1.09
1.7
1.09
1.7
1.09
1.7
1.09
2
2
1.52
1.52
1.52
1.52
1.55
1.52
1.7
1.7
1.7
1.7
1.09
1.7
1.09
1.7
1.09
1.7
1.09
2
2
1.52
1.52
1.52
1.52
1.55
1.52
1.7
1.7
1.7
1.7
1.09
1.7
1.09
1.7
1.09
1.7
1.09
2
2
1.52
1.52
1.52
1.52
1.55
1.52
1.7
1.7
1.7
1.7
1.09
1.7
1.09
1.7
1.09
1.7
1.09
2
2
1.52
1.52
1.52
1.52
1.55
1.52
1.7
1.7
1.7
1.7
1.09
1.7
1.09
1.7
1.09
1.7
1.09
2
2
1.52
1.52
1.52
1.52
1.55
1.52
1.7
1.7
1.7
1.7
1.09
1.7
1.09
1.7
1.09
1.7
1.09
2
2
1.52
1.52
1.52
1.52
1.55
1.52
1.7
1.7
1.7
1.7
1.09
1.7
1.09
1.7
1.09
1.7
1.09
2
2
1.52
1.52
1.52
1.52
1.55
1.52
1.7
1.7
1.7
1.7
1.09
1.7
1.09
1.7
1.09
1.7
1.09
VECTORS vectors float
0.4375 0 0
0.4375 0 0
0.03125 0 0
0.03125 0 0
0.03125 0 0
0.03125 0 0
0 0 0
0.03125 0 0
0.3125 0 0
0.3125 0 0
0.3125 0 0
0.3125 0 0
0.25 0 0
0.3125 0 0
0.25 0 0
0.3125 0 0
0.25 0 0
0.3125 0 0
0.25 0 0
0.4375 0 0
0.4375 0 0
0.03125 0 0
0.03125 0 0
0.03125 0 0
0.03125 0 0
0 0 0
0.03125 0 0
0.3125 0 0
0.3125 0 0
0.3125 0 0
0.3125 0 0
0.25 0 0
0.3125 0 0
0.25 0 0
0.3125 0 0
0.25 0 0
0.3125 0 0
0.25 0 0
0.4375 0 0
0.4375 0 0
0.03125 0 0
0.03125 0 0
0.03125 0 0
0.03125 0 0
0 0 0
0.03125 0 0
0.3125 0 0
0.3125 0 0
0.3125 0 0
0.3125 0 0
0.25 0 0
0.3125 0 0
0.25 0 0
0.3125 0 0
0.25 0 0
0.3125 0 0
0.25 0 0
0.4375 0 0
0.4375 0 0
0.03125 0 0
0.03125 0 0
0.03125 0 0
0.03125 0 0
0 0 0
0.03125 0 0
0.3125 0 0
0.3125 0 0
0.3125 0 0
0.3125 0 0
0.25 0 0
0.3125 0 0
0.25 0 0
0.3125 0 0
0.25 0 0
0.3125 0 0
0.25 0 0
0.4375 0 0
0.4375 0 0
0.03125 0 0
0.03125 0 0
0.03125 0 0
0.03125 0 0
0 0 0
0.03125 0 0
0.3125 0 0
0.3125 0 0
0.3125 0 0
0.3125 0 0
0.25 0 0
0.3125 0 0
0.25 0 0
0.3125 0 0
0.25 0 0
0.3125 0 0
0.25 0 0
0.4375 0 0
0.4375 0 0
0.03125 0 0
0.03125 0 0
0.03125 0 0
0.03125 0 0
0 0 0
0.03125 0 0
0.3125 0 0
0.3125 0 0
0.3125 0 0
0.3125 0 0
0.25 0 0
0.3125 0 0
0.25 0 0
0.3125 0 0
0.25 0 0
0.3125 0 0
0.25 0 0
0.4375 0 0
0.4375 0 0
0.03125 0 0
0.03125 0 0
0.03125 0 0
0.03125 0 0
0 0 0
0.03125 0 0
0.3125 0 0
0.3125 0 0
0.3125 0 0
0.3125 0 0
0.25 0 0
0.3125 0 0
0.25 0 0
0.3125 0 0
0.25 0 0
0.3125 0 0
0.25 0 0
0.4375 0 0
0.4375 0 0
0.03125 0 0
0.03125 0 0
0.03125 0 0
0.03125 0 0
0 0 0
0.03125 0 0
0.3125 0 0
0.3125 0 0
0.3125 0 0
0.3125 0 0
0.25 0 0
0.3125 0 0
0.25 0 0
0.3125 0 0
0.25 0 0
0.3125 0 0
0.25 0 0
0.4375 0 0
0.4375 0 0
0.03125 0 0
0.03125 0 0
0.03125 0 0
0.03125 0 0
0 0 0
0.03125 0 0
0.3125 0 0
0.3125 0 0
0.3125 0 0
0.3125 0 0
0.25 0 0
0.3125 0 0
0.25 0 0
0.3125 0 0
0.25 0 0
0.3125 0 0
0.25 0 0
0.4375 0 0
0.4375 0 0
0.03125 0 0
0.03125 0 0
0.03125 0 0
0.03125 0 0
0 0 0
0.03125 0 0
0.3125 0 0
0.3125 0 0
0.3125 0 0
0.3125 0 0
0.25 0 0
0.3125 0 0
0.25 0 0
0.3125 0 0
0.25 0 0
0.3125 0 0
0.25 0 0
0.4375 0 0
0.4375 0 0
0.03125 0 0
0.03125 0 0
0.03125 0 0
0.03125 0 0
0 0 0
0.03125 0 0
0.3125 0 0
0.3125 0 0
0.3125 0 0
0.3125 0 0
0.25 0 0
0.3125 0 0
0.25 0 0
0.3125 0 0
0.25 0 0
0.3125 0 0
0.25 0 0
0.4375 0 0
0.4375 0 0
0.03125 0 0
0.03125 0 0
0.03125 0 0
0.03125 0 0
0 0 0
0.03125 0 0
0.3125 0 0
0.3125 0 0
0.3125 0 0
0.3125 0 0
0.25 0 0
0.3125 0 0
0.25 0 0
0.3125 0 0
0.25 0 0
0.3125 0 0
0.25 0 0
0.4375 0 0
0.4375 0 0
0.03125 0 0
0.03125 0 0
0.03125 0 0
0.03125 0 0
0 0 0
0.03125 0 0
0.3125 0 0
0.3125 0 0
0.3125 0 0
0.3125 0 0
0.25 0 0
0.3125 0 0
0.25 0 0
0.3125 0 0
0.25 0 0
0.3125 0 0
0.25 0 0
0.4375 0 0
0.4375 0 0
0.03125 0 0
0.03125 0 0
0.03125 0 0
0.03125 0 0
0 0 0
0.03125 0 0
0.3125 0 0
0.3125 0 0
0.3125 0 0
0.3125 0 0
0.25 0 0
0.3125 0 0
0.25 0 0
0.3125 0 0
0.25 0 0
0.3125 0 0
0.25 0 0
0.4375 0 0
0.4375 0 0
0.03125 0 0
0.03125 0 0
0.03125 0 0
0.03125 0 0
0 0 0
0.03125 0 0
0.3125 0 0
0.3125 0 0
0.3125 0 0
0.3125 0 0
0.25 0 0
0.3125 0 0
0.25 0 0
0.3125 0 0
0.25 0 0
0.3125 0 0
0.25 0 0
0.4375 0 0
0.4375 0 0
0.03125 0 0
0.03125 0 0
0.03125 0 0
0.03125 0 0
0 0 0
0.03125 0 0
0.3125 0 0
0.3125 0 0
0.3125 0 0
0.3125 0 0
0.25 0 0
0.3125 0 0
0.25 0 0
0.3125 0 0
0.25 0 0
0.3125 0 0
0.25 0 0
0.4375 0 0
0.4375 0 0
0.03125 0 0
0.03125 0 0
0.03125 0 0
0.03125 0 0
0 0 0
0.03125 0 0
0.3125 0 0
0.3125 0 0
0.3125 0 0
0.3125 0 0
0.25 0 0
0.3125 0 0
0.25 0 0
0.3125 0 0
0.25 0 0
0.3125 0 0
0.25 0 0
0.4375 0 0
0.4375 0 0
0.03125 0 0
0.03125 0 0
0.03125 0 0
0.03125 0 0
0 0 0
0.03125 0 0
0.3125 0 0
0.3125 0 0
0.3125 0 0
0.3125 0 0
0.25 0 0
0.3125 0 0
0.25 0 0
0.3125 0 0
0.25 0 0
0.3125 0 0
0.25 0 0
