# vtk DataFile Version 1.0
Cube
ASCII

DATASET POLYDATA
POINTS 759 float
7.946208 1.278634 8.080181
7.946208 34.406734 8.080181
16.470839 5.110672 4.998616
16.037378 5.301600 8.464798
17.458793 6.670895 5.985798
15.351380 4.332051 6.569726
15.351380 37.460151 6.569726
9.429699 2.730860 8.320432
9.429699 35.858960 8.320432
13.742601 4.791428 9.692986
13.742601 37.919528 9.692986
10.852042 2.097009 6.702241
10.852042 35.225109 6.702241
15.152469 4.648977 7.772057
15.152469 37.777077 7.772057
11.626962 3.442010 8.419549
11.626962 36.570110 8.419549
13.904047 4.291193 8.418472
13.904047 37.419293 8.418472
12.896412 3.618693 7.762361
12.896412 36.746793 7.762361
13.033077 3.282542 6.905862
13.033077 36.410642 6.905862
11.484393 3.975372 9.674671
11.484393 37.103472 9.674671
10.678792 3.897300 10.131901
10.678792 37.025400 10.131901
12.585532 4.648977 10.268295
12.585532 37.777077 10.268295
14.525135 5.009322 0.344744
8.361965 5.009322 32.665470
10.538874 2.713191 7.737582
10.538874 35.841291 7.737582
17.198601 7.409652 5.429882
5.891818 1.278634 18.853757
5.891818 34.406734 18.853757
14.416449 5.110672 15.772191
13.982988 5.301600 19.238373
15.404403 6.670895 16.759374
13.296991 4.332051 17.343302
13.296991 37.460151 17.343302
7.375309 2.730860 19.094008
7.375309 35.858960 19.094008
11.688211 4.791428 20.466561
11.688211 37.919528 20.466561
8.797652 2.097009 17.475817
8.797652 35.225109 17.475817
13.098079 4.648977 18.545633
13.098079 37.777077 18.545633
9.572572 3.442010 19.193124
9.572572 36.570110 19.193124
11.849657 4.291193 19.192047
11.849657 37.419293 19.192047
10.842022 3.618693 18.535936
10.842022 36.746793 18.535936
10.978687 3.282542 17.679437
10.978687 36.410642 17.679437
9.430003 3.975372 20.448246
9.430003 37.103472 20.448246
8.624402 3.897300 20.905477
8.624402 37.025400 20.905477
10.531142 4.648977 21.041870
10.531142 37.777077 21.041870
12.470745 5.009322 11.118319
8.484484 2.713191 18.511157
8.484484 35.841291 18.511157
15.144212 7.409652 16.203457
10.000597 1.278634 -2.693394
3.837428 1.278634 29.627332
10.000597 34.406734 -2.693394
3.837428 34.406734 29.627332
12.362059 5.110672 26.545766
18.091768 5.301600 -2.308777
11.928598 5.301600 30.011949
19.513183 6.670895 -4.787777
13.350013 6.670895 27.532949
17.405770 4.332051 -4.203849
11.242601 4.332051 28.116877
17.405770 37.460151 -4.203849
11.242601 37.460151 28.116877
11.484089 2.730860 -2.453143
5.320919 2.730860 29.867583
11.484089 35.858960 -2.453143
5.320919 35.858960 29.867583
15.796991 4.791428 -1.080590
9.633821 4.791428 31.240136
15.796991 37.919528 -1.080590
9.633821 37.919528 31.240136
12.906432 2.097009 -4.071334
6.743262 2.097009 28.249392
12.906432 35.225109 -4.071334
6.743262 35.225109 28.249392
17.206859 4.648977 -3.001518
11.043689 4.648977 29.319208
17.206859 37.777077 -3.001518
11.043689 37.777077 29.319208
13.681352 3.442010 -2.354026
7.518182 3.442010 29.966700
13.681352 36.570110 -2.354026
7.518182 36.570110 29.966700
15.958437 4.291193 -2.355104
9.795268 4.291193 29.965622
15.958437 37.419293 -2.355104
9.795268 37.419293 29.965622
14.950802 3.618693 -3.011214
8.787632 3.618693 29.309512
14.950802 36.746793 -3.011214
8.787632 36.746793 29.309512
15.087467 3.282542 -3.867714
8.924298 3.282542 28.453012
15.087467 36.410642 -3.867714
8.924298 36.410642 28.453012
13.538783 3.975372 -1.098905
7.375613 3.975372 31.221821
13.538783 37.103472 -1.098905
7.375613 37.103472 31.221821
12.733182 3.897300 -0.641674
6.570012 3.897300 31.679052
12.733182 37.025400 -0.641674
6.570012 37.025400 31.679052
14.639922 4.648977 -0.505281
8.476752 4.648977 31.815445
14.639922 37.777077 -0.505281
8.476752 37.777077 31.815445
10.416355 5.009322 21.891894
12.593264 2.713191 -3.035994
6.430094 2.713191 29.284732
12.593264 35.841291 -3.035994
6.430094 35.841291 29.284732
13.089822 7.409652 26.977033
7.946208 12.321334 8.080181
16.470839 16.153372 4.998616
16.037378 16.344300 8.464798
17.458793 17.713595 5.985798
15.351380 15.374751 6.569726
9.429699 13.773560 8.320432
13.742601 15.834128 9.692986
10.852042 13.139709 6.702241
15.152469 15.691677 7.772057
11.626962 14.484710 8.419549
13.904047 15.333893 8.418472
12.896412 14.661393 7.762361
13.033077 14.325242 6.905862
11.484393 15.018072 9.674671
10.678792 14.940000 10.131901
12.585532 15.691677 10.268295
14.525135 16.052022 0.344744
8.361965 16.052022 32.665470
10.538874 13.755891 7.737582
17.198601 18.452352 5.429882
5.891818 12.321334 18.853757
14.416449 16.153372 15.772191
13.982988 16.344300 19.238373
15.404403 17.713595 16.759374
13.296991 15.374751 17.343302
7.375309 13.773560 19.094008
11.688211 15.834128 20.466561
8.797652 13.139709 17.475817
13.098079 15.691677 18.545633
9.572572 14.484710 19.193124
11.849657 15.333893 19.192047
10.842022 14.661393 18.535936
10.978687 14.325242 17.679437
9.430003 15.018072 20.448246
8.624402 14.940000 20.905477
10.531142 15.691677 21.041870
12.470745 16.052022 11.118319
8.484484 13.755891 18.511157
15.144212 18.452352 16.203457
10.000597 12.321334 -2.693394
3.837428 12.321334 29.627332
12.362059 16.153372 26.545766
18.091768 16.344300 -2.308777
11.928598 16.344300 30.011949
19.513183 17.713595 -4.787777
13.350013 17.713595 27.532949
17.405770 15.374751 -4.203849
11.242601 15.374751 28.116877
11.484089 13.773560 -2.453143
5.320919 13.773560 29.867583
15.796991 15.834128 -1.080590
9.633821 15.834128 31.240136
12.906432 13.139709 -4.071334
6.743262 13.139709 28.249392
17.206859 15.691677 -3.001518
11.043689 15.691677 29.319208
13.681352 14.484710 -2.354026
7.518182 14.484710 29.966700
15.958437 15.333893 -2.355104
9.795268 15.333893 29.965622
14.950802 14.661393 -3.011214
8.787632 14.661393 29.309512
15.087467 14.325242 -3.867714
8.924298 14.325242 28.453012
13.538783 15.018072 -1.098905
7.375613 15.018072 31.221821
12.733182 14.940000 -0.641674
6.570012 14.940000 31.679052
14.639922 15.691677 -0.505281
8.476752 15.691677 31.815445
10.416355 16.052022 21.891894
12.593264 13.755891 -3.035994
6.430094 13.755891 29.284732
13.089822 18.452352 26.977033
7.946208 23.364034 8.080181
16.470839 27.196072 4.998616
16.037378 27.387000 8.464798
17.458793 -4.371805 5.985798
17.458793 28.756295 5.985798
15.351380 26.417451 6.569726
9.429699 24.816260 8.320432
13.742601 26.876828 9.692986
10.852042 24.182409 6.702241
15.152469 26.734377 7.772057
11.626962 25.527410 8.419549
13.904047 26.376593 8.418472
12.896412 25.704093 7.762361
13.033077 25.367942 6.905862
11.484393 26.060772 9.674671
10.678792 25.982700 10.131901
12.585532 26.734377 10.268295
14.525135 27.094722 0.344744
8.361965 27.094722 32.665470
10.538874 24.798591 7.737582
17.198601 -3.633048 5.429882
17.198601 29.495052 5.429882
5.891818 23.364034 18.853757
14.416449 27.196072 15.772191
13.982988 27.387000 19.238373
15.404403 -4.371805 16.759374
15.404403 28.756295 16.759374
13.296991 26.417451 17.343302
7.375309 24.816260 19.094008
11.688211 26.876828 20.466561
8.797652 24.182409 17.475817
13.098079 26.734377 18.545633
9.572572 25.527410 19.193124
11.849657 26.376593 19.192047
10.842022 25.704093 18.535936
10.978687 25.367942 17.679437
9.430003 26.060772 20.448246
8.624402 25.982700 20.905477
10.531142 26.734377 21.041870
12.470745 27.094722 11.118319
8.484484 24.798591 18.511157
15.144212 -3.633048 16.203457
15.144212 29.495052 16.203457
10.000597 23.364034 -2.693394
3.837428 23.364034 29.627332
12.362059 27.196072 26.545766
18.091768 27.387000 -2.308777
11.928598 27.387000 30.011949
19.513183 -4.371805 -4.787777
13.350013 -4.371805 27.532949
19.513183 28.756295 -4.787777
13.350013 28.756295 27.532949
17.405770 26.417451 -4.203849
11.242601 26.417451 28.116877
11.484089 24.816260 -2.453143
5.320919 24.816260 29.867583
15.796991 26.876828 -1.080590
9.633821 26.876828 31.240136
12.906432 24.182409 -4.071334
6.743262 24.182409 28.249392
17.206859 26.734377 -3.001518
11.043689 26.734377 29.319208
13.681352 25.527410 -2.354026
7.518182 25.527410 29.966700
15.958437 26.376593 -2.355104
9.795268 26.376593 29.965622
14.950802 25.704093 -3.011214
8.787632 25.704093 29.309512
15.087467 25.367942 -3.867714
8.924298 25.367942 28.453012
13.538783 26.060772 -1.098905
7.375613 26.060772 31.221821
12.733182 25.982700 -0.641674
6.570012 25.982700 31.679052
14.639922 26.734377 -0.505281
8.476752 26.734377 31.815445
10.416355 27.094722 21.891894
12.593264 24.798591 -3.035994
6.430094 24.798591 29.284732
13.089822 -3.633048 26.977033
13.089822 29.495052 26.977033
26.920208 1.278634 8.080181
26.920208 34.406734 8.080181
-2.503161 5.110672 4.998616
35.444839 5.110672 4.998616
-2.936622 5.301600 8.464798
35.011378 5.301600 8.464798
-1.515207 6.670895 5.985798
36.432793 6.670895 5.985798
-3.622620 4.332051 6.569726
-3.622620 37.460151 6.569726
34.325380 4.332051 6.569726
34.325380 37.460151 6.569726
28.403699 2.730860 8.320432
28.403699 35.858960 8.320432
-5.231399 4.791428 9.692986
-5.231399 37.919528 9.692986
32.716601 4.791428 9.692986
32.716601 37.919528 9.692986
29.826042 2.097009 6.702241
29.826042 35.225109 6.702241
-3.821531 4.648977 7.772057
-3.821531 37.777077 7.772057
34.126469 4.648977 7.772057
34.126469 37.777077 7.772057
30.600962 3.442010 8.419549
30.600962 36.570110 8.419549
-5.069953 4.291193 8.418472
-5.069953 37.419293 8.418472
32.878047 4.291193 8.418472
32.878047 37.419293 8.418472
-6.077588 3.618693 7.762361
-6.077588 36.746793 7.762361
31.870412 3.618693 7.762361
31.870412 36.746793 7.762361
-5.940923 3.282542 6.905862
-5.940923 36.410642 6.905862
32.007077 3.282542 6.905862
32.007077 36.410642 6.905862
-7.489607 3.975372 9.674671
-7.489607 37.103472 9.674671
30.458393 3.975372 9.674671
30.458393 37.103472 9.674671
29.652792 3.897300 10.131901
29.652792 37.025400 10.131901
-6.388468 4.648977 10.268295
-6.388468 37.777077 10.268295
31.559532 4.648977 10.268295
31.559532 37.777077 10.268295
-4.448865 5.009322 0.344744
-10.612035 5.009322 32.665470
33.499135 5.009322 0.344744
27.335965 5.009322 32.665470
29.512874 2.713191 7.737582
29.512874 35.841291 7.737582
-1.775399 7.409652 5.429882
36.172601 7.409652 5.429882
24.865818 1.278634 18.853757
24.865818 34.406734 18.853757
-4.557551 5.110672 15.772191
33.390449 5.110672 15.772191
-4.991012 5.301600 19.238373
32.956988 5.301600 19.238373
-3.569597 6.670895 16.759374
34.378403 6.670895 16.759374
-5.677009 4.332051 17.343302
-5.677009 37.460151 17.343302
32.270991 4.332051 17.343302
32.270991 37.460151 17.343302
26.349309 2.730860 19.094008
26.349309 35.858960 19.094008
-7.285789 4.791428 20.466561
-7.285789 37.919528 20.466561
30.662211 4.791428 20.466561
30.662211 37.919528 20.466561
27.771652 2.097009 17.475817
27.771652 35.225109 17.475817
-5.875921 4.648977 18.545633
-5.875921 37.777077 18.545633
32.072079 4.648977 18.545633
32.072079 37.777077 18.545633
28.546572 3.442010 19.193124
28.546572 36.570110 19.193124
-7.124343 4.291193 19.192047
-7.124343 37.419293 19.192047
30.823657 4.291193 19.192047
30.823657 37.419293 19.192047
-8.131978 3.618693 18.535936
-8.131978 36.746793 18.535936
29.816022 3.618693 18.535936
29.816022 36.746793 18.535936
-7.995313 3.282542 17.679437
-7.995313 36.410642 17.679437
29.952687 3.282542 17.679437
29.952687 36.410642 17.679437
-9.543997 3.975372 20.448246
-9.543997 37.103472 20.448246
28.404003 3.975372 20.448246
28.404003 37.103472 20.448246
27.598402 3.897300 20.905477
27.598402 37.025400 20.905477
-8.442858 4.648977 21.041870
-8.442858 37.777077 21.041870
29.505142 4.648977 21.041870
29.505142 37.777077 21.041870
-6.503255 5.009322 11.118319
31.444745 5.009322 11.118319
27.458484 2.713191 18.511157
27.458484 35.841291 18.511157
-3.829788 7.409652 16.203457
34.118212 7.409652 16.203457
28.974597 1.278634 -2.693394
22.811428 1.278634 29.627332
28.974597 34.406734 -2.693394
22.811428 34.406734 29.627332
-6.611941 5.110672 26.545766
31.336059 5.110672 26.545766
-0.882232 5.301600 -2.308777
-7.045402 5.301600 30.011949
37.065768 5.301600 -2.308777
30.902598 5.301600 30.011949
0.539183 6.670895 -4.787777
-5.623987 6.670895 27.532949
38.487183 6.670895 -4.787777
32.324013 6.670895 27.532949
-1.568230 4.332051 -4.203849
-7.731399 4.332051 28.116877
-1.568230 37.460151 -4.203849
-7.731399 37.460151 28.116877
36.379770 4.332051 -4.203849
30.216601 4.332051 28.116877
36.379770 37.460151 -4.203849
30.216601 37.460151 28.116877
30.458089 2.730860 -2.453143
24.294919 2.730860 29.867583
30.458089 35.858960 -2.453143
24.294919 35.858960 29.867583
-3.177009 4.791428 -1.080590
-9.340179 4.791428 31.240136
-3.177009 37.919528 -1.080590
-9.340179 37.919528 31.240136
34.770991 4.791428 -1.080590
28.607821 4.791428 31.240136
34.770991 37.919528 -1.080590
28.607821 37.919528 31.240136
31.880432 2.097009 -4.071334
25.717262 2.097009 28.249392
31.880432 35.225109 -4.071334
25.717262 35.225109 28.249392
-1.767141 4.648977 -3.001518
-7.930311 4.648977 29.319208
-1.767141 37.777077 -3.001518
-7.930311 37.777077 29.319208
36.180859 4.648977 -3.001518
30.017689 4.648977 29.319208
36.180859 37.777077 -3.001518
30.017689 37.777077 29.319208
32.655352 3.442010 -2.354026
26.492182 3.442010 29.966700
32.655352 36.570110 -2.354026
26.492182 36.570110 29.966700
-3.015563 4.291193 -2.355104
-9.178732 4.291193 29.965622
-3.015563 37.419293 -2.355104
-9.178732 37.419293 29.965622
34.932437 4.291193 -2.355104
28.769268 4.291193 29.965622
34.932437 37.419293 -2.355104
28.769268 37.419293 29.965622
-4.023198 3.618693 -3.011214
-10.186368 3.618693 29.309512
-4.023198 36.746793 -3.011214
-10.186368 36.746793 29.309512
33.924802 3.618693 -3.011214
27.761632 3.618693 29.309512
33.924802 36.746793 -3.011214
27.761632 36.746793 29.309512
-3.886533 3.282542 -3.867714
-10.049702 3.282542 28.453012
-3.886533 36.410642 -3.867714
-10.049702 36.410642 28.453012
34.061467 3.282542 -3.867714
27.898298 3.282542 28.453012
34.061467 36.410642 -3.867714
27.898298 36.410642 28.453012
-5.435217 3.975372 -1.098905
-11.598387 3.975372 31.221821
-5.435217 37.103472 -1.098905
-11.598387 37.103472 31.221821
32.512783 3.975372 -1.098905
26.349613 3.975372 31.221821
32.512783 37.103472 -1.098905
26.349613 37.103472 31.221821
31.707182 3.897300 -0.641674
25.544012 3.897300 31.679052
31.707182 37.025400 -0.641674
25.544012 37.025400 31.679052
-4.334078 4.648977 -0.505281
-10.497248 4.648977 31.815445
-4.334078 37.777077 -0.505281
-10.497248 37.777077 31.815445
33.613922 4.648977 -0.505281
27.450752 4.648977 31.815445
33.613922 37.777077 -0.505281
27.450752 37.777077 31.815445
-8.557645 5.009322 21.891894
29.390355 5.009322 21.891894
31.567264 2.713191 -3.035994
25.404094 2.713191 29.284732
31.567264 35.841291 -3.035994
25.404094 35.841291 29.284732
-5.884178 7.409652 26.977033
32.063822 7.409652 26.977033
26.920208 12.321334 8.080181
-2.503161 16.153372 4.998616
35.444839 16.153372 4.998616
-2.936622 16.344300 8.464798
35.011378 16.344300 8.464798
-1.515207 17.713595 5.985798
36.432793 17.713595 5.985798
-3.622620 15.374751 6.569726
34.325380 15.374751 6.569726
28.403699 13.773560 8.320432
-5.231399 15.834128 9.692986
32.716601 15.834128 9.692986
29.826042 13.139709 6.702241
-3.821531 15.691677 7.772057
34.126469 15.691677 7.772057
30.600962 14.484710 8.419549
-5.069953 15.333893 8.418472
32.878047 15.333893 8.418472
-6.077588 14.661393 7.762361
31.870412 14.661393 7.762361
-5.940923 14.325242 6.905862
32.007077 14.325242 6.905862
-7.489607 15.018072 9.674671
30.458393 15.018072 9.674671
29.652792 14.940000 10.131901
-6.388468 15.691677 10.268295
31.559532 15.691677 10.268295
-4.448865 16.052022 0.344744
-10.612035 16.052022 32.665470
33.499135 16.052022 0.344744
27.335965 16.052022 32.665470
29.512874 13.755891 7.737582
-1.775399 18.452352 5.429882
36.172601 18.452352 5.429882
24.865818 12.321334 18.853757
-4.557551 16.153372 15.772191
33.390449 16.153372 15.772191
-4.991012 16.344300 19.238373
32.956988 16.344300 19.238373
-3.569597 17.713595 16.759374
34.378403 17.713595 16.759374
-5.677009 15.374751 17.343302
32.270991 15.374751 17.343302
26.349309 13.773560 19.094008
-7.285789 15.834128 20.466561
30.662211 15.834128 20.466561
27.771652 13.139709 17.475817
-5.875921 15.691677 18.545633
32.072079 15.691677 18.545633
28.546572 14.484710 19.193124
-7.124343 15.333893 19.192047
30.823657 15.333893 19.192047
-8.131978 14.661393 18.535936
29.816022 14.661393 18.535936
-7.995313 14.325242 17.679437
29.952687 14.325242 17.679437
-9.543997 15.018072 20.448246
28.404003 15.018072 20.448246
27.598402 14.940000 20.905477
-8.442858 15.691677 21.041870
29.505142 15.691677 21.041870
-6.503255 16.052022 11.118319
31.444745 16.052022 11.118319
27.458484 13.755891 18.511157
-3.829788 18.452352 16.203457
34.118212 18.452352 16.203457
28.974597 12.321334 -2.693394
22.811428 12.321334 29.627332
-6.611941 16.153372 26.545766
31.336059 16.153372 26.545766
-0.882232 16.344300 -2.308777
-7.045402 16.344300 30.011949
37.065768 16.344300 -2.308777
30.902598 16.344300 30.011949
0.539183 17.713595 -4.787777
-5.623987 17.713595 27.532949
38.487183 17.713595 -4.787777
32.324013 17.713595 27.532949
-1.568230 15.374751 -4.203849
-7.731399 15.374751 28.116877
36.379770 15.374751 -4.203849
30.216601 15.374751 28.116877
30.458089 13.773560 -2.453143
24.294919 13.773560 29.867583
-3.177009 15.834128 -1.080590
-9.340179 15.834128 31.240136
34.770991 15.834128 -1.080590
28.607821 15.834128 31.240136
31.880432 13.139709 -4.071334
25.717262 13.139709 28.249392
-1.767141 15.691677 -3.001518
-7.930311 15.691677 29.319208
36.180859 15.691677 -3.001518
30.017689 15.691677 29.319208
32.655352 14.484710 -2.354026
26.492182 14.484710 29.966700
-3.015563 15.333893 -2.355104
-9.178732 15.333893 29.965622
34.932437 15.333893 -2.355104
28.769268 15.333893 29.965622
-4.023198 14.661393 -3.011214
-10.186368 14.661393 29.309512
33.924802 14.661393 -3.011214
27.761632 14.661393 29.309512
-3.886533 14.325242 -3.867714
-10.049702 14.325242 28.453012
34.061467 14.325242 -3.867714
27.898298 14.325242 28.453012
-5.435217 15.018072 -1.098905
-11.598387 15.018072 31.221821
32.512783 15.018072 -1.098905
26.349613 15.018072 31.221821
31.707182 14.940000 -0.641674
25.544012 14.940000 31.679052
-4.334078 15.691677 -0.505281
-10.497248 15.691677 31.815445
33.613922 15.691677 -0.505281
27.450752 15.691677 31.815445
-8.557645 16.052022 21.891894
29.390355 16.052022 21.891894
31.567264 13.755891 -3.035994
25.404094 13.755891 29.284732
-5.884178 18.452352 26.977033
32.063822 18.452352 26.977033
26.920208 23.364034 8.080181
-2.503161 27.196072 4.998616
35.444839 27.196072 4.998616
-2.936622 27.387000 8.464798
35.011378 27.387000 8.464798
-1.515207 -4.371805 5.985798
-1.515207 28.756295 5.985798
36.432793 -4.371805 5.985798
36.432793 28.756295 5.985798
-3.622620 26.417451 6.569726
34.325380 26.417451 6.569726
28.403699 24.816260 8.320432
-5.231399 26.876828 9.692986
32.716601 26.876828 9.692986
29.826042 24.182409 6.702241
-3.821531 26.734377 7.772057
34.126469 26.734377 7.772057
30.600962 25.527410 8.419549
-5.069953 26.376593 8.418472
32.878047 26.376593 8.418472
-6.077588 25.704093 7.762361
31.870412 25.704093 7.762361
-5.940923 25.367942 6.905862
32.007077 25.367942 6.905862
-7.489607 26.060772 9.674671
30.458393 26.060772 9.674671
29.652792 25.982700 10.131901
-6.388468 26.734377 10.268295
31.559532 26.734377 10.268295
-4.448865 27.094722 0.344744
-10.612035 27.094722 32.665470
33.499135 27.094722 0.344744
27.335965 27.094722 32.665470
29.512874 24.798591 7.737582
-1.775399 -3.633048 5.429882
-1.775399 29.495052 5.429882
36.172601 -3.633048 5.429882
36.172601 29.495052 5.429882
24.865818 23.364034 18.853757
-4.557551 27.196072 15.772191
33.390449 27.196072 15.772191
-4.991012 27.387000 19.238373
32.956988 27.387000 19.238373
-3.569597 -4.371805 16.759374
-3.569597 28.756295 16.759374
34.378403 -4.371805 16.759374
34.378403 28.756295 16.759374
-5.677009 26.417451 17.343302
32.270991 26.417451 17.343302
26.349309 24.816260 19.094008
-7.285789 26.876828 20.466561
30.662211 26.876828 20.466561
27.771652 24.182409 17.475817
-5.875921 26.734377 18.545633
32.072079 26.734377 18.545633
28.546572 25.527410 19.193124
-7.124343 26.376593 19.192047
30.823657 26.376593 19.192047
-8.131978 25.704093 18.535936
29.816022 25.704093 18.535936
-7.995313 25.367942 17.679437
29.952687 25.367942 17.679437
-9.543997 26.060772 20.448246
28.404003 26.060772 20.448246
27.598402 25.982700 20.905477
-8.442858 26.734377 21.041870
29.505142 26.734377 21.041870
-6.503255 27.094722 11.118319
31.444745 27.094722 11.118319
27.458484 24.798591 18.511157
-3.829788 -3.633048 16.203457
-3.829788 29.495052 16.203457
34.118212 -3.633048 16.203457
34.118212 29.495052 16.203457
28.974597 23.364034 -2.693394
22.811428 23.364034 29.627332
-6.611941 27.196072 26.545766
31.336059 27.196072 26.545766
-0.882232 27.387000 -2.308777
-7.045402 27.387000 30.011949
37.065768 27.387000 -2.308777
30.902598 27.387000 30.011949
0.539183 -4.371805 -4.787777
-5.623987 -4.371805 27.532949
0.539183 28.756295 -4.787777
-5.623987 28.756295 27.532949
38.487183 -4.371805 -4.787777
32.324013 -4.371805 27.532949
38.487183 28.756295 -4.787777
32.324013 28.756295 27.532949
-1.568230 26.417451 -4.203849
-7.731399 26.417451 28.116877
36.379770 26.417451 -4.203849
30.216601 26.417451 28.116877
30.458089 24.816260 -2.453143
24.294919 24.816260 29.867583
-3.177009 26.876828 -1.080590
-9.340179 26.876828 31.240136
34.770991 26.876828 -1.080590
28.607821 26.876828 31.240136
31.880432 24.182409 -4.071334
25.717262 24.182409 28.249392
-1.767141 26.734377 -3.001518
-7.930311 26.734377 29.319208
36.180859 26.734377 -3.001518
30.017689 26.734377 29.319208
32.655352 25.527410 -2.354026
26.492182 25.527410 29.966700
-3.015563 26.376593 -2.355104
-9.178732 26.376593 29.965622
34.932437 26.376593 -2.355104
28.769268 26.376593 29.965622
-4.023198 25.704093 -3.011214
-10.186368 25.704093 29.309512
33.924802 25.704093 -3.011214
27.761632 25.704093 29.309512
-3.886533 25.367942 -3.867714
-10.049702 25.367942 28.453012
34.061467 25.367942 -3.867714
27.898298 25.367942 28.453012
-5.435217 26.060772 -1.098905
-11.598387 26.060772 31.221821
32.512783 26.060772 -1.098905
26.349613 26.060772 31.221821
31.707182 25.982700 -0.641674
25.544012 25.982700 31.679052
-4.334078 26.734377 -0.505281
-10.497248 26.734377 31.815445
33.613922 26.734377 -0.505281
27.450752 26.734377 31.815445
-8.557645 27.094722 21.891894
29.390355 27.094722 21.891894
31.567264 24.798591 -3.035994
25.404094 24.798591 29.284732
-5.884178 -3.633048 26.977033
-5.884178 29.495052 26.977033
32.063822 -3.633048 26.977033
32.063822 29.495052 26.977033
LINES 722 2166
2 0 7
2 1 8
2 2 4
2 2 5
2 3 13
2 4 33
2 5 13
2 6 14
2 7 31
2 8 32
2 9 17
2 9 27
2 10 18
2 10 28
2 11 31
2 12 32
2 13 17
2 14 18
2 15 19
2 15 23
2 15 31
2 16 20
2 16 24
2 16 32
2 17 19
2 18 20
2 19 21
2 20 22
2 23 25
2 23 27
2 24 26
2 24 28
2 27 63
2 29 120
2 30 121
2 34 41
2 35 42
2 36 38
2 36 39
2 37 47
2 38 66
2 39 47
2 40 48
2 41 64
2 42 65
2 43 51
2 43 61
2 44 52
2 44 62
2 45 64
2 46 65
2 47 51
2 48 52
2 49 53
2 49 57
2 49 64
2 50 54
2 50 58
2 50 65
2 51 53
2 52 54
2 53 55
2 54 56
2 57 59
2 57 61
2 58 60
2 58 62
2 61 124
2 67 80
2 68 81
2 69 82
2 70 83
2 71 75
2 71 77
2 72 92
2 73 93
2 75 129
2 76 92
2 77 93
2 78 94
2 79 95
2 80 125
2 81 126
2 82 127
2 83 128
2 84 100
2 84 120
2 85 101
2 85 121
2 86 102
2 86 122
2 87 103
2 87 123
2 88 125
2 89 126
2 90 127
2 91 128
2 92 100
2 93 101
2 94 102
2 95 103
2 96 104
2 96 112
2 96 125
2 97 105
2 97 113
2 97 126
2 98 106
2 98 114
2 98 127
2 99 107
2 99 115
2 99 128
2 100 104
2 101 105
2 102 106
2 103 107
2 104 108
2 105 109
2 106 110
2 107 111
2 112 116
2 112 120
2 113 117
2 113 121
2 114 118
2 114 122
2 115 119
2 115 123
2 130 135
2 131 133
2 131 134
2 132 138
2 133 149
2 134 138
2 135 148
2 136 140
2 136 145
2 137 148
2 138 140
2 139 141
2 139 143
2 139 148
2 140 141
2 141 142
2 143 144
2 143 145
2 145 166
2 146 198
2 147 199
2 150 155
2 151 153
2 151 154
2 152 158
2 153 168
2 154 158
2 155 167
2 156 160
2 156 165
2 157 167
2 158 160
2 159 161
2 159 163
2 159 167
2 160 161
2 161 162
2 163 164
2 163 165
2 165 200
2 169 178
2 170 179
2 171 175
2 171 177
2 172 184
2 173 185
2 175 203
2 176 184
2 177 185
2 178 201
2 179 202
2 180 188
2 180 198
2 181 189
2 181 199
2 182 201
2 183 202
2 184 188
2 185 189
2 186 190
2 186 194
2 186 201
2 187 191
2 187 195
2 187 202
2 188 190
2 189 191
2 190 192
2 191 193
2 194 196
2 194 198
2 195 197
2 195 199
2 204 210
2 205 208
2 205 209
2 206 213
2 207 224
2 208 225
2 209 213
2 210 223
2 211 215
2 211 220
2 212 223
2 213 215
2 214 216
2 214 218
2 214 223
2 215 216
2 216 217
2 218 219
2 218 220
2 220 243
2 221 278
2 222 279
2 226 232
2 227 230
2 227 231
2 228 235
2 229 245
2 230 246
2 231 235
2 232 244
2 233 237
2 233 242
2 234 244
2 235 237
2 236 238
2 236 240
2 236 244
2 237 238
2 238 239
2 240 241
2 240 242
2 242 280
2 247 258
2 248 259
2 249 255
2 249 257
2 250 264
2 251 265
2 253 283
2 255 284
2 256 264
2 257 265
2 258 281
2 259 282
2 260 268
2 260 278
2 261 269
2 261 279
2 262 281
2 263 282
2 264 268
2 265 269
2 266 270
2 266 274
2 266 281
2 267 271
2 267 275
2 267 282
2 268 270
2 269 271
2 270 272
2 271 273
2 274 276
2 274 278
2 275 277
2 275 279
2 285 297
2 286 298
2 287 291
2 287 293
2 288 292
2 288 295
2 289 305
2 290 307
2 291 339
2 292 340
2 293 305
2 294 306
2 295 307
2 296 308
2 297 337
2 298 338
2 299 311
2 299 329
2 300 312
2 300 330
2 301 313
2 301 331
2 302 314
2 302 332
2 303 337
2 304 338
2 305 311
2 306 312
2 307 313
2 308 314
2 309 317
2 309 325
2 309 337
2 310 318
2 310 326
2 310 338
2 311 315
2 312 316
2 313 317
2 314 318
2 315 319
2 316 320
2 317 321
2 318 322
2 323 329
2 324 330
2 325 327
2 325 331
2 326 328
2 326 332
2 329 389
2 331 390
2 333 481
2 334 482
2 335 485
2 336 486
2 341 353
2 342 354
2 343 347
2 343 349
2 344 348
2 344 351
2 345 361
2 346 363
2 347 393
2 348 394
2 349 361
2 350 362
2 351 363
2 352 364
2 353 391
2 354 392
2 355 367
2 355 385
2 356 368
2 356 386
2 357 369
2 357 387
2 358 370
2 358 388
2 359 391
2 360 392
2 361 367
2 362 368
2 363 369
2 364 370
2 365 373
2 365 381
2 365 391
2 366 374
2 366 382
2 366 392
2 367 371
2 368 372
2 369 373
2 370 374
2 371 375
2 372 376
2 373 377
2 374 378
2 379 385
2 380 386
2 381 383
2 381 387
2 382 384
2 382 388
2 385 489
2 387 490
2 395 417
2 396 418
2 397 419
2 398 420
2 399 406
2 399 410
2 400 408
2 400 414
2 401 433
2 402 434
2 403 437
2 404 438
2 406 495
2 408 496
2 409 433
2 410 434
2 411 435
2 412 436
2 413 437
2 414 438
2 415 439
2 416 440
2 417 491
2 418 492
2 419 493
2 420 494
2 421 445
2 421 481
2 422 446
2 422 482
2 423 447
2 423 483
2 424 448
2 424 484
2 425 449
2 425 485
2 426 450
2 426 486
2 427 451
2 427 487
2 428 452
2 428 488
2 429 491
2 430 492
2 431 493
2 432 494
2 433 445
2 434 446
2 435 447
2 436 448
2 437 449
2 438 450
2 439 451
2 440 452
2 441 457
2 441 473
2 441 491
2 442 458
2 442 474
2 442 492
2 443 459
2 443 475
2 443 493
2 444 460
2 444 476
2 444 494
2 445 453
2 446 454
2 447 455
2 448 456
2 449 457
2 450 458
2 451 459
2 452 460
2 453 461
2 454 462
2 455 463
2 456 464
2 457 465
2 458 466
2 459 467
2 460 468
2 469 481
2 470 482
2 471 483
2 472 484
2 473 477
2 473 485
2 474 478
2 474 486
2 475 479
2 475 487
2 476 480
2 476 488
2 497 506
2 498 502
2 498 504
2 499 503
2 499 505
2 500 510
2 501 511
2 502 529
2 503 530
2 504 510
2 505 511
2 506 528
2 507 513
2 507 522
2 508 514
2 508 523
2 509 528
2 510 513
2 511 514
2 512 516
2 512 520
2 512 528
2 513 515
2 514 516
2 515 517
2 516 518
2 519 522
2 520 521
2 520 523
2 522 558
2 523 559
2 524 611
2 525 612
2 526 613
2 527 614
2 531 540
2 532 536
2 532 538
2 533 537
2 533 539
2 534 544
2 535 545
2 536 561
2 537 562
2 538 544
2 539 545
2 540 560
2 541 547
2 541 556
2 542 548
2 542 557
2 543 560
2 544 547
2 545 548
2 546 550
2 546 554
2 546 560
2 547 549
2 548 550
2 549 551
2 550 552
2 553 556
2 554 555
2 554 557
2 556 615
2 557 616
2 563 579
2 564 580
2 565 572
2 565 576
2 566 574
2 566 578
2 567 587
2 568 588
2 569 589
2 570 590
2 572 619
2 574 620
2 575 587
2 576 588
2 577 589
2 578 590
2 579 617
2 580 618
2 581 593
2 581 611
2 582 594
2 582 612
2 583 595
2 583 613
2 584 596
2 584 614
2 585 617
2 586 618
2 587 593
2 588 594
2 589 595
2 590 596
2 591 599
2 591 607
2 591 617
2 592 600
2 592 608
2 592 618
2 593 597
2 594 598
2 595 599
2 596 600
2 597 601
2 598 602
2 599 603
2 600 604
2 605 611
2 606 612
2 607 609
2 607 613
2 608 610
2 608 614
2 621 632
2 622 627
2 622 630
2 623 629
2 623 631
2 624 636
2 625 637
2 626 655
2 627 656
2 628 657
2 629 658
2 630 636
2 631 637
2 632 654
2 633 639
2 633 648
2 634 640
2 634 649
2 635 654
2 636 639
2 637 640
2 638 642
2 638 646
2 638 654
2 639 641
2 640 642
2 641 643
2 642 644
2 645 648
2 646 647
2 646 649
2 648 688
2 649 689
2 650 747
2 651 748
2 652 749
2 653 750
2 659 670
2 660 665
2 660 668
2 661 667
2 661 669
2 662 674
2 663 675
2 664 691
2 665 692
2 666 693
2 667 694
2 668 674
2 669 675
2 670 690
2 671 677
2 671 686
2 672 678
2 672 687
2 673 690
2 674 677
2 675 678
2 676 680
2 676 684
2 676 690
2 677 679
2 678 680
2 679 681
2 680 682
2 683 686
2 684 685
2 684 687
2 686 751
2 687 752
2 695 715
2 696 716
2 697 706
2 697 712
2 698 710
2 698 714
2 699 723
2 700 724
2 701 725
2 702 726
2 704 755
2 706 756
2 708 757
2 710 758
2 711 723
2 712 724
2 713 725
2 714 726
2 715 753
2 716 754
2 717 729
2 717 747
2 718 730
2 718 748
2 719 731
2 719 749
2 720 732
2 720 750
2 721 753
2 722 754
2 723 729
2 724 730
2 725 731
2 726 732
2 727 735
2 727 743
2 727 753
2 728 736
2 728 744
2 728 754
2 729 733
2 730 734
2 731 735
2 732 736
2 733 737
2 734 738
2 735 739
2 736 740
2 741 747
2 742 748
2 743 745
2 743 749
2 744 746
2 744 750
