# vtk DataFile Version 1.0
Cube
ASCII

DATASET POLYDATA
POINTS 604 float
7.656349 5.639364 5.429086
6.402535 4.024101 5.702988
1.642297 12.952059 2.227547
-6.384446 12.952059 25.819448
33.730297 12.952059 2.227547
25.703554 12.952059 25.819448
-0.015168 1.170089 1.495727
-8.041912 1.170089 25.087627
-0.015168 27.326089 1.495727
-8.041912 27.326089 25.087627
32.072832 1.170089 1.495727
24.046088 1.170089 25.087627
32.072832 27.326089 1.495727
24.046088 27.326089 25.087627
-1.459670 4.671592 4.722155
30.628330 4.671592 4.722155
0.163565 6.071854 5.403371
32.251565 6.071854 5.403371
6.748531 3.030173 6.531418
6.748531 29.186173 6.531418
7.615498 3.041943 6.919505
7.615498 29.197943 6.919505
5.900543 1.994395 6.845190
5.900543 28.150395 6.845190
6.169826 1.315647 7.452681
6.169826 27.471647 7.452681
4.656449 1.959084 6.257752
4.656449 28.115084 6.257752
4.054892 1.251565 6.457103
4.054892 27.407565 6.457103
4.285073 2.958244 5.381313
4.285073 29.114244 5.381313
5.192811 3.977020 5.137136
4.944516 4.672769 4.540261
2.936569 2.971322 4.745511
2.936569 29.127322 4.745511
35.024569 2.971322 4.745511
35.024569 29.127322 4.745511
2.547403 1.927697 3.905639
2.547403 28.083697 3.905639
34.635403 1.927697 3.905639
34.635403 28.083697 3.905639
3.138390 1.203176 3.740496
3.138390 27.359176 3.740496
35.226390 1.203176 3.740496
35.226390 27.359176 3.740496
1.290476 1.952545 3.308764
-6.736268 1.952545 26.900665
1.290476 28.108545 3.308764
-6.736268 28.108545 26.900665
33.378476 1.952545 3.308764
25.351732 1.952545 26.900665
33.378476 28.108545 3.308764
25.351732 28.108545 26.900665
0.395692 2.953012 3.624896
0.395692 29.109012 3.624896
32.483692 2.953012 3.624896
32.483692 29.109012 3.624896
-0.479033 2.939934 3.253323
-8.505776 2.939934 26.845224
-0.479033 29.095934 3.253323
-8.505776 29.095934 26.845224
31.608967 2.939934 3.253323
23.582224 2.939934 26.845224
31.608967 29.095934 3.253323
23.582224 29.095934 26.845224
0.768141 3.979635 4.482461
32.856141 3.979635 4.482461
2.043132 4.009715 5.007381
34.131132 4.009715 5.007381
2.313499 4.740775 5.548815
34.401499 4.740775 5.548815
0.943998 0.921999 2.283696
-7.082746 0.921999 25.875597
0.943998 27.077999 2.283696
-7.082746 27.077999 25.875597
33.031998 0.921999 2.283696
25.005254 0.921999 25.875597
33.031998 27.077999 2.283696
25.005254 27.077999 25.875597
-0.250870 4.993180 4.896499
31.837130 4.993180 4.896499
3.642977 5.639364 17.225037
2.389163 4.024101 17.498939
-2.371075 12.952059 14.023498
29.716925 12.952059 14.023498
-4.028540 1.170089 13.291677
-4.028540 27.326089 13.291677
28.059460 1.170089 13.291677
28.059460 27.326089 13.291677
-5.473042 4.671592 16.518105
26.614958 4.671592 16.518105
-3.849807 6.071854 17.199321
28.238193 6.071854 17.199321
2.735159 3.030173 18.327368
2.735159 29.186173 18.327368
3.602126 3.041943 18.715455
3.602126 29.197943 18.715455
1.887171 1.994395 18.641140
1.887171 28.150395 18.641140
2.156454 1.315647 19.248632
2.156454 27.471647 19.248632
0.643077 1.959084 18.053702
0.643077 28.115084 18.053702
0.041520 1.251565 18.253054
0.041520 27.407565 18.253054
0.271701 2.958244 17.177263
0.271701 29.114244 17.177263
1.179439 3.977020 16.933087
0.931145 4.672769 16.336212
-1.076803 2.971322 16.541461
-1.076803 29.127322 16.541461
31.011197 2.971322 16.541461
31.011197 29.127322 16.541461
-1.465969 1.927697 15.701590
-1.465969 28.083697 15.701590
30.622031 1.927697 15.701590
30.622031 28.083697 15.701590
-0.874982 1.203176 15.536446
-0.874982 27.359176 15.536446
31.213018 1.203176 15.536446
31.213018 27.359176 15.536446
-2.722896 1.952545 15.104715
-2.722896 28.108545 15.104715
29.365104 1.952545 15.104715
29.365104 28.108545 15.104715
-3.617680 2.953012 15.420846
-3.617680 29.109012 15.420846
28.470320 2.953012 15.420846
28.470320 29.109012 15.420846
-4.492405 2.939934 15.049274
-4.492405 29.095934 15.049274
27.595595 2.939934 15.049274
27.595595 29.095934 15.049274
-3.245231 3.979635 16.278412
28.842769 3.979635 16.278412
-1.970239 4.009715 16.803331
30.117761 4.009715 16.803331
-1.699873 4.740775 17.344766
30.388127 4.740775 17.344766
-3.069374 0.921999 14.079646
-3.069374 27.077999 14.079646
29.018626 0.921999 14.079646
29.018626 27.077999 14.079646
-4.264242 4.993180 16.692449
27.823758 4.993180 16.692449
7.656349 18.717364 5.429086
6.402535 17.102101 5.702988
1.642297 -0.125941 2.227547
-6.384446 -0.125941 25.819448
1.642297 26.030059 2.227547
-6.384446 26.030059 25.819448
33.730297 -0.125941 2.227547
25.703554 -0.125941 25.819448
33.730297 26.030059 2.227547
25.703554 26.030059 25.819448
-0.015168 14.248089 1.495727
-8.041912 14.248089 25.087627
32.072832 14.248089 1.495727
24.046088 14.248089 25.087627
-1.459670 17.749592 4.722155
30.628330 17.749592 4.722155
0.163565 19.149854 5.403371
32.251565 19.149854 5.403371
6.748531 16.108173 6.531418
7.615498 16.119943 6.919505
5.900543 15.072395 6.845190
6.169826 14.393647 7.452681
4.656449 15.037084 6.257752
4.054892 14.329565 6.457103
4.285073 16.036244 5.381313
5.192811 17.055020 5.137136
4.944516 17.750769 4.540261
2.936569 16.049322 4.745511
35.024569 16.049322 4.745511
2.547403 15.005697 3.905639
34.635403 15.005697 3.905639
3.138390 14.281176 3.740496
35.226390 14.281176 3.740496
1.290476 15.030545 3.308764
-6.736268 15.030545 26.900665
33.378476 15.030545 3.308764
25.351732 15.030545 26.900665
0.395692 16.031012 3.624896
32.483692 16.031012 3.624896
-0.479033 16.017934 3.253323
-8.505776 16.017934 26.845224
31.608967 16.017934 3.253323
23.582224 16.017934 26.845224
0.768141 17.057635 4.482461
32.856141 17.057635 4.482461
2.043132 17.087715 5.007381
34.131132 17.087715 5.007381
2.313499 17.818775 5.548815
34.401499 17.818775 5.548815
0.943998 13.999999 2.283696
-7.082746 13.999999 25.875597
33.031998 13.999999 2.283696
25.005254 13.999999 25.875597
-0.250870 18.071180 4.896499
31.837130 18.071180 4.896499
3.642977 18.717364 17.225037
2.389163 17.102101 17.498939
-2.371075 -0.125941 14.023498
-2.371075 26.030059 14.023498
29.716925 -0.125941 14.023498
29.716925 26.030059 14.023498
-4.028540 14.248089 13.291677
28.059460 14.248089 13.291677
-5.473042 17.749592 16.518105
26.614958 17.749592 16.518105
-3.849807 19.149854 17.199321
28.238193 19.149854 17.199321
2.735159 16.108173 18.327368
3.602126 16.119943 18.715455
1.887171 15.072395 18.641140
2.156454 14.393647 19.248632
0.643077 15.037084 18.053702
0.041520 14.329565 18.253054
0.271701 16.036244 17.177263
1.179439 17.055020 16.933087
0.931145 17.750769 16.336212
-1.076803 16.049322 16.541461
31.011197 16.049322 16.541461
-1.465969 15.005697 15.701590
30.622031 15.005697 15.701590
-0.874982 14.281176 15.536446
31.213018 14.281176 15.536446
-2.722896 15.030545 15.104715
29.365104 15.030545 15.104715
-3.617680 16.031012 15.420846
28.470320 16.031012 15.420846
-4.492405 16.017934 15.049274
27.595595 16.017934 15.049274
-3.245231 17.057635 16.278412
28.842769 17.057635 16.278412
-1.970239 17.087715 16.803331
30.117761 17.087715 16.803331
-1.699873 17.818775 17.344766
30.388127 17.818775 17.344766
-3.069374 13.999999 14.079646
29.018626 13.999999 14.079646
-4.264242 18.071180 16.692449
27.823758 18.071180 16.692449
18.352349 5.639364 5.429086
17.098535 4.024101 5.702988
12.338297 12.952059 2.227547
4.311554 12.952059 25.819448
10.680832 1.170089 1.495727
2.654088 1.170089 25.087627
10.680832 27.326089 1.495727
2.654088 27.326089 25.087627
9.236330 4.671592 4.722155
10.859565 6.071854 5.403371
17.444531 3.030173 6.531418
17.444531 29.186173 6.531418
18.311498 3.041943 6.919505
18.311498 29.197943 6.919505
16.596543 1.994395 6.845190
16.596543 28.150395 6.845190
16.865826 1.315647 7.452681
16.865826 27.471647 7.452681
15.352449 1.959084 6.257752
15.352449 28.115084 6.257752
14.750892 1.251565 6.457103
14.750892 27.407565 6.457103
14.981073 2.958244 5.381313
14.981073 29.114244 5.381313
15.888811 3.977020 5.137136
15.640516 4.672769 4.540261
13.632569 2.971322 4.745511
13.632569 29.127322 4.745511
13.243403 1.927697 3.905639
13.243403 28.083697 3.905639
13.834390 1.203176 3.740496
13.834390 27.359176 3.740496
11.986476 1.952545 3.308764
3.959732 1.952545 26.900665
11.986476 28.108545 3.308764
3.959732 28.108545 26.900665
11.091692 2.953012 3.624896
11.091692 29.109012 3.624896
10.216967 2.939934 3.253323
2.190224 2.939934 26.845224
10.216967 29.095934 3.253323
2.190224 29.095934 26.845224
11.464141 3.979635 4.482461
12.739132 4.009715 5.007381
13.009499 4.740775 5.548815
11.639998 0.921999 2.283696
3.613254 0.921999 25.875597
11.639998 27.077999 2.283696
3.613254 27.077999 25.875597
10.445130 4.993180 4.896499
14.338977 5.639364 17.225037
13.085163 4.024101 17.498939
8.324925 12.952059 14.023498
6.667460 1.170089 13.291677
6.667460 27.326089 13.291677
5.222958 4.671592 16.518105
6.846193 6.071854 17.199321
13.431159 3.030173 18.327368
13.431159 29.186173 18.327368
14.298126 3.041943 18.715455
14.298126 29.197943 18.715455
12.583171 1.994395 18.641140
12.583171 28.150395 18.641140
12.852454 1.315647 19.248632
12.852454 27.471647 19.248632
11.339077 1.959084 18.053702
11.339077 28.115084 18.053702
10.737520 1.251565 18.253054
10.737520 27.407565 18.253054
10.967701 2.958244 17.177263
10.967701 29.114244 17.177263
11.875439 3.977020 16.933087
11.627145 4.672769 16.336212
9.619197 2.971322 16.541461
9.619197 29.127322 16.541461
9.230031 1.927697 15.701590
9.230031 28.083697 15.701590
9.821018 1.203176 15.536446
9.821018 27.359176 15.536446
7.973104 1.952545 15.104715
7.973104 28.108545 15.104715
7.078320 2.953012 15.420846
7.078320 29.109012 15.420846
6.203595 2.939934 15.049274
6.203595 29.095934 15.049274
7.450769 3.979635 16.278412
8.725761 4.009715 16.803331
8.996127 4.740775 17.344766
7.626626 0.921999 14.079646
7.626626 27.077999 14.079646
6.431758 4.993180 16.692449
18.352349 18.717364 5.429086
17.098535 17.102101 5.702988
12.338297 -0.125941 2.227547
4.311554 -0.125941 25.819448
12.338297 26.030059 2.227547
4.311554 26.030059 25.819448
10.680832 14.248089 1.495727
2.654088 14.248089 25.087627
9.236330 17.749592 4.722155
10.859565 19.149854 5.403371
17.444531 16.108173 6.531418
18.311498 16.119943 6.919505
16.596543 15.072395 6.845190
16.865826 14.393647 7.452681
15.352449 15.037084 6.257752
14.750892 14.329565 6.457103
14.981073 16.036244 5.381313
15.888811 17.055020 5.137136
15.640516 17.750769 4.540261
13.632569 16.049322 4.745511
13.243403 15.005697 3.905639
13.834390 14.281176 3.740496
11.986476 15.030545 3.308764
3.959732 15.030545 26.900665
11.091692 16.031012 3.624896
10.216967 16.017934 3.253323
2.190224 16.017934 26.845224
11.464141 17.057635 4.482461
12.739132 17.087715 5.007381
13.009499 17.818775 5.548815
11.639998 13.999999 2.283696
3.613254 13.999999 25.875597
10.445130 18.071180 4.896499
14.338977 18.717364 17.225037
13.085163 17.102101 17.498939
8.324925 -0.125941 14.023498
8.324925 26.030059 14.023498
6.667460 14.248089 13.291677
5.222958 17.749592 16.518105
6.846193 19.149854 17.199321
13.431159 16.108173 18.327368
14.298126 16.119943 18.715455
12.583171 15.072395 18.641140
12.852454 14.393647 19.248632
11.339077 15.037084 18.053702
10.737520 14.329565 18.253054
10.967701 16.036244 17.177263
11.875439 17.055020 16.933087
11.627145 17.750769 16.336212
9.619197 16.049322 16.541461
9.230031 15.005697 15.701590
9.821018 14.281176 15.536446
7.973104 15.030545 15.104715
7.078320 16.031012 15.420846
6.203595 16.017934 15.049274
7.450769 17.057635 16.278412
8.725761 17.087715 16.803331
8.996127 17.818775 17.344766
7.626626 13.999999 14.079646
6.431758 18.071180 16.692449
-3.039651 5.639364 5.429086
29.048349 5.639364 5.429086
-4.293465 4.024101 5.702988
27.794535 4.024101 5.702988
23.034297 12.952059 2.227547
15.007554 12.952059 25.819448
21.376832 1.170089 1.495727
13.350088 1.170089 25.087627
21.376832 27.326089 1.495727
13.350088 27.326089 25.087627
19.932330 4.671592 4.722155
21.555565 6.071854 5.403371
-3.947469 3.030173 6.531418
-3.947469 29.186173 6.531418
28.140531 3.030173 6.531418
28.140531 29.186173 6.531418
-3.080502 3.041943 6.919505
-3.080502 29.197943 6.919505
29.007498 3.041943 6.919505
29.007498 29.197943 6.919505
-4.795457 1.994395 6.845190
-4.795457 28.150395 6.845190
27.292543 1.994395 6.845190
27.292543 28.150395 6.845190
-4.526174 1.315647 7.452681
-4.526174 27.471647 7.452681
27.561826 1.315647 7.452681
27.561826 27.471647 7.452681
-6.039551 1.959084 6.257752
-6.039551 28.115084 6.257752
26.048449 1.959084 6.257752
26.048449 28.115084 6.257752
-6.641108 1.251565 6.457103
-6.641108 27.407565 6.457103
25.446892 1.251565 6.457103
25.446892 27.407565 6.457103
-6.410927 2.958244 5.381313
-6.410927 29.114244 5.381313
25.677073 2.958244 5.381313
25.677073 29.114244 5.381313
-5.503189 3.977020 5.137136
26.584811 3.977020 5.137136
-5.751484 4.672769 4.540261
26.336516 4.672769 4.540261
24.328569 2.971322 4.745511
24.328569 29.127322 4.745511
23.939403 1.927697 3.905639
23.939403 28.083697 3.905639
24.530390 1.203176 3.740496
24.530390 27.359176 3.740496
22.682476 1.952545 3.308764
14.655732 1.952545 26.900665
22.682476 28.108545 3.308764
14.655732 28.108545 26.900665
21.787692 2.953012 3.624896
21.787692 29.109012 3.624896
20.912967 2.939934 3.253323
12.886224 2.939934 26.845224
20.912967 29.095934 3.253323
12.886224 29.095934 26.845224
22.160141 3.979635 4.482461
23.435132 4.009715 5.007381
23.705499 4.740775 5.548815
22.335998 0.921999 2.283696
14.309254 0.921999 25.875597
22.335998 27.077999 2.283696
14.309254 27.077999 25.875597
21.141130 4.993180 4.896499
-7.053023 5.639364 17.225037
25.034977 5.639364 17.225037
-8.306837 4.024101 17.498939
23.781163 4.024101 17.498939
19.020925 12.952059 14.023498
17.363460 1.170089 13.291677
17.363460 27.326089 13.291677
15.918958 4.671592 16.518105
17.542193 6.071854 17.199321
-7.960841 3.030173 18.327368
-7.960841 29.186173 18.327368
24.127159 3.030173 18.327368
24.127159 29.186173 18.327368
-7.093874 3.041943 18.715455
-7.093874 29.197943 18.715455
24.994126 3.041943 18.715455
24.994126 29.197943 18.715455
-8.808829 1.994395 18.641140
-8.808829 28.150395 18.641140
23.279171 1.994395 18.641140
23.279171 28.150395 18.641140
-8.539546 1.315647 19.248632
-8.539546 27.471647 19.248632
23.548454 1.315647 19.248632
23.548454 27.471647 19.248632
-10.052923 1.959084 18.053702
-10.052923 28.115084 18.053702
22.035077 1.959084 18.053702
22.035077 28.115084 18.053702
-10.654480 1.251565 18.253054
-10.654480 27.407565 18.253054
21.433520 1.251565 18.253054
21.433520 27.407565 18.253054
-10.424299 2.958244 17.177263
-10.424299 29.114244 17.177263
21.663701 2.958244 17.177263
21.663701 29.114244 17.177263
-9.516561 3.977020 16.933087
22.571439 3.977020 16.933087
-9.764855 4.672769 16.336212
22.323145 4.672769 16.336212
20.315197 2.971322 16.541461
20.315197 29.127322 16.541461
19.926031 1.927697 15.701590
19.926031 28.083697 15.701590
20.517018 1.203176 15.536446
20.517018 27.359176 15.536446
18.669104 1.952545 15.104715
18.669104 28.108545 15.104715
17.774320 2.953012 15.420846
17.774320 29.109012 15.420846
16.899595 2.939934 15.049274
16.899595 29.095934 15.049274
18.146769 3.979635 16.278412
19.421761 4.009715 16.803331
19.692127 4.740775 17.344766
18.322626 0.921999 14.079646
18.322626 27.077999 14.079646
17.127758 4.993180 16.692449
-3.039651 18.717364 5.429086
29.048349 18.717364 5.429086
-4.293465 17.102101 5.702988
27.794535 17.102101 5.702988
23.034297 -0.125941 2.227547
15.007554 -0.125941 25.819448
23.034297 26.030059 2.227547
15.007554 26.030059 25.819448
21.376832 14.248089 1.495727
13.350088 14.248089 25.087627
19.932330 17.749592 4.722155
21.555565 19.149854 5.403371
-3.947469 16.108173 6.531418
28.140531 16.108173 6.531418
-3.080502 16.119943 6.919505
29.007498 16.119943 6.919505
-4.795457 15.072395 6.845190
27.292543 15.072395 6.845190
-4.526174 14.393647 7.452681
27.561826 14.393647 7.452681
-6.039551 15.037084 6.257752
26.048449 15.037084 6.257752
-6.641108 14.329565 6.457103
25.446892 14.329565 6.457103
-6.410927 16.036244 5.381313
25.677073 16.036244 5.381313
-5.503189 17.055020 5.137136
26.584811 17.055020 5.137136
-5.751484 17.750769 4.540261
26.336516 17.750769 4.540261
24.328569 16.049322 4.745511
23.939403 15.005697 3.905639
24.530390 14.281176 3.740496
22.682476 15.030545 3.308764
14.655732 15.030545 26.900665
21.787692 16.031012 3.624896
20.912967 16.017934 3.253323
12.886224 16.017934 26.845224
22.160141 17.057635 4.482461
23.435132 17.087715 5.007381
23.705499 17.818775 5.548815
22.335998 13.999999 2.283696
14.309254 13.999999 25.875597
21.141130 18.071180 4.896499
-7.053023 18.717364 17.225037
25.034977 18.717364 17.225037
-8.306837 17.102101 17.498939
23.781163 17.102101 17.498939
19.020925 -0.125941 14.023498
19.020925 26.030059 14.023498
17.363460 14.248089 13.291677
15.918958 17.749592 16.518105
17.542193 19.149854 17.199321
-7.960841 16.108173 18.327368
24.127159 16.108173 18.327368
-7.093874 16.119943 18.715455
24.994126 16.119943 18.715455
-8.808829 15.072395 18.641140
23.279171 15.072395 18.641140
-8.539546 14.393647 19.248632
23.548454 14.393647 19.248632
-10.052923 15.037084 18.053702
22.035077 15.037084 18.053702
-10.654480 14.329565 18.253054
21.433520 14.329565 18.253054
-10.424299 16.036244 17.177263
21.663701 16.036244 17.177263
-9.516561 17.055020 16.933087
22.571439 17.055020 16.933087
-9.764855 17.750769 16.336212
22.323145 17.750769 16.336212
20.315197 16.049322 16.541461
19.926031 15.005697 15.701590
20.517018 14.281176 15.536446
18.669104 15.030545 15.104715
17.774320 16.031012 15.420846
16.899595 16.017934 15.049274
18.146769 17.057635 16.278412
19.421761 17.087715 16.803331
19.692127 17.818775 17.344766
18.322626 13.999999 14.079646
17.127758 18.071180 16.692449
LINES 598 1794
2 0 1
2 0 252
2 1 18
2 1 32
2 2 195
2 3 196
2 4 197
2 5 198
2 6 72
2 7 73
2 8 74
2 9 75
2 10 76
2 11 77
2 12 78
2 13 79
2 14 80
2 14 395
2 15 81
2 15 396
2 16 80
2 17 81
2 18 20
2 18 22
2 19 21
2 19 23
2 22 24
2 22 26
2 23 25
2 23 27
2 26 28
2 26 30
2 27 29
2 27 31
2 30 32
2 30 34
2 31 35
2 32 33
2 34 38
2 34 68
2 35 39
2 36 40
2 36 69
2 37 41
2 38 42
2 38 46
2 39 43
2 39 48
2 40 44
2 40 50
2 41 45
2 41 52
2 46 54
2 46 72
2 47 73
2 48 55
2 48 74
2 49 75
2 50 56
2 50 76
2 51 77
2 52 57
2 52 78
2 53 79
2 54 58
2 54 66
2 55 60
2 56 62
2 56 67
2 57 64
2 66 68
2 66 80
2 67 69
2 67 81
2 68 70
2 69 71
2 72 148
2 73 149
2 74 150
2 75 151
2 76 152
2 77 153
2 78 154
2 79 155
2 82 83
2 82 299
2 83 94
2 83 108
2 84 240
2 85 241
2 86 140
2 87 141
2 88 142
2 89 143
2 90 144
2 90 463
2 91 145
2 91 464
2 92 144
2 93 145
2 94 96
2 94 98
2 95 97
2 95 99
2 98 100
2 98 102
2 99 101
2 99 103
2 102 104
2 102 106
2 103 105
2 103 107
2 106 108
2 106 110
2 107 111
2 108 109
2 110 114
2 110 136
2 111 115
2 112 116
2 112 137
2 113 117
2 114 118
2 114 122
2 115 119
2 115 123
2 116 120
2 116 124
2 117 121
2 117 125
2 122 126
2 122 140
2 123 127
2 123 141
2 124 128
2 124 142
2 125 129
2 125 143
2 126 130
2 126 134
2 127 131
2 128 132
2 128 135
2 129 133
2 134 136
2 134 144
2 135 137
2 135 145
2 136 138
2 137 139
2 140 203
2 141 204
2 142 205
2 143 206
2 146 147
2 146 343
2 147 164
2 147 171
2 156 195
2 157 196
2 158 197
2 159 198
2 160 199
2 160 522
2 161 200
2 161 523
2 162 199
2 163 200
2 164 165
2 164 166
2 166 167
2 166 168
2 168 169
2 168 170
2 170 171
2 170 173
2 171 172
2 173 175
2 173 191
2 174 176
2 174 192
2 175 177
2 175 179
2 176 178
2 176 181
2 179 183
2 179 195
2 180 196
2 181 184
2 181 197
2 182 198
2 183 185
2 183 189
2 184 187
2 184 190
2 189 191
2 189 199
2 190 192
2 190 200
2 191 193
2 192 194
2 201 202
2 201 373
2 202 213
2 202 220
2 207 240
2 208 241
2 209 242
2 209 566
2 210 243
2 210 567
2 211 242
2 212 243
2 213 214
2 213 215
2 215 216
2 215 217
2 217 218
2 217 219
2 219 220
2 219 222
2 220 221
2 222 224
2 222 236
2 223 225
2 223 237
2 224 226
2 224 228
2 225 227
2 225 229
2 228 230
2 228 240
2 229 231
2 229 241
2 230 232
2 230 234
2 231 233
2 231 235
2 234 236
2 234 242
2 235 237
2 235 243
2 236 238
2 237 239
2 244 245
2 244 405
2 245 254
2 245 268
2 246 365
2 247 366
2 248 289
2 249 290
2 250 291
2 251 292
2 252 293
2 253 293
2 254 256
2 254 258
2 255 257
2 255 259
2 258 260
2 258 262
2 259 261
2 259 263
2 262 264
2 262 266
2 263 265
2 263 267
2 266 268
2 266 270
2 267 271
2 268 269
2 270 272
2 270 287
2 271 273
2 272 274
2 272 276
2 273 275
2 273 278
2 276 280
2 276 289
2 277 290
2 278 281
2 278 291
2 279 292
2 280 282
2 280 286
2 281 284
2 286 287
2 286 293
2 287 288
2 289 337
2 290 338
2 291 339
2 292 340
2 294 295
2 294 470
2 295 301
2 295 315
2 296 393
2 297 332
2 298 333
2 299 334
2 300 334
2 301 303
2 301 305
2 302 304
2 302 306
2 305 307
2 305 309
2 306 308
2 306 310
2 309 311
2 309 313
2 310 312
2 310 314
2 313 315
2 313 317
2 314 318
2 315 316
2 317 319
2 317 330
2 318 320
2 319 321
2 319 323
2 320 322
2 320 324
2 323 325
2 323 332
2 324 326
2 324 333
2 325 327
2 325 329
2 326 328
2 329 330
2 329 334
2 330 331
2 332 370
2 333 371
2 335 336
2 335 532
2 336 345
2 336 352
2 341 365
2 342 366
2 343 367
2 344 367
2 345 346
2 345 347
2 347 348
2 347 349
2 349 350
2 349 351
2 351 352
2 351 354
2 352 353
2 354 355
2 354 363
2 355 356
2 355 357
2 357 359
2 357 365
2 358 366
2 359 360
2 359 362
2 362 363
2 362 367
2 363 364
2 368 369
2 368 573
2 369 375
2 369 382
2 372 393
2 373 394
2 374 394
2 375 376
2 375 377
2 377 378
2 377 379
2 379 380
2 379 381
2 381 382
2 381 384
2 382 383
2 384 385
2 384 391
2 385 386
2 385 387
2 387 388
2 387 393
2 388 389
2 388 390
2 390 391
2 390 394
2 391 392
2 395 397
2 396 398
2 397 407
2 397 435
2 398 409
2 398 436
2 399 563
2 400 564
2 401 458
2 402 459
2 403 460
2 404 461
2 405 462
2 406 462
2 407 411
2 407 415
2 408 412
2 408 416
2 409 413
2 409 417
2 410 414
2 410 418
2 415 419
2 415 423
2 416 420
2 416 424
2 417 421
2 417 425
2 418 422
2 418 426
2 423 427
2 423 431
2 424 428
2 424 432
2 425 429
2 425 433
2 426 430
2 426 434
2 431 435
2 433 436
2 433 439
2 434 440
2 435 437
2 436 438
2 439 441
2 439 456
2 440 442
2 441 443
2 441 445
2 442 444
2 442 447
2 445 449
2 445 458
2 446 459
2 447 450
2 447 460
2 448 461
2 449 451
2 449 455
2 450 453
2 455 456
2 455 462
2 456 457
2 458 526
2 459 527
2 460 528
2 461 529
2 463 465
2 464 466
2 465 472
2 465 500
2 466 474
2 466 501
2 467 602
2 468 519
2 469 520
2 470 521
2 471 521
2 472 476
2 472 480
2 473 477
2 473 481
2 474 478
2 474 482
2 475 479
2 475 483
2 480 484
2 480 488
2 481 485
2 481 489
2 482 486
2 482 490
2 483 487
2 483 491
2 488 492
2 488 496
2 489 493
2 489 497
2 490 494
2 490 498
2 491 495
2 491 499
2 496 500
2 498 501
2 498 504
2 499 505
2 500 502
2 501 503
2 504 506
2 504 517
2 505 507
2 506 508
2 506 510
2 507 509
2 507 511
2 510 512
2 510 519
2 511 513
2 511 520
2 512 514
2 512 516
2 513 515
2 516 517
2 516 521
2 517 518
2 519 570
2 520 571
2 522 524
2 523 525
2 524 534
2 524 548
2 525 535
2 525 549
2 530 563
2 531 564
2 532 565
2 533 565
2 534 536
2 534 538
2 535 537
2 535 539
2 538 540
2 538 542
2 539 541
2 539 543
2 542 544
2 542 546
2 543 545
2 543 547
2 546 548
2 547 549
2 547 552
2 548 550
2 549 551
2 552 553
2 552 561
2 553 554
2 553 555
2 555 557
2 555 563
2 556 564
2 557 558
2 557 560
2 560 561
2 560 565
2 561 562
2 566 568
2 567 569
2 568 575
2 568 589
2 569 576
2 569 590
2 572 602
2 573 603
2 574 603
2 575 577
2 575 579
2 576 578
2 576 580
2 579 581
2 579 583
2 580 582
2 580 584
2 583 585
2 583 587
2 584 586
2 584 588
2 587 589
2 588 590
2 588 593
2 589 591
2 590 592
2 593 594
2 593 600
2 594 595
2 594 596
2 596 597
2 596 602
2 597 598
2 597 599
2 599 600
2 599 603
2 600 601
