# vtk DataFile Version 1.0
Cube
ASCII

DATASET POLYDATA
POINTS 312 float
7.656349 5.639364 5.429086
6.402535 4.024101 5.702988
1.642297 12.952059 2.227547
-0.015168 1.170089 1.495727
-1.459670 4.671592 4.722155
0.163565 6.071854 5.403371
6.748531 3.030173 6.531418
7.615498 3.041943 6.919505
5.900543 1.994395 6.845190
6.169826 1.315647 7.452681
4.656449 1.959084 6.257752
4.054892 1.251565 6.457103
4.285073 2.958244 5.381313
5.192811 3.977020 5.137136
4.944516 4.672769 4.540261
2.936569 2.971322 4.745511
2.547403 1.927697 3.905639
3.138390 1.203176 3.740496
1.290476 1.952545 3.308764
0.395692 2.953012 3.624896
-0.479033 2.939934 3.253323
0.768141 3.979635 4.482461
2.043132 4.009715 5.007381
2.313499 4.740775 5.548815
0.943998 0.921999 2.283696
-0.250870 4.993180 4.896499
3.642977 5.639364 17.225037
2.389163 4.024101 17.498939
-2.371075 12.952059 14.023498
-4.028540 1.170089 13.291677
-5.473042 4.671592 16.518105
-3.849807 6.071854 17.199321
2.735159 3.030173 18.327368
3.602126 3.041943 18.715455
1.887171 1.994395 18.641140
2.156454 1.315647 19.248632
0.643077 1.959084 18.053702
0.041520 1.251565 18.253054
0.271701 2.958244 17.177263
1.179439 3.977020 16.933087
0.931145 4.672769 16.336212
-1.076803 2.971322 16.541461
-1.465969 1.927697 15.701590
-0.874982 1.203176 15.536446
-2.722896 1.952545 15.104715
-3.617680 2.953012 15.420846
-4.492405 2.939934 15.049274
-3.245231 3.979635 16.278412
-1.970239 4.009715 16.803331
-1.699873 4.740775 17.344766
-3.069374 0.921999 14.079646
-4.264242 4.993180 16.692449
7.656349 18.717364 5.429086
6.402535 17.102101 5.702988
1.642297 26.030059 2.227547
-0.015168 14.248089 1.495727
-1.459670 17.749592 4.722155
0.163565 19.149854 5.403371
6.748531 16.108173 6.531418
7.615498 16.119943 6.919505
5.900543 15.072395 6.845190
6.169826 14.393647 7.452681
4.656449 15.037084 6.257752
4.054892 14.329565 6.457103
4.285073 16.036244 5.381313
5.192811 17.055020 5.137136
4.944516 17.750769 4.540261
2.936569 16.049322 4.745511
2.547403 15.005697 3.905639
3.138390 14.281176 3.740496
1.290476 15.030545 3.308764
0.395692 16.031012 3.624896
-0.479033 16.017934 3.253323
0.768141 17.057635 4.482461
2.043132 17.087715 5.007381
2.313499 17.818775 5.548815
0.943998 13.999999 2.283696
-0.250870 18.071180 4.896499
3.642977 18.717364 17.225037
2.389163 17.102101 17.498939
-2.371075 26.030059 14.023498
-4.028540 14.248089 13.291677
-5.473042 17.749592 16.518105
-3.849807 19.149854 17.199321
2.735159 16.108173 18.327368
3.602126 16.119943 18.715455
1.887171 15.072395 18.641140
2.156454 14.393647 19.248632
0.643077 15.037084 18.053702
0.041520 14.329565 18.253054
0.271701 16.036244 17.177263
1.179439 17.055020 16.933087
0.931145 17.750769 16.336212
-1.076803 16.049322 16.541461
-1.465969 15.005697 15.701590
-0.874982 14.281176 15.536446
-2.722896 15.030545 15.104715
-3.617680 16.031012 15.420846
-4.492405 16.017934 15.049274
-3.245231 17.057635 16.278412
-1.970239 17.087715 16.803331
-1.699873 17.818775 17.344766
-3.069374 13.999999 14.079646
-4.264242 18.071180 16.692449
18.352349 5.639364 5.429086
17.098535 4.024101 5.702988
12.338297 12.952059 2.227547
10.680832 1.170089 1.495727
9.236330 4.671592 4.722155
10.859565 6.071854 5.403371
17.444531 3.030173 6.531418
18.311498 3.041943 6.919505
16.596543 1.994395 6.845190
16.865826 1.315647 7.452681
15.352449 1.959084 6.257752
14.750892 1.251565 6.457103
14.981073 2.958244 5.381313
15.888811 3.977020 5.137136
15.640516 4.672769 4.540261
13.632569 2.971322 4.745511
13.243403 1.927697 3.905639
13.834390 1.203176 3.740496
11.986476 1.952545 3.308764
11.091692 2.953012 3.624896
10.216967 2.939934 3.253323
11.464141 3.979635 4.482461
12.739132 4.009715 5.007381
13.009499 4.740775 5.548815
11.639998 0.921999 2.283696
10.445130 4.993180 4.896499
14.338977 5.639364 17.225037
13.085163 4.024101 17.498939
8.324925 12.952059 14.023498
6.667460 1.170089 13.291677
5.222958 4.671592 16.518105
6.846193 6.071854 17.199321
13.431159 3.030173 18.327368
14.298126 3.041943 18.715455
12.583171 1.994395 18.641140
12.852454 1.315647 19.248632
11.339077 1.959084 18.053702
10.737520 1.251565 18.253054
10.967701 2.958244 17.177263
11.875439 3.977020 16.933087
11.627145 4.672769 16.336212
9.619197 2.971322 16.541461
9.230031 1.927697 15.701590
9.821018 1.203176 15.536446
7.973104 1.952545 15.104715
7.078320 2.953012 15.420846
6.203595 2.939934 15.049274
7.450769 3.979635 16.278412
8.725761 4.009715 16.803331
8.996127 4.740775 17.344766
7.626626 0.921999 14.079646
6.431758 4.993180 16.692449
18.352349 18.717364 5.429086
17.098535 17.102101 5.702988
12.338297 26.030059 2.227547
10.680832 14.248089 1.495727
9.236330 17.749592 4.722155
10.859565 19.149854 5.403371
17.444531 16.108173 6.531418
18.311498 16.119943 6.919505
16.596543 15.072395 6.845190
16.865826 14.393647 7.452681
15.352449 15.037084 6.257752
14.750892 14.329565 6.457103
14.981073 16.036244 5.381313
15.888811 17.055020 5.137136
15.640516 17.750769 4.540261
13.632569 16.049322 4.745511
13.243403 15.005697 3.905639
13.834390 14.281176 3.740496
11.986476 15.030545 3.308764
11.091692 16.031012 3.624896
10.216967 16.017934 3.253323
11.464141 17.057635 4.482461
12.739132 17.087715 5.007381
13.009499 17.818775 5.548815
11.639998 13.999999 2.283696
10.445130 18.071180 4.896499
14.338977 18.717364 17.225037
13.085163 17.102101 17.498939
8.324925 26.030059 14.023498
6.667460 14.248089 13.291677
5.222958 17.749592 16.518105
6.846193 19.149854 17.199321
13.431159 16.108173 18.327368
14.298126 16.119943 18.715455
12.583171 15.072395 18.641140
12.852454 14.393647 19.248632
11.339077 15.037084 18.053702
10.737520 14.329565 18.253054
10.967701 16.036244 17.177263
11.875439 17.055020 16.933087
11.627145 17.750769 16.336212
9.619197 16.049322 16.541461
9.230031 15.005697 15.701590
9.821018 14.281176 15.536446
7.973104 15.030545 15.104715
7.078320 16.031012 15.420846
6.203595 16.017934 15.049274
7.450769 17.057635 16.278412
8.725761 17.087715 16.803331
8.996127 17.818775 17.344766
7.626626 13.999999 14.079646
6.431758 18.071180 16.692449
29.048349 5.639364 5.429086
27.794535 4.024101 5.702988
23.034297 12.952059 2.227547
21.376832 1.170089 1.495727
19.932330 4.671592 4.722155
21.555565 6.071854 5.403371
28.140531 3.030173 6.531418
29.007498 3.041943 6.919505
27.292543 1.994395 6.845190
27.561826 1.315647 7.452681
26.048449 1.959084 6.257752
25.446892 1.251565 6.457103
25.677073 2.958244 5.381313
26.584811 3.977020 5.137136
26.336516 4.672769 4.540261
24.328569 2.971322 4.745511
23.939403 1.927697 3.905639
24.530390 1.203176 3.740496
22.682476 1.952545 3.308764
21.787692 2.953012 3.624896
20.912967 2.939934 3.253323
22.160141 3.979635 4.482461
23.435132 4.009715 5.007381
23.705499 4.740775 5.548815
22.335998 0.921999 2.283696
21.141130 4.993180 4.896499
25.034977 5.639364 17.225037
23.781163 4.024101 17.498939
19.020925 12.952059 14.023498
17.363460 1.170089 13.291677
15.918958 4.671592 16.518105
17.542193 6.071854 17.199321
24.127159 3.030173 18.327368
24.994126 3.041943 18.715455
23.279171 1.994395 18.641140
23.548454 1.315647 19.248632
22.035077 1.959084 18.053702
21.433520 1.251565 18.253054
21.663701 2.958244 17.177263
22.571439 3.977020 16.933087
22.323145 4.672769 16.336212
20.315197 2.971322 16.541461
19.926031 1.927697 15.701590
20.517018 1.203176 15.536446
18.669104 1.952545 15.104715
17.774320 2.953012 15.420846
16.899595 2.939934 15.049274
18.146769 3.979635 16.278412
19.421761 4.009715 16.803331
19.692127 4.740775 17.344766
18.322626 0.921999 14.079646
17.127758 4.993180 16.692449
29.048349 18.717364 5.429086
27.794535 17.102101 5.702988
23.034297 26.030059 2.227547
21.376832 14.248089 1.495727
19.932330 17.749592 4.722155
21.555565 19.149854 5.403371
28.140531 16.108173 6.531418
29.007498 16.119943 6.919505
27.292543 15.072395 6.845190
27.561826 14.393647 7.452681
26.048449 15.037084 6.257752
25.446892 14.329565 6.457103
25.677073 16.036244 5.381313
26.584811 17.055020 5.137136
26.336516 17.750769 4.540261
24.328569 16.049322 4.745511
23.939403 15.005697 3.905639
24.530390 14.281176 3.740496
22.682476 15.030545 3.308764
21.787692 16.031012 3.624896
20.912967 16.017934 3.253323
22.160141 17.057635 4.482461
23.435132 17.087715 5.007381
23.705499 17.818775 5.548815
22.335998 13.999999 2.283696
21.141130 18.071180 4.896499
25.034977 18.717364 17.225037
23.781163 17.102101 17.498939
19.020925 26.030059 14.023498
17.363460 14.248089 13.291677
15.918958 17.749592 16.518105
17.542193 19.149854 17.199321
24.127159 16.108173 18.327368
24.994126 16.119943 18.715455
23.279171 15.072395 18.641140
23.548454 14.393647 19.248632
22.035077 15.037084 18.053702
21.433520 14.329565 18.253054
21.663701 16.036244 17.177263
22.571439 17.055020 16.933087
22.323145 17.750769 16.336212
20.315197 16.049322 16.541461
19.926031 15.005697 15.701590
20.517018 14.281176 15.536446
18.669104 15.030545 15.104715
17.774320 16.031012 15.420846
16.899595 16.017934 15.049274
18.146769 17.057635 16.278412
19.421761 17.087715 16.803331
19.692127 17.818775 17.344766
18.322626 13.999999 14.079646
17.127758 18.071180 16.692449
POINT_DATA 312
SCALARS my_scalars float
LOOKUP_TABLE default
2
1.55
1.52
1.52
1.52
1.52
1.7
1.09
1.7
1.09
1.7
1.09
1.7
1.7
1.09
1.7
1.7
1.09
1.7
1.7
1.09
1.7
1.7
1.09
1.7
1.7
2
1.55
1.52
1.52
1.52
1.52
1.7
1.09
1.7
1.09
1.7
1.09
1.7
1.7
1.09
1.7
1.7
1.09
1.7
1.7
1.09
1.7
1.7
1.09
1.7
1.7
2
1.55
1.52
1.52
1.52
1.52
1.7
1.09
1.7
1.09
1.7
1.09
1.7
1.7
1.09
1.7
1.7
1.09
1.7
1.7
1.09
1.7
1.7
1.09
1.7
1.7
2
1.55
1.52
1.52
1.52
1.52
1.7
1.09
1.7
1.09
1.7
1.09
1.7
1.7
1.09
1.7
1.7
1.09
1.7
1.7
1.09
1.7
1.7
1.09
1.7
1.7
2
1.55
1.52
1.52
1.52
1.52
1.7
1.09
1.7
1.09
1.7
1.09
1.7
1.7
1.09
1.7
1.7
1.09
1.7
1.7
1.09
1.7
1.7
1.09
1.7
1.7
2
1.55
1.52
1.52
1.52
1.52
1.7
1.09
1.7
1.09
1.7
1.09
1.7
1.7
1.09
1.7
1.7
1.09
1.7
1.7
1.09
1.7
1.7
1.09
1.7
1.7
2
1.55
1.52
1.52
1.52
1.52
1.7
1.09
1.7
1.09
1.7
1.09
1.7
1.7
1.09
1.7
1.7
1.09
1.7
1.7
1.09
1.7
1.7
1.09
1.7
1.7
2
1.55
1.52
1.52
1.52
1.52
1.7
1.09
1.7
1.09
1.7
1.09
1.7
1.7
1.09
1.7
1.7
1.09
1.7
1.7
1.09
1.7
1.7
1.09
1.7
1.7
2
1.55
1.52
1.52
1.52
1.52
1.7
1.09
1.7
1.09
1.7
1.09
1.7
1.7
1.09
1.7
1.7
1.09
1.7
1.7
1.09
1.7
1.7
1.09
1.7
1.7
2
1.55
1.52
1.52
1.52
1.52
1.7
1.09
1.7
1.09
1.7
1.09
1.7
1.7
1.09
1.7
1.7
1.09
1.7
1.7
1.09
1.7
1.7
1.09
1.7
1.7
2
1.55
1.52
1.52
1.52
1.52
1.7
1.09
1.7
1.09
1.7
1.09
1.7
1.7
1.09
1.7
1.7
1.09
1.7
1.7
1.09
1.7
1.7
1.09
1.7
1.7
2
1.55
1.52
1.52
1.52
1.52
1.7
1.09
1.7
1.09
1.7
1.09
1.7
1.7
1.09
1.7
1.7
1.09
1.7
1.7
1.09
1.7
1.7
1.09
1.7
1.7
VECTORS vectors float
0.4375 0 0
0 0 0
0.03125 0 0
0.03125 0 0
0.03125 0 0
0.03125 0 0
0.3125 0 0
0.25 0 0
0.3125 0 0
0.25 0 0
0.3125 0 0
0.25 0 0
0.3125 0 0
0.3125 0 0
0.25 0 0
0.3125 0 0
0.3125 0 0
0.25 0 0
0.3125 0 0
0.3125 0 0
0.25 0 0
0.3125 0 0
0.3125 0 0
0.25 0 0
0.3125 0 0
0.3125 0 0
0.4375 0 0
0 0 0
0.03125 0 0
0.03125 0 0
0.03125 0 0
0.03125 0 0
0.3125 0 0
0.25 0 0
0.3125 0 0
0.25 0 0
0.3125 0 0
0.25 0 0
0.3125 0 0
0.3125 0 0
0.25 0 0
0.3125 0 0
0.3125 0 0
0.25 0 0
0.3125 0 0
0.3125 0 0
0.25 0 0
0.3125 0 0
0.3125 0 0
0.25 0 0
0.3125 0 0
0.3125 0 0
0.4375 0 0
0 0 0
0.03125 0 0
0.03125 0 0
0.03125 0 0
0.03125 0 0
0.3125 0 0
0.25 0 0
0.3125 0 0
0.25 0 0
0.3125 0 0
0.25 0 0
0.3125 0 0
0.3125 0 0
0.25 0 0
0.3125 0 0
0.3125 0 0
0.25 0 0
0.3125 0 0
0.3125 0 0
0.25 0 0
0.3125 0 0
0.3125 0 0
0.25 0 0
0.3125 0 0
0.3125 0 0
0.4375 0 0
0 0 0
0.03125 0 0
0.03125 0 0
0.03125 0 0
0.03125 0 0
0.3125 0 0
0.25 0 0
0.3125 0 0
0.25 0 0
0.3125 0 0
0.25 0 0
0.3125 0 0
0.3125 0 0
0.25 0 0
0.3125 0 0
0.3125 0 0
0.25 0 0
0.3125 0 0
0.3125 0 0
0.25 0 0
0.3125 0 0
0.3125 0 0
0.25 0 0
0.3125 0 0
0.3125 0 0
0.4375 0 0
0 0 0
0.03125 0 0
0.03125 0 0
0.03125 0 0
0.03125 0 0
0.3125 0 0
0.25 0 0
0.3125 0 0
0.25 0 0
0.3125 0 0
0.25 0 0
0.3125 0 0
0.3125 0 0
0.25 0 0
0.3125 0 0
0.3125 0 0
0.25 0 0
0.3125 0 0
0.3125 0 0
0.25 0 0
0.3125 0 0
0.3125 0 0
0.25 0 0
0.3125 0 0
0.3125 0 0
0.4375 0 0
0 0 0
0.03125 0 0
0.03125 0 0
0.03125 0 0
0.03125 0 0
0.3125 0 0
0.25 0 0
0.3125 0 0
0.25 0 0
0.3125 0 0
0.25 0 0
0.3125 0 0
0.3125 0 0
0.25 0 0
0.3125 0 0
0.3125 0 0
0.25 0 0
0.3125 0 0
0.3125 0 0
0.25 0 0
0.3125 0 0
0.3125 0 0
0.25 0 0
0.3125 0 0
0.3125 0 0
0.4375 0 0
0 0 0
0.03125 0 0
0.03125 0 0
0.03125 0 0
0.03125 0 0
0.3125 0 0
0.25 0 0
0.3125 0 0
0.25 0 0
0.3125 0 0
0.25 0 0
0.3125 0 0
0.3125 0 0
0.25 0 0
0.3125 0 0
0.3125 0 0
0.25 0 0
0.3125 0 0
0.3125 0 0
0.25 0 0
0.3125 0 0
0.3125 0 0
0.25 0 0
0.3125 0 0
0.3125 0 0
0.4375 0 0
0 0 0
0.03125 0 0
0.03125 0 0
0.03125 0 0
0.03125 0 0
0.3125 0 0
0.25 0 0
0.3125 0 0
0.25 0 0
0.3125 0 0
0.25 0 0
0.3125 0 0
0.3125 0 0
0.25 0 0
0.3125 0 0
0.3125 0 0
0.25 0 0
0.3125 0 0
0.3125 0 0
0.25 0 0
0.3125 0 0
0.3125 0 0
0.25 0 0
0.3125 0 0
0.3125 0 0
0.4375 0 0
0 0 0
0.03125 0 0
0.03125 0 0
0.03125 0 0
0.03125 0 0
0.3125 0 0
0.25 0 0
0.3125 0 0
0.25 0 0
0.3125 0 0
0.25 0 0
0.3125 0 0
0.3125 0 0
0.25 0 0
0.3125 0 0
0.3125 0 0
0.25 0 0
0.3125 0 0
0.3125 0 0
0.25 0 0
0.3125 0 0
0.3125 0 0
0.25 0 0
0.3125 0 0
0.3125 0 0
0.4375 0 0
0 0 0
0.03125 0 0
0.03125 0 0
0.03125 0 0
0.03125 0 0
0.3125 0 0
0.25 0 0
0.3125 0 0
0.25 0 0
0.3125 0 0
0.25 0 0
0.3125 0 0
0.3125 0 0
0.25 0 0
0.3125 0 0
0.3125 0 0
0.25 0 0
0.3125 0 0
0.3125 0 0
0.25 0 0
0.3125 0 0
0.3125 0 0
0.25 0 0
0.3125 0 0
0.3125 0 0
0.4375 0 0
0 0 0
0.03125 0 0
0.03125 0 0
0.03125 0 0
0.03125 0 0
0.3125 0 0
0.25 0 0
0.3125 0 0
0.25 0 0
0.3125 0 0
0.25 0 0
0.3125 0 0
0.3125 0 0
0.25 0 0
0.3125 0 0
0.3125 0 0
0.25 0 0
0.3125 0 0
0.3125 0 0
0.25 0 0
0.3125 0 0
0.3125 0 0
0.25 0 0
0.3125 0 0
0.3125 0 0
0.4375 0 0
0 0 0
0.03125 0 0
0.03125 0 0
0.03125 0 0
0.03125 0 0
0.3125 0 0
0.25 0 0
0.3125 0 0
0.25 0 0
0.3125 0 0
0.25 0 0
0.3125 0 0
0.3125 0 0
0.25 0 0
0.3125 0 0
0.3125 0 0
0.25 0 0
0.3125 0 0
0.3125 0 0
0.25 0 0
0.3125 0 0
0.3125 0 0
0.25 0 0
0.3125 0 0
0.3125 0 0
