# vtk DataFile Version 1.0
Cube
ASCII

DATASET POLYDATA
POINTS 10 float
9.841278 9.841278 5.668522
11.024366 11.024366 4.486799
7.754900 7.754900 7.754900
10.562174 8.530390 6.978697
11.858793 8.276029 7.234577
9.792888 7.754900 7.754900
13.059252 8.775445 6.733269
14.296934 8.269825 7.240874
15.509800 8.772343 6.736433
13.057266 9.433991 6.075809
POINT_DATA 10
SCALARS my_scalars float
LOOKUP_TABLE default
1.39
1.75
1.39
1.55
1.7
1.55
1.7
1.7
1.52
1.09
VECTORS vectors float
0.4375 0 0
0.4375 0 0
0.4375 0 0
0 0 0
0.3125 0 0
0 0 0
0.3125 0 0
0.3125 0 0
0.03125 0 0
0.25 0 0
