# vtk DataFile Version 1.0
Cube
ASCII

DATASET POLYDATA
POINTS 799 float
-0.452279 3.313568 2.721677
-5.879627 3.313568 35.381799
-0.452279 30.918968 2.721677
-5.879627 30.918968 35.381799
38.749921 3.313568 2.721677
33.322573 3.313568 35.381799
38.749921 30.918968 2.721677
33.322573 30.918968 35.381799
17.236730 4.173016 5.126768
18.190333 5.722599 6.071517
18.088010 6.257224 5.802615
10.738915 0.257650 2.279677
5.311567 0.257650 34.939798
10.738915 27.863050 2.279677
5.311567 27.863050 34.939798
11.464494 1.207276 4.141303
6.037146 1.207276 36.801425
11.464494 28.812676 4.141303
6.037146 28.812676 36.801425
16.316945 2.513932 4.240372
10.889597 2.513932 36.900494
16.316945 30.119332 4.240372
10.889597 30.119332 36.900494
17.614021 1.902012 2.521361
12.186673 1.902012 35.181483
17.614021 29.507412 2.521361
12.186673 29.507412 35.181483
13.025736 0.578793 1.033149
7.598388 0.578793 33.693270
13.025736 28.184193 1.033149
7.598388 28.184193 33.693270
11.612685 0.825401 2.954652
6.185337 0.825401 35.614774
11.612685 28.430801 2.954652
6.185337 28.430801 35.614774
12.934540 1.059127 2.301450
7.507192 1.059127 34.961572
12.934540 28.664527 2.301450
7.507192 28.664527 34.961572
16.499906 2.045560 3.115776
11.072558 2.045560 35.775897
16.499906 29.650960 3.115776
11.072558 29.650960 35.775897
15.293278 1.485171 2.367859
9.865930 1.485171 35.027981
15.293278 29.090571 2.367859
9.865930 29.090571 35.027981
14.053837 1.491612 2.985135
8.626489 1.491612 35.645257
14.053837 29.097012 2.985135
8.626489 29.097012 35.645257
13.975227 1.787735 3.863594
8.547879 1.787735 36.523716
13.975227 29.393135 3.863594
8.547879 29.393135 36.523716
14.219461 0.605478 0.455064
8.792113 0.605478 33.115186
14.219461 28.210878 0.455064
8.792113 28.210878 33.115186
12.468775 0.313956 10.460427
12.468775 27.919356 10.460427
15.388996 1.037043 1.072341
9.961648 1.037043 33.732463
15.388996 28.642443 1.072341
9.961648 28.642443 33.732463
16.204379 1.021980 0.624843
10.777031 1.021980 33.284964
16.204379 28.627380 0.624843
10.777031 28.627380 33.284964
-2.261395 3.313568 13.608384
-2.261395 30.918968 13.608384
36.940805 3.313568 13.608384
36.940805 30.918968 13.608384
15.427614 4.173016 16.013475
16.381218 5.722599 16.958224
16.278894 6.257224 16.689322
8.929799 0.257650 13.166384
8.929799 27.863050 13.166384
9.655378 1.207276 15.028011
9.655378 28.812676 15.028011
14.507829 2.513932 15.127080
14.507829 30.119332 15.127080
15.804905 1.902012 13.408069
15.804905 29.507412 13.408069
11.216620 0.578793 11.919856
11.216620 28.184193 11.919856
9.803569 0.825401 13.841360
9.803569 28.430801 13.841360
11.125424 1.059127 13.188157
11.125424 28.664527 13.188157
14.690790 2.045560 14.002483
14.690790 29.650960 14.002483
13.484162 1.485171 13.254566
13.484162 29.090571 13.254566
12.244721 1.491612 13.871842
12.244721 29.097012 13.871842
12.166111 1.787735 14.750302
12.166111 29.393135 14.750302
12.410345 0.605478 11.341772
12.410345 28.210878 11.341772
10.659659 0.313956 21.347135
10.659659 27.919356 21.347135
13.579880 1.037043 11.959048
13.579880 28.642443 11.959048
14.395263 1.021980 11.511550
14.395263 28.627380 11.511550
-4.070511 3.313568 24.495091
-4.070511 30.918968 24.495091
35.131689 3.313568 24.495091
35.131689 30.918968 24.495091
13.618498 4.173016 26.900183
19.999449 5.722599 -4.815191
14.572102 5.722599 27.844931
14.469778 6.257224 27.576030
7.120683 0.257650 24.053091
7.120683 27.863050 24.053091
7.846262 1.207276 25.914718
7.846262 28.812676 25.914718
12.698713 2.513932 26.013787
12.698713 30.119332 26.013787
13.995789 1.902012 24.294776
13.995789 29.507412 24.294776
9.407504 0.578793 22.806563
9.407504 28.184193 22.806563
7.994453 0.825401 24.728067
7.994453 28.430801 24.728067
9.316308 1.059127 24.074864
9.316308 28.664527 24.074864
12.881674 2.045560 24.889190
12.881674 29.650960 24.889190
11.675046 1.485171 24.141273
11.675046 29.090571 24.141273
10.435605 1.491612 24.758550
10.435605 29.097012 24.758550
10.356995 1.787735 25.637009
10.356995 29.393135 25.637009
10.601229 0.605478 22.228479
10.601229 28.210878 22.228479
14.277891 0.313956 -0.426280
8.850544 0.313956 32.233842
14.277891 27.919356 -0.426280
8.850544 27.919356 32.233842
11.770764 1.037043 22.845755
11.770764 28.642443 22.845755
12.586147 1.021980 22.398257
12.586147 28.627380 22.398257
-0.452279 12.515368 2.721677
-5.879627 12.515368 35.381799
38.749921 12.515368 2.721677
33.322573 12.515368 35.381799
17.236730 13.374816 5.126768
18.190333 14.924399 6.071517
18.088010 15.459024 5.802615
10.738915 9.459450 2.279677
5.311567 9.459450 34.939798
11.464494 10.409076 4.141303
6.037146 10.409076 36.801425
16.316945 11.715732 4.240372
10.889597 11.715732 36.900494
17.614021 11.103812 2.521361
12.186673 11.103812 35.181483
13.025736 9.780593 1.033149
7.598388 9.780593 33.693270
11.612685 10.027201 2.954652
6.185337 10.027201 35.614774
12.934540 10.260927 2.301450
7.507192 10.260927 34.961572
16.499906 11.247360 3.115776
11.072558 11.247360 35.775897
15.293278 10.686971 2.367859
9.865930 10.686971 35.027981
14.053837 10.693412 2.985135
8.626489 10.693412 35.645257
13.975227 10.989535 3.863594
8.547879 10.989535 36.523716
14.219461 9.807278 0.455064
8.792113 9.807278 33.115186
12.468775 9.515756 10.460427
15.388996 10.238843 1.072341
9.961648 10.238843 33.732463
16.204379 10.223780 0.624843
10.777031 10.223780 33.284964
-2.261395 12.515368 13.608384
36.940805 12.515368 13.608384
15.427614 13.374816 16.013475
16.381218 14.924399 16.958224
16.278894 15.459024 16.689322
8.929799 9.459450 13.166384
9.655378 10.409076 15.028011
14.507829 11.715732 15.127080
15.804905 11.103812 13.408069
11.216620 9.780593 11.919856
9.803569 10.027201 13.841360
11.125424 10.260927 13.188157
14.690790 11.247360 14.002483
13.484162 10.686971 13.254566
12.244721 10.693412 13.871842
12.166111 10.989535 14.750302
12.410345 9.807278 11.341772
10.659659 9.515756 21.347135
13.579880 10.238843 11.959048
14.395263 10.223780 11.511550
-4.070511 12.515368 24.495091
35.131689 12.515368 24.495091
13.618498 13.374816 26.900183
19.999449 14.924399 -4.815191
14.572102 14.924399 27.844931
14.469778 15.459024 27.576030
7.120683 9.459450 24.053091
7.846262 10.409076 25.914718
12.698713 11.715732 26.013787
13.995789 11.103812 24.294776
9.407504 9.780593 22.806563
7.994453 10.027201 24.728067
9.316308 10.260927 24.074864
12.881674 11.247360 24.889190
11.675046 10.686971 24.141273
10.435605 10.693412 24.758550
10.356995 10.989535 25.637009
10.601229 9.807278 22.228479
14.277891 9.515756 -0.426280
8.850544 9.515756 32.233842
11.770764 10.238843 22.845755
12.586147 10.223780 22.398257
-0.452279 21.717168 2.721677
-5.879627 21.717168 35.381799
38.749921 21.717168 2.721677
33.322573 21.717168 35.381799
17.236730 22.576616 5.126768
18.190333 -3.479201 6.071517
18.190333 24.126199 6.071517
18.088010 -2.944576 5.802615
18.088010 24.660824 5.802615
10.738915 18.661250 2.279677
5.311567 18.661250 34.939798
11.464494 19.610876 4.141303
6.037146 19.610876 36.801425
16.316945 20.917532 4.240372
10.889597 20.917532 36.900494
17.614021 20.305612 2.521361
12.186673 20.305612 35.181483
13.025736 18.982393 1.033149
7.598388 18.982393 33.693270
11.612685 19.229001 2.954652
6.185337 19.229001 35.614774
12.934540 19.462727 2.301450
7.507192 19.462727 34.961572
16.499906 20.449160 3.115776
11.072558 20.449160 35.775897
15.293278 19.888771 2.367859
9.865930 19.888771 35.027981
14.053837 19.895212 2.985135
8.626489 19.895212 35.645257
13.975227 20.191335 3.863594
8.547879 20.191335 36.523716
14.219461 19.009078 0.455064
8.792113 19.009078 33.115186
12.468775 18.717556 10.460427
15.388996 19.440643 1.072341
9.961648 19.440643 33.732463
16.204379 19.425580 0.624843
10.777031 19.425580 33.284964
-2.261395 21.717168 13.608384
36.940805 21.717168 13.608384
15.427614 22.576616 16.013475
16.381218 -3.479201 16.958224
16.381218 24.126199 16.958224
16.278894 -2.944576 16.689322
16.278894 24.660824 16.689322
8.929799 18.661250 13.166384
9.655378 19.610876 15.028011
14.507829 20.917532 15.127080
15.804905 20.305612 13.408069
11.216620 18.982393 11.919856
9.803569 19.229001 13.841360
11.125424 19.462727 13.188157
14.690790 20.449160 14.002483
13.484162 19.888771 13.254566
12.244721 19.895212 13.871842
12.166111 20.191335 14.750302
12.410345 19.009078 11.341772
10.659659 18.717556 21.347135
13.579880 19.440643 11.959048
14.395263 19.425580 11.511550
-4.070511 21.717168 24.495091
35.131689 21.717168 24.495091
13.618498 22.576616 26.900183
19.999449 -3.479201 -4.815191
14.572102 -3.479201 27.844931
19.999449 24.126199 -4.815191
14.572102 24.126199 27.844931
14.469778 -2.944576 27.576030
14.469778 24.660824 27.576030
7.120683 18.661250 24.053091
7.846262 19.610876 25.914718
12.698713 20.917532 26.013787
13.995789 20.305612 24.294776
9.407504 18.982393 22.806563
7.994453 19.229001 24.728067
9.316308 19.462727 24.074864
12.881674 20.449160 24.889190
11.675046 19.888771 24.141273
10.435605 19.895212 24.758550
10.356995 20.191335 25.637009
10.601229 19.009078 22.228479
14.277891 18.717556 -0.426280
8.850544 18.717556 32.233842
11.770764 19.440643 22.845755
12.586147 19.425580 22.398257
19.148821 3.313568 2.721677
13.721473 3.313568 35.381799
19.148821 30.918968 2.721677
13.721473 30.918968 35.381799
-2.364370 4.173016 5.126768
36.837830 4.173016 5.126768
-1.410767 5.722599 6.071517
37.791433 5.722599 6.071517
-1.513090 6.257224 5.802615
37.689110 6.257224 5.802615
30.340015 0.257650 2.279677
24.912667 0.257650 34.939798
30.340015 27.863050 2.279677
24.912667 27.863050 34.939798
31.065594 1.207276 4.141303
25.638246 1.207276 36.801425
31.065594 28.812676 4.141303
25.638246 28.812676 36.801425
-3.284155 2.513932 4.240372
-8.711503 2.513932 36.900494
-3.284155 30.119332 4.240372
-8.711503 30.119332 36.900494
35.918045 2.513932 4.240372
30.490697 2.513932 36.900494
35.918045 30.119332 4.240372
30.490697 30.119332 36.900494
-1.987079 1.902012 2.521361
-7.414427 1.902012 35.181483
-1.987079 29.507412 2.521361
-7.414427 29.507412 35.181483
37.215121 1.902012 2.521361
31.787773 1.902012 35.181483
37.215121 29.507412 2.521361
31.787773 29.507412 35.181483
32.626836 0.578793 1.033149
27.199488 0.578793 33.693270
32.626836 28.184193 1.033149
27.199488 28.184193 33.693270
31.213785 0.825401 2.954652
25.786437 0.825401 35.614774
31.213785 28.430801 2.954652
25.786437 28.430801 35.614774
32.535640 1.059127 2.301450
27.108292 1.059127 34.961572
32.535640 28.664527 2.301450
27.108292 28.664527 34.961572
-3.101194 2.045560 3.115776
-8.528542 2.045560 35.775897
-3.101194 29.650960 3.115776
-8.528542 29.650960 35.775897
36.101006 2.045560 3.115776
30.673658 2.045560 35.775897
36.101006 29.650960 3.115776
30.673658 29.650960 35.775897
-4.307822 1.485171 2.367859
-9.735170 1.485171 35.027981
-4.307822 29.090571 2.367859
-9.735170 29.090571 35.027981
34.894378 1.485171 2.367859
29.467030 1.485171 35.027981
34.894378 29.090571 2.367859
29.467030 29.090571 35.027981
-5.547263 1.491612 2.985135
-10.974611 1.491612 35.645257
-5.547263 29.097012 2.985135
-10.974611 29.097012 35.645257
33.654937 1.491612 2.985135
28.227589 1.491612 35.645257
33.654937 29.097012 2.985135
28.227589 29.097012 35.645257
-5.625873 1.787735 3.863594
-11.053221 1.787735 36.523716
-5.625873 29.393135 3.863594
-11.053221 29.393135 36.523716
33.576327 1.787735 3.863594
28.148979 1.787735 36.523716
33.576327 29.393135 3.863594
28.148979 29.393135 36.523716
-5.381639 0.605478 0.455064
-10.808987 0.605478 33.115186
-5.381639 28.210878 0.455064
-10.808987 28.210878 33.115186
33.820561 0.605478 0.455064
28.393213 0.605478 33.115186
33.820561 28.210878 0.455064
28.393213 28.210878 33.115186
-7.132325 0.313956 10.460427
-7.132325 27.919356 10.460427
32.069875 0.313956 10.460427
32.069875 27.919356 10.460427
-4.212104 1.037043 1.072341
-9.639452 1.037043 33.732463
-4.212104 28.642443 1.072341
-9.639452 28.642443 33.732463
34.990096 1.037043 1.072341
29.562748 1.037043 33.732463
34.990096 28.642443 1.072341
29.562748 28.642443 33.732463
-3.396721 1.021980 0.624843
-8.824069 1.021980 33.284964
-3.396721 28.627380 0.624843
-8.824069 28.627380 33.284964
35.805479 1.021980 0.624843
30.378131 1.021980 33.284964
35.805479 28.627380 0.624843
30.378131 28.627380 33.284964
17.339705 3.313568 13.608384
17.339705 30.918968 13.608384
-4.173486 4.173016 16.013475
35.028714 4.173016 16.013475
-3.219882 5.722599 16.958224
35.982318 5.722599 16.958224
-3.322206 6.257224 16.689322
35.879994 6.257224 16.689322
28.530899 0.257650 13.166384
28.530899 27.863050 13.166384
29.256478 1.207276 15.028011
29.256478 28.812676 15.028011
-5.093271 2.513932 15.127080
-5.093271 30.119332 15.127080
34.108929 2.513932 15.127080
34.108929 30.119332 15.127080
-3.796195 1.902012 13.408069
-3.796195 29.507412 13.408069
35.406005 1.902012 13.408069
35.406005 29.507412 13.408069
30.817720 0.578793 11.919856
30.817720 28.184193 11.919856
29.404669 0.825401 13.841360
29.404669 28.430801 13.841360
30.726524 1.059127 13.188157
30.726524 28.664527 13.188157
-4.910310 2.045560 14.002483
-4.910310 29.650960 14.002483
34.291890 2.045560 14.002483
34.291890 29.650960 14.002483
-6.116938 1.485171 13.254566
-6.116938 29.090571 13.254566
33.085262 1.485171 13.254566
33.085262 29.090571 13.254566
-7.356379 1.491612 13.871842
-7.356379 29.097012 13.871842
31.845821 1.491612 13.871842
31.845821 29.097012 13.871842
-7.434989 1.787735 14.750302
-7.434989 29.393135 14.750302
31.767211 1.787735 14.750302
31.767211 29.393135 14.750302
-7.190755 0.605478 11.341772
-7.190755 28.210878 11.341772
32.011445 0.605478 11.341772
32.011445 28.210878 11.341772
-8.941441 0.313956 21.347135
-8.941441 27.919356 21.347135
30.260759 0.313956 21.347135
30.260759 27.919356 21.347135
-6.021220 1.037043 11.959048
-6.021220 28.642443 11.959048
33.180980 1.037043 11.959048
33.180980 28.642443 11.959048
-5.205837 1.021980 11.511550
-5.205837 28.627380 11.511550
33.996363 1.021980 11.511550
33.996363 28.627380 11.511550
15.530589 3.313568 24.495091
15.530589 30.918968 24.495091
-5.982602 4.173016 26.900183
33.219598 4.173016 26.900183
0.398349 5.722599 -4.815191
-5.028998 5.722599 27.844931
39.600549 5.722599 -4.815191
34.173202 5.722599 27.844931
-5.131322 6.257224 27.576030
34.070878 6.257224 27.576030
26.721783 0.257650 24.053091
26.721783 27.863050 24.053091
27.447362 1.207276 25.914718
27.447362 28.812676 25.914718
-6.902387 2.513932 26.013787
-6.902387 30.119332 26.013787
32.299813 2.513932 26.013787
32.299813 30.119332 26.013787
-5.605311 1.902012 24.294776
-5.605311 29.507412 24.294776
33.596889 1.902012 24.294776
33.596889 29.507412 24.294776
29.008604 0.578793 22.806563
29.008604 28.184193 22.806563
27.595553 0.825401 24.728067
27.595553 28.430801 24.728067
28.917408 1.059127 24.074864
28.917408 28.664527 24.074864
-6.719426 2.045560 24.889190
-6.719426 29.650960 24.889190
32.482774 2.045560 24.889190
32.482774 29.650960 24.889190
-7.926054 1.485171 24.141273
-7.926054 29.090571 24.141273
31.276146 1.485171 24.141273
31.276146 29.090571 24.141273
-9.165495 1.491612 24.758550
-9.165495 29.097012 24.758550
30.036705 1.491612 24.758550
30.036705 29.097012 24.758550
-9.244105 1.787735 25.637009
-9.244105 29.393135 25.637009
29.958095 1.787735 25.637009
29.958095 29.393135 25.637009
-8.999871 0.605478 22.228479
-8.999871 28.210878 22.228479
30.202329 0.605478 22.228479
30.202329 28.210878 22.228479
-5.323209 0.313956 -0.426280
-10.750556 0.313956 32.233842
-5.323209 27.919356 -0.426280
-10.750556 27.919356 32.233842
33.878991 0.313956 -0.426280
28.451644 0.313956 32.233842
33.878991 27.919356 -0.426280
28.451644 27.919356 32.233842
-7.830336 1.037043 22.845755
-7.830336 28.642443 22.845755
31.371864 1.037043 22.845755
31.371864 28.642443 22.845755
-7.014953 1.021980 22.398257
-7.014953 28.627380 22.398257
32.187247 1.021980 22.398257
32.187247 28.627380 22.398257
19.148821 12.515368 2.721677
13.721473 12.515368 35.381799
-2.364370 13.374816 5.126768
36.837830 13.374816 5.126768
-1.410767 14.924399 6.071517
37.791433 14.924399 6.071517
-1.513090 15.459024 5.802615
37.689110 15.459024 5.802615
30.340015 9.459450 2.279677
24.912667 9.459450 34.939798
31.065594 10.409076 4.141303
25.638246 10.409076 36.801425
-3.284155 11.715732 4.240372
-8.711503 11.715732 36.900494
35.918045 11.715732 4.240372
30.490697 11.715732 36.900494
-1.987079 11.103812 2.521361
-7.414427 11.103812 35.181483
37.215121 11.103812 2.521361
31.787773 11.103812 35.181483
32.626836 9.780593 1.033149
27.199488 9.780593 33.693270
31.213785 10.027201 2.954652
25.786437 10.027201 35.614774
32.535640 10.260927 2.301450
27.108292 10.260927 34.961572
-3.101194 11.247360 3.115776
-8.528542 11.247360 35.775897
36.101006 11.247360 3.115776
30.673658 11.247360 35.775897
-4.307822 10.686971 2.367859
-9.735170 10.686971 35.027981
34.894378 10.686971 2.367859
29.467030 10.686971 35.027981
-5.547263 10.693412 2.985135
-10.974611 10.693412 35.645257
33.654937 10.693412 2.985135
28.227589 10.693412 35.645257
-5.625873 10.989535 3.863594
-11.053221 10.989535 36.523716
33.576327 10.989535 3.863594
28.148979 10.989535 36.523716
-5.381639 9.807278 0.455064
-10.808987 9.807278 33.115186
33.820561 9.807278 0.455064
28.393213 9.807278 33.115186
-7.132325 9.515756 10.460427
32.069875 9.515756 10.460427
-4.212104 10.238843 1.072341
-9.639452 10.238843 33.732463
34.990096 10.238843 1.072341
29.562748 10.238843 33.732463
-3.396721 10.223780 0.624843
-8.824069 10.223780 33.284964
35.805479 10.223780 0.624843
30.378131 10.223780 33.284964
17.339705 12.515368 13.608384
-4.173486 13.374816 16.013475
35.028714 13.374816 16.013475
-3.219882 14.924399 16.958224
35.982318 14.924399 16.958224
-3.322206 15.459024 16.689322
35.879994 15.459024 16.689322
28.530899 9.459450 13.166384
29.256478 10.409076 15.028011
-5.093271 11.715732 15.127080
34.108929 11.715732 15.127080
-3.796195 11.103812 13.408069
35.406005 11.103812 13.408069
30.817720 9.780593 11.919856
29.404669 10.027201 13.841360
30.726524 10.260927 13.188157
-4.910310 11.247360 14.002483
34.291890 11.247360 14.002483
-6.116938 10.686971 13.254566
33.085262 10.686971 13.254566
-7.356379 10.693412 13.871842
31.845821 10.693412 13.871842
-7.434989 10.989535 14.750302
31.767211 10.989535 14.750302
-7.190755 9.807278 11.341772
32.011445 9.807278 11.341772
-8.941441 9.515756 21.347135
30.260759 9.515756 21.347135
-6.021220 10.238843 11.959048
33.180980 10.238843 11.959048
-5.205837 10.223780 11.511550
33.996363 10.223780 11.511550
15.530589 12.515368 24.495091
-5.982602 13.374816 26.900183
33.219598 13.374816 26.900183
0.398349 14.924399 -4.815191
-5.028998 14.924399 27.844931
39.600549 14.924399 -4.815191
34.173202 14.924399 27.844931
-5.131322 15.459024 27.576030
34.070878 15.459024 27.576030
26.721783 9.459450 24.053091
27.447362 10.409076 25.914718
-6.902387 11.715732 26.013787
32.299813 11.715732 26.013787
-5.605311 11.103812 24.294776
33.596889 11.103812 24.294776
29.008604 9.780593 22.806563
27.595553 10.027201 24.728067
28.917408 10.260927 24.074864
-6.719426 11.247360 24.889190
32.482774 11.247360 24.889190
-7.926054 10.686971 24.141273
31.276146 10.686971 24.141273
-9.165495 10.693412 24.758550
30.036705 10.693412 24.758550
-9.244105 10.989535 25.637009
29.958095 10.989535 25.637009
-8.999871 9.807278 22.228479
30.202329 9.807278 22.228479
-5.323209 9.515756 -0.426280
-10.750556 9.515756 32.233842
33.878991 9.515756 -0.426280
28.451644 9.515756 32.233842
-7.830336 10.238843 22.845755
31.371864 10.238843 22.845755
-7.014953 10.223780 22.398257
32.187247 10.223780 22.398257
19.148821 21.717168 2.721677
13.721473 21.717168 35.381799
-2.364370 22.576616 5.126768
36.837830 22.576616 5.126768
-1.410767 -3.479201 6.071517
-1.410767 24.126199 6.071517
37.791433 -3.479201 6.071517
37.791433 24.126199 6.071517
-1.513090 -2.944576 5.802615
-1.513090 24.660824 5.802615
37.689110 -2.944576 5.802615
37.689110 24.660824 5.802615
30.340015 18.661250 2.279677
24.912667 18.661250 34.939798
31.065594 19.610876 4.141303
25.638246 19.610876 36.801425
-3.284155 20.917532 4.240372
-8.711503 20.917532 36.900494
35.918045 20.917532 4.240372
30.490697 20.917532 36.900494
-1.987079 20.305612 2.521361
-7.414427 20.305612 35.181483
37.215121 20.305612 2.521361
31.787773 20.305612 35.181483
32.626836 18.982393 1.033149
27.199488 18.982393 33.693270
31.213785 19.229001 2.954652
25.786437 19.229001 35.614774
32.535640 19.462727 2.301450
27.108292 19.462727 34.961572
-3.101194 20.449160 3.115776
-8.528542 20.449160 35.775897
36.101006 20.449160 3.115776
30.673658 20.449160 35.775897
-4.307822 19.888771 2.367859
-9.735170 19.888771 35.027981
34.894378 19.888771 2.367859
29.467030 19.888771 35.027981
-5.547263 19.895212 2.985135
-10.974611 19.895212 35.645257
33.654937 19.895212 2.985135
28.227589 19.895212 35.645257
-5.625873 20.191335 3.863594
-11.053221 20.191335 36.523716
33.576327 20.191335 3.863594
28.148979 20.191335 36.523716
-5.381639 19.009078 0.455064
-10.808987 19.009078 33.115186
33.820561 19.009078 0.455064
28.393213 19.009078 33.115186
-7.132325 18.717556 10.460427
32.069875 18.717556 10.460427
-4.212104 19.440643 1.072341
-9.639452 19.440643 33.732463
34.990096 19.440643 1.072341
29.562748 19.440643 33.732463
-3.396721 19.425580 0.624843
-8.824069 19.425580 33.284964
35.805479 19.425580 0.624843
30.378131 19.425580 33.284964
17.339705 21.717168 13.608384
-4.173486 22.576616 16.013475
35.028714 22.576616 16.013475
-3.219882 -3.479201 16.958224
-3.219882 24.126199 16.958224
35.982318 -3.479201 16.958224
35.982318 24.126199 16.958224
-3.322206 -2.944576 16.689322
-3.322206 24.660824 16.689322
35.879994 -2.944576 16.689322
35.879994 24.660824 16.689322
28.530899 18.661250 13.166384
29.256478 19.610876 15.028011
-5.093271 20.917532 15.127080
34.108929 20.917532 15.127080
-3.796195 20.305612 13.408069
35.406005 20.305612 13.408069
30.817720 18.982393 11.919856
29.404669 19.229001 13.841360
30.726524 19.462727 13.188157
-4.910310 20.449160 14.002483
34.291890 20.449160 14.002483
-6.116938 19.888771 13.254566
33.085262 19.888771 13.254566
-7.356379 19.895212 13.871842
31.845821 19.895212 13.871842
-7.434989 20.191335 14.750302
31.767211 20.191335 14.750302
-7.190755 19.009078 11.341772
32.011445 19.009078 11.341772
-8.941441 18.717556 21.347135
30.260759 18.717556 21.347135
-6.021220 19.440643 11.959048
33.180980 19.440643 11.959048
-5.205837 19.425580 11.511550
33.996363 19.425580 11.511550
15.530589 21.717168 24.495091
-5.982602 22.576616 26.900183
33.219598 22.576616 26.900183
0.398349 -3.479201 -4.815191
-5.028998 -3.479201 27.844931
0.398349 24.126199 -4.815191
-5.028998 24.126199 27.844931
39.600549 -3.479201 -4.815191
34.173202 -3.479201 27.844931
39.600549 24.126199 -4.815191
34.173202 24.126199 27.844931
-5.131322 -2.944576 27.576030
-5.131322 24.660824 27.576030
34.070878 -2.944576 27.576030
34.070878 24.660824 27.576030
26.721783 18.661250 24.053091
27.447362 19.610876 25.914718
-6.902387 20.917532 26.013787
32.299813 20.917532 26.013787
-5.605311 20.305612 24.294776
33.596889 20.305612 24.294776
29.008604 18.982393 22.806563
27.595553 19.229001 24.728067
28.917408 19.462727 24.074864
-6.719426 20.449160 24.889190
32.482774 20.449160 24.889190
-7.926054 19.888771 24.141273
31.276146 19.888771 24.141273
-9.165495 19.895212 24.758550
30.036705 19.895212 24.758550
-9.244105 20.191335 25.637009
29.958095 20.191335 25.637009
-8.999871 19.009078 22.228479
30.202329 19.009078 22.228479
-5.323209 18.717556 -0.426280
-10.750556 18.717556 32.233842
33.878991 18.717556 -0.426280
28.451644 18.717556 32.233842
-7.830336 19.440643 22.845755
31.371864 19.440643 22.845755
-7.014953 19.425580 22.398257
32.187247 19.425580 22.398257
LINES 762 2286
2 0 335
2 1 336
2 2 337
2 3 338
2 4 339
2 5 340
2 6 341
2 7 342
2 8 9
2 8 19
2 9 10
2 11 31
2 12 32
2 13 33
2 14 34
2 15 31
2 16 32
2 17 33
2 18 34
2 19 39
2 20 40
2 21 41
2 22 42
2 23 39
2 23 309
2 24 40
2 24 310
2 25 41
2 25 311
2 26 42
2 26 312
2 27 35
2 27 55
2 28 36
2 28 56
2 29 37
2 29 57
2 30 38
2 30 58
2 31 35
2 32 36
2 33 37
2 34 38
2 35 47
2 36 48
2 37 49
2 38 50
2 39 43
2 40 44
2 41 45
2 42 46
2 43 47
2 43 61
2 44 48
2 44 62
2 45 49
2 45 63
2 46 50
2 46 64
2 47 51
2 48 52
2 49 53
2 50 54
2 55 61
2 55 138
2 56 62
2 56 139
2 57 63
2 57 140
2 58 64
2 58 141
2 59 98
2 60 99
2 61 65
2 62 66
2 63 67
2 64 68
2 69 431
2 70 432
2 71 433
2 72 434
2 73 74
2 73 80
2 74 75
2 76 86
2 77 87
2 78 86
2 79 87
2 80 90
2 81 91
2 82 90
2 82 415
2 83 91
2 83 416
2 84 88
2 84 98
2 85 89
2 85 99
2 86 88
2 87 89
2 88 94
2 89 95
2 90 92
2 91 93
2 92 94
2 92 102
2 93 95
2 93 103
2 94 96
2 95 97
2 98 102
2 99 103
2 100 136
2 101 137
2 102 104
2 103 105
2 106 491
2 107 492
2 108 493
2 109 494
2 110 112
2 110 118
2 112 113
2 114 124
2 115 125
2 116 124
2 117 125
2 118 128
2 119 129
2 120 128
2 120 473
2 121 129
2 121 474
2 122 126
2 122 136
2 123 127
2 123 137
2 124 126
2 125 127
2 126 132
2 127 133
2 128 130
2 129 131
2 130 132
2 130 142
2 131 133
2 131 143
2 132 134
2 133 135
2 136 142
2 137 143
2 142 144
2 143 145
2 146 553
2 147 554
2 148 555
2 149 556
2 150 151
2 150 157
2 151 152
2 153 163
2 154 164
2 155 163
2 156 164
2 157 167
2 158 168
2 159 167
2 159 537
2 160 168
2 160 538
2 161 165
2 161 175
2 162 166
2 162 176
2 163 165
2 164 166
2 165 171
2 166 172
2 167 169
2 168 170
2 169 171
2 169 178
2 170 172
2 170 179
2 171 173
2 172 174
2 175 178
2 175 220
2 176 179
2 176 221
2 177 198
2 178 180
2 179 181
2 182 604
2 183 605
2 184 185
2 184 189
2 185 186
2 187 192
2 188 192
2 189 194
2 190 194
2 190 593
2 191 193
2 191 198
2 192 193
2 193 196
2 194 195
2 195 196
2 195 200
2 196 197
2 198 200
2 199 219
2 200 201
2 202 638
2 203 639
2 204 206
2 204 210
2 206 207
2 208 213
2 209 213
2 210 215
2 211 215
2 211 625
2 212 214
2 212 219
2 213 214
2 214 217
2 215 216
2 216 217
2 216 222
2 217 218
2 219 222
2 222 223
2 224 681
2 225 682
2 226 683
2 227 684
2 228 230
2 228 237
2 229 231
2 230 232
2 233 243
2 234 244
2 235 243
2 236 244
2 237 247
2 238 248
2 239 247
2 239 661
2 240 248
2 240 662
2 241 245
2 241 255
2 242 246
2 242 256
2 243 245
2 244 246
2 245 251
2 246 252
2 247 249
2 248 250
2 249 251
2 249 258
2 250 252
2 250 259
2 251 253
2 252 254
2 255 258
2 255 305
2 256 259
2 256 306
2 257 280
2 258 260
2 259 261
2 262 736
2 263 737
2 264 266
2 264 271
2 265 267
2 266 268
2 269 274
2 270 274
2 271 276
2 272 276
2 272 721
2 273 275
2 273 280
2 274 275
2 275 278
2 276 277
2 277 278
2 277 282
2 278 279
2 280 282
2 281 304
2 282 283
2 284 776
2 285 777
2 286 290
2 286 295
2 288 291
2 290 292
2 293 298
2 294 298
2 295 300
2 296 300
2 296 757
2 297 299
2 297 304
2 298 299
2 299 302
2 300 301
2 301 302
2 301 307
2 302 303
2 304 307
2 307 308
2 313 315
2 313 327
2 314 316
2 314 331
2 315 317
2 316 318
2 319 347
2 320 348
2 321 349
2 322 350
2 323 347
2 324 348
2 325 349
2 326 350
2 327 355
2 328 356
2 329 357
2 330 358
2 331 359
2 332 360
2 333 361
2 334 362
2 335 355
2 336 356
2 337 357
2 338 358
2 339 359
2 340 360
2 341 361
2 342 362
2 343 351
2 343 391
2 344 352
2 344 392
2 345 353
2 345 393
2 346 354
2 346 394
2 347 351
2 348 352
2 349 353
2 350 354
2 351 375
2 352 376
2 353 377
2 354 378
2 355 363
2 356 364
2 357 365
2 358 366
2 359 367
2 360 368
2 361 369
2 362 370
2 363 371
2 363 399
2 364 372
2 364 400
2 365 373
2 365 401
2 366 374
2 366 402
2 367 375
2 367 403
2 368 376
2 368 404
2 369 377
2 369 405
2 370 378
2 370 406
2 371 379
2 372 380
2 373 381
2 374 382
2 375 383
2 376 384
2 377 385
2 378 386
2 387 399
2 387 521
2 388 400
2 388 522
2 389 401
2 389 523
2 390 402
2 390 524
2 391 403
2 391 525
2 392 404
2 392 526
2 393 405
2 393 527
2 394 406
2 394 528
2 395 457
2 396 458
2 397 459
2 398 460
2 399 407
2 400 408
2 401 409
2 402 410
2 403 411
2 404 412
2 405 413
2 406 414
2 417 419
2 417 427
2 418 420
2 418 429
2 419 421
2 420 422
2 423 437
2 424 438
2 425 437
2 426 438
2 427 441
2 428 442
2 429 443
2 430 444
2 431 441
2 432 442
2 433 443
2 434 444
2 435 439
2 435 459
2 436 440
2 436 460
2 437 439
2 438 440
2 439 451
2 440 452
2 441 445
2 442 446
2 443 447
2 444 448
2 445 449
2 445 465
2 446 450
2 446 466
2 447 451
2 447 467
2 448 452
2 448 468
2 449 453
2 450 454
2 451 455
2 452 456
2 457 465
2 458 466
2 459 467
2 460 468
2 461 517
2 462 518
2 463 519
2 464 520
2 465 469
2 466 470
2 467 471
2 468 472
2 475 478
2 475 487
2 476 480
2 476 489
2 478 481
2 480 482
2 483 497
2 484 498
2 485 497
2 486 498
2 487 501
2 488 502
2 489 503
2 490 504
2 491 501
2 492 502
2 493 503
2 494 504
2 495 499
2 495 519
2 496 500
2 496 520
2 497 499
2 498 500
2 499 511
2 500 512
2 501 505
2 502 506
2 503 507
2 504 508
2 505 509
2 505 529
2 506 510
2 506 530
2 507 511
2 507 531
2 508 512
2 508 532
2 509 513
2 510 514
2 511 515
2 512 516
2 517 529
2 518 530
2 519 531
2 520 532
2 529 533
2 530 534
2 531 535
2 532 536
2 539 541
2 539 549
2 540 542
2 540 551
2 541 543
2 542 544
2 545 559
2 546 560
2 547 559
2 548 560
2 549 563
2 550 564
2 551 565
2 552 566
2 553 563
2 554 564
2 555 565
2 556 566
2 557 561
2 557 581
2 558 562
2 558 582
2 559 561
2 560 562
2 561 573
2 562 574
2 563 567
2 564 568
2 565 569
2 566 570
2 567 571
2 567 585
2 568 572
2 568 586
2 569 573
2 569 587
2 570 574
2 570 588
2 571 575
2 572 576
2 573 577
2 574 578
2 579 585
2 579 653
2 580 586
2 580 654
2 581 587
2 581 655
2 582 588
2 582 656
2 583 617
2 584 618
2 585 589
2 586 590
2 587 591
2 588 592
2 594 596
2 594 602
2 595 597
2 595 603
2 596 598
2 597 599
2 600 607
2 601 607
2 602 609
2 603 610
2 604 609
2 605 610
2 606 608
2 606 618
2 607 608
2 608 614
2 609 611
2 610 612
2 611 613
2 611 621
2 612 614
2 612 622
2 613 615
2 614 616
2 617 621
2 618 622
2 619 651
2 620 652
2 621 623
2 622 624
2 626 629
2 626 636
2 627 631
2 627 637
2 629 632
2 631 633
2 634 641
2 635 641
2 636 643
2 637 644
2 638 643
2 639 644
2 640 642
2 640 652
2 641 642
2 642 648
2 643 645
2 644 646
2 645 647
2 645 657
2 646 648
2 646 658
2 647 649
2 648 650
2 651 657
2 652 658
2 657 659
2 658 660
2 663 666
2 663 677
2 664 668
2 664 679
2 665 669
2 666 670
2 667 671
2 668 672
2 673 687
2 674 688
2 675 687
2 676 688
2 677 691
2 678 692
2 679 693
2 680 694
2 681 691
2 682 692
2 683 693
2 684 694
2 685 689
2 685 709
2 686 690
2 686 710
2 687 689
2 688 690
2 689 701
2 690 702
2 691 695
2 692 696
2 693 697
2 694 698
2 695 699
2 695 713
2 696 700
2 696 714
2 697 701
2 697 715
2 698 702
2 698 716
2 699 703
2 700 704
2 701 705
2 702 706
2 707 713
2 707 791
2 708 714
2 708 792
2 709 715
2 709 793
2 710 716
2 710 794
2 711 749
2 712 750
2 713 717
2 714 718
2 715 719
2 716 720
2 722 725
2 722 734
2 723 727
2 723 735
2 724 728
2 725 729
2 726 730
2 727 731
2 732 739
2 733 739
2 734 741
2 735 742
2 736 741
2 737 742
2 738 740
2 738 750
2 739 740
2 740 746
2 741 743
2 742 744
2 743 745
2 743 753
2 744 746
2 744 754
2 745 747
2 746 748
2 749 753
2 750 754
2 751 789
2 752 790
2 753 755
2 754 756
2 758 763
2 758 774
2 759 767
2 759 775
2 761 768
2 763 769
2 765 770
2 767 771
2 772 779
2 773 779
2 774 781
2 775 782
2 776 781
2 777 782
2 778 780
2 778 790
2 779 780
2 780 786
2 781 783
2 782 784
2 783 785
2 783 795
2 784 786
2 784 796
2 785 787
2 786 788
2 789 795
2 790 796
2 795 797
2 796 798
