# vtk DataFile Version 1.0
Cube
ASCII

DATASET POLYDATA
POINTS 351 float
-0.452279 3.313568 2.721677
38.749921 3.313568 2.721677
17.236730 4.173016 5.126768
18.190333 5.722599 6.071517
18.088010 6.257224 5.802615
10.738915 0.257650 2.279677
11.464494 1.207276 4.141303
16.316945 2.513932 4.240372
17.614021 1.902012 2.521361
13.025736 0.578793 1.033149
11.612685 0.825401 2.954652
12.934540 1.059127 2.301450
16.499906 2.045560 3.115776
15.293278 1.485171 2.367859
14.053837 1.491612 2.985135
13.975227 1.787735 3.863594
14.219461 0.605478 0.455064
12.468775 0.313956 10.460427
15.388996 1.037043 1.072341
16.204379 1.021980 0.624843
-2.261395 3.313568 13.608384
36.940805 3.313568 13.608384
15.427614 4.173016 16.013475
16.381218 5.722599 16.958224
16.278894 6.257224 16.689322
8.929799 0.257650 13.166384
9.655378 1.207276 15.028011
14.507829 2.513932 15.127080
15.804905 1.902012 13.408069
11.216620 0.578793 11.919856
9.803569 0.825401 13.841360
11.125424 1.059127 13.188157
14.690790 2.045560 14.002483
13.484162 1.485171 13.254566
12.244721 1.491612 13.871842
12.166111 1.787735 14.750302
12.410345 0.605478 11.341772
10.659659 0.313956 21.347135
13.579880 1.037043 11.959048
14.395263 1.021980 11.511550
-4.070511 3.313568 24.495091
35.131689 3.313568 24.495091
13.618498 4.173016 26.900183
14.572102 5.722599 27.844931
14.469778 6.257224 27.576030
7.120683 0.257650 24.053091
7.846262 1.207276 25.914718
12.698713 2.513932 26.013787
13.995789 1.902012 24.294776
9.407504 0.578793 22.806563
7.994453 0.825401 24.728067
9.316308 1.059127 24.074864
12.881674 2.045560 24.889190
11.675046 1.485171 24.141273
10.435605 1.491612 24.758550
10.356995 1.787735 25.637009
10.601229 0.605478 22.228479
8.850544 0.313956 32.233842
11.770764 1.037043 22.845755
12.586147 1.021980 22.398257
-0.452279 12.515368 2.721677
38.749921 12.515368 2.721677
17.236730 13.374816 5.126768
18.190333 14.924399 6.071517
18.088010 15.459024 5.802615
10.738915 9.459450 2.279677
11.464494 10.409076 4.141303
16.316945 11.715732 4.240372
17.614021 11.103812 2.521361
13.025736 9.780593 1.033149
11.612685 10.027201 2.954652
12.934540 10.260927 2.301450
16.499906 11.247360 3.115776
15.293278 10.686971 2.367859
14.053837 10.693412 2.985135
13.975227 10.989535 3.863594
14.219461 9.807278 0.455064
12.468775 9.515756 10.460427
15.388996 10.238843 1.072341
16.204379 10.223780 0.624843
-2.261395 12.515368 13.608384
36.940805 12.515368 13.608384
15.427614 13.374816 16.013475
16.381218 14.924399 16.958224
16.278894 15.459024 16.689322
8.929799 9.459450 13.166384
9.655378 10.409076 15.028011
14.507829 11.715732 15.127080
15.804905 11.103812 13.408069
11.216620 9.780593 11.919856
9.803569 10.027201 13.841360
11.125424 10.260927 13.188157
14.690790 11.247360 14.002483
13.484162 10.686971 13.254566
12.244721 10.693412 13.871842
12.166111 10.989535 14.750302
12.410345 9.807278 11.341772
10.659659 9.515756 21.347135
13.579880 10.238843 11.959048
14.395263 10.223780 11.511550
-4.070511 12.515368 24.495091
35.131689 12.515368 24.495091
13.618498 13.374816 26.900183
14.572102 14.924399 27.844931
14.469778 15.459024 27.576030
7.120683 9.459450 24.053091
7.846262 10.409076 25.914718
12.698713 11.715732 26.013787
13.995789 11.103812 24.294776
9.407504 9.780593 22.806563
7.994453 10.027201 24.728067
9.316308 10.260927 24.074864
12.881674 11.247360 24.889190
11.675046 10.686971 24.141273
10.435605 10.693412 24.758550
10.356995 10.989535 25.637009
10.601229 9.807278 22.228479
8.850544 9.515756 32.233842
11.770764 10.238843 22.845755
12.586147 10.223780 22.398257
-0.452279 21.717168 2.721677
38.749921 21.717168 2.721677
17.236730 22.576616 5.126768
18.190333 24.126199 6.071517
18.088010 24.660824 5.802615
10.738915 18.661250 2.279677
11.464494 19.610876 4.141303
16.316945 20.917532 4.240372
17.614021 20.305612 2.521361
13.025736 18.982393 1.033149
11.612685 19.229001 2.954652
12.934540 19.462727 2.301450
16.499906 20.449160 3.115776
15.293278 19.888771 2.367859
14.053837 19.895212 2.985135
13.975227 20.191335 3.863594
14.219461 19.009078 0.455064
12.468775 18.717556 10.460427
15.388996 19.440643 1.072341
16.204379 19.425580 0.624843
-2.261395 21.717168 13.608384
36.940805 21.717168 13.608384
15.427614 22.576616 16.013475
16.381218 24.126199 16.958224
16.278894 24.660824 16.689322
8.929799 18.661250 13.166384
9.655378 19.610876 15.028011
14.507829 20.917532 15.127080
15.804905 20.305612 13.408069
11.216620 18.982393 11.919856
9.803569 19.229001 13.841360
11.125424 19.462727 13.188157
14.690790 20.449160 14.002483
13.484162 19.888771 13.254566
12.244721 19.895212 13.871842
12.166111 20.191335 14.750302
12.410345 19.009078 11.341772
10.659659 18.717556 21.347135
13.579880 19.440643 11.959048
14.395263 19.425580 11.511550
-4.070511 21.717168 24.495091
35.131689 21.717168 24.495091
13.618498 22.576616 26.900183
14.572102 24.126199 27.844931
14.469778 24.660824 27.576030
7.120683 18.661250 24.053091
7.846262 19.610876 25.914718
12.698713 20.917532 26.013787
13.995789 20.305612 24.294776
9.407504 18.982393 22.806563
7.994453 19.229001 24.728067
9.316308 19.462727 24.074864
12.881674 20.449160 24.889190
11.675046 19.888771 24.141273
10.435605 19.895212 24.758550
10.356995 20.191335 25.637009
10.601229 19.009078 22.228479
8.850544 18.717556 32.233842
11.770764 19.440643 22.845755
12.586147 19.425580 22.398257
19.148821 3.313568 2.721677
36.837830 4.173016 5.126768
37.791433 5.722599 6.071517
37.689110 6.257224 5.802615
30.340015 0.257650 2.279677
31.065594 1.207276 4.141303
35.918045 2.513932 4.240372
37.215121 1.902012 2.521361
32.626836 0.578793 1.033149
31.213785 0.825401 2.954652
32.535640 1.059127 2.301450
36.101006 2.045560 3.115776
34.894378 1.485171 2.367859
33.654937 1.491612 2.985135
33.576327 1.787735 3.863594
33.820561 0.605478 0.455064
32.069875 0.313956 10.460427
34.990096 1.037043 1.072341
35.805479 1.021980 0.624843
17.339705 3.313568 13.608384
35.028714 4.173016 16.013475
35.982318 5.722599 16.958224
35.879994 6.257224 16.689322
28.530899 0.257650 13.166384
29.256478 1.207276 15.028011
34.108929 2.513932 15.127080
35.406005 1.902012 13.408069
30.817720 0.578793 11.919856
29.404669 0.825401 13.841360
30.726524 1.059127 13.188157
34.291890 2.045560 14.002483
33.085262 1.485171 13.254566
31.845821 1.491612 13.871842
31.767211 1.787735 14.750302
32.011445 0.605478 11.341772
30.260759 0.313956 21.347135
33.180980 1.037043 11.959048
33.996363 1.021980 11.511550
15.530589 3.313568 24.495091
33.219598 4.173016 26.900183
34.173202 5.722599 27.844931
34.070878 6.257224 27.576030
26.721783 0.257650 24.053091
27.447362 1.207276 25.914718
32.299813 2.513932 26.013787
33.596889 1.902012 24.294776
29.008604 0.578793 22.806563
27.595553 0.825401 24.728067
28.917408 1.059127 24.074864
32.482774 2.045560 24.889190
31.276146 1.485171 24.141273
30.036705 1.491612 24.758550
29.958095 1.787735 25.637009
30.202329 0.605478 22.228479
28.451644 0.313956 32.233842
31.371864 1.037043 22.845755
32.187247 1.021980 22.398257
19.148821 12.515368 2.721677
36.837830 13.374816 5.126768
37.791433 14.924399 6.071517
37.689110 15.459024 5.802615
30.340015 9.459450 2.279677
31.065594 10.409076 4.141303
35.918045 11.715732 4.240372
37.215121 11.103812 2.521361
32.626836 9.780593 1.033149
31.213785 10.027201 2.954652
32.535640 10.260927 2.301450
36.101006 11.247360 3.115776
34.894378 10.686971 2.367859
33.654937 10.693412 2.985135
33.576327 10.989535 3.863594
33.820561 9.807278 0.455064
32.069875 9.515756 10.460427
34.990096 10.238843 1.072341
35.805479 10.223780 0.624843
17.339705 12.515368 13.608384
35.028714 13.374816 16.013475
35.982318 14.924399 16.958224
35.879994 15.459024 16.689322
28.530899 9.459450 13.166384
29.256478 10.409076 15.028011
34.108929 11.715732 15.127080
35.406005 11.103812 13.408069
30.817720 9.780593 11.919856
29.404669 10.027201 13.841360
30.726524 10.260927 13.188157
34.291890 11.247360 14.002483
33.085262 10.686971 13.254566
31.845821 10.693412 13.871842
31.767211 10.989535 14.750302
32.011445 9.807278 11.341772
30.260759 9.515756 21.347135
33.180980 10.238843 11.959048
33.996363 10.223780 11.511550
15.530589 12.515368 24.495091
33.219598 13.374816 26.900183
34.173202 14.924399 27.844931
34.070878 15.459024 27.576030
26.721783 9.459450 24.053091
27.447362 10.409076 25.914718
32.299813 11.715732 26.013787
33.596889 11.103812 24.294776
29.008604 9.780593 22.806563
27.595553 10.027201 24.728067
28.917408 10.260927 24.074864
32.482774 11.247360 24.889190
31.276146 10.686971 24.141273
30.036705 10.693412 24.758550
29.958095 10.989535 25.637009
30.202329 9.807278 22.228479
28.451644 9.515756 32.233842
31.371864 10.238843 22.845755
32.187247 10.223780 22.398257
19.148821 21.717168 2.721677
36.837830 22.576616 5.126768
37.791433 24.126199 6.071517
37.689110 24.660824 5.802615
30.340015 18.661250 2.279677
31.065594 19.610876 4.141303
35.918045 20.917532 4.240372
37.215121 20.305612 2.521361
32.626836 18.982393 1.033149
31.213785 19.229001 2.954652
32.535640 19.462727 2.301450
36.101006 20.449160 3.115776
34.894378 19.888771 2.367859
33.654937 19.895212 2.985135
33.576327 20.191335 3.863594
33.820561 19.009078 0.455064
32.069875 18.717556 10.460427
34.990096 19.440643 1.072341
35.805479 19.425580 0.624843
17.339705 21.717168 13.608384
35.028714 22.576616 16.013475
35.982318 24.126199 16.958224
35.879994 24.660824 16.689322
28.530899 18.661250 13.166384
29.256478 19.610876 15.028011
34.108929 20.917532 15.127080
35.406005 20.305612 13.408069
30.817720 18.982393 11.919856
29.404669 19.229001 13.841360
30.726524 19.462727 13.188157
34.291890 20.449160 14.002483
33.085262 19.888771 13.254566
31.845821 19.895212 13.871842
31.767211 20.191335 14.750302
32.011445 19.009078 11.341772
30.260759 18.717556 21.347135
33.180980 19.440643 11.959048
33.996363 19.425580 11.511550
15.530589 21.717168 24.495091
33.219598 22.576616 26.900183
34.173202 24.126199 27.844931
34.070878 24.660824 27.576030
26.721783 18.661250 24.053091
27.447362 19.610876 25.914718
32.299813 20.917532 26.013787
33.596889 20.305612 24.294776
29.008604 18.982393 22.806563
27.595553 19.229001 24.728067
28.917408 19.462727 24.074864
32.482774 20.449160 24.889190
31.276146 19.888771 24.141273
30.036705 19.895212 24.758550
29.958095 20.191335 25.637009
30.202329 19.009078 22.228479
28.451644 18.717556 32.233842
31.371864 19.440643 22.845755
32.187247 19.425580 22.398257
POINT_DATA 351
SCALARS my_scalars float
LOOKUP_TABLE default
2
2
2
1.52
1.09
1.52
1.52
1.52
1.52
1.55
1.7
1.7
1.7
1.7
1.7
1.09
1.7
1.09
1.7
1.09
2
2
2
1.52
1.09
1.52
1.52
1.52
1.52
1.55
1.7
1.7
1.7
1.7
1.7
1.09
1.7
1.09
1.7
1.09
2
2
2
1.52
1.09
1.52
1.52
1.52
1.52
1.55
1.7
1.7
1.7
1.7
1.7
1.09
1.7
1.09
1.7
1.09
2
2
2
1.52
1.09
1.52
1.52
1.52
1.52
1.55
1.7
1.7
1.7
1.7
1.7
1.09
1.7
1.09
1.7
1.09
2
2
2
1.52
1.09
1.52
1.52
1.52
1.52
1.55
1.7
1.7
1.7
1.7
1.7
1.09
1.7
1.09
1.7
1.09
2
2
2
1.52
1.09
1.52
1.52
1.52
1.52
1.55
1.7
1.7
1.7
1.7
1.7
1.09
1.7
1.09
1.7
1.09
2
2
2
1.52
1.09
1.52
1.52
1.52
1.52
1.55
1.7
1.7
1.7
1.7
1.7
1.09
1.7
1.09
1.7
1.09
2
2
2
1.52
1.09
1.52
1.52
1.52
1.52
1.55
1.7
1.7
1.7
1.7
1.7
1.09
1.7
1.09
1.7
1.09
2
2
2
1.52
1.09
1.52
1.52
1.52
1.52
1.55
1.7
1.7
1.7
1.7
1.7
1.09
1.7
1.09
1.7
1.09
2
2
1.52
1.09
1.52
1.52
1.52
1.52
1.55
1.7
1.7
1.7
1.7
1.7
1.09
1.7
1.09
1.7
1.09
2
2
1.52
1.09
1.52
1.52
1.52
1.52
1.55
1.7
1.7
1.7
1.7
1.7
1.09
1.7
1.09
1.7
1.09
2
2
1.52
1.09
1.52
1.52
1.52
1.52
1.55
1.7
1.7
1.7
1.7
1.7
1.09
1.7
1.09
1.7
1.09
2
2
1.52
1.09
1.52
1.52
1.52
1.52
1.55
1.7
1.7
1.7
1.7
1.7
1.09
1.7
1.09
1.7
1.09
2
2
1.52
1.09
1.52
1.52
1.52
1.52
1.55
1.7
1.7
1.7
1.7
1.7
1.09
1.7
1.09
1.7
1.09
2
2
1.52
1.09
1.52
1.52
1.52
1.52
1.55
1.7
1.7
1.7
1.7
1.7
1.09
1.7
1.09
1.7
1.09
2
2
1.52
1.09
1.52
1.52
1.52
1.52
1.55
1.7
1.7
1.7
1.7
1.7
1.09
1.7
1.09
1.7
1.09
2
2
1.52
1.09
1.52
1.52
1.52
1.52
1.55
1.7
1.7
1.7
1.7
1.7
1.09
1.7
1.09
1.7
1.09
2
2
1.52
1.09
1.52
1.52
1.52
1.52
1.55
1.7
1.7
1.7
1.7
1.7
1.09
1.7
1.09
1.7
1.09
VECTORS vectors float
0.4375 0 0
0.4375 0 0
0.4375 0 0
0.03125 0 0
0.25 0 0
0.03125 0 0
0.03125 0 0
0.03125 0 0
0.03125 0 0
0 0 0
0.3125 0 0
0.3125 0 0
0.3125 0 0
0.3125 0 0
0.3125 0 0
0.25 0 0
0.3125 0 0
0.25 0 0
0.3125 0 0
0.25 0 0
0.4375 0 0
0.4375 0 0
0.4375 0 0
0.03125 0 0
0.25 0 0
0.03125 0 0
0.03125 0 0
0.03125 0 0
0.03125 0 0
0 0 0
0.3125 0 0
0.3125 0 0
0.3125 0 0
0.3125 0 0
0.3125 0 0
0.25 0 0
0.3125 0 0
0.25 0 0
0.3125 0 0
0.25 0 0
0.4375 0 0
0.4375 0 0
0.4375 0 0
0.03125 0 0
0.25 0 0
0.03125 0 0
0.03125 0 0
0.03125 0 0
0.03125 0 0
0 0 0
0.3125 0 0
0.3125 0 0
0.3125 0 0
0.3125 0 0
0.3125 0 0
0.25 0 0
0.3125 0 0
0.25 0 0
0.3125 0 0
0.25 0 0
0.4375 0 0
0.4375 0 0
0.4375 0 0
0.03125 0 0
0.25 0 0
0.03125 0 0
0.03125 0 0
0.03125 0 0
0.03125 0 0
0 0 0
0.3125 0 0
0.3125 0 0
0.3125 0 0
0.3125 0 0
0.3125 0 0
0.25 0 0
0.3125 0 0
0.25 0 0
0.3125 0 0
0.25 0 0
0.4375 0 0
0.4375 0 0
0.4375 0 0
0.03125 0 0
0.25 0 0
0.03125 0 0
0.03125 0 0
0.03125 0 0
0.03125 0 0
0 0 0
0.3125 0 0
0.3125 0 0
0.3125 0 0
0.3125 0 0
0.3125 0 0
0.25 0 0
0.3125 0 0
0.25 0 0
0.3125 0 0
0.25 0 0
0.4375 0 0
0.4375 0 0
0.4375 0 0
0.03125 0 0
0.25 0 0
0.03125 0 0
0.03125 0 0
0.03125 0 0
0.03125 0 0
0 0 0
0.3125 0 0
0.3125 0 0
0.3125 0 0
0.3125 0 0
0.3125 0 0
0.25 0 0
0.3125 0 0
0.25 0 0
0.3125 0 0
0.25 0 0
0.4375 0 0
0.4375 0 0
0.4375 0 0
0.03125 0 0
0.25 0 0
0.03125 0 0
0.03125 0 0
0.03125 0 0
0.03125 0 0
0 0 0
0.3125 0 0
0.3125 0 0
0.3125 0 0
0.3125 0 0
0.3125 0 0
0.25 0 0
0.3125 0 0
0.25 0 0
0.3125 0 0
0.25 0 0
0.4375 0 0
0.4375 0 0
0.4375 0 0
0.03125 0 0
0.25 0 0
0.03125 0 0
0.03125 0 0
0.03125 0 0
0.03125 0 0
0 0 0
0.3125 0 0
0.3125 0 0
0.3125 0 0
0.3125 0 0
0.3125 0 0
0.25 0 0
0.3125 0 0
0.25 0 0
0.3125 0 0
0.25 0 0
0.4375 0 0
0.4375 0 0
0.4375 0 0
0.03125 0 0
0.25 0 0
0.03125 0 0
0.03125 0 0
0.03125 0 0
0.03125 0 0
0 0 0
0.3125 0 0
0.3125 0 0
0.3125 0 0
0.3125 0 0
0.3125 0 0
0.25 0 0
0.3125 0 0
0.25 0 0
0.3125 0 0
0.25 0 0
0.4375 0 0
0.4375 0 0
0.03125 0 0
0.25 0 0
0.03125 0 0
0.03125 0 0
0.03125 0 0
0.03125 0 0
0 0 0
0.3125 0 0
0.3125 0 0
0.3125 0 0
0.3125 0 0
0.3125 0 0
0.25 0 0
0.3125 0 0
0.25 0 0
0.3125 0 0
0.25 0 0
0.4375 0 0
0.4375 0 0
0.03125 0 0
0.25 0 0
0.03125 0 0
0.03125 0 0
0.03125 0 0
0.03125 0 0
0 0 0
0.3125 0 0
0.3125 0 0
0.3125 0 0
0.3125 0 0
0.3125 0 0
0.25 0 0
0.3125 0 0
0.25 0 0
0.3125 0 0
0.25 0 0
0.4375 0 0
0.4375 0 0
0.03125 0 0
0.25 0 0
0.03125 0 0
0.03125 0 0
0.03125 0 0
0.03125 0 0
0 0 0
0.3125 0 0
0.3125 0 0
0.3125 0 0
0.3125 0 0
0.3125 0 0
0.25 0 0
0.3125 0 0
0.25 0 0
0.3125 0 0
0.25 0 0
0.4375 0 0
0.4375 0 0
0.03125 0 0
0.25 0 0
0.03125 0 0
0.03125 0 0
0.03125 0 0
0.03125 0 0
0 0 0
0.3125 0 0
0.3125 0 0
0.3125 0 0
0.3125 0 0
0.3125 0 0
0.25 0 0
0.3125 0 0
0.25 0 0
0.3125 0 0
0.25 0 0
0.4375 0 0
0.4375 0 0
0.03125 0 0
0.25 0 0
0.03125 0 0
0.03125 0 0
0.03125 0 0
0.03125 0 0
0 0 0
0.3125 0 0
0.3125 0 0
0.3125 0 0
0.3125 0 0
0.3125 0 0
0.25 0 0
0.3125 0 0
0.25 0 0
0.3125 0 0
0.25 0 0
0.4375 0 0
0.4375 0 0
0.03125 0 0
0.25 0 0
0.03125 0 0
0.03125 0 0
0.03125 0 0
0.03125 0 0
0 0 0
0.3125 0 0
0.3125 0 0
0.3125 0 0
0.3125 0 0
0.3125 0 0
0.25 0 0
0.3125 0 0
0.25 0 0
0.3125 0 0
0.25 0 0
0.4375 0 0
0.4375 0 0
0.03125 0 0
0.25 0 0
0.03125 0 0
0.03125 0 0
0.03125 0 0
0.03125 0 0
0 0 0
0.3125 0 0
0.3125 0 0
0.3125 0 0
0.3125 0 0
0.3125 0 0
0.25 0 0
0.3125 0 0
0.25 0 0
0.3125 0 0
0.25 0 0
0.4375 0 0
0.4375 0 0
0.03125 0 0
0.25 0 0
0.03125 0 0
0.03125 0 0
0.03125 0 0
0.03125 0 0
0 0 0
0.3125 0 0
0.3125 0 0
0.3125 0 0
0.3125 0 0
0.3125 0 0
0.25 0 0
0.3125 0 0
0.25 0 0
0.3125 0 0
0.25 0 0
0.4375 0 0
0.4375 0 0
0.03125 0 0
0.25 0 0
0.03125 0 0
0.03125 0 0
0.03125 0 0
0.03125 0 0
0 0 0
0.3125 0 0
0.3125 0 0
0.3125 0 0
0.3125 0 0
0.3125 0 0
0.25 0 0
0.3125 0 0
0.25 0 0
0.3125 0 0
0.25 0 0
