# vtk DataFile Version 1.0
Cube
ASCII

DATASET POLYDATA
POINTS 766 float
11.571063 13.228602 6.802397
4.231450 9.156711 5.417227
10.675688 10.932129 6.532733
10.105176 9.576139 6.296692
10.921732 8.551161 5.829704
11.836318 8.715215 5.687061
10.400833 7.276472 5.568191
9.028474 7.079026 5.743099
8.665421 6.226813 5.583474
8.189774 8.104003 6.147256
8.733216 9.356915 6.415561
8.170024 10.062495 6.680471
6.714647 7.892039 6.206691
11.235826 6.200681 5.014598
2.322067 6.200681 38.977338
12.276306 6.443133 4.119680
3.362547 6.443133 38.082420
12.485898 7.325833 3.871752
3.572139 7.325833 37.834492
13.001588 5.392022 3.591560
4.087829 5.392022 37.554299
-0.600715 5.550270 2.992117
-9.514474 5.550270 36.954857
28.017485 5.550270 2.992117
19.103726 5.550270 36.954857
12.670204 4.110074 3.960055
3.756445 4.110074 37.922795
12.670204 33.146274 3.960055
3.756445 33.146274 37.922795
13.154601 3.397235 3.586465
4.240842 3.397235 37.549205
13.154601 32.433435 3.586465
4.240842 32.433435 37.549205
10.984784 4.851949 5.316867
10.277260 4.653051 5.902724
-1.804441 13.837201 9.732023
26.813759 13.837201 9.732023
-2.256890 0.135018 9.613153
-2.256890 29.171218 9.613153
26.361310 0.135018 9.613153
26.361310 29.171218 9.613153
-1.187950 13.615074 10.910530
27.430250 13.615074 10.910530
-1.278470 14.230642 11.615257
27.339730 14.230642 11.615257
-0.426025 12.487018 11.076947
28.192175 12.487018 11.076947
0.030063 12.343289 11.885261
28.648263 12.343289 11.885261
-0.331306 11.563667 10.056367
28.286894 11.563667 10.056367
-1.054459 11.842414 8.913521
27.563741 11.842414 8.913521
-1.021433 11.209425 8.220681
27.596767 11.209425 8.220681
0.498270 10.347050 10.063160
29.116470 10.347050 10.063160
0.622223 9.557265 11.199213
29.240423 9.557265 11.199213
0.209654 9.820043 12.002432
28.827854 9.820043 12.002432
1.366249 8.363877 11.144873
29.984449 8.363877 11.144873
1.978464 7.995118 9.968064
2.422890 7.169038 9.910327
1.939849 8.850234 8.855784
30.558049 8.850234 8.855784
1.193946 10.004423 8.911823
29.812146 10.004423 8.911823
1.155286 10.567725 8.159548
29.773486 10.567725 8.159548
1.515959 7.553767 12.384513
2.766325 8.546805 7.658598
11.700519 3.829875 4.814218
2.786760 3.829875 38.776958
11.700519 32.866075 4.814218
2.786760 32.866075 38.776958
-1.807118 12.944338 8.706348
26.811082 12.944338 8.706348
11.898857 11.180389 6.233861
9.967319 11.829348 7.072740
6.264895 6.733495 6.208389
6.000599 8.938794 6.179520
3.477253 7.521828 7.697655
2.788841 9.391759 6.705943
1.903430 6.335699 12.238473
1.274467 8.060449 13.490000
7.114184 13.228602 23.783767
-0.225430 9.156711 22.398596
6.218808 10.932129 23.514103
5.648297 9.576139 23.278062
6.464852 8.551161 22.811074
7.379438 8.715215 22.668430
5.943953 7.276472 22.549561
4.571594 7.079026 22.724469
4.208541 6.226813 22.564844
3.732894 8.104003 23.128625
4.276336 9.356915 23.396931
3.713145 10.062495 23.661841
2.257767 7.892039 23.188060
6.778946 6.200681 21.995968
7.819426 6.443133 21.101050
8.029019 7.325833 20.853122
8.544708 5.392022 20.572929
-5.057594 5.550270 19.973487
23.560606 5.550270 19.973487
8.213325 4.110074 20.941425
8.213325 33.146274 20.941425
8.697722 3.397235 20.567835
8.697722 32.433435 20.567835
6.527905 4.851949 22.298237
5.820380 4.653051 22.884094
-6.261321 13.837201 26.713393
22.356879 13.837201 26.713393
-6.713770 0.135018 26.594523
-6.713770 29.171218 26.594523
21.904430 0.135018 26.594523
21.904430 29.171218 26.594523
-5.644829 13.615074 27.891900
22.973371 13.615074 27.891900
-5.735350 14.230642 28.596627
22.882850 14.230642 28.596627
-4.882904 12.487018 28.058317
23.735296 12.487018 28.058317
4.486942 12.343289 -5.096109
-4.426817 12.343289 28.866630
33.105142 12.343289 -5.096109
24.191383 12.343289 28.866630
-4.788186 11.563667 27.037737
23.830014 11.563667 27.037737
-5.511339 11.842414 25.894891
23.106861 11.842414 25.894891
-5.478313 11.209425 25.202051
23.139887 11.209425 25.202051
-3.958610 10.347050 27.044529
24.659590 10.347050 27.044529
-3.834657 9.557265 28.180583
24.783543 9.557265 28.180583
4.666534 9.820043 -4.978938
-4.247226 9.820043 28.983802
33.284734 9.820043 -4.978938
24.370974 9.820043 28.983802
-3.090631 8.363877 28.126243
25.527569 8.363877 28.126243
-2.478416 7.995118 26.949434
-2.033990 7.169038 26.891697
-2.517031 8.850234 25.837154
26.101169 8.850234 25.837154
-3.262933 10.004423 25.893192
25.355267 10.004423 25.893192
-3.301594 10.567725 25.140918
25.316606 10.567725 25.140918
5.972839 7.553767 -4.596857
-2.940921 7.553767 29.365883
-1.690555 8.546805 24.639967
7.243640 3.829875 21.795588
7.243640 32.866075 21.795588
-6.263998 12.944338 25.687718
22.354202 12.944338 25.687718
7.441978 11.180389 23.215230
5.510439 11.829348 24.054110
1.808016 6.733495 23.189758
1.543719 8.938794 23.160890
-0.979627 7.521828 24.679025
-1.668039 9.391759 23.687313
6.360310 6.335699 -4.742897
-2.553450 6.335699 29.219843
5.731347 8.060449 -3.491370
-3.182413 8.060449 30.471370
11.571063 -1.289498 6.802397
11.571063 27.746702 6.802397
4.231450 23.674811 5.417227
10.675688 -3.585971 6.532733
10.675688 25.450229 6.532733
10.105176 24.094239 6.296692
10.921732 23.069261 5.829704
11.836318 23.233315 5.687061
10.400833 21.794572 5.568191
9.028474 21.597126 5.743099
8.665421 20.744913 5.583474
8.189774 22.622103 6.147256
8.733216 23.875015 6.415561
8.170024 24.580595 6.680471
6.714647 22.410139 6.206691
11.235826 20.718781 5.014598
2.322067 20.718781 38.977338
12.276306 20.961233 4.119680
3.362547 20.961233 38.082420
12.485898 21.843933 3.871752
3.572139 21.843933 37.834492
13.001588 19.910122 3.591560
4.087829 19.910122 37.554299
-0.600715 20.068370 2.992117
-9.514474 20.068370 36.954857
28.017485 20.068370 2.992117
19.103726 20.068370 36.954857
12.670204 18.628174 3.960055
3.756445 18.628174 37.922795
13.154601 17.915335 3.586465
4.240842 17.915335 37.549205
10.984784 19.370049 5.316867
10.277260 19.171151 5.902724
-1.804441 -0.680899 9.732023
-1.804441 28.355301 9.732023
26.813759 -0.680899 9.732023
26.813759 28.355301 9.732023
-2.256890 14.653118 9.613153
26.361310 14.653118 9.613153
-1.187950 -0.903026 10.910530
-1.187950 28.133174 10.910530
27.430250 -0.903026 10.910530
27.430250 28.133174 10.910530
-1.278470 -0.287458 11.615257
-1.278470 28.748742 11.615257
27.339730 -0.287458 11.615257
27.339730 28.748742 11.615257
-0.426025 -2.031082 11.076947
-0.426025 27.005118 11.076947
28.192175 -2.031082 11.076947
28.192175 27.005118 11.076947
0.030063 -2.174811 11.885261
0.030063 26.861389 11.885261
28.648263 -2.174811 11.885261
28.648263 26.861389 11.885261
-0.331306 -2.954433 10.056367
-0.331306 26.081767 10.056367
28.286894 -2.954433 10.056367
28.286894 26.081767 10.056367
-1.054459 -2.675686 8.913521
-1.054459 26.360514 8.913521
27.563741 -2.675686 8.913521
27.563741 26.360514 8.913521
-1.021433 -3.308675 8.220681
-1.021433 25.727525 8.220681
27.596767 -3.308675 8.220681
27.596767 25.727525 8.220681
0.498270 -4.171050 10.063160
0.498270 24.865150 10.063160
29.116470 -4.171050 10.063160
29.116470 24.865150 10.063160
0.622223 24.075365 11.199213
29.240423 24.075365 11.199213
0.209654 24.338143 12.002432
28.827854 24.338143 12.002432
1.366249 22.881977 11.144873
29.984449 22.881977 11.144873
1.978464 22.513218 9.968064
2.422890 21.687138 9.910327
1.939849 23.368334 8.855784
30.558049 23.368334 8.855784
1.193946 24.522523 8.911823
29.812146 24.522523 8.911823
1.155286 -3.950375 8.159548
1.155286 25.085825 8.159548
29.773486 -3.950375 8.159548
29.773486 25.085825 8.159548
1.515959 22.071867 12.384513
2.766325 23.064905 7.658598
11.700519 18.347975 4.814218
2.786760 18.347975 38.776958
-1.807118 -1.573762 8.706348
-1.807118 27.462438 8.706348
26.811082 -1.573762 8.706348
26.811082 27.462438 8.706348
11.898857 -3.337711 6.233861
11.898857 25.698489 6.233861
9.967319 -2.688752 7.072740
9.967319 26.347448 7.072740
6.264895 21.251595 6.208389
6.000599 23.456894 6.179520
3.477253 22.039928 7.697655
2.788841 23.909859 6.705943
1.903430 20.853799 12.238473
1.274467 22.578549 13.490000
7.114184 -1.289498 23.783767
7.114184 27.746702 23.783767
-0.225430 23.674811 22.398596
6.218808 -3.585971 23.514103
6.218808 25.450229 23.514103
5.648297 24.094239 23.278062
6.464852 23.069261 22.811074
7.379438 23.233315 22.668430
5.943953 21.794572 22.549561
4.571594 21.597126 22.724469
4.208541 20.744913 22.564844
3.732894 22.622103 23.128625
4.276336 23.875015 23.396931
3.713145 24.580595 23.661841
2.257767 22.410139 23.188060
6.778946 20.718781 21.995968
7.819426 20.961233 21.101050
8.029019 21.843933 20.853122
8.544708 19.910122 20.572929
-5.057594 20.068370 19.973487
23.560606 20.068370 19.973487
8.213325 18.628174 20.941425
8.697722 17.915335 20.567835
6.527905 19.370049 22.298237
5.820380 19.171151 22.884094
-6.261321 -0.680899 26.713393
-6.261321 28.355301 26.713393
22.356879 -0.680899 26.713393
22.356879 28.355301 26.713393
-6.713770 14.653118 26.594523
21.904430 14.653118 26.594523
-5.644829 -0.903026 27.891900
-5.644829 28.133174 27.891900
22.973371 -0.903026 27.891900
22.973371 28.133174 27.891900
-5.735350 -0.287458 28.596627
-5.735350 28.748742 28.596627
22.882850 -0.287458 28.596627
22.882850 28.748742 28.596627
-4.882904 -2.031082 28.058317
-4.882904 27.005118 28.058317
23.735296 -2.031082 28.058317
23.735296 27.005118 28.058317
4.486942 -2.174811 -5.096109
-4.426817 -2.174811 28.866630
4.486942 26.861389 -5.096109
-4.426817 26.861389 28.866630
33.105142 -2.174811 -5.096109
24.191383 -2.174811 28.866630
33.105142 26.861389 -5.096109
24.191383 26.861389 28.866630
-4.788186 -2.954433 27.037737
-4.788186 26.081767 27.037737
23.830014 -2.954433 27.037737
23.830014 26.081767 27.037737
-5.511339 -2.675686 25.894891
-5.511339 26.360514 25.894891
23.106861 -2.675686 25.894891
23.106861 26.360514 25.894891
-5.478313 -3.308675 25.202051
-5.478313 25.727525 25.202051
23.139887 -3.308675 25.202051
23.139887 25.727525 25.202051
-3.958610 -4.171050 27.044529
-3.958610 24.865150 27.044529
24.659590 -4.171050 27.044529
24.659590 24.865150 27.044529
-3.834657 24.075365 28.180583
24.783543 24.075365 28.180583
4.666534 24.338143 -4.978938
-4.247226 24.338143 28.983802
33.284734 24.338143 -4.978938
24.370974 24.338143 28.983802
-3.090631 22.881977 28.126243
25.527569 22.881977 28.126243
-2.478416 22.513218 26.949434
-2.033990 21.687138 26.891697
-2.517031 23.368334 25.837154
26.101169 23.368334 25.837154
-3.262933 24.522523 25.893192
25.355267 24.522523 25.893192
-3.301594 -3.950375 25.140918
-3.301594 25.085825 25.140918
25.316606 -3.950375 25.140918
25.316606 25.085825 25.140918
5.972839 22.071867 -4.596857
-2.940921 22.071867 29.365883
-1.690555 23.064905 24.639967
7.243640 18.347975 21.795588
-6.263998 -1.573762 25.687718
-6.263998 27.462438 25.687718
22.354202 -1.573762 25.687718
22.354202 27.462438 25.687718
7.441978 -3.337711 23.215230
7.441978 25.698489 23.215230
5.510439 -2.688752 24.054110
5.510439 26.347448 24.054110
1.808016 21.251595 23.189758
1.543719 23.456894 23.160890
-0.979627 22.039928 24.679025
-1.668039 23.909859 23.687313
6.360310 20.853799 -4.742897
-2.553450 20.853799 29.219843
5.731347 22.578549 -3.491370
-3.182413 22.578549 30.471370
-2.738037 13.228602 6.802397
25.880163 13.228602 6.802397
18.540550 9.156711 5.417227
-3.633412 10.932129 6.532733
24.984788 10.932129 6.532733
-4.203924 9.576139 6.296692
24.414276 9.576139 6.296692
-3.387368 8.551161 5.829704
25.230832 8.551161 5.829704
-2.472782 8.715215 5.687061
26.145418 8.715215 5.687061
-3.908267 7.276472 5.568191
24.709933 7.276472 5.568191
-5.280626 7.079026 5.743099
23.337574 7.079026 5.743099
-5.643679 6.226813 5.583474
22.974521 6.226813 5.583474
22.498874 8.104003 6.147256
-5.575884 9.356915 6.415561
23.042316 9.356915 6.415561
22.479124 10.062495 6.680471
21.023747 7.892039 6.206691
-3.073274 6.200681 5.014598
-11.987033 6.200681 38.977338
25.544926 6.200681 5.014598
16.631167 6.200681 38.977338
-2.032794 6.443133 4.119680
-10.946553 6.443133 38.082420
26.585406 6.443133 4.119680
17.671647 6.443133 38.082420
-1.823202 7.325833 3.871752
-10.736961 7.325833 37.834492
26.794998 7.325833 3.871752
17.881239 7.325833 37.834492
-1.307512 5.392022 3.591560
-10.221271 5.392022 37.554299
27.310688 5.392022 3.591560
18.396929 5.392022 37.554299
13.708385 5.550270 2.992117
4.794626 5.550270 36.954857
-1.638896 4.110074 3.960055
-10.552655 4.110074 37.922795
-1.638896 33.146274 3.960055
-10.552655 33.146274 37.922795
26.979304 4.110074 3.960055
18.065545 4.110074 37.922795
26.979304 33.146274 3.960055
18.065545 33.146274 37.922795
-1.154499 3.397235 3.586465
-10.068258 3.397235 37.549205
-1.154499 32.433435 3.586465
-10.068258 32.433435 37.549205
27.463701 3.397235 3.586465
18.549942 3.397235 37.549205
27.463701 32.433435 3.586465
18.549942 32.433435 37.549205
-3.324316 4.851949 5.316867
25.293884 4.851949 5.316867
-4.031840 4.653051 5.902724
24.586360 4.653051 5.902724
12.504659 13.837201 9.732023
12.052210 0.135018 9.613153
12.052210 29.171218 9.613153
13.121150 13.615074 10.910530
13.030630 14.230642 11.615257
13.883075 12.487018 11.076947
14.339163 12.343289 11.885261
13.977794 11.563667 10.056367
13.254641 11.842414 8.913521
13.287667 11.209425 8.220681
14.807370 10.347050 10.063160
14.931323 9.557265 11.199213
14.518754 9.820043 12.002432
15.675349 8.363877 11.144873
16.287564 7.995118 9.968064
16.731990 7.169038 9.910327
16.248949 8.850234 8.855784
15.503046 10.004423 8.911823
15.464386 10.567725 8.159548
15.825059 7.553767 12.384513
17.075425 8.546805 7.658598
-2.608581 3.829875 4.814218
-11.522340 3.829875 38.776958
-2.608581 32.866075 4.814218
-11.522340 32.866075 38.776958
26.009619 3.829875 4.814218
17.095860 3.829875 38.776958
26.009619 32.866075 4.814218
17.095860 32.866075 38.776958
12.501982 12.944338 8.706348
-2.410243 11.180389 6.233861
26.207957 11.180389 6.233861
-4.341781 11.829348 7.072740
24.276419 11.829348 7.072740
20.573995 6.733495 6.208389
20.309699 8.938794 6.179520
17.786353 7.521828 7.697655
17.097941 9.391759 6.705943
16.212530 6.335699 12.238473
15.583567 8.060449 13.490000
-7.194916 13.228602 23.783767
21.423284 13.228602 23.783767
14.083670 9.156711 22.398596
-8.090292 10.932129 23.514103
20.527908 10.932129 23.514103
-8.660803 9.576139 23.278062
19.957397 9.576139 23.278062
-7.844248 8.551161 22.811074
20.773952 8.551161 22.811074
-6.929662 8.715215 22.668430
21.688538 8.715215 22.668430
-8.365147 7.276472 22.549561
20.253053 7.276472 22.549561
-9.737506 7.079026 22.724469
18.880694 7.079026 22.724469
-10.100559 6.226813 22.564844
18.517641 6.226813 22.564844
18.041994 8.104003 23.128625
-10.032764 9.356915 23.396931
18.585436 9.356915 23.396931
18.022245 10.062495 23.661841
16.566867 7.892039 23.188060
-7.530154 6.200681 21.995968
21.088046 6.200681 21.995968
-6.489674 6.443133 21.101050
22.128526 6.443133 21.101050
-6.280081 7.325833 20.853122
22.338119 7.325833 20.853122
-5.764392 5.392022 20.572929
22.853808 5.392022 20.572929
9.251506 5.550270 19.973487
-6.095775 4.110074 20.941425
-6.095775 33.146274 20.941425
22.522425 4.110074 20.941425
22.522425 33.146274 20.941425
-5.611378 3.397235 20.567835
-5.611378 32.433435 20.567835
23.006822 3.397235 20.567835
23.006822 32.433435 20.567835
-7.781195 4.851949 22.298237
20.837005 4.851949 22.298237
-8.488720 4.653051 22.884094
20.129480 4.653051 22.884094
8.047779 13.837201 26.713393
7.595330 0.135018 26.594523
7.595330 29.171218 26.594523
8.664271 13.615074 27.891900
8.573750 14.230642 28.596627
9.426196 12.487018 28.058317
18.796042 12.343289 -5.096109
9.882283 12.343289 28.866630
9.520914 11.563667 27.037737
8.797761 11.842414 25.894891
8.830787 11.209425 25.202051
10.350490 10.347050 27.044529
10.474443 9.557265 28.180583
18.975634 9.820043 -4.978938
10.061874 9.820043 28.983802
11.218469 8.363877 28.126243
11.830684 7.995118 26.949434
12.275110 7.169038 26.891697
11.792069 8.850234 25.837154
11.046167 10.004423 25.893192
11.007506 10.567725 25.140918
20.281939 7.553767 -4.596857
11.368179 7.553767 29.365883
12.618545 8.546805 24.639967
-7.065460 3.829875 21.795588
-7.065460 32.866075 21.795588
21.552740 3.829875 21.795588
21.552740 32.866075 21.795588
8.045102 12.944338 25.687718
-6.867122 11.180389 23.215230
21.751078 11.180389 23.215230
-8.798661 11.829348 24.054110
19.819539 11.829348 24.054110
16.117116 6.733495 23.189758
15.852819 8.938794 23.160890
13.329473 7.521828 24.679025
12.641061 9.391759 23.687313
20.669410 6.335699 -4.742897
11.755650 6.335699 29.219843
20.040447 8.060449 -3.491370
11.126687 8.060449 30.471370
-2.738037 -1.289498 6.802397
-2.738037 27.746702 6.802397
25.880163 -1.289498 6.802397
25.880163 27.746702 6.802397
18.540550 23.674811 5.417227
-3.633412 -3.585971 6.532733
-3.633412 25.450229 6.532733
24.984788 -3.585971 6.532733
24.984788 25.450229 6.532733
-4.203924 24.094239 6.296692
24.414276 24.094239 6.296692
-3.387368 23.069261 5.829704
25.230832 23.069261 5.829704
-2.472782 23.233315 5.687061
26.145418 23.233315 5.687061
-3.908267 21.794572 5.568191
24.709933 21.794572 5.568191
-5.280626 21.597126 5.743099
23.337574 21.597126 5.743099
-5.643679 20.744913 5.583474
22.974521 20.744913 5.583474
22.498874 22.622103 6.147256
-5.575884 23.875015 6.415561
23.042316 23.875015 6.415561
22.479124 24.580595 6.680471
21.023747 22.410139 6.206691
-3.073274 20.718781 5.014598
-11.987033 20.718781 38.977338
25.544926 20.718781 5.014598
16.631167 20.718781 38.977338
-2.032794 20.961233 4.119680
-10.946553 20.961233 38.082420
26.585406 20.961233 4.119680
17.671647 20.961233 38.082420
-1.823202 21.843933 3.871752
-10.736961 21.843933 37.834492
26.794998 21.843933 3.871752
17.881239 21.843933 37.834492
-1.307512 19.910122 3.591560
-10.221271 19.910122 37.554299
27.310688 19.910122 3.591560
18.396929 19.910122 37.554299
13.708385 20.068370 2.992117
4.794626 20.068370 36.954857
-1.638896 18.628174 3.960055
-10.552655 18.628174 37.922795
26.979304 18.628174 3.960055
18.065545 18.628174 37.922795
-1.154499 17.915335 3.586465
-10.068258 17.915335 37.549205
27.463701 17.915335 3.586465
18.549942 17.915335 37.549205
-3.324316 19.370049 5.316867
25.293884 19.370049 5.316867
-4.031840 19.171151 5.902724
24.586360 19.171151 5.902724
12.504659 -0.680899 9.732023
12.504659 28.355301 9.732023
12.052210 14.653118 9.613153
13.121150 -0.903026 10.910530
13.121150 28.133174 10.910530
13.030630 -0.287458 11.615257
13.030630 28.748742 11.615257
13.883075 -2.031082 11.076947
13.883075 27.005118 11.076947
14.339163 -2.174811 11.885261
14.339163 26.861389 11.885261
13.977794 -2.954433 10.056367
13.977794 26.081767 10.056367
13.254641 -2.675686 8.913521
13.254641 26.360514 8.913521
13.287667 -3.308675 8.220681
13.287667 25.727525 8.220681
14.807370 -4.171050 10.063160
14.807370 24.865150 10.063160
14.931323 24.075365 11.199213
14.518754 24.338143 12.002432
15.675349 22.881977 11.144873
16.287564 22.513218 9.968064
16.731990 21.687138 9.910327
16.248949 23.368334 8.855784
15.503046 24.522523 8.911823
15.464386 -3.950375 8.159548
15.464386 25.085825 8.159548
15.825059 22.071867 12.384513
17.075425 23.064905 7.658598
-2.608581 18.347975 4.814218
-11.522340 18.347975 38.776958
26.009619 18.347975 4.814218
17.095860 18.347975 38.776958
12.501982 -1.573762 8.706348
12.501982 27.462438 8.706348
-2.410243 -3.337711 6.233861
-2.410243 25.698489 6.233861
26.207957 -3.337711 6.233861
26.207957 25.698489 6.233861
-4.341781 -2.688752 7.072740
-4.341781 26.347448 7.072740
24.276419 -2.688752 7.072740
24.276419 26.347448 7.072740
20.573995 21.251595 6.208389
20.309699 23.456894 6.179520
17.786353 22.039928 7.697655
17.097941 23.909859 6.705943
16.212530 20.853799 12.238473
15.583567 22.578549 13.490000
-7.194916 -1.289498 23.783767
-7.194916 27.746702 23.783767
21.423284 -1.289498 23.783767
21.423284 27.746702 23.783767
14.083670 23.674811 22.398596
-8.090292 -3.585971 23.514103
-8.090292 25.450229 23.514103
20.527908 -3.585971 23.514103
20.527908 25.450229 23.514103
-8.660803 24.094239 23.278062
19.957397 24.094239 23.278062
-7.844248 23.069261 22.811074
20.773952 23.069261 22.811074
-6.929662 23.233315 22.668430
21.688538 23.233315 22.668430
-8.365147 21.794572 22.549561
20.253053 21.794572 22.549561
-9.737506 21.597126 22.724469
18.880694 21.597126 22.724469
-10.100559 20.744913 22.564844
18.517641 20.744913 22.564844
18.041994 22.622103 23.128625
-10.032764 23.875015 23.396931
18.585436 23.875015 23.396931
18.022245 24.580595 23.661841
16.566867 22.410139 23.188060
-7.530154 20.718781 21.995968
21.088046 20.718781 21.995968
-6.489674 20.961233 21.101050
22.128526 20.961233 21.101050
-6.280081 21.843933 20.853122
22.338119 21.843933 20.853122
-5.764392 19.910122 20.572929
22.853808 19.910122 20.572929
9.251506 20.068370 19.973487
-6.095775 18.628174 20.941425
22.522425 18.628174 20.941425
-5.611378 17.915335 20.567835
23.006822 17.915335 20.567835
-7.781195 19.370049 22.298237
20.837005 19.370049 22.298237
-8.488720 19.171151 22.884094
20.129480 19.171151 22.884094
8.047779 -0.680899 26.713393
8.047779 28.355301 26.713393
7.595330 14.653118 26.594523
8.664271 -0.903026 27.891900
8.664271 28.133174 27.891900
8.573750 -0.287458 28.596627
8.573750 28.748742 28.596627
9.426196 -2.031082 28.058317
9.426196 27.005118 28.058317
18.796042 -2.174811 -5.096109
9.882283 -2.174811 28.866630
18.796042 26.861389 -5.096109
9.882283 26.861389 28.866630
9.520914 -2.954433 27.037737
9.520914 26.081767 27.037737
8.797761 -2.675686 25.894891
8.797761 26.360514 25.894891
8.830787 -3.308675 25.202051
8.830787 25.727525 25.202051
10.350490 -4.171050 27.044529
10.350490 24.865150 27.044529
10.474443 24.075365 28.180583
18.975634 24.338143 -4.978938
10.061874 24.338143 28.983802
11.218469 22.881977 28.126243
11.830684 22.513218 26.949434
12.275110 21.687138 26.891697
11.792069 23.368334 25.837154
11.046167 24.522523 25.893192
11.007506 -3.950375 25.140918
11.007506 25.085825 25.140918
20.281939 22.071867 -4.596857
11.368179 22.071867 29.365883
12.618545 23.064905 24.639967
-7.065460 18.347975 21.795588
21.552740 18.347975 21.795588
8.045102 -1.573762 25.687718
8.045102 27.462438 25.687718
-6.867122 -3.337711 23.215230
-6.867122 25.698489 23.215230
21.751078 -3.337711 23.215230
21.751078 25.698489 23.215230
-8.798661 -2.688752 24.054110
-8.798661 26.347448 24.054110
19.819539 -2.688752 24.054110
19.819539 26.347448 24.054110
16.117116 21.251595 23.189758
15.852819 23.456894 23.160890
13.329473 22.039928 24.679025
12.641061 23.909859 23.687313
20.669410 20.853799 -4.742897
11.755650 20.853799 29.219843
20.040447 22.578549 -3.491370
11.126687 22.578549 30.471370
LINES 798 2394
2 0 2
2 0 79
2 0 80
2 0 468
2 1 82
2 1 84
2 2 3
2 2 79
2 2 80
2 3 4
2 3 10
2 4 5
2 4 6
2 6 7
2 6 13
2 7 8
2 7 9
2 9 10
2 9 12
2 10 11
2 12 81
2 12 82
2 13 15
2 13 33
2 14 16
2 15 17
2 15 19
2 16 18
2 16 20
2 19 25
2 19 417
2 20 26
2 20 418
2 21 413
2 22 414
2 23 415
2 24 416
2 25 29
2 25 73
2 26 30
2 26 74
2 27 31
2 27 75
2 28 32
2 28 76
2 33 34
2 33 73
2 35 41
2 35 77
2 35 206
2 36 42
2 36 78
2 36 207
2 37 202
2 38 203
2 39 204
2 40 205
2 41 43
2 41 45
2 42 44
2 42 46
2 45 47
2 45 49
2 46 48
2 46 50
2 49 51
2 49 55
2 50 52
2 50 56
2 51 53
2 51 77
2 52 54
2 52 78
2 55 57
2 55 67
2 56 58
2 56 68
2 57 59
2 57 61
2 58 60
2 58 62
2 61 63
2 61 71
2 63 64
2 63 65
2 65 67
2 65 72
2 66 68
2 67 69
2 68 70
2 71 85
2 71 86
2 72 83
2 72 84
2 77 379
2 78 380
2 87 89
2 87 159
2 87 160
2 87 550
2 88 162
2 88 164
2 89 90
2 89 159
2 89 160
2 90 91
2 90 97
2 91 92
2 91 93
2 93 94
2 93 100
2 94 95
2 94 96
2 96 97
2 96 99
2 97 98
2 99 161
2 99 162
2 100 101
2 100 110
2 101 102
2 101 103
2 103 106
2 103 509
2 104 507
2 105 508
2 106 108
2 106 155
2 107 109
2 107 156
2 110 111
2 110 155
2 112 118
2 112 157
2 112 303
2 113 119
2 113 158
2 113 304
2 114 299
2 115 300
2 116 301
2 117 302
2 118 120
2 118 122
2 119 121
2 119 123
2 122 125
2 122 128
2 123 127
2 123 129
2 128 130
2 128 134
2 129 131
2 129 135
2 130 132
2 130 157
2 131 133
2 131 158
2 134 136
2 134 148
2 135 137
2 135 149
2 136 139
2 136 142
2 137 141
2 137 143
2 142 144
2 142 153
2 144 145
2 144 146
2 146 148
2 146 154
2 147 149
2 148 150
2 149 151
2 152 165
2 152 167
2 153 166
2 153 168
2 154 163
2 154 164
2 157 479
2 158 480
2 169 172
2 169 264
2 169 266
2 169 653
2 170 173
2 170 265
2 170 267
2 170 654
2 171 269
2 171 271
2 172 264
2 172 266
2 173 174
2 173 265
2 173 267
2 174 175
2 174 181
2 175 176
2 175 177
2 177 178
2 177 184
2 178 179
2 178 180
2 180 181
2 180 183
2 181 182
2 183 268
2 183 269
2 184 186
2 184 200
2 185 187
2 186 188
2 186 190
2 187 189
2 187 191
2 190 196
2 190 605
2 191 197
2 191 606
2 192 601
2 193 602
2 194 603
2 195 604
2 196 198
2 196 258
2 197 199
2 197 259
2 200 201
2 200 258
2 202 208
2 202 260
2 203 209
2 203 261
2 204 210
2 204 262
2 205 211
2 205 263
2 208 212
2 208 216
2 209 213
2 209 217
2 210 214
2 210 218
2 211 215
2 211 219
2 216 220
2 216 224
2 217 221
2 217 225
2 218 222
2 218 226
2 219 223
2 219 227
2 224 228
2 224 236
2 225 229
2 225 237
2 226 230
2 226 238
2 227 231
2 227 239
2 228 232
2 228 260
2 229 233
2 229 261
2 230 234
2 230 262
2 231 235
2 231 263
2 237 240
2 237 250
2 239 241
2 239 251
2 240 242
2 240 244
2 241 243
2 241 245
2 244 246
2 244 256
2 246 247
2 246 248
2 248 250
2 248 257
2 249 251
2 250 253
2 251 255
2 256 272
2 256 273
2 257 270
2 257 271
2 260 563
2 261 564
2 262 565
2 263 566
2 274 277
2 274 367
2 274 369
2 274 748
2 275 278
2 275 368
2 275 370
2 275 749
2 276 372
2 276 374
2 277 367
2 277 369
2 278 279
2 278 368
2 278 370
2 279 280
2 279 286
2 280 281
2 280 282
2 282 283
2 282 289
2 283 284
2 283 285
2 285 286
2 285 288
2 286 287
2 288 371
2 288 372
2 289 290
2 289 297
2 290 291
2 290 292
2 292 295
2 292 703
2 293 701
2 294 702
2 295 296
2 295 362
2 297 298
2 297 362
2 299 305
2 299 363
2 300 306
2 300 364
2 301 307
2 301 365
2 302 308
2 302 366
2 305 309
2 305 313
2 306 310
2 306 314
2 307 311
2 307 315
2 308 312
2 308 316
2 313 318
2 313 325
2 314 320
2 314 326
2 315 322
2 315 327
2 316 324
2 316 328
2 325 329
2 325 337
2 326 330
2 326 338
2 327 331
2 327 339
2 328 332
2 328 340
2 329 333
2 329 363
2 330 334
2 330 364
2 331 335
2 331 365
2 332 336
2 332 366
2 338 341
2 338 353
2 340 342
2 340 354
2 341 344
2 341 347
2 342 346
2 342 348
2 347 349
2 347 360
2 349 350
2 349 351
2 351 353
2 351 361
2 352 354
2 353 356
2 354 358
2 359 375
2 359 377
2 360 376
2 360 378
2 361 373
2 361 374
2 363 669
2 364 670
2 365 671
2 366 672
2 379 382
2 379 469
2 379 471
2 380 383
2 380 470
2 380 472
2 381 474
2 381 476
2 382 384
2 382 469
2 382 471
2 383 385
2 383 470
2 383 472
2 384 386
2 384 397
2 385 387
2 385 398
2 386 388
2 386 390
2 387 389
2 387 391
2 390 392
2 390 401
2 391 393
2 391 403
2 392 394
2 393 395
2 393 396
2 396 398
2 396 400
2 398 399
2 400 473
2 400 474
2 401 405
2 401 435
2 402 406
2 403 407
2 403 436
2 404 408
2 405 409
2 405 413
2 406 410
2 406 414
2 407 411
2 407 415
2 408 412
2 408 416
2 413 419
2 414 420
2 415 423
2 416 424
2 419 427
2 419 460
2 420 428
2 420 461
2 421 429
2 421 462
2 422 430
2 422 463
2 423 431
2 423 464
2 424 432
2 424 465
2 425 433
2 425 466
2 426 434
2 426 467
2 435 437
2 435 460
2 436 438
2 436 464
2 439 442
2 439 468
2 439 621
2 440 619
2 441 620
2 442 443
2 442 444
2 444 445
2 444 446
2 446 447
2 446 449
2 447 448
2 447 468
2 449 450
2 449 456
2 450 451
2 450 452
2 452 453
2 452 458
2 453 454
2 453 455
2 455 456
2 455 459
2 456 457
2 458 477
2 458 478
2 459 475
2 459 476
2 479 482
2 479 551
2 479 553
2 480 483
2 480 552
2 480 554
2 481 556
2 481 558
2 482 484
2 482 551
2 482 553
2 483 485
2 483 552
2 483 554
2 484 486
2 484 497
2 485 487
2 485 498
2 486 488
2 486 490
2 487 489
2 487 491
2 490 492
2 490 501
2 491 493
2 491 502
2 492 494
2 493 495
2 493 496
2 496 498
2 496 500
2 498 499
2 500 555
2 500 556
2 501 503
2 501 518
2 502 504
2 502 519
2 503 505
2 503 507
2 504 506
2 504 508
2 507 510
2 508 512
2 510 514
2 510 546
2 511 515
2 511 547
2 512 516
2 512 548
2 513 517
2 513 549
2 518 520
2 518 546
2 519 521
2 519 548
2 522 525
2 522 550
2 522 714
2 523 712
2 524 713
2 525 526
2 525 527
2 527 529
2 527 530
2 530 531
2 530 533
2 531 532
2 531 550
2 533 534
2 533 541
2 534 536
2 534 537
2 537 538
2 537 544
2 538 539
2 538 540
2 540 541
2 540 545
2 541 542
2 543 559
2 543 561
2 544 560
2 544 562
2 545 557
2 545 558
2 563 568
2 563 655
2 563 659
2 564 569
2 564 656
2 564 660
2 565 570
2 565 657
2 565 661
2 566 571
2 566 658
2 566 662
2 567 664
2 567 666
2 568 655
2 568 659
2 569 572
2 569 656
2 569 660
2 570 657
2 570 661
2 571 573
2 571 658
2 571 662
2 572 574
2 572 585
2 573 575
2 573 586
2 574 576
2 574 578
2 575 577
2 575 579
2 578 580
2 578 589
2 579 581
2 579 591
2 580 582
2 581 583
2 581 584
2 584 586
2 584 588
2 586 587
2 588 663
2 588 664
2 589 593
2 589 615
2 590 594
2 591 595
2 591 616
2 592 596
2 593 597
2 593 601
2 594 598
2 594 602
2 595 599
2 595 603
2 596 600
2 596 604
2 601 607
2 602 608
2 603 609
2 604 610
2 607 611
2 607 649
2 608 612
2 608 650
2 609 613
2 609 651
2 610 614
2 610 652
2 615 617
2 615 649
2 616 618
2 616 651
2 619 622
2 619 653
2 620 623
2 620 654
2 622 624
2 622 626
2 623 625
2 623 627
2 626 628
2 626 630
2 627 629
2 627 631
2 630 632
2 630 636
2 631 633
2 631 637
2 632 634
2 632 653
2 633 635
2 633 654
2 637 638
2 637 644
2 638 639
2 638 640
2 640 641
2 640 647
2 641 642
2 641 643
2 643 644
2 643 648
2 644 646
2 647 667
2 647 668
2 648 665
2 648 666
2 669 674
2 669 750
2 669 754
2 670 675
2 670 751
2 670 755
2 671 676
2 671 752
2 671 756
2 672 677
2 672 753
2 672 757
2 673 759
2 673 761
2 674 750
2 674 754
2 675 678
2 675 751
2 675 755
2 676 752
2 676 756
2 677 679
2 677 753
2 677 757
2 678 680
2 678 691
2 679 681
2 679 692
2 680 682
2 680 684
2 681 683
2 681 685
2 684 686
2 684 695
2 685 687
2 685 696
2 686 688
2 687 689
2 687 690
2 690 692
2 690 694
2 692 693
2 694 758
2 694 759
2 695 697
2 695 708
2 696 698
2 696 709
2 697 699
2 697 701
2 698 700
2 698 702
2 701 704
2 702 705
2 704 706
2 704 746
2 705 707
2 705 747
2 708 710
2 708 746
2 709 711
2 709 747
2 712 715
2 712 748
2 713 716
2 713 749
2 715 717
2 715 719
2 716 718
2 716 720
2 719 722
2 719 725
2 720 724
2 720 726
2 725 727
2 725 731
2 726 728
2 726 732
2 727 729
2 727 748
2 728 730
2 728 749
2 732 733
2 732 740
2 733 735
2 733 736
2 736 737
2 736 744
2 737 738
2 737 739
2 739 740
2 739 745
2 740 742
2 743 762
2 743 764
2 744 763
2 744 765
2 745 760
2 745 761
