# vtk DataFile Version 1.0
Cube
ASCII

DATASET POLYDATA
POINTS 416 float
11.571063 13.228602 6.802397
4.231450 9.156711 5.417227
10.675688 10.932129 6.532733
10.105176 9.576139 6.296692
10.921732 8.551161 5.829704
11.836318 8.715215 5.687061
10.400833 7.276472 5.568191
9.028474 7.079026 5.743099
8.665421 6.226813 5.583474
8.189774 8.104003 6.147256
8.733216 9.356915 6.415561
8.170024 10.062495 6.680471
6.714647 7.892039 6.206691
11.235826 6.200681 5.014598
12.276306 6.443133 4.119680
12.485898 7.325833 3.871752
13.001588 5.392022 3.591560
-0.600715 5.550270 2.992117
12.670204 4.110074 3.960055
13.154601 3.397235 3.586465
10.984784 4.851949 5.316867
10.277260 4.653051 5.902724
-1.804441 13.837201 9.732023
-2.256890 0.135018 9.613153
-1.187950 13.615074 10.910530
-1.278470 14.230642 11.615257
-0.426025 12.487018 11.076947
0.030063 12.343289 11.885261
-0.331306 11.563667 10.056367
-1.054459 11.842414 8.913521
-1.021433 11.209425 8.220681
0.498270 10.347050 10.063160
0.622223 9.557265 11.199213
0.209654 9.820043 12.002432
1.366249 8.363877 11.144873
1.978464 7.995118 9.968064
2.422890 7.169038 9.910327
1.939849 8.850234 8.855784
1.193946 10.004423 8.911823
1.155286 10.567725 8.159548
1.515959 7.553767 12.384513
2.766325 8.546805 7.658598
11.700519 3.829875 4.814218
-1.807118 12.944338 8.706348
11.898857 11.180389 6.233861
9.967319 11.829348 7.072740
6.264895 6.733495 6.208389
6.000599 8.938794 6.179520
3.477253 7.521828 7.697655
2.788841 9.391759 6.705943
1.903430 6.335699 12.238473
1.274467 8.060449 13.490000
7.114184 13.228602 23.783767
-0.225430 9.156711 22.398596
6.218808 10.932129 23.514103
5.648297 9.576139 23.278062
6.464852 8.551161 22.811074
7.379438 8.715215 22.668430
5.943953 7.276472 22.549561
4.571594 7.079026 22.724469
4.208541 6.226813 22.564844
3.732894 8.104003 23.128625
4.276336 9.356915 23.396931
3.713145 10.062495 23.661841
2.257767 7.892039 23.188060
6.778946 6.200681 21.995968
7.819426 6.443133 21.101050
8.029019 7.325833 20.853122
8.544708 5.392022 20.572929
-5.057594 5.550270 19.973487
8.213325 4.110074 20.941425
8.697722 3.397235 20.567835
6.527905 4.851949 22.298237
5.820380 4.653051 22.884094
-6.261321 13.837201 26.713393
-6.713770 0.135018 26.594523
-5.644829 13.615074 27.891900
-5.735350 14.230642 28.596627
-4.882904 12.487018 28.058317
-4.426817 12.343289 28.866630
-4.788186 11.563667 27.037737
-5.511339 11.842414 25.894891
-5.478313 11.209425 25.202051
-3.958610 10.347050 27.044529
-3.834657 9.557265 28.180583
-4.247226 9.820043 28.983802
-3.090631 8.363877 28.126243
-2.478416 7.995118 26.949434
-2.033990 7.169038 26.891697
-2.517031 8.850234 25.837154
-3.262933 10.004423 25.893192
-3.301594 10.567725 25.140918
-2.940921 7.553767 29.365883
-1.690555 8.546805 24.639967
7.243640 3.829875 21.795588
-6.263998 12.944338 25.687718
7.441978 11.180389 23.215230
5.510439 11.829348 24.054110
1.808016 6.733495 23.189758
1.543719 8.938794 23.160890
-0.979627 7.521828 24.679025
-1.668039 9.391759 23.687313
-2.553450 6.335699 29.219843
-3.182413 8.060449 30.471370
11.571063 27.746702 6.802397
4.231450 23.674811 5.417227
10.675688 25.450229 6.532733
10.105176 24.094239 6.296692
10.921732 23.069261 5.829704
11.836318 23.233315 5.687061
10.400833 21.794572 5.568191
9.028474 21.597126 5.743099
8.665421 20.744913 5.583474
8.189774 22.622103 6.147256
8.733216 23.875015 6.415561
8.170024 24.580595 6.680471
6.714647 22.410139 6.206691
11.235826 20.718781 5.014598
12.276306 20.961233 4.119680
12.485898 21.843933 3.871752
13.001588 19.910122 3.591560
-0.600715 20.068370 2.992117
12.670204 18.628174 3.960055
13.154601 17.915335 3.586465
10.984784 19.370049 5.316867
10.277260 19.171151 5.902724
-1.804441 28.355301 9.732023
-2.256890 14.653118 9.613153
-1.187950 28.133174 10.910530
-1.278470 28.748742 11.615257
-0.426025 27.005118 11.076947
0.030063 26.861389 11.885261
-0.331306 26.081767 10.056367
-1.054459 26.360514 8.913521
-1.021433 25.727525 8.220681
0.498270 24.865150 10.063160
0.622223 24.075365 11.199213
0.209654 24.338143 12.002432
1.366249 22.881977 11.144873
1.978464 22.513218 9.968064
2.422890 21.687138 9.910327
1.939849 23.368334 8.855784
1.193946 24.522523 8.911823
1.155286 25.085825 8.159548
1.515959 22.071867 12.384513
2.766325 23.064905 7.658598
11.700519 18.347975 4.814218
-1.807118 27.462438 8.706348
11.898857 25.698489 6.233861
9.967319 26.347448 7.072740
6.264895 21.251595 6.208389
6.000599 23.456894 6.179520
3.477253 22.039928 7.697655
2.788841 23.909859 6.705943
1.903430 20.853799 12.238473
1.274467 22.578549 13.490000
7.114184 27.746702 23.783767
-0.225430 23.674811 22.398596
6.218808 25.450229 23.514103
5.648297 24.094239 23.278062
6.464852 23.069261 22.811074
7.379438 23.233315 22.668430
5.943953 21.794572 22.549561
4.571594 21.597126 22.724469
4.208541 20.744913 22.564844
3.732894 22.622103 23.128625
4.276336 23.875015 23.396931
3.713145 24.580595 23.661841
2.257767 22.410139 23.188060
6.778946 20.718781 21.995968
7.819426 20.961233 21.101050
8.029019 21.843933 20.853122
8.544708 19.910122 20.572929
-5.057594 20.068370 19.973487
8.213325 18.628174 20.941425
8.697722 17.915335 20.567835
6.527905 19.370049 22.298237
5.820380 19.171151 22.884094
-6.261321 28.355301 26.713393
-6.713770 14.653118 26.594523
-5.644829 28.133174 27.891900
-5.735350 28.748742 28.596627
-4.882904 27.005118 28.058317
-4.426817 26.861389 28.866630
-4.788186 26.081767 27.037737
-5.511339 26.360514 25.894891
-5.478313 25.727525 25.202051
-3.958610 24.865150 27.044529
-3.834657 24.075365 28.180583
-4.247226 24.338143 28.983802
-3.090631 22.881977 28.126243
-2.478416 22.513218 26.949434
-2.033990 21.687138 26.891697
-2.517031 23.368334 25.837154
-3.262933 24.522523 25.893192
-3.301594 25.085825 25.140918
-2.940921 22.071867 29.365883
-1.690555 23.064905 24.639967
7.243640 18.347975 21.795588
-6.263998 27.462438 25.687718
7.441978 25.698489 23.215230
5.510439 26.347448 24.054110
1.808016 21.251595 23.189758
1.543719 23.456894 23.160890
-0.979627 22.039928 24.679025
-1.668039 23.909859 23.687313
-2.553450 20.853799 29.219843
-3.182413 22.578549 30.471370
25.880163 13.228602 6.802397
18.540550 9.156711 5.417227
24.984788 10.932129 6.532733
24.414276 9.576139 6.296692
25.230832 8.551161 5.829704
26.145418 8.715215 5.687061
24.709933 7.276472 5.568191
23.337574 7.079026 5.743099
22.974521 6.226813 5.583474
22.498874 8.104003 6.147256
23.042316 9.356915 6.415561
22.479124 10.062495 6.680471
21.023747 7.892039 6.206691
25.544926 6.200681 5.014598
26.585406 6.443133 4.119680
26.794998 7.325833 3.871752
27.310688 5.392022 3.591560
13.708385 5.550270 2.992117
26.979304 4.110074 3.960055
27.463701 3.397235 3.586465
25.293884 4.851949 5.316867
24.586360 4.653051 5.902724
12.504659 13.837201 9.732023
12.052210 0.135018 9.613153
13.121150 13.615074 10.910530
13.030630 14.230642 11.615257
13.883075 12.487018 11.076947
14.339163 12.343289 11.885261
13.977794 11.563667 10.056367
13.254641 11.842414 8.913521
13.287667 11.209425 8.220681
14.807370 10.347050 10.063160
14.931323 9.557265 11.199213
14.518754 9.820043 12.002432
15.675349 8.363877 11.144873
16.287564 7.995118 9.968064
16.731990 7.169038 9.910327
16.248949 8.850234 8.855784
15.503046 10.004423 8.911823
15.464386 10.567725 8.159548
15.825059 7.553767 12.384513
17.075425 8.546805 7.658598
26.009619 3.829875 4.814218
12.501982 12.944338 8.706348
26.207957 11.180389 6.233861
24.276419 11.829348 7.072740
20.573995 6.733495 6.208389
20.309699 8.938794 6.179520
17.786353 7.521828 7.697655
17.097941 9.391759 6.705943
16.212530 6.335699 12.238473
15.583567 8.060449 13.490000
21.423284 13.228602 23.783767
14.083670 9.156711 22.398596
20.527908 10.932129 23.514103
19.957397 9.576139 23.278062
20.773952 8.551161 22.811074
21.688538 8.715215 22.668430
20.253053 7.276472 22.549561
18.880694 7.079026 22.724469
18.517641 6.226813 22.564844
18.041994 8.104003 23.128625
18.585436 9.356915 23.396931
18.022245 10.062495 23.661841
16.566867 7.892039 23.188060
21.088046 6.200681 21.995968
22.128526 6.443133 21.101050
22.338119 7.325833 20.853122
22.853808 5.392022 20.572929
9.251506 5.550270 19.973487
22.522425 4.110074 20.941425
23.006822 3.397235 20.567835
20.837005 4.851949 22.298237
20.129480 4.653051 22.884094
8.047779 13.837201 26.713393
7.595330 0.135018 26.594523
8.664271 13.615074 27.891900
8.573750 14.230642 28.596627
9.426196 12.487018 28.058317
9.882283 12.343289 28.866630
9.520914 11.563667 27.037737
8.797761 11.842414 25.894891
8.830787 11.209425 25.202051
10.350490 10.347050 27.044529
10.474443 9.557265 28.180583
10.061874 9.820043 28.983802
11.218469 8.363877 28.126243
11.830684 7.995118 26.949434
12.275110 7.169038 26.891697
11.792069 8.850234 25.837154
11.046167 10.004423 25.893192
11.007506 10.567725 25.140918
11.368179 7.553767 29.365883
12.618545 8.546805 24.639967
21.552740 3.829875 21.795588
8.045102 12.944338 25.687718
21.751078 11.180389 23.215230
19.819539 11.829348 24.054110
16.117116 6.733495 23.189758
15.852819 8.938794 23.160890
13.329473 7.521828 24.679025
12.641061 9.391759 23.687313
11.755650 6.335699 29.219843
11.126687 8.060449 30.471370
25.880163 27.746702 6.802397
18.540550 23.674811 5.417227
24.984788 25.450229 6.532733
24.414276 24.094239 6.296692
25.230832 23.069261 5.829704
26.145418 23.233315 5.687061
24.709933 21.794572 5.568191
23.337574 21.597126 5.743099
22.974521 20.744913 5.583474
22.498874 22.622103 6.147256
23.042316 23.875015 6.415561
22.479124 24.580595 6.680471
21.023747 22.410139 6.206691
25.544926 20.718781 5.014598
26.585406 20.961233 4.119680
26.794998 21.843933 3.871752
27.310688 19.910122 3.591560
13.708385 20.068370 2.992117
26.979304 18.628174 3.960055
27.463701 17.915335 3.586465
25.293884 19.370049 5.316867
24.586360 19.171151 5.902724
12.504659 28.355301 9.732023
12.052210 14.653118 9.613153
13.121150 28.133174 10.910530
13.030630 28.748742 11.615257
13.883075 27.005118 11.076947
14.339163 26.861389 11.885261
13.977794 26.081767 10.056367
13.254641 26.360514 8.913521
13.287667 25.727525 8.220681
14.807370 24.865150 10.063160
14.931323 24.075365 11.199213
14.518754 24.338143 12.002432
15.675349 22.881977 11.144873
16.287564 22.513218 9.968064
16.731990 21.687138 9.910327
16.248949 23.368334 8.855784
15.503046 24.522523 8.911823
15.464386 25.085825 8.159548
15.825059 22.071867 12.384513
17.075425 23.064905 7.658598
26.009619 18.347975 4.814218
12.501982 27.462438 8.706348
26.207957 25.698489 6.233861
24.276419 26.347448 7.072740
20.573995 21.251595 6.208389
20.309699 23.456894 6.179520
17.786353 22.039928 7.697655
17.097941 23.909859 6.705943
16.212530 20.853799 12.238473
15.583567 22.578549 13.490000
21.423284 27.746702 23.783767
14.083670 23.674811 22.398596
20.527908 25.450229 23.514103
19.957397 24.094239 23.278062
20.773952 23.069261 22.811074
21.688538 23.233315 22.668430
20.253053 21.794572 22.549561
18.880694 21.597126 22.724469
18.517641 20.744913 22.564844
18.041994 22.622103 23.128625
18.585436 23.875015 23.396931
18.022245 24.580595 23.661841
16.566867 22.410139 23.188060
21.088046 20.718781 21.995968
22.128526 20.961233 21.101050
22.338119 21.843933 20.853122
22.853808 19.910122 20.572929
9.251506 20.068370 19.973487
22.522425 18.628174 20.941425
23.006822 17.915335 20.567835
20.837005 19.370049 22.298237
20.129480 19.171151 22.884094
8.047779 28.355301 26.713393
7.595330 14.653118 26.594523
8.664271 28.133174 27.891900
8.573750 28.748742 28.596627
9.426196 27.005118 28.058317
9.882283 26.861389 28.866630
9.520914 26.081767 27.037737
8.797761 26.360514 25.894891
8.830787 25.727525 25.202051
10.350490 24.865150 27.044529
10.474443 24.075365 28.180583
10.061874 24.338143 28.983802
11.218469 22.881977 28.126243
11.830684 22.513218 26.949434
12.275110 21.687138 26.891697
11.792069 23.368334 25.837154
11.046167 24.522523 25.893192
11.007506 25.085825 25.140918
11.368179 22.071867 29.365883
12.618545 23.064905 24.639967
21.552740 18.347975 21.795588
8.045102 27.462438 25.687718
21.751078 25.698489 23.215230
19.819539 26.347448 24.054110
16.117116 21.251595 23.189758
15.852819 23.456894 23.160890
13.329473 22.039928 24.679025
12.641061 23.909859 23.687313
11.755650 20.853799 29.219843
11.126687 22.578549 30.471370
POINT_DATA 416
SCALARS my_scalars float
LOOKUP_TABLE default
2
2
1.7
1.7
1.7
1.09
1.7
1.7
1.09
1.7
1.7
1.09
1.7
1.7
1.7
1.09
1.7
1.09
1.7
1.09
1.7
1.09
1.7
1.09
1.7
1.09
1.7
1.09
1.7
1.7
1.09
1.7
1.7
1.09
1.7
1.7
1.09
1.7
1.7
1.09
1.7
1.7
1.55
1.55
1.52
1.52
1.52
1.52
1.52
1.52
1.52
1.52
2
2
1.7
1.7
1.7
1.09
1.7
1.7
1.09
1.7
1.7
1.09
1.7
1.7
1.7
1.09
1.7
1.09
1.7
1.09
1.7
1.09
1.7
1.09
1.7
1.09
1.7
1.09
1.7
1.7
1.09
1.7
1.7
1.09
1.7
1.7
1.09
1.7
1.7
1.09
1.7
1.7
1.55
1.55
1.52
1.52
1.52
1.52
1.52
1.52
1.52
1.52
2
2
1.7
1.7
1.7
1.09
1.7
1.7
1.09
1.7
1.7
1.09
1.7
1.7
1.7
1.09
1.7
1.09
1.7
1.09
1.7
1.09
1.7
1.09
1.7
1.09
1.7
1.09
1.7
1.7
1.09
1.7
1.7
1.09
1.7
1.7
1.09
1.7
1.7
1.09
1.7
1.7
1.55
1.55
1.52
1.52
1.52
1.52
1.52
1.52
1.52
1.52
2
2
1.7
1.7
1.7
1.09
1.7
1.7
1.09
1.7
1.7
1.09
1.7
1.7
1.7
1.09
1.7
1.09
1.7
1.09
1.7
1.09
1.7
1.09
1.7
1.09
1.7
1.09
1.7
1.7
1.09
1.7
1.7
1.09
1.7
1.7
1.09
1.7
1.7
1.09
1.7
1.7
1.55
1.55
1.52
1.52
1.52
1.52
1.52
1.52
1.52
1.52
2
2
1.7
1.7
1.7
1.09
1.7
1.7
1.09
1.7
1.7
1.09
1.7
1.7
1.7
1.09
1.7
1.09
1.7
1.09
1.7
1.09
1.7
1.09
1.7
1.09
1.7
1.09
1.7
1.7
1.09
1.7
1.7
1.09
1.7
1.7
1.09
1.7
1.7
1.09
1.7
1.7
1.55
1.55
1.52
1.52
1.52
1.52
1.52
1.52
1.52
1.52
2
2
1.7
1.7
1.7
1.09
1.7
1.7
1.09
1.7
1.7
1.09
1.7
1.7
1.7
1.09
1.7
1.09
1.7
1.09
1.7
1.09
1.7
1.09
1.7
1.09
1.7
1.09
1.7
1.7
1.09
1.7
1.7
1.09
1.7
1.7
1.09
1.7
1.7
1.09
1.7
1.7
1.55
1.55
1.52
1.52
1.52
1.52
1.52
1.52
1.52
1.52
2
2
1.7
1.7
1.7
1.09
1.7
1.7
1.09
1.7
1.7
1.09
1.7
1.7
1.7
1.09
1.7
1.09
1.7
1.09
1.7
1.09
1.7
1.09
1.7
1.09
1.7
1.09
1.7
1.7
1.09
1.7
1.7
1.09
1.7
1.7
1.09
1.7
1.7
1.09
1.7
1.7
1.55
1.55
1.52
1.52
1.52
1.52
1.52
1.52
1.52
1.52
2
2
1.7
1.7
1.7
1.09
1.7
1.7
1.09
1.7
1.7
1.09
1.7
1.7
1.7
1.09
1.7
1.09
1.7
1.09
1.7
1.09
1.7
1.09
1.7
1.09
1.7
1.09
1.7
1.7
1.09
1.7
1.7
1.09
1.7
1.7
1.09
1.7
1.7
1.09
1.7
1.7
1.55
1.55
1.52
1.52
1.52
1.52
1.52
1.52
1.52
1.52
VECTORS vectors float
0.4375 0 0
0.4375 0 0
0.3125 0 0
0.3125 0 0
0.3125 0 0
0.25 0 0
0.3125 0 0
0.3125 0 0
0.25 0 0
0.3125 0 0
0.3125 0 0
0.25 0 0
0.3125 0 0
0.3125 0 0
0.3125 0 0
0.25 0 0
0.3125 0 0
0.25 0 0
0.3125 0 0
0.25 0 0
0.3125 0 0
0.25 0 0
0.3125 0 0
0.25 0 0
0.3125 0 0
0.25 0 0
0.3125 0 0
0.25 0 0
0.3125 0 0
0.3125 0 0
0.25 0 0
0.3125 0 0
0.3125 0 0
0.25 0 0
0.3125 0 0
0.3125 0 0
0.25 0 0
0.3125 0 0
0.3125 0 0
0.25 0 0
0.3125 0 0
0.3125 0 0
0 0 0
0 0 0
0.03125 0 0
0.03125 0 0
0.03125 0 0
0.03125 0 0
0.03125 0 0
0.03125 0 0
0.03125 0 0
0.03125 0 0
0.4375 0 0
0.4375 0 0
0.3125 0 0
0.3125 0 0
0.3125 0 0
0.25 0 0
0.3125 0 0
0.3125 0 0
0.25 0 0
0.3125 0 0
0.3125 0 0
0.25 0 0
0.3125 0 0
0.3125 0 0
0.3125 0 0
0.25 0 0
0.3125 0 0
0.25 0 0
0.3125 0 0
0.25 0 0
0.3125 0 0
0.25 0 0
0.3125 0 0
0.25 0 0
0.3125 0 0
0.25 0 0
0.3125 0 0
0.25 0 0
0.3125 0 0
0.3125 0 0
0.25 0 0
0.3125 0 0
0.3125 0 0
0.25 0 0
0.3125 0 0
0.3125 0 0
0.25 0 0
0.3125 0 0
0.3125 0 0
0.25 0 0
0.3125 0 0
0.3125 0 0
0 0 0
0 0 0
0.03125 0 0
0.03125 0 0
0.03125 0 0
0.03125 0 0
0.03125 0 0
0.03125 0 0
0.03125 0 0
0.03125 0 0
0.4375 0 0
0.4375 0 0
0.3125 0 0
0.3125 0 0
0.3125 0 0
0.25 0 0
0.3125 0 0
0.3125 0 0
0.25 0 0
0.3125 0 0
0.3125 0 0
0.25 0 0
0.3125 0 0
0.3125 0 0
0.3125 0 0
0.25 0 0
0.3125 0 0
0.25 0 0
0.3125 0 0
0.25 0 0
0.3125 0 0
0.25 0 0
0.3125 0 0
0.25 0 0
0.3125 0 0
0.25 0 0
0.3125 0 0
0.25 0 0
0.3125 0 0
0.3125 0 0
0.25 0 0
0.3125 0 0
0.3125 0 0
0.25 0 0
0.3125 0 0
0.3125 0 0
0.25 0 0
0.3125 0 0
0.3125 0 0
0.25 0 0
0.3125 0 0
0.3125 0 0
0 0 0
0 0 0
0.03125 0 0
0.03125 0 0
0.03125 0 0
0.03125 0 0
0.03125 0 0
0.03125 0 0
0.03125 0 0
0.03125 0 0
0.4375 0 0
0.4375 0 0
0.3125 0 0
0.3125 0 0
0.3125 0 0
0.25 0 0
0.3125 0 0
0.3125 0 0
0.25 0 0
0.3125 0 0
0.3125 0 0
0.25 0 0
0.3125 0 0
0.3125 0 0
0.3125 0 0
0.25 0 0
0.3125 0 0
0.25 0 0
0.3125 0 0
0.25 0 0
0.3125 0 0
0.25 0 0
0.3125 0 0
0.25 0 0
0.3125 0 0
0.25 0 0
0.3125 0 0
0.25 0 0
0.3125 0 0
0.3125 0 0
0.25 0 0
0.3125 0 0
0.3125 0 0
0.25 0 0
0.3125 0 0
0.3125 0 0
0.25 0 0
0.3125 0 0
0.3125 0 0
0.25 0 0
0.3125 0 0
0.3125 0 0
0 0 0
0 0 0
0.03125 0 0
0.03125 0 0
0.03125 0 0
0.03125 0 0
0.03125 0 0
0.03125 0 0
0.03125 0 0
0.03125 0 0
0.4375 0 0
0.4375 0 0
0.3125 0 0
0.3125 0 0
0.3125 0 0
0.25 0 0
0.3125 0 0
0.3125 0 0
0.25 0 0
0.3125 0 0
0.3125 0 0
0.25 0 0
0.3125 0 0
0.3125 0 0
0.3125 0 0
0.25 0 0
0.3125 0 0
0.25 0 0
0.3125 0 0
0.25 0 0
0.3125 0 0
0.25 0 0
0.3125 0 0
0.25 0 0
0.3125 0 0
0.25 0 0
0.3125 0 0
0.25 0 0
0.3125 0 0
0.3125 0 0
0.25 0 0
0.3125 0 0
0.3125 0 0
0.25 0 0
0.3125 0 0
0.3125 0 0
0.25 0 0
0.3125 0 0
0.3125 0 0
0.25 0 0
0.3125 0 0
0.3125 0 0
0 0 0
0 0 0
0.03125 0 0
0.03125 0 0
0.03125 0 0
0.03125 0 0
0.03125 0 0
0.03125 0 0
0.03125 0 0
0.03125 0 0
0.4375 0 0
0.4375 0 0
0.3125 0 0
0.3125 0 0
0.3125 0 0
0.25 0 0
0.3125 0 0
0.3125 0 0
0.25 0 0
0.3125 0 0
0.3125 0 0
0.25 0 0
0.3125 0 0
0.3125 0 0
0.3125 0 0
0.25 0 0
0.3125 0 0
0.25 0 0
0.3125 0 0
0.25 0 0
0.3125 0 0
0.25 0 0
0.3125 0 0
0.25 0 0
0.3125 0 0
0.25 0 0
0.3125 0 0
0.25 0 0
0.3125 0 0
0.3125 0 0
0.25 0 0
0.3125 0 0
0.3125 0 0
0.25 0 0
0.3125 0 0
0.3125 0 0
0.25 0 0
0.3125 0 0
0.3125 0 0
0.25 0 0
0.3125 0 0
0.3125 0 0
0 0 0
0 0 0
0.03125 0 0
0.03125 0 0
0.03125 0 0
0.03125 0 0
0.03125 0 0
0.03125 0 0
0.03125 0 0
0.03125 0 0
0.4375 0 0
0.4375 0 0
0.3125 0 0
0.3125 0 0
0.3125 0 0
0.25 0 0
0.3125 0 0
0.3125 0 0
0.25 0 0
0.3125 0 0
0.3125 0 0
0.25 0 0
0.3125 0 0
0.3125 0 0
0.3125 0 0
0.25 0 0
0.3125 0 0
0.25 0 0
0.3125 0 0
0.25 0 0
0.3125 0 0
0.25 0 0
0.3125 0 0
0.25 0 0
0.3125 0 0
0.25 0 0
0.3125 0 0
0.25 0 0
0.3125 0 0
0.3125 0 0
0.25 0 0
0.3125 0 0
0.3125 0 0
0.25 0 0
0.3125 0 0
0.3125 0 0
0.25 0 0
0.3125 0 0
0.3125 0 0
0.25 0 0
0.3125 0 0
0.3125 0 0
0 0 0
0 0 0
0.03125 0 0
0.03125 0 0
0.03125 0 0
0.03125 0 0
0.03125 0 0
0.03125 0 0
0.03125 0 0
0.03125 0 0
0.4375 0 0
0.4375 0 0
0.3125 0 0
0.3125 0 0
0.3125 0 0
0.25 0 0
0.3125 0 0
0.3125 0 0
0.25 0 0
0.3125 0 0
0.3125 0 0
0.25 0 0
0.3125 0 0
0.3125 0 0
0.3125 0 0
0.25 0 0
0.3125 0 0
0.25 0 0
0.3125 0 0
0.25 0 0
0.3125 0 0
0.25 0 0
0.3125 0 0
0.25 0 0
0.3125 0 0
0.25 0 0
0.3125 0 0
0.25 0 0
0.3125 0 0
0.3125 0 0
0.25 0 0
0.3125 0 0
0.3125 0 0
0.25 0 0
0.3125 0 0
0.3125 0 0
0.25 0 0
0.3125 0 0
0.3125 0 0
0.25 0 0
0.3125 0 0
0.3125 0 0
0 0 0
0 0 0
0.03125 0 0
0.03125 0 0
0.03125 0 0
0.03125 0 0
0.03125 0 0
0.03125 0 0
0.03125 0 0
0.03125 0 0
